<svg width="127" height="41" viewBox="0 0 127 41" fill="none" xmlns="http://www.w3.org/2000/svg">
    <path
        d="M2.10791 14.21C2.10791 7.58254 7.48049 2.20996 14.1079 2.20996H113.108C119.735 2.20996 125.108 7.58254 125.108 14.21V27.21C125.108 33.8374 119.735 39.21 113.108 39.21H14.1079C7.4805 39.21 2.10791 33.8374 2.10791 27.21V14.21Z"
        fill="#F8F8F6" />
    <path
        d="M30.1567 0.879883C33.432 -0.144396 36.723 -0.276219 40.0063 0.493164L40.5278 0.616211L41.0552 0.739258C44.1129 1.45567 47.1658 1.58141 50.2192 1.11426L50.7466 1.03223L51.2681 0.950195C54.5291 0.451233 57.7902 0.683313 61.0415 1.63574L61.5688 1.78809L62.0962 1.94629C65.1451 2.83933 68.1861 3.06475 71.2251 2.63184L72.2798 2.47949C75.4899 2.02215 78.7017 1.96729 81.9126 2.30957L82.4399 2.3623L82.9614 2.4209C86.0766 2.75297 89.1925 2.86267 92.3071 2.75488L92.8345 2.7373L93.356 2.71973C96.5254 2.61005 99.6963 2.62367 102.866 2.76074L103.393 2.78418L103.915 2.80762C107.072 2.94417 110.125 3.12695 113.073 3.35254L113.565 3.3877L114.051 3.42285C117.164 3.66106 120.032 4.89564 122.635 7.08496L123.467 7.78809C124.806 8.91494 125.725 10.2265 126.174 11.7256C126.623 13.2243 126.585 14.8544 126.11 16.5889L125.963 17.1338L125.817 17.6729C124.954 20.822 124.787 24.0244 125.325 27.2822L125.512 28.4072C125.809 30.2037 125.649 31.8336 124.979 33.2588C124.308 34.6855 123.155 35.8403 121.586 36.7393L121.1 37.0205L120.608 37.3018C117.588 39.0314 114.432 40.0135 111.151 40.2314L110.629 40.2666L110.102 40.2959C106.929 40.5067 103.76 40.6444 100.598 40.7061L100.071 40.7178L99.5493 40.7295C96.3304 40.7922 93.1117 40.4168 89.8989 39.6045L89.3774 39.4697L88.8501 39.335C85.7543 38.5522 82.6594 38.1342 79.5688 38.0811L79.0474 38.0752L78.52 38.0635C75.3716 38.0093 72.2231 37.9636 69.0747 37.9229L68.5474 37.917L68.0259 37.9111C64.9163 37.8709 61.8027 38.0774 58.6919 38.5381L58.1704 38.6201L57.6431 38.6963C54.4524 39.1688 51.2608 39.3745 48.0688 39.3115L47.5415 39.2998L47.02 39.2881C43.9095 39.2268 40.7976 39.4088 37.686 39.8271L36.6313 39.9678C33.4064 40.4013 30.1812 40.3363 26.9575 39.7803L26.4302 39.6924L25.9087 39.6045C22.8552 39.0778 19.7398 39.133 16.563 39.7803L15.4731 40.0029C11.9507 40.721 8.96611 39.7391 6.63135 37.0732L5.9165 36.2529C3.6829 33.7024 2.20272 30.8136 1.49854 27.5928L1.27588 26.5615C0.589923 23.4238 0.18172 20.1906 0.0512695 16.8643L0.027832 16.3193L0.0102539 15.7686C-0.126906 12.2642 1.11897 9.25255 3.71338 6.78027L4.12354 6.3877L4.53369 6.00098C5.78565 4.80874 6.96362 3.91332 8.06689 3.35254C9.16997 2.79216 10.2497 2.54214 11.2661 2.70801L11.5356 2.74902L11.8052 2.7959C12.587 2.92332 13.0922 2.93749 13.3755 2.89551C13.4212 2.3415 13.8706 2.07641 14.1372 1.97559C14.445 1.85917 14.8347 1.80912 15.2505 1.78809C16.1017 1.74511 17.3348 1.81943 18.9185 1.99902L19.4399 2.05762L19.9673 2.12207C23.0088 2.46697 26.0538 2.16293 29.1079 1.20801L29.6353 1.04395L30.1567 0.879883ZM39.6606 1.95215C36.6449 1.24576 33.6316 1.3642 30.6079 2.30957L30.0806 2.47363L29.5591 2.6377C26.3136 3.65264 23.0553 3.97982 19.7974 3.61035L19.2759 3.55176L18.7485 3.49316C17.1822 3.31553 16.0504 3.25155 15.3267 3.28809C15.105 3.29929 14.9465 3.33152 14.8345 3.35254C14.7882 3.62937 14.6507 3.87509 14.4243 4.05566C14.1787 4.25077 13.8783 4.33697 13.6157 4.37793C13.0888 4.45992 12.3836 4.40701 11.5591 4.27246L11.2896 4.23145L11.02 4.18457C10.4197 4.08715 9.67334 4.22328 8.74658 4.69434C7.81923 5.16573 6.75718 5.94953 5.56494 7.08496L5.16064 7.47754L4.75049 7.86426C2.45661 10.0491 1.3904 12.6484 1.51025 15.71L1.52783 16.2607L1.55127 16.8057C1.67839 20.0468 2.07444 23.1912 2.74072 26.2393L2.85205 26.7549L2.96924 27.2705C3.61735 30.2351 4.96992 32.8967 7.0415 35.2627L7.39893 35.6729L7.76221 36.083C9.73341 38.3337 12.167 39.1452 15.1743 38.5322L16.2642 38.3096C19.6153 37.6268 22.9161 37.5625 26.1606 38.1221L26.688 38.2158L27.2095 38.3037C30.2843 38.8341 33.3586 38.8927 36.4321 38.4795L36.9595 38.4092L37.481 38.3389C40.6687 37.9101 43.8606 37.7252 47.0493 37.7881L47.5708 37.7998L48.0981 37.8115C51.206 37.8728 54.3171 37.6743 57.4263 37.2139L57.9478 37.1318L58.4751 37.0557C61.6637 36.5835 64.8535 36.3699 68.0435 36.4111L68.5708 36.417L69.0923 36.4229C72.2434 36.4636 75.3982 36.5093 78.5493 36.5635L79.0708 36.5752L79.5981 36.5869C82.807 36.6422 86.0157 37.0718 89.2192 37.8818L89.7407 38.0166L90.2681 38.1455C93.3553 38.9261 96.439 39.2895 99.52 39.2295L100.042 39.2178L100.569 39.2061C103.707 39.1449 106.853 39.011 110.002 38.8018L110.53 38.7666L111.051 38.7314C114.091 38.5295 117.028 37.62 119.864 35.9951L120.35 35.7197L120.842 35.4385C122.201 34.6598 123.105 33.7138 123.62 32.6201C124.135 31.5255 124.289 30.2132 124.03 28.6475L123.942 28.0908L123.848 27.5283C123.275 24.059 123.449 20.6405 124.37 17.2803L124.516 16.7354L124.663 16.1963C125.079 14.6766 125.091 13.3373 124.739 12.1592C124.386 10.9833 123.655 9.90793 122.5 8.93652L121.668 8.2334C119.279 6.22379 116.706 5.13472 113.94 4.92285L113.448 4.88184L112.961 4.84668C110.031 4.6224 106.992 4.44352 103.85 4.30762L103.323 4.28418L102.801 4.26074C99.6707 4.12535 96.5392 4.11139 93.4087 4.21973L92.8813 4.2373L92.3599 4.25488C89.1745 4.36511 85.988 4.25453 82.8032 3.91504L82.2759 3.85645L81.7544 3.79785C78.667 3.46874 75.579 3.52771 72.4907 3.96777L71.9634 4.04395L71.436 4.11426C68.178 4.57834 64.9224 4.33337 61.6743 3.38184L60.6196 3.07715C57.5724 2.18443 54.5341 1.96794 51.4966 2.43262L50.9692 2.51465L50.4478 2.59668C47.2016 3.09337 43.9513 2.9579 40.7095 2.19824L40.188 2.0752L39.6606 1.95215Z"
        fill="black" />
    <path
        d="M31.4523 29.662C31.2323 29.574 30.9757 29.4493 30.6823 29.288C30.389 29.1413 30.1103 28.9433 29.8463 28.694C29.5823 28.4446 29.377 28.144 29.2303 27.792C29.0837 27.3666 28.981 26.9486 28.9223 26.538C28.8783 26.1273 28.8637 25.6506 28.8783 25.108C28.8783 24.3453 28.9297 23.6853 29.0323 23.128C29.1497 22.556 29.3257 21.9766 29.5603 21.39C29.5897 21.346 29.641 21.2213 29.7143 21.016C29.8023 20.796 29.8977 20.5613 30.0003 20.312C30.1177 20.0626 30.2057 19.872 30.2643 19.74C30.3817 19.4906 30.5577 19.1606 30.7923 18.75C31.0417 18.3246 31.3057 17.914 31.5843 17.518C32.0097 16.8873 32.369 16.374 32.6623 15.978C32.9557 15.5673 33.2343 15.2226 33.4983 14.944C33.777 14.6653 34.0777 14.394 34.4003 14.13C34.7377 13.866 35.1557 13.5653 35.6543 13.228C35.977 12.9933 36.3877 12.8466 36.8863 12.788C37.3997 12.7293 37.8983 12.81 38.3823 13.03C38.8663 13.2353 39.2257 13.6313 39.4603 14.218C39.6217 14.526 39.695 14.9146 39.6803 15.384C39.6657 15.8386 39.5777 16.33 39.4163 16.858C39.255 17.3713 39.0497 17.8553 38.8003 18.31C38.551 18.7646 38.2723 19.1313 37.9643 19.41C37.7737 19.586 37.517 19.6153 37.1943 19.498C36.8863 19.3806 36.6297 19.2266 36.4243 19.036C36.2923 18.7866 36.219 18.64 36.2043 18.596C36.2043 18.552 36.2337 18.5226 36.2923 18.508C36.3803 18.4053 36.4977 18.2293 36.6443 17.98C36.791 17.7306 36.9377 17.4666 37.0843 17.188C37.231 16.8946 37.3337 16.66 37.3923 16.484C37.5097 15.868 37.5903 15.4646 37.6343 15.274C37.6783 15.0686 37.6343 14.9 37.5023 14.768C37.4437 14.7093 37.3557 14.6873 37.2383 14.702C37.1357 14.7166 36.9597 14.79 36.7103 14.922C36.373 15.0686 35.9697 15.3693 35.5003 15.824C35.0457 16.264 34.591 16.792 34.1363 17.408C33.5497 18.1853 33.0583 18.8746 32.6623 19.476C32.2663 20.0773 31.9657 20.6933 31.7603 21.324C31.731 21.3826 31.6797 21.4926 31.6063 21.654C31.5477 21.8153 31.5183 21.896 31.5183 21.896C31.533 21.9546 31.511 22.1013 31.4523 22.336C31.3937 22.556 31.3277 22.7466 31.2543 22.908C31.093 23.5826 30.9977 24.2353 30.9683 24.866C30.939 25.482 30.9757 26.0246 31.0783 26.494C31.1957 26.9486 31.3643 27.286 31.5843 27.506C31.775 27.638 32.017 27.682 32.3103 27.638C32.6037 27.594 32.941 27.4913 33.3223 27.33C33.7037 27.1686 34.1143 26.9926 34.5543 26.802C34.9063 26.6553 35.229 26.494 35.5223 26.318C35.8157 26.142 36.0357 25.988 36.1823 25.856C36.2997 25.768 36.4463 25.68 36.6223 25.592C36.813 25.4893 36.9743 25.438 37.1063 25.438C37.3117 25.3646 37.4657 25.4233 37.5683 25.614C37.671 25.8046 37.7223 26.0466 37.7223 26.34C37.7223 26.5453 37.5757 26.7946 37.2823 27.088C36.989 27.3813 36.6663 27.6306 36.3143 27.836C36.197 27.9533 36.0357 28.0633 35.8303 28.166C35.6397 28.254 35.4417 28.3346 35.2363 28.408C34.9283 28.6426 34.547 28.87 34.0923 29.09C33.6377 29.31 33.1757 29.4786 32.7063 29.596C32.2517 29.7133 31.8337 29.7353 31.4523 29.662ZM40.7707 28.056C40.58 28.056 40.426 28.0193 40.3087 27.946C40.206 27.8726 40.074 27.77 39.9127 27.638C39.634 27.3446 39.4067 27.0293 39.2307 26.692C39.0694 26.3546 39.0107 26.0613 39.0547 25.812C39.0987 25.6946 39.1134 25.5846 39.0987 25.482C39.0987 25.3646 39.0987 25.306 39.0987 25.306C39.0254 25.2326 39.0034 25.1886 39.0327 25.174C39.062 25.1446 39.0914 25.1006 39.1207 25.042C39.2087 25.042 39.238 24.9613 39.2087 24.8C39.1794 24.6826 39.2234 24.4333 39.3407 24.052C39.4727 23.656 39.6487 23.282 39.8687 22.93C39.9567 22.7833 40.0887 22.5926 40.2647 22.358C40.4407 22.1086 40.6314 21.8666 40.8367 21.632C41.0567 21.3826 41.2547 21.1846 41.4307 21.038C41.7974 20.73 42.1347 20.4806 42.4427 20.29C42.7654 20.0993 43.088 19.9673 43.4107 19.894C43.7334 19.8206 44.0634 19.784 44.4007 19.784C44.7527 19.784 45.0387 19.9013 45.2587 20.136C45.596 20.2826 45.8307 20.4806 45.9627 20.73C46.1094 20.9793 46.2047 21.302 46.2487 21.698C46.2927 22.138 46.2487 22.6806 46.1167 23.326C45.9847 23.9566 45.6254 24.69 45.0387 25.526C44.672 26.054 44.3127 26.4646 43.9607 26.758C43.6087 27.0513 43.22 27.3226 42.7947 27.572C42.4867 27.7773 42.1567 27.902 41.8047 27.946C41.4527 27.99 41.108 28.0266 40.7707 28.056ZM43.0147 25.372C43.3374 25.0933 43.5647 24.7853 43.6967 24.448C43.8434 24.1106 43.9974 23.7146 44.1587 23.26C44.2174 23.172 44.254 23.0253 44.2687 22.82C44.298 22.6146 44.3054 22.4166 44.2907 22.226C44.276 22.0206 44.2247 21.9033 44.1367 21.874C44.0047 21.7713 43.8727 21.7493 43.7407 21.808C43.6087 21.852 43.44 21.9473 43.2347 22.094C42.7947 22.4606 42.384 22.886 42.0027 23.37C41.636 23.8393 41.3794 24.4186 41.2327 25.108C41.1887 25.4746 41.2254 25.7533 41.3427 25.944C41.4747 26.12 41.68 26.1713 41.9587 26.098C42.252 26.01 42.604 25.768 43.0147 25.372ZM57.4974 27.682C57.3947 27.6526 57.2334 27.5573 57.0134 27.396C56.7934 27.2346 56.5954 26.9926 56.4194 26.67C56.2581 26.3473 56.1847 25.9293 56.1994 25.416C56.2141 24.976 56.2434 24.668 56.2874 24.492C56.3461 24.3013 56.3241 24.1986 56.2214 24.184C56.1481 24.1693 56.0014 24.2353 55.7814 24.382C55.5614 24.5286 55.2754 24.7633 54.9234 25.086C54.5714 25.4086 54.1461 25.834 53.6474 26.362C53.4714 26.5086 53.2734 26.692 53.0534 26.912C52.8481 27.1173 52.6354 27.2713 52.4154 27.374C52.2101 27.4766 52.0267 27.4546 51.8654 27.308L51.6454 27.11C51.5427 27.022 51.4547 26.9046 51.3814 26.758C51.3081 26.6113 51.2861 26.4866 51.3154 26.384L51.9314 24.668C52.1074 24.2866 52.2247 24.008 52.2834 23.832C52.3567 23.656 52.3861 23.546 52.3714 23.502C52.3714 23.458 52.3347 23.4433 52.2614 23.458C52.1734 23.4726 52.0487 23.5533 51.8874 23.7C51.7261 23.832 51.6161 23.942 51.5574 24.03C51.4987 24.03 51.4181 24.0886 51.3154 24.206C51.2274 24.3233 51.1394 24.426 51.0514 24.514C50.9634 24.602 50.8094 24.7706 50.5894 25.02C50.3694 25.2546 50.1347 25.504 49.8854 25.768C49.6947 25.944 49.4747 26.1786 49.2254 26.472C48.9761 26.7653 48.7561 27.0293 48.5654 27.264C48.3747 27.4986 48.2574 27.616 48.2134 27.616C47.9494 27.6013 47.7074 27.5133 47.4874 27.352C47.2821 27.1906 47.1427 26.9926 47.0694 26.758C46.9814 26.5966 46.9741 26.3033 47.0474 25.878C47.1207 25.438 47.2601 24.7413 47.4654 23.788C47.5241 23.568 47.5754 23.3773 47.6194 23.216C47.6781 23.0546 47.7367 22.8933 47.7954 22.732C47.8541 22.5706 47.9201 22.3873 47.9934 22.182C48.0814 21.9766 48.1914 21.7273 48.3234 21.434C48.3967 21.2286 48.4261 21.038 48.4114 20.862C48.3967 20.6713 48.3821 20.5173 48.3674 20.4C48.3674 20.18 48.4334 20.004 48.5654 19.872C48.7121 19.74 48.8734 19.652 49.0494 19.608C49.2254 19.5493 49.3647 19.5346 49.4674 19.564C49.8781 19.608 50.1567 19.7546 50.3034 20.004C50.4501 20.2533 50.5307 20.4953 50.5454 20.73C50.5601 20.95 50.5307 21.148 50.4574 21.324C50.3841 21.5 50.3254 21.6466 50.2814 21.764L50.0394 22.358C49.8927 22.6953 49.7827 22.9446 49.7094 23.106C49.6507 23.2526 49.6141 23.3553 49.5994 23.414C49.5994 23.458 49.5994 23.502 49.5994 23.546C49.6141 23.59 49.6801 23.568 49.7974 23.48C49.9147 23.392 50.0541 23.2746 50.2154 23.128C50.3914 22.9666 50.5527 22.8273 50.6994 22.71C50.9634 22.49 51.2421 22.27 51.5354 22.05C51.8434 21.8153 52.1441 21.61 52.4374 21.434C52.7307 21.258 52.9727 21.1406 53.1634 21.082C53.4127 21.126 53.6401 21.2506 53.8454 21.456C54.0654 21.6613 54.2047 21.8373 54.2634 21.984C54.3367 22.204 54.3441 22.402 54.2854 22.578C54.2414 22.754 54.2047 22.9153 54.1754 23.062C54.1607 23.1206 54.1314 23.2306 54.0874 23.392C54.0434 23.5533 53.9994 23.7073 53.9554 23.854C53.9114 23.986 53.8894 24.052 53.8894 24.052C53.8894 24.052 53.9334 24.008 54.0214 23.92C54.1094 23.832 54.2267 23.7293 54.3734 23.612C54.5201 23.48 54.6667 23.3626 54.8134 23.26C55.5467 22.7026 56.1261 22.3506 56.5514 22.204C56.9914 22.0426 57.3654 22.1673 57.6734 22.578C57.8494 22.7393 57.9594 22.9593 58.0034 23.238C58.0621 23.5166 58.0914 23.8906 58.0914 24.36C58.1061 24.5506 58.1207 24.7633 58.1354 24.998C58.1647 25.2326 58.1941 25.438 58.2234 25.614C58.2674 25.79 58.3041 25.9 58.3334 25.944C58.3774 26.0026 58.4581 26.0613 58.5754 26.12C58.6927 26.164 58.8027 26.2006 58.9054 26.23C59.1107 26.3326 59.2207 26.5233 59.2354 26.802C59.2647 27.066 59.1621 27.2713 58.9274 27.418C58.7074 27.55 58.4727 27.6306 58.2234 27.66C57.9887 27.6893 57.7467 27.6966 57.4974 27.682ZM59.5728 32.28C59.3675 32.3386 59.1548 32.2873 58.9348 32.126C58.7295 31.9646 58.5681 31.7446 58.4508 31.466C58.3481 31.1873 58.3481 30.9013 58.4508 30.608C58.4801 30.52 58.5241 30.3733 58.5828 30.168C58.6415 29.9773 58.6781 29.8086 58.6928 29.662C58.7075 29.5593 58.7515 29.3833 58.8248 29.134C58.8981 28.8993 58.9788 28.6646 59.0668 28.43C59.1695 28.1953 59.2501 28.0266 59.3088 27.924C59.3968 27.7773 59.4555 27.6086 59.4848 27.418C59.5288 27.2273 59.5508 27.0806 59.5508 26.978C59.5801 26.8753 59.6168 26.758 59.6608 26.626C59.7195 26.494 59.7781 26.3913 59.8368 26.318C59.8661 26.2006 59.9101 26.076 59.9688 25.944C60.0275 25.7973 60.0935 25.6726 60.1668 25.57C60.1961 25.4673 60.2181 25.3426 60.2328 25.196C60.2621 25.0493 60.3061 24.9686 60.3648 24.954C60.3795 24.8953 60.3868 24.8366 60.3868 24.778C60.4015 24.7193 60.4308 24.6386 60.4748 24.536C60.5041 24.3746 60.5701 24.14 60.6728 23.832C60.7755 23.524 60.9001 23.1866 61.0468 22.82C61.2081 22.3946 61.3181 22.028 61.3768 21.72C61.4355 21.3973 61.3548 21.192 61.1348 21.104C61.0175 21.0453 60.9441 20.9133 60.9148 20.708C60.8855 20.488 60.9001 20.268 60.9588 20.048C61.0175 19.828 61.1055 19.696 61.2228 19.652C61.3548 19.5933 61.5161 19.5566 61.7068 19.542C61.8975 19.5273 62.0661 19.5273 62.2128 19.542C62.3741 19.542 62.4475 19.5566 62.4328 19.586C62.4328 19.6593 62.4695 19.7033 62.5428 19.718C62.5721 19.674 62.6308 19.74 62.7188 19.916C62.8215 20.0773 62.9168 20.2606 63.0048 20.466C63.0928 20.6713 63.1368 20.8106 63.1368 20.884C63.1075 20.9426 63.0928 20.9793 63.0928 20.994C63.0928 20.994 63.1221 20.994 63.1808 20.994C63.1808 20.994 63.2615 20.9573 63.4228 20.884C63.5841 20.796 63.7528 20.7006 63.9288 20.598C64.1195 20.4806 64.2441 20.3926 64.3028 20.334C64.3028 20.334 64.3395 20.3193 64.4128 20.29C64.5008 20.246 64.5741 20.1946 64.6328 20.136C64.9261 20.0186 65.2415 19.9966 65.5788 20.07C65.9308 20.1433 66.2095 20.2753 66.4148 20.466C66.7081 20.8326 66.9281 21.2873 67.0748 21.83C67.2361 22.3726 67.2141 22.9006 67.0088 23.414C66.9795 23.4873 66.9135 23.612 66.8108 23.788C66.7228 23.9493 66.6348 24.1033 66.5468 24.25C66.4588 24.382 66.4148 24.448 66.4148 24.448C66.0775 24.976 65.7035 25.416 65.2928 25.768C64.8968 26.12 64.4641 26.428 63.9948 26.692C63.8481 26.7946 63.6428 26.89 63.3788 26.978C63.1295 27.066 62.8948 27.132 62.6748 27.176C62.4695 27.22 62.3448 27.2273 62.3008 27.198C62.1395 27.0806 61.9928 26.8313 61.8608 26.45C61.7875 26.6406 61.7141 26.8313 61.6408 27.022C61.5821 27.198 61.5455 27.3153 61.5308 27.374C61.5161 27.4766 61.5015 27.5646 61.4868 27.638C61.4721 27.6966 61.4355 27.748 61.3768 27.792C61.3768 27.792 61.3695 27.8213 61.3548 27.88C61.3401 27.9386 61.2888 28.0266 61.2008 28.144C61.0541 28.5693 60.9368 28.8993 60.8488 29.134C60.7608 29.3833 60.6875 29.5813 60.6288 29.728C60.5848 29.8893 60.5408 30.058 60.4968 30.234C60.4675 30.63 60.3721 31.048 60.2108 31.488C60.0641 31.928 59.8515 32.192 59.5728 32.28ZM62.8508 25.13C62.9095 25.1006 63.0121 25.0493 63.1588 24.976C63.3201 24.9026 63.4961 24.8146 63.6868 24.712C63.8775 24.5946 64.0535 24.4846 64.2148 24.382C64.3908 24.2646 64.5155 24.162 64.5888 24.074C64.7061 23.942 64.7721 23.8393 64.7868 23.766C64.8015 23.678 64.8381 23.5386 64.8968 23.348C64.9408 23.2306 64.9921 23.0986 65.0508 22.952C65.1095 22.8053 65.1608 22.666 65.2048 22.534C65.2635 22.4166 65.2855 22.2993 65.2708 22.182C65.2708 22.05 65.2268 21.94 65.1388 21.852C65.0801 21.8373 64.9408 21.8593 64.7208 21.918C64.5155 21.9766 64.2735 22.094 63.9948 22.27C63.7308 22.446 63.4668 22.7026 63.2028 23.04C62.8948 23.436 62.6895 23.7953 62.5868 24.118C62.4841 24.426 62.4621 24.6753 62.5208 24.866C62.5795 25.042 62.6895 25.13 62.8508 25.13ZM68.2393 28.87C68.0486 28.7966 67.8946 28.6793 67.7773 28.518C67.6599 28.3713 67.5939 28.1513 67.5793 27.858C67.5646 27.6673 67.5719 27.3886 67.6013 27.022C67.6306 26.6406 67.6819 26.2593 67.7553 25.878C67.7553 25.8486 67.7553 25.8193 67.7553 25.79C67.7699 25.746 67.7773 25.7166 67.7773 25.702C67.7919 25.6433 67.8066 25.5553 67.8213 25.438C67.8359 25.306 67.8506 25.2033 67.8653 25.13C67.8946 25.042 67.9093 25.0346 67.9093 25.108L68.0413 24.514C68.0999 24.25 68.1659 23.9786 68.2393 23.7C68.3126 23.4213 68.3786 23.1793 68.4373 22.974C68.5106 22.754 68.5546 22.6293 68.5693 22.6C68.5693 22.6 68.5913 22.5193 68.6353 22.358C68.6939 22.182 68.7526 22.006 68.8113 21.83C69.0459 21.0966 69.2659 20.488 69.4713 20.004C69.6913 19.52 69.8819 19.168 70.0433 18.948C70.0579 18.904 70.0799 18.8526 70.1093 18.794C70.1386 18.7206 70.1606 18.662 70.1753 18.618C70.1753 18.4566 70.1826 18.3393 70.1973 18.266C70.2266 18.1926 70.2633 18.1266 70.3073 18.068C70.3366 18.0093 70.3806 17.936 70.4393 17.848C70.4979 17.7453 70.5639 17.6206 70.6373 17.474L70.7253 17.232C70.8133 17.0413 70.9233 16.8213 71.0553 16.572C71.1873 16.308 71.2826 16.11 71.3413 15.978C71.3853 15.846 71.4733 15.692 71.6053 15.516C71.7373 15.3253 71.8839 15.2006 72.0453 15.142L72.0233 15.12C72.0966 14.988 72.2359 14.8853 72.4413 14.812C72.6466 14.724 72.8153 14.68 72.9473 14.68C73.1526 14.68 73.3066 14.7386 73.4093 14.856C73.5266 14.9733 73.5853 15.1346 73.5853 15.34C73.5853 15.56 73.5779 15.7213 73.5633 15.824C73.5633 15.912 73.5119 16.0146 73.4093 16.132H73.4313C73.4606 16.1026 73.4533 16.1466 73.4093 16.264C73.3653 16.3813 73.3286 16.462 73.2993 16.506C73.2699 16.5793 73.2333 16.66 73.1893 16.748C73.1599 16.836 73.1233 16.902 73.0793 16.946C73.0353 17.0046 72.9179 17.21 72.7273 17.562C72.5366 17.8993 72.3239 18.3026 72.0893 18.772C71.8546 19.2266 71.6273 19.674 71.4073 20.114C71.2019 20.5393 71.0553 20.8693 70.9673 21.104L70.8573 21.434C70.8426 21.4926 70.8353 21.5366 70.8353 21.566C70.7913 21.6686 70.7473 21.7713 70.7033 21.874C70.6593 21.9766 70.6153 22.0646 70.5713 22.138L70.2193 23.502L70.1313 23.964L69.9333 24.47L69.8013 24.888C69.7719 24.976 69.7499 25.0713 69.7353 25.174C69.7206 25.2766 69.6913 25.35 69.6473 25.394C69.6473 25.4086 69.6399 25.4306 69.6253 25.46C69.6253 25.4746 69.6253 25.4893 69.6253 25.504C69.5666 25.7386 69.4639 26.0686 69.3173 26.494C69.1853 26.9193 69.1046 27.3886 69.0753 27.902C69.0753 27.9166 69.0679 27.9313 69.0533 27.946C69.0533 27.9606 69.0533 27.9753 69.0533 27.99C69.0093 28.298 68.9139 28.5326 68.7673 28.694C68.6353 28.87 68.4593 28.9286 68.2393 28.87ZM74.2174 28.606C73.4107 28.606 72.7874 28.3713 72.3474 27.902C71.9221 27.4326 71.7094 26.714 71.7094 25.746C71.7094 25.218 71.8047 24.6386 71.9954 24.008C72.2007 23.3773 72.4647 22.7613 72.7874 22.16C73.1247 21.5586 73.4914 21.038 73.8874 20.598C74.2834 20.1433 74.6794 19.828 75.0754 19.652C75.2221 19.5786 75.3761 19.5273 75.5374 19.498C75.7134 19.454 75.8821 19.432 76.0434 19.432C76.2194 19.432 76.4101 19.4466 76.6154 19.476C76.8354 19.4906 77.0407 19.5346 77.2314 19.608C77.5687 19.7106 77.8621 19.9086 78.1114 20.202C78.3754 20.4953 78.5074 20.9206 78.5074 21.478C78.5074 21.6246 78.4927 21.786 78.4634 21.962C78.4341 22.1233 78.3827 22.2846 78.3094 22.446C78.1187 22.93 77.8254 23.392 77.4294 23.832C77.0481 24.272 76.6447 24.58 76.2194 24.756C76.1021 24.8146 75.9847 24.8586 75.8674 24.888C75.7647 24.9026 75.6547 24.91 75.5374 24.91C75.2294 24.91 74.9507 24.866 74.7014 24.778C74.4667 24.69 74.2467 24.5726 74.0414 24.426L73.8654 24.272L73.7554 24.492C73.6527 24.7706 73.5794 25.0053 73.5354 25.196C73.5061 25.3866 73.4914 25.526 73.4914 25.614C73.4914 25.79 73.4987 25.9733 73.5134 26.164C73.5281 26.34 73.5721 26.4866 73.6454 26.604C73.7041 26.6773 73.7774 26.736 73.8654 26.78C73.9681 26.824 74.0927 26.846 74.2394 26.846C74.3274 26.846 74.4081 26.846 74.4814 26.846C74.5694 26.8313 74.6427 26.8166 74.7014 26.802C74.9654 26.7433 75.1781 26.648 75.3394 26.516C75.5154 26.3693 75.6987 26.2446 75.8894 26.142L75.9774 26.098L75.9554 26.032C76.2047 25.9 76.3734 25.8193 76.4614 25.79C76.5494 25.746 76.6154 25.7093 76.6594 25.68C76.7181 25.6213 76.7841 25.592 76.8574 25.592C77.0627 25.5626 77.2607 25.6213 77.4514 25.768C77.6567 25.9 77.7594 26.0686 77.7594 26.274C77.7594 26.362 77.6934 26.5013 77.5614 26.692C77.4441 26.8826 77.2901 27.0733 77.0994 27.264C76.9234 27.44 76.7401 27.5793 76.5494 27.682C76.5054 27.6966 76.4614 27.7186 76.4174 27.748C76.3734 27.7626 76.3294 27.7846 76.2854 27.814H76.3074C76.1754 27.99 76.0434 28.078 75.9114 28.078H75.7354C75.6767 28.1806 75.4861 28.2906 75.1634 28.408C74.8407 28.54 74.5254 28.606 74.2174 28.606ZM75.3614 23.304C75.4934 23.304 75.6107 23.282 75.7134 23.238C75.8307 23.194 75.9407 23.1426 76.0434 23.084C76.3954 22.8346 76.6227 22.512 76.7254 22.116C76.8281 21.72 76.7914 21.4193 76.6154 21.214C76.5861 21.17 76.5494 21.1406 76.5054 21.126C76.4614 21.0966 76.4101 21.082 76.3514 21.082C76.1901 21.082 76.0067 21.1333 75.8014 21.236C75.6107 21.3386 75.4201 21.4853 75.2294 21.676C75.0387 21.8666 74.8627 22.094 74.7014 22.358L74.4154 22.82C74.4447 22.8053 74.4667 22.798 74.4814 22.798C74.5107 22.7833 74.5327 22.776 74.5474 22.776C74.6794 22.776 74.7674 22.82 74.8114 22.908C74.8554 22.996 74.9067 23.084 74.9654 23.172C75.0387 23.26 75.1707 23.304 75.3614 23.304ZM80.9051 28.232C80.7437 28.2026 80.5677 28.1073 80.3771 27.946C80.1864 27.77 80.0104 27.5793 79.8491 27.374C79.7024 27.154 79.6071 26.9706 79.5631 26.824C79.5631 26.7946 79.5411 26.758 79.4971 26.714C79.4677 26.67 79.4531 26.648 79.4531 26.648C79.3944 26.604 79.3577 26.4133 79.3431 26.076C79.3431 25.724 79.3651 25.3353 79.4091 24.91C79.4531 24.4846 79.5044 24.1473 79.5631 23.898C79.6364 23.6633 79.7464 23.348 79.8931 22.952C80.0397 22.5413 80.1644 22.1746 80.2671 21.852L80.8611 20.576L79.9811 20.334C79.8784 20.3046 79.7904 20.246 79.7171 20.158C79.6584 20.07 79.6291 19.9966 79.6291 19.938C79.6291 19.8206 79.6951 19.652 79.8271 19.432C79.9591 19.212 80.0544 19.102 80.1131 19.102C80.1864 19.1166 80.3184 19.124 80.5091 19.124C80.7144 19.124 80.9124 19.1166 81.1031 19.102C81.2937 19.0873 81.4111 19.0726 81.4551 19.058C81.5137 19.0286 81.5724 18.992 81.6311 18.948C81.6897 18.8893 81.7337 18.8086 81.7631 18.706C81.8364 18.5446 81.9024 18.42 81.9611 18.332C82.0197 18.244 82.1004 18.112 82.2031 17.936C82.3057 17.7453 82.3864 17.584 82.4451 17.452C82.5184 17.32 82.6284 17.1366 82.7751 16.902C82.8484 16.7993 82.9291 16.6746 83.0171 16.528C83.1051 16.3813 83.2151 16.2566 83.3471 16.154C83.4791 16.0366 83.6917 15.956 83.9851 15.912C84.2931 15.8533 84.5571 15.9193 84.7771 16.11C84.8944 16.2566 84.9604 16.396 84.9751 16.528C84.9897 16.66 84.9311 16.8286 84.7991 17.034C84.6817 17.2833 84.5424 17.5106 84.3811 17.716C84.2344 17.9066 84.0951 18.1266 83.9631 18.376C83.7284 18.6986 83.6844 18.882 83.8311 18.926C83.9777 18.97 84.3884 18.9406 85.0631 18.838C85.4884 18.7646 85.7964 18.8086 85.9871 18.97C86.1777 19.1313 86.2877 19.3366 86.3171 19.586C86.3611 19.938 86.3244 20.1506 86.2071 20.224C86.0897 20.2973 85.7524 20.334 85.1951 20.334C84.8431 20.3926 84.5424 20.4293 84.2931 20.444C84.0437 20.444 83.8604 20.444 83.7431 20.444C83.5524 20.4586 83.4277 20.466 83.3691 20.466C83.3104 20.466 83.2224 20.4806 83.1051 20.51C82.9877 20.5393 82.8997 20.5906 82.8411 20.664C82.7971 20.7226 82.7457 20.8106 82.6871 20.928C82.6284 20.9866 82.5404 21.1406 82.4231 21.39C82.3057 21.6393 82.1591 21.9106 81.9831 22.204C81.7777 22.82 81.6017 23.414 81.4551 23.986C81.3231 24.5433 81.2057 25.1006 81.1031 25.658C81.0591 25.9366 81.0664 26.142 81.1251 26.274C81.1984 26.3913 81.3891 26.4646 81.6971 26.494C81.8584 26.5086 82.0931 26.5086 82.4011 26.494C82.7091 26.4646 82.9657 26.4206 83.1711 26.362C83.3324 26.2886 83.5011 26.2153 83.6771 26.142C83.8531 26.054 84.0144 25.966 84.1611 25.878C84.2931 25.8046 84.4251 25.7313 84.5571 25.658C84.6891 25.57 84.7551 25.526 84.7551 25.526C84.8284 25.4086 84.9311 25.4306 85.0631 25.592C85.2097 25.7386 85.3124 25.9 85.3711 26.076C85.3711 26.252 85.3344 26.4646 85.2611 26.714C85.1877 26.9486 84.9164 27.198 84.4471 27.462C83.7871 27.8726 83.1271 28.122 82.4671 28.21C81.8071 28.298 81.2864 28.3053 80.9051 28.232ZM88.1003 28.012C87.5283 27.7773 87.1323 27.396 86.9123 26.868C86.6923 26.34 86.6336 25.636 86.7363 24.756C86.7656 24.3013 86.7509 24.0006 86.6923 23.854C86.6336 23.6926 86.5236 23.5386 86.3623 23.392C86.3183 23.3333 86.2156 23.238 86.0543 23.106C85.8929 22.9593 85.8196 22.8493 85.8343 22.776C85.8196 22.6733 85.8416 22.5486 85.9003 22.402C85.9589 22.2406 86.0103 22.1526 86.0543 22.138C86.1569 22.094 86.2596 22.0426 86.3623 21.984C86.4796 21.9253 86.5676 21.9106 86.6263 21.94C86.6849 21.94 86.7729 21.9766 86.8903 22.05C87.0223 22.1233 87.0883 22.1893 87.0883 22.248C87.1469 22.3506 87.2349 22.3066 87.3523 22.116C87.4843 21.9253 87.6236 21.6833 87.7703 21.39C87.9169 21.1553 88.1003 20.9353 88.3203 20.73C88.5403 20.5246 88.7603 20.3413 88.9803 20.18C89.2149 20.004 89.4129 19.872 89.5743 19.784C89.6476 19.7546 89.7869 19.7106 89.9923 19.652C90.2123 19.5933 90.4396 19.5493 90.6743 19.52C90.9089 19.476 91.0849 19.4613 91.2023 19.476C91.4663 19.4906 91.7449 19.6006 92.0383 19.806C92.3316 20.0113 92.5589 20.202 92.7203 20.378C92.9109 20.51 93.0356 20.7153 93.0943 20.994C93.1676 21.258 93.1969 21.5366 93.1823 21.83C93.1676 22.1233 93.1089 22.3726 93.0063 22.578C92.9623 22.7246 92.8083 22.93 92.5443 23.194C92.2803 23.458 91.9869 23.7146 91.6643 23.964C91.3563 24.1986 91.0923 24.36 90.8723 24.448C90.6816 24.492 90.4543 24.5286 90.1903 24.558C89.9263 24.5726 89.6769 24.5726 89.4423 24.558C89.2223 24.5286 89.0683 24.492 88.9803 24.448C88.8776 24.3893 88.7896 24.4113 88.7163 24.514C88.6576 24.602 88.6063 24.8513 88.5623 25.262C88.5476 25.4233 88.5476 25.5626 88.5623 25.68C88.5916 25.7973 88.6209 25.8853 88.6503 25.944C88.7529 26.12 88.8556 26.252 88.9583 26.34C89.0609 26.4133 89.2516 26.4353 89.5303 26.406C89.8089 26.3766 90.0876 26.208 90.3663 25.9C90.6596 25.5773 90.9236 25.3206 91.1583 25.13C91.2169 25.0273 91.3416 24.9613 91.5323 24.932C91.7376 24.888 91.9796 24.9026 92.2583 24.976C92.4196 25.0786 92.4929 25.24 92.4783 25.46C92.4783 25.68 92.3609 26.0026 92.1263 26.428C92.0823 26.5306 91.9576 26.6846 91.7523 26.89C91.5616 27.0806 91.3489 27.2786 91.1143 27.484C90.8943 27.6746 90.7109 27.814 90.5643 27.902C90.1243 28.1366 89.6916 28.2466 89.2663 28.232C88.8409 28.2173 88.4523 28.144 88.1003 28.012ZM89.7283 23.062C89.9483 23.0033 90.1316 22.9446 90.2783 22.886C90.4396 22.8273 90.5936 22.732 90.7403 22.6C90.8869 22.468 91.0556 22.27 91.2463 22.006C91.3049 21.8446 91.3343 21.7053 91.3343 21.588C91.3489 21.4706 91.3416 21.3973 91.3123 21.368C91.1949 21.2506 91.0629 21.214 90.9163 21.258C90.7843 21.2873 90.6376 21.3606 90.4763 21.478C90.3736 21.522 90.2269 21.6173 90.0363 21.764C89.8603 21.896 89.6843 22.05 89.5083 22.226C89.3469 22.3873 89.2149 22.5413 89.1123 22.688C89.0243 22.82 89.0096 22.9006 89.0683 22.93C89.0389 22.9886 89.1196 23.0253 89.3103 23.04C89.5156 23.0546 89.6549 23.062 89.7283 23.062ZM100.288 28.188C100.068 28.2026 99.8626 28.21 99.6719 28.21C99.4959 28.21 99.3566 28.1806 99.2539 28.122C98.9899 27.902 98.8139 27.726 98.7259 27.594C98.6526 27.462 98.6159 27.3153 98.6159 27.154C98.6306 26.9486 98.6379 26.7433 98.6379 26.538C98.6379 26.318 98.6379 26.1493 98.6379 26.032C98.5793 25.9733 98.4619 26.0393 98.2859 26.23C98.1099 26.4206 97.9046 26.604 97.6699 26.78C97.2153 27.2933 96.8119 27.6673 96.4599 27.902C96.1079 28.122 95.7853 28.2466 95.4919 28.276C95.1986 28.32 94.9053 28.3273 94.6119 28.298C94.3479 28.2686 94.1133 28.1366 93.9079 27.902C93.7173 27.6673 93.5706 27.3813 93.4679 27.044C93.3799 26.7066 93.3506 26.3766 93.3799 26.054C93.4533 25.4526 93.5853 24.91 93.7759 24.426C93.9666 23.9273 94.2526 23.4066 94.6339 22.864C94.8099 22.6293 95.0446 22.3726 95.3379 22.094C95.6459 21.8153 95.9759 21.5586 96.3279 21.324C96.6799 21.0746 96.9953 20.8986 97.2739 20.796C97.6993 20.6053 98.0513 20.5173 98.3299 20.532C98.6233 20.5466 98.9093 20.5906 99.1879 20.664C99.3933 20.7666 99.5546 20.818 99.6719 20.818C99.8039 20.818 99.8993 20.7446 99.9579 20.598C100.046 20.4806 100.112 20.334 100.156 20.158C100.2 19.982 100.273 19.8133 100.376 19.652L100.86 18.222C101.021 17.826 101.212 17.3713 101.432 16.858C101.652 16.3446 101.901 15.7726 102.18 15.142C102.517 14.57 102.803 14.2693 103.038 14.24C103.287 14.2106 103.544 14.3426 103.808 14.636C103.984 14.812 104.079 15.032 104.094 15.296C104.123 15.5453 104.057 15.8386 103.896 16.176C103.793 16.3373 103.683 16.5426 103.566 16.792C103.449 17.0266 103.309 17.3053 103.148 17.628C102.987 18.0093 102.818 18.3906 102.642 18.772C102.481 19.1533 102.312 19.5713 102.136 20.026C102.077 20.2606 101.997 20.532 101.894 20.84C101.806 21.148 101.733 21.4266 101.674 21.676C101.63 21.9106 101.579 22.1306 101.52 22.336C101.476 22.5266 101.425 22.622 101.366 22.622C101.249 22.7246 101.139 22.9446 101.036 23.282C100.933 23.6046 100.845 23.9493 100.772 24.316C100.713 24.6826 100.662 24.9833 100.618 25.218C100.589 25.394 100.567 25.6433 100.552 25.966C100.537 26.274 100.53 26.5746 100.53 26.868C100.53 27.1466 100.53 27.3373 100.53 27.44C100.53 27.7186 100.508 27.9166 100.464 28.034C100.435 28.1366 100.376 28.188 100.288 28.188ZM95.3159 26.45C95.6533 26.45 95.9686 26.3106 96.2619 26.032C96.5699 25.7386 96.9073 25.4306 97.2739 25.108C97.4939 24.888 97.7213 24.646 97.9559 24.382C98.1906 24.1033 98.4033 23.832 98.5939 23.568C98.7993 23.304 98.9606 23.0766 99.0779 22.886C99.1953 22.6953 99.2539 22.5706 99.2539 22.512C99.2539 22.4386 99.1953 22.3726 99.0779 22.314C98.9753 22.2553 98.8506 22.2113 98.7039 22.182C98.5573 22.138 98.4253 22.1306 98.3079 22.16C97.9559 22.2626 97.6699 22.4166 97.4499 22.622C97.2446 22.8273 96.9439 23.15 96.5479 23.59C96.1519 24.074 95.8366 24.536 95.6019 24.976C95.3673 25.416 95.2206 25.7753 95.1619 26.054C95.1179 26.318 95.1693 26.45 95.3159 26.45Z"
        fill="#303133" />
</svg>