<svg width="98" height="37" viewBox="0 0 98 37" fill="none" xmlns="http://www.w3.org/2000/svg">
    <path
        d="M29.069 27.452C28.849 27.364 28.5924 27.2393 28.299 27.078C28.0057 26.9313 27.727 26.7333 27.463 26.484C27.199 26.2347 26.9937 25.934 26.847 25.582C26.7004 25.1567 26.5977 24.7387 26.539 24.328C26.495 23.9173 26.4804 23.4407 26.495 22.898C26.495 22.1353 26.5464 21.4753 26.649 20.918C26.7664 20.346 26.9424 19.7667 27.177 19.18C27.2064 19.136 27.2577 19.0113 27.331 18.806C27.419 18.586 27.5144 18.3513 27.617 18.102C27.7344 17.8527 27.8224 17.662 27.881 17.53C27.9984 17.2807 28.1744 16.9507 28.409 16.54C28.6584 16.1147 28.9224 15.704 29.201 15.308C29.6264 14.6773 29.9857 14.164 30.279 13.768C30.5724 13.3573 30.851 13.0127 31.115 12.734C31.3937 12.4553 31.6944 12.184 32.017 11.92C32.3544 11.656 32.7724 11.3553 33.271 11.018C33.5937 10.7833 34.0044 10.6367 34.503 10.578C35.0164 10.5193 35.515 10.6 35.999 10.82C36.483 11.0253 36.8424 11.4213 37.077 12.008C37.2384 12.316 37.3117 12.7047 37.297 13.174C37.2824 13.6287 37.1944 14.12 37.033 14.648C36.8717 15.1613 36.6664 15.6453 36.417 16.1C36.1677 16.5547 35.889 16.9213 35.581 17.2C35.3904 17.376 35.1337 17.4053 34.811 17.288C34.503 17.1707 34.2464 17.0167 34.041 16.826C33.909 16.5767 33.8357 16.43 33.821 16.386C33.821 16.342 33.8504 16.3127 33.909 16.298C33.997 16.1953 34.1144 16.0193 34.261 15.77C34.4077 15.5207 34.5544 15.2567 34.701 14.978C34.8477 14.6847 34.9504 14.45 35.009 14.274C35.1264 13.658 35.207 13.2547 35.251 13.064C35.295 12.8587 35.251 12.69 35.119 12.558C35.0604 12.4993 34.9724 12.4773 34.855 12.492C34.7524 12.5067 34.5764 12.58 34.327 12.712C33.9897 12.8587 33.5864 13.1593 33.117 13.614C32.6624 14.054 32.2077 14.582 31.753 15.198C31.1664 15.9753 30.675 16.6647 30.279 17.266C29.883 17.8673 29.5824 18.4833 29.377 19.114C29.3477 19.1727 29.2964 19.2827 29.223 19.444C29.1644 19.6053 29.135 19.686 29.135 19.686C29.1497 19.7447 29.1277 19.8913 29.069 20.126C29.0104 20.346 28.9444 20.5367 28.871 20.698C28.7097 21.3727 28.6144 22.0253 28.585 22.656C28.5557 23.272 28.5924 23.8147 28.695 24.284C28.8124 24.7387 28.981 25.076 29.201 25.296C29.3917 25.428 29.6337 25.472 29.927 25.428C30.2204 25.384 30.5577 25.2813 30.939 25.12C31.3204 24.9587 31.731 24.7827 32.171 24.592C32.523 24.4453 32.8457 24.284 33.139 24.108C33.4324 23.932 33.6524 23.778 33.799 23.646C33.9164 23.558 34.063 23.47 34.239 23.382C34.4297 23.2793 34.591 23.228 34.723 23.228C34.9284 23.1547 35.0824 23.2133 35.185 23.404C35.2877 23.5947 35.339 23.8367 35.339 24.13C35.339 24.3353 35.1924 24.5847 34.899 24.878C34.6057 25.1713 34.283 25.4207 33.931 25.626C33.8137 25.7433 33.6524 25.8533 33.447 25.956C33.2564 26.044 33.0584 26.1247 32.853 26.198C32.545 26.4327 32.1637 26.66 31.709 26.88C31.2544 27.1 30.7924 27.2687 30.323 27.386C29.8684 27.5033 29.4504 27.5253 29.069 27.452ZM37.4194 25.538C37.3607 25.4207 37.2287 25.3033 37.0234 25.186C36.8327 25.0687 36.7374 24.9807 36.7374 24.922C36.7374 24.8633 36.7007 24.7753 36.6274 24.658C36.5687 24.526 36.5101 24.4307 36.4514 24.372C36.3781 24.284 36.4001 24.0713 36.5174 23.734C36.6347 23.382 36.8107 22.9567 37.0454 22.458C37.2801 21.9593 37.5367 21.4533 37.8154 20.94C37.9327 20.8227 38.0501 20.6687 38.1674 20.478C38.2847 20.2873 38.3727 20.1627 38.4314 20.104C38.4314 20.0453 38.4534 19.994 38.4974 19.95C38.5414 19.8913 38.5927 19.862 38.6514 19.862L38.8274 19.51C38.8567 19.4513 38.9447 19.334 39.0914 19.158C39.2527 18.982 39.4434 18.7913 39.6634 18.586C39.8834 18.366 40.1034 18.1607 40.3234 17.97C40.5581 17.7793 40.7487 17.64 40.8954 17.552C41.2034 17.3467 41.5187 17.2513 41.8414 17.266C42.1787 17.2807 42.4647 17.3833 42.6994 17.574C42.7434 17.618 42.8387 17.706 42.9854 17.838C43.1467 17.97 43.3227 18.1167 43.5134 18.278C43.7187 18.4393 43.8947 18.586 44.0414 18.718L44.8554 19.444L44.4814 20.544C44.2907 21.1307 44.2394 21.644 44.3274 22.084C44.4154 22.524 44.5547 22.9053 44.7454 23.228C44.8187 23.3893 44.9141 23.514 45.0314 23.602C45.1634 23.69 45.3321 23.7487 45.5374 23.778C45.6547 23.7927 45.7647 23.8367 45.8674 23.91C45.9701 23.9833 46.0214 24.1007 46.0214 24.262C46.0214 24.614 45.9554 24.8707 45.8234 25.032C45.7061 25.1787 45.5741 25.2667 45.4274 25.296C44.9434 25.3547 44.4814 25.3033 44.0414 25.142C43.6014 24.9807 43.2054 24.5627 42.8534 23.888C42.7947 23.8 42.7141 23.6387 42.6114 23.404C42.5234 23.1547 42.4721 22.9933 42.4574 22.92C42.3987 22.9933 42.3181 23.0887 42.2154 23.206C42.1274 23.3087 42.0394 23.404 41.9514 23.492C40.9101 24.548 40.0154 25.2373 39.2674 25.56C38.5341 25.868 37.9181 25.8607 37.4194 25.538ZM38.6294 23.712C38.7321 23.7267 38.8934 23.6753 39.1134 23.558C39.3334 23.426 39.6267 23.2133 39.9934 22.92C40.4921 22.4947 40.9027 22.1427 41.2254 21.864C41.5481 21.5853 41.8634 21.226 42.1714 20.786L42.6554 19.994C42.5087 19.6567 42.3767 19.4367 42.2594 19.334C42.1421 19.2313 42.0247 19.18 41.9074 19.18C41.7167 19.18 41.4894 19.3047 41.2254 19.554C40.9614 19.7887 40.6607 20.1407 40.3234 20.61C40.0007 21.0647 39.6341 21.6367 39.2234 22.326C39.0327 22.6487 38.8861 22.964 38.7834 23.272C38.6807 23.5653 38.6294 23.712 38.6294 23.712ZM54.2558 25.472C53.9331 25.4427 53.6618 25.3767 53.4418 25.274C53.2364 25.1567 53.0678 24.9293 52.9358 24.592C52.8771 24.3573 52.8478 24.1153 52.8478 23.866C52.8624 23.602 52.8844 23.3527 52.9138 23.118C52.9431 22.8687 52.9578 22.656 52.9578 22.48C52.9578 22.4507 52.9578 22.392 52.9578 22.304C52.9578 22.216 52.9578 22.1353 52.9578 22.062C52.9284 21.842 52.8698 21.71 52.7818 21.666C52.7084 21.6073 52.5764 21.6147 52.3858 21.688C52.0778 21.8347 51.7404 22.0327 51.3738 22.282C51.0218 22.5167 50.6478 22.7953 50.2518 23.118C49.8704 23.426 49.4744 23.756 49.0638 24.108C48.7411 24.46 48.4991 24.746 48.3378 24.966C48.1911 25.186 48.0371 25.296 47.8758 25.296C47.7584 25.3547 47.6338 25.34 47.5018 25.252C47.3698 25.164 47.2304 25.0613 47.0838 24.944C46.9811 24.8267 46.8564 24.68 46.7098 24.504C46.5778 24.3133 46.4971 24.1887 46.4678 24.13C46.4678 23.8953 46.4824 23.6827 46.5118 23.492C46.5558 23.3013 46.6144 23.1033 46.6878 22.898C46.7758 22.6927 46.8784 22.458 46.9958 22.194C47.0544 22.0913 47.1058 21.9887 47.1498 21.886C47.2084 21.7687 47.2744 21.644 47.3478 21.512C47.4064 21.3067 47.4871 21.072 47.5898 20.808C47.7071 20.544 47.8171 20.2947 47.9198 20.06C48.0811 19.6787 48.2058 19.3487 48.2938 19.07C48.3818 18.7913 48.4551 18.4907 48.5138 18.168C48.4991 18.1387 48.5064 18.0947 48.5358 18.036C48.5651 17.9773 48.6091 17.9407 48.6678 17.926H48.6898H48.7118C48.8144 17.8527 49.0051 17.8453 49.2838 17.904C49.5771 17.948 49.7971 18.0287 49.9438 18.146C50.2518 18.41 50.3984 18.7547 50.3838 19.18C50.3691 19.6053 50.1491 20.1627 49.7238 20.852C49.6211 21.0867 49.5111 21.3067 49.3938 21.512C49.2911 21.7027 49.2398 21.8347 49.2398 21.908C49.2398 21.908 49.2984 21.864 49.4158 21.776C49.5331 21.688 49.6724 21.5853 49.8338 21.468C49.9951 21.336 50.1344 21.2333 50.2518 21.16C50.3251 21.0867 50.4864 20.9547 50.7358 20.764C50.9851 20.5587 51.2564 20.346 51.5498 20.126C51.8431 19.906 52.0778 19.7373 52.2538 19.62C52.4151 19.5027 52.6204 19.3853 52.8698 19.268C53.1191 19.136 53.2731 19.07 53.3318 19.07C53.4784 19.07 53.6544 19.1213 53.8598 19.224C54.0798 19.3267 54.2778 19.4513 54.4538 19.598C54.6444 19.73 54.7544 19.8547 54.7838 19.972C54.7838 20.0307 54.7764 20.1113 54.7618 20.214C54.7471 20.302 54.7398 20.3827 54.7398 20.456C54.7251 20.6907 54.7178 20.9767 54.7178 21.314C54.7324 21.6367 54.7398 21.9667 54.7398 22.304C54.7398 22.6267 54.7104 22.92 54.6518 23.184C54.6518 23.184 54.6591 23.1987 54.6738 23.228C54.6884 23.2427 54.7031 23.272 54.7178 23.316C54.7031 23.3307 54.6958 23.36 54.6958 23.404C54.7104 23.4333 54.7178 23.448 54.7178 23.448C54.7471 23.5507 54.7764 23.6533 54.8058 23.756C54.8498 23.8587 54.9011 23.976 54.9598 24.108C55.0184 24.2253 55.0844 24.3793 55.1578 24.57C55.1431 24.7607 55.0331 24.9513 54.8278 25.142C54.6371 25.318 54.4464 25.428 54.2558 25.472ZM58.7434 25.824C58.4208 25.824 58.1788 25.8093 58.0174 25.78C57.8708 25.7507 57.7608 25.7067 57.6874 25.648C57.6141 25.5893 57.5188 25.5087 57.4014 25.406C57.3428 25.2887 57.2401 25.142 57.0934 24.966C56.9468 24.7753 56.8441 24.6507 56.7854 24.592C56.7268 24.372 56.7048 24.0713 56.7194 23.69C56.7488 23.3087 56.8148 22.898 56.9174 22.458C57.0201 22.018 57.1448 21.622 57.2914 21.27C57.3501 21.1527 57.4014 21.0353 57.4454 20.918C57.4894 20.8007 57.5114 20.742 57.5114 20.742C57.5114 20.6687 57.5994 20.4927 57.7754 20.214C57.9661 19.9353 58.1714 19.642 58.3914 19.334C58.6261 19.026 58.8168 18.806 58.9634 18.674C59.0661 18.5567 59.2201 18.432 59.4254 18.3C59.6454 18.168 59.8361 18.0727 59.9974 18.014C60.1588 17.9553 60.3788 17.882 60.6574 17.794C60.9361 17.6913 61.1854 17.64 61.4054 17.64C61.6108 17.64 61.8308 17.684 62.0654 17.772C62.3001 17.86 62.4981 18.014 62.6594 18.234C62.9234 18.498 63.0921 18.8133 63.1654 19.18C63.2388 19.5467 63.2461 19.862 63.1874 20.126C63.1141 20.4193 62.9674 20.6613 62.7474 20.852C62.5274 21.028 62.2928 21.1233 62.0434 21.138C61.7941 21.138 61.5741 21.0353 61.3834 20.83C61.3248 20.7127 61.2954 20.6173 61.2954 20.544C61.2954 20.456 61.3248 20.3313 61.3834 20.17C61.4421 19.9647 61.4714 19.7813 61.4714 19.62C61.4714 19.4587 61.4054 19.378 61.2734 19.378C61.0828 19.378 60.9288 19.4367 60.8114 19.554C60.6941 19.6567 60.5181 19.8327 60.2834 20.082C60.1808 20.1993 60.0488 20.368 59.8874 20.588C59.7261 20.808 59.5648 21.05 59.4034 21.314C59.2568 21.5633 59.1248 21.82 59.0074 22.084C58.8461 22.568 58.7434 22.8833 58.6994 23.03C58.6701 23.162 58.6554 23.228 58.6554 23.228C58.6554 23.2867 58.6481 23.3453 58.6334 23.404C58.6188 23.448 58.6114 23.4993 58.6114 23.558C58.6114 23.734 58.7141 23.8733 58.9194 23.976C59.0808 24.0787 59.2128 24.13 59.3154 24.13C59.4328 24.1153 59.6528 24.0347 59.9754 23.888C60.2101 23.7707 60.4301 23.6167 60.6354 23.426C60.8554 23.2353 61.0828 23.0667 61.3174 22.92C61.4788 22.8173 61.6034 22.7293 61.6914 22.656C61.7941 22.5827 61.8454 22.5753 61.8454 22.634C61.8454 22.6927 61.8674 22.722 61.9114 22.722C61.9554 22.722 62.0068 22.6927 62.0654 22.634C62.1534 22.5167 62.2634 22.4727 62.3954 22.502C62.5274 22.5167 62.6448 22.5533 62.7474 22.612C62.8648 22.6707 62.9234 22.722 62.9234 22.766C62.8941 22.898 62.9234 23.008 63.0114 23.096C63.0114 23.1547 62.9894 23.2353 62.9454 23.338C62.9161 23.426 62.8721 23.4993 62.8134 23.558C62.7401 23.6607 62.6301 23.8073 62.4834 23.998C62.3514 24.1887 62.2268 24.3573 62.1094 24.504C61.9921 24.6507 61.9334 24.724 61.9334 24.724C61.8748 24.7093 61.8161 24.724 61.7574 24.768C61.7134 24.812 61.6621 24.8633 61.6034 24.922C61.4861 25.0247 61.3761 25.1053 61.2734 25.164C61.1708 25.208 61.0901 25.23 61.0314 25.23C60.9288 25.2887 60.8481 25.3253 60.7894 25.34C60.7454 25.3547 60.7234 25.3913 60.7234 25.45C60.5768 25.5967 60.3128 25.6993 59.9314 25.758C59.5501 25.802 59.1541 25.824 58.7434 25.824ZM66.9572 26.396C66.1505 26.396 65.5272 26.1613 65.0872 25.692C64.6618 25.2227 64.4492 24.504 64.4492 23.536C64.4492 23.008 64.5445 22.4287 64.7352 21.798C64.9405 21.1673 65.2045 20.5513 65.5272 19.95C65.8645 19.3487 66.2312 18.828 66.6272 18.388C67.0232 17.9333 67.4192 17.618 67.8152 17.442C67.9618 17.3687 68.1158 17.3173 68.2772 17.288C68.4532 17.244 68.6218 17.222 68.7832 17.222C68.9592 17.222 69.1498 17.2367 69.3552 17.266C69.5752 17.2807 69.7805 17.3247 69.9712 17.398C70.3085 17.5007 70.6018 17.6987 70.8512 17.992C71.1152 18.2853 71.2472 18.7107 71.2472 19.268C71.2472 19.4147 71.2325 19.576 71.2032 19.752C71.1738 19.9133 71.1225 20.0747 71.0492 20.236C70.8585 20.72 70.5652 21.182 70.1692 21.622C69.7878 22.062 69.3845 22.37 68.9592 22.546C68.8418 22.6047 68.7245 22.6487 68.6072 22.678C68.5045 22.6927 68.3945 22.7 68.2772 22.7C67.9692 22.7 67.6905 22.656 67.4412 22.568C67.2065 22.48 66.9865 22.3627 66.7812 22.216L66.6052 22.062L66.4952 22.282C66.3925 22.5607 66.3192 22.7953 66.2752 22.986C66.2458 23.1767 66.2312 23.316 66.2312 23.404C66.2312 23.58 66.2385 23.7633 66.2532 23.954C66.2678 24.13 66.3118 24.2767 66.3852 24.394C66.4438 24.4673 66.5172 24.526 66.6052 24.57C66.7078 24.614 66.8325 24.636 66.9792 24.636C67.0672 24.636 67.1478 24.636 67.2212 24.636C67.3092 24.6213 67.3825 24.6067 67.4412 24.592C67.7052 24.5333 67.9178 24.438 68.0792 24.306C68.2552 24.1593 68.4385 24.0347 68.6292 23.932L68.7172 23.888L68.6952 23.822C68.9445 23.69 69.1132 23.6093 69.2012 23.58C69.2892 23.536 69.3552 23.4993 69.3992 23.47C69.4578 23.4113 69.5238 23.382 69.5972 23.382C69.8025 23.3527 70.0005 23.4113 70.1912 23.558C70.3965 23.69 70.4992 23.8587 70.4992 24.064C70.4992 24.152 70.4332 24.2913 70.3012 24.482C70.1838 24.6727 70.0298 24.8633 69.8392 25.054C69.6632 25.23 69.4798 25.3693 69.2892 25.472C69.2452 25.4867 69.2012 25.5087 69.1572 25.538C69.1132 25.5527 69.0692 25.5747 69.0252 25.604H69.0472C68.9152 25.78 68.7832 25.868 68.6512 25.868H68.4752C68.4165 25.9707 68.2258 26.0807 67.9032 26.198C67.5805 26.33 67.2652 26.396 66.9572 26.396ZM68.1012 21.094C68.2332 21.094 68.3505 21.072 68.4532 21.028C68.5705 20.984 68.6805 20.9327 68.7832 20.874C69.1352 20.6247 69.3625 20.302 69.4652 19.906C69.5678 19.51 69.5312 19.2093 69.3552 19.004C69.3258 18.96 69.2892 18.9307 69.2452 18.916C69.2012 18.8867 69.1498 18.872 69.0912 18.872C68.9298 18.872 68.7465 18.9233 68.5412 19.026C68.3505 19.1287 68.1598 19.2753 67.9692 19.466C67.7785 19.6567 67.6025 19.884 67.4412 20.148L67.1552 20.61C67.1845 20.5953 67.2065 20.588 67.2212 20.588C67.2505 20.5733 67.2725 20.566 67.2872 20.566C67.4192 20.566 67.5072 20.61 67.5512 20.698C67.5952 20.786 67.6465 20.874 67.7052 20.962C67.7785 21.05 67.9105 21.094 68.1012 21.094ZM72.2368 26.66C72.0461 26.5867 71.8921 26.4693 71.7748 26.308C71.6575 26.1613 71.5915 25.9413 71.5768 25.648C71.5621 25.4573 71.5695 25.1787 71.5988 24.812C71.6281 24.4307 71.6795 24.0493 71.7528 23.668C71.7528 23.6387 71.7528 23.6093 71.7528 23.58C71.7675 23.536 71.7748 23.5067 71.7748 23.492C71.7895 23.4333 71.8041 23.3453 71.8188 23.228C71.8335 23.096 71.8481 22.9933 71.8628 22.92C71.8921 22.832 71.9068 22.8247 71.9068 22.898L72.0388 22.304C72.0975 22.04 72.1635 21.7687 72.2368 21.49C72.3101 21.2113 72.3761 20.9693 72.4348 20.764C72.5081 20.544 72.5521 20.4193 72.5668 20.39C72.5668 20.39 72.5888 20.3093 72.6328 20.148C72.6915 19.972 72.7501 19.796 72.8088 19.62C73.0435 18.8867 73.2635 18.278 73.4688 17.794C73.6888 17.31 73.8795 16.958 74.0408 16.738C74.0555 16.694 74.0775 16.6427 74.1068 16.584C74.1361 16.5107 74.1581 16.452 74.1728 16.408C74.1728 16.2467 74.1801 16.1293 74.1948 16.056C74.2241 15.9827 74.2608 15.9167 74.3048 15.858C74.3341 15.7993 74.3781 15.726 74.4368 15.638C74.4955 15.5353 74.5615 15.4107 74.6348 15.264L74.7228 15.022C74.8108 14.8313 74.9208 14.6113 75.0528 14.362C75.1848 14.098 75.2801 13.9 75.3388 13.768C75.3828 13.636 75.4708 13.482 75.6028 13.306C75.7348 13.1153 75.8815 12.9907 76.0428 12.932L76.0208 12.91C76.0941 12.778 76.2335 12.6753 76.4388 12.602C76.6441 12.514 76.8128 12.47 76.9448 12.47C77.1501 12.47 77.3041 12.5287 77.4068 12.646C77.5241 12.7633 77.5828 12.9247 77.5828 13.13C77.5828 13.35 77.5755 13.5113 77.5608 13.614C77.5608 13.702 77.5095 13.8047 77.4068 13.922H77.4288C77.4581 13.8927 77.4508 13.9367 77.4068 14.054C77.3628 14.1713 77.3261 14.252 77.2968 14.296C77.2675 14.3693 77.2308 14.45 77.1868 14.538C77.1575 14.626 77.1208 14.692 77.0768 14.736C77.0328 14.7947 76.9155 15 76.7248 15.352C76.5341 15.6893 76.3215 16.0927 76.0868 16.562C75.8521 17.0167 75.6248 17.464 75.4048 17.904C75.1995 18.3293 75.0528 18.6593 74.9648 18.894L74.8548 19.224C74.8401 19.2827 74.8328 19.3267 74.8328 19.356C74.7888 19.4587 74.7448 19.5613 74.7008 19.664C74.6568 19.7667 74.6128 19.8547 74.5688 19.928L74.2168 21.292L74.1288 21.754L73.9308 22.26L73.7988 22.678C73.7695 22.766 73.7475 22.8613 73.7328 22.964C73.7181 23.0667 73.6888 23.14 73.6448 23.184C73.6448 23.1987 73.6375 23.2207 73.6228 23.25C73.6228 23.2647 73.6228 23.2793 73.6228 23.294C73.5641 23.5287 73.4615 23.8587 73.3148 24.284C73.1828 24.7093 73.1021 25.1787 73.0728 25.692C73.0728 25.7067 73.0655 25.7213 73.0508 25.736C73.0508 25.7507 73.0508 25.7653 73.0508 25.78C73.0068 26.088 72.9115 26.3227 72.7648 26.484C72.6328 26.66 72.4568 26.7187 72.2368 26.66Z"
        fill="#303133" />
</svg>