<svg width="127" height="41" viewBox="0 0 127 41" fill="none" xmlns="http://www.w3.org/2000/svg">
    <path
        d="M2.10938 14.21C2.10938 7.58254 7.48196 2.20996 14.1094 2.20996H113.109C119.737 2.20996 125.109 7.58254 125.109 14.21V27.21C125.109 33.8374 119.737 39.21 113.109 39.21H14.1094C7.48196 39.21 2.10938 33.8374 2.10938 27.21V14.21Z"
        fill="#303133" />
    <path
        d="M19.8844 2.86486L19.7999 3.61009L19.8844 2.86486ZM29.8594 1.75887L29.6355 1.04305L29.8594 1.75887ZM30.3844 1.59469L30.6082 2.3105L30.3844 1.59469ZM39.8344 1.22426L40.0055 0.494039L39.8344 1.22426ZM40.3594 1.34728L40.1883 2.0775L40.3594 1.34728ZM40.8844 1.47031L41.0555 0.740087L40.8844 1.47031ZM50.3344 1.85455L50.2209 1.11318L50.3344 1.85455ZM50.8594 1.77422L50.9728 2.51559L50.8594 1.77422ZM51.3844 1.69389L51.2709 0.952519L51.3844 1.69389ZM60.8344 2.35553L60.6235 3.07527L60.8344 2.35553ZM61.3594 2.50938L61.5703 1.78964L61.3594 2.50938ZM61.8844 2.66322L61.6735 3.38296L61.8844 2.66322ZM71.3344 3.3743L71.2285 2.63181L71.3344 3.3743ZM81.8344 3.05477L81.7549 3.80055L81.8344 3.05477ZM82.3594 3.11074L82.4389 2.36496L82.3594 3.11074ZM82.8844 3.1667L82.8049 3.91248L82.8844 3.1667ZM103.359 3.53408L103.392 2.78478L103.359 3.53408ZM103.884 3.55678L103.852 4.30608L103.884 3.55678ZM113.018 4.09856L112.961 4.84637L113.018 4.09856ZM113.508 4.13605L113.565 3.38824L113.508 4.13605ZM113.998 4.17354L113.941 4.92136L113.998 4.17354ZM122.151 7.66033L121.669 8.23433L122.151 7.66033ZM122.568 8.01026L122.085 8.58426L122.568 8.01026ZM122.984 8.36019L123.466 7.78619L122.984 8.36019ZM125.39 16.3921L126.113 16.5904L125.39 16.3921ZM125.093 17.4771L125.816 17.6754L125.093 17.4771ZM124.588 27.4055L123.848 27.5278L124.588 27.4055ZM124.681 27.9662L123.941 28.0885L124.681 27.9662ZM124.773 28.5269L125.513 28.4046L124.773 28.5269ZM121.215 36.0895L121.588 36.7402L121.215 36.0895ZM120.727 36.3691L120.354 35.7184L120.727 36.3691ZM120.239 36.6487L120.612 37.2995L120.239 36.6487ZM110.051 39.5504L110.101 40.2988L110.051 39.5504ZM100.585 39.9575L100.6 40.7074L100.585 39.9575ZM100.06 39.9677L100.045 39.2179L100.06 39.9677ZM99.535 39.978L99.5496 40.7278L99.535 39.978ZM90.085 38.8754L89.9011 39.6025L90.085 38.8754ZM89.56 38.7426L89.3761 39.4697L89.56 38.7426ZM89.035 38.6099L89.2188 37.8828L89.035 38.6099ZM79.585 37.3339L79.5721 38.0838L79.585 37.3339ZM79.06 37.3249L79.0471 38.0748L79.06 37.3249ZM78.535 37.3159L78.5479 36.566L78.535 37.3159ZM69.085 37.1735L69.0947 36.4236L69.085 37.1735ZM68.035 37.1599L68.0253 37.9099L68.035 37.1599ZM58.585 37.7986L58.4751 37.0567L58.585 37.7986ZM58.06 37.8763L58.1699 38.6183L58.06 37.8763ZM57.535 37.9541L57.4251 37.2122L57.535 37.9541ZM48.085 38.5607L48.0998 37.8108L48.085 38.5607ZM47.56 38.5503L47.5452 39.3002L47.56 38.5503ZM47.035 38.54L47.0498 37.7901L47.035 38.54ZM37.585 39.0823L37.485 38.339L37.585 39.0823ZM37.06 39.1529L37.16 39.8962L37.06 39.1529ZM36.535 39.2235L36.435 38.4802L36.535 39.2235ZM27.085 39.044L27.2125 38.3049L27.085 39.044ZM26.56 38.9534L26.6875 38.2143L26.56 38.9534ZM26.035 38.8629L25.9075 39.6019L26.035 38.8629ZM16.4125 39.0461L16.5623 39.781L16.4125 39.0461ZM15.8683 39.157L15.7185 38.4221L15.8683 39.157ZM15.3242 39.268L15.474 40.0028L15.3242 39.268ZM7.19713 36.5785L7.76135 36.0844L7.19713 36.5785ZM6.47945 35.759L5.91522 36.2531L6.47945 35.759ZM0.75978 15.7403L0.0103562 15.7697L0.75978 15.7403ZM4.23454 7.32075L3.71728 6.77767L4.23454 7.32075ZM11.1439 3.4468L11.0231 4.18701L11.1439 3.4468ZM19.3594 2.80533L19.2749 3.55055L19.7999 3.61009L19.8844 2.86486L19.9689 2.11964L19.4439 2.0601L19.3594 2.80533ZM19.8844 2.86486L19.7999 3.61009C23.0578 3.97955 26.3128 3.65381 29.5582 2.63886L29.3344 1.92305L29.1105 1.20724C26.056 2.16249 23.0109 2.46461 19.9689 2.11964L19.8844 2.86486ZM29.3344 1.92305L29.5582 2.63886L30.0832 2.47468L29.8594 1.75887L29.6355 1.04305L29.1105 1.20724L29.3344 1.92305ZM29.8594 1.75887L30.0832 2.47468L30.6082 2.3105L30.3844 1.59469L30.1605 0.878872L29.6355 1.04305L29.8594 1.75887ZM30.3844 1.59469L30.6082 2.3105C33.6329 1.36459 36.6466 1.24757 39.6633 1.95448L39.8344 1.22426L40.0055 0.494039C36.7222 -0.275344 33.4358 -0.145407 30.1605 0.878872L30.3844 1.59469ZM39.8344 1.22426L39.6633 1.95448L40.1883 2.0775L40.3594 1.34728L40.5305 0.617063L40.0055 0.494039L39.8344 1.22426ZM40.3594 1.34728L40.1883 2.0775L40.7133 2.20053L40.8844 1.47031L41.0555 0.740087L40.5305 0.617063L40.3594 1.34728ZM40.8844 1.47031L40.7133 2.20053C43.9551 2.96018 47.2016 3.09262 50.4478 2.59592L50.3344 1.85455L50.2209 1.11318C47.1671 1.58045 44.1137 1.45672 41.0555 0.740087L40.8844 1.47031ZM50.3344 1.85455L50.4478 2.59592L50.9728 2.51559L50.8594 1.77422L50.7459 1.03285L50.2209 1.11318L50.3344 1.85455ZM50.8594 1.77422L50.9728 2.51559L51.4978 2.43526L51.3844 1.69389L51.2709 0.952519L50.7459 1.03285L50.8594 1.77422ZM51.3844 1.69389L51.4978 2.43526C54.5361 1.97037 57.5754 2.18207 60.6235 3.07527L60.8344 2.35553L61.0453 1.6358C57.7933 0.68284 54.5326 0.453447 51.2709 0.952519L51.3844 1.69389ZM60.8344 2.35553L60.6235 3.07527L61.1485 3.22911L61.3594 2.50938L61.5703 1.78964L61.0453 1.6358L60.8344 2.35553ZM61.3594 2.50938L61.1485 3.22911L61.6735 3.38296L61.8844 2.66322L62.0953 1.94349L61.5703 1.78964L61.3594 2.50938ZM61.8844 2.66322L61.6735 3.38296C64.9229 4.33516 68.1808 4.58141 71.4402 4.1168L71.3344 3.3743L71.2285 2.63181C68.1879 3.06524 65.1459 2.83743 62.0953 1.94349L61.8844 2.66322ZM71.3344 3.3743L71.4402 4.1168L71.9652 4.04196L71.8594 3.29947L71.7535 2.55697L71.2285 2.63181L71.3344 3.3743ZM71.8594 3.29947L71.9652 4.04196L72.4902 3.96712L72.3844 3.22463L72.2785 2.48214L71.7535 2.55697L71.8594 3.29947ZM72.3844 3.22463L72.4902 3.96712C75.5791 3.52682 78.6668 3.47137 81.7549 3.80055L81.8344 3.05477L81.9139 2.309C78.7019 1.96661 75.4897 2.0244 72.2785 2.48214L72.3844 3.22463ZM81.8344 3.05477L81.7549 3.80055L82.2799 3.85651L82.3594 3.11074L82.4389 2.36496L81.9139 2.309L81.8344 3.05477ZM82.3594 3.11074L82.2799 3.85651L82.8049 3.91248L82.8844 3.1667L82.9639 2.42093L82.4389 2.36496L82.3594 3.11074ZM82.8844 3.1667L82.8049 3.91248C85.9897 4.25198 89.1749 4.36665 92.3603 4.25642L92.3344 3.50687L92.3084 2.75732C89.1938 2.8651 86.079 2.753 82.9639 2.42093L82.8844 3.1667ZM92.3344 3.50687L92.3603 4.25642L92.8853 4.23825L92.8594 3.4887L92.8334 2.73915L92.3084 2.75732L92.3344 3.50687ZM92.8594 3.4887L92.8853 4.23825L93.4103 4.22008L93.3844 3.47053L93.3584 2.72098L92.8334 2.73915L92.8594 3.4887ZM93.3844 3.47053L93.4103 4.22008C96.5409 4.11175 99.6714 4.12528 102.802 4.26067L102.834 3.51137L102.867 2.76207C99.6973 2.625 96.5279 2.6113 93.3584 2.72098L93.3844 3.47053ZM102.834 3.51137L102.802 4.26067L103.327 4.28338L103.359 3.53408L103.392 2.78478L102.867 2.76207L102.834 3.51137ZM103.359 3.53408L103.327 4.28338L103.852 4.30608L103.884 3.55678L103.917 2.80748L103.392 2.78478L103.359 3.53408ZM103.884 3.55678L103.852 4.30608C106.994 4.44198 110.031 4.6221 112.961 4.84637L113.018 4.09856L113.075 3.35075C110.127 3.12512 107.074 2.94405 103.917 2.80748L103.884 3.55678ZM113.018 4.09856L112.961 4.84637L113.451 4.88386L113.508 4.13605L113.565 3.38824L113.075 3.35075L113.018 4.09856ZM113.508 4.13605L113.451 4.88386L113.941 4.92136L113.998 4.17354L114.055 3.42573L113.565 3.38824L113.508 4.13605ZM113.998 4.17354L113.941 4.92136C116.707 5.13305 119.279 6.2245 121.669 8.23433L122.151 7.66033L122.634 7.08633C120.031 4.89701 117.167 3.66393 114.055 3.42573L113.998 4.17354ZM122.151 7.66033L121.669 8.23433L122.085 8.58426L122.568 8.01026L123.05 7.43626L122.634 7.08633L122.151 7.66033ZM122.568 8.01026L122.085 8.58426L122.501 8.93419L122.984 8.36019L123.466 7.78619L123.05 7.43626L122.568 8.01026ZM122.984 8.36019L122.501 8.93419C123.656 9.90599 124.387 10.9816 124.739 12.1581C125.092 13.3365 125.084 14.6736 124.667 16.1938L125.39 16.3921L126.113 16.5904C126.589 14.8556 126.625 13.2265 126.176 11.7276C125.726 10.2268 124.807 8.91397 123.466 7.78619L122.984 8.36019ZM125.39 16.3921L124.667 16.1938L124.518 16.7363L125.241 16.9346L125.965 17.1329L126.113 16.5904L125.39 16.3921ZM125.241 16.9346L124.518 16.7363L124.369 17.2788L125.093 17.4771L125.816 17.6754L125.965 17.1329L125.241 16.9346ZM125.093 17.4771L124.369 17.2788C123.448 20.6394 123.275 24.0582 123.848 27.5278L124.588 27.4055L125.328 27.2833C124.79 24.025 124.953 20.8249 125.816 17.6754L125.093 17.4771ZM124.588 27.4055L123.848 27.5278L123.941 28.0885L124.681 27.9662L125.421 27.8439L125.328 27.2833L124.588 27.4055ZM124.681 27.9662L123.941 28.0885L124.033 28.6491L124.773 28.5269L125.513 28.4046L125.421 27.8439L124.681 27.9662ZM124.773 28.5269L124.033 28.6491C124.292 30.2151 124.137 31.5265 123.622 32.6211C123.107 33.7151 122.201 34.6599 120.842 35.4387L121.215 36.0895L121.588 36.7402C123.157 35.8413 124.308 34.6866 124.979 33.2598C125.65 31.8336 125.811 30.2026 125.513 28.4046L124.773 28.5269ZM121.215 36.0895L120.842 35.4387L120.354 35.7184L120.727 36.3691L121.1 37.0198L121.588 36.7402L121.215 36.0895ZM120.727 36.3691L120.354 35.7184L119.866 35.998L120.239 36.6487L120.612 37.2995L121.1 37.0198L120.727 36.3691ZM120.239 36.6487L119.866 35.998C117.03 37.6229 114.095 38.5301 111.055 38.7321L111.105 39.4804L111.155 40.2288C114.437 40.0107 117.591 39.0302 120.612 37.2995L120.239 36.6487ZM111.105 39.4804L111.055 38.7321L110.529 38.7671L110.578 39.5154L110.628 40.2638L111.155 40.2288L111.105 39.4804ZM110.578 39.5154L110.529 38.7671L110.002 38.8021L110.051 39.5504L110.101 40.2988L110.628 40.2638L110.578 39.5154ZM110.051 39.5504L110.002 38.8021C106.852 39.0113 103.709 39.1465 100.57 39.2076L100.585 39.9575L100.6 40.7074C103.761 40.6457 106.929 40.5095 110.101 40.2988L110.051 39.5504ZM100.585 39.9575L100.57 39.2076L100.045 39.2179L100.06 39.9677L100.075 40.7176L100.6 40.7074L100.585 39.9575ZM100.06 39.9677L100.045 39.2179L99.5204 39.2281L99.535 39.978L99.5496 40.7278L100.075 40.7176L100.06 39.9677ZM99.535 39.978L99.5204 39.2281C96.4393 39.2881 93.356 38.9288 90.2688 38.1483L90.085 38.8754L89.9011 39.6025C93.114 40.4148 96.3307 40.7906 99.5496 40.7278L99.535 39.978ZM90.085 38.8754L90.2688 38.1483L89.7438 38.0155L89.56 38.7426L89.3761 39.4697L89.9011 39.6025L90.085 38.8754ZM89.56 38.7426L89.7438 38.0155L89.2188 37.8828L89.035 38.6099L88.8511 39.337L89.3761 39.4697L89.56 38.7426ZM89.035 38.6099L89.2188 37.8828C86.0147 37.0726 82.8073 36.6393 79.5979 36.5841L79.585 37.3339L79.5721 38.0838C82.6626 38.137 85.7553 38.5543 88.8511 39.337L89.035 38.6099ZM79.585 37.3339L79.5979 36.5841L79.0729 36.575L79.06 37.3249L79.0471 38.0748L79.5721 38.0838L79.585 37.3339ZM79.06 37.3249L79.0729 36.575L78.5479 36.566L78.535 37.3159L78.5221 38.0658L79.0471 38.0748L79.06 37.3249ZM78.535 37.3159L78.5479 36.566C75.3968 36.5118 72.2458 36.4643 69.0947 36.4236L69.085 37.1735L69.0753 37.9235C72.2242 37.9642 75.3732 38.0116 78.5221 38.0658L78.535 37.3159ZM69.085 37.1735L69.0947 36.4236L68.5697 36.4168L68.56 37.1667L68.5503 37.9167L69.0753 37.9235L69.085 37.1735ZM68.56 37.1667L68.5697 36.4168L68.0447 36.41L68.035 37.1599L68.0253 37.9099L68.5503 37.9167L68.56 37.1667ZM68.035 37.1599L68.0447 36.41C64.8542 36.3687 61.6643 36.5844 58.4751 37.0567L58.585 37.7986L58.6949 38.5405C61.8057 38.0798 64.9157 37.8697 68.0253 37.9099L68.035 37.1599ZM58.585 37.7986L58.4751 37.0567L57.9501 37.1344L58.06 37.8763L58.1699 38.6183L58.6949 38.5405L58.585 37.7986ZM58.06 37.8763L57.9501 37.1344L57.4251 37.2122L57.535 37.9541L57.6449 38.696L58.1699 38.6183L58.06 37.8763ZM57.535 37.9541L57.4251 37.2122C54.3159 37.6726 51.2076 37.8721 48.0998 37.8108L48.085 38.5607L48.0702 39.3105C51.2624 39.3735 54.454 39.1685 57.6449 38.696L57.535 37.9541ZM48.085 38.5607L48.0998 37.8108L47.5748 37.8005L47.56 38.5503L47.5452 39.3002L48.0702 39.3105L48.085 38.5607ZM47.56 38.5503L47.5748 37.8005L47.0498 37.7901L47.035 38.54L47.0202 39.2898L47.5452 39.3002L47.56 38.5503ZM47.035 38.54L47.0498 37.7901C43.8611 37.7272 40.6727 37.9103 37.485 38.339L37.585 39.0823L37.685 39.8256C40.7973 39.407 43.9089 39.2285 47.0202 39.2898L47.035 38.54ZM37.585 39.0823L37.485 38.339L36.96 38.4096L37.06 39.1529L37.16 39.8962L37.685 39.8256L37.585 39.0823ZM37.06 39.1529L36.96 38.4096L36.435 38.4802L36.535 39.2235L36.635 39.9669L37.16 39.8962L37.06 39.1529ZM36.535 39.2235L36.435 38.4802C33.3611 38.8937 30.2878 38.8354 27.2125 38.3049L27.085 39.044L26.9575 39.7831C30.1822 40.3393 33.4089 40.4008 36.635 39.9669L36.535 39.2235ZM27.085 39.044L27.2125 38.3049L26.6875 38.2143L26.56 38.9534L26.4325 39.6925L26.9575 39.7831L27.085 39.044ZM26.56 38.9534L26.6875 38.2143L26.1625 38.1238L26.035 38.8629L25.9075 39.6019L26.4325 39.6925L26.56 38.9534ZM26.035 38.8629L26.1625 38.1238C22.9167 37.5639 19.6151 37.6278 16.2627 38.3112L16.4125 39.0461L16.5623 39.781C19.7399 39.1333 22.8533 39.0751 25.9075 39.6019L26.035 38.8629ZM16.4125 39.0461L16.2627 38.3112L15.7185 38.4221L15.8683 39.157L16.0181 39.8919L16.5623 39.781L16.4125 39.0461ZM15.8683 39.157L15.7185 38.4221L15.1744 38.5331L15.3242 39.268L15.474 40.0028L16.0181 39.8919L15.8683 39.157ZM15.3242 39.268L15.1744 38.5331C12.1669 39.1461 9.73261 38.3353 7.76135 36.0844L7.19713 36.5785L6.6329 37.0726C8.9677 39.7387 11.9514 40.7209 15.474 40.0028L15.3242 39.268ZM7.19713 36.5785L7.76135 36.0844L7.40251 35.6746L6.83829 36.1688L6.27406 36.6629L6.6329 37.0726L7.19713 36.5785ZM6.83829 36.1688L7.40251 35.6746L7.04367 35.2649L6.47945 35.759L5.91522 36.2531L6.27406 36.6629L6.83829 36.1688ZM6.47945 35.759L7.04367 35.2649C4.9713 32.8985 3.61655 30.2367 2.96829 27.2714L2.2356 27.4316L1.5029 27.5917C2.20705 30.8127 3.68153 33.7025 5.91522 36.2531L6.47945 35.759ZM2.2356 27.4316L2.96829 27.2714L2.85559 26.7559L2.1229 26.9161L1.3902 27.0762L1.5029 27.5917L2.2356 27.4316ZM2.1229 26.9161L2.85559 26.7559L2.74289 26.2404L2.0102 26.4005L1.2775 26.5607L1.3902 27.0762L2.1229 26.9161ZM2.0102 26.4005L2.74289 26.2404C2.07645 23.1919 1.67926 20.0472 1.55213 16.8055L0.80271 16.8349L0.0532861 16.8643C0.183736 20.1906 0.591545 23.423 1.2775 26.5607L2.0102 26.4005ZM0.80271 16.8349L1.55213 16.8055L1.53067 16.2582L0.781245 16.2876L0.0318213 16.317L0.0532861 16.8643L0.80271 16.8349ZM0.781245 16.2876L1.53067 16.2582L1.5092 15.7109L0.75978 15.7403L0.0103562 15.7697L0.0318213 16.317L0.781245 16.2876ZM0.75978 15.7403L1.5092 15.7109C1.38912 12.6489 2.45763 10.0489 4.75181 7.86383L4.23454 7.32075L3.71728 6.77767C1.12086 9.25065 -0.12714 12.2637 0.0103562 15.7697L0.75978 15.7403ZM4.23454 7.32075L4.75181 7.86383L5.15936 7.47566L4.64209 6.93257L4.12483 6.38949L3.71728 6.77767L4.23454 7.32075ZM4.64209 6.93257L5.15936 7.47566L5.56691 7.08748L5.04964 6.5444L4.53238 6.00132L4.12483 6.38949L4.64209 6.93257ZM5.04964 6.5444L5.56691 7.08748C6.75964 5.95145 7.81935 5.16332 8.74701 4.69181C9.67478 4.22024 10.4224 4.08898 11.0231 4.18701L11.1439 3.4468L11.2647 2.70659C10.2478 2.54064 9.171 2.79366 8.06735 3.35463C6.96359 3.91564 5.78495 4.8083 4.53238 6.00132L5.04964 6.5444ZM11.1439 3.4468L11.0231 4.18701L11.2927 4.231L11.4135 3.49079L11.5343 2.75059L11.2647 2.70659L11.1439 3.4468ZM11.4135 3.49079L11.2927 4.231L11.5623 4.275L11.6831 3.53479L11.8039 2.79458L11.5343 2.75059L11.4135 3.49079ZM11.6831 3.53479L11.5623 4.275C12.3873 4.40963 13.0913 4.46142 13.6184 4.37922C13.881 4.33826 14.1785 4.25283 14.4242 4.05772C14.7043 3.83521 14.8594 3.51431 14.8594 3.1564H14.1094H13.3594C13.3594 3.0566 13.4133 2.94506 13.4913 2.88314C13.5347 2.84862 13.529 2.87502 13.3872 2.89713C13.1055 2.94106 12.5964 2.92392 11.8039 2.79458L11.6831 3.53479ZM14.1094 3.1564H14.8594V3.07036H14.1094H13.3594V3.1564H14.1094ZM14.1094 3.07036H14.8594V2.98432H14.1094H13.3594V3.07036H14.1094ZM14.1094 2.98432H14.8594C14.8594 3.34213 14.5569 3.42332 14.67 3.38052C14.7558 3.34809 14.9571 3.3053 15.3284 3.28655C16.0522 3.25002 17.1835 3.31338 18.7499 3.49101L18.8344 2.74579L18.9189 2.00057C17.3353 1.82098 16.104 1.74549 15.2528 1.78846C14.8366 1.80947 14.4474 1.86102 14.1393 1.97753C13.8587 2.08367 13.3594 2.36839 13.3594 2.98432H14.1094ZM18.8344 2.74579L18.7499 3.49101L19.2749 3.55055L19.3594 2.80533L19.4439 2.0601L18.9189 2.00057L18.8344 2.74579Z"
        fill="black" />
    <path
        d="M31.4538 29.662C31.2338 29.574 30.9771 29.4493 30.6838 29.288C30.3905 29.1413 30.1118 28.9433 29.8478 28.694C29.5838 28.4446 29.3785 28.144 29.2318 27.792C29.0851 27.3666 28.9825 26.9486 28.9238 26.538C28.8798 26.1273 28.8651 25.6506 28.8798 25.108C28.8798 24.3453 28.9311 23.6853 29.0338 23.128C29.1511 22.556 29.3271 21.9766 29.5618 21.39C29.5911 21.346 29.6425 21.2213 29.7158 21.016C29.8038 20.796 29.8991 20.5613 30.0018 20.312C30.1191 20.0626 30.2071 19.872 30.2658 19.74C30.3831 19.4906 30.5591 19.1606 30.7938 18.75C31.0431 18.3246 31.3071 17.914 31.5858 17.518C32.0111 16.8873 32.3705 16.374 32.6638 15.978C32.9571 15.5673 33.2358 15.2226 33.4998 14.944C33.7785 14.6653 34.0791 14.394 34.4018 14.13C34.7391 13.866 35.1571 13.5653 35.6558 13.228C35.9785 12.9933 36.3891 12.8466 36.8878 12.788C37.4011 12.7293 37.8998 12.81 38.3838 13.03C38.8678 13.2353 39.2271 13.6313 39.4618 14.218C39.6231 14.526 39.6965 14.9146 39.6818 15.384C39.6671 15.8386 39.5791 16.33 39.4178 16.858C39.2565 17.3713 39.0511 17.8553 38.8018 18.31C38.5525 18.7646 38.2738 19.1313 37.9658 19.41C37.7751 19.586 37.5185 19.6153 37.1958 19.498C36.8878 19.3806 36.6311 19.2266 36.4258 19.036C36.2938 18.7866 36.2205 18.64 36.2058 18.596C36.2058 18.552 36.2351 18.5226 36.2938 18.508C36.3818 18.4053 36.4991 18.2293 36.6458 17.98C36.7925 17.7306 36.9391 17.4666 37.0858 17.188C37.2325 16.8946 37.3351 16.66 37.3938 16.484C37.5111 15.868 37.5918 15.4646 37.6358 15.274C37.6798 15.0686 37.6358 14.9 37.5038 14.768C37.4451 14.7093 37.3571 14.6873 37.2398 14.702C37.1371 14.7166 36.9611 14.79 36.7118 14.922C36.3745 15.0686 35.9711 15.3693 35.5018 15.824C35.0471 16.264 34.5925 16.792 34.1378 17.408C33.5511 18.1853 33.0598 18.8746 32.6638 19.476C32.2678 20.0773 31.9671 20.6933 31.7618 21.324C31.7325 21.3826 31.6811 21.4926 31.6078 21.654C31.5491 21.8153 31.5198 21.896 31.5198 21.896C31.5345 21.9546 31.5125 22.1013 31.4538 22.336C31.3951 22.556 31.3291 22.7466 31.2558 22.908C31.0945 23.5826 30.9991 24.2353 30.9698 24.866C30.9405 25.482 30.9771 26.0246 31.0798 26.494C31.1971 26.9486 31.3658 27.286 31.5858 27.506C31.7765 27.638 32.0185 27.682 32.3118 27.638C32.6051 27.594 32.9425 27.4913 33.3238 27.33C33.7051 27.1686 34.1158 26.9926 34.5558 26.802C34.9078 26.6553 35.2305 26.494 35.5238 26.318C35.8171 26.142 36.0371 25.988 36.1838 25.856C36.3011 25.768 36.4478 25.68 36.6238 25.592C36.8145 25.4893 36.9758 25.438 37.1078 25.438C37.3131 25.3646 37.4671 25.4233 37.5698 25.614C37.6725 25.8046 37.7238 26.0466 37.7238 26.34C37.7238 26.5453 37.5771 26.7946 37.2838 27.088C36.9905 27.3813 36.6678 27.6306 36.3158 27.836C36.1985 27.9533 36.0371 28.0633 35.8318 28.166C35.6411 28.254 35.4431 28.3346 35.2378 28.408C34.9298 28.6426 34.5485 28.87 34.0938 29.09C33.6391 29.31 33.1771 29.4786 32.7078 29.596C32.2531 29.7133 31.8351 29.7353 31.4538 29.662ZM40.7722 28.056C40.5815 28.056 40.4275 28.0193 40.3102 27.946C40.2075 27.8726 40.0755 27.77 39.9142 27.638C39.6355 27.3446 39.4082 27.0293 39.2322 26.692C39.0708 26.3546 39.0122 26.0613 39.0562 25.812C39.1002 25.6946 39.1148 25.5846 39.1002 25.482C39.1002 25.3646 39.1002 25.306 39.1002 25.306C39.0268 25.2326 39.0048 25.1886 39.0342 25.174C39.0635 25.1446 39.0928 25.1006 39.1222 25.042C39.2102 25.042 39.2395 24.9613 39.2102 24.8C39.1808 24.6826 39.2248 24.4333 39.3422 24.052C39.4742 23.656 39.6502 23.282 39.8702 22.93C39.9582 22.7833 40.0902 22.5926 40.2662 22.358C40.4422 22.1086 40.6328 21.8666 40.8382 21.632C41.0582 21.3826 41.2562 21.1846 41.4322 21.038C41.7988 20.73 42.1362 20.4806 42.4442 20.29C42.7668 20.0993 43.0895 19.9673 43.4122 19.894C43.7348 19.8206 44.0648 19.784 44.4022 19.784C44.7542 19.784 45.0402 19.9013 45.2602 20.136C45.5975 20.2826 45.8322 20.4806 45.9642 20.73C46.1108 20.9793 46.2062 21.302 46.2502 21.698C46.2942 22.138 46.2502 22.6806 46.1182 23.326C45.9862 23.9566 45.6268 24.69 45.0402 25.526C44.6735 26.054 44.3142 26.4646 43.9622 26.758C43.6102 27.0513 43.2215 27.3226 42.7962 27.572C42.4882 27.7773 42.1582 27.902 41.8062 27.946C41.4542 27.99 41.1095 28.0266 40.7722 28.056ZM43.0162 25.372C43.3388 25.0933 43.5662 24.7853 43.6982 24.448C43.8448 24.1106 43.9988 23.7146 44.1602 23.26C44.2188 23.172 44.2555 23.0253 44.2702 22.82C44.2995 22.6146 44.3068 22.4166 44.2922 22.226C44.2775 22.0206 44.2262 21.9033 44.1382 21.874C44.0062 21.7713 43.8742 21.7493 43.7422 21.808C43.6102 21.852 43.4415 21.9473 43.2362 22.094C42.7962 22.4606 42.3855 22.886 42.0042 23.37C41.6375 23.8393 41.3808 24.4186 41.2342 25.108C41.1902 25.4746 41.2268 25.7533 41.3442 25.944C41.4762 26.12 41.6815 26.1713 41.9602 26.098C42.2535 26.01 42.6055 25.768 43.0162 25.372ZM57.4989 27.682C57.3962 27.6526 57.2349 27.5573 57.0149 27.396C56.7949 27.2346 56.5969 26.9926 56.4209 26.67C56.2595 26.3473 56.1862 25.9293 56.2009 25.416C56.2155 24.976 56.2449 24.668 56.2889 24.492C56.3475 24.3013 56.3255 24.1986 56.2229 24.184C56.1495 24.1693 56.0029 24.2353 55.7829 24.382C55.5629 24.5286 55.2769 24.7633 54.9249 25.086C54.5729 25.4086 54.1475 25.834 53.6489 26.362C53.4729 26.5086 53.2749 26.692 53.0549 26.912C52.8495 27.1173 52.6369 27.2713 52.4169 27.374C52.2115 27.4766 52.0282 27.4546 51.8669 27.308L51.6469 27.11C51.5442 27.022 51.4562 26.9046 51.3829 26.758C51.3095 26.6113 51.2875 26.4866 51.3169 26.384L51.9329 24.668C52.1089 24.2866 52.2262 24.008 52.2849 23.832C52.3582 23.656 52.3875 23.546 52.3729 23.502C52.3729 23.458 52.3362 23.4433 52.2629 23.458C52.1749 23.4726 52.0502 23.5533 51.8889 23.7C51.7275 23.832 51.6175 23.942 51.5589 24.03C51.5002 24.03 51.4195 24.0886 51.3169 24.206C51.2289 24.3233 51.1409 24.426 51.0529 24.514C50.9649 24.602 50.8109 24.7706 50.5909 25.02C50.3709 25.2546 50.1362 25.504 49.8869 25.768C49.6962 25.944 49.4762 26.1786 49.2269 26.472C48.9775 26.7653 48.7575 27.0293 48.5669 27.264C48.3762 27.4986 48.2589 27.616 48.2149 27.616C47.9509 27.6013 47.7089 27.5133 47.4889 27.352C47.2835 27.1906 47.1442 26.9926 47.0709 26.758C46.9829 26.5966 46.9755 26.3033 47.0489 25.878C47.1222 25.438 47.2615 24.7413 47.4669 23.788C47.5255 23.568 47.5769 23.3773 47.6209 23.216C47.6795 23.0546 47.7382 22.8933 47.7969 22.732C47.8555 22.5706 47.9215 22.3873 47.9949 22.182C48.0829 21.9766 48.1929 21.7273 48.3249 21.434C48.3982 21.2286 48.4275 21.038 48.4129 20.862C48.3982 20.6713 48.3835 20.5173 48.3689 20.4C48.3689 20.18 48.4349 20.004 48.5669 19.872C48.7135 19.74 48.8749 19.652 49.0509 19.608C49.2269 19.5493 49.3662 19.5346 49.4689 19.564C49.8795 19.608 50.1582 19.7546 50.3049 20.004C50.4515 20.2533 50.5322 20.4953 50.5469 20.73C50.5615 20.95 50.5322 21.148 50.4589 21.324C50.3855 21.5 50.3269 21.6466 50.2829 21.764L50.0409 22.358C49.8942 22.6953 49.7842 22.9446 49.7109 23.106C49.6522 23.2526 49.6155 23.3553 49.6009 23.414C49.6009 23.458 49.6009 23.502 49.6009 23.546C49.6155 23.59 49.6815 23.568 49.7989 23.48C49.9162 23.392 50.0555 23.2746 50.2169 23.128C50.3929 22.9666 50.5542 22.8273 50.7009 22.71C50.9649 22.49 51.2435 22.27 51.5369 22.05C51.8449 21.8153 52.1455 21.61 52.4389 21.434C52.7322 21.258 52.9742 21.1406 53.1649 21.082C53.4142 21.126 53.6415 21.2506 53.8469 21.456C54.0669 21.6613 54.2062 21.8373 54.2649 21.984C54.3382 22.204 54.3455 22.402 54.2869 22.578C54.2429 22.754 54.2062 22.9153 54.1769 23.062C54.1622 23.1206 54.1329 23.2306 54.0889 23.392C54.0449 23.5533 54.0009 23.7073 53.9569 23.854C53.9129 23.986 53.8909 24.052 53.8909 24.052C53.8909 24.052 53.9349 24.008 54.0229 23.92C54.1109 23.832 54.2282 23.7293 54.3749 23.612C54.5215 23.48 54.6682 23.3626 54.8149 23.26C55.5482 22.7026 56.1275 22.3506 56.5529 22.204C56.9929 22.0426 57.3669 22.1673 57.6749 22.578C57.8509 22.7393 57.9609 22.9593 58.0049 23.238C58.0635 23.5166 58.0929 23.8906 58.0929 24.36C58.1075 24.5506 58.1222 24.7633 58.1369 24.998C58.1662 25.2326 58.1955 25.438 58.2249 25.614C58.2689 25.79 58.3055 25.9 58.3349 25.944C58.3789 26.0026 58.4595 26.0613 58.5769 26.12C58.6942 26.164 58.8042 26.2006 58.9069 26.23C59.1122 26.3326 59.2222 26.5233 59.2369 26.802C59.2662 27.066 59.1635 27.2713 58.9289 27.418C58.7089 27.55 58.4742 27.6306 58.2249 27.66C57.9902 27.6893 57.7482 27.6966 57.4989 27.682ZM59.5743 32.28C59.3689 32.3386 59.1563 32.2873 58.9363 32.126C58.7309 31.9646 58.5696 31.7446 58.4523 31.466C58.3496 31.1873 58.3496 30.9013 58.4523 30.608C58.4816 30.52 58.5256 30.3733 58.5843 30.168C58.6429 29.9773 58.6796 29.8086 58.6943 29.662C58.7089 29.5593 58.7529 29.3833 58.8263 29.134C58.8996 28.8993 58.9803 28.6646 59.0683 28.43C59.1709 28.1953 59.2516 28.0266 59.3103 27.924C59.3983 27.7773 59.4569 27.6086 59.4863 27.418C59.5303 27.2273 59.5523 27.0806 59.5523 26.978C59.5816 26.8753 59.6183 26.758 59.6623 26.626C59.7209 26.494 59.7796 26.3913 59.8383 26.318C59.8676 26.2006 59.9116 26.076 59.9703 25.944C60.0289 25.7973 60.0949 25.6726 60.1683 25.57C60.1976 25.4673 60.2196 25.3426 60.2343 25.196C60.2636 25.0493 60.3076 24.9686 60.3663 24.954C60.3809 24.8953 60.3883 24.8366 60.3883 24.778C60.4029 24.7193 60.4323 24.6386 60.4763 24.536C60.5056 24.3746 60.5716 24.14 60.6743 23.832C60.7769 23.524 60.9016 23.1866 61.0483 22.82C61.2096 22.3946 61.3196 22.028 61.3783 21.72C61.4369 21.3973 61.3563 21.192 61.1363 21.104C61.0189 21.0453 60.9456 20.9133 60.9163 20.708C60.8869 20.488 60.9016 20.268 60.9603 20.048C61.0189 19.828 61.1069 19.696 61.2243 19.652C61.3563 19.5933 61.5176 19.5566 61.7083 19.542C61.8989 19.5273 62.0676 19.5273 62.2143 19.542C62.3756 19.542 62.4489 19.5566 62.4343 19.586C62.4343 19.6593 62.4709 19.7033 62.5443 19.718C62.5736 19.674 62.6323 19.74 62.7203 19.916C62.8229 20.0773 62.9183 20.2606 63.0063 20.466C63.0943 20.6713 63.1383 20.8106 63.1383 20.884C63.1089 20.9426 63.0943 20.9793 63.0943 20.994C63.0943 20.994 63.1236 20.994 63.1823 20.994C63.1823 20.994 63.2629 20.9573 63.4243 20.884C63.5856 20.796 63.7543 20.7006 63.9303 20.598C64.1209 20.4806 64.2456 20.3926 64.3043 20.334C64.3043 20.334 64.3409 20.3193 64.4143 20.29C64.5023 20.246 64.5756 20.1946 64.6343 20.136C64.9276 20.0186 65.2429 19.9966 65.5803 20.07C65.9323 20.1433 66.2109 20.2753 66.4163 20.466C66.7096 20.8326 66.9296 21.2873 67.0763 21.83C67.2376 22.3726 67.2156 22.9006 67.0103 23.414C66.9809 23.4873 66.9149 23.612 66.8123 23.788C66.7243 23.9493 66.6363 24.1033 66.5483 24.25C66.4603 24.382 66.4163 24.448 66.4163 24.448C66.0789 24.976 65.7049 25.416 65.2943 25.768C64.8983 26.12 64.4656 26.428 63.9963 26.692C63.8496 26.7946 63.6443 26.89 63.3803 26.978C63.1309 27.066 62.8963 27.132 62.6763 27.176C62.4709 27.22 62.3463 27.2273 62.3023 27.198C62.1409 27.0806 61.9943 26.8313 61.8623 26.45C61.7889 26.6406 61.7156 26.8313 61.6423 27.022C61.5836 27.198 61.5469 27.3153 61.5323 27.374C61.5176 27.4766 61.5029 27.5646 61.4883 27.638C61.4736 27.6966 61.4369 27.748 61.3783 27.792C61.3783 27.792 61.3709 27.8213 61.3563 27.88C61.3416 27.9386 61.2903 28.0266 61.2023 28.144C61.0556 28.5693 60.9383 28.8993 60.8503 29.134C60.7623 29.3833 60.6889 29.5813 60.6303 29.728C60.5863 29.8893 60.5423 30.058 60.4983 30.234C60.4689 30.63 60.3736 31.048 60.2123 31.488C60.0656 31.928 59.8529 32.192 59.5743 32.28ZM62.8523 25.13C62.9109 25.1006 63.0136 25.0493 63.1603 24.976C63.3216 24.9026 63.4976 24.8146 63.6883 24.712C63.8789 24.5946 64.0549 24.4846 64.2163 24.382C64.3923 24.2646 64.5169 24.162 64.5903 24.074C64.7076 23.942 64.7736 23.8393 64.7883 23.766C64.8029 23.678 64.8396 23.5386 64.8983 23.348C64.9423 23.2306 64.9936 23.0986 65.0523 22.952C65.1109 22.8053 65.1623 22.666 65.2063 22.534C65.2649 22.4166 65.2869 22.2993 65.2723 22.182C65.2723 22.05 65.2283 21.94 65.1403 21.852C65.0816 21.8373 64.9423 21.8593 64.7223 21.918C64.5169 21.9766 64.2749 22.094 63.9963 22.27C63.7323 22.446 63.4683 22.7026 63.2043 23.04C62.8963 23.436 62.6909 23.7953 62.5883 24.118C62.4856 24.426 62.4636 24.6753 62.5223 24.866C62.5809 25.042 62.6909 25.13 62.8523 25.13ZM68.2407 28.87C68.0501 28.7966 67.8961 28.6793 67.7787 28.518C67.6614 28.3713 67.5954 28.1513 67.5807 27.858C67.5661 27.6673 67.5734 27.3886 67.6027 27.022C67.6321 26.6406 67.6834 26.2593 67.7567 25.878C67.7567 25.8486 67.7567 25.8193 67.7567 25.79C67.7714 25.746 67.7787 25.7166 67.7787 25.702C67.7934 25.6433 67.8081 25.5553 67.8227 25.438C67.8374 25.306 67.8521 25.2033 67.8667 25.13C67.8961 25.042 67.9107 25.0346 67.9107 25.108L68.0427 24.514C68.1014 24.25 68.1674 23.9786 68.2407 23.7C68.3141 23.4213 68.3801 23.1793 68.4387 22.974C68.5121 22.754 68.5561 22.6293 68.5707 22.6C68.5707 22.6 68.5927 22.5193 68.6367 22.358C68.6954 22.182 68.7541 22.006 68.8127 21.83C69.0474 21.0966 69.2674 20.488 69.4727 20.004C69.6927 19.52 69.8834 19.168 70.0447 18.948C70.0594 18.904 70.0814 18.8526 70.1107 18.794C70.1401 18.7206 70.1621 18.662 70.1767 18.618C70.1767 18.4566 70.1841 18.3393 70.1987 18.266C70.2281 18.1926 70.2647 18.1266 70.3087 18.068C70.3381 18.0093 70.3821 17.936 70.4407 17.848C70.4994 17.7453 70.5654 17.6206 70.6387 17.474L70.7267 17.232C70.8147 17.0413 70.9247 16.8213 71.0567 16.572C71.1887 16.308 71.2841 16.11 71.3427 15.978C71.3867 15.846 71.4747 15.692 71.6067 15.516C71.7387 15.3253 71.8854 15.2006 72.0467 15.142L72.0247 15.12C72.0981 14.988 72.2374 14.8853 72.4427 14.812C72.6481 14.724 72.8167 14.68 72.9487 14.68C73.1541 14.68 73.3081 14.7386 73.4107 14.856C73.5281 14.9733 73.5867 15.1346 73.5867 15.34C73.5867 15.56 73.5794 15.7213 73.5647 15.824C73.5647 15.912 73.5134 16.0146 73.4107 16.132H73.4327C73.4621 16.1026 73.4547 16.1466 73.4107 16.264C73.3667 16.3813 73.3301 16.462 73.3007 16.506C73.2714 16.5793 73.2347 16.66 73.1907 16.748C73.1614 16.836 73.1247 16.902 73.0807 16.946C73.0367 17.0046 72.9194 17.21 72.7287 17.562C72.5381 17.8993 72.3254 18.3026 72.0907 18.772C71.8561 19.2266 71.6287 19.674 71.4087 20.114C71.2034 20.5393 71.0567 20.8693 70.9687 21.104L70.8587 21.434C70.8441 21.4926 70.8367 21.5366 70.8367 21.566C70.7927 21.6686 70.7487 21.7713 70.7047 21.874C70.6607 21.9766 70.6167 22.0646 70.5727 22.138L70.2207 23.502L70.1327 23.964L69.9347 24.47L69.8027 24.888C69.7734 24.976 69.7514 25.0713 69.7367 25.174C69.7221 25.2766 69.6927 25.35 69.6487 25.394C69.6487 25.4086 69.6414 25.4306 69.6267 25.46C69.6267 25.4746 69.6267 25.4893 69.6267 25.504C69.5681 25.7386 69.4654 26.0686 69.3187 26.494C69.1867 26.9193 69.1061 27.3886 69.0767 27.902C69.0767 27.9166 69.0694 27.9313 69.0547 27.946C69.0547 27.9606 69.0547 27.9753 69.0547 27.99C69.0107 28.298 68.9154 28.5326 68.7687 28.694C68.6367 28.87 68.4607 28.9286 68.2407 28.87ZM74.2189 28.606C73.4122 28.606 72.7889 28.3713 72.3489 27.902C71.9235 27.4326 71.7109 26.714 71.7109 25.746C71.7109 25.218 71.8062 24.6386 71.9969 24.008C72.2022 23.3773 72.4662 22.7613 72.7889 22.16C73.1262 21.5586 73.4929 21.038 73.8889 20.598C74.2849 20.1433 74.6809 19.828 75.0769 19.652C75.2235 19.5786 75.3775 19.5273 75.5389 19.498C75.7149 19.454 75.8835 19.432 76.0449 19.432C76.2209 19.432 76.4115 19.4466 76.6169 19.476C76.8369 19.4906 77.0422 19.5346 77.2329 19.608C77.5702 19.7106 77.8635 19.9086 78.1129 20.202C78.3769 20.4953 78.5089 20.9206 78.5089 21.478C78.5089 21.6246 78.4942 21.786 78.4649 21.962C78.4355 22.1233 78.3842 22.2846 78.3109 22.446C78.1202 22.93 77.8269 23.392 77.4309 23.832C77.0495 24.272 76.6462 24.58 76.2209 24.756C76.1035 24.8146 75.9862 24.8586 75.8689 24.888C75.7662 24.9026 75.6562 24.91 75.5389 24.91C75.2309 24.91 74.9522 24.866 74.7029 24.778C74.4682 24.69 74.2482 24.5726 74.0429 24.426L73.8669 24.272L73.7569 24.492C73.6542 24.7706 73.5809 25.0053 73.5369 25.196C73.5075 25.3866 73.4929 25.526 73.4929 25.614C73.4929 25.79 73.5002 25.9733 73.5149 26.164C73.5295 26.34 73.5735 26.4866 73.6469 26.604C73.7055 26.6773 73.7789 26.736 73.8669 26.78C73.9695 26.824 74.0942 26.846 74.2409 26.846C74.3289 26.846 74.4095 26.846 74.4829 26.846C74.5709 26.8313 74.6442 26.8166 74.7029 26.802C74.9669 26.7433 75.1795 26.648 75.3409 26.516C75.5169 26.3693 75.7002 26.2446 75.8909 26.142L75.9789 26.098L75.9569 26.032C76.2062 25.9 76.3749 25.8193 76.4629 25.79C76.5509 25.746 76.6169 25.7093 76.6609 25.68C76.7195 25.6213 76.7855 25.592 76.8589 25.592C77.0642 25.5626 77.2622 25.6213 77.4529 25.768C77.6582 25.9 77.7609 26.0686 77.7609 26.274C77.7609 26.362 77.6949 26.5013 77.5629 26.692C77.4455 26.8826 77.2915 27.0733 77.1009 27.264C76.9249 27.44 76.7415 27.5793 76.5509 27.682C76.5069 27.6966 76.4629 27.7186 76.4189 27.748C76.3749 27.7626 76.3309 27.7846 76.2869 27.814H76.3089C76.1769 27.99 76.0449 28.078 75.9129 28.078H75.7369C75.6782 28.1806 75.4875 28.2906 75.1649 28.408C74.8422 28.54 74.5269 28.606 74.2189 28.606ZM75.3629 23.304C75.4949 23.304 75.6122 23.282 75.7149 23.238C75.8322 23.194 75.9422 23.1426 76.0449 23.084C76.3969 22.8346 76.6242 22.512 76.7269 22.116C76.8295 21.72 76.7929 21.4193 76.6169 21.214C76.5875 21.17 76.5509 21.1406 76.5069 21.126C76.4629 21.0966 76.4115 21.082 76.3529 21.082C76.1915 21.082 76.0082 21.1333 75.8029 21.236C75.6122 21.3386 75.4215 21.4853 75.2309 21.676C75.0402 21.8666 74.8642 22.094 74.7029 22.358L74.4169 22.82C74.4462 22.8053 74.4682 22.798 74.4829 22.798C74.5122 22.7833 74.5342 22.776 74.5489 22.776C74.6809 22.776 74.7689 22.82 74.8129 22.908C74.8569 22.996 74.9082 23.084 74.9669 23.172C75.0402 23.26 75.1722 23.304 75.3629 23.304ZM80.9065 28.232C80.7452 28.2026 80.5692 28.1073 80.3785 27.946C80.1879 27.77 80.0119 27.5793 79.8505 27.374C79.7039 27.154 79.6085 26.9706 79.5645 26.824C79.5645 26.7946 79.5425 26.758 79.4985 26.714C79.4692 26.67 79.4545 26.648 79.4545 26.648C79.3959 26.604 79.3592 26.4133 79.3445 26.076C79.3445 25.724 79.3665 25.3353 79.4105 24.91C79.4545 24.4846 79.5059 24.1473 79.5645 23.898C79.6379 23.6633 79.7479 23.348 79.8945 22.952C80.0412 22.5413 80.1659 22.1746 80.2685 21.852L80.8625 20.576L79.9825 20.334C79.8799 20.3046 79.7919 20.246 79.7185 20.158C79.6599 20.07 79.6305 19.9966 79.6305 19.938C79.6305 19.8206 79.6965 19.652 79.8285 19.432C79.9605 19.212 80.0559 19.102 80.1145 19.102C80.1879 19.1166 80.3199 19.124 80.5105 19.124C80.7159 19.124 80.9139 19.1166 81.1045 19.102C81.2952 19.0873 81.4125 19.0726 81.4565 19.058C81.5152 19.0286 81.5739 18.992 81.6325 18.948C81.6912 18.8893 81.7352 18.8086 81.7645 18.706C81.8379 18.5446 81.9039 18.42 81.9625 18.332C82.0212 18.244 82.1019 18.112 82.2045 17.936C82.3072 17.7453 82.3879 17.584 82.4465 17.452C82.5199 17.32 82.6299 17.1366 82.7765 16.902C82.8499 16.7993 82.9305 16.6746 83.0185 16.528C83.1065 16.3813 83.2165 16.2566 83.3485 16.154C83.4805 16.0366 83.6932 15.956 83.9865 15.912C84.2945 15.8533 84.5585 15.9193 84.7785 16.11C84.8959 16.2566 84.9619 16.396 84.9765 16.528C84.9912 16.66 84.9325 16.8286 84.8005 17.034C84.6832 17.2833 84.5439 17.5106 84.3825 17.716C84.2359 17.9066 84.0965 18.1266 83.9645 18.376C83.7299 18.6986 83.6859 18.882 83.8325 18.926C83.9792 18.97 84.3899 18.9406 85.0645 18.838C85.4899 18.7646 85.7979 18.8086 85.9885 18.97C86.1792 19.1313 86.2892 19.3366 86.3185 19.586C86.3625 19.938 86.3259 20.1506 86.2085 20.224C86.0912 20.2973 85.7539 20.334 85.1965 20.334C84.8445 20.3926 84.5439 20.4293 84.2945 20.444C84.0452 20.444 83.8619 20.444 83.7445 20.444C83.5539 20.4586 83.4292 20.466 83.3705 20.466C83.3119 20.466 83.2239 20.4806 83.1065 20.51C82.9892 20.5393 82.9012 20.5906 82.8425 20.664C82.7985 20.7226 82.7472 20.8106 82.6885 20.928C82.6299 20.9866 82.5419 21.1406 82.4245 21.39C82.3072 21.6393 82.1605 21.9106 81.9845 22.204C81.7792 22.82 81.6032 23.414 81.4565 23.986C81.3245 24.5433 81.2072 25.1006 81.1045 25.658C81.0605 25.9366 81.0679 26.142 81.1265 26.274C81.1999 26.3913 81.3905 26.4646 81.6985 26.494C81.8599 26.5086 82.0945 26.5086 82.4025 26.494C82.7105 26.4646 82.9672 26.4206 83.1725 26.362C83.3339 26.2886 83.5025 26.2153 83.6785 26.142C83.8545 26.054 84.0159 25.966 84.1625 25.878C84.2945 25.8046 84.4265 25.7313 84.5585 25.658C84.6905 25.57 84.7565 25.526 84.7565 25.526C84.8299 25.4086 84.9325 25.4306 85.0645 25.592C85.2112 25.7386 85.3139 25.9 85.3725 26.076C85.3725 26.252 85.3359 26.4646 85.2625 26.714C85.1892 26.9486 84.9179 27.198 84.4485 27.462C83.7885 27.8726 83.1285 28.122 82.4685 28.21C81.8085 28.298 81.2879 28.3053 80.9065 28.232ZM88.1017 28.012C87.5297 27.7773 87.1337 27.396 86.9137 26.868C86.6937 26.34 86.6351 25.636 86.7377 24.756C86.7671 24.3013 86.7524 24.0006 86.6937 23.854C86.6351 23.6926 86.5251 23.5386 86.3637 23.392C86.3197 23.3333 86.2171 23.238 86.0557 23.106C85.8944 22.9593 85.8211 22.8493 85.8357 22.776C85.8211 22.6733 85.8431 22.5486 85.9017 22.402C85.9604 22.2406 86.0117 22.1526 86.0557 22.138C86.1584 22.094 86.2611 22.0426 86.3637 21.984C86.4811 21.9253 86.5691 21.9106 86.6277 21.94C86.6864 21.94 86.7744 21.9766 86.8917 22.05C87.0237 22.1233 87.0897 22.1893 87.0897 22.248C87.1484 22.3506 87.2364 22.3066 87.3537 22.116C87.4857 21.9253 87.6251 21.6833 87.7717 21.39C87.9184 21.1553 88.1017 20.9353 88.3217 20.73C88.5417 20.5246 88.7617 20.3413 88.9817 20.18C89.2164 20.004 89.4144 19.872 89.5757 19.784C89.6491 19.7546 89.7884 19.7106 89.9937 19.652C90.2137 19.5933 90.4411 19.5493 90.6757 19.52C90.9104 19.476 91.0864 19.4613 91.2037 19.476C91.4677 19.4906 91.7464 19.6006 92.0397 19.806C92.3331 20.0113 92.5604 20.202 92.7217 20.378C92.9124 20.51 93.0371 20.7153 93.0957 20.994C93.1691 21.258 93.1984 21.5366 93.1837 21.83C93.1691 22.1233 93.1104 22.3726 93.0077 22.578C92.9637 22.7246 92.8097 22.93 92.5457 23.194C92.2817 23.458 91.9884 23.7146 91.6657 23.964C91.3577 24.1986 91.0937 24.36 90.8737 24.448C90.6831 24.492 90.4557 24.5286 90.1917 24.558C89.9277 24.5726 89.6784 24.5726 89.4437 24.558C89.2237 24.5286 89.0697 24.492 88.9817 24.448C88.8791 24.3893 88.7911 24.4113 88.7177 24.514C88.6591 24.602 88.6077 24.8513 88.5637 25.262C88.5491 25.4233 88.5491 25.5626 88.5637 25.68C88.5931 25.7973 88.6224 25.8853 88.6517 25.944C88.7544 26.12 88.8571 26.252 88.9597 26.34C89.0624 26.4133 89.2531 26.4353 89.5317 26.406C89.8104 26.3766 90.0891 26.208 90.3677 25.9C90.6611 25.5773 90.9251 25.3206 91.1597 25.13C91.2184 25.0273 91.3431 24.9613 91.5337 24.932C91.7391 24.888 91.9811 24.9026 92.2597 24.976C92.4211 25.0786 92.4944 25.24 92.4797 25.46C92.4797 25.68 92.3624 26.0026 92.1277 26.428C92.0837 26.5306 91.9591 26.6846 91.7537 26.89C91.5631 27.0806 91.3504 27.2786 91.1157 27.484C90.8957 27.6746 90.7124 27.814 90.5657 27.902C90.1257 28.1366 89.6931 28.2466 89.2677 28.232C88.8424 28.2173 88.4537 28.144 88.1017 28.012ZM89.7297 23.062C89.9497 23.0033 90.1331 22.9446 90.2797 22.886C90.4411 22.8273 90.5951 22.732 90.7417 22.6C90.8884 22.468 91.0571 22.27 91.2477 22.006C91.3064 21.8446 91.3357 21.7053 91.3357 21.588C91.3504 21.4706 91.3431 21.3973 91.3137 21.368C91.1964 21.2506 91.0644 21.214 90.9177 21.258C90.7857 21.2873 90.6391 21.3606 90.4777 21.478C90.3751 21.522 90.2284 21.6173 90.0377 21.764C89.8617 21.896 89.6857 22.05 89.5097 22.226C89.3484 22.3873 89.2164 22.5413 89.1137 22.688C89.0257 22.82 89.0111 22.9006 89.0697 22.93C89.0404 22.9886 89.1211 23.0253 89.3117 23.04C89.5171 23.0546 89.6564 23.062 89.7297 23.062ZM100.289 28.188C100.069 28.2026 99.8641 28.21 99.6734 28.21C99.4974 28.21 99.3581 28.1806 99.2554 28.122C98.9914 27.902 98.8154 27.726 98.7274 27.594C98.6541 27.462 98.6174 27.3153 98.6174 27.154C98.6321 26.9486 98.6394 26.7433 98.6394 26.538C98.6394 26.318 98.6394 26.1493 98.6394 26.032C98.5807 25.9733 98.4634 26.0393 98.2874 26.23C98.1114 26.4206 97.9061 26.604 97.6714 26.78C97.2167 27.2933 96.8134 27.6673 96.4614 27.902C96.1094 28.122 95.7867 28.2466 95.4934 28.276C95.2001 28.32 94.9067 28.3273 94.6134 28.298C94.3494 28.2686 94.1147 28.1366 93.9094 27.902C93.7187 27.6673 93.5721 27.3813 93.4694 27.044C93.3814 26.7066 93.3521 26.3766 93.3814 26.054C93.4547 25.4526 93.5867 24.91 93.7774 24.426C93.9681 23.9273 94.2541 23.4066 94.6354 22.864C94.8114 22.6293 95.0461 22.3726 95.3394 22.094C95.6474 21.8153 95.9774 21.5586 96.3294 21.324C96.6814 21.0746 96.9967 20.8986 97.2754 20.796C97.7007 20.6053 98.0527 20.5173 98.3314 20.532C98.6247 20.5466 98.9107 20.5906 99.1894 20.664C99.3947 20.7666 99.5561 20.818 99.6734 20.818C99.8054 20.818 99.9007 20.7446 99.9594 20.598C100.047 20.4806 100.113 20.334 100.157 20.158C100.201 19.982 100.275 19.8133 100.377 19.652L100.861 18.222C101.023 17.826 101.213 17.3713 101.433 16.858C101.653 16.3446 101.903 15.7726 102.181 15.142C102.519 14.57 102.805 14.2693 103.039 14.24C103.289 14.2106 103.545 14.3426 103.809 14.636C103.985 14.812 104.081 15.032 104.095 15.296C104.125 15.5453 104.059 15.8386 103.897 16.176C103.795 16.3373 103.685 16.5426 103.567 16.792C103.45 17.0266 103.311 17.3053 103.149 17.628C102.988 18.0093 102.819 18.3906 102.643 18.772C102.482 19.1533 102.313 19.5713 102.137 20.026C102.079 20.2606 101.998 20.532 101.895 20.84C101.807 21.148 101.734 21.4266 101.675 21.676C101.631 21.9106 101.58 22.1306 101.521 22.336C101.477 22.5266 101.426 22.622 101.367 22.622C101.25 22.7246 101.14 22.9446 101.037 23.282C100.935 23.6046 100.847 23.9493 100.773 24.316C100.715 24.6826 100.663 24.9833 100.619 25.218C100.59 25.394 100.568 25.6433 100.553 25.966C100.539 26.274 100.531 26.5746 100.531 26.868C100.531 27.1466 100.531 27.3373 100.531 27.44C100.531 27.7186 100.509 27.9166 100.465 28.034C100.436 28.1366 100.377 28.188 100.289 28.188ZM95.3174 26.45C95.6547 26.45 95.9701 26.3106 96.2634 26.032C96.5714 25.7386 96.9087 25.4306 97.2754 25.108C97.4954 24.888 97.7227 24.646 97.9574 24.382C98.1921 24.1033 98.4047 23.832 98.5954 23.568C98.8007 23.304 98.9621 23.0766 99.0794 22.886C99.1967 22.6953 99.2554 22.5706 99.2554 22.512C99.2554 22.4386 99.1967 22.3726 99.0794 22.314C98.9767 22.2553 98.8521 22.2113 98.7054 22.182C98.5587 22.138 98.4267 22.1306 98.3094 22.16C97.9574 22.2626 97.6714 22.4166 97.4514 22.622C97.2461 22.8273 96.9454 23.15 96.5494 23.59C96.1534 24.074 95.8381 24.536 95.6034 24.976C95.3687 25.416 95.2221 25.7753 95.1634 26.054C95.1194 26.318 95.1707 26.45 95.3174 26.45Z"
        fill="#F8F8F6" />
</svg>