<svg width="39" height="26" viewBox="0 0 39 26" fill="none" xmlns="http://www.w3.org/2000/svg">
    <path
        d="M1.00003 5.0146C1.3676 12.0067 1.85279 24.4801 2.95183 23.9947C5.41112 22.9086 7.1164 21.203 9.32367 19.6174C11.0945 18.3452 12.755 17.0646 13.922 15.3002C14.2128 14.8605 14.5928 14.5101 14.7196 14.0832C15.241 12.3276 12.7697 10.3791 10.9924 8.97228C9.01078 7.40363 6.52093 5.75176 4.68309 4.5931C4.19055 4.28838 3.70535 3.9271 3.2128 3.68077C2.72026 3.43444 2.23506 3.31402 1.73516 3.18994"
        stroke="black" stroke-width="2" stroke-linecap="round" />
    <path
        d="M21.584 1C21.9515 1.48171 22.1941 3.66401 22.3797 16.0352C22.4427 20.2348 23.0542 22.7609 23.2968 24.6476C23.3748 25.2541 24.0246 24.9687 24.5172 24.6038C26.6069 23.0555 28.1929 21.2026 30.5803 18.7083C32.4371 16.7683 35.0518 15.4805 37.0146 14.4459C37.5272 14.1757 37.9923 13.7799 37.9997 13.2927C38.0419 10.4969 34.2137 9.03581 32.0064 7.87715C29.8714 6.75642 27.5974 5.02155 25.879 3.56C25.3883 3.19325 24.7818 2.83196 24.2874 2.46521C23.7931 2.09845 23.4292 1.73717 23.0542 1.36494"
        stroke="black" stroke-width="2" stroke-linecap="round" />
    <path
        d="M3.16865 23.1676C3.16865 23.1676 14.1059 19.0443 13.886 13.4139C13.6645 7.74155 1.71161 3.47085 1.71161 3.47085L3.16865 23.1676Z"
        fill="#121212" />
    <path
        d="M37.2885 13.4139C37.4115 16.9607 23.4135 24.2944 23.4135 24.2944L22.702 2.05908C22.702 2.05908 37.082 7.45985 37.2885 13.4139Z"
        fill="#121212" />
</svg>