<svg width="23" height="26" viewBox="0 0 23 26" fill="none" xmlns="http://www.w3.org/2000/svg">
    <path
        d="M1.00026 1.01893C1.68957 0.817784 5.84628 2.20776 13.3555 5.75926C18.2823 8.08936 20.5873 9.41882 21.6869 10.7698C23.1702 12.5922 19.0117 14.6245 17.0751 16.3207C12.3194 20.486 7.97686 21.9256 6.12828 23.0799C5.2279 23.6421 4.88245 24.7326 4.33637 24.9352C2.31581 25.685 3.08907 19.7461 2.84139 16.4453C2.69219 11.133 2.49226 7.94179 2.24459 5.63016C2.19386 5.02974 2.19387 4.23719 2.19387 3.42061"
        stroke="black" stroke-width="2" stroke-linecap="round" />
    <path
        d="M21.3886 11.8681C21.3886 8.95032 4.71266 0.197295 3.2625 2.38533C0.36248 6.76093 2.01457 21.0003 4.71258 22.8098C6.88792 24.2686 21.3886 14.0564 21.3886 11.8681Z"
        fill="#121212" />
</svg>