<svg width="75" height="64" viewBox="0 0 75 64" fill="none" xmlns="http://www.w3.org/2000/svg">
    <path
        d="M42.6596 17.5024C42.8929 16.839 43.6778 15.5038 44.092 14.8138C44.4984 14.1368 45.1697 12.9136 45.4873 11.9667C45.6143 11.5878 45.6057 11.1412 45.5279 10.7099C45.4902 10.5006 45.2946 10.3564 45.1172 10.2762C44.9399 10.1961 44.7454 10.1961 44.5675 10.2739C43.8412 10.5913 43.6825 11.5277 43.3678 12.3927C43.0999 13.1293 42.9754 13.9247 42.5435 14.6712C42.3084 15.063 42.0716 15.4189 41.8559 15.7324C41.7569 15.8903 41.6791 16.0459 41.599 16.2061"
        stroke="#121212" stroke-linecap="round" />
    <path
        d="M52.6764 11.021C52.3641 11.2154 51.736 11.8435 51.3825 12.3721C51.2052 12.637 51.2623 13.0173 51.3206 13.2754C51.5024 14.0797 52.3983 14.2806 53.1442 14.5163C53.778 14.7165 54.3639 14.4785 54.6579 14.3024C55.2309 13.959 55.269 12.9513 55.1912 12.068C54.9578 11.6126 54.642 11.4146 54.3286 11.2773C54.1707 11.2178 54.0151 11.1789 53.737 11.021"
        stroke="#121212" stroke-linecap="round" />
    <path
        d="M59.747 12.1997C59.5903 12.512 59.5113 13.9179 59.8825 14.7905C60.1666 15.4583 61.1965 15.2637 61.9242 15.3615C62.4087 15.4266 62.8487 15.2648 63.1232 15.0103C63.3823 14.7701 63.4002 14.1677 63.3807 13.5007C63.368 13.0633 63.1657 12.7901 62.9111 12.5939C62.6177 12.4755 62.3019 12.3965 61.9884 12.3376C61.8305 12.3175 61.6749 12.3175 61.5147 12.3175"
        stroke="#121212" stroke-linecap="round" />
    <path
        d="M38.6528 8.19287C39.1984 8.19287 40.6114 8.27065 41.5754 8.40853C42.9984 8.61206 44.0312 8.66425 45.169 8.7815C46.1543 8.88304 47.3285 8.97771 48.1758 9.03722C48.9462 9.09133 50.9723 9.36895 52.572 9.56693C55.2733 9.90124 57.6092 10.3494 59.0169 10.5886C60.4493 10.8632 62.0967 11.1767 63.2381 11.3546C63.6299 11.3747 64.2132 11.3747 64.8142 11.3747"
        stroke="#121212" stroke-width="2" stroke-linecap="round" />
    <path
        d="M27.4576 3.479C27.9644 3.479 29.2206 3.55678 30.5357 3.83136C31.9302 4.1225 33.1849 4.18607 34.348 4.28388C35.5427 4.38435 37.7407 4.5396 38.806 4.63741C40.4132 4.78497 41.9831 4.89313 43.1079 4.99094C44.3802 5.10157 47.0457 5.24667 49.3654 5.34447C51.8186 5.44791 53.6556 5.4034 54.6902 5.46232C58.2074 5.66262 60.2419 5.6002 61.844 5.69801C63.241 5.75693 65.0358 5.83589 66.226 5.95314C66.3839 5.99262 66.5395 6.03151 66.9354 6.07158"
        stroke="#121212" stroke-width="2" stroke-linecap="round" />
    <path
        d="M66.3463 6.66064C66.3463 9.11769 66.2685 12.9818 66.209 13.6111C66.1412 14.3282 65.9928 15.6474 65.895 17.3945C65.6716 21.383 65.7571 22.3292 65.6593 24.633C65.5849 26.3839 65.6392 29.7298 65.5809 31.7638C65.5226 33.7978 65.4059 34.42 65.3069 35.9266C65.0524 39.8011 65.0111 42.4051 64.9522 42.7964C64.7996 43.8095 64.8143 46.6239 64.7165 49.0168C64.6965 49.8163 64.6965 51.2552 64.7159 52.0742C64.7354 52.8932 64.7743 53.0488 65.05 53.5626"
        stroke="#121212" stroke-width="2" stroke-linecap="round" />
    <path
        d="M36.5317 56.3912C37.4321 56.4301 39.3859 56.509 41.7027 56.6457C45.512 56.8705 48.2749 56.8237 48.764 56.7647C50.1505 56.5977 51.102 56.5491 53.0611 56.4896C54.3355 56.4509 55.342 56.1555 56.1498 56.0382C57.0851 55.9025 58.0901 55.5286 59.2904 55.4095C61.2342 55.2127 62.884 55.135 63.9641 54.9971C64.4525 54.9771 65.2692 54.9771 66.1106 54.9771"
        stroke="#121212" stroke-width="2" stroke-linecap="round" />
    <path
        d="M67.5247 7.60352C67.7993 9.80131 68.4227 12.0627 68.8988 14.881C69.0981 16.0605 69.0555 17.3775 69.2517 18.7687C69.597 21.2169 69.6848 23.0317 69.8993 25.4375C70.2092 28.9135 70.7065 31.2089 70.7454 31.7963C70.8321 33.1063 71.0978 34.2693 71.3735 35.8413C71.524 36.6991 71.5314 37.5713 71.9227 40.2941C72.1453 41.8435 72.2762 42.5608 72.4736 43.5224C72.67 44.4792 72.7877 45.5045 73.0233 47.033C73.344 49.1123 72.8301 50.7321 72.3793 51.1634C71.6105 51.899 70.0867 52.1462 69.0791 52.5793C68.4298 52.8156 67.4917 53.2068 66.526 53.6788C66.3475 53.7972 66.2308 53.9139 66.1106 54.0341"
        stroke="#121212" stroke-width="2" stroke-linecap="round" />
    <path
        d="M51.5 55.5C45.6545 55.8801 36.5 55.5 36.5 55.5L34 9C34 9 43.8492 9.31658 50 10C56.1508 10.6834 65.5 12.5 65.5 12.5L64 54C64 54 56.4062 55.181 51.5 55.5Z"
        fill="#F8F8F6" />
    <path
        d="M50.7908 43.7818C51.1031 43.8596 52.1978 44.1731 53.0469 44.4683C53.8551 44.7492 54.8328 44.4512 55.5022 44.3322C56.1603 44.2151 56.5628 43.4707 57.0736 42.822C57.669 42.0658 57.9392 41.3896 58.0965 40.7202C58.3753 39.5342 58.1372 37.6186 57.9993 36.9298C57.9793 36.558 57.9015 36.2021 57.7642 35.8886C57.7047 35.7307 57.6658 35.5752 57.39 35.1792"
        stroke="#121212" stroke-width="4" stroke-linecap="round" />
    <path
        d="M71.4166 51.0247C70.8333 51.5494 66.5649 54.6299 65.5 52.5C64.9999 51.5 67.5 12 67.5 12C67.5 12 71.9999 46.4383 71.9999 48C72 49.5617 72 50.5 71.4166 51.0247Z"
        fill="#F8F8F6" />
    <path
        d="M68.4674 28.1084C68.4674 28.1473 68.4674 28.1862 68.5063 31.6479C68.5452 35.1095 68.623 41.9928 68.6436 45.6359C68.6642 49.2791 68.6253 49.4735 68.5853 50.0274"
        stroke="#121212" stroke-linecap="round" />
    <path
        d="M67.4068 39.4214C67.2901 40.8992 67.1735 42.3769 67.055 43.391C66.9366 44.405 66.8199 44.9106 66.7404 45.7543C66.6608 46.5981 66.622 47.7647 66.8176 48.6132"
        stroke="#121212" stroke-linecap="round" />
    <path
        d="M70.1172 40.4819C70.2727 41.9597 70.4283 43.4375 70.5084 44.7821C70.5886 46.1267 70.5886 47.2933 70.7064 48.6132"
        stroke="#121212" stroke-linecap="round" />
    <path
        d="M67.1711 21.627C67.0933 24.2714 67.0144 25.7892 66.9166 26.336C66.7799 27.3495 66.6997 28.6127 66.6803 29.6722C66.6609 30.1094 66.622 30.3427 66.5819 30.9366"
        stroke="#121212" stroke-linecap="round" />
    <path
        d="M65.5303 10.708C65.5303 10.708 34.0303 7.70801 31.0303 5.20796C29.8156 4.1957 65.5303 7.20801 65.5303 7.20801V10.708Z"
        fill="#F8F8F6" />
    <path
        d="M61.316 56.7645C52.0013 59.6006 25.3315 56.3265 27.0798 53.6915C28.8281 51.0565 26.1544 11.9016 26.1544 11.9016C40.1292 5.42443 49.5755 8.5756 64.9337 6.98331C65.5503 28.0752 62.849 37.4776 61.316 56.7645Z"
        fill="#F8F8F6" />
    <path
        d="M33.5364 25.9653C33.7758 25.8276 34.3663 25.5652 35.115 25.2793C35.8849 24.8273 36.661 24.4213 37.4334 23.9419C37.7234 23.7408 38.1524 23.4056 38.5944 23.0602"
        stroke="#FB3748" stroke-width="4" stroke-linecap="round" />
    <path
        d="M35.0115 43.3569C35.3234 43.3121 35.9618 43.1109 36.6634 42.9867C37.4308 43.01 37.9757 43.1331 38.3057 43.1737C38.4719 43.1941 38.6357 43.2142 38.9698 43.2552"
        stroke="#FB3748" stroke-width="4" stroke-linecap="round" />
    <path
        d="M24.4294 11.2471C24.6286 11.881 25.2733 13.6594 26.1483 16.212C27.0511 18.8455 26.8276 19.737 26.8978 20.6557C26.9623 21.4993 26.9499 24.2117 26.9272 26.1159C26.9178 26.9097 26.7859 27.8452 26.546 30.2475C26.4291 31.4175 26.4737 32.4261 26.4032 33.5789C26.336 34.6761 26.224 36.0608 26.0657 38.1466C25.8536 40.943 25.8978 43.0469 25.9622 44.1122C26.1672 47.503 25.9565 48.7302 25.9671 50.9143C25.9724 52.0067 25.9334 52.7891 25.9456 53.6028C25.9462 53.8275 25.9433 54.0765 25.9318 54.2866C25.9202 54.4968 25.9001 54.6605 25.9114 55.2529"
        stroke="#121212" stroke-width="2" stroke-linecap="round" />
    <path
        d="M25.8184 55.3252C27.1527 55.3773 27.9858 55.4234 29.5232 55.6398C30.9615 55.8423 32.3141 56.178 33.4292 56.2041C34.8773 56.2379 36.7958 56.5049 38.1371 56.7392C39.0803 56.904 40.3672 56.9148 41.7648 57.1426C42.3202 57.2331 44.1121 57.7649 46.7075 58.3773C48.8977 58.8942 50.5518 58.7259 51.4894 58.6453C52.4574 58.5622 53.531 58.3931 54.9431 58.1886C56.5643 57.9539 57.4614 57.6163 58.3961 57.4363C59.2226 57.4396 60.0054 57.4232 60.6841 57.2698C60.8448 57.219 61.0153 57.1845 61.3563 57.1693"
        stroke="#121212" stroke-width="2" stroke-linecap="round" />
    <path
        d="M37.4287 42.8143C37.3763 42.5577 37.5186 41.8498 37.6364 41.01C37.7583 40.1404 37.673 39.2376 37.6412 38.4638C37.6041 37.5604 37.6736 36.4974 37.7944 35.5027C37.8953 34.6724 37.8534 33.6651 37.8791 32.4232C37.9202 30.4333 38.1528 29.3933 38.1717 28.3294C38.4643 26.8558 38.7631 25.3243 38.8474 24.5354C38.8555 24.3533 38.8756 24.1896 38.6786 23.7423"
        stroke="#FB3748" stroke-width="4" stroke-linecap="round" />
    <path
        d="M43.4235 24.0728C43.7002 23.8566 44.4278 23.3868 45.2081 23.0762C46.0788 22.7297 46.8793 22.5661 47.7505 22.5337C48.2767 22.5141 48.8846 22.6444 49.444 22.7546C50.4669 22.9562 51.0061 24.5251 51.1891 25.2054C51.3903 25.953 51.3015 26.6871 51.1218 27.4773C50.8957 28.4716 50.262 29.246 49.9096 29.9453C49.4939 30.7701 49.1985 31.5216 48.6533 32.5465C48.2722 33.263 47.9261 33.9125 47.699 34.6134C47.4032 35.5262 46.6584 36.4972 46.2273 37.2595C45.8537 37.9203 45.4248 38.5588 44.9213 39.1279C44.1662 39.9814 43.6038 40.6305 43.3011 41.1407C43.0144 41.6239 44.7101 41.3574 45.6344 41.4847C46.7216 41.6345 48.2564 41.8767 49.0482 41.8345C49.3817 41.8469 49.7074 41.9423 50.0273 42.0655C50.1901 42.114 50.3538 42.1342 50.7605 42.268"
        stroke="#FB3748" stroke-width="4" stroke-linecap="round" />
    <path
        d="M24.8616 10.4604C25.276 10.4836 26.3408 10.4473 27.9093 10.0689C31.7128 9.15152 32.6493 8.31186 33.7872 8.04564C34.5574 7.86545 36.0271 7.41348 37.8062 7.09794C38.7039 6.93871 39.4642 6.82463 40.2073 6.59473C40.9217 6.37372 41.9073 6.51 42.7978 6.46401C43.6461 6.42019 44.9323 6.48845 46.0078 6.52225C47.2174 6.56027 48.5507 6.65225 49.8902 6.80283C50.847 6.9104 51.8561 6.86325 52.8234 6.85522C53.9242 6.84609 55.2732 6.83442 56.4933 6.92795C57.6392 7.0158 58.7081 6.89341 59.4959 6.87679C60.379 6.85816 61.2071 6.83416 62.0188 6.7256C62.46 6.65383 62.8863 6.62137 63.2627 6.6256C63.4448 6.63367 63.6085 6.65377 64.1081 6.7151"
        stroke="#121212" stroke-width="2" stroke-linecap="round" />
    <path
        d="M61.4494 57.0971C61.6133 56.6714 61.9539 55.71 62.26 54.0269C62.4968 52.7248 62.4134 51.7618 62.5878 50.3304C62.696 49.4424 62.6747 48.7161 62.7396 47.8422C62.8188 46.7755 63.1552 45.2541 63.456 42.5776C63.631 41.021 63.5968 40.0696 63.6593 39.3216C63.7548 38.1772 64.188 37.511 64.3909 36.7812C64.7209 35.5942 64.8339 34.7661 65.1265 33.863C65.5512 32.5524 65.946 29.1266 66.1189 27.1573C66.2451 25.7203 66.0965 23.8106 66.062 22.4917C66.027 21.1551 66.1982 19.0982 66.2452 18.0348C66.2895 17.0319 66.2964 16.0275 66.2113 15.1204C66.1227 14.1759 66.2814 12.9496 66.2495 12.0742C66.2159 11.1544 66.0977 9.90466 65.8712 8.21079C65.7483 7.73102 65.7013 7.41631 65.6839 7.10689C65.6464 6.96124 65.5506 6.83867 65.3997 6.4541"
        stroke="#121212" stroke-width="2" stroke-linecap="round" />
    <path
        d="M37.1171 9.58922C37.0393 9.51144 36.8437 9.3936 36.5302 9.27576C35.9007 9.03909 35.3117 9.70589 35.076 9.97988C34.9609 10.1137 34.9959 10.3316 35.0542 10.4901C35.2812 11.1068 36.0141 11.3946 36.7795 11.6704C37.4596 11.9154 38.0587 11.5938 38.2743 11.3392C38.4958 11.0778 38.5312 10.4966 38.4535 9.86851C37.9043 9.3936 37.4329 9.1968 37.1195 9.11844C36.9616 9.07896 36.806 9.04007 36.6457 9"
        stroke="#121212" stroke-linecap="round" />
    <path
        d="M45.715 9.47137C45.4817 9.47137 45.2059 9.3936 44.8924 9.31464C44.5795 9.23582 44.302 9.58804 44.1058 9.84258C44.0086 9.96865 43.9874 10.136 44.0062 10.2939C44.0844 10.9486 44.8476 11.3545 45.4769 11.6703C45.6225 11.7434 45.7904 11.7104 45.9289 11.6326C46.5286 11.2958 46.4221 10.4177 46.3443 9.82903C46.2665 9.5904 46.1109 9.47373 45.953 9.3553C45.7951 9.23687 45.6396 9.1202 45.4793 9"
        stroke="#121212" stroke-linecap="round" />
    <path
        d="M55.0715 12.2357C54.6024 12.1968 53.7398 12.1178 53.1288 12.3912C52.988 12.4543 52.9903 12.6646 53.0092 12.842C53.09 13.6025 53.8907 14.0788 54.3821 14.5714C54.624 14.8139 55.0302 14.8283 55.3443 14.7505C55.5028 14.5172 55.5428 13.8513 55.4262 12.9687C55.3095 12.5916 55.0762 12.3583 54.4822 12"
        stroke="#121212" stroke-linecap="round" />
    <path
        d="M61.843 13.1178C61.7653 13.0401 61.5696 13.0389 61.3145 13.1756C60.7774 13.4633 61.0181 14.605 61.3699 15.3351C61.449 15.4992 61.605 15.5902 61.879 15.6503C62.153 15.7104 62.5807 15.7104 62.8594 15.5743C63.3702 15.3249 63.375 14.4188 63.2972 13.6535C63.266 13.3463 63.0639 13.2381 62.8866 13.1585C62.7092 13.079 62.5148 13.0401 62.3174 13.02C62.12 13 61.9255 13 61.7252 13"
        stroke="#121212" stroke-linecap="round" />
    <path
        d="M29.6968 10.7856C29.6968 10.0832 29.7746 8.82463 29.9124 7.94257C30.2073 6.05608 30.1281 5.32938 30.1876 4.4644C30.2377 3.7363 30.6772 3.05027 31.148 2.40154C31.728 1.60229 32.4826 1.32032 33.1702 1.04457C33.3744 0.962708 33.6587 1.0045 33.8378 1.08228C34.0947 1.31561 34.2915 1.59254 34.5072 1.84708C34.6062 1.98496 34.6839 2.14051 34.8819 2.30078"
        stroke="#121212" stroke-width="2" stroke-linecap="round" />
    <path
        d="M29.9323 11.1392C30.0101 11.1392 30.3224 11.2947 30.7737 11.6276C31.1374 11.8959 31.1108 12.5109 31.033 13.0795C30.9641 13.5834 30.4839 13.8484 30.1509 14.0446C29.8148 14.2427 29.3066 14.2031 28.8552 14.1253C28.1349 14.0012 28.4004 12.6358 28.4587 11.9882C28.4825 11.7241 28.6337 11.6129 28.791 11.5333C28.9483 11.4538 29.1428 11.4149 29.3207 11.3754C29.4987 11.336 29.6542 11.2971 29.9323 11.257"
        stroke="#121212" stroke-linecap="round" />
    <path
        d="M53.8547 12.553C53.6603 11.9285 53.1099 10.5167 52.7364 9.7077C52.4099 9.00057 52.3628 8.23524 52.3033 7.4887C52.1695 5.8101 52.3216 3.48023 52.5761 3.24513C53.1252 2.73797 53.8123 2.57637 54.5199 2.59463C54.7951 2.76963 54.9931 3.04539 55.1498 3.35885C55.2288 3.51676 55.3066 3.67232 55.5045 3.83258"
        stroke="#121212" stroke-width="2" stroke-linecap="round" />
    <path
        d="M61.8682 13.6136C61.5936 13.3402 61.1258 12.2466 60.7887 11.1619C60.5297 10.3283 60.4163 9.22038 60.0428 7.29775C59.8037 6.06723 60.0604 5.20896 60.2366 4.87605C60.6322 4.12849 61.3544 3.71706 61.9837 3.63574C62.2971 3.75241 62.5741 3.9881 62.7703 4.30156C62.8498 4.45947 62.8887 4.61503 63.0466 5.01098"
        stroke="#121212" stroke-width="2" stroke-linecap="round" />
    <path
        d="M44.6629 10.4318C44.5451 10.0429 44.6228 8.94223 44.6823 7.11977C44.7168 6.06549 44.9764 5.05573 45.0553 3.915C45.0837 3.50545 45.291 3.16669 45.4277 2.7943C45.572 2.40113 45.9969 2.26165 46.3104 2.22217C46.6238 2.26047 46.9008 2.45609 47.1359 2.76955C47.2543 2.92746 47.371 3.08302 47.7268 3.36113"
        stroke="#121212" stroke-width="2" stroke-linecap="round" />
    <path
        d="M37.4744 8.07488C37.4744 7.52808 37.5521 6.58532 37.7289 5.85823C37.911 5.10928 38.2969 4.11295 38.6711 3.16785C38.8234 2.78309 39.1619 2.57627 39.5726 2.45842C39.8277 2.41835 40.1777 2.41835 40.4358 2.45724C40.6939 2.49613 40.8494 2.57391 41.2454 2.88973"
        stroke="#121212" stroke-width="2" stroke-linecap="round" />
</svg>