<svg width="75" height="64" viewBox="0 0 75 64" fill="none" xmlns="http://www.w3.org/2000/svg">
    <path
        d="M42.6595 17.5024C42.8928 16.839 43.6776 15.5038 44.0919 14.8138C44.4983 14.1368 45.1695 12.9136 45.4871 11.9667C45.6142 11.5878 45.6056 11.1412 45.5278 10.7099C45.4901 10.5006 45.2945 10.3564 45.1171 10.2762C44.9398 10.1961 44.7453 10.1961 44.5674 10.2739C43.8411 10.5913 43.6824 11.5277 43.3677 12.3927C43.0998 13.1293 42.9753 13.9247 42.5434 14.6712C42.3083 15.063 42.0714 15.4189 41.8558 15.7324C41.7568 15.8903 41.679 16.0459 41.5989 16.2061"
        stroke="#121212" stroke-linecap="round" />
    <path
        d="M52.6764 11.021C52.3641 11.2154 51.736 11.8435 51.3825 12.3721C51.2052 12.637 51.2623 13.0173 51.3206 13.2754C51.5024 14.0797 52.3983 14.2806 53.1442 14.5163C53.778 14.7165 54.3639 14.4785 54.6579 14.3024C55.2309 13.959 55.269 12.9513 55.1912 12.068C54.9578 11.6126 54.642 11.4146 54.3286 11.2773C54.1707 11.2178 54.0151 11.1789 53.737 11.021"
        stroke="#121212" stroke-linecap="round" />
    <path
        d="M59.747 12.1997C59.5903 12.512 59.5113 13.9179 59.8825 14.7905C60.1666 15.4583 61.1965 15.2637 61.9242 15.3615C62.4087 15.4266 62.8487 15.2648 63.1232 15.0103C63.3823 14.7701 63.4002 14.1677 63.3807 13.5007C63.368 13.0633 63.1657 12.7901 62.9111 12.5939C62.6177 12.4755 62.3019 12.3965 61.9884 12.3376C61.8305 12.3175 61.6749 12.3175 61.5147 12.3175"
        stroke="#121212" stroke-linecap="round" />
    <path
        d="M38.6528 8.19287C39.1984 8.19287 40.6114 8.27065 41.5754 8.40853C42.9984 8.61206 44.0312 8.66425 45.169 8.7815C46.1543 8.88304 47.3285 8.97771 48.1758 9.03722C48.9462 9.09133 50.9723 9.36895 52.572 9.56693C55.2733 9.90124 57.6092 10.3494 59.0169 10.5886C60.4493 10.8632 62.0967 11.1767 63.2381 11.3546C63.6299 11.3747 64.2132 11.3747 64.8142 11.3747"
        stroke="#121212" stroke-width="2" stroke-linecap="round" />
    <path
        d="M27.4578 3.479C27.9645 3.479 29.2207 3.55678 30.5358 3.83136C31.9304 4.1225 33.185 4.18607 34.3481 4.28388C35.5428 4.38435 37.7408 4.5396 38.8062 4.63741C40.4133 4.78497 41.9832 4.89313 43.1081 4.99094C44.3803 5.10157 47.0458 5.24667 49.3656 5.34447C51.8188 5.44791 53.6557 5.4034 54.6904 5.46232C58.2075 5.66262 60.242 5.6002 61.8441 5.69801C63.2411 5.75693 65.0359 5.83589 66.2261 5.95314C66.384 5.99262 66.5396 6.03151 66.9356 6.07158"
        stroke="#121212" stroke-width="2" stroke-linecap="round" />
    <path
        d="M66.3463 6.66064C66.3463 9.11769 66.2685 12.9818 66.209 13.6111C66.1412 14.3282 65.9928 15.6474 65.895 17.3945C65.6716 21.383 65.7571 22.3292 65.6593 24.633C65.5849 26.3839 65.6392 29.7298 65.5809 31.7638C65.5226 33.7978 65.4059 34.42 65.3069 35.9266C65.0524 39.8011 65.0111 42.4051 64.9522 42.7964C64.7996 43.8095 64.8143 46.6239 64.7165 49.0168C64.6965 49.8163 64.6965 51.2552 64.7159 52.0742C64.7354 52.8932 64.7743 53.0488 65.05 53.5626"
        stroke="#121212" stroke-width="2" stroke-linecap="round" />
    <path
        d="M36.5317 56.3912C37.4321 56.4301 39.3859 56.509 41.7027 56.6457C45.512 56.8705 48.2749 56.8237 48.764 56.7647C50.1505 56.5977 51.102 56.5491 53.0611 56.4896C54.3355 56.4509 55.342 56.1555 56.1498 56.0382C57.0851 55.9025 58.0901 55.5286 59.2904 55.4095C61.2342 55.2127 62.884 55.135 63.9641 54.9971C64.4525 54.9771 65.2692 54.9771 66.1106 54.9771"
        stroke="#121212" stroke-width="2" stroke-linecap="round" />
    <path
        d="M67.5247 7.60352C67.7993 9.80131 68.4227 12.0627 68.8988 14.881C69.0981 16.0605 69.0555 17.3775 69.2517 18.7687C69.597 21.2169 69.6848 23.0317 69.8993 25.4375C70.2092 28.9135 70.7065 31.2089 70.7454 31.7963C70.8321 33.1063 71.0978 34.2693 71.3735 35.8413C71.524 36.6991 71.5314 37.5713 71.9227 40.2941C72.1453 41.8435 72.2762 42.5608 72.4736 43.5224C72.67 44.4792 72.7877 45.5045 73.0233 47.033C73.344 49.1123 72.8301 50.7321 72.3793 51.1634C71.6105 51.899 70.0867 52.1462 69.0791 52.5793C68.4298 52.8156 67.4917 53.2068 66.526 53.6788C66.3475 53.7972 66.2308 53.9139 66.1106 54.0341"
        stroke="#121212" stroke-width="2" stroke-linecap="round" />
    <path
        d="M51.5 55.5C45.6545 55.8801 36.5 55.5 36.5 55.5L34 9C34 9 43.8492 9.31658 50 10C56.1508 10.6834 65.5 12.5 65.5 12.5L64 54C64 54 56.4062 55.181 51.5 55.5Z"
        fill="#F8F8F6" />
    <path
        d="M50.7908 43.7818C51.1031 43.8596 52.1978 44.1731 53.0469 44.4683C53.8551 44.7492 54.8328 44.4512 55.5022 44.3322C56.1603 44.2151 56.5628 43.4707 57.0736 42.822C57.669 42.0658 57.9392 41.3896 58.0965 40.7202C58.3753 39.5342 58.1372 37.6186 57.9993 36.9298C57.9793 36.558 57.9015 36.2021 57.7642 35.8886C57.7047 35.7307 57.6658 35.5752 57.39 35.1792"
        stroke="#121212" stroke-width="4" stroke-linecap="round" />
    <path
        d="M71.4166 51.0247C70.8333 51.5494 66.5649 54.6299 65.5 52.5C64.9999 51.5 67.5 12 67.5 12C67.5 12 71.9999 46.4383 71.9999 48C72 49.5617 72 50.5 71.4166 51.0247Z"
        fill="#F8F8F6" />
    <path
        d="M68.4675 28.1084C68.4675 28.1473 68.4675 28.1862 68.5064 31.6479C68.5453 35.1095 68.6231 41.9928 68.6437 45.6359C68.6643 49.2791 68.6255 49.4735 68.5854 50.0274"
        stroke="#121212" stroke-linecap="round" />
    <path
        d="M67.4068 39.4214C67.2901 40.8992 67.1735 42.3769 67.055 43.391C66.9366 44.405 66.8199 44.9106 66.7404 45.7543C66.6608 46.5981 66.622 47.7647 66.8176 48.6132"
        stroke="#121212" stroke-linecap="round" />
    <path
        d="M70.1172 40.4819C70.2727 41.9597 70.4283 43.4375 70.5084 44.7821C70.5886 46.1267 70.5886 47.2933 70.7064 48.6132"
        stroke="#121212" stroke-linecap="round" />
    <path
        d="M67.1713 21.627C67.0935 24.2714 67.0145 25.7892 66.9167 26.336C66.78 27.3495 66.6999 28.6127 66.6804 29.6722C66.661 30.1094 66.6221 30.3427 66.582 30.9366"
        stroke="#121212" stroke-linecap="round" />
    <path
        d="M65.5303 10.708C65.5303 10.708 34.0303 7.70801 31.0303 5.20796C29.8156 4.1957 65.5303 7.20801 65.5303 7.20801V10.708Z"
        fill="#F8F8F6" />
    <path
        d="M38.0807 61.8043C28.4444 60.4085 5.70092 46.0999 8.40409 44.459C11.1073 42.818 25.3444 6.24541 25.3444 6.24541C40.7471 6.32852 47.9554 13.1989 62.532 18.2913C54.1174 37.6419 47.6728 45.0018 38.0807 61.8043Z"
        fill="#F8F8F6" />
    <path
        d="M26.0422 22.1138C26.3175 22.091 26.9635 22.1047 27.7627 22.1644C28.6518 22.0829 29.5268 22.0457 30.4298 21.9404C30.7778 21.8817 31.3087 21.7609 31.8557 21.6364"
        stroke="#FB3748" stroke-width="4" stroke-linecap="round" />
    <path
        d="M19.9788 38.4805C20.2801 38.5726 20.9435 38.6621 21.6312 38.8482C22.3158 39.1957 22.7566 39.5389 23.038 39.716C23.1797 39.8052 23.3194 39.893 23.6043 40.0723"
        stroke="#FB3748" stroke-width="4" stroke-linecap="round" />
    <path
        d="M24.0617 4.91906C23.9723 5.57754 23.7992 7.46125 23.5052 10.1436C23.2019 12.911 22.6203 13.6227 22.2931 14.484C21.9926 15.2749 20.8275 17.7243 19.9969 19.438C19.6507 20.1524 19.1333 20.9429 17.8943 23.0149C17.2908 24.0241 16.9021 24.9558 16.3478 25.9691C15.8203 26.9334 15.1298 28.139 14.0993 29.9593C12.7177 32.3998 11.8627 34.3226 11.4678 35.3142C10.2109 38.4701 9.49811 39.4911 8.57858 41.4722C8.11869 42.463 7.75055 43.1545 7.4154 43.8961C7.32033 44.0997 7.21182 44.3238 7.11199 44.5091C7.01216 44.6944 6.9243 44.834 6.68245 45.3749"
        stroke="#121212" stroke-width="2" stroke-linecap="round" />
    <path
        d="M6.56738 45.4009C7.75279 46.0157 8.48712 46.4117 9.78647 47.2617C11.002 48.0568 12.0833 48.936 13.0813 49.434C14.3774 50.0807 16.0001 51.1384 17.1143 51.9211C17.8978 52.4714 19.0579 53.0286 20.2258 53.8293C20.6899 54.1475 22.0854 55.3911 24.1737 57.0495C25.9359 58.4489 27.5045 59.0003 28.3873 59.3263C29.2987 59.6628 30.3423 59.9665 31.7072 60.3822C33.2743 60.8594 34.2298 60.9355 35.1522 61.1703C35.8988 61.5248 36.6142 61.843 37.2937 61.9929C37.4608 62.0153 37.6297 62.0566 37.9449 62.1879"
        stroke="#121212" stroke-width="2" stroke-linecap="round" />
    <path
        d="M22.3971 39.0177C22.4588 38.7631 22.8887 38.183 23.3525 37.4731C23.8329 36.738 24.1397 35.8847 24.4401 35.1709C24.7909 34.3375 25.3059 33.4051 25.8384 32.5563C26.2829 31.8478 26.6735 30.9183 27.2251 29.8053C28.1088 28.0219 28.7617 27.1797 29.2315 26.2249C30.1231 25.0158 31.0451 23.7569 31.4569 23.0787C31.5417 22.9174 31.6296 22.7778 31.6416 22.2892"
        stroke="#FB3748" stroke-width="4" stroke-linecap="round" />
    <path
        d="M35.7952 24.6068C36.1376 24.5288 36.996 24.4132 37.8342 24.464C38.7696 24.5208 39.5637 24.7133 40.3659 25.0546C40.8504 25.2607 41.3452 25.6372 41.8046 25.975C42.6445 26.5925 42.465 28.2418 42.3413 28.9353C42.2053 29.6975 41.8127 30.3241 41.3139 30.9627C40.6863 31.7664 39.7833 32.1977 39.1669 32.6806C38.4399 33.2503 37.8528 33.8046 36.9235 34.5003C36.2737 34.9866 35.6842 35.4272 35.1805 35.9648C34.5245 36.6651 33.4374 37.227 32.723 37.7335C32.1037 38.1725 31.4439 38.5679 30.7462 38.8688C29.6997 39.32 28.9147 39.6682 28.4236 40.0012C27.9587 40.3165 29.6066 40.7967 30.3889 41.3051C31.3092 41.9031 32.5951 42.7752 33.3296 43.0739C33.6261 43.227 33.8804 43.4519 34.1174 43.6995C34.2441 43.8127 34.3838 43.9005 34.6949 44.1947"
        stroke="#FB3748" stroke-width="4" stroke-linecap="round" />
    <path
        d="M24.7874 4.39111C25.1525 4.58837 26.1316 5.00845 27.7121 5.33332C31.5445 6.12109 32.7493 5.75959 33.8924 6.00274C34.666 6.16731 36.1883 6.38348 37.9327 6.85476C38.8129 7.09257 39.5495 7.31276 40.3198 7.42082C41.0603 7.5247 41.8943 8.06732 42.7198 8.40453C43.5062 8.72575 44.6411 9.33467 45.6 9.82278C46.6786 10.3718 47.8461 11.0222 48.9943 11.7283C49.8145 12.2327 50.7477 12.6193 51.6266 13.0235C52.6267 13.4836 53.8525 14.0469 54.9169 14.6506C55.9165 15.2175 56.936 15.5615 57.656 15.8816C58.4631 16.2404 59.2228 16.571 60.0036 16.818C60.4334 16.9408 60.833 17.0927 61.1719 17.2567C61.3332 17.3414 61.4728 17.4293 61.8988 17.6973"
        stroke="#121212" stroke-width="2" stroke-linecap="round" />
    <path
        d="M38.06 62.1621C38.3894 61.8466 39.1066 61.1213 40.0996 59.7284C40.8678 58.6507 41.202 57.7437 41.9688 56.5225C42.4445 55.7649 42.7342 55.0986 43.1647 54.3352C43.6902 53.4036 44.6418 52.1698 46.0526 49.8756C46.8732 48.5413 47.247 47.6657 47.6217 47.0154C48.195 46.0203 48.8704 45.6017 49.3645 45.0275C50.1682 44.0937 50.6227 43.3923 51.2717 42.6995C52.2136 41.694 54.0282 38.7616 55.0225 37.0529C55.748 35.8061 56.4259 34.0147 56.9557 32.8064C57.4927 31.5819 58.5226 29.7932 59.0175 28.8508C59.4843 27.9621 59.9178 27.056 60.2267 26.1989C60.5483 25.3064 61.2136 24.264 61.5571 23.4583C61.918 22.6116 62.3427 21.4303 62.8583 19.8009C62.9512 19.3145 63.0425 19.0097 63.1584 18.7222C63.1864 18.5745 63.1518 18.4228 63.1788 18.0106"
        stroke="#121212" stroke-width="2" stroke-linecap="round" />
    <path
        d="M37.1171 9.58922C37.0393 9.51144 36.8437 9.3936 36.5302 9.27576C35.9007 9.03909 35.3117 9.70589 35.076 9.97988C34.9609 10.1137 34.9959 10.3316 35.0542 10.4901C35.2812 11.1068 36.0141 11.3946 36.7795 11.6704C37.4596 11.9154 38.0587 11.5938 38.2743 11.3392C38.4958 11.0778 38.5312 10.4966 38.4535 9.86851C37.9043 9.3936 37.4329 9.1968 37.1195 9.11844C36.9616 9.07896 36.806 9.04007 36.6457 9"
        stroke="#121212" stroke-linecap="round" />
    <path
        d="M45.715 9.47137C45.4817 9.47137 45.2059 9.3936 44.8924 9.31464C44.5795 9.23582 44.302 9.58804 44.1058 9.84258C44.0086 9.96865 43.9874 10.136 44.0062 10.2939C44.0844 10.9486 44.8476 11.3545 45.4769 11.6703C45.6225 11.7434 45.7904 11.7104 45.9289 11.6326C46.5286 11.2958 46.4221 10.4177 46.3443 9.82903C46.2665 9.5904 46.1109 9.47373 45.953 9.3553C45.7951 9.23687 45.6396 9.1202 45.4793 9"
        stroke="#121212" stroke-linecap="round" />
    <path
        d="M55.0715 12.2357C54.6024 12.1968 53.7398 12.1178 53.1288 12.3912C52.988 12.4543 52.9903 12.6646 53.0092 12.842C53.09 13.6025 53.8907 14.0788 54.3821 14.5714C54.624 14.8139 55.0302 14.8283 55.3443 14.7505C55.5028 14.5172 55.5428 13.8513 55.4262 12.9687C55.3095 12.5916 55.0762 12.3583 54.4822 12"
        stroke="#121212" stroke-linecap="round" />
    <path
        d="M61.843 13.1178C61.7653 13.0401 61.5696 13.0389 61.3145 13.1756C60.7774 13.4633 61.0181 14.605 61.3699 15.3351C61.449 15.4992 61.605 15.5902 61.879 15.6503C62.153 15.7104 62.5807 15.7104 62.8594 15.5743C63.3702 15.3249 63.375 14.4188 63.2972 13.6535C63.266 13.3463 63.0639 13.2381 62.8866 13.1585C62.7092 13.079 62.5148 13.0401 62.3174 13.02C62.12 13 61.9255 13 61.7252 13"
        stroke="#121212" stroke-linecap="round" />
    <path
        d="M29.6968 10.7856C29.6968 10.0832 29.7746 8.82463 29.9124 7.94257C30.2073 6.05608 30.1281 5.32938 30.1876 4.4644C30.2377 3.7363 30.6772 3.05027 31.148 2.40154C31.728 1.60229 32.4826 1.32032 33.1702 1.04457C33.3744 0.962708 33.6587 1.0045 33.8378 1.08228C34.0947 1.31561 34.2915 1.59254 34.5072 1.84708C34.6062 1.98496 34.6839 2.14051 34.8819 2.30078"
        stroke="#121212" stroke-width="2" stroke-linecap="round" />
    <path
        d="M29.9323 11.1392C30.0101 11.1392 30.3224 11.2947 30.7737 11.6276C31.1374 11.8959 31.1108 12.5109 31.033 13.0795C30.9641 13.5834 30.4839 13.8484 30.1509 14.0446C29.8148 14.2427 29.3066 14.2031 28.8552 14.1253C28.1349 14.0012 28.4004 12.6358 28.4587 11.9882C28.4825 11.7241 28.6337 11.6129 28.791 11.5333C28.9483 11.4538 29.1428 11.4149 29.3207 11.3754C29.4987 11.336 29.6542 11.2971 29.9323 11.257"
        stroke="#121212" stroke-linecap="round" />
    <path
        d="M53.8547 12.553C53.6603 11.9285 53.1099 10.5167 52.7364 9.7077C52.4099 9.00057 52.3628 8.23524 52.3033 7.4887C52.1695 5.8101 52.3216 3.48023 52.5761 3.24513C53.1252 2.73797 53.8123 2.57637 54.5199 2.59463C54.7951 2.76963 54.9931 3.04539 55.1498 3.35885C55.2288 3.51676 55.3066 3.67232 55.5045 3.83258"
        stroke="#121212" stroke-width="2" stroke-linecap="round" />
    <path
        d="M61.8682 13.6136C61.5936 13.3402 61.1258 12.2466 60.7887 11.1619C60.5297 10.3283 60.4163 9.22038 60.0428 7.29775C59.8037 6.06723 60.0604 5.20896 60.2366 4.87605C60.6322 4.12849 61.3544 3.71706 61.9837 3.63574C62.2971 3.75241 62.5741 3.9881 62.7703 4.30156C62.8498 4.45947 62.8887 4.61503 63.0466 5.01098"
        stroke="#121212" stroke-width="2" stroke-linecap="round" />
    <path
        d="M44.6629 10.4318C44.5451 10.0429 44.6228 8.94223 44.6823 7.11977C44.7168 6.06549 44.9764 5.05573 45.0553 3.915C45.0837 3.50545 45.291 3.16669 45.4277 2.7943C45.572 2.40113 45.9969 2.26165 46.3104 2.22217C46.6238 2.26047 46.9008 2.45609 47.1359 2.76955C47.2543 2.92746 47.371 3.08302 47.7268 3.36113"
        stroke="#121212" stroke-width="2" stroke-linecap="round" />
    <path
        d="M37.4744 8.07488C37.4744 7.52808 37.5521 6.58532 37.7289 5.85823C37.911 5.10928 38.2969 4.11295 38.6711 3.16785C38.8234 2.78309 39.1619 2.57627 39.5726 2.45842C39.8277 2.41835 40.1777 2.41835 40.4358 2.45724C40.6939 2.49613 40.8494 2.57391 41.2454 2.88973"
        stroke="#121212" stroke-width="2" stroke-linecap="round" />
</svg>