<svg width="53" height="67" viewBox="0 0 53 67" fill="none" xmlns="http://www.w3.org/2000/svg">
    <path
        d="M1.00024 62.5871C1.30107 62.6727 4.13044 62.8465 6.09621 62.7389C7.65384 62.6536 8.68698 62.5871 9.81315 62.4795C11.2803 62.3393 15.2275 62.3278 17.7664 62.1774C19.5094 62.0741 20.7046 61.8532 21.7433 61.7877C22.7006 61.7274 23.6429 61.5939 28.8128 61.4422C33.0732 61.3172 41.2908 61.4201 45.6301 61.4415C50.1834 61.5057 50.575 61.5926 50.9413 61.6574C51.1365 61.6795 51.3504 61.6795 51.5709 61.6795"
        stroke="#121212" stroke-width="2" stroke-linecap="round" />
    <path
        d="M13.0594 62.3279C13.0594 62.1568 13.0594 58.9877 13.0807 54.1912C13.0951 50.9685 13.2746 48.6298 13.3615 47.335C13.4412 46.1476 13.6208 45.5164 13.6857 43.6304C13.7431 41.9592 13.7077 38.8346 13.6863 37.1399C13.654 34.582 13.4924 32.8569 13.427 31.6873C13.3184 29.7475 13.2331 27.4083 13.1676 25.9404C13.0594 24.2547 13.0166 22.6533 12.9517 19.1815C12.9297 16.0947 12.9297 10.318 12.9297 4.36621"
        stroke="#121212" stroke-width="2" stroke-linecap="round" />
    <path
        d="M12.9297 4.36594C14.3431 4.36594 17.2917 4.19478 18.285 3.97759C19.5779 3.69486 20.5334 3.37269 21.29 3.24302C22.5295 3.03059 23.4717 2.37943 24.3159 2.16223C25.0681 1.96867 26.021 1.73109 27.1452 1.60012C28.7627 1.4117 30.1263 1.12424 31.9151 1.01661C32.8817 0.994571 34.5506 0.994571 35.4959 1.01597C36.4411 1.03736 36.6123 1.08015 37.1777 1.25391"
        stroke="#121212" stroke-width="2" stroke-linecap="round" />
    <path
        d="M33.6766 2.16162C33.6766 2.76069 33.7194 3.24046 33.7843 8.24955C33.8469 13.0871 33.8063 22.587 33.8277 27.609C33.8491 32.6311 33.8919 32.8878 33.9139 37.3847C33.936 41.8816 33.936 50.6109 33.9574 55.1934C33.9796 59.9474 34.0656 61.2787 34.0442 63.1148C33.9801 63.9667 33.8932 64.3142 33.8283 64.7019C33.8063 64.9185 33.8063 65.1752 33.8063 65.4397"
        stroke="#121212" stroke-width="2" stroke-linecap="round" />
    <path
        d="M37.5668 1.38379C37.7379 2.75309 37.8689 3.62964 37.9337 5.70758C37.9932 7.61355 37.9558 11.2515 37.9771 13.2108C37.9985 15.1701 38.0413 15.3413 38.0634 17.8899C38.0854 20.4385 38.0854 25.3595 38.064 27.9801C38.0412 30.7725 37.9558 32.5742 37.9344 35.1235C37.9252 36.2197 37.8261 38.7905 37.8475 42.5496C37.8552 43.9125 37.9117 44.1691 37.9337 46.3981C37.9558 48.6271 37.9558 52.8206 37.9771 55.0879C37.9985 57.3551 38.0413 57.5691 38.0634 58.8132C38.1256 62.3248 37.8715 64.7903 37.4617 65.049C36.755 65.4952 36.0574 65.7408 35.3222 65.9366C34.4436 66.1705 33.4666 65.5722 32.5992 65.3971C31.4781 65.1709 30.352 65.0094 29.4229 64.7922C28.4669 64.5687 27.4137 64.4908 26.2253 64.3598C25.305 64.2584 24.1331 64.0136 22.8967 63.7555C21.8269 63.5323 20.9744 63.3237 19.8495 63.1928C18.91 63.0834 18.1632 62.8466 17.4494 62.6099C16.6757 62.3534 15.8732 62.372 15.1367 62.2203C14.4443 62.1554 13.9256 62.0258 13.5807 61.9395C13.407 61.8961 13.2358 61.8533 13.0594 61.8092"
        stroke="#121212" stroke-width="2" stroke-linecap="round" />
    <path d="M38.2151 3.84717H43.0128" stroke="#121212" stroke-width="2" stroke-linecap="round" />
    <path
        d="M42.7534 3.71777C42.7534 5.47348 42.839 9.11716 42.9044 10.3477C42.9497 11.1989 43.0983 12.0554 43.1638 14.9445C43.1777 15.5593 43.228 15.7302 43.25 17.9152C43.272 20.1001 43.272 24.2935 43.2507 26.5394C43.2243 29.3059 43.0568 30.0793 42.9913 30.88C42.9006 31.9895 42.7534 32.8465 42.6457 33.946C42.5224 35.2058 42.5809 36.2191 42.5161 38.2549C42.4581 40.076 42.494 43.5 42.4726 45.3705C42.4379 48.4045 42.2788 50.3076 42.2133 52.1417C42.1127 54.9604 42.1906 59.2988 42.3637 60.1202C42.4072 60.3374 42.45 60.5514 42.4934 60.7686C42.5368 60.9858 42.5796 61.1997 42.6237 61.6795"
        stroke="#121212" stroke-width="2" stroke-linecap="round" />
    <path
        d="M18.7571 60.3532C19.0283 60.3532 19.4734 60.4023 19.8703 60.5015C20.2671 60.6007 20.6624 60.6504 21.1209 60.7861C21.5347 60.9085 21.9257 61.022 22.3225 61.1576C22.7195 61.2933 23.1146 61.3935 23.5114 61.4797C23.93 61.5707 24.3036 61.7398 24.7004 61.839C25.0972 61.9382 26.3263 61.988 27.2633 61.8647C27.9172 61.7786 28.3163 61.716 29.4532 61.6785C30.0292 61.6595 30.4713 61.5674 31.6825 61.6035C31.9179 61.6105 31.9099 61.7874 31.9099 61.6176C31.9099 61.4478 31.9099 60.9819 31.8609 60.7418C31.8118 60.5018 31.7137 60.5018 31.6141 60.5263C31.0492 60.6655 30.3999 60.675 29.0742 60.7121C27.8471 60.7465 25.4925 60.7248 24.2307 60.7493C22.969 60.7738 22.8709 60.8228 22.8081 60.8972C22.7453 60.9715 22.7208 61.0696 22.7204 61.1691C22.72 61.2687 22.7446 61.3668 22.8062 61.4296C23.0821 61.7104 23.5605 61.7398 24.1423 61.7774C24.6048 61.8072 24.9486 61.8639 24.9133 61.9011C24.2394 62.6104 23.5397 61.7904 23.1429 61.6912C22.6808 61.5756 22.1278 61.5184 21.657 61.4433C21.1688 61.3655 20.7902 61.1959 20.3934 61.0967C19.9966 60.9975 19.6013 60.8986 19.2044 60.75C18.8264 60.6084 18.2652 60.5761 17.7926 60.4899C17.693 60.4528 17.5949 60.4037 17.4953 60.3785C17.3957 60.3532 17.2977 60.3532 17.048 60.2046"
        stroke="#F8F8F6" stroke-width="2" stroke-linecap="round" />
    <path
        d="M31.9099 58.1235C31.9099 58.3695 31.959 58.9142 32.0087 59.5577C32.1328 60.1522 32.1083 60.7482 32.0712 61.0807C32.0585 61.3151 32.0585 61.683 32.0585 62.0619"
        stroke="#F8F8F6" stroke-width="2" stroke-linecap="round" />
    <path
        d="M36.0712 58.7925C36.0712 58.9894 36.1693 59.4345 36.2076 60.8182C36.2243 61.4231 36.0712 61.8615 36.0712 62.0736C36.0712 62.8524 35.9479 60.8999 35.9226 59.6634C35.9471 60.0297 35.9969 60.4749 36.0586 60.9698C36.0712 61.1674 36.0712 61.4617 36.0712 61.7649"
        stroke="#F8F8F6" stroke-width="2" stroke-linecap="round" />
    <path d="M14.3075 60.5776V5.57764L32.3075 2.07764V64.5776L14.3075 60.5776Z" fill="#F8F8F6" stroke="#F8F8F6" />
    <path d="M35.3075 64.5776V2.07764H36.8075V63.5776L35.3075 64.5776Z" fill="#F8F8F6" stroke="#F8F8F6" />
    <path
        d="M41.8075 60.5776H38.8075V4.57764H41.8075C41.8075 4.57764 43.3075 28.0776 41.8075 32.5776C40.3075 37.0776 41.8075 60.5776 41.8075 60.5776Z"
        fill="#777777" />
    <path
        d="M29.0085 34.0603C29.0085 33.9747 29.1797 33.8879 29.5032 33.8872C29.6613 33.8869 29.784 34.0577 29.7859 34.188C29.7879 34.3184 29.6595 34.4467 29.5292 34.4487C29.3989 34.4506 29.2705 34.3222 29.183 34.3417C29.0954 34.3611 29.0526 34.5323 29.1382 34.8383"
        stroke="#121212" stroke-linecap="round" />
    <path
        d="M29.2387 34.6709C29.0499 34.9499 28.9681 35.0648 28.8653 35.1881C28.7216 35.3604 28.5574 35.5985 28.4547 35.7503C28.4139 35.8107 28.409 35.8453 28.5675 35.862C29.4145 35.9516 29.5991 35.8541 29.7717 35.8175C29.8393 35.8032 29.8303 35.7077 29.8181 35.6496C29.7753 35.446 29.6662 35.296 29.5923 35.1194C29.5429 34.9588 29.5018 34.8602 29.4813 34.7946C29.469 34.7616 29.4527 34.7291 29.4359 34.6955"
        stroke="#121212" stroke-linecap="round" />
    <path
        d="M16.5351 18.6707C16.3336 18.8079 16.0534 19.4766 16.004 20.1278C15.9793 20.4532 16.3043 20.7276 16.5951 20.9412C17.1138 21.3219 17.7218 21.295 18.1106 21.2287C18.8213 21.1076 18.6228 20.0579 18.6 19.5956C18.2013 19.0259 17.7247 18.7208 17.3652 18.6555C17.1921 18.6421 17.038 18.6688 16.756 18.8023"
        stroke="#121212" stroke-linecap="round" />
    <path
        d="M21.5716 19.1593C21.37 19.2965 21.1571 20.0843 21.172 20.9109C21.178 21.2494 21.3634 21.4082 21.5652 21.5396C21.9958 21.8199 22.6339 21.8897 23.2123 21.8565C23.4567 21.8424 23.5748 21.6551 23.6636 21.5072C23.7524 21.3593 23.8014 21.2107 23.8435 20.9072C23.8856 20.6036 23.9193 20.1496 23.7331 19.5501"
        stroke="#121212" stroke-linecap="round" />
    <path
        d="M26.3875 19.5162C26.3818 19.5919 26.3453 20.085 26.3644 20.8542C26.3771 21.3693 26.8067 21.6214 27.0402 21.8307C27.1686 21.918 27.3172 21.967 27.4547 21.9398C27.5922 21.9125 27.7141 21.8074 27.8482 21.5844"
        stroke="#121212" stroke-linecap="round" />
    <path d="M25.7546 20.2762L27.7039 20.4207" stroke="#121212" stroke-linecap="round" />
</svg>