<svg width="715" height="41" viewBox="0 0 715 41" fill="none" xmlns="http://www.w3.org/2000/svg">
    <path d="M1.5 40.5V33.5L711 30L712.5 40.5H1.5Z" fill="#F8F8F6" />
    <path d="M38 3.5L4 33.5L709.5 28.5L676 3.5H38Z" fill="#F8F8F6" />
    <path
        d="M37.7175 4.74854C35.9892 5.3214 31.0428 8.7759 27.2995 12.6441C24.6545 15.3774 21.8354 17.849 17.1274 21.804C12.6503 24.7985 8.18814 27.8827 4.82847 30.2002C3.9569 30.7817 2.97359 31.3546 1.21552 32.5234"
        stroke="#121212" stroke-width="2" stroke-linecap="round" />
    <path d="M1 32.6597V39.0208" stroke="#121212" stroke-width="2" stroke-linecap="round" />
    <path
        d="M5.38882 31.7119C6.00155 31.7119 6.61428 31.7119 26.5373 31.7912C46.4604 31.8705 85.6752 32.0292 188.902 31.7143C292.129 31.3994 458.179 30.6062 544.639 30.2768C631.099 29.9475 632.937 30.1062 646.241 30.1879C659.545 30.2696 684.258 30.2696 709.721 30.2696"
        stroke="#121212" stroke-width="2" stroke-linecap="round" />
    <path
        d="M2.91315 39.8847C3.32163 39.8847 3.73011 39.8847 63.0691 39.8053C122.408 39.726 240.665 39.5674 303.424 39.327C366.182 39.0866 369.859 38.7693 411.784 38.3679C453.71 37.9665 533.774 37.4905 575.938 37.3246C618.102 37.1588 619.94 37.3174 623.236 37.3992C631.226 37.5973 637.907 37.6395 644.062 37.8799C663.675 38.6458 671.1 38.4424 678.951 38.8414C683.268 38.9232 686.808 39.0818 692.239 39.3222C696.445 39.4039 703.593 39.4039 710.958 39.4039"
        stroke="#121212" stroke-width="2" stroke-linecap="round" />
    <path
        d="M712.196 30.7505C712.196 31.0678 712.4 32.0245 712.812 33.5437C713.019 34.2696 713.223 34.9042 713.329 35.7071C713.434 36.51 713.434 37.4619 713.434 38.4426"
        stroke="#121212" stroke-width="2" stroke-linecap="round" />
    <path
        d="M674.531 3.82422C674.977 4.31077 676.594 5.56491 678.304 6.75613C679.971 7.91719 681.454 8.85334 682.94 9.90195C684.522 11.0183 685.774 11.9992 687.664 13.4305C689.287 14.6599 690.455 15.5644 692.433 17.1006C693.698 18.0832 694.775 18.92 695.901 19.9686C697.146 21.1281 698.555 21.8561 700.039 22.8344C702.202 24.2607 703.323 25.0732 704.675 25.9802C706.747 27.5206 708.183 28.3574 709.356 29.1974C709.628 29.4081 709.895 29.6158 710.44 30.2491"
        stroke="#121212" stroke-width="2" stroke-linecap="round" />
    <path
        d="M37.2572 5.13617C37.4669 5.13617 37.6767 5.13617 112.135 4.3216C186.594 3.50703 335.294 1.87789 414.624 1.28302C493.954 0.688136 499.407 1.17688 506.201 1.42866C529.995 2.3104 536.333 2.17411 544.815 2.58386C559.639 3.30003 568.111 3.16145 574.701 3.5712C581.899 4.01867 596.635 4.14883 609.107 4.55857C625.972 5.11261 633.56 5.13617 642.576 5.54591C663.902 5.46693 667.715 5.13617 670.146 5.05471C671.319 4.97326 672.367 4.81035 675.354 4.14883"
        stroke="#121212" stroke-width="2" stroke-linecap="round" />
</svg>