<svg width="51" height="69" viewBox="0 0 51 69" fill="none" xmlns="http://www.w3.org/2000/svg">
    <path
        d="M27.7969 23.9493C27.759 24.1996 27.6819 24.7735 27.7578 25.2585C27.8663 25.9518 28.9056 26.0336 29.5387 26.1965C29.8891 26.2866 30.2489 26.108 30.5358 25.8928C30.9401 25.4251 31.0551 24.9936 31.1126 24.6889C31.1321 24.5265 31.1321 24.3485 30.7871 23.9493"
        stroke="#121212" stroke-width="2" stroke-linecap="round" />
    <path
        d="M25.3816 19.9578C25.1528 20.1002 24.6939 20.6029 24.5576 21.1423C24.3984 21.7723 25.1102 22.5793 25.9153 23.3355C26.4512 23.8389 27.1804 23.9839 27.9089 24.1468C28.6946 24.3224 30.7709 24.273 32.2407 23.951C32.6442 23.8626 32.856 23.4833 33.0665 23.1963C33.6682 22.3759 33.2413 20.7885 33.0498 20.0862C32.8634 19.4025 31.9785 19.0969 31.2499 18.8795C30.5393 18.6675 28.618 18.6632 27.3201 18.7884C26.9573 18.9135 26.6099 18.9869 26.304 19.0225C26.1499 19.0581 25.9981 19.1293 25.6117 19.4184"
        stroke="#121212" stroke-width="2" stroke-linecap="round" />
    <path
        d="M25.4967 19.7422C25.8785 19.8857 26.4904 20.1003 27.2954 20.4601C27.9866 20.6764 28.6755 20.8922 29.7267 21.0184C30.2419 21.0367 31.0769 21.0367 32.0522 20.9289"
        stroke="#121212" stroke-width="2" stroke-linecap="round" />
    <path
        d="M16.0291 52.7803C16.1429 53.0662 16.6018 53.7836 17.0434 54.4858C17.3972 55.0485 17.7128 55.8678 18.2125 56.5539C18.711 57.2012 19.0952 57.8129 19.2671 58.136C19.3631 58.2811 19.477 58.3879 19.7093 58.8215"
        stroke="#121212" stroke-width="2" stroke-linecap="round" />
    <path
        d="M27.522 49.4634C27.5979 49.5346 27.637 49.7137 27.656 50.0362C27.7129 50.43 27.7899 50.9705 27.8474 52.4527C27.867 53.6146 27.867 55.6082 27.867 57.6622"
        stroke="#121212" stroke-width="2" stroke-linecap="round" />
    <path
        d="M40.4239 51.1221C40.2721 51.2645 39.9282 51.9074 39.3169 53.1087C38.5538 54.4167 37.4026 56.0392 36.2721 57.5129C35.8626 58.0609 35.7867 58.2033 35.4785 58.6736"
        stroke="#121212" stroke-width="2" stroke-linecap="round" />
    <path
        d="M46.8424 59.4146C46.5376 59.4858 45.8487 59.9151 43.4594 61.2253C42.8964 61.5344 42.6308 61.7124 42.437 61.8575C42.2432 62.0026 42.1293 62.1094 41.667 62.4352"
        stroke="#121212" stroke-width="2" stroke-linecap="round" />
    <path
        d="M8.95656 57.634C12.7293 62.5115 16.7399 64.6725 23.1016 65.5121C27.7674 66.1278 30.7564 65.7015 35.0364 63.8535C39.1525 62.0764 41.5758 60.4661 43.8771 56.8047C46.2845 52.9746 46.5454 50.0351 46.0872 45.6096C45.5126 40.0593 43.9963 36.3565 39.4568 32.756C35.7847 29.8435 32.7542 29.0048 27.9639 28.6096C22.2918 28.1417 18.5452 28.9481 13.8189 31.9267C9.31962 34.7623 7.70488 37.7954 6.30435 42.7073C4.61595 48.6288 5.11897 52.6727 8.95656 57.634Z"
        fill="#F8F8F6" />
    <path
        d="M26.8768 50.2505C27.1057 50.1081 27.4887 49.4629 27.8722 48.8502C28.1981 48.3295 28.2178 47.7002 28.4668 47.1241C28.7203 46.5376 28.7929 45.795 28.9654 45.1823C29.2153 44.2945 29.2529 42.9902 29.311 42.3596C29.3759 41.6547 29.4829 41.0116 29.4841 36.1376C29.4843 35.1122 29.3702 34.9704 29.2552 34.8614C29.1402 34.7525 28.9884 34.6813 28.8153 34.6802C28.6422 34.6791 28.4524 34.7503 28.3167 34.876C27.7824 35.3708 27.5301 35.9715 27.204 36.5654C26.8229 37.2596 26.5341 38.1269 26.2069 38.8131C25.7015 39.8729 25.2299 41.9373 24.9418 42.8936C24.7024 43.6882 24.5399 44.7076 24.4427 45.4115C24.3403 46.1533 24.2316 47.8642 24.3461 48.9537C24.377 49.2481 24.5755 49.4942 24.8239 49.6738C24.9585 49.7467 25.1103 49.7823 25.2644 49.8184C25.4185 49.8545 25.5703 49.8901 26.0718 50.0347"
        stroke="#121212" stroke-width="2" stroke-linecap="round" />
    <path
        d="M5.48535 47.0356C5.75217 46.7843 6.36401 46.5696 6.90168 46.1742C7.24498 45.959 7.63026 45.7778 7.99368 45.6343C8.16734 45.562 8.31915 45.4908 8.59058 45.3096"
        stroke="#121212" stroke-width="2" stroke-linecap="round" />
    <path
        d="M7.21045 50.272C7.2484 50.272 7.28635 50.272 7.47669 50.183C7.66703 50.094 8.00861 49.916 8.43126 49.6641C8.85392 49.4122 9.3473 49.0918 10.2007 48.6538"
        stroke="#121212" stroke-width="2" stroke-linecap="round" />
    <path
        d="M8.59058 52.1059C8.81829 52.1059 9.04601 52.1059 9.23922 52.1059C9.43243 52.1059 9.58425 52.1059 9.97067 51.8901"
        stroke="#121212" stroke-width="2" stroke-linecap="round" />
    <path
        d="M44.128 50.9194C43.1792 51.0974 42.2304 51.2754 41.6657 51.3849C41.101 51.4944 40.9492 51.53 40.4478 51.5667"
        stroke="#121212" stroke-width="2" stroke-linecap="round" />
    <path d="M42.1729 48.8695L41.1378 49.0853" stroke="#121212" stroke-width="2" stroke-linecap="round" />
    <path
        d="M42.978 44.986C42.8642 45.0572 42.7503 45.1284 42.6158 45.2184C42.4812 45.3085 42.3294 45.4153 42.173 45.5254"
        stroke="#121212" stroke-width="2" stroke-linecap="round" />
    <path
        d="M43.783 42.2889C43.6692 42.2889 43.5553 42.2889 43.4018 42.3245C43.2482 42.3601 43.0585 42.4313 42.6329 42.6126"
        stroke="#121212" stroke-width="2" stroke-linecap="round" />
    <path
        d="M16.9131 25.3052C16.9131 25.3052 7.63048 29.0369 4.97829 32.7686C2.3261 36.5003 3.0956 36.2151 2.3261 38.5735C1.45398 41.2464 1 45.6223 1 45.6223L3.21016 52.6711C3.21016 52.6711 4.97829 57.6467 6.30438 58.8906C7.63048 60.1345 10.2827 61.793 10.2827 61.793C9.84064 61.3784 6.80174 58.2925 5.42032 55.5735C4.78579 54.3246 4.09422 52.2564 4.09422 52.2564L3.65219 48.5247V44.793L4.53626 40.232L7.63048 35.2564L16.9131 27.793L24.8697 26.9638C24.8697 26.9638 31.9422 26.9638 34.1524 27.3784C36.3626 27.793 38.8668 29.9886 41.2249 32.354C43.6123 34.7487 44.6989 36.3938 46.0873 39.4028C47.6342 42.7554 47.6121 44.8762 47.4134 48.5247C47.1762 52.8789 46.6089 55.4995 43.8771 58.8906C41.3364 62.0445 38.8977 63.1115 35.0365 64.6954C31.7759 66.033 26.1958 66.7686 26.1958 66.7686H33.2683C33.2683 66.7686 40.637 64.5871 43.8771 61.3784C46.2184 59.0597 47.1542 57.3378 48.2974 54.3296C49.9245 50.048 49.8437 47.2226 49.1815 42.7198C48.6369 39.0166 48.2339 36.7476 46.0873 33.5979C43.6466 30.0168 41.291 28.4657 37.2466 26.5491C33.435 24.7428 30.9041 24.2388 26.6379 24.0613C22.8087 23.902 16.9131 25.3052 16.9131 25.3052Z"
        fill="#F8F8F6" />
    <path
        d="M10.4306 26.6464C10.2397 26.8244 10.0856 28.1826 10.238 29.1432C10.3625 29.928 11.3093 30.3121 11.9234 30.4939C12.0704 30.5374 12.2294 30.4588 12.3455 30.3693C12.8763 29.9601 12.8458 28.312 12.598 27.3136C12.3881 27.08 12.119 26.8988 11.813 26.7731C11.6589 26.7186 11.5071 26.683 11.1207 26.6464"
        stroke="#121212" stroke-width="2" stroke-linecap="round" />
    <path
        d="M1 44.8782C1 44.628 1.07591 44.054 1.13399 42.0993C1.1659 41.0254 1.42093 40.3861 1.66993 39.5236C1.8879 38.7686 2.03507 38.1207 2.26394 37.5268C2.55579 36.7695 3.06785 35.7861 3.52846 35.0277C4.01376 34.2287 4.56296 33.5897 5.02356 33.1032C5.51975 32.5791 6.13397 32.0794 6.63368 31.6107C7.13224 31.143 7.81999 30.4979 8.53074 29.7956C8.74235 29.4903 8.97237 29.2368 9.25931 29.0215C9.39445 28.9131 9.5083 28.8063 9.74063 28.6963"
        stroke="#121212" stroke-width="2" stroke-linecap="round" />
    <path
        d="M5.69906 40.4126C5.77318 40.1699 6.22019 39.2678 6.7082 38.5311C7.10194 37.9367 7.60614 37.4847 8.07449 36.9615C8.61076 36.3624 9.14035 35.7413 9.79515 35.0444C11.0956 33.6603 11.9482 33.0562 12.9023 32.2881C13.5559 31.7619 14.2304 31.137 15.6338 30.3349C16.4816 29.8503 17.5998 29.4271 18.3877 29.1294C19.3163 28.7785 20.6323 28.6235 21.3826 28.4665C21.9067 28.3568 23.0617 28.274 24.4645 28.2567C25.2391 28.2472 27.5048 28.1693 30.7602 28.2038C32.8517 28.226 33.5866 28.4832 34.3548 28.6915C35.1692 28.9122 35.7588 29.1446 36.6382 29.6322C37.406 30.058 38.0792 30.574 38.7171 31.0627C39.2395 31.4629 39.8021 31.8298 40.4018 32.3357C41.2548 33.0553 42.3112 34.0963 42.761 34.742C43.166 35.3233 43.5466 35.8753 43.9964 36.6251C44.4626 37.4021 44.7461 38.1774 45.0078 38.7535C45.2969 39.3899 45.4942 39.9564 45.7755 40.5152C46.0401 41.0408 46.168 41.6307 46.3376 42.1895C46.5028 42.7337 46.6555 43.3741 46.7122 43.9684C46.7391 44.2504 46.843 44.5618 46.8992 45.8248C47.1344 51.1153 46.7319 51.7456 46.5819 52.3399C46.4322 52.9333 46.2826 53.5601 46.0209 54.1189C45.759 54.6781 45.4605 55.2344 45.1039 55.9146C44.5935 56.888 43.9622 57.8505 43.5506 58.5307C43.097 59.2801 42.5785 59.9078 42.0534 60.5194C41.4655 61.2042 40.4108 61.963 39.2293 62.7342C38.0043 63.5338 37.1874 63.7817 36.5506 63.9742C35.7222 64.2247 35.0534 64.4451 34.2863 64.6194C33.1637 64.8744 32.1355 65.1421 31.3841 65.2477C30.5746 65.3616 29.9252 65.5271 29.2872 65.7181C28.66 65.9059 27.3105 66.1529 25.696 66.2769C25.2065 66.3145 23.794 66.3643 21.7369 66.3298C18.8355 66.2811 16.1847 64.9704 15.4546 64.7434C14.5395 64.4587 13.9384 63.9596 13.2645 63.4542C12.201 62.6565 11.6921 62.076 11.1856 61.5355C10.5183 60.8235 9.89511 60.0187 9.31388 59.2166C8.90008 58.6456 8.50915 58.0995 7.98521 57.4377C7.27513 56.5406 6.82444 56.1113 6.33756 55.484C5.76096 54.741 5.25204 54.0205 4.91398 53.2519C4.72167 52.8147 4.65116 52.2405 4.59501 50.9063C4.39582 46.1737 4.76235 45.3351 4.81907 44.4969C4.91285 43.2443 4.98698 41.637 5.23014 40.7648C5.28686 40.5539 5.32392 40.3812 5.36211 39.9941"
        stroke="#121212" stroke-width="2" stroke-linecap="round" />
    <path
        d="M32.9723 24.5966C33.2391 24.6322 33.9268 24.8468 34.637 25.1349C35.5012 25.4854 36.1511 25.602 36.7842 25.9078C37.5274 26.2669 38.1821 26.752 38.8354 27.1662C39.4271 27.5415 40.0614 27.7963 40.5801 28.1372C41.125 28.4953 41.7474 28.9096 42.553 29.5024C43.5472 30.2339 44.0107 30.8147 44.5478 31.3908C45.0247 31.9023 45.5427 32.612 45.986 33.207C46.4403 33.8166 47.001 34.5193 47.3466 35.2367C48.166 36.9376 48.5743 37.9348 49.0332 39.0659C49.3685 39.8926 49.4552 40.6318 49.6479 41.4225C49.8476 42.2424 49.9164 42.8261 49.9739 44.4313C50.0238 45.8223 49.9935 48.3862 49.9555 49.7778C49.9036 51.6801 49.6116 52.3907 49.419 53.0741C49.2073 53.825 48.9975 54.6195 48.653 55.4113C48.3276 56.1595 47.8865 57.3143 47.3121 58.3057C46.9659 58.9031 46.5846 59.5819 46.1804 60.2842C45.8136 60.9215 45.2045 61.5238 44.7048 62.047C44.189 62.5871 43.4035 62.9996 42.5593 63.5212C41.8565 63.9554 40.9515 64.402 40.2201 64.8163C39.2325 65.3756 37.729 65.8778 36.7716 66.2187C35.7441 66.5845 33.8302 67.2047 32.1339 67.5321C30.7301 67.8031 29.4898 67.8563 28.1298 67.9459C25.1252 68.1437 23.6612 67.7484 22.3794 67.5699C19.4572 67.1628 18.1799 66.6718 17.2386 66.4366C16.8293 66.3344 16.4893 66.2025 15.6331 65.8816C13.6431 65.1357 11.8165 64.156 10.7262 63.492C9.10986 62.5076 8.0224 61.6058 7.13626 60.8463C6.45111 60.2591 5.87175 59.2302 5.37204 58.3661C4.88094 57.5169 4.30074 56.3563 3.95284 55.435C3.63195 54.5853 3.14835 53.9787 2.82231 53.2057C2.50303 52.4488 2.15238 51.6787 1.90167 51.0292C1.65182 50.3821 1.42323 49.5211 1.2306 48.8716C1.15412 48.5847 1.11502 48.2956 1.09604 47.9908C1.07706 47.8284 1.03911 47.6504 1 47.1434"
        stroke="#121212" stroke-width="2" stroke-linecap="round" />
    <path
        d="M13.1909 27.1858C13.5336 27.1858 14.2996 26.9722 14.9137 26.6475C15.5274 26.323 16.2156 25.9646 17.3651 25.5153C18.2232 25.1799 19.0908 24.8858 19.954 24.6156C20.6924 24.3844 21.3151 24.2019 22.2536 24.1296C23.3082 23.9494 24.1914 23.9138 24.6497 23.8599C24.9183 23.8416 25.2599 23.8416 25.6118 23.8416"
        stroke="#121212" stroke-width="2" stroke-linecap="round" />
    <path
        d="M27.9639 23.2195C26.5263 22.8707 25.7538 21.1463 25.7538 21.1463L26.1958 20.7317C26.1958 20.7317 27.9897 21.7938 29.29 21.9756C30.6666 22.1681 32.8263 21.561 32.8263 21.561C32.8263 21.561 33.1069 22.7768 32.3843 23.2195C31.228 23.9278 28.9667 23.4628 27.9639 23.2195Z"
        fill="#F8F8F6" />
    <path d="M26.9918 21.468V22.6547" stroke="#121212" stroke-linecap="round" />
    <path
        d="M29.9821 21.6838C29.9821 21.7194 29.9821 21.755 29.9821 21.9514C29.9821 22.1477 29.9821 22.5037 30.001 22.7583C30.02 23.0129 30.058 23.1553 30.0971 23.4099"
        stroke="#121212" stroke-linecap="round" />
</svg>