<svg width="71" height="64" viewBox="0 0 71 64" fill="none" xmlns="http://www.w3.org/2000/svg">
    <path
        d="M3.12123 3.09497C3.12123 3.78603 3.12123 4.47708 3.08058 7.82087C3.03993 11.1647 2.95863 17.1402 2.89642 20.3202C2.83421 23.5002 2.79356 23.7034 2.77262 25.1089C2.75168 26.5144 2.75168 29.1161 2.77201 30.5782C2.79573 32.2852 2.87486 34.0397 2.83421 36.5218C2.81145 37.9115 2.58785 38.5691 2.52626 40.402C2.47289 41.9903 2.50532 44.9179 2.58662 46.4663C2.66792 48.0147 2.83052 48.096 3.82892 48.1379C6.6544 48.2564 9.55752 48.0578 11.3006 47.8731C13.1702 47.6749 14.2446 47.6871 15.6994 47.5645C16.8622 47.4665 17.7775 47.4 18.3503 47.3385C19.0818 47.2598 20.2769 47.2362 24.0081 47.0724C26.9652 46.9425 32.0888 46.9085 34.8697 46.8463C37.6505 46.7841 37.9351 46.7435 42.3093 46.7022C46.6835 46.6609 55.1388 46.6203 59.5961 46.6197C64.7107 46.619 65.5304 46.8642 66.2085 46.9683C67.0212 47.093 67.5851 47.3582 67.9128 47.3588C68.0826 47.3591 68.2405 47.1968 68.3445 47.0323C68.7737 46.3544 68.5718 45.6361 68.6334 40.3688C68.6926 35.305 68.6543 25.3861 68.695 19.9919C68.7399 14.0276 68.9007 13.1984 68.9617 12.5443C69.0541 11.5524 69.2703 9.59655 69.2499 7.40082C69.2337 5.64315 69.0658 4.24796 68.5767 3.36474C68.3488 2.95307 67.2353 3.21816 66.5713 3.25881C65.9074 3.29946 65.5009 3.38076 56.7956 3.30069C48.0902 3.22062 31.0984 2.97672 22.2028 2.83075C13.3072 2.68477 13.0226 2.64413 12.1443 2.62318C9.80322 2.56737 8.01035 2.56159 7.15238 2.5C4.68319 2.51971 4.19046 2.64289 3.84246 2.70448C3.65707 2.72542 3.45382 2.72542 3.24441 2.72542"
        stroke="#121212" stroke-width="2" stroke-linecap="round" />
    <path
        d="M28.4968 47.0709C28.8664 49.9324 28.4599 52.9787 27.8828 53.8225C27.363 54.5825 26.4889 55.5237 26.0338 56.389C25.9567 56.5357 26.1539 56.6767 28.4118 56.7395C30.6698 56.8023 35.06 56.8023 37.4436 56.782C40.61 56.755 41.835 56.4746 43.3964 56.4124C43.9346 56.391 45.0353 56.3096 46.3903 56.2079C46.8608 56.1727 46.851 55.9031 46.79 55.6561C46.5265 54.5887 45.9912 53.809 45.4979 53.1296C45.0615 52.5288 44.513 52.0007 44.1829 51.2628C44.1003 49.8659 44.0178 47.2557 43.9156 45.7183C43.8946 45.5533 43.8946 45.3907 43.8946 45.2231"
        stroke="#121212" stroke-width="2" stroke-linecap="round" />
    <path
        d="M28.8663 49.165C29.5993 49.165 31.2438 49.2463 32.1682 49.3085C32.3959 49.3239 32.5988 49.3695 34.3092 49.3905C36.0195 49.4114 39.2309 49.4114 40.9666 49.4927C42.7022 49.574 42.8648 49.7366 42.9892 49.9017C43.2221 50.2106 43.2787 50.6408 43.1771 51.0713C42.9763 51.9216 41.7611 51.5462 39.4009 51.6077C37.204 51.6651 32.9757 51.6287 30.7978 51.4458C28.62 51.2628 28.62 50.897 30.7744 50.7085C32.9289 50.52 37.2378 50.52 42.0469 50.3969"
        stroke="#121212" stroke-width="2" stroke-linecap="round" />
    <path
        d="M21.4504 59.1671C21.1874 59.7733 21.0665 60.218 20.8739 60.8755C20.7439 61.3195 20.7215 61.7365 20.6711 62.2219C20.6481 62.4426 20.6607 62.8044 20.7008 63.0003C20.7409 63.1962 20.8211 63.2162 20.9726 63.2266C21.344 63.2519 21.6721 63.2569 22.4053 63.2873C24.1993 63.3616 25.4788 63.2776 25.8409 63.2472C26.6012 63.1834 27.1997 63.2168 28.2135 63.1865C29.1267 63.1591 30.8509 63.1761 31.7791 63.1862C32.7878 63.1971 33.1106 63.2369 33.5352 63.2469C33.8409 63.2541 34.6249 63.2976 35.6873 63.3077C36.0883 63.3114 36.2085 63.3377 38.315 63.3481C40.4216 63.3584 44.5108 63.3584 46.6574 63.3484C49.1077 63.3369 49.5524 63.2575 50.0879 63.1865C51.0033 63.065 51.6153 63.1154 52.0736 63.065C52.165 63.0549 52.2652 63.0547 52.3168 62.9043C52.6031 62.071 52.2069 61.4984 52.0453 60.911C51.7919 59.9898 51.6396 59.4733 51.5087 59.1176C51.4784 59.0354 51.3978 58.9861 49.9336 58.9551C48.4694 58.9242 45.6029 58.9242 44.0561 58.9342C42.3688 58.9451 41.8235 58.9849 41.156 58.9949C40.8891 58.9989 40.769 59.025 39.6547 59.0353C38.5404 59.0456 36.4356 59.0456 35.3113 59.0557C34.1869 59.0657 34.1068 59.0857 33.2236 59.0961C32.3404 59.1064 30.6566 59.1064 29.5486 59.0964C27.9596 59.0663 27.3437 59.0256 26.2293 58.9952C25.2353 58.9849 23.3711 58.9849 21.4504 58.9849"
        stroke="#121212" stroke-linecap="round" />
    <path
        d="M23.3941 59.4712C23.3941 59.9729 23.314 61.0687 23.2122 61.4642C23.1311 61.7989 23.0503 62.0619 22.9896 62.2538C22.9689 62.3455 22.9689 62.4257 22.9082 62.6298"
        stroke="#121212" stroke-linecap="round" />
    <path
        d="M26.1883 59.5928C26.1276 60.0982 26.0073 60.6618 25.8849 61.211C25.8078 61.5569 25.683 61.9192 25.5812 62.2642C25.5609 62.3456 25.5408 62.4258 25.5205 62.5072C25.5001 62.5886 25.4801 62.6688 25.3987 62.7514"
        stroke="#121212" stroke-linecap="round" />
    <path
        d="M28.9218 59.8354C28.7602 60.7053 28.6387 61.0685 28.588 61.4035C28.4358 61.6772 28.3155 62.0003 28.1932 62.3247C28.1728 62.4061 28.1528 62.4863 28.0106 62.6904"
        stroke="#121212" stroke-linecap="round" />
    <path
        d="M30.987 59.4712C30.987 59.753 30.9469 60.239 30.9062 60.5633C30.8862 60.6447 30.8461 60.7249 30.8255 60.8163C30.8048 60.9078 30.8048 61.008 30.8048 61.1113"
        stroke="#121212" stroke-linecap="round" />
    <path
        d="M33.9635 59.5317C33.9635 59.7121 33.9635 59.8926 33.9635 60.0757C33.9635 60.2588 33.9635 60.4392 33.9534 60.5723C33.9434 60.7053 33.9234 60.7855 33.9027 60.8681"
        stroke="#121212" stroke-linecap="round" />
    <path
        d="M37.0006 59.3496C36.9605 59.6703 36.9399 59.9358 36.9198 60.1277C36.8597 60.2996 36.8184 60.4624 36.7983 60.634C36.7783 60.7254 36.7382 60.8257 36.6969 60.9897"
        stroke="#121212" stroke-linecap="round" />
    <path
        d="M39.4911 59.5317C39.5111 59.6119 39.5312 59.6921 39.5615 59.7835C39.5919 59.8749 39.632 59.9752 39.6527 60.1471C39.6733 60.319 39.6733 60.5595 39.7341 60.9288"
        stroke="#121212" stroke-linecap="round" />
    <path
        d="M42.5282 59.4712C42.6084 59.7919 42.6886 60.1126 42.7299 60.348C42.7712 60.5834 42.7712 60.7237 42.7712 60.8683"
        stroke="#121212" stroke-linecap="round" />
    <path
        d="M45.9905 59.4712C46.112 59.8545 46.1521 60.3398 46.2231 60.6848C46.2861 60.9908 46.4558 61.2716 46.5469 61.6464C46.5773 61.7381 46.6173 61.8183 46.638 61.9097C46.6586 62.0011 46.6586 62.1014 46.7194 62.3868"
        stroke="#121212" stroke-linecap="round" />
    <path
        d="M49.5136 59.4712C49.4529 60.604 49.493 61.008 49.564 61.373C49.6145 61.7989 49.7359 62.0619 49.8067 62.2538C49.8374 62.3455 49.8574 62.4257 49.9388 62.6298"
        stroke="#121212" stroke-linecap="round" />
    <path
        d="M21.5502 61.2827C22.359 61.2827 23.7866 61.2827 25.3828 61.2735C26.0971 61.2694 26.3763 61.227 26.6542 61.2178C26.8968 61.2098 27.8362 61.1713 29.1722 61.1621C30.2569 61.1547 31.2926 61.0421 32.0479 60.995C32.6152 60.9597 33.2823 60.9117 34.3947 60.8836C34.7504 60.8746 35.0469 60.8371 35.3898 60.8279C35.6787 60.8202 36.6924 60.7814 38.0844 60.7722C38.5942 60.7688 38.7044 60.7446 39.4505 60.7352C40.1966 60.7257 41.5753 60.7257 42.3315 60.7349C43.1799 60.7452 43.7705 60.7814 44.5869 60.7906C45.0364 60.7956 46.1056 60.8371 47.5628 60.8463C48.1566 60.85 49.0957 60.8928 50.4415 60.902C50.9233 60.9112 50.9968 60.9296 51.1266 60.939C51.2564 60.9485 51.4402 60.9485 51.6296 60.9485"
        stroke="#121212" stroke-linecap="round" />
    <path
        d="M57.4227 59.7788C57.367 60.1676 57.4405 60.5753 57.6538 60.8917C57.886 61.236 58.1825 61.5044 58.5261 61.82C58.8248 62.0942 59.1484 62.321 59.4731 62.5631C59.7894 62.7988 60.1321 62.9349 60.5774 63.1017C61.3768 63.4012 62.6944 63.1399 63.1397 63.0101C63.5352 62.8948 63.8641 62.8057 64.2078 62.6296C64.3666 62.5483 64.5147 62.4531 64.6445 62.3327C64.9007 62.0953 64.8868 61.4721 64.8222 61.0056C64.7691 60.6223 64.4056 60.3191 64.1635 60.0581C63.9313 59.8077 63.6257 59.5571 63.3283 59.3894C62.9949 59.2015 62.5674 59.1293 61.7825 59.0641C60.3064 58.9415 59.243 59.073 59.0213 59.1009C58.3518 59.1287 58.0187 59.2028 57.6007 59.268C57.4979 59.2774 57.406 59.2774 57.1442 59.3331"
        stroke="#121212" stroke-linecap="round" />
    <path
        d="M57.4784 59.5557C57.626 59.6481 58.1067 59.8698 58.5262 60.1489C58.9398 60.4241 59.4079 60.9649 59.5575 61.2813C59.7249 61.6155 59.7806 61.9314 59.836 62.1166C59.8731 62.2099 59.9282 62.3018 59.985 62.5636"
        stroke="#121212" stroke-linecap="round" />
    <path
        d="M2.36633 41.3679C3.63784 41.004 5.82715 40.6424 8.03863 40.7822C9.92404 40.9015 8.47971 45.1875 8.40714 45.972C8.36599 46.4168 8.16074 46.7564 8.05992 47.0471C7.9411 47.3896 7.64014 47.5223 7.30857 47.577C6.31617 47.7405 5.78717 47.3421 5.17879 47.141C4.67692 46.9752 4.22276 46.7958 3.03728 46.7395C2.65618 46.7214 2.42542 46.8307 2.20858 46.6685C2.02041 46.1817 1.93177 44.6215 1.91742 42.6921C1.90308 41.9884 1.8744 41.8442 1.84485 41.6956"
        stroke="#121212" stroke-linecap="round" />
    <path
        d="M2.3693 46.7186L1.97156 41.7186C1.97156 41.7186 4.14656 41.3104 5.55121 41.2186C6.79214 41.1376 8.73311 41.2186 8.73311 41.2186C8.73311 41.2186 8.53425 43.4686 8.33538 44.7186C8.13651 45.9686 7.5399 47.7186 7.5399 47.7186C5.59647 46.9345 4.46069 46.7959 2.3693 46.7186Z"
        fill="#F8F8F6" />
    <path
        d="M13.0201 33.82C12.9615 33.9667 12.7635 34.04 12.4261 34.04C12.0888 34.04 11.7955 33.9447 11.5461 33.754C11.3701 33.578 11.2528 33.4387 11.1941 33.336C11.1501 33.248 11.1795 33.0867 11.2821 32.852C11.3848 32.632 11.5608 32.236 11.8101 31.664C11.8688 31.312 11.9715 30.96 12.1181 30.608C12.2648 30.2413 12.3748 29.9847 12.4481 29.838C12.5068 29.6327 12.6241 29.2953 12.8001 28.826C12.9908 28.342 13.2035 27.8067 13.4381 27.22C13.6875 26.6333 13.9221 26.0833 14.1421 25.57C14.3621 25.042 14.5235 24.646 14.6261 24.382C14.8755 23.7953 15.1321 23.1793 15.3961 22.534C15.6601 21.8887 16.0195 21.0747 16.4741 20.092C16.5328 19.9453 16.5108 19.7913 16.4081 19.63C16.3055 19.4687 16.1295 19.388 15.8801 19.388C15.7335 19.2267 15.6528 19.058 15.6381 18.882C15.6235 18.6913 15.6968 18.5593 15.8581 18.486L17.8821 17.804C18.5715 17.6427 19.2755 17.5987 19.9941 17.672C20.7275 17.7307 21.4168 17.9287 22.0621 18.266C22.7661 18.6767 23.2795 19.1313 23.6021 19.63C23.9248 20.1287 24.1008 20.6347 24.1301 21.148C24.1741 21.6467 24.1155 22.1013 23.9541 22.512C23.8368 22.82 23.6095 23.1573 23.2721 23.524C22.9495 23.8907 22.5681 24.2573 22.1281 24.624C21.7028 24.9907 21.2555 25.328 20.7861 25.636C20.3315 25.9293 19.9061 26.1567 19.5101 26.318C19.1435 26.494 18.7328 26.6773 18.2781 26.868C17.8235 27.044 17.3835 27.198 16.9581 27.33C16.7235 27.3887 16.4448 27.418 16.1221 27.418C15.7995 27.418 15.5575 27.3887 15.3961 27.33L15.0221 28.034C14.8755 28.562 14.6188 29.3467 14.2521 30.388C13.9001 31.4293 13.4895 32.5733 13.0201 33.82ZM21.7541 34.238C21.6368 34.282 21.4388 34.2967 21.1601 34.282C20.8961 34.2673 20.5955 34.15 20.2581 33.93C19.6128 33.5487 18.9675 33.0867 18.3221 32.544C17.6768 32.0013 16.9508 31.268 16.1441 30.344C15.8361 29.9773 15.6015 29.6107 15.4401 29.244C15.2935 28.8773 15.1028 28.4153 14.8681 27.858L14.5601 26.67L15.3961 26.12L16.3641 26.912C16.5988 27.4253 16.8701 27.9167 17.1781 28.386C17.5008 28.8553 17.8235 29.2733 18.1461 29.64C18.4101 29.948 18.7695 30.322 19.2241 30.762C19.6788 31.1873 20.1628 31.598 20.6761 31.994C21.1895 32.39 21.6515 32.6907 22.0621 32.896C22.1501 32.9693 22.1721 33.1087 22.1281 33.314C22.0988 33.534 22.0401 33.7393 21.9521 33.93C21.8788 34.1207 21.8128 34.2233 21.7541 34.238ZM16.2101 25.614C16.5475 25.5847 16.9141 25.4967 17.3101 25.35C17.7208 25.1887 18.1535 25.0127 18.6081 24.822C19.0335 24.6167 19.4515 24.3967 19.8621 24.162C20.2875 23.9127 20.6688 23.6413 21.0061 23.348C21.3581 23.0547 21.6295 22.7393 21.8201 22.402C22.0255 22.0647 22.1135 21.7053 22.0841 21.324C22.0841 21.1333 22.0255 20.9207 21.9081 20.686C21.7908 20.4513 21.6368 20.2387 21.4461 20.048C21.2701 19.8573 21.0868 19.7327 20.8961 19.674C20.3095 19.5273 19.8621 19.4393 19.5541 19.41C19.2461 19.3807 19.0188 19.4247 18.8721 19.542C18.7401 19.6593 18.6375 19.8647 18.5641 20.158C18.5641 20.202 18.5055 20.3413 18.3881 20.576C18.2708 20.8107 18.1241 21.1113 17.9481 21.478C17.7868 21.83 17.6255 22.2113 17.4641 22.622C17.0388 23.4873 16.7235 24.1253 16.5181 24.536C16.3275 24.932 16.2101 25.196 16.1661 25.328C16.1368 25.46 16.1515 25.5553 16.2101 25.614ZM27.6981 32.06C27.2581 32.3093 26.7887 32.456 26.2901 32.5C25.8061 32.5293 25.3514 32.4633 24.9261 32.302C24.5007 32.126 24.1561 31.8693 23.8921 31.532C23.7454 31.3413 23.6061 31.0407 23.4741 30.63C23.3421 30.2047 23.3201 29.6327 23.4081 28.914C23.4961 28.2393 23.7014 27.5573 24.0241 26.868C24.3614 26.1787 24.7721 25.57 25.2561 25.042C25.7401 24.514 26.2681 24.1547 26.8401 23.964C27.0454 23.8907 27.2507 23.8393 27.4561 23.81C27.6761 23.766 27.9621 23.7587 28.3141 23.788C28.6514 23.832 28.9521 23.92 29.2161 24.052C29.4801 24.1693 29.6707 24.3013 29.7881 24.448C30.0227 24.6827 30.1767 24.91 30.2501 25.13C30.3234 25.35 30.3527 25.5627 30.3381 25.768C30.2647 26.2373 30.0521 26.7433 29.7001 27.286C29.3627 27.8287 28.8861 28.232 28.2701 28.496C28.0207 28.5987 27.7274 28.6647 27.3901 28.694C27.0527 28.7233 26.5907 28.6793 26.0041 28.562C25.6521 28.4887 25.4174 28.5253 25.3001 28.672C25.1974 28.8187 25.1534 29.1047 25.1681 29.53C25.1974 29.794 25.2561 30.0287 25.3441 30.234C25.4467 30.4247 25.6301 30.5567 25.8941 30.63C26.2314 30.6887 26.4734 30.696 26.6201 30.652C26.7667 30.5933 26.9501 30.5127 27.1701 30.41C27.2874 30.3367 27.3974 30.256 27.5001 30.168C27.6174 30.08 27.7274 29.992 27.8301 29.904C27.9474 29.816 28.0427 29.75 28.1161 29.706C28.1894 29.6473 28.2627 29.6107 28.3361 29.596C28.4094 29.5813 28.4827 29.574 28.5561 29.574C28.7174 29.5887 28.8714 29.6767 29.0181 29.838C29.1647 29.9993 29.2601 30.1533 29.3041 30.3C29.3041 30.4173 29.2307 30.586 29.0841 30.806C28.9374 31.0113 28.7394 31.2313 28.4901 31.466C28.2554 31.686 27.9914 31.884 27.6981 32.06ZM27.4121 27.154C27.5147 27.11 27.6614 27.0073 27.8521 26.846C28.0574 26.6847 28.2407 26.516 28.4021 26.34C28.5634 26.1493 28.6441 26.0027 28.6441 25.9C28.6441 25.7387 28.5341 25.5993 28.3141 25.482C28.1087 25.3647 27.8374 25.3427 27.5001 25.416C27.3827 25.4453 27.2434 25.526 27.0821 25.658C26.9207 25.79 26.7594 25.944 26.5981 26.12C26.4367 26.2813 26.2974 26.4427 26.1801 26.604C26.0627 26.7507 25.9821 26.868 25.9381 26.956C25.9967 27.0293 26.1141 27.088 26.2901 27.132C26.4661 27.176 26.6567 27.198 26.8621 27.198C27.0821 27.198 27.2654 27.1833 27.4121 27.154ZM29.9417 37.626C29.8831 37.626 29.7951 37.626 29.6777 37.626C29.5751 37.6407 29.4871 37.582 29.4137 37.45C29.3551 37.3767 29.2671 37.23 29.1497 37.01C29.0324 36.8047 29.0104 36.5113 29.0837 36.13C29.1571 35.8807 29.2157 35.6313 29.2597 35.382C29.3037 35.1473 29.3257 34.9713 29.3257 34.854C29.3257 34.7953 29.3404 34.678 29.3697 34.502C29.4137 34.3407 29.4357 34.2233 29.4357 34.15C29.5091 34.0327 29.5677 33.8713 29.6117 33.666C29.6557 33.4607 29.6777 33.2773 29.6777 33.116C29.6777 32.94 29.7657 32.7787 29.9417 32.632C29.9417 32.5147 29.9637 32.368 30.0077 32.192C30.0664 32.016 30.0957 31.8987 30.0957 31.84C30.1397 31.6347 30.2351 31.2753 30.3817 30.762C30.5431 30.234 30.7337 29.64 30.9537 28.98C31.1884 28.32 31.4157 27.6747 31.6357 27.044C31.8557 26.4133 32.0537 25.878 32.2297 25.438C32.4057 25.0273 32.5524 24.646 32.6697 24.294C32.7871 23.942 32.8457 23.6927 32.8457 23.546C32.8457 23.4873 32.8604 23.4433 32.8897 23.414C32.9191 23.37 32.9851 23.2893 33.0877 23.172C33.2344 23.0253 33.4251 22.974 33.6597 23.018C33.9091 23.0473 34.1144 23.1207 34.2757 23.238C34.3931 23.4287 34.4737 23.6047 34.5177 23.766C34.5764 23.9127 34.5764 24.1473 34.5177 24.47C34.5177 24.69 34.4664 24.8953 34.3637 25.086C34.2611 25.262 34.1657 25.4087 34.0777 25.526C34.0044 25.6287 33.9824 25.6727 34.0117 25.658C34.6571 25.262 35.2364 25.0493 35.7497 25.02C36.2777 24.976 36.7177 25.064 37.0697 25.284C37.4364 25.4893 37.7151 25.7753 37.9057 26.142C38.0964 26.5087 38.1917 26.9047 38.1917 27.33C38.1917 27.506 38.1331 27.7407 38.0157 28.034C37.8984 28.3273 37.7664 28.606 37.6197 28.87C37.4731 29.1193 37.3557 29.288 37.2677 29.376C37.2091 29.376 37.1504 29.4273 37.0917 29.53C37.0331 29.618 36.9744 29.7207 36.9157 29.838C36.7984 29.9847 36.6004 30.1533 36.3217 30.344C36.0577 30.52 35.7864 30.6667 35.5077 30.784C35.2291 30.8867 35.0311 30.916 34.9137 30.872C34.9137 30.872 34.8917 30.8867 34.8477 30.916C34.8184 30.9453 34.8037 30.9967 34.8037 31.07C34.8037 31.0993 34.7011 31.158 34.4957 31.246C34.2904 31.334 34.0484 31.4147 33.7697 31.488C33.4911 31.5613 33.2344 31.598 32.9997 31.598C32.6917 31.598 32.4717 31.5393 32.3397 31.422C32.3104 31.4513 32.2737 31.4953 32.2297 31.554C32.2004 31.6127 32.1857 31.664 32.1857 31.708C32.1857 31.796 32.1491 31.9353 32.0757 32.126C32.0171 32.3167 31.9437 32.4853 31.8557 32.632C31.7677 32.7933 31.6871 32.874 31.6137 32.874C31.6137 32.874 31.5991 32.896 31.5697 32.94C31.5404 32.984 31.5551 33.0427 31.6137 33.116C31.6137 33.116 31.6064 33.1967 31.5917 33.358C31.5917 33.534 31.5551 33.6807 31.4817 33.798C31.4817 33.9153 31.4597 34.0913 31.4157 34.326C31.3717 34.5607 31.3204 34.7367 31.2617 34.854C31.2617 35.03 31.2324 35.1987 31.1737 35.36C31.1297 35.536 31.0784 35.624 31.0197 35.624C30.9611 35.6387 30.9244 35.7267 30.9097 35.888C30.8951 36.064 30.8877 36.1887 30.8877 36.262C30.8731 36.6287 30.7557 36.944 30.5357 37.208C30.3157 37.4867 30.1177 37.626 29.9417 37.626ZM32.7577 29.926C32.8751 29.926 33.0877 29.8747 33.3957 29.772C33.7037 29.6693 34.0264 29.5447 34.3637 29.398C34.7011 29.2367 34.9651 29.0753 35.1557 28.914C35.5371 28.5767 35.8304 28.2467 36.0357 27.924C36.2557 27.6013 36.2411 27.242 35.9917 26.846C35.8744 26.6407 35.6837 26.56 35.4197 26.604C35.1704 26.6333 34.8917 26.7507 34.5837 26.956C34.2757 27.1613 33.9604 27.418 33.6377 27.726C33.4617 27.9167 33.3004 28.1367 33.1537 28.386C33.0071 28.6353 32.8824 28.8773 32.7797 29.112C32.6917 29.3467 32.6404 29.5447 32.6257 29.706C32.6111 29.8527 32.6551 29.926 32.7577 29.926ZM41.2042 32.324C40.8962 32.3827 40.6615 32.368 40.5002 32.28C40.3535 32.1773 40.1995 32.0527 40.0382 31.906C39.8035 31.7887 39.5909 31.6273 39.4002 31.422C39.2095 31.202 39.0629 30.9747 38.9602 30.74C38.8575 30.5053 38.8135 30.322 38.8282 30.19C38.8722 29.6767 38.9895 29.1193 39.1802 28.518C39.3855 27.9167 39.6422 27.33 39.9502 26.758C40.2729 26.186 40.6322 25.68 41.0282 25.24C41.4389 24.7853 41.8789 24.4553 42.3482 24.25C42.6415 24.1327 42.9569 24.0887 43.2942 24.118C43.6315 24.1473 43.8589 24.2867 43.9762 24.536C44.1962 24.9613 44.1449 25.2327 43.8222 25.35C43.7782 25.35 43.7269 25.372 43.6682 25.416C43.6095 25.4453 43.5802 25.4893 43.5802 25.548C43.6389 25.5773 43.8002 25.5847 44.0642 25.57C44.3282 25.5407 44.5922 25.4967 44.8562 25.438C45.1349 25.3647 45.3182 25.2913 45.4062 25.218C45.4942 25.174 45.5602 25.152 45.6042 25.152C45.6482 25.152 45.7582 25.1667 45.9342 25.196C46.1835 25.2693 46.3082 25.3573 46.3082 25.46C46.3082 25.5187 46.3302 25.614 46.3742 25.746C46.4182 25.8633 46.4695 25.922 46.5282 25.922C46.6309 25.9367 46.6529 26.0393 46.5942 26.23C46.5502 26.4207 46.3815 26.6187 46.0882 26.824C45.8095 27 45.6335 27.1173 45.5602 27.176C45.5015 27.22 45.4942 27.3227 45.5382 27.484C45.6555 27.7627 45.6482 28.1 45.5162 28.496C45.3842 28.892 45.1642 29.3027 44.8562 29.728C44.5482 30.1533 44.1815 30.5567 43.7562 30.938C43.3455 31.3047 42.9129 31.62 42.4582 31.884C42.0182 32.1333 41.6002 32.28 41.2042 32.324ZM41.2702 30.476C41.3289 30.476 41.4315 30.4467 41.5782 30.388C41.7249 30.3147 41.8422 30.256 41.9302 30.212C41.9889 30.1533 42.0622 30.0873 42.1502 30.014C42.2529 29.926 42.3335 29.8747 42.3922 29.86C42.4509 29.86 42.4875 29.838 42.5022 29.794C42.5169 29.7353 42.5682 29.6253 42.6562 29.464C42.7442 29.288 42.9202 29.0313 43.1842 28.694C43.4775 28.3713 43.6682 28.1147 43.7562 27.924C43.8442 27.7187 43.8515 27.4987 43.7782 27.264C43.7635 27.2053 43.7195 27.1687 43.6462 27.154C43.5875 27.1393 43.5069 27.1027 43.4042 27.044C43.2575 27.044 43.1549 27.0807 43.0962 27.154C43.0522 27.2127 42.9495 27.176 42.7882 27.044L42.4362 26.604L42.0622 26.978C41.8275 27.2127 41.6149 27.506 41.4242 27.858C41.2482 28.21 41.1089 28.5693 41.0062 28.936C40.9035 29.3027 40.8375 29.6253 40.8082 29.904C40.7935 30.124 40.8302 30.2707 40.9182 30.344C41.0062 30.4173 41.1235 30.4613 41.2702 30.476ZM48.8449 32.038C48.8009 32.0527 48.7056 32.0453 48.5589 32.016C48.4269 31.9867 48.2876 31.95 48.1409 31.906C48.0089 31.862 47.9282 31.8253 47.8989 31.796C47.8402 31.7373 47.7596 31.6347 47.6569 31.488C47.5542 31.3267 47.4956 31.114 47.4809 30.85C47.4809 30.586 47.6056 30.2707 47.8549 29.904C47.9282 29.7573 48.0162 29.5373 48.1189 29.244C48.2216 28.9507 48.3242 28.6427 48.4269 28.32C48.5442 27.9827 48.6469 27.682 48.7349 27.418C48.8376 27.154 48.9109 26.9707 48.9549 26.868C48.9842 26.6187 48.9696 26.4427 48.9109 26.34C48.8669 26.2227 48.7422 26.1567 48.5369 26.142C48.3902 26.142 48.2729 26.0907 48.1849 25.988C48.1116 25.8853 48.0749 25.702 48.0749 25.438C48.1042 25.2327 48.1556 25.0567 48.2289 24.91C48.3169 24.7487 48.4342 24.6167 48.5809 24.514C48.7276 24.4407 48.9109 24.3893 49.1309 24.36C49.3656 24.3307 49.5929 24.3233 49.8129 24.338C50.0329 24.3527 50.1869 24.404 50.2749 24.492C50.3776 24.5507 50.4582 24.6827 50.5169 24.888C50.5902 25.0787 50.6489 25.2767 50.6929 25.482C50.7369 25.6873 50.7662 25.8413 50.7809 25.944C50.9276 25.8267 51.0889 25.6653 51.2649 25.46C51.4556 25.24 51.6462 25.0347 51.8369 24.844C52.0716 24.6827 52.3502 24.5213 52.6729 24.36C52.9956 24.184 53.2302 24.096 53.3769 24.096C53.5382 24.096 53.7362 24.1767 53.9709 24.338C54.2056 24.4847 54.3522 24.6167 54.4109 24.734C54.5576 24.9833 54.6602 25.2473 54.7189 25.526C54.7922 25.79 54.7482 26.0247 54.5869 26.23C54.4402 26.4207 54.2349 26.6113 53.9709 26.802C53.7069 26.978 53.3769 27.0293 52.9809 26.956C52.8929 26.9267 52.7976 26.8167 52.6949 26.626C52.6069 26.4353 52.5556 26.296 52.5409 26.208C52.5409 26.164 52.4749 26.208 52.3429 26.34C52.2256 26.4573 52.0789 26.604 51.9029 26.78C51.7416 26.956 51.5876 27.1173 51.4409 27.264C51.1916 27.572 50.9276 27.99 50.6489 28.518C50.3702 29.046 50.0402 29.684 49.6589 30.432C49.4829 30.7987 49.3362 31.1507 49.2189 31.488C49.1016 31.8107 48.9769 31.994 48.8449 32.038ZM57.0586 33.82C56.34 33.8053 55.878 33.6 55.6726 33.204C55.482 32.8227 55.4306 32.3387 55.5186 31.752C55.6066 31.4733 55.658 31.224 55.6726 31.004C55.702 30.7693 55.768 30.6227 55.8706 30.564C55.8706 30.564 55.878 30.542 55.8926 30.498C55.922 30.454 55.9146 30.41 55.8706 30.366C55.8706 30.1753 55.9366 29.9113 56.0686 29.574C56.098 29.486 56.1346 29.3833 56.1786 29.266C56.2373 29.134 56.2666 29.068 56.2666 29.068C56.1933 28.9507 56.1933 28.8553 56.2666 28.782C56.34 28.7087 56.4133 28.6427 56.4866 28.584C56.5746 28.5107 56.582 28.43 56.5086 28.342C56.4793 28.2833 56.516 28.1513 56.6186 27.946C56.7213 27.726 56.8386 27.4987 56.9706 27.264C57.1026 27.0293 57.1906 26.846 57.2346 26.714C57.2346 26.6847 57.2713 26.582 57.3446 26.406C57.418 26.23 57.506 26.0247 57.6086 25.79C57.7113 25.5553 57.8066 25.3427 57.8946 25.152C57.9973 24.9613 58.0633 24.8367 58.0926 24.778C58.2393 24.7047 58.1806 24.6533 57.9166 24.624C57.6526 24.5947 57.374 24.5873 57.0806 24.602C56.626 24.5873 56.2593 24.5653 55.9806 24.536C55.7166 24.5067 55.4966 24.4407 55.3206 24.338C55.1446 24.1327 55.1226 23.8907 55.2546 23.612C55.3866 23.3187 55.5993 23.1647 55.8926 23.15C56.0833 23.1353 56.23 23.128 56.3326 23.128C56.45 23.128 56.5966 23.1207 56.7726 23.106C56.9633 23.0767 57.2566 23.04 57.6526 22.996L58.7746 22.908L58.8406 22.534C58.958 22.3433 59.0386 22.2187 59.0826 22.16C59.1266 22.1013 59.156 22.0427 59.1706 21.984C59.1853 21.9107 59.2073 21.786 59.2366 21.61C59.2366 21.61 59.3026 21.4927 59.4346 21.258C59.5666 21.0087 59.6473 20.752 59.6766 20.488C59.8526 20.1947 60.0066 19.9307 60.1386 19.696C60.2706 19.4467 60.3513 19.2927 60.3806 19.234C60.63 18.8673 60.872 18.6693 61.1066 18.64C61.356 18.6107 61.5906 18.6693 61.8106 18.816C61.9426 18.8893 62.0673 18.9847 62.1846 19.102C62.302 19.2047 62.3753 19.344 62.4046 19.52C62.434 19.6813 62.368 19.894 62.2066 20.158C62.1773 20.2167 62.1333 20.3267 62.0746 20.488C62.016 20.6347 61.972 20.7593 61.9426 20.862C61.8546 20.9647 61.7446 21.1333 61.6126 21.368C61.4953 21.588 61.4146 21.8153 61.3706 22.05C61.2533 22.2993 61.18 22.4533 61.1506 22.512C61.1213 22.5707 61.0773 22.6 61.0186 22.6C61.048 22.7467 61.136 22.82 61.2826 22.82C61.4293 22.8053 61.6713 22.7907 62.0086 22.776C62.2873 22.7467 62.478 22.7173 62.5806 22.688C62.698 22.644 62.83 22.6587 62.9766 22.732C63.05 22.8347 63.0866 22.9887 63.0866 23.194C63.1013 23.3847 63.0793 23.5753 63.0206 23.766C62.962 23.942 62.8813 24.052 62.7786 24.096C62.7053 24.096 62.5513 24.14 62.3166 24.228C62.0966 24.3013 61.818 24.3453 61.4806 24.36L60.3146 24.47L59.9406 25.218C59.838 25.4087 59.75 25.5847 59.6766 25.746C59.6033 25.8927 59.552 25.9807 59.5226 26.01C59.5226 26.098 59.4713 26.23 59.3686 26.406C59.2806 26.582 59.1853 26.7727 59.0826 26.978C58.9946 27.2273 58.892 27.4547 58.7746 27.66C58.672 27.8653 58.6206 27.968 58.6206 27.968C58.562 27.968 58.5326 28.012 58.5326 28.1C58.606 28.276 58.584 28.408 58.4666 28.496C58.3933 28.54 58.3273 28.606 58.2686 28.694C58.2246 28.7673 58.2026 28.804 58.2026 28.804C58.2613 28.8627 58.2686 28.936 58.2246 29.024C58.1953 29.112 58.1513 29.2073 58.0926 29.31C58.0926 29.4273 58.056 29.596 57.9826 29.816C57.924 30.036 57.858 30.2413 57.7846 30.432C57.7993 30.696 57.814 30.8647 57.8286 30.938C57.8433 31.0113 57.88 31.0407 57.9386 31.026C58.012 31.0407 58.1146 31.0407 58.2466 31.026C58.3786 31.0113 58.474 31.004 58.5326 31.004C58.7526 30.9013 58.65 31.4147 58.2246 32.544C57.99 32.9107 57.7553 33.2113 57.5206 33.446C57.286 33.6953 57.132 33.82 57.0586 33.82Z"
        fill="#D00416" />
    <path
        d="M9.42757 42.3679C10.8484 42.004 13.2948 41.6424 15.766 41.7822C17.8728 41.9015 16.2589 46.1875 16.1778 46.972C16.1318 47.4168 15.9025 47.7564 15.7898 48.0471C15.657 48.3896 15.3207 48.5223 14.9502 48.577C13.8413 48.7405 13.2501 48.3421 12.5703 48.141C12.0095 47.9752 11.502 47.7958 10.1773 47.7395C9.75146 47.7214 9.4936 47.8307 9.25129 47.6685C9.04103 47.1817 8.94197 45.6215 8.92595 43.6921C8.90992 42.9884 8.87787 42.8442 8.84485 42.6956"
        stroke="#121212" stroke-linecap="round" />
    <path
        d="M9.4309 47.7186L8.98645 42.7186C8.98645 42.7186 11.4169 42.3104 12.9865 42.2186C14.3732 42.1376 16.5421 42.2186 16.5421 42.2186C16.5421 42.2186 16.3198 44.4686 16.0976 45.7186C15.8754 46.9686 15.2087 48.7186 15.2087 48.7186C13.0371 47.9345 11.7679 47.7959 9.4309 47.7186Z"
        fill="#F8F8F6" />
    <path
        d="M9.42757 36.3679C10.8484 36.004 13.2948 35.6424 15.766 35.7822C17.8728 35.9015 16.2589 40.1875 16.1778 40.972C16.1318 41.4168 15.9025 41.7564 15.7898 42.0471C15.657 42.3896 15.3207 42.5223 14.9502 42.577C13.8413 42.7405 13.2501 42.3421 12.5703 42.141C12.0095 41.9752 11.502 41.7958 10.1773 41.7395C9.75146 41.7214 9.4936 41.8307 9.25129 41.6685C9.04103 41.1817 8.94197 39.6215 8.92595 37.6921C8.90992 36.9884 8.87787 36.8442 8.84485 36.6956"
        stroke="#121212" stroke-linecap="round" />
    <path
        d="M9.4309 41.7186L8.98645 36.7186C8.98645 36.7186 11.4169 36.3104 12.9865 36.2186C14.3732 36.1376 16.5421 36.2186 16.5421 36.2186C16.5421 36.2186 16.3198 38.4686 16.0976 39.7186C15.8754 40.9686 15.2087 42.7186 15.2087 42.7186C13.0371 41.9345 11.7679 41.7959 9.4309 41.7186Z"
        fill="#F8F8F6" />
    <path
        d="M2.42757 35.3679C3.84841 35.004 6.29482 34.6424 8.766 34.7822C10.8728 34.9015 9.25888 39.1875 9.17779 39.972C9.13181 40.4168 8.90246 40.7564 8.7898 41.0471C8.65702 41.3896 8.32072 41.5223 7.95021 41.577C6.84126 41.7405 6.25015 41.3421 5.57032 41.141C5.00951 40.9752 4.50202 40.7958 3.17732 40.7395C2.75146 40.7214 2.4936 40.8307 2.25129 40.6685C2.04103 40.1817 1.94197 38.6215 1.92595 36.6921C1.90992 35.9884 1.87787 35.8442 1.84485 35.6956"
        stroke="#121212" stroke-linecap="round" />
    <path
        d="M2.4309 40.7186L1.98645 35.7186C1.98645 35.7186 4.41687 35.3104 5.98648 35.2186C7.37315 35.1376 9.54206 35.2186 9.54206 35.2186C9.54206 35.2186 9.31984 37.4686 9.09762 38.7186C8.87539 39.9686 8.20872 41.7186 8.20872 41.7186C6.03706 40.9345 4.7679 40.7959 2.4309 40.7186Z"
        fill="#F8F8F6" />
    <path
        d="M2.42757 29.3679C3.84841 29.004 6.29482 28.6424 8.766 28.7822C10.8728 28.9015 9.25888 33.1875 9.17779 33.972C9.13181 34.4168 8.90246 34.7564 8.7898 35.0471C8.65702 35.3896 8.32072 35.5223 7.95021 35.577C6.84126 35.7405 6.25015 35.3421 5.57032 35.141C5.00951 34.9752 4.50202 34.7958 3.17732 34.7395C2.75146 34.7214 2.4936 34.8307 2.25129 34.6685C2.04103 34.1817 1.94197 32.6215 1.92595 30.6921C1.90992 29.9884 1.87787 29.8442 1.84485 29.6956"
        stroke="#121212" stroke-linecap="round" />
    <path
        d="M2.4309 34.7186L1.98645 29.7186C1.98645 29.7186 4.41687 29.3104 5.98648 29.2186C7.37315 29.1376 9.54206 29.2186 9.54206 29.2186C9.54206 29.2186 9.31984 31.4686 9.09762 32.7186C8.87539 33.9686 8.20872 35.7186 8.20872 35.7186C6.03706 34.9345 4.7679 34.7959 2.4309 34.7186Z"
        fill="#F8F8F6" />
    <path
        d="M10.4276 30.3679C11.8484 30.004 14.2948 29.6424 16.766 29.7822C18.8728 29.9015 17.2589 34.1875 17.1778 34.972C17.1318 35.4168 16.9025 35.7564 16.7898 36.0471C16.657 36.3896 16.3207 36.5223 15.9502 36.577C14.8413 36.7405 14.2501 36.3421 13.5703 36.141C13.0095 35.9752 12.502 35.7958 11.1773 35.7395C10.7515 35.7214 10.4936 35.8307 10.2513 35.6685C10.041 35.1817 9.94197 33.6215 9.92595 31.6921C9.90992 30.9884 9.87787 30.8442 9.84485 30.6956"
        stroke="#121212" stroke-linecap="round" />
    <path
        d="M10.4309 35.7186L9.98645 30.7186C9.98645 30.7186 12.4169 30.3104 13.9865 30.2186C15.3732 30.1376 17.5421 30.2186 17.5421 30.2186C17.5421 30.2186 17.3198 32.4686 17.0976 33.7186C16.8754 34.9686 16.2087 36.7186 16.2087 36.7186C14.0371 35.9345 12.7679 35.7959 10.4309 35.7186Z"
        fill="#F8F8F6" />
    <path
        d="M18.4276 31.3679C19.8484 31.004 22.2948 30.6424 24.766 30.7822C26.8728 30.9015 25.2589 35.1875 25.1778 35.972C25.1318 36.4168 24.9025 36.7564 24.7898 37.0471C24.657 37.3896 24.3207 37.5223 23.9502 37.577C22.8413 37.7405 22.2501 37.3421 21.5703 37.141C21.0095 36.9752 20.502 36.7958 19.1773 36.7395C18.7515 36.7214 18.4936 36.8307 18.2513 36.6685C18.041 36.1817 17.942 34.6215 17.9259 32.6921C17.9099 31.9884 17.8779 31.8442 17.8448 31.6956"
        stroke="#121212" stroke-linecap="round" />
    <path
        d="M18.4309 36.7186L17.9865 31.7186C17.9865 31.7186 20.4169 31.3104 21.9865 31.2186C23.3732 31.1376 25.5421 31.2186 25.5421 31.2186C25.5421 31.2186 25.3198 33.4686 25.0976 34.7186C24.8754 35.9686 24.2087 37.7186 24.2087 37.7186C22.0371 36.9345 20.7679 36.7959 18.4309 36.7186Z"
        fill="#F8F8F6" />
    <path
        d="M17.4276 37.3679C18.8484 37.004 21.2948 36.6424 23.766 36.7822C25.8728 36.9015 24.2589 41.1875 24.1778 41.972C24.1318 42.4168 23.9025 42.7564 23.7898 43.0471C23.657 43.3896 23.3207 43.5223 22.9502 43.577C21.8413 43.7405 21.2501 43.3421 20.5703 43.141C20.0095 42.9752 19.502 42.7958 18.1773 42.7395C17.7515 42.7214 17.4936 42.8307 17.2513 42.6685C17.041 42.1817 16.942 40.6215 16.9259 38.6921C16.9099 37.9884 16.8779 37.8442 16.8448 37.6956"
        stroke="#121212" stroke-linecap="round" />
    <path
        d="M17.4309 42.7186L16.9865 37.7186C16.9865 37.7186 19.4169 37.3104 20.9865 37.2186C22.3732 37.1376 24.5421 37.2186 24.5421 37.2186C24.5421 37.2186 24.3198 39.4686 24.0976 40.7186C23.8754 41.9686 23.2087 43.7186 23.2087 43.7186C21.0371 42.9345 19.7679 42.7959 17.4309 42.7186Z"
        fill="#F8F8F6" />
    <path
        d="M16.4276 43.3679C17.8484 43.004 20.2948 42.6424 22.766 42.7822C24.8728 42.9015 23.2589 47.1875 23.1778 47.972C23.1318 48.4168 22.9025 48.7564 22.7898 49.0471C22.657 49.3896 22.3207 49.5223 21.9502 49.577C20.8413 49.7405 20.2501 49.3421 19.5703 49.141C19.0095 48.9752 18.502 48.7958 17.1773 48.7395C16.7515 48.7214 16.4936 48.8307 16.2513 48.6685C16.041 48.1817 15.942 46.6215 15.9259 44.6921C15.9099 43.9884 15.8779 43.8442 15.8448 43.6956"
        stroke="#121212" stroke-linecap="round" />
    <path
        d="M16.4309 48.7186L15.9865 43.7186C15.9865 43.7186 18.4169 43.3104 19.9865 43.2186C21.3732 43.1376 23.5421 43.2186 23.5421 43.2186C23.5421 43.2186 23.3198 45.4686 23.0976 46.7186C22.8754 47.9686 22.2087 49.7186 22.2087 49.7186C20.0371 48.9345 18.7679 48.7959 16.4309 48.7186Z"
        fill="#F8F8F6" />
    <path
        d="M23.4276 41.3679C24.8484 41.004 27.2948 40.6424 29.766 40.7822C31.8728 40.9015 30.2589 45.1875 30.1778 45.972C30.1318 46.4168 29.9025 46.7564 29.7898 47.0471C29.657 47.3896 29.3207 47.5223 28.9502 47.577C27.8413 47.7405 27.2501 47.3421 26.5703 47.141C26.0095 46.9752 25.502 46.7958 24.1773 46.7395C23.7515 46.7214 23.4936 46.8307 23.2513 46.6685C23.041 46.1817 22.942 44.6215 22.9259 42.6921C22.9099 41.9884 22.8779 41.8442 22.8448 41.6956"
        stroke="#121212" stroke-linecap="round" />
    <path
        d="M23.4309 46.7186L22.9865 41.7186C22.9865 41.7186 25.4169 41.3104 26.9865 41.2186C28.3732 41.1376 30.5421 41.2186 30.5421 41.2186C30.5421 41.2186 30.3198 43.4686 30.0976 44.7186C29.8754 45.9686 29.2087 47.7186 29.2087 47.7186C27.0371 46.9345 25.7679 46.7959 23.4309 46.7186Z"
        fill="#F8F8F6" />
    <path
        d="M30.4276 40.3679C31.8484 40.004 34.2948 39.6424 36.766 39.7822C38.8728 39.9015 37.2589 44.1875 37.1778 44.972C37.1318 45.4168 36.9025 45.7564 36.7898 46.0471C36.657 46.3896 36.3207 46.5223 35.9502 46.577C34.8413 46.7405 34.2501 46.3421 33.5703 46.141C33.0095 45.9752 32.502 45.7958 31.1773 45.7395C30.7515 45.7214 30.4936 45.8307 30.2513 45.6685C30.041 45.1817 29.942 43.6215 29.9259 41.6921C29.9099 40.9884 29.8779 40.8442 29.8448 40.6956"
        stroke="#121212" stroke-linecap="round" />
    <path
        d="M30.4309 45.7186L29.9865 40.7186C29.9865 40.7186 32.4169 40.3104 33.9865 40.2186C35.3732 40.1376 37.5421 40.2186 37.5421 40.2186C37.5421 40.2186 37.3198 42.4686 37.0976 43.7186C36.8754 44.9686 36.2087 46.7186 36.2087 46.7186C34.0371 45.9345 32.7679 45.7959 30.4309 45.7186Z"
        fill="#F8F8F6" />
    <path
        d="M36.4276 41.3679C37.8484 41.004 40.2948 40.6424 42.766 40.7822C44.8728 40.9015 43.2589 45.1875 43.1778 45.972C43.1318 46.4168 42.9025 46.7564 42.7898 47.0471C42.657 47.3896 42.3207 47.5223 41.9502 47.577C40.8413 47.7405 40.2501 47.3421 39.5703 47.141C39.0095 46.9752 38.502 46.7958 37.1773 46.7395C36.7515 46.7214 36.4936 46.8307 36.2513 46.6685C36.041 46.1817 35.942 44.6215 35.9259 42.6921C35.9099 41.9884 35.8779 41.8442 35.8448 41.6956"
        stroke="#121212" stroke-linecap="round" />
    <path
        d="M36.4309 46.7186L35.9865 41.7186C35.9865 41.7186 38.4169 41.3104 39.9865 41.2186C41.3732 41.1376 43.5421 41.2186 43.5421 41.2186C43.5421 41.2186 43.3198 43.4686 43.0976 44.7186C42.8754 45.9686 42.2087 47.7186 42.2087 47.7186C40.0371 46.9345 38.7679 46.7959 36.4309 46.7186Z"
        fill="#F8F8F6" />
    <path
        d="M42.4276 42.3679C43.8484 42.004 46.2948 41.6424 48.766 41.7822C50.8728 41.9015 49.2589 46.1875 49.1778 46.972C49.1318 47.4168 48.9025 47.7564 48.7898 48.0471C48.657 48.3896 48.3207 48.5223 47.9502 48.577C46.8413 48.7405 46.2501 48.3421 45.5703 48.141C45.0095 47.9752 44.502 47.7958 43.1773 47.7395C42.7515 47.7214 42.4936 47.8307 42.2513 47.6685C42.041 47.1817 41.942 45.6215 41.9259 43.6921C41.9099 42.9884 41.8779 42.8442 41.8448 42.6956"
        stroke="#121212" stroke-linecap="round" />
    <path
        d="M42.4309 47.7186L41.9865 42.7186C41.9865 42.7186 44.4169 42.3104 45.9865 42.2186C47.3732 42.1376 49.5421 42.2186 49.5421 42.2186C49.5421 42.2186 49.3198 44.4686 49.0976 45.7186C48.8754 46.9686 48.2087 48.7186 48.2087 48.7186C46.0371 47.9345 44.7679 47.7959 42.4309 47.7186Z"
        fill="#F8F8F6" />
    <path
        d="M48.4276 41.3679C49.8484 41.004 52.2948 40.6424 54.766 40.7822C56.8728 40.9015 55.2589 45.1875 55.1778 45.972C55.1318 46.4168 54.9025 46.7564 54.7898 47.0471C54.657 47.3896 54.3207 47.5223 53.9502 47.577C52.8413 47.7405 52.2501 47.3421 51.5703 47.141C51.0095 46.9752 50.502 46.7958 49.1773 46.7395C48.7515 46.7214 48.4936 46.8307 48.2513 46.6685C48.041 46.1817 47.942 44.6215 47.9259 42.6921C47.9099 41.9884 47.8779 41.8442 47.8448 41.6956"
        stroke="#121212" stroke-linecap="round" />
    <path
        d="M48.4309 46.7186L47.9865 41.7186C47.9865 41.7186 50.4169 41.3104 51.9865 41.2186C53.3732 41.1376 55.5421 41.2186 55.5421 41.2186C55.5421 41.2186 55.3198 43.4686 55.0976 44.7186C54.8754 45.9686 54.2087 47.7186 54.2087 47.7186C52.0371 46.9345 50.7679 46.7959 48.4309 46.7186Z"
        fill="#F8F8F6" />
    <path
        d="M54.4276 41.3679C55.8484 41.004 58.2948 40.6424 60.766 40.7822C62.8728 40.9015 61.2589 45.1875 61.1778 45.972C61.1318 46.4168 60.9025 46.7564 60.7898 47.0471C60.657 47.3896 60.3207 47.5223 59.9502 47.577C58.8413 47.7405 58.2501 47.3421 57.5703 47.141C57.0095 46.9752 56.502 46.7958 55.1773 46.7395C54.7515 46.7214 54.4936 46.8307 54.2513 46.6685C54.041 46.1817 53.942 44.6215 53.9259 42.6921C53.9099 41.9884 53.8779 41.8442 53.8448 41.6956"
        stroke="#121212" stroke-linecap="round" />
    <path
        d="M54.4309 46.7186L53.9865 41.7186C53.9865 41.7186 56.4169 41.3104 57.9865 41.2186C59.3732 41.1376 61.5421 41.2186 61.5421 41.2186C61.5421 41.2186 61.3198 43.4686 61.0976 44.7186C60.8754 45.9686 60.2087 47.7186 60.2087 47.7186C58.0371 46.9345 56.7679 46.7959 54.4309 46.7186Z"
        fill="#F8F8F6" />
    <path
        d="M60.4276 41.3679C61.8484 41.004 64.2948 40.6424 66.766 40.7822C68.8728 40.9015 67.2589 45.1875 67.1778 45.972C67.1318 46.4168 66.9025 46.7564 66.7898 47.0471C66.657 47.3896 66.3207 47.5223 65.9502 47.577C64.8413 47.7405 64.2501 47.3421 63.5703 47.141C63.0095 46.9752 62.502 46.7958 61.1773 46.7395C60.7515 46.7214 60.4936 46.8307 60.2513 46.6685C60.041 46.1817 59.942 44.6215 59.9259 42.6921C59.9099 41.9884 59.8779 41.8442 59.8448 41.6956"
        stroke="#121212" stroke-linecap="round" />
    <path
        d="M60.4309 46.7186L59.9865 41.7186C59.9865 41.7186 62.4169 41.3104 63.9865 41.2186C65.3732 41.1376 67.5421 41.2186 67.5421 41.2186C67.5421 41.2186 67.3198 43.4686 67.0976 44.7186C66.8754 45.9686 66.2087 47.7186 66.2087 47.7186C64.0371 46.9345 62.7679 46.7959 60.4309 46.7186Z"
        fill="#F8F8F6" />
    <path
        d="M60.4276 36.3679C61.8484 36.004 64.2948 35.6424 66.766 35.7822C68.8728 35.9015 67.2589 40.1875 67.1778 40.972C67.1318 41.4168 66.9025 41.7564 66.7898 42.0471C66.657 42.3896 66.3207 42.5223 65.9502 42.577C64.8413 42.7405 64.2501 42.3421 63.5703 42.141C63.0095 41.9752 62.502 41.7958 61.1773 41.7395C60.7515 41.7214 60.4936 41.8307 60.2513 41.6685C60.041 41.1817 59.942 39.6215 59.9259 37.6921C59.9099 36.9884 59.8779 36.8442 59.8448 36.6956"
        stroke="#121212" stroke-linecap="round" />
    <path
        d="M60.4309 41.7186L59.9865 36.7186C59.9865 36.7186 62.4169 36.3104 63.9865 36.2186C65.3732 36.1376 67.5421 36.2186 67.5421 36.2186C67.5421 36.2186 67.3198 38.4686 67.0976 39.7186C66.8754 40.9686 66.2087 42.7186 66.2087 42.7186C64.0371 41.9345 62.7679 41.7959 60.4309 41.7186Z"
        fill="#F8F8F6" />
    <path
        d="M60.4276 31.3679C61.8484 31.004 64.2948 30.6424 66.766 30.7822C68.8728 30.9015 67.2589 35.1875 67.1778 35.972C67.1318 36.4168 66.9025 36.7564 66.7898 37.0471C66.657 37.3896 66.3207 37.5223 65.9502 37.577C64.8413 37.7405 64.2501 37.3421 63.5703 37.141C63.0095 36.9752 62.502 36.7958 61.1773 36.7395C60.7515 36.7214 60.4936 36.8307 60.2513 36.6685C60.041 36.1817 59.942 34.6215 59.9259 32.6921C59.9099 31.9884 59.8779 31.8442 59.8448 31.6956"
        stroke="#121212" stroke-linecap="round" />
    <path
        d="M60.4309 36.7186L59.9865 31.7186C59.9865 31.7186 62.4169 31.3104 63.9865 31.2186C65.3732 31.1376 67.5421 31.2186 67.5421 31.2186C67.5421 31.2186 67.3198 33.4686 67.0976 34.7186C66.8754 35.9686 66.2087 37.7186 66.2087 37.7186C64.0371 36.9345 62.7679 36.7959 60.4309 36.7186Z"
        fill="#F8F8F6" />
    <path
        d="M52.5004 33.4563C54.0989 33.0403 56.8511 32.6267 59.6311 32.7866C62.0013 32.923 60.1856 37.8242 60.0944 38.7213C60.0427 39.2299 59.7847 39.6183 59.6579 39.9507C59.5085 40.3424 59.1302 40.4942 58.7134 40.5566C57.4658 40.7436 56.8008 40.288 56.036 40.0581C55.4051 39.8685 54.8342 39.6633 53.3439 39.599C52.8648 39.5783 52.5747 39.7033 52.3021 39.5178C52.0656 38.9612 51.9541 37.177 51.9361 34.9706C51.9181 34.166 51.882 34.0011 51.8448 33.8311"
        stroke="#121212" stroke-linecap="round" />
    <path
        d="M52.5042 39.5751L52.0042 33.8575C52.0042 33.8575 54.7384 33.3906 56.5042 33.2857C58.0642 33.193 60.5042 33.2857 60.5042 33.2857C60.5042 33.2857 60.2542 35.8586 60.0042 37.288C59.7542 38.7175 59.0042 40.7186 59.0042 40.7186C56.5611 39.822 55.1333 39.6635 52.5042 39.5751Z"
        fill="#F8F8F6" />
    <path
        d="M44.5004 35.4563C46.0989 35.0403 48.8511 34.6267 51.6311 34.7866C54.0013 34.923 52.1856 39.8242 52.0944 40.7213C52.0427 41.2299 51.7847 41.6183 51.6579 41.9507C51.5085 42.3424 51.1302 42.4942 50.7134 42.5566C49.4658 42.7436 48.8008 42.288 48.036 42.0581C47.4051 41.8685 46.8342 41.6633 45.3439 41.599C44.8648 41.5783 44.5747 41.7033 44.3021 41.5178C44.0656 40.9612 43.9541 39.177 43.9361 36.9706C43.9181 36.166 43.882 36.0011 43.8448 35.8311"
        stroke="#121212" stroke-linecap="round" />
    <path
        d="M44.5042 41.5751L44.0042 35.8575C44.0042 35.8575 46.7384 35.3906 48.5042 35.2857C50.0642 35.193 52.5042 35.2857 52.5042 35.2857C52.5042 35.2857 52.2542 37.8586 52.0042 39.288C51.7542 40.7175 51.0042 42.7186 51.0042 42.7186C48.5611 41.822 47.1333 41.6635 44.5042 41.5751Z"
        fill="#F8F8F6" />
    <path
        d="M35.5004 35.4563C37.0989 35.0403 39.8511 34.6267 42.6311 34.7866C45.0013 34.923 43.1856 39.8242 43.0944 40.7213C43.0427 41.2299 42.7847 41.6183 42.6579 41.9507C42.5085 42.3424 42.1302 42.4942 41.7134 42.5566C40.4658 42.7436 39.8008 42.288 39.036 42.0581C38.4051 41.8685 37.8342 41.6633 36.3439 41.599C35.8648 41.5783 35.5747 41.7033 35.3021 41.5178C35.0656 40.9612 34.9541 39.177 34.9361 36.9706C34.9181 36.166 34.882 36.0011 34.8448 35.8311"
        stroke="#121212" stroke-linecap="round" />
    <path
        d="M35.5042 41.5751L35.0042 35.8575C35.0042 35.8575 37.7384 35.3906 39.5042 35.2857C41.0642 35.193 43.5042 35.2857 43.5042 35.2857C43.5042 35.2857 43.2542 37.8586 43.0042 39.288C42.7542 40.7175 42.0042 42.7186 42.0042 42.7186C39.5611 41.822 38.1333 41.6635 35.5042 41.5751Z"
        fill="#F8F8F6" />
    <path
        d="M25.0828 35.2049C26.5037 34.7888 28.9501 34.3753 31.4213 34.5352C33.5281 34.6715 31.9142 39.5727 31.8331 40.4698C31.7871 40.9784 31.5577 41.3669 31.4451 41.6992C31.3123 42.0909 30.976 42.2427 30.6055 42.3052C29.4965 42.4921 28.9054 42.0365 28.2256 41.8066C27.6648 41.617 27.1573 41.4118 25.8326 41.3475C25.4067 41.3268 25.1489 41.4518 24.9066 41.2663C24.6963 40.7097 24.5972 38.9256 24.5812 36.7191C24.5652 35.9145 24.5331 35.7496 24.5001 35.5797"
        stroke="#121212" stroke-linecap="round" />
    <path
        d="M25.0862 41.3238L24.6417 35.6061C24.6417 35.6061 27.0721 35.1392 28.6418 35.0344C30.0284 34.9417 32.1973 35.0344 32.1973 35.0344C32.1973 35.0344 31.9751 37.6073 31.7529 39.0367C31.5307 40.4661 30.864 42.4673 30.864 42.4673C28.6923 41.5707 27.4232 41.4122 25.0862 41.3238Z"
        fill="#F8F8F6" />
    <path
        d="M30.0828 33.2049C31.5037 32.7888 33.9501 32.3753 36.4213 32.5352C38.5281 32.6715 36.9142 37.5727 36.8331 38.4698C36.7871 38.9784 36.5577 39.3669 36.4451 39.6992C36.3123 40.0909 35.976 40.2427 35.6055 40.3052C34.4965 40.4921 33.9054 40.0365 33.2256 39.8066C32.6648 39.617 32.1573 39.4118 30.8326 39.3475C30.4067 39.3268 30.1489 39.4518 29.9066 39.2663C29.6963 38.7097 29.5972 36.9256 29.5812 34.7191C29.5652 33.9145 29.5331 33.7496 29.5001 33.5797"
        stroke="#121212" stroke-linecap="round" />
    <path
        d="M30.0862 39.3238L29.6417 33.6061C29.6417 33.6061 32.0721 33.1392 33.6418 33.0344C35.0284 32.9417 37.1973 33.0344 37.1973 33.0344C37.1973 33.0344 36.9751 35.6073 36.7529 37.0367C36.5307 38.4661 35.864 40.4673 35.864 40.4673C33.6923 39.5707 32.4232 39.4122 30.0862 39.3238Z"
        fill="#F8F8F6" />
    <path
        d="M35.0828 30.2933C36.5037 29.8251 38.9501 29.3596 41.4213 29.5396C43.5281 29.6931 41.9142 35.2094 41.8331 36.2191C41.7871 36.7916 41.5577 37.2287 41.4451 37.6028C41.3123 38.0437 40.976 38.2145 40.6055 38.2848C39.4965 38.4952 38.9054 37.9825 38.2256 37.7237C37.6648 37.5103 37.1573 37.2794 35.8326 37.2069C35.4067 37.1837 35.1489 37.3244 34.9066 37.1156C34.6963 36.4891 34.5972 34.481 34.5812 31.9977C34.5652 31.0921 34.5331 30.9064 34.5001 30.7152"
        stroke="#121212" stroke-linecap="round" />
    <path
        d="M35.0862 37.1802L34.6417 30.7449C34.6417 30.7449 37.0721 30.2195 38.6418 30.1014C40.0284 29.9971 42.1973 30.1014 42.1973 30.1014C42.1973 30.1014 41.9751 32.9973 41.7529 34.6061C41.5307 36.2149 40.864 38.4673 40.864 38.4673C38.6923 37.4581 37.4232 37.2797 35.0862 37.1802Z"
        fill="#F8F8F6" />
    <path
        d="M43.0828 30.2933C44.5037 29.8251 46.9501 29.3596 49.4213 29.5396C51.5281 29.6931 49.9142 35.2094 49.8331 36.2191C49.7871 36.7916 49.5577 37.2287 49.4451 37.6028C49.3123 38.0437 48.976 38.2145 48.6055 38.2848C47.4965 38.4952 46.9054 37.9825 46.2256 37.7237C45.6648 37.5103 45.1573 37.2794 43.8326 37.2069C43.4067 37.1837 43.1489 37.3244 42.9066 37.1156C42.6963 36.4891 42.5972 34.481 42.5812 31.9977C42.5652 31.0921 42.5331 30.9064 42.5001 30.7152"
        stroke="#121212" stroke-linecap="round" />
    <path
        d="M43.0862 37.1802L42.6417 30.7449C42.6417 30.7449 45.0721 30.2195 46.6418 30.1014C48.0284 29.9971 50.1973 30.1014 50.1973 30.1014C50.1973 30.1014 49.9751 32.9973 49.7529 34.6061C49.5307 36.2149 48.864 38.4673 48.864 38.4673C46.6923 37.4581 45.4232 37.2797 43.0862 37.1802Z"
        fill="#F8F8F6" />
    <path
        d="M51.0828 28.2933C52.5037 27.8251 54.9501 27.3596 57.4213 27.5396C59.5281 27.6931 57.9142 33.2094 57.8331 34.2191C57.7871 34.7916 57.5577 35.2287 57.4451 35.6028C57.3123 36.0437 56.976 36.2145 56.6055 36.2848C55.4965 36.4952 54.9054 35.9825 54.2256 35.7237C53.6648 35.5103 53.1573 35.2794 51.8326 35.2069C51.4067 35.1837 51.1489 35.3244 50.9066 35.1156C50.6963 34.4891 50.5972 32.481 50.5812 29.9977C50.5652 29.0921 50.5331 28.9064 50.5001 28.7152"
        stroke="#121212" stroke-linecap="round" />
    <path
        d="M51.0862 35.1802L50.6417 28.7449C50.6417 28.7449 53.0721 28.2195 54.6418 28.1014C56.0284 27.9971 58.1973 28.1014 58.1973 28.1014C58.1973 28.1014 57.9751 30.9973 57.7529 32.6061C57.5307 34.2149 56.864 36.4673 56.864 36.4673C54.6923 35.4581 53.4232 35.2797 51.0862 35.1802Z"
        fill="#F8F8F6" />
    <path
        d="M59.0828 26.2933C60.5037 25.8251 62.9501 25.3596 65.4213 25.5396C67.5281 25.6931 65.9142 31.2094 65.8331 32.2191C65.7871 32.7916 65.5577 33.2287 65.4451 33.6028C65.3123 34.0437 64.976 34.2145 64.6055 34.2848C63.4965 34.4952 62.9054 33.9825 62.2256 33.7237C61.6648 33.5103 61.1573 33.2794 59.8326 33.2069C59.4067 33.1837 59.1489 33.3244 58.9066 33.1156C58.6963 32.4891 58.5972 30.481 58.5812 27.9977C58.5652 27.0921 58.5331 26.9064 58.5001 26.7152"
        stroke="#121212" stroke-linecap="round" />
    <path
        d="M59.0862 33.1802L58.6417 26.7449C58.6417 26.7449 61.0721 26.2195 62.6418 26.1014C64.0284 25.9971 66.1973 26.1014 66.1973 26.1014C66.1973 26.1014 65.9751 28.9973 65.7529 30.6061C65.5307 32.2149 64.864 34.4673 64.864 34.4673C62.6923 33.4581 61.4232 33.2797 59.0862 33.1802Z"
        fill="#F8F8F6" />
    <path
        d="M62.0828 23.2933C63.5037 22.8251 65.9501 22.3596 68.4213 22.5396C70.5281 22.6931 68.9142 28.2094 68.8331 29.2191C68.7871 29.7916 68.5577 30.2287 68.4451 30.6028C68.3123 31.0437 67.976 31.2145 67.6055 31.2848C66.4965 31.4952 65.9054 30.9825 65.2256 30.7237C64.6648 30.5103 64.1573 30.2794 62.8326 30.2069C62.4067 30.1837 62.1489 30.3244 61.9066 30.1156C61.6963 29.4891 61.5972 27.481 61.5812 24.9977C61.5652 24.0921 61.5331 23.9064 61.5001 23.7152"
        stroke="#121212" stroke-linecap="round" />
    <path
        d="M62.0862 30.1802L61.6417 23.7449C61.6417 23.7449 64.0721 23.2195 65.6418 23.1014C67.0284 22.9971 69.1973 23.1014 69.1973 23.1014C69.1973 23.1014 68.9751 25.9973 68.7529 27.6061C68.5307 29.2149 67.864 31.4673 67.864 31.4673C65.6923 30.4581 64.4232 30.2797 62.0862 30.1802Z"
        fill="#F8F8F6" />
    <path
        d="M54.0828 22.2933C55.5037 21.8251 57.9501 21.3596 60.4213 21.5396C62.5281 21.6931 60.9142 27.2094 60.8331 28.2191C60.7871 28.7916 60.5577 29.2287 60.4451 29.6028C60.3123 30.0437 59.976 30.2145 59.6055 30.2848C58.4965 30.4952 57.9054 29.9825 57.2256 29.7237C56.6648 29.5103 56.1573 29.2794 54.8326 29.2069C54.4067 29.1837 54.1489 29.3244 53.9066 29.1156C53.6963 28.4891 53.5972 26.481 53.5812 23.9977C53.5652 23.0921 53.5331 22.9064 53.5001 22.7152"
        stroke="#121212" stroke-linecap="round" />
    <path
        d="M54.0862 29.1802L53.6417 22.7449C53.6417 22.7449 56.0721 22.2195 57.6418 22.1014C59.0284 21.9971 61.1973 22.1014 61.1973 22.1014C61.1973 22.1014 60.9751 24.9973 60.7529 26.6061C60.5307 28.2149 59.864 30.4673 59.864 30.4673C57.6923 29.4581 56.4232 29.2797 54.0862 29.1802Z"
        fill="#F8F8F6" />
    <path
        d="M47.0828 23.2933C48.5037 22.8251 50.9501 22.3596 53.4213 22.5396C55.5281 22.6931 53.9142 28.2094 53.8331 29.2191C53.7871 29.7916 53.5577 30.2287 53.4451 30.6028C53.3123 31.0437 52.976 31.2145 52.6055 31.2848C51.4965 31.4952 50.9054 30.9825 50.2256 30.7237C49.6648 30.5103 49.1573 30.2794 47.8326 30.2069C47.4067 30.1837 47.1489 30.3244 46.9066 30.1156C46.6963 29.4891 46.5972 27.481 46.5812 24.9977C46.5652 24.0921 46.5331 23.9064 46.5001 23.7152"
        stroke="#121212" stroke-linecap="round" />
    <path
        d="M47.0862 30.1802L46.6417 23.7449C46.6417 23.7449 49.0721 23.2195 50.6418 23.1014C52.0284 22.9971 54.1973 23.1014 54.1973 23.1014C54.1973 23.1014 53.9751 25.9973 53.7529 27.6061C53.5307 29.2149 52.864 31.4673 52.864 31.4673C50.6923 30.4581 49.4232 30.2797 47.0862 30.1802Z"
        fill="#F8F8F6" />
    <path
        d="M41.9372 24.2933C43.0028 23.8251 44.8376 23.3596 46.691 23.5396C48.2711 23.6931 47.0606 29.2094 46.9998 30.2191C46.9653 30.7916 46.7933 31.2287 46.7088 31.6028C46.6093 32.0437 46.357 32.2145 46.0791 32.2848C45.2474 32.4952 44.8041 31.9825 44.2942 31.7237C43.8736 31.5103 43.493 31.2794 42.4995 31.2069C42.1801 31.1837 41.9867 31.3244 41.805 31.1156C41.6473 30.4891 41.573 28.481 41.5609 25.9977C41.5489 25.0921 41.5249 24.9064 41.5001 24.7152"
        stroke="#121212" stroke-linecap="round" />
    <path
        d="M41.9397 31.1804L41.6063 24.7451C41.6063 24.7451 43.4291 24.2196 44.6063 24.1015C45.6463 23.9972 47.273 24.1015 47.273 24.1015C47.273 24.1015 47.1064 26.9974 46.9397 28.6062C46.773 30.2151 46.273 32.4674 46.273 32.4674C44.6443 31.4582 43.6924 31.2799 41.9397 31.1804Z"
        fill="#F8F8F6" />
    <path
        d="M35.0828 25.2933C36.5037 24.8251 38.9501 24.3596 41.4213 24.5396C43.5281 24.6931 41.9142 30.2094 41.8331 31.2191C41.7871 31.7916 41.5577 32.2287 41.4451 32.6028C41.3123 33.0437 40.976 33.2145 40.6055 33.2848C39.4965 33.4952 38.9054 32.9825 38.2256 32.7237C37.6648 32.5103 37.1573 32.2794 35.8326 32.2069C35.4067 32.1837 35.1489 32.3244 34.9066 32.1156C34.6963 31.4891 34.5972 29.481 34.5812 26.9977C34.5652 26.0921 34.5331 25.9064 34.5001 25.7152"
        stroke="#121212" stroke-linecap="round" />
    <path
        d="M35.0862 32.1804L34.6417 25.7451C34.6417 25.7451 37.0721 25.2196 38.6418 25.1015C40.0284 24.9972 42.1973 25.1015 42.1973 25.1015C42.1973 25.1015 41.9751 27.9974 41.7529 29.6062C41.5307 31.2151 40.864 33.4674 40.864 33.4674C38.6923 32.4582 37.4232 32.2799 35.0862 32.1804Z"
        fill="#F8F8F6" />
    <path
        d="M28.0828 22.2933C29.5037 21.8251 31.9501 21.3596 34.4213 21.5396C36.5281 21.6931 34.9142 27.2094 34.8331 28.2191C34.7871 28.7916 34.5577 29.2287 34.4451 29.6028C34.3123 30.0437 33.976 30.2145 33.6055 30.2848C32.4965 30.4952 31.9054 29.9825 31.2256 29.7237C30.6648 29.5103 30.1573 29.2794 28.8326 29.2069C28.4067 29.1837 28.1489 29.3244 27.9066 29.1156C27.6963 28.4891 27.5972 26.481 27.5812 23.9977C27.5652 23.0921 27.5331 22.9064 27.5001 22.7152"
        stroke="#121212" stroke-linecap="round" />
    <path
        d="M28.0862 29.1804L27.6417 22.7451C27.6417 22.7451 30.0721 22.2196 31.6418 22.1015C33.0284 21.9972 35.1973 22.1015 35.1973 22.1015C35.1973 22.1015 34.9751 24.9974 34.7529 26.6062C34.5307 28.2151 33.864 30.4674 33.864 30.4674C31.6923 29.4582 30.4232 29.2799 28.0862 29.1804Z"
        fill="#F8F8F6" />
    <path
        d="M25.0828 26.2933C26.5037 25.8251 28.9501 25.3596 31.4213 25.5396C33.5281 25.6931 31.9142 31.2094 31.8331 32.2191C31.7871 32.7916 31.5577 33.2287 31.4451 33.6028C31.3123 34.0437 30.976 34.2145 30.6055 34.2848C29.4965 34.4952 28.9054 33.9825 28.2256 33.7237C27.6648 33.5103 27.1573 33.2794 25.8326 33.2069C25.4067 33.1837 25.1489 33.3244 24.9066 33.1156C24.6963 32.4891 24.5972 30.481 24.5812 27.9977C24.5652 27.0921 24.5331 26.9064 24.5001 26.7152"
        stroke="#121212" stroke-linecap="round" />
    <path
        d="M25.0862 33.1804L24.6417 26.7451C24.6417 26.7451 27.0721 26.2196 28.6418 26.1015C30.0284 25.9972 32.1973 26.1015 32.1973 26.1015C32.1973 26.1015 31.9751 28.9974 31.7529 30.6062C31.5307 32.2151 30.864 34.4674 30.864 34.4674C28.6923 33.4582 27.4232 33.2799 25.0862 33.1804Z"
        fill="#F8F8F6" />
    <path
        d="M18.0828 25.2933C19.5037 24.8251 21.9501 24.3596 24.4213 24.5396C26.5281 24.6931 24.9142 30.2094 24.8331 31.2191C24.7871 31.7916 24.5577 32.2287 24.4451 32.6028C24.3123 33.0437 23.976 33.2145 23.6055 33.2848C22.4965 33.4952 21.9054 32.9825 21.2256 32.7237C20.6648 32.5103 20.1573 32.2794 18.8326 32.2069C18.4067 32.1837 18.1489 32.3244 17.9066 32.1156C17.6963 31.4891 17.5972 29.481 17.5812 26.9977C17.5652 26.0921 17.5331 25.9064 17.5001 25.7152"
        stroke="#121212" stroke-linecap="round" />
    <path
        d="M18.0862 32.1804L17.6417 25.7451C17.6417 25.7451 20.0721 25.2196 21.6418 25.1015C23.0284 24.9972 25.1973 25.1015 25.1973 25.1015C25.1973 25.1015 24.9751 27.9974 24.7529 29.6062C24.5307 31.2151 23.864 33.4674 23.864 33.4674C21.6923 32.4582 20.4232 32.2799 18.0862 32.1804Z"
        fill="#F8F8F6" />
    <path
        d="M11.0828 24.2933C12.5037 23.8251 14.9501 23.3596 17.4213 23.5396C19.5281 23.6931 17.9142 29.2094 17.8331 30.2191C17.7871 30.7916 17.5577 31.2287 17.4451 31.6028C17.3123 32.0437 16.976 32.2145 16.6055 32.2848C15.4965 32.4952 14.9054 31.9825 14.2256 31.7237C13.6648 31.5103 13.1573 31.2794 11.8326 31.2069C11.4067 31.1837 11.1489 31.3244 10.9066 31.1156C10.6963 30.4891 10.5972 28.481 10.5812 25.9977C10.5652 25.0921 10.5331 24.9064 10.5001 24.7152"
        stroke="#121212" stroke-linecap="round" />
    <path
        d="M11.0862 31.1804L10.6417 24.7451C10.6417 24.7451 13.0721 24.2196 14.6418 24.1015C16.0284 23.9972 18.1973 24.1015 18.1973 24.1015C18.1973 24.1015 17.9751 26.9974 17.7529 28.6062C17.5307 30.2151 16.864 32.4674 16.864 32.4674C14.6923 31.4582 13.4232 31.2799 11.0862 31.1804Z"
        fill="#F8F8F6" />
    <path
        d="M4.08284 23.2933C5.50368 22.8251 7.9501 22.3596 10.4213 22.5396C12.5281 22.6931 10.9142 28.2094 10.8331 29.2191C10.7871 29.7916 10.5577 30.2287 10.4451 30.6028C10.3123 31.0437 9.97599 31.2145 9.60548 31.2848C8.49654 31.4952 7.90542 30.9825 7.22559 30.7237C6.66479 30.5103 6.15729 30.2794 4.83259 30.2069C4.40674 30.1837 4.14888 30.3244 3.90657 30.1156C3.69631 29.4891 3.59725 27.481 3.58122 24.9977C3.5652 24.0921 3.53314 23.9064 3.50012 23.7152"
        stroke="#121212" stroke-linecap="round" />
    <path
        d="M4.08617 30.1804L3.64172 23.7451C3.64172 23.7451 6.07215 23.2196 7.64175 23.1015C9.02843 22.9972 11.1973 23.1015 11.1973 23.1015C11.1973 23.1015 10.9751 25.9974 10.7529 27.6062C10.5307 29.2151 9.86399 31.4674 9.86399 31.4674C7.69233 30.4582 6.42317 30.2799 4.08617 30.1804Z"
        fill="#F8F8F6" />
    <path
        d="M2.08284 18.2933C3.50368 17.8251 5.9501 17.3596 8.42128 17.5396C10.5281 17.6931 8.91416 23.2094 8.83306 24.2191C8.78708 24.7916 8.55773 25.2287 8.44507 25.6028C8.31229 26.0437 7.97599 26.2145 7.60548 26.2848C6.49654 26.4952 5.90542 25.9825 5.22559 25.7237C4.66479 25.5103 4.15729 25.2794 2.83259 25.2069C2.40674 25.1837 2.14888 25.3244 1.90657 25.1156C1.69631 24.4891 1.59725 22.481 1.58122 19.9977C1.5652 19.0921 1.53314 18.9064 1.50012 18.7152"
        stroke="#121212" stroke-linecap="round" />
    <path
        d="M2.08617 25.1804L1.64172 18.7451C1.64172 18.7451 4.07215 18.2196 5.64175 18.1015C7.02843 17.9972 9.19734 18.1015 9.19734 18.1015C9.19734 18.1015 8.97511 20.9974 8.75289 22.6062C8.53066 24.2151 7.86399 26.4674 7.86399 26.4674C5.69233 25.4582 4.42317 25.2799 2.08617 25.1804Z"
        fill="#F8F8F6" />
    <path
        d="M9.08284 17.2933C10.5037 16.8251 12.9501 16.3596 15.4213 16.5396C17.5281 16.6931 15.9142 22.2094 15.8331 23.2191C15.7871 23.7916 15.5577 24.2287 15.4451 24.6028C15.3123 25.0437 14.976 25.2145 14.6055 25.2848C13.4965 25.4952 12.9054 24.9825 12.2256 24.7237C11.6648 24.5103 11.1573 24.2794 9.83259 24.2069C9.40674 24.1837 9.14888 24.3244 8.90657 24.1156C8.69631 23.4891 8.59725 21.481 8.58122 18.9977C8.5652 18.0921 8.53314 17.9064 8.50012 17.7152"
        stroke="#121212" stroke-linecap="round" />
    <path
        d="M9.08617 24.1804L8.64172 17.7451C8.64172 17.7451 11.0721 17.2196 12.6418 17.1015C14.0284 16.9972 16.1973 17.1015 16.1973 17.1015C16.1973 17.1015 15.9751 19.9974 15.7529 21.6062C15.5307 23.2151 14.864 25.4674 14.864 25.4674C12.6923 24.4582 11.4232 24.2799 9.08617 24.1804Z"
        fill="#F8F8F6" />
    <path
        d="M18.0828 19.2933C19.5037 18.8251 21.9501 18.3596 24.4213 18.5396C26.5281 18.6931 24.9142 24.2094 24.8331 25.2191C24.7871 25.7916 24.5577 26.2287 24.4451 26.6028C24.3123 27.0437 23.976 27.2145 23.6055 27.2848C22.4965 27.4952 21.9054 26.9825 21.2256 26.7237C20.6648 26.5103 20.1573 26.2794 18.8326 26.2069C18.4067 26.1837 18.1489 26.3244 17.9066 26.1156C17.6963 25.4891 17.5972 23.481 17.5812 20.9977C17.5652 20.0921 17.5331 19.9064 17.5001 19.7152"
        stroke="#121212" stroke-linecap="round" />
    <path
        d="M18.0862 26.1804L17.6417 19.7451C17.6417 19.7451 20.0721 19.2196 21.6418 19.1015C23.0284 18.9972 25.1973 19.1015 25.1973 19.1015C25.1973 19.1015 24.9751 21.9974 24.7529 23.6062C24.5307 25.2151 23.864 27.4674 23.864 27.4674C21.6923 26.4582 20.4232 26.2799 18.0862 26.1804Z"
        fill="#F8F8F6" />
    <path
        d="M16.0828 16.2933C17.5037 15.8251 19.9501 15.3596 22.4213 15.5396C24.5281 15.6931 22.9142 21.2094 22.8331 22.2191C22.7871 22.7916 22.5577 23.2287 22.4451 23.6028C22.3123 24.0437 21.976 24.2145 21.6055 24.2848C20.4965 24.4952 19.9054 23.9825 19.2256 23.7237C18.6648 23.5103 18.1573 23.2794 16.8326 23.2069C16.4067 23.1837 16.1489 23.3244 15.9066 23.1156C15.6963 22.4891 15.5972 20.481 15.5812 17.9977C15.5652 17.0921 15.5331 16.9064 15.5001 16.7152"
        stroke="#121212" stroke-linecap="round" />
    <path
        d="M16.0862 23.1804L15.6417 16.7451C15.6417 16.7451 18.0721 16.2196 19.6418 16.1015C21.0284 15.9972 23.1973 16.1015 23.1973 16.1015C23.1973 16.1015 22.9751 18.9974 22.7529 20.6062C22.5307 22.2151 21.864 24.4674 21.864 24.4674C19.6923 23.4582 18.4232 23.2799 16.0862 23.1804Z"
        fill="#F8F8F6" />
    <path
        d="M24.0828 17.2933C25.5037 16.8251 27.9501 16.3596 30.4213 16.5396C32.5281 16.6931 30.9142 22.2094 30.8331 23.2191C30.7871 23.7916 30.5577 24.2287 30.4451 24.6028C30.3123 25.0437 29.976 25.2145 29.6055 25.2848C28.4965 25.4952 27.9054 24.9825 27.2256 24.7237C26.6648 24.5103 26.1573 24.2794 24.8326 24.2069C24.4067 24.1837 24.1489 24.3244 23.9066 24.1156C23.6963 23.4891 23.5972 21.481 23.5812 18.9977C23.5652 18.0921 23.5331 17.9064 23.5001 17.7152"
        stroke="#121212" stroke-linecap="round" />
    <path
        d="M24.0862 24.1804L23.6417 17.7451C23.6417 17.7451 26.0721 17.2196 27.6418 17.1015C29.0284 16.9972 31.1973 17.1015 31.1973 17.1015C31.1973 17.1015 30.9751 19.9974 30.7529 21.6062C30.5307 23.2151 29.864 25.4674 29.864 25.4674C27.6923 24.4582 26.4232 24.2799 24.0862 24.1804Z"
        fill="#F8F8F6" />
    <path
        d="M31.0828 15.2933C32.5037 14.8251 34.9501 14.3596 37.4213 14.5396C39.5281 14.6931 37.9142 20.2094 37.8331 21.2191C37.7871 21.7916 37.5577 22.2287 37.4451 22.6028C37.3123 23.0437 36.976 23.2145 36.6055 23.2848C35.4965 23.4952 34.9054 22.9825 34.2256 22.7237C33.6648 22.5103 33.1573 22.2794 31.8326 22.2069C31.4067 22.1837 31.1489 22.3244 30.9066 22.1156C30.6963 21.4891 30.5972 19.481 30.5812 16.9977C30.5652 16.0921 30.5331 15.9064 30.5001 15.7152"
        stroke="#121212" stroke-linecap="round" />
    <path
        d="M31.0862 22.1804L30.6417 15.7451C30.6417 15.7451 33.0721 15.2196 34.6418 15.1015C36.0284 14.9972 38.1973 15.1015 38.1973 15.1015C38.1973 15.1015 37.9751 17.9974 37.7529 19.6062C37.5307 21.2151 36.864 23.4674 36.864 23.4674C34.6923 22.4582 33.4232 22.2799 31.0862 22.1804Z"
        fill="#F8F8F6" />
    <path
        d="M36.0828 17.2933C37.5037 16.8251 39.9501 16.3596 42.4213 16.5396C44.5281 16.6931 42.9142 22.2094 42.8331 23.2191C42.7871 23.7916 42.5577 24.2287 42.4451 24.6028C42.3123 25.0437 41.976 25.2145 41.6055 25.2848C40.4965 25.4952 39.9054 24.9825 39.2256 24.7237C38.6648 24.5103 38.1573 24.2794 36.8326 24.2069C36.4067 24.1837 36.1489 24.3244 35.9066 24.1156C35.6963 23.4891 35.5972 21.481 35.5812 18.9977C35.5652 18.0921 35.5331 17.9064 35.5001 17.7152"
        stroke="#121212" stroke-linecap="round" />
    <path
        d="M36.0862 24.1804L35.6417 17.7451C35.6417 17.7451 38.0721 17.2196 39.6418 17.1015C41.0284 16.9972 43.1973 17.1015 43.1973 17.1015C43.1973 17.1015 42.9751 19.9974 42.7529 21.6062C42.5307 23.2151 41.864 25.4674 41.864 25.4674C39.6923 24.4582 38.4232 24.2799 36.0862 24.1804Z"
        fill="#F8F8F6" />
    <path
        d="M43.0828 15.2933C44.5037 14.8251 46.9501 14.3596 49.4213 14.5396C51.5281 14.6931 49.9142 20.2094 49.8331 21.2191C49.7871 21.7916 49.5577 22.2287 49.4451 22.6028C49.3123 23.0437 48.976 23.2145 48.6055 23.2848C47.4965 23.4952 46.9054 22.9825 46.2256 22.7237C45.6648 22.5103 45.1573 22.2794 43.8326 22.2069C43.4067 22.1837 43.1489 22.3244 42.9066 22.1156C42.6963 21.4891 42.5972 19.481 42.5812 16.9977C42.5652 16.0921 42.5331 15.9064 42.5001 15.7152"
        stroke="#121212" stroke-linecap="round" />
    <path
        d="M43.0862 22.1804L42.6417 15.7451C42.6417 15.7451 45.0721 15.2196 46.6418 15.1015C48.0284 14.9972 50.1973 15.1015 50.1973 15.1015C50.1973 15.1015 49.9751 17.9974 49.7529 19.6062C49.5307 21.2151 48.864 23.4674 48.864 23.4674C46.6923 22.4582 45.4232 22.2799 43.0862 22.1804Z"
        fill="#F8F8F6" />
    <path
        d="M50.1557 15.1193C51.7541 14.7537 54.5063 14.3904 57.2864 14.5309C59.6566 14.6507 57.8409 18.9568 57.7497 19.7449C57.698 20.1918 57.4399 20.5331 57.3132 20.8251C57.1638 21.1692 56.7855 21.3026 56.3687 21.3575C55.1211 21.5217 54.4561 21.1215 53.6913 20.9195C53.0604 20.7529 52.4894 20.5726 50.9992 20.5161C50.5201 20.4979 50.23 20.6077 49.9574 20.4447C49.7208 19.9557 49.6094 18.3882 49.5914 16.4497C49.5733 15.7428 49.5373 15.5979 49.5001 15.4486"
        stroke="#121212" stroke-linecap="round" />
    <path
        d="M50.1593 20.4953L49.6593 15.4719C49.6593 15.4719 52.3935 15.0617 54.1593 14.9695C55.7193 14.8881 58.1594 14.9695 58.1594 14.9695C58.1594 14.9695 57.9094 17.2301 57.6594 18.4859C57.4094 19.7418 56.6594 21.5 56.6594 21.5C54.2162 20.7122 52.7884 20.573 50.1593 20.4953Z"
        fill="#F8F8F6" />
    <path
        d="M58.1557 16.1193C59.7541 15.7537 62.5063 15.3904 65.2864 15.5309C67.6566 15.6507 65.8409 19.9568 65.7497 20.7449C65.698 21.1918 65.4399 21.5331 65.3132 21.8251C65.1638 22.1692 64.7855 22.3026 64.3687 22.3575C63.1211 22.5217 62.4561 22.1215 61.6913 21.9195C61.0604 21.7529 60.4894 21.5726 58.9992 21.5161C58.5201 21.4979 58.23 21.6077 57.9574 21.4447C57.7208 20.9557 57.6094 19.3882 57.5914 17.4497C57.5733 16.7428 57.5373 16.5979 57.5001 16.4486"
        stroke="#121212" stroke-linecap="round" />
    <path
        d="M58.1593 21.4953L57.6593 16.4719C57.6593 16.4719 60.3935 16.0617 62.1593 15.9695C63.7193 15.8881 66.1594 15.9695 66.1594 15.9695C66.1594 15.9695 65.9094 18.2301 65.6594 19.4859C65.4094 20.7418 64.6594 22.5 64.6594 22.5C62.2162 21.7122 60.7884 21.573 58.1593 21.4953Z"
        fill="#F8F8F6" />
    <path
        d="M61.1557 10.2962C62.7541 9.82624 65.5063 9.3591 68.2864 9.53974C70.6566 9.69376 68.8409 15.2302 68.7497 16.2435C68.698 16.8181 68.4399 17.2568 68.3132 17.6322C68.1638 18.0747 67.7855 18.2462 67.3687 18.3167C66.1211 18.5279 65.4561 18.0133 64.6913 17.7536C64.0604 17.5394 63.4894 17.3076 61.9992 17.235C61.5201 17.2116 61.23 17.3528 60.9574 17.1432C60.7208 16.5145 60.6094 14.4991 60.5914 12.0067C60.5733 11.0978 60.5373 10.9115 60.5001 10.7196"
        stroke="#121212" stroke-linecap="round" />
    <path
        d="M61.1593 17.2086L60.6593 10.7499C60.6593 10.7499 63.3935 10.2225 65.1593 10.104C66.7193 9.99934 69.1594 10.104 69.1594 10.104C69.1594 10.104 68.9094 13.0104 68.6594 14.6251C68.4094 16.2398 67.6594 18.5003 67.6594 18.5003C65.2162 17.4875 63.7884 17.3084 61.1593 17.2086Z"
        fill="#F8F8F6" />
    <path
        d="M60.1557 3.29621C61.7541 2.82624 64.5063 2.3591 67.2864 2.53974C69.6566 2.69376 67.8409 8.23018 67.7497 9.24351C67.698 9.81806 67.4399 10.2568 67.3132 10.6322C67.1638 11.0747 66.7855 11.2462 66.3687 11.3167C65.1211 11.5279 64.4561 11.0133 63.6913 10.7536C63.0604 10.5394 62.4894 10.3076 60.9992 10.235C60.5201 10.2116 60.23 10.3528 59.9574 10.1432C59.7208 9.51448 59.6094 7.49912 59.5914 5.00673C59.5733 4.09784 59.5373 3.91154 59.5001 3.7196"
        stroke="#121212" stroke-linecap="round" />
    <path
        d="M60.1593 10.2086L59.6593 3.74989C59.6593 3.74989 62.3935 3.22251 64.1593 3.10402C65.7193 2.99934 68.1594 3.10402 68.1594 3.10402C68.1594 3.10402 67.9094 6.01043 67.6594 7.62509C67.4094 9.23976 66.6594 11.5003 66.6594 11.5003C64.2162 10.4875 62.7884 10.3084 60.1593 10.2086Z"
        fill="#F8F8F6" />
    <path
        d="M53.1557 4.29621C54.7541 3.82624 57.5063 3.3591 60.2864 3.53974C62.6566 3.69376 60.8409 9.23018 60.7497 10.2435C60.698 10.8181 60.4399 11.2568 60.3132 11.6322C60.1638 12.0747 59.7855 12.2462 59.3687 12.3167C58.1211 12.5279 57.4561 12.0133 56.6913 11.7536C56.0604 11.5394 55.4894 11.3076 53.9992 11.235C53.5201 11.2116 53.23 11.3528 52.9574 11.1432C52.7208 10.5145 52.6094 8.49912 52.5914 6.00673C52.5733 5.09784 52.5373 4.91154 52.5001 4.7196"
        stroke="#121212" stroke-linecap="round" />
    <path
        d="M53.1593 11.2086L52.6593 4.74989C52.6593 4.74989 55.3935 4.22251 57.1593 4.10402C58.7193 3.99934 61.1594 4.10402 61.1594 4.10402C61.1594 4.10402 60.9094 7.01043 60.6594 8.62509C60.4094 10.2398 59.6594 12.5003 59.6594 12.5003C57.2162 11.4875 55.7884 11.3084 53.1593 11.2086Z"
        fill="#F8F8F6" />
    <path
        d="M52.1557 8.29621C53.7541 7.82624 56.5063 7.3591 59.2864 7.53974C61.6566 7.69376 59.8409 13.2302 59.7497 14.2435C59.698 14.8181 59.4399 15.2568 59.3132 15.6322C59.1638 16.0747 58.7855 16.2462 58.3687 16.3167C57.1211 16.5279 56.4561 16.0133 55.6913 15.7536C55.0604 15.5394 54.4894 15.3076 52.9992 15.235C52.5201 15.2116 52.23 15.3528 51.9574 15.1432C51.7208 14.5145 51.6094 12.4991 51.5914 10.0067C51.5733 9.09784 51.5373 8.91154 51.5001 8.7196"
        stroke="#121212" stroke-linecap="round" />
    <path
        d="M52.1593 15.2086L51.6593 8.74989C51.6593 8.74989 54.3935 8.22251 56.1593 8.10402C57.7193 7.99934 60.1594 8.10402 60.1594 8.10402C60.1594 8.10402 59.9094 11.0104 59.6594 12.6251C59.4094 14.2398 58.6594 16.5003 58.6594 16.5003C56.2162 15.4875 54.7884 15.3084 52.1593 15.2086Z"
        fill="#F8F8F6" />
    <path
        d="M43.1557 8.29621C44.7541 7.82624 47.5063 7.3591 50.2864 7.53974C52.6566 7.69376 50.8409 13.2302 50.7497 14.2435C50.698 14.8181 50.4399 15.2568 50.3132 15.6322C50.1638 16.0747 49.7855 16.2462 49.3687 16.3167C48.1211 16.5279 47.4561 16.0133 46.6913 15.7536C46.0604 15.5394 45.4894 15.3076 43.9992 15.235C43.5201 15.2116 43.23 15.3528 42.9574 15.1432C42.7208 14.5145 42.6094 12.4991 42.5914 10.0067C42.5733 9.09784 42.5373 8.91154 42.5001 8.7196"
        stroke="#121212" stroke-linecap="round" />
    <path
        d="M43.1593 15.2086L42.6593 8.74989C42.6593 8.74989 45.3935 8.22251 47.1593 8.10402C48.7193 7.99934 51.1594 8.10402 51.1594 8.10402C51.1594 8.10402 50.9094 11.0104 50.6594 12.6251C50.4094 14.2398 49.6594 16.5003 49.6594 16.5003C47.2162 15.4875 45.7884 15.3084 43.1593 15.2086Z"
        fill="#F8F8F6" />
    <path
        d="M34.1557 8.29621C35.7541 7.82624 38.5063 7.3591 41.2864 7.53974C43.6566 7.69376 41.8409 13.2302 41.7497 14.2435C41.698 14.8181 41.4399 15.2568 41.3132 15.6322C41.1638 16.0747 40.7855 16.2462 40.3687 16.3167C39.1211 16.5279 38.4561 16.0133 37.6913 15.7536C37.0604 15.5394 36.4894 15.3076 34.9992 15.235C34.5201 15.2116 34.23 15.3528 33.9574 15.1432C33.7208 14.5145 33.6094 12.4991 33.5914 10.0067C33.5733 9.09784 33.5373 8.91154 33.5001 8.7196"
        stroke="#121212" stroke-linecap="round" />
    <path
        d="M34.1593 15.2086L33.6593 8.74989C33.6593 8.74989 36.3935 8.22251 38.1593 8.10402C39.7193 7.99934 42.1594 8.10402 42.1594 8.10402C42.1594 8.10402 41.9094 11.0104 41.6594 12.6251C41.4094 14.2398 40.6594 16.5003 40.6594 16.5003C38.2162 15.4875 36.7884 15.3084 34.1593 15.2086Z"
        fill="#F8F8F6" />
    <path
        d="M44.1557 1.29621C45.7541 0.826242 48.5063 0.359095 51.2864 0.539743C53.6566 0.693756 51.8409 6.23018 51.7497 7.24351C51.698 7.81806 51.4399 8.25683 51.3132 8.63224C51.1638 9.07471 50.7855 9.24617 50.3687 9.31673C49.1211 9.52794 48.4561 9.0133 47.6913 8.75362C47.0604 8.5394 46.4894 8.30764 44.9992 8.23496C44.5201 8.21159 44.23 8.35281 43.9574 8.14323C43.7208 7.51448 43.6094 5.49912 43.5914 3.00673C43.5733 2.09784 43.5373 1.91154 43.5001 1.7196"
        stroke="#121212" stroke-linecap="round" />
    <path
        d="M44.1593 8.20857L43.6593 1.74989C43.6593 1.74989 46.3935 1.22251 48.1593 1.10402C49.7193 0.999339 52.1594 1.10402 52.1594 1.10402C52.1594 1.10402 51.9094 4.01043 51.6594 5.62509C51.4094 7.23976 50.6594 9.5003 50.6594 9.5003C48.2162 8.48746 46.7884 8.30842 44.1593 8.20857Z"
        fill="#F8F8F6" />
    <path
        d="M35.1557 3.29621C36.7541 2.82624 39.5063 2.3591 42.2864 2.53974C44.6566 2.69376 42.8409 8.23018 42.7497 9.24351C42.698 9.81806 42.4399 10.2568 42.3132 10.6322C42.1638 11.0747 41.7855 11.2462 41.3687 11.3167C40.1211 11.5279 39.4561 11.0133 38.6913 10.7536C38.0604 10.5394 37.4894 10.3076 35.9992 10.235C35.5201 10.2116 35.23 10.3528 34.9574 10.1432C34.7208 9.51448 34.6094 7.49912 34.5914 5.00673C34.5733 4.09784 34.5373 3.91154 34.5001 3.7196"
        stroke="#121212" stroke-linecap="round" />
    <path
        d="M35.1593 10.2086L34.6593 3.74989C34.6593 3.74989 37.3935 3.22251 39.1593 3.10402C40.7193 2.99934 43.1594 3.10402 43.1594 3.10402C43.1594 3.10402 42.9094 6.01043 42.6594 7.62509C42.4094 9.23976 41.6594 11.5003 41.6594 11.5003C39.2162 10.4875 37.7884 10.3084 35.1593 10.2086Z"
        fill="#F8F8F6" />
    <path
        d="M25.1557 2.29621C26.7541 1.82624 29.5063 1.3591 32.2864 1.53974C34.6566 1.69376 32.8409 7.23018 32.7497 8.24351C32.698 8.81806 32.4399 9.25683 32.3132 9.63224C32.1638 10.0747 31.7855 10.2462 31.3687 10.3167C30.1211 10.5279 29.4561 10.0133 28.6913 9.75362C28.0604 9.5394 27.4894 9.30764 25.9992 9.23496C25.5201 9.21159 25.23 9.35281 24.9574 9.14323C24.7208 8.51448 24.6094 6.49912 24.5914 4.00673C24.5733 3.09784 24.5373 2.91154 24.5001 2.7196"
        stroke="#121212" stroke-linecap="round" />
    <path
        d="M25.1593 9.20857L24.6593 2.74989C24.6593 2.74989 27.3935 2.22251 29.1593 2.10402C30.7193 1.99934 33.1594 2.10402 33.1594 2.10402C33.1594 2.10402 32.9094 5.01043 32.6594 6.62509C32.4094 8.23976 31.6594 10.5003 31.6594 10.5003C29.2162 9.48746 27.7884 9.30842 25.1593 9.20857Z"
        fill="#F8F8F6" />
    <path
        d="M26.1557 8.29621C27.7541 7.82624 30.5063 7.3591 33.2864 7.53974C35.6566 7.69376 33.8409 13.2302 33.7497 14.2435C33.698 14.8181 33.4399 15.2568 33.3132 15.6322C33.1638 16.0747 32.7855 16.2462 32.3687 16.3167C31.1211 16.5279 30.4561 16.0133 29.6913 15.7536C29.0604 15.5394 28.4894 15.3076 26.9992 15.235C26.5201 15.2116 26.23 15.3528 25.9574 15.1432C25.7208 14.5145 25.6094 12.4991 25.5914 10.0067C25.5733 9.09784 25.5373 8.91154 25.5001 8.7196"
        stroke="#121212" stroke-linecap="round" />
    <path
        d="M26.1593 15.2086L25.6593 8.74989C25.6593 8.74989 28.3935 8.22251 30.1593 8.10402C31.7193 7.99934 34.1594 8.10402 34.1594 8.10402C34.1594 8.10402 33.9094 11.0104 33.6594 12.6251C33.4094 14.2398 32.6594 16.5003 32.6594 16.5003C30.2162 15.4875 28.7884 15.3084 26.1593 15.2086Z"
        fill="#F8F8F6" />
    <path
        d="M18.1557 10.2962C19.7541 9.82624 22.5063 9.3591 25.2864 9.53974C27.6566 9.69376 25.8409 15.2302 25.7497 16.2435C25.698 16.8181 25.4399 17.2568 25.3132 17.6322C25.1638 18.0747 24.7855 18.2462 24.3687 18.3167C23.1211 18.5279 22.4561 18.0133 21.6913 17.7536C21.0604 17.5394 20.4894 17.3076 18.9992 17.235C18.5201 17.2116 18.23 17.3528 17.9574 17.1432C17.7208 16.5145 17.6094 14.4991 17.5914 12.0067C17.5733 11.0978 17.5373 10.9115 17.5001 10.7196"
        stroke="#121212" stroke-linecap="round" />
    <path
        d="M18.1593 17.2086L17.6593 10.7499C17.6593 10.7499 20.3935 10.2225 22.1593 10.104C23.7193 9.99934 26.1594 10.104 26.1594 10.104C26.1594 10.104 25.9094 13.0104 25.6594 14.6251C25.4094 16.2398 24.6594 18.5003 24.6594 18.5003C22.2162 17.4875 20.7884 17.3084 18.1593 17.2086Z"
        fill="#F8F8F6" />
    <path
        d="M15.1557 3.29621C16.7541 2.82624 19.5063 2.3591 22.2864 2.53974C24.6566 2.69376 22.8409 8.23018 22.7497 9.24351C22.698 9.81806 22.4399 10.2568 22.3132 10.6322C22.1638 11.0747 21.7855 11.2462 21.3687 11.3167C20.1211 11.5279 19.4561 11.0133 18.6913 10.7536C18.0604 10.5394 17.4894 10.3076 15.9992 10.235C15.5201 10.2116 15.23 10.3528 14.9574 10.1432C14.7208 9.51448 14.6094 7.49912 14.5914 5.00673C14.5733 4.09784 14.5373 3.91154 14.5001 3.7196"
        stroke="#121212" stroke-linecap="round" />
    <path
        d="M15.1593 10.2086L14.6593 3.74989C14.6593 3.74989 17.3935 3.22251 19.1593 3.10402C20.7193 2.99934 23.1594 3.10402 23.1594 3.10402C23.1594 3.10402 22.9094 6.01043 22.6594 7.62509C22.4094 9.23976 21.6594 11.5003 21.6594 11.5003C19.2162 10.4875 17.7884 10.3084 15.1593 10.2086Z"
        fill="#F8F8F6" />
    <path
        d="M8.15568 3.29621C9.75413 2.82624 12.5063 2.3591 15.2864 2.53974C17.6566 2.69376 15.8409 8.23018 15.7497 9.24351C15.698 9.81806 15.4399 10.2568 15.3132 10.6322C15.1638 11.0747 14.7855 11.2462 14.3687 11.3167C13.1211 11.5279 12.4561 11.0133 11.6913 10.7536C11.0604 10.5394 10.4894 10.3076 8.99915 10.235C8.52007 10.2116 8.22997 10.3528 7.95737 10.1432C7.72083 9.51448 7.60939 7.49912 7.59136 5.00673C7.57333 4.09784 7.53727 3.91154 7.50012 3.7196"
        stroke="#121212" stroke-linecap="round" />
    <path
        d="M8.15931 10.2086L7.6593 3.74989C7.6593 3.74989 10.3935 3.22251 12.1593 3.10402C13.7193 2.99934 16.1594 3.10402 16.1594 3.10402C16.1594 3.10402 15.9094 6.01043 15.6594 7.62509C15.4094 9.23976 14.6594 11.5003 14.6594 11.5003C12.2162 10.4875 10.7884 10.3084 8.15931 10.2086Z"
        fill="#F8F8F6" />
    <path
        d="M1.15568 3.29621C2.75413 2.82624 5.50634 2.3591 8.28642 2.53974C10.6566 2.69376 8.84091 8.23018 8.74968 9.24351C8.69795 9.81806 8.43993 10.2568 8.31319 10.6322C8.16382 11.0747 7.78547 11.2462 7.36865 11.3167C6.12109 11.5279 5.45608 11.0133 4.69128 10.7536C4.06037 10.5394 3.48944 10.3076 1.99915 10.235C1.52007 10.2116 1.22997 10.3528 0.957371 10.1432C0.720829 9.51448 0.609387 7.49912 0.591358 5.00673C0.57333 4.09784 0.537272 3.91154 0.500122 3.7196"
        stroke="#121212" stroke-linecap="round" />
    <path
        d="M1.15931 10.2086L0.659302 3.74989C0.659302 3.74989 3.39353 3.22251 5.15934 3.10402C6.71934 2.99934 9.15937 3.10402 9.15937 3.10402C9.15937 3.10402 8.90936 6.01043 8.65936 7.62509C8.40936 9.23976 7.65936 11.5003 7.65936 11.5003C5.21623 10.4875 3.78843 10.3084 1.15931 10.2086Z"
        fill="#F8F8F6" />
    <path
        d="M9.15568 10.2962C10.7541 9.82624 13.5063 9.3591 16.2864 9.53974C18.6566 9.69376 16.8409 15.2302 16.7497 16.2435C16.698 16.8181 16.4399 17.2568 16.3132 17.6322C16.1638 18.0747 15.7855 18.2462 15.3687 18.3167C14.1211 18.5279 13.4561 18.0133 12.6913 17.7536C12.0604 17.5394 11.4894 17.3076 9.99915 17.235C9.52007 17.2116 9.22997 17.3528 8.95737 17.1432C8.72083 16.5145 8.60939 14.4991 8.59136 12.0067C8.57333 11.0978 8.53727 10.9115 8.50012 10.7196"
        stroke="#121212" stroke-linecap="round" />
    <path
        d="M9.15931 17.2086L8.6593 10.7499C8.6593 10.7499 11.3935 10.2225 13.1593 10.104C14.7193 9.99934 17.1594 10.104 17.1594 10.104C17.1594 10.104 16.9094 13.0104 16.6594 14.6251C16.4094 16.2398 15.6594 18.5003 15.6594 18.5003C13.2162 17.4875 11.7884 17.3084 9.15931 17.2086Z"
        fill="#F8F8F6" />
    <path
        d="M2.15568 11.2962C3.75413 10.8262 6.50634 10.3591 9.28642 10.5397C11.6566 10.6938 9.84091 16.2302 9.74968 17.2435C9.69795 17.8181 9.43993 18.2568 9.31319 18.6322C9.16382 19.0747 8.78547 19.2462 8.36865 19.3167C7.12109 19.5279 6.45608 19.0133 5.69128 18.7536C5.06037 18.5394 4.48944 18.3076 2.99915 18.235C2.52007 18.2116 2.22997 18.3528 1.95737 18.1432C1.72083 17.5145 1.60939 15.4991 1.59136 13.0067C1.57333 12.0978 1.53727 11.9115 1.50012 11.7196"
        stroke="#121212" stroke-linecap="round" />
    <path
        d="M2.15931 18.2086L1.6593 11.7499C1.6593 11.7499 4.39353 11.2225 6.15934 11.104C7.71934 10.9993 10.1594 11.104 10.1594 11.104C10.1594 11.104 9.90936 14.0104 9.65936 15.6251C9.40936 17.2398 8.65936 19.5003 8.65936 19.5003C6.21623 18.4875 4.78843 18.3084 2.15931 18.2086Z"
        fill="#F8F8F6" />
    <path
        d="M30.0828 19.2933C31.5037 18.8251 33.9501 18.3596 36.4213 18.5396C38.5281 18.6931 36.9142 24.2094 36.8331 25.2191C36.7871 25.7916 36.5577 26.2287 36.4451 26.6028C36.3123 27.0437 35.976 27.2145 35.6055 27.2848C34.4965 27.4952 33.9054 26.9825 33.2256 26.7237C32.6648 26.5103 32.1573 26.2794 30.8326 26.2069C30.4067 26.1837 30.1489 26.3244 29.9066 26.1156C29.6963 25.4891 29.5972 23.481 29.5812 20.9977C29.5652 20.0921 29.5331 19.9064 29.5001 19.7152"
        stroke="#121212" stroke-linecap="round" />
    <path
        d="M30.0862 26.1802L29.6417 19.7449C29.6417 19.7449 32.0721 19.2195 33.6418 19.1014C35.0284 18.9971 37.1973 19.1014 37.1973 19.1014C37.1973 19.1014 36.9751 21.9973 36.7529 23.6061C36.5307 25.2149 35.864 27.4673 35.864 27.4673C33.6923 26.4581 32.4232 26.2797 30.0862 26.1802Z"
        fill="#F8F8F6" />
    <path
        d="M22.0828 17.2933C23.5037 16.8251 25.9501 16.3596 28.4213 16.5396C30.5281 16.6931 28.9142 22.2094 28.8331 23.2191C28.7871 23.7916 28.5577 24.2287 28.4451 24.6028C28.3123 25.0437 27.976 25.2145 27.6055 25.2848C26.4965 25.4952 25.9054 24.9825 25.2256 24.7237C24.6648 24.5103 24.1573 24.2794 22.8326 24.2069C22.4067 24.1837 22.1489 24.3244 21.9066 24.1156C21.6963 23.4891 21.5972 21.481 21.5812 18.9977C21.5652 18.0921 21.5331 17.9064 21.5001 17.7152"
        stroke="#121212" stroke-linecap="round" />
    <path
        d="M22.0862 24.1802L21.6417 17.7449C21.6417 17.7449 24.0721 17.2195 25.6418 17.1014C27.0284 16.9971 29.1973 17.1014 29.1973 17.1014C29.1973 17.1014 28.9751 19.9973 28.7529 21.6061C28.5307 23.2149 27.864 25.4673 27.864 25.4673C25.6923 24.4581 24.4232 24.2797 22.0862 24.1802Z"
        fill="#F8F8F6" />
    <path
        d="M29.0828 28.2077C30.5037 27.79 32.9501 27.3748 35.4213 27.5353C37.5281 27.6722 35.9142 32.5935 35.8331 33.4942C35.7871 34.0049 35.5577 34.395 35.4451 34.7287C35.3123 35.122 34.976 35.2744 34.6055 35.3371C33.4965 35.5248 32.9054 35.0674 32.2256 34.8365C31.6648 34.6461 31.1573 34.4401 29.8326 34.3755C29.4067 34.3547 29.1489 34.4803 28.9066 34.294C28.6963 33.7351 28.5972 31.9437 28.5812 29.7282C28.5652 28.9203 28.5331 28.7547 28.5001 28.5841"
        stroke="#121212" stroke-linecap="round" />
    <path
        d="M29.0862 34.3517L28.6417 28.6107C28.6417 28.6107 31.0721 28.1419 32.6418 28.0366C34.0284 27.9435 36.1973 28.0366 36.1973 28.0366C36.1973 28.0366 35.9751 30.6201 35.7529 32.0553C35.5307 33.4906 34.864 35.5 34.864 35.5C32.6923 34.5997 31.4232 34.4405 29.0862 34.3517Z"
        fill="#F8F8F6" />
</svg>