<svg width="133" height="41" viewBox="0 0 133 41" fill="none" xmlns="http://www.w3.org/2000/svg">
    <path
        d="M2.27881 14.21C2.27881 7.58254 7.65139 2.20996 14.2788 2.20996H118.279C124.906 2.20996 130.279 7.58254 130.279 14.21V27.21C130.279 33.8374 124.906 39.21 118.279 39.21H14.2788C7.65139 39.21 2.27881 33.8374 2.27881 27.21V14.21Z"
        fill="#303133" />
    <path
        d="M51.5538 1.69389L51.4404 0.952519L51.5538 1.69389ZM72.5538 3.22463L72.448 2.48214L72.5538 3.22463ZM113.468 3.50807L113.428 2.75916L113.468 3.50807ZM123.897 4.56156L123.688 5.28185L123.897 4.56156ZM124.419 4.71298L124.628 3.99269L124.419 4.71298ZM124.941 4.8644L124.732 5.58469L124.941 4.8644ZM129.316 11.2368L128.568 11.1888L129.316 11.2368ZM129.28 11.7934L130.029 11.8414L129.28 11.7934ZM129.245 12.35L128.496 12.3021L129.245 12.35ZM130.434 22.1331L131.149 21.9068L130.434 22.1331ZM130.602 22.6635L129.887 22.8897L130.602 22.6635ZM130.77 23.1938L131.485 22.9676L130.77 23.1938ZM129.283 32.0471L128.678 31.603L129.283 32.0471ZM128.617 32.9537L129.221 33.3978L128.617 32.9537ZM121.056 38.3079L121.258 39.0303L121.056 38.3079ZM120.549 38.4495L120.347 37.7271L120.549 38.4495ZM120.042 38.5911L120.244 39.3135L120.042 38.5911ZM110.754 39.9575L110.769 40.7074L110.754 39.9575ZM110.229 39.9677L110.215 39.2179L110.229 39.9677ZM109.704 39.978L109.719 40.7278L109.704 39.978ZM99.7294 38.7426L99.5456 39.4697L99.7294 38.7426ZM99.2044 38.6099L99.3883 37.8828L99.2044 38.6099ZM89.7544 37.3339L89.7415 38.0838L89.7544 37.3339ZM88.7044 37.3159L88.7173 36.566L88.7044 37.3159ZM79.2544 37.1735L79.2641 36.4236L79.2544 37.1735ZM78.2044 37.1599L78.1947 37.9099L78.2044 37.1599ZM68.7544 37.7986L68.6445 37.0567L68.7544 37.7986ZM68.2294 37.8763L68.3393 38.6183L68.2294 37.8763ZM67.7044 37.9541L67.5945 37.2122L67.7044 37.9541ZM58.2544 38.5607L58.2692 37.8108L58.2544 38.5607ZM57.7294 38.5503L57.7146 39.3002L57.7294 38.5503ZM57.2044 38.54L57.2192 37.7901L57.2044 38.54ZM47.7544 39.0823L47.6544 38.339L47.7544 39.0823ZM47.2294 39.1529L47.3294 39.8962L47.2294 39.1529ZM46.7044 39.2235L46.6045 38.4802L46.7044 39.2235ZM37.2544 39.044L37.3819 38.3049L37.2544 39.044ZM36.2044 38.8629L36.0769 39.6019L36.2044 38.8629ZM26.7544 39.274L26.9428 39.9999L26.7544 39.274ZM26.2294 39.4102L26.041 38.6843L26.2294 39.4102ZM25.7044 39.5465L25.8928 40.2724L25.7044 39.5465ZM16.297 39.7575L16.1381 40.4904L16.297 39.7575ZM15.7768 39.6447L15.9357 38.9117L15.7768 39.6447ZM15.2565 39.5319L15.0976 40.2648L15.2565 39.5319ZM6.33419 35.2915L6.78825 34.6946L6.33419 35.2915ZM5.91019 34.969L5.45613 35.5659L5.91019 34.969ZM1.2957 27.2039L0.555616 27.3254L1.2957 27.2039ZM1.20697 26.6636L0.466884 26.7852L1.20697 26.6636ZM1.46024 15.4504L0.724281 15.3059L1.46024 15.4504ZM5.90453 8.03091L5.45104 7.43355L5.90453 8.03091ZM12.2373 3.49153L11.8386 2.85632L12.2373 3.49153ZM12.4415 3.36337L12.8402 3.99858L12.4415 3.36337ZM19.5288 2.80533L19.4443 3.55055L19.9693 3.61009L20.0538 2.86486L20.1383 2.11964L19.6133 2.0601L19.5288 2.80533ZM20.0538 2.86486L19.9693 3.61009C23.2273 3.97955 26.4822 3.65381 29.7277 2.63886L29.5038 1.92305L29.28 1.20724C26.2254 2.16249 23.1803 2.46461 20.1383 2.11964L20.0538 2.86486ZM29.5038 1.92305L29.7277 2.63886L30.2527 2.47468L30.0288 1.75887L29.805 1.04305L29.28 1.20724L29.5038 1.92305ZM30.0288 1.75887L30.2527 2.47468L30.7777 2.3105L30.5538 1.59469L30.33 0.878872L29.805 1.04305L30.0288 1.75887ZM30.5538 1.59469L30.7777 2.3105C33.8024 1.36459 36.816 1.24757 39.8327 1.95448L40.0038 1.22426L40.1749 0.494039C36.8916 -0.275344 33.6052 -0.145407 30.33 0.878872L30.5538 1.59469ZM40.0038 1.22426L39.8327 1.95448L40.3577 2.0775L40.5288 1.34728L40.6999 0.617063L40.1749 0.494039L40.0038 1.22426ZM40.5288 1.34728L40.3577 2.0775L40.8827 2.20053L41.0538 1.47031L41.2249 0.740087L40.6999 0.617063L40.5288 1.34728ZM41.0538 1.47031L40.8827 2.20053C44.1245 2.96018 47.3711 3.09262 50.6172 2.59592L50.5038 1.85455L50.3904 1.11318C47.3365 1.58045 44.2831 1.45672 41.2249 0.740087L41.0538 1.47031ZM50.5038 1.85455L50.6172 2.59592L51.1422 2.51559L51.0288 1.77422L50.9154 1.03285L50.3904 1.11318L50.5038 1.85455ZM51.0288 1.77422L51.1422 2.51559L51.6672 2.43526L51.5538 1.69389L51.4404 0.952519L50.9154 1.03285L51.0288 1.77422ZM51.5538 1.69389L51.6672 2.43526C54.7055 1.97037 57.7449 2.18207 60.7929 3.07527L61.0038 2.35553L61.2147 1.6358C57.9627 0.68284 54.7021 0.453447 51.4404 0.952519L51.5538 1.69389ZM61.0038 2.35553L60.7929 3.07527L61.3179 3.22911L61.5288 2.50938L61.7397 1.78964L61.2147 1.6358L61.0038 2.35553ZM61.5288 2.50938L61.3179 3.22911L61.8429 3.38296L62.0538 2.66322L62.2647 1.94349L61.7397 1.78964L61.5288 2.50938ZM62.0538 2.66322L61.8429 3.38296C65.0923 4.33516 68.3503 4.58141 71.6096 4.1168L71.5038 3.3743L71.398 2.63181C68.3574 3.06524 65.3153 2.83743 62.2647 1.94349L62.0538 2.66322ZM71.5038 3.3743L71.6096 4.1168L72.1347 4.04196L72.0288 3.29947L71.923 2.55697L71.398 2.63181L71.5038 3.3743ZM72.0288 3.29947L72.1347 4.04196L72.6596 3.96712L72.5538 3.22463L72.448 2.48214L71.923 2.55697L72.0288 3.29947ZM72.5538 3.22463L72.6596 3.96712C75.7485 3.52682 78.8363 3.47137 81.9243 3.80055L82.0038 3.05477L82.0833 2.309C78.8714 1.96661 75.6591 2.0244 72.448 2.48214L72.5538 3.22463ZM82.0038 3.05477L81.9243 3.80055L82.4493 3.85651L82.5288 3.11074L82.6083 2.36496L82.0833 2.309L82.0038 3.05477ZM82.5288 3.11074L82.4493 3.85651L82.9743 3.91248L83.0538 3.1667L83.1333 2.42093L82.6083 2.36496L82.5288 3.11074ZM83.0538 3.1667L82.9743 3.91248C86.1591 4.25198 89.3444 4.36665 92.5297 4.25642L92.5038 3.50687L92.4779 2.75732C89.3632 2.8651 86.2485 2.753 83.1333 2.42093L83.0538 3.1667ZM92.5038 3.50687L92.5297 4.25642L93.0547 4.23825L93.0288 3.4887L93.0029 2.73915L92.4779 2.75732L92.5038 3.50687ZM93.0288 3.4887L93.0547 4.23825L93.5798 4.22008L93.5538 3.47053L93.5279 2.72098L93.0029 2.73915L93.0288 3.4887ZM93.5538 3.47053L93.5798 4.22008C96.7103 4.11175 99.8408 4.12528 102.971 4.26067L103.004 3.51137L103.036 2.76207C99.8668 2.625 96.6973 2.6113 93.5279 2.72098L93.5538 3.47053ZM103.004 3.51137L102.971 4.26067L103.496 4.28338L103.529 3.53408L103.561 2.78478L103.036 2.76207L103.004 3.51137ZM103.529 3.53408L103.496 4.28338L104.021 4.30608L104.054 3.55678L104.086 2.80748L103.561 2.78478L103.529 3.53408ZM104.054 3.55678L104.021 4.30608C107.195 4.44336 110.358 4.42701 113.509 4.25698L113.468 3.50807L113.428 2.75916C110.326 2.92655 107.212 2.94267 104.086 2.80748L104.054 3.55678ZM113.468 3.50807L113.509 4.25698L114.03 4.22887L113.99 3.47996L113.949 2.73105L113.428 2.75916L113.468 3.50807ZM113.99 3.47996L114.03 4.22887L114.551 4.20075L114.511 3.45184L114.47 2.70293L113.949 2.73105L113.99 3.47996ZM114.511 3.45184L114.551 4.20075C117.59 4.03677 120.634 4.39584 123.688 5.28185L123.897 4.56156L124.106 3.84127C120.897 2.91024 117.684 2.5295 114.47 2.70293L114.511 3.45184ZM123.897 4.56156L123.688 5.28185L124.21 5.43327L124.419 4.71298L124.628 3.99269L124.106 3.84127L123.897 4.56156ZM124.419 4.71298L124.21 5.43327L124.732 5.58469L124.941 4.8644L125.15 4.14411L124.628 3.99269L124.419 4.71298ZM124.941 4.8644L124.732 5.58469C126.176 6.00373 127.157 6.67876 127.765 7.56342C128.374 8.45039 128.667 9.63611 128.568 11.1888L129.316 11.2368L130.065 11.2848C130.179 9.49773 129.851 7.9515 129.001 6.71435C128.15 5.47488 126.836 4.63358 125.15 4.14411L124.941 4.8644ZM129.316 11.2368L128.568 11.1888L128.532 11.7454L129.28 11.7934L130.029 11.8414L130.065 11.2848L129.316 11.2368ZM129.28 11.7934L128.532 11.7454L128.496 12.3021L129.245 12.35L129.993 12.398L130.029 11.8414L129.28 11.7934ZM129.245 12.35L128.496 12.3021C128.276 15.7343 128.684 19.0883 129.719 22.3594L130.434 22.1331L131.149 21.9068C130.17 18.8133 129.785 15.6453 129.993 12.398L129.245 12.35ZM130.434 22.1331L129.719 22.3594L129.887 22.8897L130.602 22.6635L131.317 22.4372L131.149 21.9068L130.434 22.1331ZM130.602 22.6635L129.887 22.8897L130.055 23.4201L130.77 23.1938L131.485 22.9676L131.317 22.4372L130.602 22.6635ZM130.77 23.1938L130.055 23.4201C130.989 26.3711 130.537 29.0735 128.678 31.603L129.283 32.0471L129.887 32.4912C132.026 29.5809 132.565 26.3812 131.485 22.9676L130.77 23.1938ZM129.283 32.0471L128.678 31.603L128.345 32.0563L128.95 32.5004L129.554 32.9445L129.887 32.4912L129.283 32.0471ZM128.95 32.5004L128.345 32.0563L128.012 32.5097L128.617 32.9537L129.221 33.3978L129.554 32.9445L128.95 32.5004ZM128.617 32.9537L128.012 32.5097C126.106 35.1043 123.723 36.7843 120.854 37.5856L121.056 38.3079L121.258 39.0303C124.473 38.1324 127.13 36.243 129.221 33.3978L128.617 32.9537ZM121.056 38.3079L120.854 37.5856L120.347 37.7271L120.549 38.4495L120.751 39.1719L121.258 39.0303L121.056 38.3079ZM120.549 38.4495L120.347 37.7271L119.84 37.8687L120.042 38.5911L120.244 39.3135L120.751 39.1719L120.549 38.4495ZM120.042 38.5911L119.84 37.8687C116.859 38.7013 113.826 39.1475 110.74 39.2076L110.754 39.9575L110.769 40.7074C113.982 40.6447 117.141 40.18 120.244 39.3135L120.042 38.5911ZM110.754 39.9575L110.74 39.2076L110.215 39.2179L110.229 39.9677L110.244 40.7176L110.769 40.7074L110.754 39.9575ZM110.229 39.9677L110.215 39.2179L109.69 39.2281L109.704 39.978L109.719 40.7278L110.244 40.7176L110.229 39.9677ZM109.704 39.978L109.69 39.2281C106.609 39.2881 103.525 38.9288 100.438 38.1483L100.254 38.8754L100.071 39.6025C103.283 40.4148 106.5 40.7906 109.719 40.7278L109.704 39.978ZM100.254 38.8754L100.438 38.1483L99.9133 38.0155L99.7294 38.7426L99.5456 39.4697L100.071 39.6025L100.254 38.8754ZM99.7294 38.7426L99.9133 38.0155L99.3883 37.8828L99.2044 38.6099L99.0206 39.337L99.5456 39.4697L99.7294 38.7426ZM99.2044 38.6099L99.3883 37.8828C96.1841 37.0726 92.9768 36.6393 89.7673 36.5841L89.7544 37.3339L89.7415 38.0838C92.8321 38.137 95.9247 38.5543 99.0206 39.337L99.2044 38.6099ZM89.7544 37.3339L89.7673 36.5841L89.2423 36.575L89.2294 37.3249L89.2165 38.0748L89.7415 38.0838L89.7544 37.3339ZM89.2294 37.3249L89.2423 36.575L88.7173 36.566L88.7044 37.3159L88.6915 38.0658L89.2165 38.0748L89.2294 37.3249ZM88.7044 37.3159L88.7173 36.566C85.5663 36.5118 82.4152 36.4643 79.2641 36.4236L79.2544 37.1735L79.2447 37.9235C82.3937 37.9642 85.5426 38.0116 88.6915 38.0658L88.7044 37.3159ZM79.2544 37.1735L79.2641 36.4236L78.7391 36.4168L78.7294 37.1667L78.7197 37.9167L79.2447 37.9235L79.2544 37.1735ZM78.7294 37.1667L78.7391 36.4168L78.2141 36.41L78.2044 37.1599L78.1947 37.9099L78.7197 37.9167L78.7294 37.1667ZM78.2044 37.1599L78.2141 36.41C75.0237 36.3687 71.8337 36.5844 68.6445 37.0567L68.7544 37.7986L68.8643 38.5405C71.9751 38.0798 75.0852 37.8697 78.1947 37.9099L78.2044 37.1599ZM68.7544 37.7986L68.6445 37.0567L68.1195 37.1344L68.2294 37.8763L68.3393 38.6183L68.8643 38.5405L68.7544 37.7986ZM68.2294 37.8763L68.1195 37.1344L67.5945 37.2122L67.7044 37.9541L67.8143 38.696L68.3393 38.6183L68.2294 37.8763ZM67.7044 37.9541L67.5945 37.2122C64.4854 37.6726 61.3771 37.8721 58.2692 37.8108L58.2544 38.5607L58.2396 39.3105C61.4318 39.3735 64.6235 39.1685 67.8143 38.696L67.7044 37.9541ZM58.2544 38.5607L58.2692 37.8108L57.7442 37.8005L57.7294 38.5503L57.7146 39.3002L58.2396 39.3105L58.2544 38.5607ZM57.7294 38.5503L57.7442 37.8005L57.2192 37.7901L57.2044 38.54L57.1896 39.2898L57.7146 39.3002L57.7294 38.5503ZM57.2044 38.54L57.2192 37.7901C54.0305 37.7272 50.8421 37.9103 47.6544 38.339L47.7544 39.0823L47.8544 39.8256C50.9667 39.407 54.0783 39.2285 57.1896 39.2898L57.2044 38.54ZM47.7544 39.0823L47.6544 38.339L47.1294 38.4096L47.2294 39.1529L47.3294 39.8962L47.8544 39.8256L47.7544 39.0823ZM47.2294 39.1529L47.1294 38.4096L46.6045 38.4802L46.7044 39.2235L46.8044 39.9669L47.3294 39.8962L47.2294 39.1529ZM46.7044 39.2235L46.6045 38.4802C43.5305 38.8937 40.4572 38.8354 37.3819 38.3049L37.2544 39.044L37.1269 39.7831C40.3517 40.3393 43.5784 40.4008 46.8044 39.9669L46.7044 39.2235ZM37.2544 39.044L37.3819 38.3049L36.8569 38.2143L36.7294 38.9534L36.6019 39.6925L37.1269 39.7831L37.2544 39.044ZM36.7294 38.9534L36.8569 38.2143L36.3319 38.1238L36.2044 38.8629L36.0769 39.6019L36.6019 39.6925L36.7294 38.9534ZM36.2044 38.8629L36.3319 38.1238C33.0749 37.5619 29.8173 37.7043 26.566 38.548L26.7544 39.274L26.9428 39.9999C29.9916 39.2087 33.0339 39.077 36.0769 39.6019L36.2044 38.8629ZM26.7544 39.274L26.566 38.548L26.041 38.6843L26.2294 39.4102L26.4178 40.1362L26.9428 39.9999L26.7544 39.274ZM26.2294 39.4102L26.041 38.6843L25.516 38.8205L25.7044 39.5465L25.8928 40.2724L26.4178 40.1362L26.2294 39.4102ZM25.7044 39.5465L25.516 38.8205C22.4774 39.6091 19.4606 39.6759 16.4559 39.0245L16.297 39.7575L16.1381 40.4904C19.3767 41.1926 22.6314 41.1188 25.8928 40.2724L25.7044 39.5465ZM16.297 39.7575L16.4559 39.0245L15.9357 38.9117L15.7768 39.6447L15.6178 40.3776L16.1381 40.4904L16.297 39.7575ZM15.7768 39.6447L15.9357 38.9117L15.4154 38.7989L15.2565 39.5319L15.0976 40.2648L15.6178 40.3776L15.7768 39.6447ZM15.2565 39.5319L15.4154 38.7989C12.401 38.1453 9.66898 36.8859 7.21224 35.0171L6.75818 35.614L6.30411 36.211C8.93525 38.2124 11.8688 39.5648 15.0976 40.2648L15.2565 39.5319ZM6.75818 35.614L7.21224 35.0171L6.78825 34.6946L6.33419 35.2915L5.88012 35.8884L6.30411 36.211L6.75818 35.614ZM6.33419 35.2915L6.78825 34.6946L6.36426 34.3721L5.91019 34.969L5.45613 35.5659L5.88012 35.8884L6.33419 35.2915ZM5.91019 34.969L6.36426 34.3721C3.97756 32.5566 2.53806 30.1406 2.03579 27.0823L1.2957 27.2039L0.555616 27.3254C1.11812 30.7504 2.75495 33.5112 5.45613 35.5659L5.91019 34.969ZM1.2957 27.2039L2.03579 27.0823L1.94705 26.5421L1.20697 26.6636L0.466884 26.7852L0.555616 27.3254L1.2957 27.2039ZM1.20697 26.6636L1.94705 26.5421L1.85832 26.0018L1.11824 26.1233L0.378153 26.2449L0.466884 26.7852L1.20697 26.6636ZM1.11824 26.1233L1.85832 26.0018C1.34017 22.8468 1.38419 19.7314 1.98881 16.6513L1.25286 16.5069L0.516903 16.3624C-0.122748 19.621 -0.168469 22.9166 0.378153 26.2449L1.11824 26.1233ZM1.25286 16.5069L1.98881 16.6513L2.0925 16.1231L1.35655 15.9786L0.620592 15.8342L0.516903 16.3624L1.25286 16.5069ZM1.35655 15.9786L2.0925 16.1231L2.19619 15.5949L1.46024 15.4504L0.724281 15.3059L0.620592 15.8342L1.35655 15.9786ZM1.46024 15.4504L2.19619 15.5949C2.78668 12.5867 4.17875 10.2827 6.35803 8.62827L5.90453 8.03091L5.45104 7.43355C2.94886 9.33311 1.37806 11.9754 0.724281 15.3059L1.46024 15.4504ZM5.90453 8.03091L6.35803 8.62827L6.74815 8.33211L6.29465 7.73475L5.84116 7.13738L5.45104 7.43355L5.90453 8.03091ZM6.29465 7.73475L6.74815 8.33211L7.13827 8.03594L6.68478 7.43858L6.23128 6.84122L5.84116 7.13738L6.29465 7.73475ZM6.68478 7.43858L7.13827 8.03594C9.47543 6.26166 11.2365 5.00536 12.432 4.25489L12.0332 3.61968L11.6344 2.98447C10.3801 3.77189 8.57559 5.06151 6.23128 6.84122L6.68478 7.43858ZM12.0332 3.61968L12.432 4.25489L12.6361 4.12673L12.2373 3.49153L11.8386 2.85632L11.6344 2.98447L12.0332 3.61968ZM12.2373 3.49153L12.6361 4.12673L12.8402 3.99858L12.4415 3.36337L12.0427 2.72816L11.8386 2.85632L12.2373 3.49153ZM12.4415 3.36337L12.8402 3.99858C13.3152 3.70042 14.0388 3.47612 15.071 3.37897C16.0961 3.2825 17.3752 3.31591 18.9193 3.49101L19.0038 2.74579L19.0883 2.00057C17.4824 1.81845 16.0928 1.77618 14.9305 1.88557C13.7753 1.99429 12.7927 2.25738 12.0427 2.72816L12.4415 3.36337ZM19.0038 2.74579L18.9193 3.49101L19.4443 3.55055L19.5288 2.80533L19.6133 2.0601L19.0883 2.00057L19.0038 2.74579Z"
        fill="#121212" />
    <path
        d="M31.5021 29.662C31.2821 29.574 31.0255 29.4493 30.7321 29.288C30.4388 29.1413 30.1601 28.9433 29.8961 28.694C29.6321 28.4446 29.4268 28.144 29.2801 27.792C29.1335 27.3666 29.0308 26.9486 28.9721 26.538C28.9281 26.1273 28.9135 25.6506 28.9281 25.108C28.9281 24.3453 28.9795 23.6853 29.0821 23.128C29.1995 22.556 29.3755 21.9766 29.6101 21.39C29.6395 21.346 29.6908 21.2213 29.7641 21.016C29.8521 20.796 29.9475 20.5613 30.0501 20.312C30.1675 20.0626 30.2555 19.872 30.3141 19.74C30.4315 19.4906 30.6075 19.1606 30.8421 18.75C31.0915 18.3246 31.3555 17.914 31.6341 17.518C32.0595 16.8873 32.4188 16.374 32.7121 15.978C33.0055 15.5673 33.2841 15.2226 33.5481 14.944C33.8268 14.6653 34.1275 14.394 34.4501 14.13C34.7875 13.866 35.2055 13.5653 35.7041 13.228C36.0268 12.9933 36.4375 12.8466 36.9361 12.788C37.4495 12.7293 37.9481 12.81 38.4321 13.03C38.9161 13.2353 39.2755 13.6313 39.5101 14.218C39.6715 14.526 39.7448 14.9146 39.7301 15.384C39.7155 15.8386 39.6275 16.33 39.4661 16.858C39.3048 17.3713 39.0995 17.8553 38.8501 18.31C38.6008 18.7646 38.3221 19.1313 38.0141 19.41C37.8235 19.586 37.5668 19.6153 37.2441 19.498C36.9361 19.3806 36.6795 19.2266 36.4741 19.036C36.3421 18.7866 36.2688 18.64 36.2541 18.596C36.2541 18.552 36.2835 18.5226 36.3421 18.508C36.4301 18.4053 36.5475 18.2293 36.6941 17.98C36.8408 17.7306 36.9875 17.4666 37.1341 17.188C37.2808 16.8946 37.3835 16.66 37.4421 16.484C37.5595 15.868 37.6401 15.4646 37.6841 15.274C37.7281 15.0686 37.6841 14.9 37.5521 14.768C37.4935 14.7093 37.4055 14.6873 37.2881 14.702C37.1855 14.7166 37.0095 14.79 36.7601 14.922C36.4228 15.0686 36.0195 15.3693 35.5501 15.824C35.0955 16.264 34.6408 16.792 34.1861 17.408C33.5995 18.1853 33.1081 18.8746 32.7121 19.476C32.3161 20.0773 32.0155 20.6933 31.8101 21.324C31.7808 21.3826 31.7295 21.4926 31.6561 21.654C31.5975 21.8153 31.5681 21.896 31.5681 21.896C31.5828 21.9546 31.5608 22.1013 31.5021 22.336C31.4435 22.556 31.3775 22.7466 31.3041 22.908C31.1428 23.5826 31.0475 24.2353 31.0181 24.866C30.9888 25.482 31.0255 26.0246 31.1281 26.494C31.2455 26.9486 31.4141 27.286 31.6341 27.506C31.8248 27.638 32.0668 27.682 32.3601 27.638C32.6535 27.594 32.9908 27.4913 33.3721 27.33C33.7535 27.1686 34.1641 26.9926 34.6041 26.802C34.9561 26.6553 35.2788 26.494 35.5721 26.318C35.8655 26.142 36.0855 25.988 36.2321 25.856C36.3495 25.768 36.4961 25.68 36.6721 25.592C36.8628 25.4893 37.0241 25.438 37.1561 25.438C37.3615 25.3646 37.5155 25.4233 37.6181 25.614C37.7208 25.8046 37.7721 26.0466 37.7721 26.34C37.7721 26.5453 37.6255 26.7946 37.3321 27.088C37.0388 27.3813 36.7161 27.6306 36.3641 27.836C36.2468 27.9533 36.0855 28.0633 35.8801 28.166C35.6895 28.254 35.4915 28.3346 35.2861 28.408C34.9781 28.6426 34.5968 28.87 34.1421 29.09C33.6875 29.31 33.2255 29.4786 32.7561 29.596C32.3015 29.7133 31.8835 29.7353 31.5021 29.662ZM40.8205 28.056C40.6298 28.056 40.4758 28.0193 40.3585 27.946C40.2558 27.8726 40.1238 27.77 39.9625 27.638C39.6838 27.3446 39.4565 27.0293 39.2805 26.692C39.1192 26.3546 39.0605 26.0613 39.1045 25.812C39.1485 25.6946 39.1632 25.5846 39.1485 25.482C39.1485 25.3646 39.1485 25.306 39.1485 25.306C39.0752 25.2326 39.0532 25.1886 39.0825 25.174C39.1118 25.1446 39.1412 25.1006 39.1705 25.042C39.2585 25.042 39.2878 24.9613 39.2585 24.8C39.2292 24.6826 39.2732 24.4333 39.3905 24.052C39.5225 23.656 39.6985 23.282 39.9185 22.93C40.0065 22.7833 40.1385 22.5926 40.3145 22.358C40.4905 22.1086 40.6812 21.8666 40.8865 21.632C41.1065 21.3826 41.3045 21.1846 41.4805 21.038C41.8472 20.73 42.1845 20.4806 42.4925 20.29C42.8152 20.0993 43.1378 19.9673 43.4605 19.894C43.7832 19.8206 44.1132 19.784 44.4505 19.784C44.8025 19.784 45.0885 19.9013 45.3085 20.136C45.6458 20.2826 45.8805 20.4806 46.0125 20.73C46.1592 20.9793 46.2545 21.302 46.2985 21.698C46.3425 22.138 46.2985 22.6806 46.1665 23.326C46.0345 23.9566 45.6752 24.69 45.0885 25.526C44.7218 26.054 44.3625 26.4646 44.0105 26.758C43.6585 27.0513 43.2698 27.3226 42.8445 27.572C42.5365 27.7773 42.2065 27.902 41.8545 27.946C41.5025 27.99 41.1578 28.0266 40.8205 28.056ZM43.0645 25.372C43.3872 25.0933 43.6145 24.7853 43.7465 24.448C43.8932 24.1106 44.0472 23.7146 44.2085 23.26C44.2672 23.172 44.3038 23.0253 44.3185 22.82C44.3478 22.6146 44.3552 22.4166 44.3405 22.226C44.3258 22.0206 44.2745 21.9033 44.1865 21.874C44.0545 21.7713 43.9225 21.7493 43.7905 21.808C43.6585 21.852 43.4898 21.9473 43.2845 22.094C42.8445 22.4606 42.4338 22.886 42.0525 23.37C41.6858 23.8393 41.4292 24.4186 41.2825 25.108C41.2385 25.4746 41.2752 25.7533 41.3925 25.944C41.5245 26.12 41.7298 26.1713 42.0085 26.098C42.3018 26.01 42.6538 25.768 43.0645 25.372ZM57.5472 27.682C57.4445 27.6526 57.2832 27.5573 57.0632 27.396C56.8432 27.2346 56.6452 26.9926 56.4692 26.67C56.3079 26.3473 56.2345 25.9293 56.2492 25.416C56.2639 24.976 56.2932 24.668 56.3372 24.492C56.3959 24.3013 56.3739 24.1986 56.2712 24.184C56.1979 24.1693 56.0512 24.2353 55.8312 24.382C55.6112 24.5286 55.3252 24.7633 54.9732 25.086C54.6212 25.4086 54.1959 25.834 53.6972 26.362C53.5212 26.5086 53.3232 26.692 53.1032 26.912C52.8979 27.1173 52.6852 27.2713 52.4652 27.374C52.2599 27.4766 52.0765 27.4546 51.9152 27.308L51.6952 27.11C51.5925 27.022 51.5045 26.9046 51.4312 26.758C51.3579 26.6113 51.3359 26.4866 51.3652 26.384L51.9812 24.668C52.1572 24.2866 52.2745 24.008 52.3332 23.832C52.4065 23.656 52.4359 23.546 52.4212 23.502C52.4212 23.458 52.3845 23.4433 52.3112 23.458C52.2232 23.4726 52.0985 23.5533 51.9372 23.7C51.7759 23.832 51.6659 23.942 51.6072 24.03C51.5485 24.03 51.4679 24.0886 51.3652 24.206C51.2772 24.3233 51.1892 24.426 51.1012 24.514C51.0132 24.602 50.8592 24.7706 50.6392 25.02C50.4192 25.2546 50.1845 25.504 49.9352 25.768C49.7445 25.944 49.5245 26.1786 49.2752 26.472C49.0259 26.7653 48.8059 27.0293 48.6152 27.264C48.4245 27.4986 48.3072 27.616 48.2632 27.616C47.9992 27.6013 47.7572 27.5133 47.5372 27.352C47.3319 27.1906 47.1925 26.9926 47.1192 26.758C47.0312 26.5966 47.0239 26.3033 47.0972 25.878C47.1705 25.438 47.3099 24.7413 47.5152 23.788C47.5739 23.568 47.6252 23.3773 47.6692 23.216C47.7279 23.0546 47.7865 22.8933 47.8452 22.732C47.9039 22.5706 47.9699 22.3873 48.0432 22.182C48.1312 21.9766 48.2412 21.7273 48.3732 21.434C48.4465 21.2286 48.4759 21.038 48.4612 20.862C48.4465 20.6713 48.4319 20.5173 48.4172 20.4C48.4172 20.18 48.4832 20.004 48.6152 19.872C48.7619 19.74 48.9232 19.652 49.0992 19.608C49.2752 19.5493 49.4145 19.5346 49.5172 19.564C49.9279 19.608 50.2065 19.7546 50.3532 20.004C50.4999 20.2533 50.5805 20.4953 50.5952 20.73C50.6099 20.95 50.5805 21.148 50.5072 21.324C50.4339 21.5 50.3752 21.6466 50.3312 21.764L50.0892 22.358C49.9425 22.6953 49.8325 22.9446 49.7592 23.106C49.7005 23.2526 49.6639 23.3553 49.6492 23.414C49.6492 23.458 49.6492 23.502 49.6492 23.546C49.6639 23.59 49.7299 23.568 49.8472 23.48C49.9645 23.392 50.1039 23.2746 50.2652 23.128C50.4412 22.9666 50.6025 22.8273 50.7492 22.71C51.0132 22.49 51.2919 22.27 51.5852 22.05C51.8932 21.8153 52.1939 21.61 52.4872 21.434C52.7805 21.258 53.0225 21.1406 53.2132 21.082C53.4625 21.126 53.6899 21.2506 53.8952 21.456C54.1152 21.6613 54.2545 21.8373 54.3132 21.984C54.3865 22.204 54.3939 22.402 54.3352 22.578C54.2912 22.754 54.2545 22.9153 54.2252 23.062C54.2105 23.1206 54.1812 23.2306 54.1372 23.392C54.0932 23.5533 54.0492 23.7073 54.0052 23.854C53.9612 23.986 53.9392 24.052 53.9392 24.052C53.9392 24.052 53.9832 24.008 54.0712 23.92C54.1592 23.832 54.2765 23.7293 54.4232 23.612C54.5699 23.48 54.7165 23.3626 54.8632 23.26C55.5965 22.7026 56.1759 22.3506 56.6012 22.204C57.0412 22.0426 57.4152 22.1673 57.7232 22.578C57.8992 22.7393 58.0092 22.9593 58.0532 23.238C58.1119 23.5166 58.1412 23.8906 58.1412 24.36C58.1559 24.5506 58.1705 24.7633 58.1852 24.998C58.2145 25.2326 58.2439 25.438 58.2732 25.614C58.3172 25.79 58.3539 25.9 58.3832 25.944C58.4272 26.0026 58.5079 26.0613 58.6252 26.12C58.7425 26.164 58.8525 26.2006 58.9552 26.23C59.1605 26.3326 59.2705 26.5233 59.2852 26.802C59.3145 27.066 59.2119 27.2713 58.9772 27.418C58.7572 27.55 58.5225 27.6306 58.2732 27.66C58.0385 27.6893 57.7965 27.6966 57.5472 27.682ZM62.0426 28.606C61.2359 28.606 60.6126 28.3713 60.1726 27.902C59.7473 27.4326 59.5346 26.714 59.5346 25.746C59.5346 25.218 59.6299 24.6386 59.8206 24.008C60.0259 23.3773 60.2899 22.7613 60.6126 22.16C60.9499 21.5586 61.3166 21.038 61.7126 20.598C62.1086 20.1433 62.5046 19.828 62.9006 19.652C63.0473 19.5786 63.2013 19.5273 63.3626 19.498C63.5386 19.454 63.7073 19.432 63.8686 19.432C64.0446 19.432 64.2353 19.4466 64.4406 19.476C64.6606 19.4906 64.8659 19.5346 65.0566 19.608C65.3939 19.7106 65.6873 19.9086 65.9366 20.202C66.2006 20.4953 66.3326 20.9206 66.3326 21.478C66.3326 21.6246 66.3179 21.786 66.2886 21.962C66.2593 22.1233 66.2079 22.2846 66.1346 22.446C65.9439 22.93 65.6506 23.392 65.2546 23.832C64.8733 24.272 64.4699 24.58 64.0446 24.756C63.9273 24.8146 63.8099 24.8586 63.6926 24.888C63.5899 24.9026 63.4799 24.91 63.3626 24.91C63.0546 24.91 62.7759 24.866 62.5266 24.778C62.2919 24.69 62.0719 24.5726 61.8666 24.426L61.6906 24.272L61.5806 24.492C61.4779 24.7706 61.4046 25.0053 61.3606 25.196C61.3313 25.3866 61.3166 25.526 61.3166 25.614C61.3166 25.79 61.3239 25.9733 61.3386 26.164C61.3533 26.34 61.3973 26.4866 61.4706 26.604C61.5293 26.6773 61.6026 26.736 61.6906 26.78C61.7933 26.824 61.9179 26.846 62.0646 26.846C62.1526 26.846 62.2333 26.846 62.3066 26.846C62.3946 26.8313 62.4679 26.8166 62.5266 26.802C62.7906 26.7433 63.0033 26.648 63.1646 26.516C63.3406 26.3693 63.5239 26.2446 63.7146 26.142L63.8026 26.098L63.7806 26.032C64.0299 25.9 64.1986 25.8193 64.2866 25.79C64.3746 25.746 64.4406 25.7093 64.4846 25.68C64.5433 25.6213 64.6093 25.592 64.6826 25.592C64.8879 25.5626 65.0859 25.6213 65.2766 25.768C65.4819 25.9 65.5846 26.0686 65.5846 26.274C65.5846 26.362 65.5186 26.5013 65.3866 26.692C65.2693 26.8826 65.1153 27.0733 64.9246 27.264C64.7486 27.44 64.5653 27.5793 64.3746 27.682C64.3306 27.6966 64.2866 27.7186 64.2426 27.748C64.1986 27.7626 64.1546 27.7846 64.1106 27.814H64.1326C64.0006 27.99 63.8686 28.078 63.7366 28.078H63.5606C63.5019 28.1806 63.3113 28.2906 62.9886 28.408C62.6659 28.54 62.3506 28.606 62.0426 28.606ZM63.1866 23.304C63.3186 23.304 63.4359 23.282 63.5386 23.238C63.6559 23.194 63.7659 23.1426 63.8686 23.084C64.2206 22.8346 64.4479 22.512 64.5506 22.116C64.6533 21.72 64.6166 21.4193 64.4406 21.214C64.4113 21.17 64.3746 21.1406 64.3306 21.126C64.2866 21.0966 64.2353 21.082 64.1766 21.082C64.0153 21.082 63.8319 21.1333 63.6266 21.236C63.4359 21.3386 63.2453 21.4853 63.0546 21.676C62.8639 21.8666 62.6879 22.094 62.5266 22.358L62.2406 22.82C62.2699 22.8053 62.2919 22.798 62.3066 22.798C62.3359 22.7833 62.3579 22.776 62.3726 22.776C62.5046 22.776 62.5926 22.82 62.6366 22.908C62.6806 22.996 62.7319 23.084 62.7906 23.172C62.8639 23.26 62.9959 23.304 63.1866 23.304ZM74.5864 27.902C74.3957 27.946 74.1464 27.9166 73.8384 27.814C73.5304 27.6966 73.2297 27.5573 72.9364 27.396C72.6577 27.22 72.4671 27.0806 72.3644 26.978C72.2617 26.8606 72.2324 26.758 72.2764 26.67C72.3204 26.5673 72.3937 26.516 72.4964 26.516C72.5551 26.516 72.6504 26.4573 72.7824 26.34C72.9144 26.208 72.9951 25.9733 73.0244 25.636C73.0537 25.4306 73.0904 25.2546 73.1344 25.108C73.1931 24.9466 73.2224 24.8366 73.2224 24.778C73.2371 24.734 73.2517 24.6166 73.2664 24.426C73.2957 24.2206 73.3397 24.0446 73.3984 23.898C73.4571 23.634 73.5451 23.2966 73.6624 22.886C73.7797 22.4606 73.8971 22.05 74.0144 21.654C74.1464 21.2433 74.2491 20.928 74.3224 20.708C74.3517 20.5466 74.4177 20.3413 74.5204 20.092C74.6231 19.8426 74.7111 19.6446 74.7844 19.498C74.9311 19.0873 75.1291 18.5886 75.3784 18.002C75.6424 17.4153 75.9137 16.8286 76.1924 16.242C76.4711 15.6406 76.7131 15.1346 76.9184 14.724C77.1384 14.2986 77.2777 14.042 77.3364 13.954C77.4537 13.8366 77.6444 13.7926 77.9084 13.822C78.1724 13.8513 78.3851 13.9466 78.5464 14.108C78.6784 14.2693 78.8031 14.438 78.9204 14.614C79.0377 14.79 79.0084 14.9806 78.8324 15.186C78.7737 15.2886 78.6784 15.45 78.5464 15.67C78.4144 15.8753 78.3117 16.0293 78.2384 16.132C78.1211 16.484 77.9744 16.8286 77.7984 17.166C77.6371 17.5033 77.4611 17.8846 77.2704 18.31C77.0797 18.7206 76.8744 19.234 76.6544 19.85C76.5224 20.1286 76.4124 20.4073 76.3244 20.686C76.2364 20.95 76.1631 21.1186 76.1044 21.192C76.0164 21.5146 75.9211 21.7566 75.8184 21.918C75.7304 22.0793 75.6571 22.336 75.5984 22.688C75.5984 22.688 75.6717 22.6146 75.8184 22.468C75.9797 22.3213 76.1704 22.138 76.3904 21.918C76.9624 21.302 77.4757 20.8326 77.9304 20.51C78.3851 20.1873 78.8031 20.0186 79.1844 20.004C79.3897 19.9893 79.6097 20.0406 79.8444 20.158C80.0937 20.2753 80.3211 20.422 80.5264 20.598C80.7317 20.7593 80.8711 20.9353 80.9444 21.126C81.0617 21.39 81.1204 21.7346 81.1204 22.16C81.1204 22.5706 81.0544 22.996 80.9224 23.436C80.8051 23.876 80.6144 24.2646 80.3504 24.602C80.1891 24.8806 79.9911 25.152 79.7564 25.416C79.5364 25.6653 79.3457 25.8486 79.1844 25.966C79.0377 26.098 78.8911 26.23 78.7444 26.362C78.6124 26.4793 78.5024 26.5746 78.4144 26.648C78.2237 26.78 78.0697 26.8826 77.9524 26.956C77.8351 27.0146 77.6737 27.0806 77.4684 27.154C77.1604 27.374 76.7351 27.5353 76.1924 27.638C75.6497 27.7406 75.1144 27.8286 74.5864 27.902ZM75.1364 26.23C75.2391 26.23 75.4224 26.208 75.6864 26.164C75.9651 26.12 76.2217 26.01 76.4564 25.834C77.1457 25.482 77.6957 25.0933 78.1064 24.668C78.5317 24.2426 78.8324 23.8173 79.0084 23.392C79.1844 22.9666 79.2577 22.5853 79.2284 22.248C79.1991 21.9106 79.0157 21.808 78.6784 21.94C78.3557 22.0573 77.8497 22.4606 77.1604 23.15C76.8377 23.4433 76.5591 23.722 76.3244 23.986C76.0897 24.25 75.8477 24.5286 75.5984 24.822C75.4957 24.9833 75.3931 25.1153 75.2904 25.218C75.2024 25.306 75.1511 25.4086 75.1364 25.526C75.0337 25.9953 75.0337 26.23 75.1364 26.23ZM83.5698 27.814C83.3938 27.858 83.1958 27.8066 82.9758 27.66C82.7558 27.5133 82.5578 27.33 82.3818 27.11C82.2058 26.89 82.0958 26.692 82.0518 26.516C81.9931 26.208 82.0078 25.834 82.0958 25.394C82.1984 24.9393 82.3671 24.4626 82.6018 23.964C82.8364 23.4506 83.1298 22.952 83.4818 22.468C83.8338 21.9693 84.2298 21.522 84.6698 21.126C85.1098 20.73 85.5864 20.422 86.0998 20.202C86.3198 20.0846 86.4738 20.0113 86.5618 19.982C86.6498 19.938 86.7378 19.938 86.8258 19.982C86.9138 20.0113 87.0678 20.0846 87.2878 20.202C87.4931 20.2606 87.6984 20.334 87.9038 20.422C88.1238 20.4953 88.3144 20.642 88.4758 20.862C88.5931 21.082 88.6811 21.302 88.7398 21.522C88.7984 21.742 88.8498 21.9913 88.8938 22.27C89.0111 22.6366 89.0551 22.8786 89.0258 22.996C88.9964 23.0986 88.9524 23.1793 88.8938 23.238C88.7764 23.3846 88.7471 23.458 88.8058 23.458C88.8058 23.458 88.7984 23.4873 88.7838 23.546C88.7838 23.59 88.7544 23.6633 88.6958 23.766C88.5931 24.0886 88.5124 24.3966 88.4538 24.69C88.4098 24.9686 88.4171 25.218 88.4758 25.438C88.5931 25.7606 88.7471 25.9513 88.9378 26.01C89.1431 26.0686 89.4071 25.9366 89.7298 25.614C89.8911 25.4966 90.0744 25.4233 90.2798 25.394C90.4851 25.35 90.5878 25.3866 90.5878 25.504C90.5878 25.504 90.6098 25.526 90.6538 25.57C90.6978 25.5993 90.7491 25.614 90.8078 25.614C90.8811 25.614 90.9104 25.6873 90.8958 25.834C90.8811 25.966 90.8518 26.12 90.8078 26.296C90.7638 26.472 90.7051 26.6186 90.6318 26.736C90.4118 26.956 90.3018 27.1026 90.3018 27.176C90.3018 27.176 90.2724 27.2053 90.2138 27.264C90.1698 27.308 90.0891 27.3813 89.9718 27.484C89.7078 27.6453 89.3704 27.726 88.9598 27.726C88.5638 27.726 88.2558 27.6453 88.0358 27.484C87.8158 27.3226 87.5958 27.1246 87.3758 26.89C87.1704 26.6553 87.0384 26.4353 86.9798 26.23L86.8698 26.01L86.2318 26.428C86.0704 26.5893 85.9531 26.714 85.8798 26.802C85.8064 26.8753 85.7404 26.9413 85.6818 27C85.6378 27.0586 85.5864 27.11 85.5278 27.154C85.4838 27.198 85.4324 27.22 85.3738 27.22C85.3151 27.22 85.2638 27.22 85.2198 27.22C85.1758 27.22 85.1538 27.22 85.1538 27.22C85.1538 27.2786 85.0511 27.3593 84.8458 27.462C84.6404 27.55 84.4131 27.6306 84.1638 27.704C83.9144 27.7773 83.7164 27.814 83.5698 27.814ZM84.0318 25.966C84.1198 25.966 84.2518 25.9146 84.4278 25.812C84.6184 25.6946 84.8238 25.5553 85.0438 25.394C85.2638 25.2326 85.4618 25.0713 85.6378 24.91C85.8284 24.7486 85.9678 24.6166 86.0558 24.514C86.1144 24.4553 86.1804 24.36 86.2538 24.228C86.3418 24.096 86.4371 23.9786 86.5398 23.876C86.8771 23.4946 87.0898 23.194 87.1778 22.974C87.2658 22.7393 87.2291 22.49 87.0678 22.226C87.0091 22.0646 86.9358 21.9766 86.8478 21.962C86.7598 21.9473 86.5764 21.9986 86.2978 22.116C86.1218 22.2186 85.9311 22.3873 85.7258 22.622C85.5204 22.8566 85.3078 23.1206 85.0878 23.414C84.8824 23.7073 84.6918 24.008 84.5158 24.316C84.3398 24.624 84.1931 24.9026 84.0758 25.152C83.9731 25.4013 83.9218 25.5993 83.9218 25.746C83.9218 25.8046 83.9364 25.856 83.9658 25.9C84.0098 25.944 84.0318 25.966 84.0318 25.966ZM94.7446 28.012C94.5539 28.1 94.3339 28.1366 94.0846 28.122C93.8352 28.1073 93.4979 28.0266 93.0726 27.88C93.0432 27.88 92.9406 27.814 92.7646 27.682C92.5886 27.55 92.4126 27.396 92.2366 27.22C92.0606 27.044 91.9432 26.8973 91.8846 26.78C91.6499 26.4426 91.5766 25.944 91.6646 25.284C91.7672 24.624 92.0019 23.832 92.3686 22.908C92.4712 22.688 92.6252 22.4093 92.8306 22.072C93.0506 21.7346 93.2632 21.4266 93.4686 21.148C93.6886 20.8546 93.8426 20.686 93.9306 20.642C93.9306 20.642 94.0112 20.6126 94.1726 20.554C94.3339 20.4953 94.5392 20.4 94.7886 20.268C94.8619 20.2386 94.9866 20.202 95.1626 20.158C95.3532 20.114 95.5439 20.0773 95.7346 20.048C95.9399 20.004 96.0792 19.9893 96.1526 20.004C96.4459 20.0186 96.7466 20.1286 97.0546 20.334C97.3772 20.5246 97.6412 20.752 97.8466 21.016C98.0519 21.2653 98.1179 21.4853 98.0446 21.676C98.0446 21.7053 98.0006 21.8006 97.9126 21.962C97.8392 22.1086 97.7586 22.2626 97.6706 22.424C97.5826 22.5706 97.5092 22.6806 97.4506 22.754C97.3772 22.842 97.2452 22.8786 97.0546 22.864C96.8786 22.8493 96.7172 22.7906 96.5706 22.688C96.4239 22.5853 96.3432 22.446 96.3286 22.27C96.2992 22.1526 96.1892 22.0426 95.9986 21.94C95.8226 21.8373 95.7346 21.786 95.7346 21.786C95.6172 21.786 95.4632 21.9033 95.2726 22.138C95.0819 22.3726 94.8839 22.6366 94.6786 22.93C94.4146 23.194 94.2239 23.48 94.1066 23.788C94.0039 24.0813 93.9306 24.36 93.8866 24.624C93.8572 24.8733 93.8206 25.064 93.7766 25.196C93.7179 25.3426 93.7179 25.526 93.7766 25.746C93.8352 25.966 93.9086 26.0906 93.9966 26.12C94.1286 26.1346 94.3046 26.1273 94.5246 26.098C94.7592 26.054 95.0012 26.0026 95.2506 25.944C95.5146 25.8706 95.7786 25.7973 96.0426 25.724C96.3066 25.636 96.5412 25.548 96.7466 25.46C97.0252 25.284 97.2672 25.218 97.4726 25.262C97.6779 25.2913 97.8319 25.3206 97.9346 25.35C98.0959 25.4086 98.1766 25.5333 98.1766 25.724C98.1766 25.9146 98.1106 26.12 97.9786 26.34C97.8466 26.5453 97.6559 26.714 97.4066 26.846C97.1719 26.9633 96.9592 27.0953 96.7686 27.242C96.5926 27.374 96.5046 27.4766 96.5046 27.55C96.4459 27.55 96.3799 27.572 96.3066 27.616C96.2479 27.6453 96.1966 27.6526 96.1526 27.638C96.1232 27.638 96.0059 27.66 95.8006 27.704C95.5952 27.748 95.3826 27.7993 95.1626 27.858C94.9572 27.9166 94.8179 27.968 94.7446 28.012ZM100.505 28.276C100.388 28.232 100.234 28.1146 100.043 27.924C99.8523 27.7186 99.6836 27.4986 99.537 27.264C99.3903 27.0146 99.317 26.8093 99.317 26.648C99.3903 26.4866 99.4856 26.2006 99.603 25.79C99.735 25.3793 99.8816 24.9173 100.043 24.404C100.16 24.2426 100.248 24.0593 100.307 23.854C100.38 23.634 100.446 23.436 100.505 23.26C100.622 22.996 100.754 22.6953 100.901 22.358C101.048 22.0206 101.187 21.676 101.319 21.324C101.466 20.972 101.598 20.664 101.715 20.4C101.92 19.96 102.089 19.5786 102.221 19.256C102.368 18.9186 102.507 18.5886 102.639 18.266C102.786 17.9433 102.94 17.584 103.101 17.188C103.321 16.7333 103.519 16.286 103.695 15.846C103.886 15.3913 104.047 14.988 104.179 14.636C104.326 14.284 104.414 14.0346 104.443 13.888C104.428 13.7706 104.443 13.69 104.487 13.646C104.531 13.5873 104.59 13.5506 104.663 13.536C104.736 13.492 104.854 13.4626 105.015 13.448C105.176 13.4333 105.286 13.426 105.345 13.426C105.521 13.4553 105.697 13.602 105.873 13.866C106.064 14.1153 106.159 14.328 106.159 14.504C106.159 14.7386 106.042 15.1786 105.807 15.824C105.587 16.4546 105.264 17.2026 104.839 18.068C104.326 19.168 103.937 20.0186 103.673 20.62C103.424 21.2213 103.255 21.6466 103.167 21.896C103.079 22.1453 103.042 22.3066 103.057 22.38C103.057 22.38 103.116 22.358 103.233 22.314C103.35 22.27 103.526 22.1673 103.761 22.006C103.922 21.9033 104.106 21.7713 104.311 21.61C104.516 21.4486 104.714 21.302 104.905 21.17C105.11 21.038 105.272 20.9573 105.389 20.928C105.462 20.8693 105.565 20.796 105.697 20.708C105.829 20.62 105.954 20.5393 106.071 20.466C106.35 20.2606 106.57 20.1946 106.731 20.268C106.892 20.3413 107.039 20.466 107.171 20.642C107.332 20.8326 107.391 21.038 107.347 21.258C107.318 21.4633 107.09 21.7346 106.665 22.072C106.342 22.3066 105.998 22.534 105.631 22.754C105.264 22.9593 104.927 23.1426 104.619 23.304C104.326 23.4653 104.113 23.5973 103.981 23.7C103.981 23.7 104.047 23.7953 104.179 23.986C104.311 24.1766 104.436 24.36 104.553 24.536C104.67 24.7706 104.817 25.0713 104.993 25.438C105.169 25.79 105.301 26.0393 105.389 26.186C105.55 26.4206 105.712 26.5746 105.873 26.648C106.049 26.7213 106.306 26.6993 106.643 26.582C106.863 26.5233 107.046 26.5306 107.193 26.604C107.354 26.6626 107.486 26.7653 107.589 26.912C107.648 27.0293 107.677 27.1466 107.677 27.264C107.677 27.3813 107.582 27.5206 107.391 27.682C106.98 27.9606 106.577 28.1953 106.181 28.386C105.8 28.5913 105.433 28.5766 105.081 28.342C104.773 28.1073 104.48 27.8433 104.201 27.55C103.937 27.242 103.636 26.868 103.299 26.428C103.299 26.3693 103.255 26.2446 103.167 26.054C103.079 25.8633 103.02 25.7533 102.991 25.724C102.932 25.6066 102.866 25.504 102.793 25.416C102.734 25.3133 102.705 25.262 102.705 25.262C102.661 25.1006 102.602 24.9686 102.529 24.866C102.47 24.7633 102.39 24.7046 102.287 24.69C102.228 24.734 102.162 24.8073 102.089 24.91C102.016 25.0126 101.942 25.1373 101.869 25.284C101.781 25.504 101.693 25.724 101.605 25.944C101.517 26.1493 101.444 26.3766 101.385 26.626C101.326 26.8606 101.29 27.1466 101.275 27.484C101.29 27.6453 101.224 27.8213 101.077 28.012C100.93 28.188 100.74 28.276 100.505 28.276Z"
        fill="#F8F8F6" />
</svg>