<svg width="503" height="43" viewBox="0 0 503 43" fill="none" xmlns="http://www.w3.org/2000/svg">
    <path
        d="M1.73169 14.5479C1.73169 7.92043 7.10427 2.54785 13.7317 2.54785H489.732C496.359 2.54785 501.732 7.92043 501.732 14.5479V27.5479C501.732 34.1753 496.359 39.5479 489.732 39.5479H13.7317C7.10427 39.5479 1.73169 34.1753 1.73169 27.5479V14.5479Z"
        fill="#303133" />
    <path
        d="M28.9567 2.26094L28.7328 1.54513L28.9567 2.26094ZM29.4817 2.09676L29.7055 2.81257L29.4817 2.09676ZM30.0067 1.93258L29.7828 1.21676L30.0067 1.93258ZM40.5067 1.8082L40.3356 2.53842L40.5067 1.8082ZM49.9567 2.19244L49.8433 1.45107L49.9567 2.19244ZM50.4817 2.11211L50.5951 2.85348L50.4817 2.11211ZM51.0067 2.03178L50.8933 1.29041L51.0067 2.03178ZM60.4567 2.69342L60.2458 3.41316L60.4567 2.69342ZM61.5067 3.00111L61.7176 2.28138L61.5067 3.00111ZM70.9567 3.71219L71.0625 4.45469L70.9567 3.71219ZM72.0067 3.56252L71.9009 2.82003L72.0067 3.56252ZM81.4567 3.39267L81.3772 4.13844L81.4567 3.39267ZM81.9817 3.44863L82.0612 2.70285L81.9817 3.44863ZM82.5067 3.50459L82.4272 4.25037L82.5067 3.50459ZM92.4817 3.82659L92.4557 3.07704L92.4817 3.82659ZM103.507 3.89467L103.474 4.64397L103.507 3.89467ZM112.957 3.82894L112.914 3.08016L112.957 3.82894ZM113.482 3.79893L113.524 4.54771L113.482 3.79893ZM114.007 3.76892L113.964 3.02014L114.007 3.76892ZM123.457 2.22399L123.652 2.9481L123.457 2.22399ZM123.982 2.08234L123.786 1.35824L123.982 2.08234ZM124.507 1.94069L124.702 2.6648L124.507 1.94069ZM133.957 2.12251L133.736 2.83923L133.957 2.12251ZM135.007 2.44622L135.228 1.7295L135.007 2.44622ZM144.457 2.38331L144.686 3.09729L144.457 2.38331ZM144.982 2.21447L144.752 1.50048L144.982 2.21447ZM145.507 2.04562L145.736 2.75961L145.507 2.04562ZM154.957 1.31787L154.833 2.05755L154.957 1.31787ZM155.482 1.40585L155.606 0.666161L155.482 1.40585ZM156.007 1.49383L155.883 2.23351L156.007 1.49383ZM165.457 2.10868L165.429 1.35921L165.457 2.10868ZM166.507 2.06936L166.535 2.81883L166.507 2.06936ZM175.957 1.80031L175.971 2.55017L175.957 1.80031ZM176.482 1.79008L176.467 1.04022L176.482 1.79008ZM177.007 1.77985L177.021 2.52971L177.007 1.77985ZM186.457 2.88244L186.273 3.60956L186.457 2.88244ZM186.982 3.01518L187.166 2.28807L186.982 3.01518ZM187.507 3.14793L187.323 3.87504L187.507 3.14793ZM196.957 4.42387L196.944 5.17376L196.957 4.42387ZM207.982 4.59109L207.972 5.34102L207.982 4.59109ZM217.957 3.95922L217.847 3.21731L217.957 3.95922ZM218.482 3.88147L218.592 4.62338L218.482 3.88147ZM219.007 3.80372L218.897 3.06181L219.007 3.80372ZM228.457 3.19713L228.442 3.94699L228.457 3.19713ZM238.957 2.67549L239.057 3.4188L238.957 2.67549ZM239.482 2.60488L239.382 1.86157L239.482 2.60488ZM240.007 2.53427L240.107 3.27757L240.007 2.53427ZM249.457 2.71383L249.329 3.45291L249.457 2.71383ZM249.982 2.80439L250.109 2.06531L249.982 2.80439ZM250.507 2.89496L250.379 3.63404L250.507 2.89496ZM259.957 2.48384L260.145 3.20979L259.957 2.48384ZM261.007 2.21135L260.818 1.4854L261.007 2.21135ZM270.457 1.73566L270.574 0.994941L270.457 1.73566ZM271.507 1.90243L271.389 2.64315L271.507 1.90243ZM280.957 2.10458L281.043 2.84958L280.957 2.10458ZM281.482 2.04365L281.395 1.29865L281.482 2.04365ZM282.007 1.98272L282.093 2.72772L282.007 1.98272ZM291.457 1.05382L291.517 1.8014L291.457 1.05382ZM291.982 1.01154L291.921 0.263956L291.982 1.01154ZM292.507 0.969252L292.567 1.71683L292.507 0.969252ZM301.957 1.2945L302.067 0.552734L301.957 1.2945ZM303.007 1.45135L302.896 2.19312L303.007 1.45135ZM312.457 3.10733L312.309 3.84261L312.457 3.10733ZM312.982 3.2129L313.13 2.47762L312.982 3.2129ZM313.507 3.31848L313.359 4.05376L313.507 3.31848ZM322.957 2.73244L323.189 3.44569L322.957 2.73244ZM323.482 2.56175L323.25 1.8485L323.482 2.56175ZM324.007 2.39106L324.239 3.10431L324.007 2.39106ZM333.457 0.772399L333.47 1.52228L333.457 0.772399ZM333.982 0.763237L333.969 0.0133517L333.982 0.763237ZM334.507 0.754076L334.52 1.50396L334.507 0.754076ZM343.957 2.26955L344.197 1.55908L343.957 2.26955ZM345.007 2.62465L344.766 3.33512L345.007 2.62465ZM354.457 4.2031L354.46 4.9531L354.457 4.2031ZM354.982 4.20094L354.979 3.45095L354.982 4.20094ZM355.507 4.19878L355.51 4.94877L355.507 4.19878ZM364.957 2.7783L365.17 3.49735L364.957 2.7783ZM366.007 2.46696L365.793 1.7479L366.007 2.46696ZM375.457 1.3472L375.412 2.09588L375.457 1.3472ZM375.982 1.37845L376.026 0.62978L375.982 1.37845ZM376.507 1.4097L376.462 2.15838L376.507 1.4097ZM385.957 2.45678L386.077 1.71644L385.957 2.45678ZM386.482 2.54187L386.362 3.28221L386.482 2.54187ZM387.007 2.62696L387.127 1.88662L387.007 2.62696ZM396.457 3.78409L396.519 3.03665L396.457 3.78409ZM396.982 3.82757L396.92 4.57501L396.982 3.82757ZM397.507 3.87105L397.445 4.61849L397.507 3.87105ZM406.957 3.98562L406.913 3.2369L406.957 3.98562ZM407.482 3.95487L407.526 4.70359L407.482 3.95487ZM408.007 3.92412L407.963 3.1754L408.007 3.92412ZM417.457 3.09652L417.544 3.84147L417.457 3.09652ZM417.982 3.03531L417.895 2.29036L417.982 3.03531ZM418.507 2.97411L418.594 3.71906L418.507 2.97411ZM427.957 3.25725L428.087 2.51867L427.957 3.25725ZM429.007 3.44258L428.876 4.18116L429.007 3.44258ZM448.957 2.72721L449.188 3.44071L448.957 2.72721ZM449.482 2.55716L449.251 1.84365L449.482 2.55716ZM450.007 2.3871L450.238 3.1006L450.007 2.3871ZM459.457 1.03431L459.485 0.284845L459.457 1.03431ZM460.507 1.07381L460.479 1.82328L460.507 1.07381ZM469.957 1.63855L469.895 2.38604L469.957 1.63855ZM470.482 1.68154L470.543 0.934048L470.482 1.68154ZM471.007 1.72454L470.945 2.47204L471.007 1.72454ZM480.457 2.48528L480.516 1.73762L480.457 2.48528ZM480.982 2.52681L480.923 3.27447L480.982 2.52681ZM481.507 2.56834L481.566 1.82067L481.507 2.56834ZM490.986 3.34719L491.05 2.5999L490.986 3.34719ZM492.043 3.43721L491.979 4.18451L492.043 3.43721ZM498.299 8.12968L497.592 8.37771L498.299 8.12968ZM498.633 9.08243L499.341 8.83441L498.633 9.08243ZM501.149 18.0173L500.417 18.1771L501.149 18.0173ZM501.262 18.5337L501.995 18.3738L501.262 18.5337ZM501.375 19.0501L500.642 19.2099L501.375 19.0501ZM501.657 28.5025L500.916 28.3897L501.657 28.5025ZM501.495 29.5703L500.753 29.4575L501.495 29.5703ZM496.595 36.8804L496.209 36.2375L496.595 36.8804ZM496.132 37.1587L496.518 37.8016L496.132 37.1587ZM495.669 37.4371L495.282 36.7942L495.669 37.4371ZM486.745 39.851L486.73 40.6009L486.745 39.851ZM485.688 39.8307L485.702 39.0808L485.688 39.8307ZM476.207 38.6711L476.042 39.4026L476.207 38.6711ZM475.157 38.4337L475.323 37.7021L475.157 38.4337ZM465.707 38.5933L465.519 37.8674L465.707 38.5933ZM465.182 38.7298L465.371 39.4556L465.182 38.7298ZM464.657 38.8662L464.469 38.1403L464.657 38.8662ZM455.207 39.9928L455.223 39.243L455.207 39.9928ZM454.157 39.9703L454.141 40.7201L454.157 39.9703ZM444.707 40.6801L444.834 41.4193L444.707 40.6801ZM444.182 40.7702L444.055 40.0311L444.182 40.7702ZM443.657 40.8604L443.784 41.5996L443.657 40.8604ZM434.207 40.6361L434.047 41.3687L434.207 40.6361ZM433.682 40.521L433.843 39.7884L433.682 40.521ZM433.157 40.406L433.318 39.6734L433.157 40.406ZM423.707 38.5689L423.833 37.8295L423.707 38.5689ZM423.182 38.4799L423.057 39.2193L423.182 38.4799ZM422.657 38.3908L422.532 39.1303L422.657 38.3908ZM413.207 38.8288L413.017 38.1034L413.207 38.8288ZM412.682 38.9665L412.873 39.692L412.682 38.9665ZM412.157 39.1043L411.967 38.3788L412.157 39.1043ZM402.707 40.4403L402.723 41.1902L402.707 40.4403ZM392.207 39.5676L392.053 40.3016L392.207 39.5676ZM391.682 39.4575L391.836 38.7235L391.682 39.4575ZM391.157 39.3475L391.003 40.0815L391.157 39.3475ZM381.707 38.3663L381.709 39.1162L381.707 38.3663ZM381.182 38.3673L381.181 37.6173L381.182 38.3673ZM380.657 38.3683L380.659 39.1183L380.657 38.3683ZM371.207 39.2448L371.343 39.9825L371.207 39.2448ZM370.682 39.3412L370.818 40.0789L370.682 39.3412ZM370.157 39.4375L370.022 38.6998L370.157 39.4375ZM360.707 38.988L360.506 39.7105L360.707 38.988ZM360.182 38.8417L360.384 38.1192L360.182 38.8417ZM359.657 38.6954L359.456 39.4179L359.657 38.6954ZM350.207 39.1708L349.941 38.4695L350.207 39.1708ZM349.682 39.3699L349.948 40.0711L349.682 39.3699ZM349.157 39.569L348.891 38.8677L349.157 39.569ZM339.707 39.9862L339.917 39.2661L339.707 39.9862ZM338.657 39.6808L338.448 40.4009L338.657 39.6808ZM329.207 38.6956L329.146 37.9481L329.207 38.6956ZM328.682 38.7388L328.744 39.4863L328.682 38.7388ZM328.157 38.7821L328.096 38.0346L328.157 38.7821ZM318.707 40.0787L318.849 40.8152L318.707 40.0787ZM318.182 40.1795L318.041 39.4429L318.182 40.1795ZM317.657 40.2802L317.799 41.0168L317.657 40.2802ZM308.207 40.4519L308.323 39.7109L308.207 40.4519ZM307.157 40.2885L307.042 41.0296L307.157 40.2885ZM297.707 39.2953L297.666 40.0442L297.707 39.2953ZM297.182 39.2667L297.223 38.5178L297.182 39.2667ZM296.657 39.2381L296.616 39.9869L296.657 39.2381ZM287.207 38.6924L287.162 39.441L287.207 38.6924ZM286.682 38.6604L286.728 37.9118L286.682 38.6604ZM286.157 38.6284L286.112 39.377L286.157 38.6284ZM276.707 38.1317L276.674 38.881L276.707 38.1317ZM276.182 38.1085L276.215 37.3592L276.182 38.1085ZM275.657 38.0853L275.624 38.8346L275.657 38.0853ZM266.207 38.2918L266.273 39.0389L266.207 38.2918ZM265.157 38.3841L265.092 37.637L265.157 38.3841ZM255.707 38.4113L255.769 37.6638L255.707 38.4113ZM255.182 38.3681L255.121 39.1156L255.182 38.3681ZM254.657 38.325L254.719 37.5775L254.657 38.325ZM245.207 39.5053L245.444 40.2171L245.207 39.5053ZM244.682 39.6796L244.446 38.9678L244.682 39.6796ZM244.157 39.8538L244.394 40.5656L244.157 39.8538ZM234.707 40.0876L234.911 39.3658L234.707 40.0876ZM234.182 39.9392L233.978 40.661L234.182 39.9392ZM233.657 39.7909L233.861 39.0692L233.657 39.7909ZM224.207 38.8367L224.268 39.5842L224.207 38.8367ZM223.682 38.8789L223.622 38.1314L223.682 38.8789ZM223.157 38.9212L223.218 39.6688L223.157 38.9212ZM213.707 39.5544L213.667 38.8055L213.707 39.5544ZM213.182 39.5825L213.222 40.3314L213.182 39.5825ZM212.657 39.6106L212.617 38.8616L212.657 39.6106ZM203.207 39.6429L203.172 40.3921L203.207 39.6429ZM202.682 39.6185L202.717 38.8693L202.682 39.6185ZM202.157 39.594L202.122 40.3432L202.157 39.594ZM192.707 39.3513L192.711 38.6013L192.707 39.3513ZM191.657 39.3463L191.654 40.0963L191.657 39.3463ZM182.207 40.3084L182.36 41.0426L182.207 40.3084ZM181.157 40.5272L181.004 39.7929L181.157 40.5272ZM171.707 40.048L171.485 40.7645L171.707 40.048ZM171.182 39.8854L171.404 39.169L171.182 39.8854ZM170.657 39.7228L170.435 40.4392L170.657 39.7228ZM161.207 37.9044L161.151 38.6523L161.207 37.9044ZM160.682 37.865L160.738 37.1171L160.682 37.865ZM160.157 37.8255L160.101 38.5734L160.157 37.8255ZM150.707 37.4265L150.714 36.6765L150.707 37.4265ZM149.657 37.4166L149.65 38.1666L149.657 37.4166ZM140.207 38.204L140.337 38.9426L140.207 38.204ZM139.157 38.3888L139.027 37.6502L139.157 38.3888ZM129.707 39.7155L129.785 40.4614L129.707 39.7155ZM129.182 39.7705L129.104 39.0246L129.182 39.7705ZM128.657 39.8255L128.579 39.0796L128.657 39.8255ZM119.207 40.334L119.209 41.084L119.207 40.334ZM118.157 40.337L118.155 39.587L118.157 40.337ZM108.707 39.1604L108.891 38.4331L108.707 39.1604ZM108.182 39.0281L107.999 39.7554L108.182 39.0281ZM107.657 38.8959L107.474 39.6232L107.657 38.8959ZM98.2073 37.964L98.2483 38.7129L98.2073 37.964ZM97.6823 37.9928L97.7233 38.7416L97.6823 37.9928ZM97.1573 38.0215L97.1164 37.2726L97.1573 38.0215ZM87.7073 39.686L87.9212 40.4048L87.7073 39.686ZM87.1823 39.8422L87.3962 40.5611L87.1823 39.8422ZM86.6573 39.9985L86.4434 39.2796L86.6573 39.9985ZM77.2073 41.3746L77.2121 40.6246L77.2073 41.3746ZM76.1573 41.3679L76.1525 42.1179L76.1573 41.3679ZM66.7073 40.3271L66.5504 41.0605L66.7073 40.3271ZM66.1823 40.2148L66.3392 39.4814L66.1823 40.2148ZM65.6573 40.1025L65.5004 40.836L65.6573 40.1025ZM56.2073 40.2802L56.3902 41.0075L56.2073 40.2802ZM55.6823 40.4122L55.4994 39.6849L55.6823 40.4122ZM55.1573 40.5443L55.3402 41.2716L55.1573 40.5443ZM45.7073 41.2039L45.6239 41.9493L45.7073 41.2039ZM45.1823 41.1452L45.2657 40.3999L45.1823 41.1452ZM44.6573 41.0865L44.7407 40.3411L44.6573 41.0865ZM35.2073 39.1705L35.4186 38.4509L35.2073 39.1705ZM34.6823 39.0164L34.471 39.736L34.6823 39.0164ZM34.1573 38.8622L33.946 39.5819L34.1573 38.8622ZM23.6573 38.8596L23.4824 38.1302L23.6573 38.8596ZM14.2527 39.3409L14.1492 40.0837L14.2527 39.3409ZM13.2128 39.1961L13.3162 38.4532L13.2128 39.1961ZM4.86612 35.1563L5.37509 34.6054L4.86612 35.1563ZM4.45867 34.7798L3.9497 35.3307L4.45867 34.7798ZM5.92029 6.2771L5.39783 5.73902L5.92029 6.2771ZM11.9316 2.36795L11.8571 3.11423L11.9316 2.36795ZM18.9817 3.14322L18.8972 3.88844L19.4222 3.94798L19.5067 3.20275L19.5912 2.45753L19.0662 2.39799L18.9817 3.14322ZM19.5067 3.20275L19.4222 3.94798C22.6802 4.31744 25.9351 3.9917 29.1805 2.97675L28.9567 2.26094L28.7328 1.54513C25.6783 2.50038 22.6332 2.80251 19.5912 2.45753L19.5067 3.20275ZM28.9567 2.26094L29.1805 2.97675L29.7055 2.81257L29.4817 2.09676L29.2578 1.38095L28.7328 1.54513L28.9567 2.26094ZM29.4817 2.09676L29.7055 2.81257L30.2305 2.64839L30.0067 1.93258L29.7828 1.21676L29.2578 1.38095L29.4817 2.09676ZM30.0067 1.93258L30.2305 2.64839C33.2553 1.70248 36.2689 1.58546 39.2856 2.29237L39.4567 1.56215L39.6278 0.831929C36.3445 0.0625467 33.0581 0.192484 29.7828 1.21676L30.0067 1.93258ZM39.4567 1.56215L39.2856 2.29237L39.8106 2.41539L39.9817 1.68517L40.1528 0.954953L39.6278 0.831929L39.4567 1.56215ZM39.9817 1.68517L39.8106 2.41539L40.3356 2.53842L40.5067 1.8082L40.6778 1.07798L40.1528 0.954953L39.9817 1.68517ZM40.5067 1.8082L40.3356 2.53842C43.5774 3.29807 46.824 3.43051 50.0701 2.93381L49.9567 2.19244L49.8433 1.45107C46.7894 1.91834 43.736 1.79461 40.6778 1.07798L40.5067 1.8082ZM49.9567 2.19244L50.0701 2.93381L50.5951 2.85348L50.4817 2.11211L50.3683 1.37074L49.8433 1.45107L49.9567 2.19244ZM50.4817 2.11211L50.5951 2.85348L51.1201 2.77315L51.0067 2.03178L50.8933 1.29041L50.3683 1.37074L50.4817 2.11211ZM51.0067 2.03178L51.1201 2.77315C54.1584 2.30826 57.1978 2.51997 60.2458 3.41316L60.4567 2.69342L60.6676 1.97369C57.4156 1.02073 54.155 0.791338 50.8933 1.29041L51.0067 2.03178ZM60.4567 2.69342L60.2458 3.41316L60.7708 3.567L60.9817 2.84727L61.1926 2.12753L60.6676 1.97369L60.4567 2.69342ZM60.9817 2.84727L60.7708 3.567L61.2958 3.72085L61.5067 3.00111L61.7176 2.28138L61.1926 2.12753L60.9817 2.84727ZM61.5067 3.00111L61.2958 3.72085C64.5452 4.67305 67.8031 4.9193 71.0625 4.45469L70.9567 3.71219L70.8509 2.9697C67.8102 3.40313 64.7682 3.17532 61.7176 2.28138L61.5067 3.00111ZM70.9567 3.71219L71.0625 4.45469L71.5875 4.37985L71.4817 3.63736L71.3759 2.89486L70.8509 2.9697L70.9567 3.71219ZM71.4817 3.63736L71.5875 4.37985L72.1125 4.30501L72.0067 3.56252L71.9009 2.82003L71.3759 2.89486L71.4817 3.63736ZM72.0067 3.56252L72.1125 4.30501C75.2014 3.86471 78.2891 3.80926 81.3772 4.13844L81.4567 3.39267L81.5362 2.64689C78.3242 2.3045 75.112 2.36229 71.9009 2.82003L72.0067 3.56252ZM81.4567 3.39267L81.3772 4.13844L81.9022 4.1944L81.9817 3.44863L82.0612 2.70285L81.5362 2.64689L81.4567 3.39267ZM81.9817 3.44863L81.9022 4.1944L82.4272 4.25037L82.5067 3.50459L82.5862 2.75882L82.0612 2.70285L81.9817 3.44863ZM82.5067 3.50459L82.4272 4.25037C85.612 4.58987 88.7973 4.70454 91.9826 4.59431L91.9567 3.84476L91.9308 3.09521C88.8161 3.20299 85.7014 3.09089 82.5862 2.75882L82.5067 3.50459ZM91.9567 3.84476L91.9826 4.59431L92.5076 4.57614L92.4817 3.82659L92.4557 3.07704L91.9308 3.09521L91.9567 3.84476ZM92.4817 3.82659L92.5076 4.57614L93.0326 4.55798L93.0067 3.80842L92.9808 3.05887L92.4557 3.07704L92.4817 3.82659ZM93.0067 3.80842L93.0326 4.55798C96.1632 4.44964 99.2937 4.46317 102.424 4.59856L102.457 3.84926L102.489 3.09996C99.3197 2.96289 96.1502 2.94919 92.9808 3.05887L93.0067 3.80842ZM102.457 3.84926L102.424 4.59856L102.949 4.62127L102.982 3.87197L103.014 3.12267L102.489 3.09996L102.457 3.84926ZM102.982 3.87197L102.949 4.62127L103.474 4.64397L103.507 3.89467L103.539 3.14537L103.014 3.12267L102.982 3.87197ZM103.507 3.89467L103.474 4.64397C106.649 4.78129 109.824 4.7592 112.999 4.57772L112.957 3.82894L112.914 3.08016C109.789 3.25879 106.664 3.28052 103.539 3.14537L103.507 3.89467ZM112.957 3.82894L112.999 4.57772L113.524 4.54771L113.482 3.79893L113.439 3.05015L112.914 3.08016L112.957 3.82894ZM113.482 3.79893L113.524 4.54771L114.049 4.5177L114.007 3.76892L113.964 3.02014L113.439 3.05015L113.482 3.79893ZM114.007 3.76892L114.049 4.5177C117.253 4.3346 120.454 3.81099 123.652 2.9481L123.457 2.22399L123.261 1.49989C120.159 2.33679 117.061 2.84314 113.964 3.02014L114.007 3.76892ZM123.457 2.22399L123.652 2.9481L124.177 2.80645L123.982 2.08234L123.786 1.35824L123.261 1.49989L123.457 2.22399ZM123.982 2.08234L124.177 2.80645L124.702 2.6648L124.507 1.94069L124.311 1.21659L123.786 1.35824L123.982 2.08234ZM124.507 1.94069L124.702 2.6648C127.714 1.85218 130.72 1.90937 133.736 2.83923L133.957 2.12251L134.178 1.4058C130.894 0.393435 127.599 0.329408 124.311 1.21659L124.507 1.94069ZM133.957 2.12251L133.736 2.83923L134.261 3.00108L134.482 2.28437L134.703 1.56765L134.178 1.4058L133.957 2.12251ZM134.482 2.28437L134.261 3.00108L134.786 3.16293L135.007 2.44622L135.228 1.7295L134.703 1.56765L134.482 2.28437ZM135.007 2.44622L134.786 3.16293C138.083 4.17952 141.391 4.15722 144.686 3.09729L144.457 2.38331L144.227 1.66932C141.223 2.6355 138.23 2.65514 135.228 1.7295L135.007 2.44622ZM144.457 2.38331L144.686 3.09729L145.211 2.92845L144.982 2.21447L144.752 1.50048L144.227 1.66932L144.457 2.38331ZM144.982 2.21447L145.211 2.92845L145.736 2.75961L145.507 2.04562L145.277 1.33164L144.752 1.50048L144.982 2.21447ZM145.507 2.04562L145.736 2.75961C148.776 1.78189 151.805 1.55021 154.833 2.05755L154.957 1.31787L155.081 0.57818C151.808 0.0297637 148.537 0.283254 145.277 1.33164L145.507 2.04562ZM154.957 1.31787L154.833 2.05755L155.358 2.14553L155.482 1.40585L155.606 0.666161L155.081 0.57818L154.957 1.31787ZM155.482 1.40585L155.358 2.14553L155.883 2.23351L156.007 1.49383L156.131 0.754141L155.606 0.666161L155.482 1.40585ZM156.007 1.49383L155.883 2.23351C159.082 2.76969 162.283 2.97806 165.485 2.85816L165.457 2.10868L165.429 1.35921C162.33 1.47525 159.231 1.27372 156.131 0.754141L156.007 1.49383ZM165.457 2.10868L165.485 2.85816L166.01 2.83849L165.982 2.08902L165.954 1.33954L165.429 1.35921L165.457 2.10868ZM165.982 2.08902L166.01 2.83849L166.535 2.81883L166.507 2.06936L166.479 1.31988L165.954 1.33954L165.982 2.08902ZM166.507 2.06936L166.535 2.81883C169.68 2.70102 172.826 2.61147 175.971 2.55017L175.957 1.80031L175.942 1.05045C172.788 1.11193 169.633 1.20174 166.479 1.31988L166.507 2.06936ZM175.957 1.80031L175.971 2.55017L176.496 2.53994L176.482 1.79008L176.467 1.04022L175.942 1.05045L175.957 1.80031ZM176.482 1.79008L176.496 2.53994L177.021 2.52971L177.007 1.77985L176.992 1.02999L176.467 1.04022L176.482 1.79008ZM177.007 1.77985L177.021 2.52971C180.102 2.46966 183.186 2.82899 186.273 3.60956L186.457 2.88244L186.641 2.15532C183.428 1.343 180.211 0.967262 176.992 1.02999L177.007 1.77985ZM186.457 2.88244L186.273 3.60956L186.798 3.7423L186.982 3.01518L187.166 2.28807L186.641 2.15532L186.457 2.88244ZM186.982 3.01518L186.798 3.7423L187.323 3.87504L187.507 3.14793L187.691 2.42081L187.166 2.28807L186.982 3.01518ZM187.507 3.14793L187.323 3.87504C190.527 4.68519 193.734 5.11856 196.944 5.17376L196.957 4.42387L196.97 3.67398C193.879 3.62082 190.786 3.20356 187.691 2.42081L187.507 3.14793ZM196.957 4.42387L196.944 5.17376L197.469 5.18279L197.482 4.4329L197.495 3.68301L196.97 3.67398L196.957 4.42387ZM197.482 4.4329L197.469 5.18279L197.994 5.19182L198.007 4.44193L198.02 3.69204L197.495 3.68301L197.482 4.4329ZM198.007 4.44193L197.994 5.19182C201.145 5.24602 204.296 5.29349 207.447 5.33424L207.457 4.5843L207.466 3.83436C204.317 3.79365 201.169 3.74621 198.02 3.69204L198.007 4.44193ZM207.457 4.5843L207.447 5.33424L207.972 5.34102L207.982 4.59109L207.991 3.84115L207.466 3.83436L207.457 4.5843ZM207.982 4.59109L207.972 5.34102L208.497 5.34781L208.507 4.59788L208.516 3.84794L207.991 3.84115L207.982 4.59109ZM208.507 4.59788L208.497 5.34781C211.687 5.38907 214.877 5.17343 218.067 4.70113L217.957 3.95922L217.847 3.21731C214.736 3.67801 211.626 3.88815 208.516 3.84794L208.507 4.59788ZM217.957 3.95922L218.067 4.70113L218.592 4.62338L218.482 3.88147L218.372 3.13956L217.847 3.21731L217.957 3.95922ZM218.482 3.88147L218.592 4.62338L219.117 4.54563L219.007 3.80372L218.897 3.06181L218.372 3.13956L218.482 3.88147ZM219.007 3.80372L219.117 4.54563C222.226 4.08517 225.334 3.88571 228.442 3.94699L228.457 3.19713L228.471 2.44728C225.279 2.38433 222.088 2.58926 218.897 3.06181L219.007 3.80372ZM228.457 3.19713L228.442 3.94699L228.967 3.95734L228.982 3.20748L228.996 2.45763L228.471 2.44728L228.457 3.19713ZM228.982 3.20748L228.967 3.95734L229.492 3.96769L229.507 3.21784L229.521 2.46798L228.996 2.45763L228.982 3.20748ZM229.507 3.21784L229.492 3.96769C232.681 4.03056 235.869 3.84754 239.057 3.4188L238.957 2.67549L238.857 1.93219C235.744 2.35079 232.633 2.52933 229.521 2.46798L229.507 3.21784ZM238.957 2.67549L239.057 3.4188L239.582 3.34819L239.482 2.60488L239.382 1.86157L238.857 1.93219L238.957 2.67549ZM239.482 2.60488L239.582 3.34819L240.107 3.27757L240.007 2.53427L239.907 1.79096L239.382 1.86157L239.482 2.60488ZM240.007 2.53427L240.107 3.27757C243.181 2.86413 246.254 2.92242 249.329 3.45291L249.457 2.71383L249.584 1.97475C246.359 1.41847 243.133 1.35706 239.907 1.79096L240.007 2.53427ZM249.457 2.71383L249.329 3.45291L249.854 3.54348L249.982 2.80439L250.109 2.06531L249.584 1.97475L249.457 2.71383ZM249.982 2.80439L249.854 3.54348L250.379 3.63404L250.507 2.89496L250.634 2.15587L250.109 2.06531L249.982 2.80439ZM250.507 2.89496L250.379 3.63404C253.636 4.19588 256.894 4.05353 260.145 3.20979L259.957 2.48384L259.768 1.75789C256.72 2.54907 253.677 2.6808 250.634 2.15587L250.507 2.89496ZM259.957 2.48384L260.145 3.20979L260.67 3.07355L260.482 2.3476L260.293 1.62164L259.768 1.75789L259.957 2.48384ZM260.482 2.3476L260.67 3.07355L261.195 2.93731L261.007 2.21135L260.818 1.4854L260.293 1.62164L260.482 2.3476ZM261.007 2.21135L261.195 2.93731C264.247 2.14523 267.293 1.99257 270.339 2.47637L270.457 1.73566L270.574 0.994941C267.32 0.478086 264.066 0.642553 260.818 1.4854L261.007 2.21135ZM270.457 1.73566L270.339 2.47637L270.864 2.55976L270.982 1.81904L271.099 1.07833L270.574 0.994941L270.457 1.73566ZM270.982 1.81904L270.864 2.55976L271.389 2.64315L271.507 1.90243L271.624 1.16172L271.099 1.07833L270.982 1.81904ZM271.507 1.90243L271.389 2.64315C274.606 3.15414 277.825 3.22307 281.043 2.84958L280.957 2.10458L280.87 1.35958C277.789 1.71721 274.707 1.65138 271.624 1.16172L271.507 1.90243ZM280.957 2.10458L281.043 2.84958L281.568 2.78865L281.482 2.04365L281.395 1.29865L280.87 1.35958L280.957 2.10458ZM281.482 2.04365L281.568 2.78865L282.093 2.72772L282.007 1.98272L281.92 1.23772L281.395 1.29865L281.482 2.04365ZM282.007 1.98272L282.093 2.72772C285.234 2.36316 288.376 2.05439 291.517 1.8014L291.457 1.05382L291.396 0.30624C288.238 0.56065 285.079 0.871144 281.92 1.23772L282.007 1.98272ZM291.457 1.05382L291.517 1.8014L292.042 1.75911L291.982 1.01154L291.921 0.263956L291.396 0.30624L291.457 1.05382ZM291.982 1.01154L292.042 1.75911L292.567 1.71683L292.507 0.969252L292.446 0.221672L291.921 0.263956L291.982 1.01154ZM292.507 0.969252L292.567 1.71683C295.659 1.46776 298.752 1.57412 301.846 2.03627L301.957 1.2945L302.067 0.552734C298.861 0.0738101 295.654 -0.0366595 292.446 0.221672L292.507 0.969252ZM301.957 1.2945L301.846 2.03627L302.371 2.1147L302.482 1.37293L302.592 0.631157L302.067 0.552734L301.957 1.2945ZM302.482 1.37293L302.371 2.1147L302.896 2.19312L303.007 1.45135L303.117 0.70958L302.592 0.631157L302.482 1.37293ZM303.007 1.45135L302.896 2.19312C306.033 2.66179 309.171 3.21161 312.309 3.84261L312.457 3.10733L312.605 2.37205C309.442 1.73615 306.28 1.18199 303.117 0.70958L303.007 1.45135ZM312.457 3.10733L312.309 3.84261L312.834 3.94818L312.982 3.2129L313.13 2.47762L312.605 2.37205L312.457 3.10733ZM312.982 3.2129L312.834 3.94818L313.359 4.05376L313.507 3.31848L313.655 2.58319L313.13 2.47762L312.982 3.2129ZM313.507 3.31848L313.359 4.05376C316.639 4.71342 319.92 4.5084 323.189 3.44569L322.957 2.73244L322.725 2.01919C319.693 3.00475 316.674 3.19042 313.655 2.58319L313.507 3.31848ZM322.957 2.73244L323.189 3.44569L323.714 3.275L323.482 2.56175L323.25 1.8485L322.725 2.01919L322.957 2.73244ZM323.482 2.56175L323.714 3.275L324.239 3.10431L324.007 2.39106L323.775 1.67781L323.25 1.8485L323.482 2.56175ZM324.007 2.39106L324.239 3.10431C327.322 2.10198 330.398 1.57589 333.47 1.52228L333.457 0.772399L333.444 0.0225132C330.216 0.0788443 326.992 0.631865 323.775 1.67781L324.007 2.39106ZM333.457 0.772399L333.47 1.52228L333.995 1.51312L333.982 0.763237L333.969 0.0133517L333.444 0.0225132L333.457 0.772399ZM333.982 0.763237L333.995 1.51312L334.52 1.50396L334.507 0.754076L334.494 0.00419021L333.969 0.0133517L333.982 0.763237ZM334.507 0.754076L334.52 1.50396C337.579 1.45058 340.643 1.94078 343.716 2.98003L343.957 2.26955L344.197 1.55908C340.97 0.467755 337.734 -0.0523627 334.494 0.00419021L334.507 0.754076ZM343.957 2.26955L343.716 2.98003L344.241 3.15757L344.482 2.4471L344.722 1.73663L344.197 1.55908L343.957 2.26955ZM344.482 2.4471L344.241 3.15757L344.766 3.33512L345.007 2.62465L345.247 1.91418L344.722 1.73663L344.482 2.4471ZM345.007 2.62465L344.766 3.33512C347.99 4.42543 351.223 4.96644 354.46 4.9531L354.457 4.2031L354.454 3.45311C351.391 3.46574 348.323 2.95444 345.247 1.91418L345.007 2.62465ZM354.457 4.2031L354.46 4.9531L354.985 4.95093L354.982 4.20094L354.979 3.45095L354.454 3.45311L354.457 4.2031ZM354.982 4.20094L354.985 4.95093L355.51 4.94877L355.507 4.19878L355.504 3.44878L354.979 3.45095L354.982 4.20094ZM355.507 4.19878L355.51 4.94877C358.734 4.93548 361.955 4.45071 365.17 3.49735L364.957 2.7783L364.743 2.05924C361.659 2.97389 358.579 3.4361 355.504 3.44878L355.507 4.19878ZM364.957 2.7783L365.17 3.49735L365.695 3.34169L365.482 2.62263L365.268 1.90357L364.743 2.05924L364.957 2.7783ZM365.482 2.62263L365.695 3.34169L366.22 3.18602L366.007 2.46696L365.793 1.7479L365.268 1.90357L365.482 2.62263ZM366.007 2.46696L366.22 3.18602C369.29 2.27576 372.353 1.91377 375.412 2.09588L375.457 1.3472L375.501 0.59853C372.261 0.405642 369.024 0.790161 365.793 1.7479L366.007 2.46696ZM375.457 1.3472L375.412 2.09588L375.937 2.12713L375.982 1.37845L376.026 0.62978L375.501 0.59853L375.457 1.3472ZM375.982 1.37845L375.937 2.12713L376.462 2.15838L376.507 1.4097L376.551 0.661029L376.026 0.62978L375.982 1.37845ZM376.507 1.4097L376.462 2.15838C379.587 2.34436 382.711 2.69057 385.837 3.19711L385.957 2.45678L386.077 1.71644C382.902 1.20188 379.727 0.850048 376.551 0.661029L376.507 1.4097ZM385.957 2.45678L385.837 3.19711L386.362 3.28221L386.482 2.54187L386.602 1.80153L386.077 1.71644L385.957 2.45678ZM386.482 2.54187L386.362 3.28221L386.887 3.3673L387.007 2.62696L387.127 1.88662L386.602 1.80153L386.482 2.54187ZM387.007 2.62696L386.887 3.3673C390.056 3.88094 393.225 4.26903 396.395 4.53154L396.457 3.78409L396.519 3.03665C393.388 2.7774 390.258 2.39408 387.127 1.88662L387.007 2.62696ZM396.457 3.78409L396.395 4.53154L396.92 4.57501L396.982 3.82757L397.044 3.08013L396.519 3.03665L396.457 3.78409ZM396.982 3.82757L396.92 4.57501L397.445 4.61849L397.507 3.87105L397.569 3.12361L397.044 3.08013L396.982 3.82757ZM397.507 3.87105L397.445 4.61849C400.63 4.88228 403.815 4.9209 407.001 4.73434L406.957 3.98562L406.913 3.2369C403.798 3.41933 400.683 3.38158 397.569 3.12361L397.507 3.87105ZM406.957 3.98562L407.001 4.73434L407.526 4.70359L407.482 3.95487L407.438 3.20615L406.913 3.2369L406.957 3.98562ZM407.482 3.95487L407.526 4.70359L408.051 4.67284L408.007 3.92412L407.963 3.1754L407.438 3.20615L407.482 3.95487ZM408.007 3.92412L408.051 4.67284C411.215 4.48749 414.379 4.21037 417.544 3.84147L417.457 3.09652L417.37 2.35156C414.234 2.71714 411.098 2.99175 407.963 3.1754L408.007 3.92412ZM417.457 3.09652L417.544 3.84147L418.069 3.78027L417.982 3.03531L417.895 2.29036L417.37 2.35156L417.457 3.09652ZM417.982 3.03531L418.069 3.78027L418.594 3.71906L418.507 2.97411L418.42 2.22915L417.895 2.29036L417.982 3.03531ZM418.507 2.97411L418.594 3.71906C421.671 3.36033 424.747 3.45238 427.826 3.99583L427.957 3.25725L428.087 2.51867C424.866 1.95012 421.643 1.85341 418.42 2.22915L418.507 2.97411ZM427.957 3.25725L427.826 3.99583L428.351 4.0885L428.482 3.34991L428.612 2.61133L428.087 2.51867L427.957 3.25725ZM428.482 3.34991L428.351 4.0885L428.876 4.18116L429.007 3.44258L429.137 2.704L428.612 2.61133L428.482 3.34991ZM429.007 3.44258L428.876 4.18116C432.069 4.74472 435.263 5.02383 438.458 5.0181L438.457 4.2681L438.455 3.5181C435.35 3.52367 432.244 3.25244 429.137 2.704L429.007 3.44258ZM438.457 4.2681L438.458 5.0181L438.983 5.01715L438.982 4.26715L438.98 3.51716L438.455 3.5181L438.457 4.2681ZM438.982 4.26715L438.983 5.01715L439.508 5.01621L439.507 4.26621L439.505 3.51621L438.98 3.51716L438.982 4.26715ZM439.507 4.26621L439.508 5.01621C442.74 5.01041 445.967 4.48387 449.188 3.44071L448.957 2.72721L448.726 2.01371C445.646 3.01125 442.573 3.51071 439.505 3.51621L439.507 4.26621ZM448.957 2.72721L449.188 3.44071L449.713 3.27066L449.482 2.55716L449.251 1.84365L448.726 2.01371L448.957 2.72721ZM449.482 2.55716L449.713 3.27066L450.238 3.1006L450.007 2.3871L449.776 1.6736L449.251 1.84365L449.482 2.55716ZM450.007 2.3871L450.238 3.1006C453.308 2.10597 456.371 1.66876 459.428 1.78378L459.457 1.03431L459.485 0.284845C456.243 0.162882 453.005 0.627529 449.776 1.6736L450.007 2.3871ZM459.457 1.03431L459.428 1.78378L459.953 1.80353L459.982 1.05406L460.01 0.304593L459.485 0.284845L459.457 1.03431ZM459.982 1.05406L459.953 1.80353L460.479 1.82328L460.507 1.07381L460.535 0.324342L460.01 0.304593L459.982 1.05406ZM460.507 1.07381L460.479 1.82328C463.617 1.94136 466.756 2.12894 469.895 2.38604L469.957 1.63855L470.018 0.891048C466.857 0.632154 463.696 0.443251 460.535 0.324342L460.507 1.07381ZM469.957 1.63855L469.895 2.38604L470.42 2.42904L470.482 1.68154L470.543 0.934048L470.018 0.891048L469.957 1.63855ZM470.482 1.68154L470.42 2.42904L470.945 2.47204L471.007 1.72454L471.068 0.977047L470.543 0.934048L470.482 1.68154ZM471.007 1.72454L470.945 2.47204C474.096 2.73009 477.247 2.98373 480.398 3.23295L480.457 2.48528L480.516 1.73762C477.367 1.48851 474.217 1.23499 471.068 0.977047L471.007 1.72454ZM480.457 2.48528L480.398 3.23295L480.923 3.27447L480.982 2.52681L481.041 1.77914L480.516 1.73762L480.457 2.48528ZM480.982 2.52681L480.923 3.27447L481.448 3.316L481.507 2.56834L481.566 1.82067L481.041 1.77914L480.982 2.52681ZM481.507 2.56834L481.448 3.316C484.596 3.56504 487.754 3.82453 490.922 4.09448L490.986 3.34719L491.05 2.5999C487.879 2.32969 484.717 2.06995 481.566 1.82067L481.507 2.56834ZM490.986 3.34719L490.922 4.09448L491.451 4.13949L491.514 3.3922L491.578 2.64491L491.05 2.5999L490.986 3.34719ZM491.514 3.3922L491.451 4.13949L491.979 4.18451L492.043 3.43721L492.106 2.68992L491.578 2.64491L491.514 3.3922ZM492.043 3.43721L491.979 4.18451C493.455 4.31025 494.626 4.732 495.534 5.41289C496.44 6.09206 497.132 7.0656 497.592 8.37771L498.299 8.12968L499.007 7.88166C498.465 6.33553 497.614 5.09787 496.434 4.21288C495.256 3.32962 493.8 2.83425 492.106 2.68992L492.043 3.43721ZM498.299 8.12968L497.592 8.37771L497.759 8.85408L498.466 8.60606L499.174 8.35803L499.007 7.88166L498.299 8.12968ZM498.466 8.60606L497.759 8.85408L497.926 9.33046L498.633 9.08243L499.341 8.83441L499.174 8.35803L498.466 8.60606ZM498.633 9.08243L497.926 9.33046C498.917 12.1585 499.747 15.1073 500.417 18.1771L501.149 18.0173L501.882 17.8575C501.2 14.7306 500.353 11.7228 499.341 8.83441L498.633 9.08243ZM501.149 18.0173L500.417 18.1771L500.529 18.6935L501.262 18.5337L501.995 18.3738L501.882 17.8575L501.149 18.0173ZM501.262 18.5337L500.529 18.6935L500.642 19.2099L501.375 19.0501L502.107 18.8902L501.995 18.3738L501.262 18.5337ZM501.375 19.0501L500.642 19.2099C501.298 22.2167 501.39 25.275 500.916 28.3897L501.657 28.5025L502.399 28.6153C502.9 25.3234 502.803 22.0801 502.107 18.8902L501.375 19.0501ZM501.657 28.5025L500.916 28.3897L500.835 28.9236L501.576 29.0364L502.317 29.1492L502.399 28.6153L501.657 28.5025ZM501.576 29.0364L500.835 28.9236L500.753 29.4575L501.495 29.5703L502.236 29.6831L502.317 29.1492L501.576 29.0364ZM501.495 29.5703L500.753 29.4575C500.3 32.4399 498.797 34.6824 496.209 36.2375L496.595 36.8804L496.981 37.5232C499.952 35.7382 501.715 33.1073 502.236 29.6831L501.495 29.5703ZM496.595 36.8804L496.209 36.2375L495.746 36.5159L496.132 37.1587L496.518 37.8016L496.981 37.5232L496.595 36.8804ZM496.132 37.1587L495.746 36.5159L495.282 36.7942L495.669 37.4371L496.055 38.0799L496.518 37.8016L496.132 37.1587ZM495.669 37.4371L495.282 36.7942C492.621 38.3935 489.785 39.1592 486.759 39.1011L486.745 39.851L486.73 40.6009C490.045 40.6645 493.158 39.821 496.055 38.0799L495.669 37.4371ZM486.745 39.851L486.759 39.1011L486.231 39.091L486.216 39.8409L486.202 40.5907L486.73 40.6009L486.745 39.851ZM486.216 39.8409L486.231 39.091L485.702 39.0808L485.688 39.8307L485.673 40.5806L486.202 40.5907L486.216 39.8409ZM485.688 39.8307L485.702 39.0808C482.584 39.021 479.474 38.6408 476.373 37.9396L476.207 38.6711L476.042 39.4026C479.241 40.1259 482.451 40.5187 485.673 40.5806L485.688 39.8307ZM476.207 38.6711L476.373 37.9396L475.848 37.8208L475.682 38.5524L475.517 39.2839L476.042 39.4026L476.207 38.6711ZM475.682 38.5524L475.848 37.8208L475.323 37.7021L475.157 38.4337L474.992 39.1652L475.517 39.2839L475.682 38.5524ZM475.157 38.4337L475.323 37.7021C472.055 36.9633 468.784 37.0189 465.519 37.8674L465.707 38.5933L465.896 39.3192C468.931 38.5304 471.96 38.4796 474.992 39.1652L475.157 38.4337ZM465.707 38.5933L465.519 37.8674L464.994 38.0039L465.182 38.7298L465.371 39.4556L465.896 39.3192L465.707 38.5933ZM465.182 38.7298L464.994 38.0039L464.469 38.1403L464.657 38.8662L464.846 39.5921L465.371 39.4556L465.182 38.7298ZM464.657 38.8662L464.469 38.1403C461.383 38.9422 458.302 39.3091 455.223 39.243L455.207 39.9928L455.191 40.7427C458.413 40.8118 461.631 40.4276 464.846 39.5921L464.657 38.8662ZM455.207 39.9928L455.223 39.243L454.698 39.2318L454.682 39.9816L454.666 40.7314L455.191 40.7427L455.207 39.9928ZM454.682 39.9816L454.698 39.2318L454.173 39.2205L454.157 39.9703L454.141 40.7201L454.666 40.7314L454.682 39.9816ZM454.157 39.9703L454.173 39.2205C450.975 39.1519 447.777 39.3922 444.58 39.9409L444.707 40.6801L444.834 41.4193C447.938 40.8865 451.04 40.6536 454.141 40.7201L454.157 39.9703ZM444.707 40.6801L444.58 39.9409L444.055 40.0311L444.182 40.7702L444.309 41.5094L444.834 41.4193L444.707 40.6801ZM444.182 40.7702L444.055 40.0311L443.53 40.1212L443.657 40.8604L443.784 41.5996L444.309 41.5094L444.182 40.7702ZM443.657 40.8604L443.53 40.1212C440.477 40.6454 437.424 40.5732 434.368 39.9035L434.207 40.6361L434.047 41.3687C437.29 42.0795 440.538 42.1568 443.784 41.5996L443.657 40.8604ZM434.207 40.6361L434.368 39.9035L433.843 39.7884L433.682 40.521L433.522 41.2536L434.047 41.3687L434.207 40.6361ZM433.682 40.521L433.843 39.7884L433.318 39.6734L433.157 40.406L432.997 41.1386L433.522 41.2536L433.682 40.521ZM433.157 40.406L433.318 39.6734C430.156 38.9805 426.995 38.3659 423.833 37.8295L423.707 38.5689L423.582 39.3084C426.72 39.8408 429.858 40.4508 432.997 41.1386L433.157 40.406ZM423.707 38.5689L423.833 37.8295L423.308 37.7404L423.182 38.4799L423.057 39.2193L423.582 39.3084L423.707 38.5689ZM423.182 38.4799L423.308 37.7404L422.783 37.6514L422.657 38.3908L422.532 39.1303L423.057 39.2193L423.182 38.4799ZM422.657 38.3908L422.783 37.6514C419.526 37.0988 416.268 37.2505 413.017 38.1034L413.207 38.8288L413.398 39.5543C416.447 38.7544 419.489 38.614 422.532 39.1303L422.657 38.3908ZM413.207 38.8288L413.017 38.1034L412.492 38.2411L412.682 38.9665L412.873 39.692L413.398 39.5543L413.207 38.8288ZM412.682 38.9665L412.492 38.2411L411.967 38.3788L412.157 39.1043L412.348 39.8297L412.873 39.692L412.682 38.9665ZM412.157 39.1043L411.967 38.3788C408.872 39.1907 405.781 39.6274 402.692 39.6905L402.707 40.4403L402.723 41.1902C405.934 41.1246 409.142 40.6706 412.348 39.8297L412.157 39.1043ZM402.707 40.4403L402.692 39.6905L402.167 39.7012L402.182 40.451L402.198 41.2009L402.723 41.1902L402.707 40.4403ZM402.182 40.451L402.167 39.7012L401.642 39.7119L401.657 40.4617L401.673 41.2116L402.198 41.2009L402.182 40.451ZM401.657 40.4617L401.642 39.7119C398.55 39.775 395.457 39.4825 392.361 38.8335L392.207 39.5676L392.053 40.3016C395.258 40.9734 398.465 41.2771 401.673 41.2116L401.657 40.4617ZM392.207 39.5676L392.361 38.8335L391.836 38.7235L391.682 39.4575L391.528 40.1916L392.053 40.3016L392.207 39.5676ZM391.682 39.4575L391.836 38.7235L391.311 38.6134L391.157 39.3475L391.003 40.0815L391.528 40.1916L391.682 39.4575ZM391.157 39.3475L391.311 38.6134C388.111 37.9425 384.909 37.6099 381.706 37.6163L381.707 38.3663L381.709 39.1162C384.805 39.1101 387.903 39.4316 391.003 40.0815L391.157 39.3475ZM381.707 38.3663L381.706 37.6163L381.181 37.6173L381.182 38.3673L381.184 39.1173L381.709 39.1162L381.707 38.3663ZM381.182 38.3673L381.181 37.6173L380.656 37.6183L380.657 38.3683L380.659 39.1183L381.184 39.1173L381.182 38.3673ZM380.657 38.3683L380.656 37.6183C377.46 37.6247 374.265 37.9211 371.072 38.5072L371.207 39.2448L371.343 39.9825C374.449 39.4124 377.554 39.1245 380.659 39.1183L380.657 38.3683ZM371.207 39.2448L371.072 38.5072L370.547 38.6035L370.682 39.3412L370.818 40.0789L371.343 39.9825L371.207 39.2448ZM370.682 39.3412L370.547 38.6035L370.022 38.6998L370.157 39.4375L370.293 40.1752L370.818 40.0789L370.682 39.3412ZM370.157 39.4375L370.022 38.6998C366.986 39.2569 363.951 39.1134 360.909 38.2655L360.707 38.988L360.506 39.7105C363.763 40.6181 367.028 40.7743 370.293 40.1752L370.157 39.4375ZM360.707 38.988L360.909 38.2655L360.384 38.1192L360.182 38.8417L359.981 39.5642L360.506 39.7105L360.707 38.988ZM360.182 38.8417L360.384 38.1192L359.859 37.9729L359.657 38.6954L359.456 39.4179L359.981 39.5642L360.182 38.8417ZM359.657 38.6954L359.859 37.9729C356.55 37.0509 353.236 37.22 349.941 38.4695L350.207 39.1708L350.473 39.872C353.479 38.7322 356.465 38.5844 359.456 39.4179L359.657 38.6954ZM350.207 39.1708L349.941 38.4695L349.416 38.6686L349.682 39.3699L349.948 40.0711L350.473 39.872L350.207 39.1708ZM349.682 39.3699L349.416 38.6686L348.891 38.8677L349.157 39.569L349.423 40.2702L349.948 40.0711L349.682 39.3699ZM349.157 39.569L348.891 38.8677C345.889 40.0063 342.906 40.1358 339.917 39.2661L339.707 39.9862L339.498 40.7064C342.809 41.6696 346.125 41.521 349.423 40.2702L349.157 39.569ZM339.707 39.9862L339.917 39.2661L339.392 39.1134L339.182 39.8335L338.973 40.5536L339.498 40.7064L339.707 39.9862ZM339.182 39.8335L339.392 39.1134L338.867 38.9606L338.657 39.6808L338.448 40.4009L338.973 40.5536L339.182 39.8335ZM338.657 39.6808L338.867 38.9606C335.632 38.0195 332.39 37.6806 329.146 37.9481L329.207 38.6956L329.269 39.443C332.324 39.1912 335.382 39.509 338.448 40.4009L338.657 39.6808ZM329.207 38.6956L329.146 37.9481L328.621 37.9914L328.682 38.7388L328.744 39.4863L329.269 39.443L329.207 38.6956ZM328.682 38.7388L328.621 37.9914L328.096 38.0346L328.157 38.7821L328.219 39.5296L328.744 39.4863L328.682 38.7388ZM328.157 38.7821L328.096 38.0346C324.919 38.2966 321.742 38.7324 318.566 39.3421L318.707 40.0787L318.849 40.8152C321.973 40.2155 325.096 39.787 328.219 39.5296L328.157 38.7821ZM318.707 40.0787L318.566 39.3421L318.041 39.4429L318.182 40.1795L318.324 40.916L318.849 40.8152L318.707 40.0787ZM318.182 40.1795L318.041 39.4429L317.516 39.5437L317.657 40.2802L317.799 41.0168L318.324 40.916L318.182 40.1795ZM317.657 40.2802L317.516 39.5437C314.45 40.1322 311.387 40.1878 308.323 39.7109L308.207 40.4519L308.092 41.193C311.328 41.6966 314.565 41.6377 317.799 41.0168L317.657 40.2802ZM308.207 40.4519L308.323 39.7109L307.798 39.6291L307.682 40.3702L307.567 41.1113L308.092 41.193L308.207 40.4519ZM307.682 40.3702L307.798 39.6291L307.273 39.5474L307.157 40.2885L307.042 41.0296L307.567 41.1113L307.682 40.3702ZM307.157 40.2885L307.273 39.5474C304.098 39.0534 300.923 38.7197 297.748 38.5465L297.707 39.2953L297.666 40.0442C300.791 40.2147 303.916 40.5432 307.042 41.0296L307.157 40.2885ZM297.707 39.2953L297.748 38.5465L297.223 38.5178L297.182 39.2667L297.141 40.0156L297.666 40.0442L297.707 39.2953ZM297.182 39.2667L297.223 38.5178L296.698 38.4892L296.657 39.2381L296.616 39.9869L297.141 40.0156L297.182 39.2667ZM296.657 39.2381L296.698 38.4892C293.55 38.3174 290.401 38.1356 287.253 37.9438L287.207 38.6924L287.162 39.441C290.313 39.633 293.465 39.815 296.616 39.9869L296.657 39.2381ZM287.207 38.6924L287.253 37.9438L286.728 37.9118L286.682 38.6604L286.637 39.409L287.162 39.441L287.207 38.6924ZM286.682 38.6604L286.728 37.9118L286.203 37.8798L286.157 38.6284L286.112 39.377L286.637 39.409L286.682 38.6604ZM286.157 38.6284L286.203 37.8798C283.049 37.6877 279.895 37.5219 276.74 37.3825L276.707 38.1317L276.674 38.881C279.82 39.02 282.966 39.1854 286.112 39.377L286.157 38.6284ZM276.707 38.1317L276.74 37.3825L276.215 37.3592L276.182 38.1085L276.149 38.8578L276.674 38.881L276.707 38.1317ZM276.182 38.1085L276.215 37.3592L275.69 37.336L275.657 38.0853L275.624 38.8346L276.149 38.8578L276.182 38.1085ZM275.657 38.0853L275.69 37.336C272.507 37.1953 269.324 37.2649 266.142 37.5447L266.207 38.2918L266.273 39.0389C269.39 38.7649 272.507 38.6968 275.624 38.8346L275.657 38.0853ZM266.207 38.2918L266.142 37.5447L265.617 37.5908L265.682 38.338L265.748 39.0851L266.273 39.0389L266.207 38.2918ZM265.682 38.338L265.617 37.5908L265.092 37.637L265.157 38.3841L265.223 39.1312L265.748 39.0851L265.682 38.338ZM265.157 38.3841L265.092 37.637C261.984 37.9102 258.876 37.9191 255.769 37.6638L255.707 38.4113L255.646 39.1587C258.838 39.421 262.031 39.4118 265.223 39.1312L265.157 38.3841ZM255.707 38.4113L255.769 37.6638L255.244 37.6206L255.182 38.3681L255.121 39.1156L255.646 39.1587L255.707 38.4113ZM255.182 38.3681L255.244 37.6206L254.719 37.5775L254.657 38.325L254.596 39.0725L255.121 39.1156L255.182 38.3681ZM254.657 38.325L254.719 37.5775C251.463 37.31 248.212 37.7176 244.971 38.7935L245.207 39.5053L245.444 40.2171C248.503 39.2016 251.552 38.8223 254.596 39.0725L254.657 38.325ZM245.207 39.5053L244.971 38.7935L244.446 38.9678L244.682 39.6796L244.919 40.3914L245.444 40.2171L245.207 39.5053ZM244.682 39.6796L244.446 38.9678L243.921 39.142L244.157 39.8538L244.394 40.5656L244.919 40.3914L244.682 39.6796ZM244.157 39.8538L243.921 39.142C240.911 40.1411 237.915 40.2143 234.911 39.3658L234.707 40.0876L234.503 40.8093C237.8 41.7406 241.103 41.6579 244.394 40.5656L244.157 39.8538ZM234.707 40.0876L234.911 39.3658L234.386 39.2175L234.182 39.9392L233.978 40.661L234.503 40.8093L234.707 40.0876ZM234.182 39.9392L234.386 39.2175L233.861 39.0692L233.657 39.7909L233.453 40.5127L233.978 40.661L234.182 39.9392ZM233.657 39.7909L233.861 39.0692C230.629 38.156 227.389 37.828 224.147 38.0891L224.207 38.8367L224.268 39.5842C227.325 39.338 230.386 39.6462 233.453 40.5127L233.657 39.7909ZM224.207 38.8367L224.147 38.0891L223.622 38.1314L223.682 38.8789L223.743 39.6265L224.268 39.5842L224.207 38.8367ZM223.682 38.8789L223.622 38.1314L223.097 38.1736L223.157 38.9212L223.218 39.6688L223.743 39.6265L223.682 38.8789ZM223.157 38.9212L223.097 38.1736C219.954 38.4268 216.811 38.6374 213.667 38.8055L213.707 39.5544L213.747 40.3033C216.904 40.1345 220.061 39.923 223.218 39.6688L223.157 38.9212ZM213.707 39.5544L213.667 38.8055L213.142 38.8335L213.182 39.5825L213.222 40.3314L213.747 40.3033L213.707 39.5544ZM213.182 39.5825L213.142 38.8335L212.617 38.8616L212.657 39.6106L212.697 40.3595L213.222 40.3314L213.182 39.5825ZM212.657 39.6106L212.617 38.8616C209.492 39.0287 206.367 39.0395 203.242 38.8938L203.207 39.6429L203.172 40.3921C206.347 40.5402 209.522 40.5293 212.697 40.3595L212.657 39.6106ZM203.207 39.6429L203.242 38.8938L202.717 38.8693L202.682 39.6185L202.647 40.3677L203.172 40.3921L203.207 39.6429ZM202.682 39.6185L202.717 38.8693L202.192 38.8448L202.157 39.594L202.122 40.3432L202.647 40.3677L202.682 39.6185ZM202.157 39.594L202.192 38.8448C199.032 38.6975 195.871 38.6163 192.711 38.6013L192.707 39.3513L192.704 40.1013C195.843 40.1162 198.983 40.1968 202.122 40.3432L202.157 39.594ZM192.707 39.3513L192.711 38.6013L192.186 38.5988L192.182 39.3488L192.179 40.0988L192.704 40.1013L192.707 39.3513ZM192.182 39.3488L192.186 38.5988L191.661 38.5963L191.657 39.3463L191.654 40.0963L192.179 40.0988L192.182 39.3488ZM191.657 39.3463L191.661 38.5963C188.457 38.5811 185.255 38.9073 182.054 39.5741L182.207 40.3084L182.36 41.0426C185.46 40.3967 188.557 40.0816 191.654 40.0963L191.657 39.3463ZM182.207 40.3084L182.054 39.5741L181.529 39.6835L181.682 40.4178L181.835 41.152L182.36 41.0426L182.207 40.3084ZM181.682 40.4178L181.529 39.6835L181.004 39.7929L181.157 40.5272L181.31 41.2614L181.835 41.152L181.682 40.4178ZM181.157 40.5272L181.004 39.7929C177.982 40.4227 174.961 40.2708 171.929 39.3316L171.707 40.048L171.485 40.7645C174.754 41.7769 178.033 41.9443 181.31 41.2614L181.157 40.5272ZM171.707 40.048L171.929 39.3316L171.404 39.169L171.182 39.8854L170.96 40.6018L171.485 40.7645L171.707 40.048ZM171.182 39.8854L171.404 39.169L170.879 39.0064L170.657 39.7228L170.435 40.4392L170.96 40.6018L171.182 39.8854ZM170.657 39.7228L170.879 39.0064C167.678 38.0147 164.472 37.3974 161.263 37.1565L161.207 37.9044L161.151 38.6523C164.242 38.8844 167.337 39.4794 170.435 40.4392L170.657 39.7228ZM161.207 37.9044L161.263 37.1565L160.738 37.1171L160.682 37.865L160.626 38.6129L161.151 38.6523L161.207 37.9044ZM160.682 37.865L160.738 37.1171L160.213 37.0776L160.157 37.8255L160.101 38.5734L160.626 38.6129L160.682 37.865ZM160.157 37.8255L160.213 37.0776C157.047 36.8399 153.881 36.7062 150.714 36.6765L150.707 37.4265L150.7 38.1764C153.834 38.2058 156.967 38.3381 160.101 38.5734L160.157 37.8255ZM150.707 37.4265L150.714 36.6765L150.189 36.6716L150.182 37.4216L150.175 38.1715L150.7 38.1764L150.707 37.4265ZM150.182 37.4216L150.189 36.6716L149.664 36.6667L149.657 37.4166L149.65 38.1666L150.175 38.1715L150.182 37.4216ZM149.657 37.4166L149.664 36.6667C146.468 36.6367 143.272 36.9031 140.077 37.4653L140.207 38.204L140.337 38.9426C143.443 38.396 146.547 38.1375 149.65 38.1666L149.657 37.4166ZM140.207 38.204L140.077 37.4653L139.552 37.5578L139.682 38.2964L139.812 39.035L140.337 38.9426L140.207 38.204ZM139.682 38.2964L139.552 37.5578L139.027 37.6502L139.157 38.3888L139.287 39.1274L139.812 39.035L139.682 38.2964ZM139.157 38.3888L139.027 37.6502C135.894 38.2016 132.762 38.6414 129.629 38.9696L129.707 39.7155L129.785 40.4614C132.953 40.1295 136.12 39.6849 139.287 39.1274L139.157 38.3888ZM129.707 39.7155L129.629 38.9696L129.104 39.0246L129.182 39.7705L129.26 40.5164L129.785 40.4614L129.707 39.7155ZM129.182 39.7705L129.104 39.0246L128.579 39.0796L128.657 39.8255L128.735 40.5714L129.26 40.5164L129.182 39.7705ZM128.657 39.8255L128.579 39.0796C125.454 39.407 122.33 39.5751 119.205 39.584L119.207 40.334L119.209 41.084C122.385 41.0749 125.56 40.9041 128.735 40.5714L128.657 39.8255ZM119.207 40.334L119.205 39.584L118.68 39.5855L118.682 40.3355L118.684 41.0855L119.209 41.084L119.207 40.334ZM118.682 40.3355L118.68 39.5855L118.155 39.587L118.157 40.337L118.159 41.087L118.684 41.0855L118.682 40.3355ZM118.157 40.337L118.155 39.587C115.07 39.5959 111.982 39.2118 108.891 38.4331L108.707 39.1604L108.524 39.8877C111.733 40.6959 114.945 41.0962 118.159 41.087L118.157 40.337ZM108.707 39.1604L108.891 38.4331L108.366 38.3008L108.182 39.0281L107.999 39.7554L108.524 39.8877L108.707 39.1604ZM108.182 39.0281L108.366 38.3008L107.841 38.1686L107.657 38.8959L107.474 39.6232L107.999 39.7554L108.182 39.0281ZM107.657 38.8959L107.841 38.1686C104.62 37.3573 101.394 37.0387 98.1664 37.2152L98.2073 37.964L98.2483 38.7129C101.321 38.5449 104.395 38.8476 107.474 39.6232L107.657 38.8959ZM98.2073 37.964L98.1664 37.2152L97.6414 37.2439L97.6823 37.9928L97.7233 38.7416L98.2483 38.7129L98.2073 37.964ZM97.6823 37.9928L97.6414 37.2439L97.1164 37.2726L97.1573 38.0215L97.1983 38.7703L97.7233 38.7416L97.6823 37.9928ZM97.1573 38.0215L97.1164 37.2726C93.9053 37.4481 90.6973 38.0136 87.4934 38.9672L87.7073 39.686L87.9212 40.4048C91.0173 39.4834 94.1093 38.9392 97.1983 38.7703L97.1573 38.0215ZM87.7073 39.686L87.4934 38.9672L86.9684 39.1234L87.1823 39.8422L87.3962 40.5611L87.9212 40.4048L87.7073 39.686ZM87.1823 39.8422L86.9684 39.1234L86.4434 39.2796L86.6573 39.9985L86.8712 40.7173L87.3962 40.5611L87.1823 39.8422ZM86.6573 39.9985L86.4434 39.2796C83.3612 40.1969 80.2849 40.6442 77.2121 40.6246L77.2073 41.3746L77.2025 42.1246C80.4297 42.1451 83.6534 41.675 86.8712 40.7173L86.6573 39.9985ZM77.2073 41.3746L77.2121 40.6246L76.6871 40.6213L76.6823 41.3712L76.6775 42.1212L77.2025 42.1246L77.2073 41.3746ZM76.6823 41.3712L76.6871 40.6213L76.1621 40.6179L76.1573 41.3679L76.1525 42.1179L76.6775 42.1212L76.6823 41.3712ZM76.1573 41.3679L76.1621 40.6179C73.0644 40.5982 69.9653 40.257 66.8642 39.5937L66.7073 40.3271L66.5504 41.0605C69.7493 41.7448 72.9503 42.0975 76.1525 42.1179L76.1573 41.3679ZM66.7073 40.3271L66.8642 39.5937L66.3392 39.4814L66.1823 40.2148L66.0254 40.9482L66.5504 41.0605L66.7073 40.3271ZM66.1823 40.2148L66.3392 39.4814L65.8142 39.3691L65.6573 40.1025L65.5004 40.836L66.0254 40.9482L66.1823 40.2148ZM65.6573 40.1025L65.8142 39.3691C62.551 38.6711 59.2847 38.7329 56.0244 39.5528L56.2073 40.2802L56.3902 41.0075C59.4299 40.2431 62.4636 40.1864 65.5004 40.836L65.6573 40.1025ZM56.2073 40.2802L56.0244 39.5528L55.4994 39.6849L55.6823 40.4122L55.8652 41.1396L56.3902 41.0075L56.2073 40.2802ZM55.6823 40.4122L55.4994 39.6849L54.9744 39.8169L55.1573 40.5443L55.3402 41.2716L55.8652 41.1396L55.6823 40.4122ZM55.1573 40.5443L54.9744 39.8169C51.9092 40.5878 48.8493 40.8008 45.7907 40.4586L45.7073 41.2039L45.6239 41.9493C48.8653 42.3119 52.1054 42.0851 55.3402 41.2716L55.1573 40.5443ZM45.7073 41.2039L45.7907 40.4586L45.2657 40.3999L45.1823 41.1452L45.0989 41.8906L45.6239 41.9493L45.7073 41.2039ZM45.1823 41.1452L45.2657 40.3999L44.7407 40.3411L44.6573 41.0865L44.5739 41.8318L45.0989 41.8906L45.1823 41.1452ZM44.6573 41.0865L44.7407 40.3411C41.6355 39.9937 38.5283 39.3639 35.4186 38.4509L35.2073 39.1705L34.996 39.8902C38.1863 40.8269 41.3791 41.4744 44.5739 41.8318L44.6573 41.0865ZM35.2073 39.1705L35.4186 38.4509L34.8936 38.2968L34.6823 39.0164L34.471 39.736L34.996 39.8902L35.2073 39.1705ZM34.6823 39.0164L34.8936 38.2968L34.3686 38.1426L34.1573 38.8622L33.946 39.5819L34.471 39.736L34.6823 39.0164ZM34.1573 38.8622L34.3686 38.1426C31.0947 37.1814 27.8116 37.0923 24.5324 37.8785L24.7073 38.6078L24.8822 39.3371C27.903 38.6128 30.9199 38.6934 33.946 39.5819L34.1573 38.8622ZM24.7073 38.6078L24.5324 37.8785L24.0074 38.0044L24.1823 38.7337L24.3572 39.463L24.8822 39.3371L24.7073 38.6078ZM24.1823 38.7337L24.0074 38.0044L23.4824 38.1302L23.6573 38.8596L23.8322 39.5889L24.3572 39.463L24.1823 38.7337ZM23.6573 38.8596L23.4824 38.1302C20.4209 38.8643 17.3804 39.0191 14.3561 38.598L14.2527 39.3409L14.1492 40.0837C17.3644 40.5314 20.5937 40.3654 23.8322 39.5889L23.6573 38.8596ZM14.2527 39.3409L14.3561 38.598L13.8361 38.5256L13.7327 39.2685L13.6293 40.0113L14.1492 40.0837L14.2527 39.3409ZM13.7327 39.2685L13.8361 38.5256L13.3162 38.4532L13.2128 39.1961L13.1093 39.9389L13.6293 40.0113L13.7327 39.2685ZM13.2128 39.1961L13.3162 38.4532C10.3569 38.0412 7.71409 36.7666 5.37509 34.6054L4.86612 35.1563L4.35715 35.7071C6.9075 38.0636 9.82913 39.4821 13.1093 39.9389L13.2128 39.1961ZM4.86612 35.1563L5.37509 34.6054L4.96765 34.229L4.45867 34.7798L3.9497 35.3307L4.35715 35.7071L4.86612 35.1563ZM4.45867 34.7798L4.96765 34.229L4.5602 33.8525L4.05123 34.4034L3.54226 34.9542L3.9497 35.3307L4.45867 34.7798ZM4.05123 34.4034L4.5602 33.8525C2.28251 31.748 1.2864 29.206 1.53795 26.1646L0.790502 26.1028L0.0430536 26.041C-0.247115 29.5494 0.9306 32.5412 3.54226 34.9542L4.05123 34.4034ZM0.790502 26.1028L1.53795 26.1646L1.58309 25.6188L0.835645 25.557L0.0881966 25.4952L0.0430536 26.041L0.790502 26.1028ZM0.835645 25.557L1.58309 25.6188L1.62824 25.073L0.880787 25.0112L0.13334 24.9493L0.0881966 25.4952L0.835645 25.557ZM0.880787 25.0112L1.62824 25.073C1.89849 21.8053 2.21133 18.604 2.56673 15.469L1.8215 15.3845L1.07627 15.3001C0.719101 18.4507 0.404799 21.6671 0.13334 24.9493L0.880787 25.0112ZM1.8215 15.3845L2.56673 15.469L2.62611 14.9452L1.88088 14.8607L1.13565 14.7762L1.07627 15.3001L1.8215 15.3845ZM1.88088 14.8607L2.62611 14.9452L2.68549 14.4214L1.94026 14.3369L1.19503 14.2524L1.13565 14.7762L1.88088 14.8607ZM1.94026 14.3369L2.68549 14.4214C3.02196 11.4533 4.26851 8.92632 6.44275 6.81518L5.92029 6.2771L5.39783 5.73902C2.97793 8.08868 1.57112 10.9349 1.19503 14.2524L1.94026 14.3369ZM5.92029 6.2771L6.44275 6.81518L6.8256 6.44345L6.30314 5.90537L5.78067 5.36729L5.39783 5.73902L5.92029 6.2771ZM6.30314 5.90537L6.8256 6.44345L7.20845 6.07172L6.68598 5.53364L6.16352 4.99555L5.78067 5.36729L6.30314 5.90537ZM6.68598 5.53364L7.20845 6.07172C8.33903 4.97395 9.29279 4.19108 10.0743 3.69992C10.8808 3.19303 11.3932 3.06787 11.677 3.09624L11.7516 2.34996L11.8262 1.60367C11.03 1.5241 10.1581 1.87558 9.27611 2.42992C8.36905 2.99999 7.33001 3.86293 6.16352 4.99555L6.68598 5.53364ZM11.7516 2.34996L11.677 3.09624L11.8571 3.11423L11.9316 2.36795L12.0062 1.62167L11.8262 1.60367L11.7516 2.34996ZM11.9316 2.36795L11.8571 3.11423L12.0371 3.13222L12.1116 2.38594L12.1862 1.63966L12.0062 1.62167L11.9316 2.36795ZM12.1116 2.38594L12.0371 3.13222C13.1113 3.23959 15.2215 3.4716 18.3722 3.8289L18.4567 3.08368L18.5412 2.33846C15.3919 1.98132 13.272 1.74817 12.1862 1.63966L12.1116 2.38594ZM18.4567 3.08368L18.3722 3.8289L18.8972 3.88844L18.9817 3.14322L19.0662 2.39799L18.5412 2.33846L18.4567 3.08368Z"
        fill="black" />
    <path
        d="M201.497 29.9999C201.277 29.9119 201.02 29.7872 200.727 29.6259C200.434 29.4792 200.155 29.2812 199.891 29.0319C199.627 28.7825 199.422 28.4819 199.275 28.1299C199.128 27.7045 199.026 27.2865 198.967 26.8759C198.923 26.4652 198.908 25.9885 198.923 25.4459C198.923 24.6832 198.974 24.0232 199.077 23.4659C199.194 22.8939 199.37 22.3145 199.605 21.7279C199.634 21.6839 199.686 21.5592 199.759 21.3539C199.847 21.1339 199.942 20.8992 200.045 20.6499C200.162 20.4005 200.25 20.2099 200.309 20.0779C200.426 19.8285 200.602 19.4985 200.837 19.0879C201.086 18.6625 201.35 18.2519 201.629 17.8559C202.054 17.2252 202.414 16.7119 202.707 16.3159C203 15.9052 203.279 15.5605 203.543 15.2819C203.822 15.0032 204.122 14.7319 204.445 14.4679C204.782 14.2039 205.2 13.9032 205.699 13.5659C206.022 13.3312 206.432 13.1845 206.931 13.1259C207.444 13.0672 207.943 13.1479 208.427 13.3679C208.911 13.5732 209.27 13.9692 209.505 14.5559C209.666 14.8639 209.74 15.2525 209.725 15.7219C209.71 16.1765 209.622 16.6679 209.461 17.1959C209.3 17.7092 209.094 18.1932 208.845 18.6479C208.596 19.1025 208.317 19.4692 208.009 19.7479C207.818 19.9239 207.562 19.9532 207.239 19.8359C206.931 19.7185 206.674 19.5645 206.469 19.3739C206.337 19.1245 206.264 18.9779 206.249 18.9339C206.249 18.8899 206.278 18.8605 206.337 18.8459C206.425 18.7432 206.542 18.5672 206.689 18.3179C206.836 18.0685 206.982 17.8045 207.129 17.5259C207.276 17.2325 207.378 16.9979 207.437 16.8219C207.554 16.2059 207.635 15.8025 207.679 15.6119C207.723 15.4065 207.679 15.2379 207.547 15.1059C207.488 15.0472 207.4 15.0252 207.283 15.0399C207.18 15.0545 207.004 15.1279 206.755 15.2599C206.418 15.4065 206.014 15.7072 205.545 16.1619C205.09 16.6019 204.636 17.1299 204.181 17.7459C203.594 18.5232 203.103 19.2125 202.707 19.8139C202.311 20.4152 202.01 21.0312 201.805 21.6619C201.776 21.7205 201.724 21.8305 201.651 21.9919C201.592 22.1532 201.563 22.2339 201.563 22.2339C201.578 22.2925 201.556 22.4392 201.497 22.6739C201.438 22.8939 201.372 23.0845 201.299 23.2459C201.138 23.9205 201.042 24.5732 201.013 25.2039C200.984 25.8199 201.02 26.3625 201.123 26.8319C201.24 27.2865 201.409 27.6239 201.629 27.8439C201.82 27.9759 202.062 28.0199 202.355 27.9759C202.648 27.9319 202.986 27.8292 203.367 27.6679C203.748 27.5065 204.159 27.3305 204.599 27.1399C204.951 26.9932 205.274 26.8319 205.567 26.6559C205.86 26.4799 206.08 26.3259 206.227 26.1939C206.344 26.1059 206.491 26.0179 206.667 25.9299C206.858 25.8272 207.019 25.7759 207.151 25.7759C207.356 25.7025 207.51 25.7612 207.613 25.9519C207.716 26.1425 207.767 26.3845 207.767 26.6779C207.767 26.8832 207.62 27.1325 207.327 27.4259C207.034 27.7192 206.711 27.9685 206.359 28.1739C206.242 28.2912 206.08 28.4012 205.875 28.5039C205.684 28.5919 205.486 28.6725 205.281 28.7459C204.973 28.9805 204.592 29.2079 204.137 29.4279C203.682 29.6479 203.22 29.8165 202.751 29.9339C202.296 30.0512 201.878 30.0732 201.497 29.9999ZM209.737 27.9539C209.605 27.8512 209.459 27.7192 209.297 27.5579C209.151 27.3965 209.099 27.1692 209.143 26.8759C209.187 26.4652 209.246 26.1059 209.319 25.7979C209.393 25.4752 209.481 25.1085 209.583 24.6979C209.613 24.5219 209.686 24.2212 209.803 23.7959C209.935 23.3705 210.089 22.9085 210.265 22.4099C210.441 21.9112 210.625 21.4419 210.815 21.0019C211.006 20.5472 211.175 20.2099 211.321 19.9899C211.483 19.8432 211.717 19.7699 212.025 19.7699C212.348 19.7699 212.568 19.8285 212.685 19.9459C212.847 20.0779 212.898 20.3125 212.839 20.6499C212.781 20.9725 212.575 21.4785 212.223 22.1679C212.15 22.3439 212.055 22.5345 211.937 22.7399C211.835 22.9305 211.761 23.0919 211.717 23.2239C211.673 23.3412 211.688 23.3925 211.761 23.3779C211.849 23.2165 212.011 23.0332 212.245 22.8279C212.48 22.6079 212.729 22.3952 212.993 22.1899C213.257 21.9845 213.507 21.8012 213.741 21.6399C213.976 21.4785 214.137 21.3759 214.225 21.3319C214.343 21.2585 214.475 21.1999 214.621 21.1559C214.783 21.0972 214.893 21.0532 214.951 21.0239C215.289 20.8625 215.655 20.8039 216.051 20.8479C216.462 20.8772 216.711 21.0019 216.799 21.2219C216.814 21.3392 216.858 21.4272 216.931 21.4859C217.019 21.5445 217.063 21.5739 217.063 21.5739C217.122 21.5739 217.151 21.5959 217.151 21.6399C217.166 21.6839 217.173 21.7059 217.173 21.7059C217.173 21.8085 217.071 21.9552 216.865 22.1459C216.675 22.3365 216.462 22.4392 216.227 22.4539C216.037 22.4685 215.868 22.5052 215.721 22.5639C215.575 22.6225 215.399 22.6959 215.193 22.7839C214.636 23.1065 214.13 23.3925 213.675 23.6419C213.235 23.8912 212.781 24.2725 212.311 24.7859C212.209 24.9032 212.099 25.0132 211.981 25.1159C211.864 25.2185 211.747 25.3652 211.629 25.5559C211.556 25.6292 211.483 25.7905 211.409 26.0399C211.336 26.2892 211.27 26.5312 211.211 26.7659C211.167 26.9859 211.145 27.1179 211.145 27.1619C211.145 27.1619 211.123 27.2352 211.079 27.3819C211.035 27.5139 210.962 27.6459 210.859 27.7779C210.683 28.0125 210.507 28.1592 210.331 28.2179C210.17 28.2765 209.972 28.1885 209.737 27.9539ZM221.493 28.1079C221.053 28.3572 220.584 28.5039 220.085 28.5479C219.601 28.5772 219.146 28.5112 218.721 28.3499C218.296 28.1739 217.951 27.9172 217.687 27.5799C217.54 27.3892 217.401 27.0885 217.269 26.6779C217.137 26.2525 217.115 25.6805 217.203 24.9619C217.291 24.2872 217.496 23.6052 217.819 22.9159C218.156 22.2265 218.567 21.6179 219.051 21.0899C219.535 20.5619 220.063 20.2025 220.635 20.0119C220.84 19.9385 221.046 19.8872 221.251 19.8579C221.471 19.8139 221.757 19.8065 222.109 19.8359C222.446 19.8799 222.747 19.9679 223.011 20.0999C223.275 20.2172 223.466 20.3492 223.583 20.4959C223.818 20.7305 223.972 20.9579 224.045 21.1779C224.118 21.3979 224.148 21.6105 224.133 21.8159C224.06 22.2852 223.847 22.7912 223.495 23.3339C223.158 23.8765 222.681 24.2799 222.065 24.5439C221.816 24.6465 221.522 24.7125 221.185 24.7419C220.848 24.7712 220.386 24.7272 219.799 24.6099C219.447 24.5365 219.212 24.5732 219.095 24.7199C218.992 24.8665 218.948 25.1525 218.963 25.5779C218.992 25.8419 219.051 26.0765 219.139 26.2819C219.242 26.4725 219.425 26.6045 219.689 26.6779C220.026 26.7365 220.268 26.7439 220.415 26.6999C220.562 26.6412 220.745 26.5605 220.965 26.4579C221.082 26.3845 221.192 26.3039 221.295 26.2159C221.412 26.1279 221.522 26.0399 221.625 25.9519C221.742 25.8639 221.838 25.7979 221.911 25.7539C221.984 25.6952 222.058 25.6585 222.131 25.6439C222.204 25.6292 222.278 25.6219 222.351 25.6219C222.512 25.6365 222.666 25.7245 222.813 25.8859C222.96 26.0472 223.055 26.2012 223.099 26.3479C223.099 26.4652 223.026 26.6339 222.879 26.8539C222.732 27.0592 222.534 27.2792 222.285 27.5139C222.05 27.7339 221.786 27.9319 221.493 28.1079ZM221.207 23.2019C221.31 23.1579 221.456 23.0552 221.647 22.8939C221.852 22.7325 222.036 22.5639 222.197 22.3879C222.358 22.1972 222.439 22.0505 222.439 21.9479C222.439 21.7865 222.329 21.6472 222.109 21.5299C221.904 21.4125 221.632 21.3905 221.295 21.4639C221.178 21.4932 221.038 21.5739 220.877 21.7059C220.716 21.8379 220.554 21.9919 220.393 22.1679C220.232 22.3292 220.092 22.4905 219.975 22.6519C219.858 22.7985 219.777 22.9159 219.733 23.0039C219.792 23.0772 219.909 23.1359 220.085 23.1799C220.261 23.2239 220.452 23.2459 220.657 23.2459C220.877 23.2459 221.06 23.2312 221.207 23.2019ZM226.553 28.2399C226.435 28.2692 226.281 28.2839 226.091 28.2839C225.9 28.2692 225.731 28.2472 225.585 28.2179C225.453 28.1739 225.387 28.1299 225.387 28.0859C225.387 28.0125 225.35 27.9759 225.277 27.9759C225.277 27.9759 225.196 27.9172 225.035 27.7999C224.873 27.6679 224.727 27.5725 224.595 27.5139C224.463 27.3085 224.375 27.0739 224.331 26.8099C224.301 26.5312 224.389 26.0472 224.595 25.3579C224.609 24.8885 224.741 24.3972 224.991 23.8839C225.24 23.3559 225.555 22.8425 225.937 22.3439C226.318 21.8452 226.714 21.4052 227.125 21.0239C227.535 20.6279 227.902 20.3345 228.225 20.1439C228.43 19.9385 228.701 19.8285 229.039 19.8139C229.391 19.7992 229.699 19.8652 229.963 20.0119C230.109 20.0852 230.271 20.2319 230.447 20.4519C230.623 20.6719 230.791 20.9065 230.953 21.1559C231.114 21.3905 231.239 21.6032 231.327 21.7939C231.371 21.9552 231.407 22.1019 231.437 22.2339C231.481 22.3512 231.51 22.4979 231.525 22.6739C231.539 22.8499 231.525 23.1139 231.481 23.4659C231.407 23.7299 231.341 24.0012 231.283 24.2799C231.239 24.5439 231.217 24.8152 231.217 25.0939C231.187 25.3725 231.217 25.5705 231.305 25.6879C231.407 25.8052 231.554 25.8125 231.745 25.7099C231.921 25.6219 232.104 25.6145 232.295 25.6879C232.485 25.7465 232.617 25.8639 232.691 26.0399C232.779 26.2012 232.757 26.4139 232.625 26.6779C232.537 26.8685 232.397 27.0519 232.207 27.2279C232.016 27.4039 231.803 27.5505 231.569 27.6679C231.334 27.7705 231.107 27.8219 230.887 27.8219C230.725 27.8219 230.564 27.7632 230.403 27.6459C230.241 27.5139 230.095 27.3379 229.963 27.1179C229.831 26.8979 229.721 26.6559 229.633 26.3919L229.501 25.8859L228.709 26.6119C228.518 26.8172 228.327 27.0079 228.137 27.1839C227.961 27.3452 227.851 27.4625 227.807 27.5359C227.733 27.6679 227.587 27.7852 227.367 27.8879C227.161 27.9905 226.89 28.1079 226.553 28.2399ZM227.147 26.1279C227.396 25.9812 227.609 25.8052 227.785 25.5999C227.975 25.3945 228.159 25.1672 228.335 24.9179C228.511 24.6539 228.701 24.3752 228.907 24.0819C229.156 23.7445 229.332 23.4732 229.435 23.2679C229.552 23.0625 229.64 22.8425 229.699 22.6079C229.64 22.4465 229.559 22.2779 229.457 22.1019C229.354 21.9112 229.251 21.8085 229.149 21.7939C228.943 21.7939 228.694 21.9185 228.401 22.1679C228.122 22.4172 227.814 22.7765 227.477 23.2459C227.418 23.3192 227.345 23.4365 227.257 23.5979C227.169 23.7592 227.081 23.9132 226.993 24.0599C226.919 24.1919 226.868 24.2799 226.839 24.3239C226.795 24.3825 226.729 24.5219 226.641 24.7419C226.567 24.9472 226.501 25.1599 226.443 25.3799C226.384 25.5852 226.355 25.7319 226.355 25.8199C226.355 25.9079 226.362 26.0032 226.377 26.1059C226.406 26.2085 226.479 26.2745 226.597 26.3039C226.714 26.3332 226.897 26.2745 227.147 26.1279ZM236.478 28.6799C236.273 28.6212 236.068 28.5185 235.862 28.3719C235.657 28.2252 235.444 28.0565 235.224 27.8659C235.048 27.6312 234.924 27.4185 234.85 27.2279C234.777 27.0225 234.733 26.7879 234.718 26.5239C234.718 26.2452 234.718 25.8932 234.718 25.4679C234.718 25.2919 234.748 25.0425 234.806 24.7199C234.88 24.3972 234.953 24.0599 235.026 23.7079C235.114 23.3559 235.195 23.0479 235.268 22.7839C235.342 22.5052 235.386 22.3219 235.4 22.2339C235.444 22.0432 235.371 21.9332 235.18 21.9039C234.99 21.8745 234.777 21.8672 234.542 21.8819C234.322 21.8819 234.176 21.8599 234.102 21.8159C234.044 21.8012 234.014 21.7279 234.014 21.5959C234.014 21.4492 234.014 21.3759 234.014 21.3759C234.014 21.3172 233.985 21.2805 233.926 21.2659C233.868 21.2365 233.816 21.1852 233.772 21.1119C233.743 21.0532 233.78 20.9432 233.882 20.7819C233.985 20.6205 234.117 20.5252 234.278 20.4959C234.41 20.4665 234.608 20.4445 234.872 20.4299C235.136 20.4005 235.4 20.3492 235.664 20.2759C235.943 20.1879 236.156 20.0559 236.302 19.8799C236.434 19.5572 236.581 19.2125 236.742 18.8459C236.904 18.4645 237.058 18.1345 237.204 17.8559C237.351 17.5625 237.454 17.3792 237.512 17.3059C237.762 17.1739 238.018 17.1225 238.282 17.1519C238.546 17.1665 238.752 17.2912 238.898 17.5259C238.972 17.6285 239.03 17.7019 239.074 17.7459C239.133 17.7899 239.155 17.8559 239.14 17.9439C239.14 18.0319 239.082 18.1932 238.964 18.4279C238.862 18.6479 238.686 18.9925 238.436 19.4619C238.363 19.6085 238.297 19.7405 238.238 19.8579C238.18 19.9605 238.15 20.0119 238.15 20.0119C238.209 20.0265 238.297 20.0339 238.414 20.0339C238.532 20.0339 238.678 20.0265 238.854 20.0119C239.016 19.9825 239.192 19.9605 239.382 19.9459C239.573 19.9165 239.742 19.9165 239.888 19.9459C240.226 19.9459 240.475 20.0412 240.636 20.2319C240.798 20.4225 240.886 20.6645 240.9 20.9579C240.93 21.1192 240.871 21.2585 240.724 21.3759C240.578 21.4932 240.306 21.5519 239.91 21.5519C239.778 21.5519 239.588 21.5592 239.338 21.5739C239.089 21.5885 238.832 21.6032 238.568 21.6179C238.304 21.6325 238.077 21.6545 237.886 21.6839C237.71 21.6985 237.622 21.7205 237.622 21.7499C237.578 21.7792 237.505 21.8965 237.402 22.1019C237.314 22.2925 237.219 22.5272 237.116 22.8059C237.028 23.0845 236.948 23.3485 236.874 23.5979C236.772 24.0965 236.698 24.5805 236.654 25.0499C236.61 25.5192 236.603 25.9299 236.632 26.2819C236.676 26.6192 236.764 26.8612 236.896 27.0079C237.028 27.1399 237.226 27.1399 237.49 27.0079C237.769 26.8612 238.026 26.6925 238.26 26.5019C238.524 26.2819 238.752 26.2159 238.942 26.3039C239.133 26.3772 239.25 26.5385 239.294 26.7879C239.353 27.0225 239.287 27.2792 239.096 27.5579C238.92 27.8365 238.671 28.0712 238.348 28.2619C238.026 28.4525 237.696 28.5845 237.358 28.6579C237.021 28.7459 236.728 28.7532 236.478 28.6799ZM242.375 28.3499C241.803 28.1152 241.407 27.7339 241.187 27.2059C240.967 26.6779 240.909 25.9739 241.011 25.0939C241.041 24.6392 241.026 24.3385 240.967 24.1919C240.909 24.0305 240.799 23.8765 240.637 23.7299C240.593 23.6712 240.491 23.5759 240.329 23.4439C240.168 23.2972 240.095 23.1872 240.109 23.1139C240.095 23.0112 240.117 22.8865 240.175 22.7399C240.234 22.5785 240.285 22.4905 240.329 22.4759C240.432 22.4319 240.535 22.3805 240.637 22.3219C240.755 22.2632 240.843 22.2485 240.901 22.2779C240.96 22.2779 241.048 22.3145 241.165 22.3879C241.297 22.4612 241.363 22.5272 241.363 22.5859C241.422 22.6885 241.51 22.6445 241.627 22.4539C241.759 22.2632 241.899 22.0212 242.045 21.7279C242.192 21.4932 242.375 21.2732 242.595 21.0679C242.815 20.8625 243.035 20.6792 243.255 20.5179C243.49 20.3419 243.688 20.2099 243.849 20.1219C243.923 20.0925 244.062 20.0485 244.267 19.9899C244.487 19.9312 244.715 19.8872 244.949 19.8579C245.184 19.8139 245.36 19.7992 245.477 19.8139C245.741 19.8285 246.02 19.9385 246.313 20.1439C246.607 20.3492 246.834 20.5399 246.995 20.7159C247.186 20.8479 247.311 21.0532 247.369 21.3319C247.443 21.5959 247.472 21.8745 247.457 22.1679C247.443 22.4612 247.384 22.7105 247.281 22.9159C247.237 23.0625 247.083 23.2679 246.819 23.5319C246.555 23.7959 246.262 24.0525 245.939 24.3019C245.631 24.5365 245.367 24.6979 245.147 24.7859C244.957 24.8299 244.729 24.8665 244.465 24.8959C244.201 24.9105 243.952 24.9105 243.717 24.8959C243.497 24.8665 243.343 24.8299 243.255 24.7859C243.153 24.7272 243.065 24.7492 242.991 24.8519C242.933 24.9399 242.881 25.1892 242.837 25.5999C242.823 25.7612 242.823 25.9005 242.837 26.0179C242.867 26.1352 242.896 26.2232 242.925 26.2819C243.028 26.4579 243.131 26.5899 243.233 26.6779C243.336 26.7512 243.527 26.7732 243.805 26.7439C244.084 26.7145 244.363 26.5459 244.641 26.2379C244.935 25.9152 245.199 25.6585 245.433 25.4679C245.492 25.3652 245.617 25.2992 245.807 25.2699C246.013 25.2259 246.255 25.2405 246.533 25.3139C246.695 25.4165 246.768 25.5779 246.753 25.7979C246.753 26.0179 246.636 26.3405 246.401 26.7659C246.357 26.8685 246.233 27.0225 246.027 27.2279C245.837 27.4185 245.624 27.6165 245.389 27.8219C245.169 28.0125 244.986 28.1519 244.839 28.2399C244.399 28.4745 243.967 28.5845 243.541 28.5699C243.116 28.5552 242.727 28.4819 242.375 28.3499ZM244.003 23.3999C244.223 23.3412 244.407 23.2825 244.553 23.2239C244.715 23.1652 244.869 23.0699 245.015 22.9379C245.162 22.8059 245.331 22.6079 245.521 22.3439C245.58 22.1825 245.609 22.0432 245.609 21.9259C245.624 21.8085 245.617 21.7352 245.587 21.7059C245.47 21.5885 245.338 21.5519 245.191 21.5959C245.059 21.6252 244.913 21.6985 244.751 21.8159C244.649 21.8599 244.502 21.9552 244.311 22.1019C244.135 22.2339 243.959 22.3879 243.783 22.5639C243.622 22.7252 243.49 22.8792 243.387 23.0259C243.299 23.1579 243.285 23.2385 243.343 23.2679C243.314 23.3265 243.395 23.3632 243.585 23.3779C243.791 23.3925 243.93 23.3999 244.003 23.3999ZM254.105 28.0859C254.047 27.9685 253.915 27.8512 253.709 27.7339C253.519 27.6165 253.423 27.5285 253.423 27.4699C253.423 27.4112 253.387 27.3232 253.313 27.2059C253.255 27.0739 253.196 26.9785 253.137 26.9199C253.064 26.8319 253.086 26.6192 253.203 26.2819C253.321 25.9299 253.497 25.5045 253.731 25.0059C253.966 24.5072 254.223 24.0012 254.501 23.4879C254.619 23.3705 254.736 23.2165 254.853 23.0259C254.971 22.8352 255.059 22.7105 255.117 22.6519C255.117 22.5932 255.139 22.5419 255.183 22.4979C255.227 22.4392 255.279 22.4099 255.337 22.4099L255.513 22.0579C255.543 21.9992 255.631 21.8819 255.777 21.7059C255.939 21.5299 256.129 21.3392 256.349 21.1339C256.569 20.9139 256.789 20.7085 257.009 20.5179C257.244 20.3272 257.435 20.1879 257.581 20.0999C257.889 19.8945 258.205 19.7992 258.527 19.8139C258.865 19.8285 259.151 19.9312 259.385 20.1219C259.429 20.1659 259.525 20.2539 259.671 20.3859C259.833 20.5179 260.009 20.6645 260.199 20.8259C260.405 20.9872 260.581 21.1339 260.727 21.2659L261.541 21.9919L261.167 23.0919C260.977 23.6785 260.925 24.1919 261.013 24.6319C261.101 25.0719 261.241 25.4532 261.431 25.7759C261.505 25.9372 261.6 26.0619 261.717 26.1499C261.849 26.2379 262.018 26.2965 262.223 26.3259C262.341 26.3405 262.451 26.3845 262.553 26.4579C262.656 26.5312 262.707 26.6485 262.707 26.8099C262.707 27.1619 262.641 27.4185 262.509 27.5799C262.392 27.7265 262.26 27.8145 262.113 27.8439C261.629 27.9025 261.167 27.8512 260.727 27.6899C260.287 27.5285 259.891 27.1105 259.539 26.4359C259.481 26.3479 259.4 26.1865 259.297 25.9519C259.209 25.7025 259.158 25.5412 259.143 25.4679C259.085 25.5412 259.004 25.6365 258.901 25.7539C258.813 25.8565 258.725 25.9519 258.637 26.0399C257.596 27.0959 256.701 27.7852 255.953 28.1079C255.22 28.4159 254.604 28.4085 254.105 28.0859ZM255.315 26.2599C255.418 26.2745 255.579 26.2232 255.799 26.1059C256.019 25.9739 256.313 25.7612 256.679 25.4679C257.178 25.0425 257.589 24.6905 257.911 24.4119C258.234 24.1332 258.549 23.7739 258.857 23.3339L259.341 22.5419C259.195 22.2045 259.063 21.9845 258.945 21.8819C258.828 21.7792 258.711 21.7279 258.593 21.7279C258.403 21.7279 258.175 21.8525 257.911 22.1019C257.647 22.3365 257.347 22.6885 257.009 23.1579C256.687 23.6125 256.32 24.1845 255.909 24.8739C255.719 25.1965 255.572 25.5119 255.469 25.8199C255.367 26.1132 255.315 26.2599 255.315 26.2599ZM270.902 28.7019C270.124 28.7019 269.552 28.4525 269.186 27.9539C269.083 27.7192 269.032 27.4845 269.032 27.2499C269.046 27.0005 269.105 26.8245 269.208 26.7219C269.31 26.6045 269.435 26.6265 269.582 26.7879C269.772 26.9052 270.044 26.9639 270.396 26.9639C270.572 26.9639 270.726 26.9639 270.858 26.9639C271.004 26.9492 271.173 26.9345 271.364 26.9199C271.701 26.8905 271.914 26.7879 272.002 26.6119C272.104 26.4359 272.082 26.2892 271.936 26.1719H271.958C271.562 26.0692 271.173 25.9225 270.792 25.7319C270.41 25.5412 270.088 25.3285 269.824 25.0939C269.56 24.8445 269.406 24.6099 269.362 24.3899C269.244 23.9059 269.274 23.4072 269.45 22.8939C269.626 22.3805 269.882 21.9332 270.22 21.5519C270.352 21.4639 270.535 21.3392 270.77 21.1779C271.004 21.0019 271.173 20.9065 271.276 20.8919V20.9139C271.554 20.6205 271.87 20.3859 272.222 20.2099C272.574 20.0192 272.984 19.8432 273.454 19.6819L273.806 19.6379C273.982 19.6085 274.136 19.5939 274.268 19.5939C274.253 19.5939 274.29 19.6085 274.378 19.6379C274.466 19.6672 274.539 19.6892 274.598 19.7039C274.686 19.7479 274.774 19.7699 274.862 19.7699C275.067 19.7992 275.265 19.9092 275.456 20.0999C275.661 20.2759 275.822 20.4885 275.94 20.7379C276.072 20.9725 276.123 21.1925 276.094 21.3979C276.05 21.7352 275.925 22.0725 275.72 22.4099C275.514 22.7325 275.294 22.9159 275.06 22.9599C275.089 22.9452 275.06 22.9159 274.972 22.8719C274.884 22.8279 274.803 22.7839 274.73 22.7399L274.642 22.7839C274.642 22.7839 274.634 22.7619 274.62 22.7179C274.62 22.6739 274.605 22.6225 274.576 22.5639C274.517 22.4612 274.473 22.3512 274.444 22.2339C274.429 22.1165 274.429 21.9845 274.444 21.8379C274.473 21.6765 274.48 21.5812 274.466 21.5519C274.451 21.5225 274.363 21.5005 274.202 21.4859C274.011 21.4419 273.769 21.4639 273.476 21.5519C273.182 21.6252 272.911 21.7572 272.662 21.9479C272.368 22.1385 272.148 22.2925 272.002 22.4099C271.87 22.5272 271.767 22.6445 271.694 22.7619C271.62 22.8645 271.54 23.0185 271.452 23.2239C271.393 23.3265 271.342 23.4219 271.298 23.5099C271.254 23.5832 271.232 23.6565 271.232 23.7299C271.232 23.8765 271.356 24.0305 271.606 24.1919C271.855 24.3385 272.229 24.5145 272.728 24.7199C273.124 24.8812 273.38 25.1012 273.498 25.3799C273.63 25.6585 273.747 25.9225 273.85 26.1719C273.879 26.2305 273.908 26.3405 273.938 26.5019C273.982 26.6485 273.989 26.7365 273.96 26.7659C273.989 26.7952 274.004 26.8245 274.004 26.8539V26.8319C274.121 27.0519 274.099 27.2865 273.938 27.5359C273.791 27.7705 273.556 27.9905 273.234 28.1959C272.911 28.3865 272.544 28.5259 272.134 28.6139H272.156C271.936 28.6432 271.716 28.6652 271.496 28.6799C271.29 28.6945 271.092 28.7019 270.902 28.7019ZM275.557 33.6739C275.498 33.6739 275.41 33.6739 275.293 33.6739C275.19 33.6885 275.102 33.6299 275.029 33.4979C274.97 33.4245 274.882 33.2779 274.765 33.0579C274.648 32.8525 274.626 32.5592 274.699 32.1779C274.772 31.9285 274.831 31.6792 274.875 31.4299C274.919 31.1952 274.941 31.0192 274.941 30.9019C274.941 30.8432 274.956 30.7259 274.985 30.5499C275.029 30.3885 275.051 30.2712 275.051 30.1979C275.124 30.0805 275.183 29.9192 275.227 29.7139C275.271 29.5085 275.293 29.3252 275.293 29.1639C275.293 28.9879 275.381 28.8265 275.557 28.6799C275.557 28.5625 275.579 28.4159 275.623 28.2399C275.682 28.0639 275.711 27.9465 275.711 27.8879C275.755 27.6825 275.85 27.3232 275.997 26.8099C276.158 26.2819 276.349 25.6879 276.569 25.0279C276.804 24.3679 277.031 23.7225 277.251 23.0919C277.471 22.4612 277.669 21.9259 277.845 21.4859C278.021 21.0752 278.168 20.6939 278.285 20.3419C278.402 19.9899 278.461 19.7405 278.461 19.5939C278.461 19.5352 278.476 19.4912 278.505 19.4619C278.534 19.4179 278.6 19.3372 278.703 19.2199C278.85 19.0732 279.04 19.0219 279.275 19.0659C279.524 19.0952 279.73 19.1685 279.891 19.2859C280.008 19.4765 280.089 19.6525 280.133 19.8139C280.192 19.9605 280.192 20.1952 280.133 20.5179C280.133 20.7379 280.082 20.9432 279.979 21.1339C279.876 21.3099 279.781 21.4565 279.693 21.5739C279.62 21.6765 279.598 21.7205 279.627 21.7059C280.272 21.3099 280.852 21.0972 281.365 21.0679C281.893 21.0239 282.333 21.1119 282.685 21.3319C283.052 21.5372 283.33 21.8232 283.521 22.1899C283.712 22.5565 283.807 22.9525 283.807 23.3779C283.807 23.5539 283.748 23.7885 283.631 24.0819C283.514 24.3752 283.382 24.6539 283.235 24.9179C283.088 25.1672 282.971 25.3359 282.883 25.4239C282.824 25.4239 282.766 25.4752 282.707 25.5779C282.648 25.6659 282.59 25.7685 282.531 25.8859C282.414 26.0325 282.216 26.2012 281.937 26.3919C281.673 26.5679 281.402 26.7145 281.123 26.8319C280.844 26.9345 280.646 26.9639 280.529 26.9199C280.529 26.9199 280.507 26.9345 280.463 26.9639C280.434 26.9932 280.419 27.0445 280.419 27.1179C280.419 27.1472 280.316 27.2059 280.111 27.2939C279.906 27.3819 279.664 27.4625 279.385 27.5359C279.106 27.6092 278.85 27.6459 278.615 27.6459C278.307 27.6459 278.087 27.5872 277.955 27.4699C277.926 27.4992 277.889 27.5432 277.845 27.6019C277.816 27.6605 277.801 27.7119 277.801 27.7559C277.801 27.8439 277.764 27.9832 277.691 28.1739C277.632 28.3645 277.559 28.5332 277.471 28.6799C277.383 28.8412 277.302 28.9219 277.229 28.9219C277.229 28.9219 277.214 28.9439 277.185 28.9879C277.156 29.0319 277.17 29.0905 277.229 29.1639C277.229 29.1639 277.222 29.2445 277.207 29.4059C277.207 29.5819 277.17 29.7285 277.097 29.8459C277.097 29.9632 277.075 30.1392 277.031 30.3739C276.987 30.6085 276.936 30.7845 276.877 30.9019C276.877 31.0779 276.848 31.2465 276.789 31.4079C276.745 31.5839 276.694 31.6719 276.635 31.6719C276.576 31.6865 276.54 31.7745 276.525 31.9359C276.51 32.1119 276.503 32.2365 276.503 32.3099C276.488 32.6765 276.371 32.9919 276.151 33.2559C275.931 33.5345 275.733 33.6739 275.557 33.6739ZM278.373 25.9739C278.49 25.9739 278.703 25.9225 279.011 25.8199C279.319 25.7172 279.642 25.5925 279.979 25.4459C280.316 25.2845 280.58 25.1232 280.771 24.9619C281.152 24.6245 281.446 24.2945 281.651 23.9719C281.871 23.6492 281.856 23.2899 281.607 22.8939C281.49 22.6885 281.299 22.6079 281.035 22.6519C280.786 22.6812 280.507 22.7985 280.199 23.0039C279.891 23.2092 279.576 23.4659 279.253 23.7739C279.077 23.9645 278.916 24.1845 278.769 24.4339C278.622 24.6832 278.498 24.9252 278.395 25.1599C278.307 25.3945 278.256 25.5925 278.241 25.7539C278.226 25.9005 278.27 25.9739 278.373 25.9739ZM286.688 28.2399C286.57 28.2692 286.416 28.2839 286.226 28.2839C286.035 28.2692 285.866 28.2472 285.72 28.2179C285.588 28.1739 285.522 28.1299 285.522 28.0859C285.522 28.0125 285.485 27.9759 285.412 27.9759C285.412 27.9759 285.331 27.9172 285.17 27.7999C285.008 27.6679 284.862 27.5725 284.73 27.5139C284.598 27.3085 284.51 27.0739 284.466 26.8099C284.436 26.5312 284.524 26.0472 284.73 25.3579C284.744 24.8885 284.876 24.3972 285.126 23.8839C285.375 23.3559 285.69 22.8425 286.072 22.3439C286.453 21.8452 286.849 21.4052 287.26 21.0239C287.67 20.6279 288.037 20.3345 288.36 20.1439C288.565 19.9385 288.836 19.8285 289.174 19.8139C289.526 19.7992 289.834 19.8652 290.098 20.0119C290.244 20.0852 290.406 20.2319 290.582 20.4519C290.758 20.6719 290.926 20.9065 291.088 21.1559C291.249 21.3905 291.374 21.6032 291.462 21.7939C291.506 21.9552 291.542 22.1019 291.572 22.2339C291.616 22.3512 291.645 22.4979 291.66 22.6739C291.674 22.8499 291.66 23.1139 291.616 23.4659C291.542 23.7299 291.476 24.0012 291.418 24.2799C291.374 24.5439 291.352 24.8152 291.352 25.0939C291.322 25.3725 291.352 25.5705 291.44 25.6879C291.542 25.8052 291.689 25.8125 291.88 25.7099C292.056 25.6219 292.239 25.6145 292.43 25.6879C292.62 25.7465 292.752 25.8639 292.826 26.0399C292.914 26.2012 292.892 26.4139 292.76 26.6779C292.672 26.8685 292.532 27.0519 292.342 27.2279C292.151 27.4039 291.938 27.5505 291.704 27.6679C291.469 27.7705 291.242 27.8219 291.022 27.8219C290.86 27.8219 290.699 27.7632 290.538 27.6459C290.376 27.5139 290.23 27.3379 290.098 27.1179C289.966 26.8979 289.856 26.6559 289.768 26.3919L289.636 25.8859L288.844 26.6119C288.653 26.8172 288.462 27.0079 288.272 27.1839C288.096 27.3452 287.986 27.4625 287.942 27.5359C287.868 27.6679 287.722 27.7852 287.502 27.8879C287.296 27.9905 287.025 28.1079 286.688 28.2399ZM287.282 26.1279C287.531 25.9812 287.744 25.8052 287.92 25.5999C288.11 25.3945 288.294 25.1672 288.47 24.9179C288.646 24.6539 288.836 24.3752 289.042 24.0819C289.291 23.7445 289.467 23.4732 289.57 23.2679C289.687 23.0625 289.775 22.8425 289.834 22.6079C289.775 22.4465 289.694 22.2779 289.592 22.1019C289.489 21.9112 289.386 21.8085 289.284 21.7939C289.078 21.7939 288.829 21.9185 288.536 22.1679C288.257 22.4172 287.949 22.7765 287.612 23.2459C287.553 23.3192 287.48 23.4365 287.392 23.5979C287.304 23.7592 287.216 23.9132 287.128 24.0599C287.054 24.1919 287.003 24.2799 286.974 24.3239C286.93 24.3825 286.864 24.5219 286.776 24.7419C286.702 24.9472 286.636 25.1599 286.578 25.3799C286.519 25.5852 286.49 25.7319 286.49 25.8199C286.49 25.9079 286.497 26.0032 286.512 26.1059C286.541 26.2085 286.614 26.2745 286.732 26.3039C286.849 26.3332 287.032 26.2745 287.282 26.1279ZM295.689 28.3719C295.366 28.3719 295.124 28.3572 294.963 28.3279C294.816 28.2985 294.706 28.2545 294.633 28.1959C294.56 28.1372 294.464 28.0565 294.347 27.9539C294.288 27.8365 294.186 27.6899 294.039 27.5139C293.892 27.3232 293.79 27.1985 293.731 27.1399C293.672 26.9199 293.65 26.6192 293.665 26.2379C293.694 25.8565 293.76 25.4459 293.863 25.0059C293.966 24.5659 294.09 24.1699 294.237 23.8179C294.296 23.7005 294.347 23.5832 294.391 23.4659C294.435 23.3485 294.457 23.2899 294.457 23.2899C294.457 23.2165 294.545 23.0405 294.721 22.7619C294.912 22.4832 295.117 22.1899 295.337 21.8819C295.572 21.5739 295.762 21.3539 295.909 21.2219C296.012 21.1045 296.166 20.9799 296.371 20.8479C296.591 20.7159 296.782 20.6205 296.943 20.5619C297.104 20.5032 297.324 20.4299 297.603 20.3419C297.882 20.2392 298.131 20.1879 298.351 20.1879C298.556 20.1879 298.776 20.2319 299.011 20.3199C299.246 20.4079 299.444 20.5619 299.605 20.7819C299.869 21.0459 300.038 21.3612 300.111 21.7279C300.184 22.0945 300.192 22.4099 300.133 22.6739C300.06 22.9672 299.913 23.2092 299.693 23.3999C299.473 23.5759 299.238 23.6712 298.989 23.6859C298.74 23.6859 298.52 23.5832 298.329 23.3779C298.27 23.2605 298.241 23.1652 298.241 23.0919C298.241 23.0039 298.27 22.8792 298.329 22.7179C298.388 22.5125 298.417 22.3292 298.417 22.1679C298.417 22.0065 298.351 21.9259 298.219 21.9259C298.028 21.9259 297.874 21.9845 297.757 22.1019C297.64 22.2045 297.464 22.3805 297.229 22.6299C297.126 22.7472 296.994 22.9159 296.833 23.1359C296.672 23.3559 296.51 23.5979 296.349 23.8619C296.202 24.1112 296.07 24.3679 295.953 24.6319C295.792 25.1159 295.689 25.4312 295.645 25.5779C295.616 25.7099 295.601 25.7759 295.601 25.7759C295.601 25.8345 295.594 25.8932 295.579 25.9519C295.564 25.9959 295.557 26.0472 295.557 26.1059C295.557 26.2819 295.66 26.4212 295.865 26.5239C296.026 26.6265 296.158 26.6779 296.261 26.6779C296.378 26.6632 296.598 26.5825 296.921 26.4359C297.156 26.3185 297.376 26.1645 297.581 25.9739C297.801 25.7832 298.028 25.6145 298.263 25.4679C298.424 25.3652 298.549 25.2772 298.637 25.2039C298.74 25.1305 298.791 25.1232 298.791 25.1819C298.791 25.2405 298.813 25.2699 298.857 25.2699C298.901 25.2699 298.952 25.2405 299.011 25.1819C299.099 25.0645 299.209 25.0205 299.341 25.0499C299.473 25.0645 299.59 25.1012 299.693 25.1599C299.81 25.2185 299.869 25.2699 299.869 25.3139C299.84 25.4459 299.869 25.5559 299.957 25.6439C299.957 25.7025 299.935 25.7832 299.891 25.8859C299.862 25.9739 299.818 26.0472 299.759 26.1059C299.686 26.2085 299.576 26.3552 299.429 26.5459C299.297 26.7365 299.172 26.9052 299.055 27.0519C298.938 27.1985 298.879 27.2719 298.879 27.2719C298.82 27.2572 298.762 27.2719 298.703 27.3159C298.659 27.3599 298.608 27.4112 298.549 27.4699C298.432 27.5725 298.322 27.6532 298.219 27.7119C298.116 27.7559 298.036 27.7779 297.977 27.7779C297.874 27.8365 297.794 27.8732 297.735 27.8879C297.691 27.9025 297.669 27.9392 297.669 27.9979C297.522 28.1445 297.258 28.2472 296.877 28.3059C296.496 28.3499 296.1 28.3719 295.689 28.3719ZM303.155 28.3499C302.583 28.1152 302.187 27.7339 301.967 27.2059C301.747 26.6779 301.688 25.9739 301.791 25.0939C301.82 24.6392 301.805 24.3385 301.747 24.1919C301.688 24.0305 301.578 23.8765 301.417 23.7299C301.373 23.6712 301.27 23.5759 301.109 23.4439C300.947 23.2972 300.874 23.1872 300.889 23.1139C300.874 23.0112 300.896 22.8865 300.955 22.7399C301.013 22.5785 301.065 22.4905 301.109 22.4759C301.211 22.4319 301.314 22.3805 301.417 22.3219C301.534 22.2632 301.622 22.2485 301.681 22.2779C301.739 22.2779 301.827 22.3145 301.945 22.3879C302.077 22.4612 302.143 22.5272 302.143 22.5859C302.201 22.6885 302.289 22.6445 302.407 22.4539C302.539 22.2632 302.678 22.0212 302.825 21.7279C302.971 21.4932 303.155 21.2732 303.375 21.0679C303.595 20.8625 303.815 20.6792 304.035 20.5179C304.269 20.3419 304.467 20.2099 304.629 20.1219C304.702 20.0925 304.841 20.0485 305.047 19.9899C305.267 19.9312 305.494 19.8872 305.729 19.8579C305.963 19.8139 306.139 19.7992 306.257 19.8139C306.521 19.8285 306.799 19.9385 307.093 20.1439C307.386 20.3492 307.613 20.5399 307.775 20.7159C307.965 20.8479 308.09 21.0532 308.149 21.3319C308.222 21.5959 308.251 21.8745 308.237 22.1679C308.222 22.4612 308.163 22.7105 308.061 22.9159C308.017 23.0625 307.863 23.2679 307.599 23.5319C307.335 23.7959 307.041 24.0525 306.719 24.3019C306.411 24.5365 306.147 24.6979 305.927 24.7859C305.736 24.8299 305.509 24.8665 305.245 24.8959C304.981 24.9105 304.731 24.9105 304.497 24.8959C304.277 24.8665 304.123 24.8299 304.035 24.7859C303.932 24.7272 303.844 24.7492 303.771 24.8519C303.712 24.9399 303.661 25.1892 303.617 25.5999C303.602 25.7612 303.602 25.9005 303.617 26.0179C303.646 26.1352 303.675 26.2232 303.705 26.2819C303.807 26.4579 303.91 26.5899 304.013 26.6779C304.115 26.7512 304.306 26.7732 304.585 26.7439C304.863 26.7145 305.142 26.5459 305.421 26.2379C305.714 25.9152 305.978 25.6585 306.213 25.4679C306.271 25.3652 306.396 25.2992 306.587 25.2699C306.792 25.2259 307.034 25.2405 307.313 25.3139C307.474 25.4165 307.547 25.5779 307.533 25.7979C307.533 26.0179 307.415 26.3405 307.181 26.7659C307.137 26.8685 307.012 27.0225 306.807 27.2279C306.616 27.4185 306.403 27.6165 306.169 27.8219C305.949 28.0125 305.765 28.1519 305.619 28.2399C305.179 28.4745 304.746 28.5845 304.321 28.5699C303.895 28.5552 303.507 28.4819 303.155 28.3499ZM304.783 23.3999C305.003 23.3412 305.186 23.2825 305.333 23.2239C305.494 23.1652 305.648 23.0699 305.795 22.9379C305.941 22.8059 306.11 22.6079 306.301 22.3439C306.359 22.1825 306.389 22.0432 306.389 21.9259C306.403 21.8085 306.396 21.7352 306.367 21.7059C306.249 21.5885 306.117 21.5519 305.971 21.5959C305.839 21.6252 305.692 21.6985 305.531 21.8159C305.428 21.8599 305.281 21.9552 305.091 22.1019C304.915 22.2339 304.739 22.3879 304.563 22.5639C304.401 22.7252 304.269 22.8792 304.167 23.0259C304.079 23.1579 304.064 23.2385 304.123 23.2679C304.093 23.3265 304.174 23.3632 304.365 23.3779C304.57 23.3925 304.709 23.3999 304.783 23.3999Z"
        fill="#F8F8F6" />
</svg>