<svg width="145" height="42" viewBox="0 0 145 42" fill="none" xmlns="http://www.w3.org/2000/svg">
    <path
        d="M1.66553 14.21C1.66553 7.58254 7.03811 2.20996 13.6655 2.20996H130.666C137.293 2.20996 142.666 7.58254 142.666 14.21V27.21C142.666 33.8374 137.293 39.21 130.666 39.21H13.6655C7.03811 39.21 1.66553 33.8374 1.66553 27.21V14.21Z"
        fill="#F8F8F6" />
    <path
        d="M18.9155 2.80533L18.831 3.55055L18.9155 2.80533ZM28.8905 1.92305L28.6667 1.20724L28.8905 1.92305ZM29.4155 1.75887L29.6394 2.47468L29.4155 1.75887ZM29.9405 1.59469L29.7167 0.878872L29.9405 1.59469ZM39.3905 1.22426L39.2194 1.95448L39.3905 1.22426ZM39.9155 1.34728L40.0866 0.617063L39.9155 1.34728ZM40.4405 1.47031L40.2694 2.20053L40.4405 1.47031ZM50.9405 1.69389L50.8271 0.952519L50.9405 1.69389ZM60.9155 2.50938L60.7046 3.22911L60.9155 2.50938ZM61.4405 2.66322L61.6514 1.94349L61.4405 2.66322ZM70.8905 3.3743L70.7847 2.63181L70.8905 3.3743ZM81.3905 3.05477L81.311 3.80055L81.3905 3.05477ZM81.9155 3.11074L81.995 2.36496L81.9155 3.11074ZM82.4405 3.1667L82.361 3.91248L82.4405 3.1667ZM91.8905 3.50687L91.8646 2.75732L91.8905 3.50687ZM102.391 3.51137L102.358 4.26067L102.391 3.51137ZM102.916 3.53408L102.948 2.78478L102.916 3.53408ZM103.441 3.55678L103.408 4.30608L103.441 3.55678ZM112.891 3.49105L112.848 2.74227L112.891 3.49105ZM123.391 1.8861L123.586 2.61021L123.391 1.8861ZM124.441 1.6028L124.245 0.878697L124.441 1.6028ZM133.106 3.06968L133.534 2.45406L133.106 3.06968ZM133.981 3.67895L133.553 4.29457L133.981 3.67895ZM140.966 10.2182L141.551 9.74906L140.966 10.2182ZM141.304 10.6402L141.889 10.171L141.304 10.6402ZM141.643 11.0621L141.057 11.5313L141.643 11.0621ZM143.896 19.5847L144.635 19.7086L143.896 19.5847ZM143.808 20.1097L143.068 19.9857L143.808 20.1097ZM143.72 20.6347L144.459 20.7586L143.72 20.6347ZM141.688 29.9509L142.412 30.1464L141.688 29.9509ZM141.551 30.461L140.827 30.2656L141.551 30.461ZM141.413 30.9712L140.689 30.7757L141.413 30.9712ZM135.76 37.5909L135.447 36.9094L135.76 37.5909ZM135.27 37.8162L135.583 38.4977L135.27 37.8162ZM134.779 38.0416L134.466 37.3602L134.779 38.0416ZM125.641 38.8754L125.457 39.6025L125.641 38.8754ZM124.591 38.6099L124.407 39.337L124.591 38.6099ZM115.141 37.3339L115.128 38.0838L115.141 37.3339ZM114.091 37.3159L114.104 36.566L114.091 37.3159ZM104.641 37.1735L104.651 36.4236L104.641 37.1735ZM104.116 37.1667L104.106 37.9167L104.116 37.1667ZM103.591 37.1599L103.581 37.9099L103.591 37.1599ZM94.1411 37.7986L94.0313 37.0567L94.1411 37.7986ZM93.6161 37.8763L93.726 38.6183L93.6161 37.8763ZM93.0911 37.9541L92.9813 37.2122L93.0911 37.9541ZM83.6411 38.5607L83.6559 37.8108L83.6411 38.5607ZM83.1161 38.5503L83.1013 39.3002L83.1161 38.5503ZM82.5911 38.54L82.6059 37.7901L82.5911 38.54ZM73.1411 39.0823L73.0412 38.339L73.1411 39.0823ZM72.6161 39.1529L72.7161 39.8962L72.6161 39.1529ZM72.0911 39.2235L71.9912 38.4802L72.0911 39.2235ZM62.6411 39.044L62.7686 38.3049L62.6411 39.044ZM61.5911 38.8629L61.4636 39.6019L61.5911 38.8629ZM52.1411 39.274L52.3295 39.9999L52.1411 39.274ZM51.6161 39.4102L51.4277 38.6843L51.6161 39.4102ZM51.0911 39.5465L51.2795 40.2724L51.0911 39.5465ZM41.6411 40.0222L41.5235 40.7629L41.6411 40.0222ZM41.1161 39.9388L41.2338 39.1981L41.1161 39.9388ZM40.5911 39.8554L40.4735 40.5961L40.5911 39.8554ZM31.1411 39.6532L31.0547 38.9082L31.1411 39.6532ZM20.6411 40.704L20.5809 39.9564L20.6411 40.704ZM20.1161 40.7463L20.1764 41.4939L20.1161 40.7463ZM19.5911 40.7886L19.5309 40.041L19.5911 40.7886ZM10.4247 38.8713L10.0801 39.5374L10.4247 38.8713ZM9.9312 38.616L10.2758 37.9498L9.9312 38.616ZM9.43771 38.3607L9.09308 39.0268L9.43771 38.3607ZM4.27179 31.652L3.53171 31.7735L4.27179 31.652ZM1.50874 20.4859L0.795485 20.7178L1.50874 20.4859ZM1.89743 9.72938L1.18293 9.50136L1.89743 9.72938ZM18.9155 2.80533L18.831 3.55055L19.356 3.61009L19.4405 2.86486L19.525 2.11964L19 2.0601L18.9155 2.80533ZM19.4405 2.86486L19.356 3.61009C22.614 3.97955 25.8689 3.65381 29.1144 2.63886L28.8905 1.92305L28.6667 1.20724C25.6121 2.16249 22.5671 2.46461 19.525 2.11964L19.4405 2.86486ZM28.8905 1.92305L29.1144 2.63886L29.6394 2.47468L29.4155 1.75887L29.1917 1.04305L28.6667 1.20724L28.8905 1.92305ZM29.4155 1.75887L29.6394 2.47468L30.1644 2.3105L29.9405 1.59469L29.7167 0.878872L29.1917 1.04305L29.4155 1.75887ZM29.9405 1.59469L30.1644 2.3105C33.1891 1.36459 36.2027 1.24757 39.2194 1.95448L39.3905 1.22426L39.5616 0.494039C36.2783 -0.275344 32.992 -0.145407 29.7167 0.878872L29.9405 1.59469ZM39.3905 1.22426L39.2194 1.95448L39.7444 2.0775L39.9155 1.34728L40.0866 0.617063L39.5616 0.494039L39.3905 1.22426ZM39.9155 1.34728L39.7444 2.0775L40.2694 2.20053L40.4405 1.47031L40.6116 0.740087L40.0866 0.617063L39.9155 1.34728ZM40.4405 1.47031L40.2694 2.20053C43.5112 2.96018 46.7578 3.09262 50.004 2.59592L49.8905 1.85455L49.7771 1.11318C46.7233 1.58045 43.6698 1.45672 40.6116 0.740087L40.4405 1.47031ZM49.8905 1.85455L50.004 2.59592L50.529 2.51559L50.4155 1.77422L50.3021 1.03285L49.7771 1.11318L49.8905 1.85455ZM50.4155 1.77422L50.529 2.51559L51.054 2.43526L50.9405 1.69389L50.8271 0.952519L50.3021 1.03285L50.4155 1.77422ZM50.9405 1.69389L51.054 2.43526C54.0923 1.97037 57.1316 2.18207 60.1796 3.07527L60.3905 2.35553L60.6014 1.6358C57.3495 0.68284 54.0888 0.453447 50.8271 0.952519L50.9405 1.69389ZM60.3905 2.35553L60.1796 3.07527L60.7046 3.22911L60.9155 2.50938L61.1264 1.78964L60.6014 1.6358L60.3905 2.35553ZM60.9155 2.50938L60.7046 3.22911L61.2296 3.38296L61.4405 2.66322L61.6514 1.94349L61.1264 1.78964L60.9155 2.50938ZM61.4405 2.66322L61.2296 3.38296C64.479 4.33516 67.737 4.58141 70.9964 4.1168L70.8905 3.3743L70.7847 2.63181C67.7441 3.06524 64.702 2.83743 61.6514 1.94349L61.4405 2.66322ZM70.8905 3.3743L70.9964 4.1168L71.5214 4.04196L71.4155 3.29947L71.3097 2.55697L70.7847 2.63181L70.8905 3.3743ZM71.4155 3.29947L71.5214 4.04196L72.0464 3.96712L71.9405 3.22463L71.8347 2.48214L71.3097 2.55697L71.4155 3.29947ZM71.9405 3.22463L72.0464 3.96712C75.1352 3.52682 78.223 3.47137 81.311 3.80055L81.3905 3.05477L81.47 2.309C78.2581 1.96661 75.0458 2.0244 71.8347 2.48214L71.9405 3.22463ZM81.3905 3.05477L81.311 3.80055L81.836 3.85651L81.9155 3.11074L81.995 2.36496L81.47 2.309L81.3905 3.05477ZM81.9155 3.11074L81.836 3.85651L82.361 3.91248L82.4405 3.1667L82.52 2.42093L81.995 2.36496L81.9155 3.11074ZM82.4405 3.1667L82.361 3.91248C85.5459 4.25198 88.7311 4.36665 91.9165 4.25642L91.8905 3.50687L91.8646 2.75732C88.75 2.8651 85.6352 2.753 82.52 2.42093L82.4405 3.1667ZM91.8905 3.50687L91.9165 4.25642L92.4415 4.23825L92.4155 3.4887L92.3896 2.73915L91.8646 2.75732L91.8905 3.50687ZM92.4155 3.4887L92.4415 4.23825L92.9665 4.22008L92.9405 3.47053L92.9146 2.72098L92.3896 2.73915L92.4155 3.4887ZM92.9405 3.47053L92.9665 4.22008C96.097 4.11175 99.2276 4.12528 102.358 4.26067L102.391 3.51137L102.423 2.76207C99.2535 2.625 96.084 2.6113 92.9146 2.72098L92.9405 3.47053ZM102.391 3.51137L102.358 4.26067L102.883 4.28338L102.916 3.53408L102.948 2.78478L102.423 2.76207L102.391 3.51137ZM102.916 3.53408L102.883 4.28338L103.408 4.30608L103.441 3.55678L103.473 2.80748L102.948 2.78478L102.916 3.53408ZM103.441 3.55678L103.408 4.30608C106.583 4.4434 109.758 4.42131 112.933 4.23983L112.891 3.49105L112.848 2.74227C109.723 2.9209 106.598 2.94263 103.473 2.80748L103.441 3.55678ZM112.891 3.49105L112.933 4.23983L113.458 4.20982L113.416 3.46104L113.373 2.71226L112.848 2.74227L112.891 3.49105ZM113.416 3.46104L113.458 4.20982L113.983 4.17981L113.941 3.43103L113.898 2.68225L113.373 2.71226L113.416 3.46104ZM113.941 3.43103L113.983 4.17981C117.187 3.99671 120.388 3.4731 123.586 2.61021L123.391 1.8861L123.195 1.162C120.093 1.9989 116.994 2.50525 113.898 2.68225L113.941 3.43103ZM123.391 1.8861L123.586 2.61021L124.111 2.46856L123.916 1.74445L123.72 1.02035L123.195 1.162L123.391 1.8861ZM123.916 1.74445L124.111 2.46856L124.636 2.32691L124.441 1.6028L124.245 0.878697L123.72 1.02035L123.916 1.74445ZM124.441 1.6028L124.636 2.32691C127.577 1.53338 130.236 1.98676 132.677 3.6853L133.106 3.06968L133.534 2.45406C130.721 0.49697 127.604 -0.0275683 124.245 0.878697L124.441 1.6028ZM133.106 3.06968L132.677 3.6853L133.115 3.98993L133.543 3.37432L133.972 2.7587L133.534 2.45406L133.106 3.06968ZM133.543 3.37432L133.115 3.98993L133.553 4.29457L133.981 3.67895L134.409 3.06334L133.972 2.7587L133.543 3.37432ZM133.981 3.67895L133.553 4.29457C136.12 6.08075 138.395 8.21097 140.381 10.6874L140.966 10.2182L141.551 9.74906C139.477 7.16209 137.096 4.93279 134.409 3.06334L133.981 3.67895ZM140.966 10.2182L140.381 10.6874L140.719 11.1093L141.304 10.6402L141.889 10.171L141.551 9.74906L140.966 10.2182ZM141.304 10.6402L140.719 11.1093L141.057 11.5313L141.643 11.0621L142.228 10.593L141.889 10.171L141.304 10.6402ZM141.643 11.0621L141.057 11.5313C142.956 13.8993 143.648 16.5252 143.156 19.4607L143.896 19.5847L144.635 19.7086C145.199 16.3441 144.389 13.2883 142.228 10.593L141.643 11.0621ZM143.896 19.5847L143.156 19.4607L143.068 19.9857L143.808 20.1097L144.547 20.2336L144.635 19.7086L143.896 19.5847ZM143.808 20.1097L143.068 19.9857L142.98 20.5107L143.72 20.6347L144.459 20.7586L144.547 20.2336L143.808 20.1097ZM143.72 20.6347L142.98 20.5107C142.456 23.6368 141.784 26.7183 140.964 29.7554L141.688 29.9509L142.412 30.1464C143.245 27.0618 143.927 23.9325 144.459 20.7586L143.72 20.6347ZM141.688 29.9509L140.964 29.7554L140.827 30.2656L141.551 30.461L142.275 30.6565L142.412 30.1464L141.688 29.9509ZM141.551 30.461L140.827 30.2656L140.689 30.7757L141.413 30.9712L142.137 31.1667L142.275 30.6565L141.551 30.461ZM141.413 30.9712L140.689 30.7757C139.922 33.6163 138.192 35.6478 135.447 36.9094L135.76 37.5909L136.073 38.2723C139.213 36.8294 141.251 34.4477 142.137 31.1667L141.413 30.9712ZM135.76 37.5909L135.447 36.9094L134.957 37.1348L135.27 37.8162L135.583 38.4977L136.073 38.2723L135.76 37.5909ZM135.27 37.8162L134.957 37.1348L134.466 37.3602L134.779 38.0416L135.093 38.7231L135.583 38.4977L135.27 37.8162ZM134.779 38.0416L134.466 37.3602C131.68 38.6406 128.81 38.9029 125.825 38.1483L125.641 38.8754L125.457 39.6025C128.773 40.4408 131.994 40.1472 135.093 38.7231L134.779 38.0416ZM125.641 38.8754L125.825 38.1483L125.3 38.0155L125.116 38.7426L124.932 39.4697L125.457 39.6025L125.641 38.8754ZM125.116 38.7426L125.3 38.0155L124.775 37.8828L124.591 38.6099L124.407 39.337L124.932 39.4697L125.116 38.7426ZM124.591 38.6099L124.775 37.8828C121.571 37.0726 118.363 36.6393 115.154 36.5841L115.141 37.3339L115.128 38.0838C118.219 38.137 121.311 38.5543 124.407 39.337L124.591 38.6099ZM115.141 37.3339L115.154 36.5841L114.629 36.575L114.616 37.3249L114.603 38.0748L115.128 38.0838L115.141 37.3339ZM114.616 37.3249L114.629 36.575L114.104 36.566L114.091 37.3159L114.078 38.0658L114.603 38.0748L114.616 37.3249ZM114.091 37.3159L114.104 36.566C110.953 36.5118 107.802 36.4643 104.651 36.4236L104.641 37.1735L104.631 37.9235C107.78 37.9642 110.929 38.0116 114.078 38.0658L114.091 37.3159ZM104.641 37.1735L104.651 36.4236L104.126 36.4168L104.116 37.1667L104.106 37.9167L104.631 37.9235L104.641 37.1735ZM104.116 37.1667L104.126 36.4168L103.601 36.41L103.591 37.1599L103.581 37.9099L104.106 37.9167L104.116 37.1667ZM103.591 37.1599L103.601 36.41C100.41 36.3687 97.2204 36.5844 94.0313 37.0567L94.1411 37.7986L94.251 38.5405C97.3619 38.0798 100.472 37.8697 103.581 37.9099L103.591 37.1599ZM94.1411 37.7986L94.0313 37.0567L93.5063 37.1344L93.6161 37.8763L93.726 38.6183L94.251 38.5405L94.1411 37.7986ZM93.6161 37.8763L93.5063 37.1344L92.9813 37.2122L93.0911 37.9541L93.201 38.696L93.726 38.6183L93.6161 37.8763ZM93.0911 37.9541L92.9813 37.2122C89.8721 37.6726 86.7638 37.8721 83.6559 37.8108L83.6411 38.5607L83.6264 39.3105C86.8185 39.3735 90.0102 39.1685 93.201 38.696L93.0911 37.9541ZM83.6411 38.5607L83.6559 37.8108L83.1309 37.8005L83.1161 38.5503L83.1013 39.3002L83.6264 39.3105L83.6411 38.5607ZM83.1161 38.5503L83.1309 37.8005L82.6059 37.7901L82.5911 38.54L82.5764 39.2898L83.1013 39.3002L83.1161 38.5503ZM82.5911 38.54L82.6059 37.7901C79.4172 37.7272 76.2289 37.9103 73.0412 38.339L73.1411 39.0823L73.2411 39.8256C76.3534 39.407 79.465 39.2285 82.5764 39.2898L82.5911 38.54ZM73.1411 39.0823L73.0412 38.339L72.5162 38.4096L72.6161 39.1529L72.7161 39.8962L73.2411 39.8256L73.1411 39.0823ZM72.6161 39.1529L72.5162 38.4096L71.9912 38.4802L72.0911 39.2235L72.1911 39.9669L72.7161 39.8962L72.6161 39.1529ZM72.0911 39.2235L71.9912 38.4802C68.9172 38.8937 65.8439 38.8354 62.7686 38.3049L62.6411 39.044L62.5136 39.7831C65.7384 40.3393 68.9651 40.4008 72.1911 39.9669L72.0911 39.2235ZM62.6411 39.044L62.7686 38.3049L62.2436 38.2143L62.1161 38.9534L61.9886 39.6925L62.5136 39.7831L62.6411 39.044ZM62.1161 38.9534L62.2436 38.2143L61.7186 38.1238L61.5911 38.8629L61.4636 39.6019L61.9886 39.6925L62.1161 38.9534ZM61.5911 38.8629L61.7186 38.1238C58.4617 37.5619 55.204 37.7043 51.9528 38.548L52.1411 39.274L52.3295 39.9999C55.3783 39.2087 58.4206 39.077 61.4636 39.6019L61.5911 38.8629ZM52.1411 39.274L51.9528 38.548L51.4277 38.6843L51.6161 39.4102L51.8045 40.1362L52.3295 39.9999L52.1411 39.274ZM51.6161 39.4102L51.4277 38.6843L50.9027 38.8205L51.0911 39.5465L51.2795 40.2724L51.8045 40.1362L51.6161 39.4102ZM51.0911 39.5465L50.9027 38.8205C47.8506 39.6126 44.8047 39.7652 41.7588 39.2814L41.6411 40.0222L41.5235 40.7629C44.7775 41.2797 48.0317 41.1153 51.2795 40.2724L51.0911 39.5465ZM41.6411 40.0222L41.7588 39.2814L41.2338 39.1981L41.1161 39.9388L40.9985 40.6795L41.5235 40.7629L41.6411 40.0222ZM41.1161 39.9388L41.2338 39.1981L40.7088 39.1147L40.5911 39.8554L40.4735 40.5961L40.9985 40.6795L41.1161 39.9388ZM40.5911 39.8554L40.7088 39.1147C37.4917 38.6037 34.273 38.5347 31.0547 38.9082L31.1411 39.6532L31.2276 40.3982C34.3093 40.0406 37.3906 40.1064 40.4735 40.5961L40.5911 39.8554ZM31.1411 39.6532L31.0547 38.9082L30.5297 38.9692L30.6161 39.7142L30.7026 40.4592L31.2276 40.3982L31.1411 39.6532ZM30.6161 39.7142L30.5297 38.9692L30.0047 39.0301L30.0911 39.7751L30.1776 40.5201L30.7026 40.4592L30.6161 39.7142ZM30.0911 39.7751L30.0047 39.0301C26.8634 39.3946 23.7221 39.7034 20.5809 39.9564L20.6411 40.704L20.7014 41.4516C23.8601 41.1972 27.0189 40.8867 30.1776 40.5201L30.0911 39.7751ZM20.6411 40.704L20.5809 39.9564L20.0559 39.9987L20.1161 40.7463L20.1764 41.4939L20.7014 41.4516L20.6411 40.704ZM20.1161 40.7463L20.0559 39.9987L19.5309 40.041L19.5911 40.7886L19.6514 41.5361L20.1764 41.4939L20.1161 40.7463ZM19.5911 40.7886L19.5309 40.041C16.5287 40.2828 13.6128 39.6763 10.7693 38.2052L10.4247 38.8713L10.0801 39.5374C13.1585 41.1301 16.3536 41.8017 19.6514 41.5361L19.5911 40.7886ZM10.4247 38.8713L10.7693 38.2052L10.2758 37.9498L9.9312 38.616L9.58657 39.2821L10.0801 39.5374L10.4247 38.8713ZM9.9312 38.616L10.2758 37.9498L9.78234 37.6945L9.43771 38.3607L9.09308 39.0268L9.58657 39.2821L9.9312 38.616ZM9.43771 38.3607L9.78234 37.6945C7.00308 36.2567 5.4515 34.207 5.01187 31.5304L4.27179 31.652L3.53171 31.7735C4.05805 34.9781 5.95041 37.4009 9.09308 39.0268L9.43771 38.3607ZM4.27179 31.652L5.01187 31.5304L4.93138 31.0403L4.19129 31.1619L3.45121 31.2834L3.53171 31.7735L4.27179 31.652ZM4.19129 31.1619L4.93138 31.0403L4.85088 30.5502L4.1108 30.6718L3.37071 30.7933L3.45121 31.2834L4.19129 31.1619ZM4.1108 30.6718L4.85088 30.5502C4.36112 27.5683 3.59795 24.4861 2.56336 21.304L1.85011 21.5359L1.13686 21.7678C2.15056 24.8857 2.89451 27.894 3.37071 30.7933L4.1108 30.6718ZM1.85011 21.5359L2.56336 21.304L2.39267 20.779L1.67942 21.0109L0.966175 21.2428L1.13686 21.7678L1.85011 21.5359ZM1.67942 21.0109L2.39267 20.779L2.22198 20.254L1.50874 20.4859L0.795485 20.7178L0.966175 21.2428L1.67942 21.0109ZM1.50874 20.4859L2.22198 20.254C1.24858 17.26 1.25759 14.2011 2.26194 11.054L1.54745 10.826L0.832952 10.598C-0.262588 14.0308 -0.279383 17.4117 0.795485 20.7178L1.50874 20.4859ZM1.54745 10.826L2.26194 11.054L2.43694 10.5057L1.72244 10.2777L1.00794 10.0497L0.832952 10.598L1.54745 10.826ZM1.72244 10.2777L2.43694 10.5057L2.61193 9.95741L1.89743 9.72938L1.18293 9.50136L1.00794 10.0497L1.72244 10.2777ZM1.89743 9.72938L2.61193 9.95741C3.1062 8.40864 3.81846 7.27157 4.71676 6.49246C5.60954 5.71814 6.73285 5.25647 8.12596 5.13213L8.05928 4.3851L7.9926 3.63807C6.32776 3.78667 4.89511 4.35219 3.73394 5.3593C2.57829 6.36161 1.73861 7.76022 1.18293 9.50136L1.89743 9.72938ZM8.05928 4.3851L8.12596 5.13213L8.63562 5.08664L8.56894 4.33961L8.50226 3.59258L7.9926 3.63807L8.05928 4.3851ZM8.56894 4.33961L8.63562 5.08664L9.14528 5.04114L9.0786 4.29411L9.01192 3.54708L8.50226 3.59258L8.56894 4.33961ZM9.0786 4.29411L9.14528 5.04114C10.6842 4.90378 11.8791 4.73457 12.7031 4.52563C13.109 4.42272 13.4751 4.29815 13.7562 4.13453C14.0007 3.99218 14.4155 3.67943 14.4155 3.13106H13.6655H12.9155C12.9155 2.8339 13.1392 2.75802 13.0015 2.8382C12.9003 2.8971 12.6931 2.98072 12.3345 3.07165C11.6295 3.25039 10.5309 3.4115 9.01192 3.54708L9.0786 4.29411ZM13.6655 3.13106H14.4155V3.04733H13.6655H12.9155V3.13106H13.6655ZM13.6655 3.04733H14.4155V2.96359H13.6655H12.9155V3.04733H13.6655ZM13.6655 2.96359H14.4155C14.4155 3.33748 14.0946 3.41695 14.2181 3.37188C14.3057 3.33987 14.5091 3.29869 14.8813 3.28153C15.6068 3.24809 16.7394 3.31336 18.306 3.49101L18.3905 2.74579L18.475 2.00057C16.8916 1.82101 15.6618 1.74396 14.8122 1.78312C14.3969 1.80227 14.0097 1.85111 13.7036 1.96285C13.4333 2.06154 12.9155 2.33849 12.9155 2.96359H13.6655ZM18.3905 2.74579L18.306 3.49101L18.831 3.55055L18.9155 2.80533L19 2.0601L18.475 2.00057L18.3905 2.74579Z"
        fill="black" />
    <path
        d="M31.1088 29.53C30.3461 29.3246 29.7595 28.936 29.3488 28.364C28.9528 27.792 28.7328 27 28.6888 25.988C28.6595 24.9613 28.7988 23.6853 29.1068 22.16C29.2095 21.6466 29.3561 21.06 29.5468 20.4C29.7375 19.74 29.9575 19.0653 30.2068 18.376C30.4708 17.672 30.7421 16.9973 31.0208 16.352C31.3141 15.692 31.6001 15.1126 31.8788 14.614C32.2161 14.0126 32.5095 13.6093 32.7588 13.404C33.0081 13.1986 33.2501 13.1106 33.4848 13.14C33.8368 13.1986 34.1008 13.3453 34.2768 13.58C34.4675 13.8 34.5555 14.042 34.5408 14.306C34.5408 14.5553 34.4161 14.7606 34.1668 14.922C34.0055 15.1126 33.7928 15.4646 33.5288 15.978C33.2795 16.4766 33.0228 16.9606 32.7588 17.43C32.4655 18.2806 32.2088 19.036 31.9888 19.696C31.7688 20.3413 31.5855 20.95 31.4388 21.522C31.2921 22.094 31.1601 22.6953 31.0428 23.326C30.9108 23.942 30.8081 24.4186 30.7348 24.756C30.6615 25.0786 30.6101 25.328 30.5808 25.504C30.5661 25.6653 30.5515 25.812 30.5368 25.944C30.5368 26.0613 30.5368 26.2226 30.5368 26.428C30.6541 26.6186 30.7495 26.7873 30.8228 26.934C30.8961 27.0806 30.9915 27.1686 31.1088 27.198C31.3581 27.3153 31.6075 27.374 31.8568 27.374C32.1208 27.374 32.4068 27.286 32.7148 27.11C32.7881 26.9633 32.8835 26.8606 33.0008 26.802C33.1181 26.7433 33.1768 26.714 33.1768 26.714C33.2061 26.7873 33.2355 26.8093 33.2648 26.78C33.3088 26.736 33.3381 26.6846 33.3528 26.626C33.3381 26.5673 33.3528 26.516 33.3968 26.472C33.4408 26.4133 33.4921 26.3546 33.5508 26.296C33.6681 26.252 33.8148 26.1273 33.9908 25.922C34.1815 25.7166 34.3648 25.4893 34.5408 25.24C34.7168 24.976 34.8635 24.734 34.9808 24.514C35.1128 24.294 35.1788 24.1546 35.1788 24.096C35.1788 24.0226 35.2081 23.9566 35.2668 23.898C35.3255 23.8393 35.3915 23.766 35.4648 23.678C35.5381 23.6046 35.6848 23.37 35.9048 22.974C36.1395 22.5633 36.3888 22.0866 36.6528 21.544C36.9315 21.0013 37.1808 20.5026 37.4008 20.048C37.4448 19.8866 37.5255 19.63 37.6428 19.278C37.7601 18.9113 37.8848 18.4933 38.0168 18.024C38.1635 17.5546 38.3028 17.0853 38.4348 16.616C38.5668 16.132 38.6841 15.7066 38.7868 15.34C38.9041 14.9586 38.9775 14.68 39.0068 14.504C39.0361 14.3133 39.0801 14.1593 39.1388 14.042C39.1975 13.91 39.2341 13.8146 39.2488 13.756C39.4101 13.624 39.5935 13.5873 39.7988 13.646C40.0041 13.7046 40.1948 13.7926 40.3708 13.91C40.5615 14.0126 40.7008 14.086 40.7888 14.13C40.8768 14.2473 40.9135 14.394 40.8988 14.57C40.8841 14.746 40.8328 15.0173 40.7448 15.384C40.6715 15.736 40.5615 16.2493 40.4148 16.924C40.1068 18.1266 39.7328 19.234 39.2928 20.246C38.8675 21.258 38.4055 22.3286 37.9068 23.458C37.9068 23.458 37.9068 23.4653 37.9068 23.48C37.9068 23.48 37.9068 23.5166 37.9068 23.59C37.7308 23.6926 37.5915 23.8466 37.4888 24.052C37.4155 24.184 37.3495 24.3013 37.2908 24.404C37.2468 24.492 37.1881 24.558 37.1148 24.602C37.0708 24.734 37.0268 24.8513 36.9828 24.954C36.9388 25.0566 36.9168 25.108 36.9168 25.108C36.9021 25.1813 36.8508 25.2473 36.7628 25.306C36.6748 25.3646 36.5868 25.4233 36.4988 25.482C36.4255 25.5113 36.3815 25.57 36.3668 25.658C36.3521 25.746 36.3228 25.8193 36.2788 25.878C35.9561 26.362 35.5601 26.8533 35.0908 27.352C34.6215 27.836 34.1375 28.2613 33.6388 28.628C33.1548 28.9946 32.7148 29.2513 32.3188 29.398C32.0548 29.5006 31.8348 29.5593 31.6588 29.574C31.4975 29.5886 31.3141 29.574 31.1088 29.53ZM46.4301 27.682C46.1074 27.6526 45.8361 27.5866 45.6161 27.484C45.4107 27.3666 45.2421 27.1393 45.1101 26.802C45.0514 26.5673 45.0221 26.3253 45.0221 26.076C45.0367 25.812 45.0587 25.5626 45.0881 25.328C45.1174 25.0786 45.1321 24.866 45.1321 24.69C45.1321 24.6606 45.1321 24.602 45.1321 24.514C45.1321 24.426 45.1321 24.3453 45.1321 24.272C45.1027 24.052 45.0441 23.92 44.9561 23.876C44.8827 23.8173 44.7507 23.8246 44.5601 23.898C44.2521 24.0446 43.9147 24.2426 43.5481 24.492C43.1961 24.7266 42.8221 25.0053 42.4261 25.328C42.0447 25.636 41.6487 25.966 41.2381 26.318C40.9154 26.67 40.6734 26.956 40.5121 27.176C40.3654 27.396 40.2114 27.506 40.0501 27.506C39.9327 27.5646 39.8081 27.55 39.6761 27.462C39.5441 27.374 39.4047 27.2713 39.2581 27.154C39.1554 27.0366 39.0307 26.89 38.8841 26.714C38.7521 26.5233 38.6714 26.3986 38.6421 26.34C38.6421 26.1053 38.6567 25.8926 38.6861 25.702C38.7301 25.5113 38.7887 25.3133 38.8621 25.108C38.9501 24.9026 39.0527 24.668 39.1701 24.404C39.2287 24.3013 39.2801 24.1986 39.3241 24.096C39.3827 23.9786 39.4487 23.854 39.5221 23.722C39.5807 23.5166 39.6614 23.282 39.7641 23.018C39.8814 22.754 39.9914 22.5046 40.0941 22.27C40.2554 21.8886 40.3801 21.5586 40.4681 21.28C40.5561 21.0013 40.6294 20.7006 40.6881 20.378C40.6734 20.3486 40.6807 20.3046 40.7101 20.246C40.7394 20.1873 40.7834 20.1506 40.8421 20.136H40.8641H40.8861C40.9887 20.0626 41.1794 20.0553 41.4581 20.114C41.7514 20.158 41.9714 20.2386 42.1181 20.356C42.4261 20.62 42.5727 20.9646 42.5581 21.39C42.5434 21.8153 42.3234 22.3726 41.8981 23.062C41.7954 23.2966 41.6854 23.5166 41.5681 23.722C41.4654 23.9126 41.4141 24.0446 41.4141 24.118C41.4141 24.118 41.4727 24.074 41.5901 23.986C41.7074 23.898 41.8467 23.7953 42.0081 23.678C42.1694 23.546 42.3087 23.4433 42.4261 23.37C42.4994 23.2966 42.6607 23.1646 42.9101 22.974C43.1594 22.7686 43.4307 22.556 43.7241 22.336C44.0174 22.116 44.2521 21.9473 44.4281 21.83C44.5894 21.7126 44.7947 21.5953 45.0441 21.478C45.2934 21.346 45.4474 21.28 45.5061 21.28C45.6527 21.28 45.8287 21.3313 46.0341 21.434C46.2541 21.5366 46.4521 21.6613 46.6281 21.808C46.8187 21.94 46.9287 22.0646 46.9581 22.182C46.9581 22.2406 46.9507 22.3213 46.9361 22.424C46.9214 22.512 46.9141 22.5926 46.9141 22.666C46.8994 22.9006 46.8921 23.1866 46.8921 23.524C46.9067 23.8466 46.9141 24.1766 46.9141 24.514C46.9141 24.8366 46.8847 25.13 46.8261 25.394C46.8261 25.394 46.8334 25.4086 46.8481 25.438C46.8627 25.4526 46.8774 25.482 46.8921 25.526C46.8774 25.5406 46.8701 25.57 46.8701 25.614C46.8847 25.6433 46.8921 25.658 46.8921 25.658C46.9214 25.7606 46.9507 25.8633 46.9801 25.966C47.0241 26.0686 47.0754 26.186 47.1341 26.318C47.1927 26.4353 47.2587 26.5893 47.3321 26.78C47.3174 26.9706 47.2074 27.1613 47.0021 27.352C46.8114 27.528 46.6207 27.638 46.4301 27.682ZM50.9177 28.034C50.5951 28.034 50.3531 28.0193 50.1917 27.99C50.0451 27.9606 49.9351 27.9166 49.8617 27.858C49.7884 27.7993 49.6931 27.7186 49.5757 27.616C49.5171 27.4986 49.4144 27.352 49.2677 27.176C49.1211 26.9853 49.0184 26.8606 48.9597 26.802C48.9011 26.582 48.8791 26.2813 48.8937 25.9C48.9231 25.5186 48.9891 25.108 49.0917 24.668C49.1944 24.228 49.3191 23.832 49.4657 23.48C49.5244 23.3626 49.5757 23.2453 49.6197 23.128C49.6637 23.0106 49.6857 22.952 49.6857 22.952C49.6857 22.8786 49.7737 22.7026 49.9497 22.424C50.1404 22.1453 50.3457 21.852 50.5657 21.544C50.8004 21.236 50.9911 21.016 51.1377 20.884C51.2404 20.7666 51.3944 20.642 51.5997 20.51C51.8197 20.378 52.0104 20.2826 52.1717 20.224C52.3331 20.1653 52.5531 20.092 52.8317 20.004C53.1104 19.9013 53.3597 19.85 53.5797 19.85C53.7851 19.85 54.0051 19.894 54.2397 19.982C54.4744 20.07 54.6724 20.224 54.8337 20.444C55.0977 20.708 55.2664 21.0233 55.3397 21.39C55.4131 21.7566 55.4204 22.072 55.3617 22.336C55.2884 22.6293 55.1417 22.8713 54.9217 23.062C54.7017 23.238 54.4671 23.3333 54.2177 23.348C53.9684 23.348 53.7484 23.2453 53.5577 23.04C53.4991 22.9226 53.4697 22.8273 53.4697 22.754C53.4697 22.666 53.4991 22.5413 53.5577 22.38C53.6164 22.1746 53.6457 21.9913 53.6457 21.83C53.6457 21.6686 53.5797 21.588 53.4477 21.588C53.2571 21.588 53.1031 21.6466 52.9857 21.764C52.8684 21.8666 52.6924 22.0426 52.4577 22.292C52.3551 22.4093 52.2231 22.578 52.0617 22.798C51.9004 23.018 51.7391 23.26 51.5777 23.524C51.4311 23.7733 51.2991 24.03 51.1817 24.294C51.0204 24.778 50.9177 25.0933 50.8737 25.24C50.8444 25.372 50.8297 25.438 50.8297 25.438C50.8297 25.4966 50.8224 25.5553 50.8077 25.614C50.7931 25.658 50.7857 25.7093 50.7857 25.768C50.7857 25.944 50.8884 26.0833 51.0937 26.186C51.2551 26.2886 51.3871 26.34 51.4897 26.34C51.6071 26.3253 51.8271 26.2446 52.1497 26.098C52.3844 25.9806 52.6044 25.8266 52.8097 25.636C53.0297 25.4453 53.2571 25.2766 53.4917 25.13C53.6531 25.0273 53.7777 24.9393 53.8657 24.866C53.9684 24.7926 54.0197 24.7853 54.0197 24.844C54.0197 24.9026 54.0417 24.932 54.0857 24.932C54.1297 24.932 54.1811 24.9026 54.2397 24.844C54.3277 24.7266 54.4377 24.6826 54.5697 24.712C54.7017 24.7266 54.8191 24.7633 54.9217 24.822C55.0391 24.8806 55.0977 24.932 55.0977 24.976C55.0684 25.108 55.0977 25.218 55.1857 25.306C55.1857 25.3646 55.1637 25.4453 55.1197 25.548C55.0904 25.636 55.0464 25.7093 54.9877 25.768C54.9144 25.8706 54.8044 26.0173 54.6577 26.208C54.5257 26.3986 54.4011 26.5673 54.2837 26.714C54.1664 26.8606 54.1077 26.934 54.1077 26.934C54.0491 26.9193 53.9904 26.934 53.9317 26.978C53.8877 27.022 53.8364 27.0733 53.7777 27.132C53.6604 27.2346 53.5504 27.3153 53.4477 27.374C53.3451 27.418 53.2644 27.44 53.2057 27.44C53.1031 27.4986 53.0224 27.5353 52.9637 27.55C52.9197 27.5646 52.8977 27.6013 52.8977 27.66C52.7511 27.8066 52.4871 27.9093 52.1057 27.968C51.7244 28.012 51.3284 28.034 50.9177 28.034ZM58.4055 28.056C58.2148 28.056 58.0608 28.0193 57.9435 27.946C57.8408 27.8726 57.7088 27.77 57.5475 27.638C57.2688 27.3446 57.0415 27.0293 56.8655 26.692C56.7041 26.3546 56.6455 26.0613 56.6895 25.812C56.7335 25.6946 56.7481 25.5846 56.7335 25.482C56.7335 25.3646 56.7335 25.306 56.7335 25.306C56.6601 25.2326 56.6381 25.1886 56.6675 25.174C56.6968 25.1446 56.7261 25.1006 56.7555 25.042C56.8435 25.042 56.8728 24.9613 56.8435 24.8C56.8141 24.6826 56.8581 24.4333 56.9755 24.052C57.1075 23.656 57.2835 23.282 57.5035 22.93C57.5915 22.7833 57.7235 22.5926 57.8995 22.358C58.0755 22.1086 58.2661 21.8666 58.4715 21.632C58.6915 21.3826 58.8895 21.1846 59.0655 21.038C59.4321 20.73 59.7695 20.4806 60.0775 20.29C60.4001 20.0993 60.7228 19.9673 61.0455 19.894C61.3681 19.8206 61.6981 19.784 62.0355 19.784C62.3875 19.784 62.6735 19.9013 62.8935 20.136C63.2308 20.2826 63.4655 20.4806 63.5975 20.73C63.7441 20.9793 63.8395 21.302 63.8835 21.698C63.9275 22.138 63.8835 22.6806 63.7515 23.326C63.6195 23.9566 63.2601 24.69 62.6735 25.526C62.3068 26.054 61.9475 26.4646 61.5955 26.758C61.2435 27.0513 60.8548 27.3226 60.4295 27.572C60.1215 27.7773 59.7915 27.902 59.4395 27.946C59.0875 27.99 58.7428 28.0266 58.4055 28.056ZM60.6495 25.372C60.9721 25.0933 61.1995 24.7853 61.3315 24.448C61.4781 24.1106 61.6321 23.7146 61.7935 23.26C61.8521 23.172 61.8888 23.0253 61.9035 22.82C61.9328 22.6146 61.9401 22.4166 61.9255 22.226C61.9108 22.0206 61.8595 21.9033 61.7715 21.874C61.6395 21.7713 61.5075 21.7493 61.3755 21.808C61.2435 21.852 61.0748 21.9473 60.8695 22.094C60.4295 22.4606 60.0188 22.886 59.6375 23.37C59.2708 23.8393 59.0141 24.4186 58.8675 25.108C58.8235 25.4746 58.8601 25.7533 58.9775 25.944C59.1095 26.12 59.3148 26.1713 59.5935 26.098C59.8868 26.01 60.2388 25.768 60.6495 25.372ZM66.0242 27.484C65.7455 27.3666 65.5182 27.1906 65.3422 26.956C65.1808 26.7066 65.1002 26.406 65.1002 26.054C65.1002 25.9073 65.1295 25.658 65.1882 25.306C65.2468 24.954 65.3275 24.558 65.4302 24.118C65.5328 23.678 65.6355 23.2673 65.7382 22.886C65.8848 22.622 65.9802 22.358 66.0242 22.094C66.0828 21.83 66.1122 21.6686 66.1122 21.61C66.1415 21.434 66.1928 21.1993 66.2662 20.906C66.3395 20.6126 66.4128 20.3486 66.4862 20.114C66.5742 19.8646 66.6328 19.7253 66.6622 19.696C66.7355 19.6226 66.8602 19.5786 67.0362 19.564C67.2122 19.5493 67.3882 19.5713 67.5642 19.63C67.7402 19.674 67.8575 19.7693 67.9162 19.916C68.0775 20.092 68.1655 20.356 68.1802 20.708C68.2095 21.06 68.1435 21.4706 67.9822 21.94C67.8502 22.2333 67.7182 22.578 67.5862 22.974C67.4542 23.37 67.3368 23.7366 67.2342 24.074C67.1462 24.3966 67.0948 24.6166 67.0802 24.734L66.2882 24.712C66.5375 24.4773 66.7722 24.2353 66.9922 23.986C67.2122 23.722 67.3735 23.5166 67.4762 23.37C67.7255 23.0326 67.9382 22.754 68.1142 22.534C68.3048 22.2993 68.5468 22.0206 68.8402 21.698C69.1335 21.3606 69.4488 21.126 69.7862 20.994C70.1235 20.8473 70.3728 20.774 70.5342 20.774C70.8568 20.8326 71.1428 21.0013 71.3922 21.28C71.6562 21.544 71.8175 21.94 71.8762 22.468C71.8762 22.6733 71.8542 22.9153 71.8102 23.194C71.7808 23.4726 71.7662 23.612 71.7662 23.612C71.7662 23.612 71.8835 23.4653 72.1182 23.172C72.3675 22.8786 72.6975 22.5486 73.1082 22.182C73.3868 21.9766 73.6582 21.8593 73.9222 21.83C74.1862 21.786 74.4208 21.874 74.6262 22.094C75.0075 22.2993 75.2862 22.6586 75.4622 23.172C75.6382 23.6853 75.6968 24.2646 75.6382 24.91C75.5942 25.2913 75.5942 25.5993 75.6382 25.834C75.6968 26.054 75.7555 26.252 75.8142 26.428C76.0048 26.692 76.0342 26.9266 75.9022 27.132C75.7702 27.3226 75.6528 27.418 75.5502 27.418C75.4035 27.418 75.1835 27.3886 74.8902 27.33C74.5968 27.2713 74.3255 27.1686 74.0762 27.022C73.8415 26.8753 73.7242 26.6773 73.7242 26.428V25.064C73.7242 24.7413 73.7095 24.5066 73.6802 24.36C73.6655 24.1986 73.6288 24.096 73.5702 24.052C73.4088 23.964 73.2108 24.03 72.9762 24.25C72.7415 24.47 72.4848 24.7853 72.2062 25.196C71.9422 25.592 71.6562 26.0393 71.3482 26.538C71.0695 26.9926 70.8422 27.2713 70.6662 27.374C70.4902 27.462 70.3215 27.4546 70.1602 27.352C69.8375 27.2493 69.6322 27.11 69.5442 26.934C69.4708 26.7433 69.4635 26.5306 69.5222 26.296C69.5955 26.0466 69.6835 25.724 69.7862 25.328C69.9035 24.932 70.0135 24.5506 70.1162 24.184C70.2188 23.8026 70.2848 23.524 70.3142 23.348C70.2555 23.2306 70.1528 23.194 70.0062 23.238C69.8742 23.2673 69.7348 23.3333 69.5882 23.436C69.4122 23.5533 69.2215 23.678 69.0162 23.81C68.8255 23.942 68.5982 24.2206 68.3342 24.646C68.1582 24.9246 67.9602 25.2326 67.7402 25.57C67.5202 25.8926 67.3148 26.186 67.1242 26.45C66.9482 26.714 66.8015 26.8973 66.6842 27C66.5815 27.264 66.4862 27.4326 66.3982 27.506C66.3102 27.5646 66.1855 27.5573 66.0242 27.484ZM76.5476 33.336C76.4889 33.336 76.4009 33.336 76.2836 33.336C76.1809 33.3506 76.0929 33.292 76.0196 33.16C75.9609 33.0866 75.8729 32.94 75.7556 32.72C75.6382 32.5146 75.6162 32.2213 75.6896 31.84C75.7629 31.5906 75.8216 31.3413 75.8656 31.092C75.9096 30.8573 75.9316 30.6813 75.9316 30.564C75.9316 30.5053 75.9462 30.388 75.9756 30.212C76.0196 30.0506 76.0416 29.9333 76.0416 29.86C76.1149 29.7426 76.1736 29.5813 76.2176 29.376C76.2616 29.1706 76.2836 28.9873 76.2836 28.826C76.2836 28.65 76.3716 28.4886 76.5476 28.342C76.5476 28.2246 76.5696 28.078 76.6136 27.902C76.6722 27.726 76.7016 27.6086 76.7016 27.55C76.7456 27.3446 76.8409 26.9853 76.9876 26.472C77.1489 25.944 77.3396 25.35 77.5596 24.69C77.7942 24.03 78.0216 23.3846 78.2416 22.754C78.4616 22.1233 78.6596 21.588 78.8356 21.148C79.0116 20.7373 79.1582 20.356 79.2756 20.004C79.3929 19.652 79.4516 19.4026 79.4516 19.256C79.4516 19.1973 79.4662 19.1533 79.4956 19.124C79.5249 19.08 79.5909 18.9993 79.6936 18.882C79.8402 18.7353 80.0309 18.684 80.2656 18.728C80.5149 18.7573 80.7202 18.8306 80.8816 18.948C80.9989 19.1386 81.0796 19.3146 81.1236 19.476C81.1822 19.6226 81.1822 19.8573 81.1236 20.18C81.1236 20.4 81.0722 20.6053 80.9696 20.796C80.8669 20.972 80.7716 21.1186 80.6836 21.236C80.6102 21.3386 80.5882 21.3826 80.6176 21.368C81.2629 20.972 81.8422 20.7593 82.3556 20.73C82.8836 20.686 83.3236 20.774 83.6756 20.994C84.0422 21.1993 84.3209 21.4853 84.5116 21.852C84.7022 22.2186 84.7976 22.6146 84.7976 23.04C84.7976 23.216 84.7389 23.4506 84.6216 23.744C84.5042 24.0373 84.3722 24.316 84.2256 24.58C84.0789 24.8293 83.9616 24.998 83.8736 25.086C83.8149 25.086 83.7562 25.1373 83.6976 25.24C83.6389 25.328 83.5802 25.4306 83.5216 25.548C83.4042 25.6946 83.2062 25.8633 82.9276 26.054C82.6636 26.23 82.3922 26.3766 82.1136 26.494C81.8349 26.5966 81.6369 26.626 81.5196 26.582C81.5196 26.582 81.4976 26.5966 81.4536 26.626C81.4242 26.6553 81.4096 26.7066 81.4096 26.78C81.4096 26.8093 81.3069 26.868 81.1016 26.956C80.8962 27.044 80.6542 27.1246 80.3756 27.198C80.0969 27.2713 79.8402 27.308 79.6056 27.308C79.2976 27.308 79.0776 27.2493 78.9456 27.132C78.9162 27.1613 78.8796 27.2053 78.8356 27.264C78.8062 27.3226 78.7916 27.374 78.7916 27.418C78.7916 27.506 78.7549 27.6453 78.6816 27.836C78.6229 28.0266 78.5496 28.1953 78.4616 28.342C78.3736 28.5033 78.2929 28.584 78.2196 28.584C78.2196 28.584 78.2049 28.606 78.1756 28.65C78.1462 28.694 78.1609 28.7526 78.2196 28.826C78.2196 28.826 78.2122 28.9066 78.1976 29.068C78.1976 29.244 78.1609 29.3906 78.0876 29.508C78.0876 29.6253 78.0656 29.8013 78.0216 30.036C77.9776 30.2706 77.9262 30.4466 77.8676 30.564C77.8676 30.74 77.8382 30.9086 77.7796 31.07C77.7356 31.246 77.6842 31.334 77.6256 31.334C77.5669 31.3486 77.5302 31.4366 77.5156 31.598C77.5009 31.774 77.4936 31.8986 77.4936 31.972C77.4789 32.3386 77.3616 32.654 77.1416 32.918C76.9216 33.1966 76.7236 33.336 76.5476 33.336ZM79.3636 25.636C79.4809 25.636 79.6936 25.5846 80.0016 25.482C80.3096 25.3793 80.6322 25.2546 80.9696 25.108C81.3069 24.9466 81.5709 24.7853 81.7616 24.624C82.1429 24.2866 82.4362 23.9566 82.6416 23.634C82.8616 23.3113 82.8469 22.952 82.5976 22.556C82.4802 22.3506 82.2896 22.27 82.0256 22.314C81.7762 22.3433 81.4976 22.4606 81.1896 22.666C80.8816 22.8713 80.5662 23.128 80.2436 23.436C80.0676 23.6266 79.9062 23.8466 79.7596 24.096C79.6129 24.3453 79.4882 24.5873 79.3856 24.822C79.2976 25.0566 79.2462 25.2546 79.2316 25.416C79.2169 25.5626 79.2609 25.636 79.3636 25.636ZM86.292 27.682C86.1454 27.594 85.984 27.4693 85.808 27.308C85.632 27.132 85.544 26.9633 85.544 26.802C85.544 26.582 85.5734 26.3106 85.632 25.988C85.6907 25.6506 85.7494 25.3646 85.808 25.13C85.8374 24.866 85.874 24.602 85.918 24.338C85.9767 24.0593 86.0794 23.8026 86.226 23.568C86.3874 23.0106 86.556 22.4606 86.732 21.918C86.908 21.3606 87.062 20.7886 87.194 20.202C87.3847 19.6593 87.5534 19.1826 87.7 18.772C87.8614 18.3466 88.0594 17.8113 88.294 17.166C88.426 16.7993 88.536 16.4106 88.624 16C88.7267 15.5746 88.8807 15.1933 89.086 14.856C89.174 14.724 89.24 14.614 89.284 14.526C89.3427 14.4233 89.4014 14.328 89.46 14.24C89.4747 14.1813 89.548 14.13 89.68 14.086C89.8267 14.042 89.9734 14.02 90.12 14.02C90.2814 14.0053 90.3914 14.0346 90.45 14.108C90.494 14.0933 90.5674 14.152 90.67 14.284C90.7727 14.4013 90.868 14.5406 90.956 14.702C91.0587 14.8486 91.1027 14.966 91.088 15.054C91.088 15.1126 91.0734 15.1933 91.044 15.296C91.0294 15.3986 90.9927 15.494 90.934 15.582C90.8754 15.6406 90.8167 15.7286 90.758 15.846C90.714 15.9486 90.6407 16.0953 90.538 16.286C90.4794 16.4766 90.428 16.6746 90.384 16.88C90.34 17.0706 90.2814 17.2466 90.208 17.408C90.1494 17.584 90.076 17.7526 89.988 17.914C89.9147 18.0753 89.8634 18.2073 89.834 18.31C89.7314 18.6473 89.6067 18.9773 89.46 19.3C89.328 19.6226 89.2107 19.9673 89.108 20.334C89.0054 20.686 88.9027 21.0526 88.8 21.434C88.6974 21.8006 88.5507 22.1526 88.36 22.49C88.2574 22.6513 88.184 22.8566 88.14 23.106C88.096 23.3553 88.052 23.6046 88.008 23.854C87.92 24.118 87.8394 24.3673 87.766 24.602C87.7074 24.822 87.678 24.9613 87.678 25.02C87.59 25.3426 87.524 25.6653 87.48 25.988C87.4507 26.296 87.3774 26.5673 87.26 26.802C87.2454 26.9486 87.194 27.11 87.106 27.286C87.018 27.462 86.9007 27.594 86.754 27.682C86.622 27.77 86.468 27.77 86.292 27.682ZM91.8522 28.606C91.0455 28.606 90.4222 28.3713 89.9822 27.902C89.5568 27.4326 89.3442 26.714 89.3442 25.746C89.3442 25.218 89.4395 24.6386 89.6302 24.008C89.8355 23.3773 90.0995 22.7613 90.4222 22.16C90.7595 21.5586 91.1262 21.038 91.5222 20.598C91.9182 20.1433 92.3142 19.828 92.7102 19.652C92.8568 19.5786 93.0108 19.5273 93.1722 19.498C93.3482 19.454 93.5168 19.432 93.6782 19.432C93.8542 19.432 94.0448 19.4466 94.2502 19.476C94.4702 19.4906 94.6755 19.5346 94.8662 19.608C95.2035 19.7106 95.4968 19.9086 95.7462 20.202C96.0102 20.4953 96.1422 20.9206 96.1422 21.478C96.1422 21.6246 96.1275 21.786 96.0982 21.962C96.0688 22.1233 96.0175 22.2846 95.9442 22.446C95.7535 22.93 95.4602 23.392 95.0642 23.832C94.6828 24.272 94.2795 24.58 93.8542 24.756C93.7368 24.8146 93.6195 24.8586 93.5022 24.888C93.3995 24.9026 93.2895 24.91 93.1722 24.91C92.8642 24.91 92.5855 24.866 92.3362 24.778C92.1015 24.69 91.8815 24.5726 91.6762 24.426L91.5002 24.272L91.3902 24.492C91.2875 24.7706 91.2142 25.0053 91.1702 25.196C91.1408 25.3866 91.1262 25.526 91.1262 25.614C91.1262 25.79 91.1335 25.9733 91.1482 26.164C91.1628 26.34 91.2068 26.4866 91.2802 26.604C91.3388 26.6773 91.4122 26.736 91.5002 26.78C91.6028 26.824 91.7275 26.846 91.8742 26.846C91.9622 26.846 92.0428 26.846 92.1162 26.846C92.2042 26.8313 92.2775 26.8166 92.3362 26.802C92.6002 26.7433 92.8128 26.648 92.9742 26.516C93.1502 26.3693 93.3335 26.2446 93.5242 26.142L93.6122 26.098L93.5902 26.032C93.8395 25.9 94.0082 25.8193 94.0962 25.79C94.1842 25.746 94.2502 25.7093 94.2942 25.68C94.3528 25.6213 94.4188 25.592 94.4922 25.592C94.6975 25.5626 94.8955 25.6213 95.0862 25.768C95.2915 25.9 95.3942 26.0686 95.3942 26.274C95.3942 26.362 95.3282 26.5013 95.1962 26.692C95.0788 26.8826 94.9248 27.0733 94.7342 27.264C94.5582 27.44 94.3748 27.5793 94.1842 27.682C94.1402 27.6966 94.0962 27.7186 94.0522 27.748C94.0082 27.7626 93.9642 27.7846 93.9202 27.814H93.9422C93.8102 27.99 93.6782 28.078 93.5462 28.078H93.3702C93.3115 28.1806 93.1208 28.2906 92.7982 28.408C92.4755 28.54 92.1602 28.606 91.8522 28.606ZM92.9962 23.304C93.1282 23.304 93.2455 23.282 93.3482 23.238C93.4655 23.194 93.5755 23.1426 93.6782 23.084C94.0302 22.8346 94.2575 22.512 94.3602 22.116C94.4628 21.72 94.4262 21.4193 94.2502 21.214C94.2208 21.17 94.1842 21.1406 94.1402 21.126C94.0962 21.0966 94.0448 21.082 93.9862 21.082C93.8248 21.082 93.6415 21.1333 93.4362 21.236C93.2455 21.3386 93.0548 21.4853 92.8642 21.676C92.6735 21.8666 92.4975 22.094 92.3362 22.358L92.0502 22.82C92.0795 22.8053 92.1015 22.798 92.1162 22.798C92.1455 22.7833 92.1675 22.776 92.1822 22.776C92.3142 22.776 92.4022 22.82 92.4462 22.908C92.4902 22.996 92.5415 23.084 92.6002 23.172C92.6735 23.26 92.8055 23.304 92.9962 23.304ZM99.0238 29.53C98.3052 29.5153 97.8432 29.31 97.6378 28.914C97.4472 28.5326 97.3958 28.0486 97.4838 27.462C97.5718 27.1833 97.6232 26.934 97.6378 26.714C97.6672 26.4793 97.7332 26.3326 97.8358 26.274C97.8358 26.274 97.8432 26.252 97.8578 26.208C97.8872 26.164 97.8798 26.12 97.8358 26.076C97.8358 25.8853 97.9018 25.6213 98.0338 25.284C98.0632 25.196 98.0998 25.0933 98.1438 24.976C98.2025 24.844 98.2318 24.778 98.2318 24.778C98.1585 24.6606 98.1585 24.5653 98.2318 24.492C98.3052 24.4186 98.3785 24.3526 98.4518 24.294C98.5398 24.2206 98.5472 24.14 98.4738 24.052C98.4445 23.9933 98.4812 23.8613 98.5838 23.656C98.6865 23.436 98.8038 23.2086 98.9358 22.974C99.0678 22.7393 99.1558 22.556 99.1998 22.424C99.1998 22.3946 99.2365 22.292 99.3098 22.116C99.3832 21.94 99.4712 21.7346 99.5738 21.5C99.6765 21.2653 99.7718 21.0526 99.8598 20.862C99.9625 20.6713 100.028 20.5466 100.058 20.488C100.204 20.4146 100.146 20.3633 99.8818 20.334C99.6178 20.3046 99.3392 20.2973 99.0458 20.312C98.5912 20.2973 98.2245 20.2753 97.9458 20.246C97.6818 20.2166 97.4618 20.1506 97.2858 20.048C97.1098 19.8426 97.0878 19.6006 97.2198 19.322C97.3518 19.0286 97.5645 18.8746 97.8578 18.86C98.0485 18.8453 98.1952 18.838 98.2978 18.838C98.4152 18.838 98.5618 18.8306 98.7378 18.816C98.9285 18.7866 99.2218 18.75 99.6178 18.706L100.74 18.618L100.806 18.244C100.923 18.0533 101.004 17.9286 101.048 17.87C101.092 17.8113 101.121 17.7526 101.136 17.694C101.15 17.6206 101.172 17.496 101.202 17.32C101.202 17.32 101.268 17.2026 101.4 16.968C101.532 16.7186 101.612 16.462 101.642 16.198C101.818 15.9046 101.972 15.6406 102.104 15.406C102.236 15.1566 102.316 15.0026 102.346 14.944C102.595 14.5773 102.837 14.3793 103.072 14.35C103.321 14.3206 103.556 14.3793 103.776 14.526C103.908 14.5993 104.032 14.6946 104.15 14.812C104.267 14.9146 104.34 15.054 104.37 15.23C104.399 15.3913 104.333 15.604 104.172 15.868C104.142 15.9266 104.098 16.0366 104.04 16.198C103.981 16.3446 103.937 16.4693 103.908 16.572C103.82 16.6746 103.71 16.8433 103.578 17.078C103.46 17.298 103.38 17.5253 103.336 17.76C103.218 18.0093 103.145 18.1633 103.116 18.222C103.086 18.2806 103.042 18.31 102.984 18.31C103.013 18.4566 103.101 18.53 103.248 18.53C103.394 18.5153 103.636 18.5006 103.974 18.486C104.252 18.4566 104.443 18.4273 104.546 18.398C104.663 18.354 104.795 18.3686 104.942 18.442C105.015 18.5446 105.052 18.6986 105.052 18.904C105.066 19.0946 105.044 19.2853 104.986 19.476C104.927 19.652 104.846 19.762 104.744 19.806C104.67 19.806 104.516 19.85 104.282 19.938C104.062 20.0113 103.783 20.0553 103.446 20.07L102.28 20.18L101.906 20.928C101.803 21.1186 101.715 21.2946 101.642 21.456C101.568 21.6026 101.517 21.6906 101.488 21.72C101.488 21.808 101.436 21.94 101.334 22.116C101.246 22.292 101.15 22.4826 101.048 22.688C100.96 22.9373 100.857 23.1646 100.74 23.37C100.637 23.5753 100.586 23.678 100.586 23.678C100.527 23.678 100.498 23.722 100.498 23.81C100.571 23.986 100.549 24.118 100.432 24.206C100.358 24.25 100.292 24.316 100.234 24.404C100.19 24.4773 100.168 24.514 100.168 24.514C100.226 24.5726 100.234 24.646 100.19 24.734C100.16 24.822 100.116 24.9173 100.058 25.02C100.058 25.1373 100.021 25.306 99.9478 25.526C99.8892 25.746 99.8232 25.9513 99.7498 26.142C99.7645 26.406 99.7792 26.5746 99.7938 26.648C99.8085 26.7213 99.8452 26.7506 99.9038 26.736C99.9772 26.7506 100.08 26.7506 100.212 26.736C100.344 26.7213 100.439 26.714 100.498 26.714C100.718 26.6113 100.615 27.1246 100.19 28.254C99.9552 28.6206 99.7205 28.9213 99.4858 29.156C99.2512 29.4053 99.0972 29.53 99.0238 29.53ZM105.735 28.012C105.163 27.7773 104.767 27.396 104.547 26.868C104.327 26.34 104.268 25.636 104.371 24.756C104.4 24.3013 104.386 24.0006 104.327 23.854C104.268 23.6926 104.158 23.5386 103.997 23.392C103.953 23.3333 103.85 23.238 103.689 23.106C103.528 22.9593 103.454 22.8493 103.469 22.776C103.454 22.6733 103.476 22.5486 103.535 22.402C103.594 22.2406 103.645 22.1526 103.689 22.138C103.792 22.094 103.894 22.0426 103.997 21.984C104.114 21.9253 104.202 21.9106 104.261 21.94C104.32 21.94 104.408 21.9766 104.525 22.05C104.657 22.1233 104.723 22.1893 104.723 22.248C104.782 22.3506 104.87 22.3066 104.987 22.116C105.119 21.9253 105.258 21.6833 105.405 21.39C105.552 21.1553 105.735 20.9353 105.955 20.73C106.175 20.5246 106.395 20.3413 106.615 20.18C106.85 20.004 107.048 19.872 107.209 19.784C107.282 19.7546 107.422 19.7106 107.627 19.652C107.847 19.5933 108.074 19.5493 108.309 19.52C108.544 19.476 108.72 19.4613 108.837 19.476C109.101 19.4906 109.38 19.6006 109.673 19.806C109.966 20.0113 110.194 20.202 110.355 20.378C110.546 20.51 110.67 20.7153 110.729 20.994C110.802 21.258 110.832 21.5366 110.817 21.83C110.802 22.1233 110.744 22.3726 110.641 22.578C110.597 22.7246 110.443 22.93 110.179 23.194C109.915 23.458 109.622 23.7146 109.299 23.964C108.991 24.1986 108.727 24.36 108.507 24.448C108.316 24.492 108.089 24.5286 107.825 24.558C107.561 24.5726 107.312 24.5726 107.077 24.558C106.857 24.5286 106.703 24.492 106.615 24.448C106.512 24.3893 106.424 24.4113 106.351 24.514C106.292 24.602 106.241 24.8513 106.197 25.262C106.182 25.4233 106.182 25.5626 106.197 25.68C106.226 25.7973 106.256 25.8853 106.285 25.944C106.388 26.12 106.49 26.252 106.593 26.34C106.696 26.4133 106.886 26.4353 107.165 26.406C107.444 26.3766 107.722 26.208 108.001 25.9C108.294 25.5773 108.558 25.3206 108.793 25.13C108.852 25.0273 108.976 24.9613 109.167 24.932C109.372 24.888 109.614 24.9026 109.893 24.976C110.054 25.0786 110.128 25.24 110.113 25.46C110.113 25.68 109.996 26.0026 109.761 26.428C109.717 26.5306 109.592 26.6846 109.387 26.89C109.196 27.0806 108.984 27.2786 108.749 27.484C108.529 27.6746 108.346 27.814 108.199 27.902C107.759 28.1366 107.326 28.2466 106.901 28.232C106.476 28.2173 106.087 28.144 105.735 28.012ZM107.363 23.062C107.583 23.0033 107.766 22.9446 107.913 22.886C108.074 22.8273 108.228 22.732 108.375 22.6C108.522 22.468 108.69 22.27 108.881 22.006C108.94 21.8446 108.969 21.7053 108.969 21.588C108.984 21.4706 108.976 21.3973 108.947 21.368C108.83 21.2506 108.698 21.214 108.551 21.258C108.419 21.2873 108.272 21.3606 108.111 21.478C108.008 21.522 107.862 21.6173 107.671 21.764C107.495 21.896 107.319 22.05 107.143 22.226C106.982 22.3873 106.85 22.5413 106.747 22.688C106.659 22.82 106.644 22.9006 106.703 22.93C106.674 22.9886 106.754 23.0253 106.945 23.04C107.15 23.0546 107.29 23.062 107.363 23.062ZM117.637 28.628C117.446 28.672 117.255 28.6206 117.065 28.474C116.889 28.342 116.764 28.1953 116.691 28.034C116.603 27.7993 116.544 27.5793 116.515 27.374C116.5 27.154 116.485 26.9046 116.471 26.626L116.449 25.878L115.547 26.692C115.048 27.1613 114.579 27.4986 114.139 27.704C113.713 27.8946 113.325 27.99 112.973 27.99C112.811 27.9606 112.613 27.858 112.379 27.682C112.159 27.4913 111.953 27.286 111.763 27.066C111.587 26.8313 111.462 26.6406 111.389 26.494C111.301 26.2886 111.271 26.0026 111.301 25.636C111.345 25.2693 111.433 24.866 111.565 24.426C111.711 23.986 111.887 23.5533 112.093 23.128C112.313 22.7026 112.562 22.336 112.841 22.028C113.325 21.2946 113.926 20.84 114.645 20.664C115.363 20.4733 116.001 20.532 116.559 20.84C116.823 20.972 117.013 21.0233 117.131 20.994C117.248 20.9646 117.321 20.8693 117.351 20.708C117.409 20.4733 117.475 20.2533 117.549 20.048C117.622 19.8426 117.725 19.5346 117.857 19.124C118.223 18.0093 118.539 17.1366 118.803 16.506C119.081 15.8753 119.331 15.3253 119.551 14.856C119.712 14.5186 119.873 14.284 120.035 14.152C120.196 14.02 120.335 13.9613 120.453 13.976C120.614 13.976 120.812 14.0346 121.047 14.152C121.296 14.2693 121.457 14.4306 121.531 14.636C121.589 14.768 121.611 14.9073 121.597 15.054C121.597 15.2006 121.553 15.3546 121.465 15.516C121.274 15.868 121.047 16.3373 120.783 16.924C120.533 17.496 120.277 18.1266 120.013 18.816C119.763 19.5053 119.529 20.1873 119.309 20.862C119.089 21.5366 118.905 22.1306 118.759 22.644C118.671 22.9666 118.597 23.3773 118.539 23.876C118.495 24.3746 118.458 24.888 118.429 25.416C118.414 25.9293 118.414 26.3913 118.429 26.802C118.443 27.198 118.465 27.4546 118.495 27.572C118.583 27.8653 118.583 28.0853 118.495 28.232C118.407 28.3786 118.282 28.474 118.121 28.518C117.959 28.5766 117.798 28.6133 117.637 28.628ZM114.007 25.966C114.212 25.8926 114.395 25.8046 114.557 25.702C114.718 25.5993 114.909 25.4673 115.129 25.306C115.569 24.9686 115.884 24.6753 116.075 24.426C116.28 24.1766 116.441 23.8686 116.559 23.502C116.632 23.282 116.632 23.0913 116.559 22.93C116.5 22.7686 116.39 22.6146 116.229 22.468C116.067 22.336 115.862 22.2846 115.613 22.314C115.363 22.3286 115.077 22.4826 114.755 22.776C114.403 23.0986 114.102 23.4726 113.853 23.898C113.603 24.3233 113.398 24.932 113.237 25.724C113.207 25.8706 113.259 25.9733 113.391 26.032C113.523 26.0906 113.728 26.0686 114.007 25.966Z"
        fill="#303133" />
</svg>