<svg width="143" height="42" viewBox="0 0 143 42" fill="none" xmlns="http://www.w3.org/2000/svg">
    <path
        d="M1.19385 14.21C1.19385 7.58254 6.56643 2.20996 13.1938 2.20996H128.194C134.821 2.20996 140.194 7.58254 140.194 14.21V27.21C140.194 33.8374 134.821 39.21 128.194 39.21H13.1938C6.56643 39.21 1.19385 33.8374 1.19385 27.21V14.21Z"
        fill="#F8F8F6" />
    <path
        d="M29.2427 0.879883C32.518 -0.144396 35.809 -0.276219 39.0923 0.493164L39.6138 0.616211L40.1411 0.739258C43.1989 1.45567 46.2518 1.58141 49.3052 1.11426L49.8325 1.03223L50.354 0.950195C53.615 0.451233 56.8762 0.683313 60.1274 1.63574L60.6548 1.78809L61.1821 1.94629C64.2311 2.83933 67.272 3.06475 70.311 2.63184L71.3657 2.47949C74.5758 2.02215 77.7876 1.96729 80.9985 2.30957L81.5259 2.3623L82.0474 2.4209C85.1625 2.75297 88.2784 2.86267 91.3931 2.75488L91.9204 2.7373L92.4419 2.71973C95.6113 2.61005 98.7822 2.62367 101.952 2.76074L102.479 2.78418L103 2.80762C106.125 2.94276 109.251 2.92176 112.375 2.74316L112.903 2.71387L113.424 2.68457C116.521 2.50758 119.633 2.00042 122.758 1.16699L123.292 1.02637L123.819 0.885742C127.237 -0.025931 130.272 0.721336 132.825 3.11816L133.223 3.4873L133.616 3.8623C136.024 6.12526 138.085 8.6552 139.792 11.4502L140.067 11.9072L140.348 12.3643C142.113 15.2549 142.722 18.381 142.165 21.71L142.077 22.2373L141.989 22.7588C141.45 25.9712 140.524 29.0607 139.217 32.0166L138.795 32.9775C137.424 36.0797 135.063 38.1368 131.77 39.1123L130.739 39.417C127.521 40.3694 124.262 40.4336 120.983 39.6045L120.461 39.4697L119.934 39.335C116.84 38.5527 113.748 38.1344 110.659 38.0811L110.131 38.0752L109.604 38.0635C106.456 38.0093 103.307 37.9636 100.159 37.9229L99.6372 37.917L99.1099 37.9111C96.0012 37.8709 92.8917 38.0777 89.7817 38.5381L89.2544 38.6201L88.7271 38.6963C85.537 39.1686 82.3442 39.3745 79.1528 39.3115L78.6313 39.2998L78.104 39.2881C74.9931 39.2268 71.882 39.4086 68.77 39.8271L68.2427 39.8975L67.7212 39.9678C64.4952 40.4017 61.2662 40.3365 58.0415 39.7803L57.5142 39.6924L56.9927 39.6045C53.9499 39.0796 50.9064 39.2061 47.8579 39.9971L47.3306 40.1377L46.8091 40.2725C43.5618 41.1152 40.3067 41.2812 37.0532 40.7646L36.5259 40.6768L36.0044 40.5947C32.9224 40.1052 29.8391 40.0382 26.7583 40.3955L26.231 40.46L25.7036 40.5186C22.5365 40.8861 19.3062 41.1443 16.0122 41.2861L15.4614 41.3096L14.9165 41.333C11.4189 41.4835 8.39613 40.2571 5.89307 37.6943L5.10791 36.8857C2.61018 34.3279 1.46001 31.3433 1.72119 27.9678L1.76221 27.4404L1.80322 26.9189C2.03927 23.871 1.70018 20.764 0.783691 17.5967L0.625488 17.0576L0.473145 16.5127C-0.532567 13.0347 0.0739446 9.75546 2.26025 6.73926L2.60596 6.26465L2.9458 5.7959C5.04147 2.90498 7.34534 1.40124 9.80127 2.11621L10.1235 2.20996L10.4517 2.30371C11.4117 2.58321 12.0721 2.70869 12.4673 2.72559C12.5771 2.26528 13.0015 2.04907 13.2349 1.96387C13.5406 1.85271 13.928 1.80132 14.3423 1.78223C15.1917 1.74326 16.4221 1.81959 18.0044 1.99902L18.5259 2.05762L19.0532 2.12207C22.0948 2.46697 25.1398 2.16293 28.1938 1.20801L28.7212 1.04395L29.2427 0.879883ZM38.7466 1.95215C35.7309 1.24576 32.7176 1.3642 29.6938 2.30957L29.1665 2.47363L28.645 2.6377C25.3996 3.65264 22.1413 3.97982 18.8833 3.61035L18.3618 3.55176L17.8345 3.49316C16.2679 3.31551 15.1322 3.24879 14.4067 3.28223C14.1819 3.29269 14.0216 3.32603 13.9087 3.34668C13.8837 3.46855 13.8506 3.59459 13.7739 3.70996C13.6525 3.8918 13.4843 4.01093 13.3286 4.08496C13.0425 4.22016 12.7144 4.24132 12.4321 4.23145C11.8424 4.21045 11.0284 4.03412 10.0356 3.74512L9.37939 3.55762C7.90273 3.12773 6.17731 3.89018 4.15869 6.6748L3.81885 7.14355L3.47314 7.61816C1.5463 10.2763 1.04235 13.0812 1.91455 16.0967L2.06689 16.6416L2.2251 17.1807C3.18798 20.5083 3.54828 23.7962 3.29736 27.0361L3.25635 27.5576L3.21533 28.085C2.99052 30.9959 3.96028 33.5695 6.18018 35.8428L6.57275 36.2412L6.96533 36.6455C9.18054 38.914 11.794 39.9646 14.8521 39.833L15.397 39.8096L15.9478 39.7861C19.2075 39.6457 22.4032 39.3936 25.5337 39.0303L26.0552 38.9717L26.5825 38.9072C29.8008 38.5337 33.0216 38.6013 36.2388 39.1123L36.7603 39.2002L37.2876 39.2822C40.3326 39.7658 43.377 39.6108 46.4282 38.8193L47.4829 38.5498C50.7329 37.7066 53.9889 37.5608 57.2446 38.1221L57.772 38.2158L58.2993 38.3037C61.3739 38.8339 64.4487 38.8928 67.522 38.4795L68.0435 38.4092L68.5708 38.3389C71.7577 37.9103 74.9454 37.7253 78.1333 37.7881L78.6606 37.7998L79.1821 37.8115C82.29 37.8728 85.4011 37.6743 88.5103 37.2139L89.0317 37.1318L89.5591 37.0557C92.7477 36.5834 95.9376 36.37 99.1274 36.4111L99.6548 36.417L100.176 36.4229C103.327 36.4636 106.482 36.5093 109.633 36.5635L110.155 36.5752L110.682 36.5869C113.891 36.6421 117.099 37.0717 120.303 37.8818L120.831 38.0166L121.352 38.1455C124.372 38.9091 127.355 38.8563 130.311 37.9814L131.342 37.6768C134.222 36.8243 136.228 35.0662 137.418 32.374L137.635 31.8877L137.846 31.4072C139.102 28.5669 139.988 25.6026 140.506 22.5127L140.594 21.9854L140.682 21.4639C141.18 18.4915 140.643 15.7282 139.065 13.1436L138.79 12.6865L138.508 12.2295C136.872 9.55018 134.897 7.12405 132.584 4.95215L131.799 4.21387C129.63 2.17664 127.132 1.55275 124.206 2.33301L123.678 2.47363L123.145 2.61426C119.925 3.47291 116.714 3.99563 113.512 4.17871L112.985 4.20801L112.463 4.2373C109.288 4.41879 106.111 4.44493 102.936 4.30762L102.409 4.28418L101.887 4.26074C98.7566 4.12535 95.6252 4.11139 92.4946 4.21973L91.9673 4.2373L91.4458 4.25488C88.2605 4.36511 85.074 4.25453 81.8892 3.91504L81.3618 3.85645L80.8403 3.79785C77.7529 3.46874 74.6649 3.52771 71.5767 3.96777L71.0493 4.04395L70.522 4.11426C67.264 4.57834 64.0083 4.33337 60.7603 3.38184L59.7056 3.07715C56.6583 2.18443 53.6201 1.96794 50.5825 2.43262L50.0552 2.51465L49.5337 2.59668C46.2875 3.09337 43.0372 2.9579 39.7954 2.19824L39.2739 2.0752L38.7466 1.95215Z"
        fill="black" />
    <path
        d="M29.4942 29.112C29.3915 28.9506 29.2155 28.848 28.9662 28.804C28.7169 28.76 28.3355 28.7526 27.8222 28.782C27.6169 28.8113 27.4042 28.7966 27.1842 28.738C26.9642 28.6793 26.7882 28.5913 26.6562 28.474C26.5242 28.3566 26.4729 28.2393 26.5022 28.122C26.5169 27.946 26.7222 27.7553 27.1182 27.55C27.5142 27.3446 28.0275 27.2346 28.6582 27.22L29.5822 27.198L29.8022 26.758C29.8609 26.5966 29.9049 26.4206 29.9342 26.23C29.9782 26.0393 30.0515 25.7753 30.1542 25.438C30.2129 25.2326 30.3009 24.9466 30.4182 24.58C30.5355 24.2133 30.6602 23.8246 30.7922 23.414C30.9242 22.9886 31.0415 22.6073 31.1442 22.27C31.2469 21.9326 31.3129 21.698 31.3422 21.566C31.4009 21.434 31.4815 21.214 31.5842 20.906C31.6869 20.5833 31.7822 20.2606 31.8702 19.938C31.9729 19.6006 32.0389 19.3586 32.0682 19.212C32.4495 18.0533 32.6989 17.2466 32.8162 16.792C32.9335 16.3226 32.9629 16.0806 32.9042 16.066C32.8455 16.066 32.7062 16.0733 32.4862 16.088C32.2662 16.1026 32.0242 16.1246 31.7602 16.154C31.4962 16.1686 31.2615 16.1906 31.0562 16.22C30.8509 16.2493 30.7262 16.2786 30.6822 16.308C30.6089 16.4106 30.4842 16.396 30.3082 16.264C30.1322 16.1173 30.0222 15.9706 29.9782 15.824C29.9635 15.692 29.9635 15.5673 29.9782 15.45C29.9929 15.3326 30.0369 15.252 30.1102 15.208C30.2129 15.12 30.4255 15.0246 30.7482 14.922C31.0709 14.8046 31.4302 14.702 31.8262 14.614C32.2369 14.526 32.6109 14.46 32.9482 14.416C33.1975 14.3866 33.4469 14.3353 33.6962 14.262C33.9455 14.174 34.1435 14.0713 34.2902 13.954C34.4222 13.91 34.5469 13.8733 34.6642 13.844C34.7962 13.8146 34.9282 13.8073 35.0602 13.822C35.1775 13.8953 35.3755 13.932 35.6542 13.932C35.9475 13.932 36.2555 13.9246 36.5782 13.91C37.3995 13.8366 37.9715 13.866 38.2942 13.998C38.6315 14.1153 38.8515 14.2766 38.9542 14.482C39.0275 14.7606 39.0129 14.9953 38.9102 15.186C38.8075 15.362 38.6315 15.4426 38.3822 15.428C38.2502 15.4573 38.0669 15.4866 37.8322 15.516C37.5975 15.5306 37.2895 15.5453 36.9082 15.56C35.9402 15.648 35.4195 15.7506 35.3462 15.868C35.2875 15.9266 35.2362 15.9853 35.1922 16.044C35.1629 16.1026 35.1189 16.1686 35.0602 16.242C35.0749 16.3006 35.0382 16.4766 34.9502 16.77C34.8769 17.0486 34.7815 17.3493 34.6642 17.672C34.6055 17.8626 34.5175 18.134 34.4002 18.486C34.2829 18.838 34.1582 19.2046 34.0262 19.586C33.9089 19.9526 33.7989 20.29 33.6962 20.598C33.5935 20.8913 33.5202 21.0893 33.4762 21.192C33.4175 21.324 33.3662 21.4706 33.3222 21.632C33.2929 21.7786 33.2709 21.8886 33.2562 21.962C33.0509 22.6806 32.8749 23.282 32.7282 23.766C32.5962 24.25 32.4789 24.6753 32.3762 25.042C32.2735 25.394 32.1782 25.7386 32.0902 26.076C32.0022 26.3986 31.8995 26.7653 31.7822 27.176C31.7822 27.176 31.9069 27.1686 32.1562 27.154C32.4055 27.1246 32.7209 27.0953 33.1022 27.066C33.7915 26.9926 34.2609 26.9486 34.5102 26.934C34.7595 26.9193 34.9062 26.9413 34.9502 27C34.9942 27.044 35.0382 27.132 35.0822 27.264C35.3755 27.66 35.3535 27.99 35.0162 28.254C34.6935 28.518 34.1215 28.6426 33.3002 28.628C32.5375 28.6573 31.9729 28.6793 31.6062 28.694C31.2542 28.7233 31.0269 28.76 30.9242 28.804C30.8215 28.848 30.7702 28.9213 30.7702 29.024C30.7849 29.2586 30.6382 29.398 30.3302 29.442C30.0369 29.5006 29.7582 29.3906 29.4942 29.112ZM44.0453 27.682C43.7227 27.6526 43.4513 27.5866 43.2313 27.484C43.026 27.3666 42.8573 27.1393 42.7253 26.802C42.6666 26.5673 42.6373 26.3253 42.6373 26.076C42.652 25.812 42.674 25.5626 42.7033 25.328C42.7327 25.0786 42.7473 24.866 42.7473 24.69C42.7473 24.6606 42.7473 24.602 42.7473 24.514C42.7473 24.426 42.7473 24.3453 42.7473 24.272C42.718 24.052 42.6593 23.92 42.5713 23.876C42.498 23.8173 42.366 23.8246 42.1753 23.898C41.8673 24.0446 41.53 24.2426 41.1633 24.492C40.8113 24.7266 40.4373 25.0053 40.0413 25.328C39.66 25.636 39.264 25.966 38.8533 26.318C38.5306 26.67 38.2886 26.956 38.1273 27.176C37.9806 27.396 37.8266 27.506 37.6653 27.506C37.548 27.5646 37.4233 27.55 37.2913 27.462C37.1593 27.374 37.02 27.2713 36.8733 27.154C36.7706 27.0366 36.646 26.89 36.4993 26.714C36.3673 26.5233 36.2866 26.3986 36.2573 26.34C36.2573 26.1053 36.272 25.8926 36.3013 25.702C36.3453 25.5113 36.404 25.3133 36.4773 25.108C36.5653 24.9026 36.668 24.668 36.7853 24.404C36.844 24.3013 36.8953 24.1986 36.9393 24.096C36.998 23.9786 37.064 23.854 37.1373 23.722C37.196 23.5166 37.2766 23.282 37.3793 23.018C37.4966 22.754 37.6066 22.5046 37.7093 22.27C37.8706 21.8886 37.9953 21.5586 38.0833 21.28C38.1713 21.0013 38.2446 20.7006 38.3033 20.378C38.2886 20.3486 38.296 20.3046 38.3253 20.246C38.3546 20.1873 38.3986 20.1506 38.4573 20.136H38.4793H38.5013C38.604 20.0626 38.7946 20.0553 39.0733 20.114C39.3667 20.158 39.5867 20.2386 39.7333 20.356C40.0413 20.62 40.188 20.9646 40.1733 21.39C40.1586 21.8153 39.9386 22.3726 39.5133 23.062C39.4106 23.2966 39.3006 23.5166 39.1833 23.722C39.0806 23.9126 39.0293 24.0446 39.0293 24.118C39.0293 24.118 39.088 24.074 39.2053 23.986C39.3226 23.898 39.462 23.7953 39.6233 23.678C39.7847 23.546 39.924 23.4433 40.0413 23.37C40.1146 23.2966 40.276 23.1646 40.5253 22.974C40.7747 22.7686 41.046 22.556 41.3393 22.336C41.6326 22.116 41.8673 21.9473 42.0433 21.83C42.2047 21.7126 42.41 21.5953 42.6593 21.478C42.9087 21.346 43.0627 21.28 43.1213 21.28C43.268 21.28 43.444 21.3313 43.6493 21.434C43.8693 21.5366 44.0673 21.6613 44.2433 21.808C44.434 21.94 44.544 22.0646 44.5733 22.182C44.5733 22.2406 44.566 22.3213 44.5513 22.424C44.5367 22.512 44.5293 22.5926 44.5293 22.666C44.5147 22.9006 44.5073 23.1866 44.5073 23.524C44.522 23.8466 44.5293 24.1766 44.5293 24.514C44.5293 24.8366 44.5 25.13 44.4413 25.394C44.4413 25.394 44.4487 25.4086 44.4633 25.438C44.478 25.4526 44.4927 25.482 44.5073 25.526C44.4927 25.5406 44.4853 25.57 44.4853 25.614C44.5 25.6433 44.5073 25.658 44.5073 25.658C44.5367 25.7606 44.566 25.8633 44.5953 25.966C44.6393 26.0686 44.6907 26.186 44.7493 26.318C44.808 26.4353 44.874 26.5893 44.9473 26.78C44.9327 26.9706 44.8226 27.1613 44.6173 27.352C44.4267 27.528 44.236 27.638 44.0453 27.682ZM48.533 28.034C48.2103 28.034 47.9683 28.0193 47.807 27.99C47.6603 27.9606 47.5503 27.9166 47.477 27.858C47.4036 27.7993 47.3083 27.7186 47.191 27.616C47.1323 27.4986 47.0296 27.352 46.883 27.176C46.7363 26.9853 46.6336 26.8606 46.575 26.802C46.5163 26.582 46.4943 26.2813 46.509 25.9C46.5383 25.5186 46.6043 25.108 46.707 24.668C46.8096 24.228 46.9343 23.832 47.081 23.48C47.1396 23.3626 47.191 23.2453 47.235 23.128C47.279 23.0106 47.301 22.952 47.301 22.952C47.301 22.8786 47.389 22.7026 47.565 22.424C47.7556 22.1453 47.961 21.852 48.181 21.544C48.4156 21.236 48.6063 21.016 48.753 20.884C48.8556 20.7666 49.0096 20.642 49.215 20.51C49.435 20.378 49.6256 20.2826 49.787 20.224C49.9483 20.1653 50.1683 20.092 50.447 20.004C50.7256 19.9013 50.975 19.85 51.195 19.85C51.4003 19.85 51.6203 19.894 51.855 19.982C52.0896 20.07 52.2876 20.224 52.449 20.444C52.713 20.708 52.8816 21.0233 52.955 21.39C53.0283 21.7566 53.0356 22.072 52.977 22.336C52.9036 22.6293 52.757 22.8713 52.537 23.062C52.317 23.238 52.0823 23.3333 51.833 23.348C51.5836 23.348 51.3636 23.2453 51.173 23.04C51.1143 22.9226 51.085 22.8273 51.085 22.754C51.085 22.666 51.1143 22.5413 51.173 22.38C51.2316 22.1746 51.261 21.9913 51.261 21.83C51.261 21.6686 51.195 21.588 51.063 21.588C50.8723 21.588 50.7183 21.6466 50.601 21.764C50.4836 21.8666 50.3076 22.0426 50.073 22.292C49.9703 22.4093 49.8383 22.578 49.677 22.798C49.5156 23.018 49.3543 23.26 49.193 23.524C49.0463 23.7733 48.9143 24.03 48.797 24.294C48.6356 24.778 48.533 25.0933 48.489 25.24C48.4596 25.372 48.445 25.438 48.445 25.438C48.445 25.4966 48.4376 25.5553 48.423 25.614C48.4083 25.658 48.401 25.7093 48.401 25.768C48.401 25.944 48.5036 26.0833 48.709 26.186C48.8703 26.2886 49.0023 26.34 49.105 26.34C49.2223 26.3253 49.4423 26.2446 49.765 26.098C49.9996 25.9806 50.2196 25.8266 50.425 25.636C50.645 25.4453 50.8723 25.2766 51.107 25.13C51.2683 25.0273 51.393 24.9393 51.481 24.866C51.5836 24.7926 51.635 24.7853 51.635 24.844C51.635 24.9026 51.657 24.932 51.701 24.932C51.745 24.932 51.7963 24.9026 51.855 24.844C51.943 24.7266 52.053 24.6826 52.185 24.712C52.317 24.7266 52.4343 24.7633 52.537 24.822C52.6543 24.8806 52.713 24.932 52.713 24.976C52.6836 25.108 52.713 25.218 52.801 25.306C52.801 25.3646 52.779 25.4453 52.735 25.548C52.7056 25.636 52.6616 25.7093 52.603 25.768C52.5296 25.8706 52.4196 26.0173 52.273 26.208C52.141 26.3986 52.0163 26.5673 51.899 26.714C51.7816 26.8606 51.723 26.934 51.723 26.934C51.6643 26.9193 51.6056 26.934 51.547 26.978C51.503 27.022 51.4516 27.0733 51.393 27.132C51.2756 27.2346 51.1656 27.3153 51.063 27.374C50.9603 27.418 50.8796 27.44 50.821 27.44C50.7183 27.4986 50.6376 27.5353 50.579 27.55C50.535 27.5646 50.513 27.6013 50.513 27.66C50.3663 27.8066 50.1023 27.9093 49.721 27.968C49.3396 28.012 48.9436 28.034 48.533 28.034ZM56.0207 28.056C55.83 28.056 55.676 28.0193 55.5587 27.946C55.456 27.8726 55.324 27.77 55.1627 27.638C54.884 27.3446 54.6567 27.0293 54.4807 26.692C54.3194 26.3546 54.2607 26.0613 54.3047 25.812C54.3487 25.6946 54.3634 25.5846 54.3487 25.482C54.3487 25.3646 54.3487 25.306 54.3487 25.306C54.2754 25.2326 54.2534 25.1886 54.2827 25.174C54.312 25.1446 54.3414 25.1006 54.3707 25.042C54.4587 25.042 54.488 24.9613 54.4587 24.8C54.4294 24.6826 54.4734 24.4333 54.5907 24.052C54.7227 23.656 54.8987 23.282 55.1187 22.93C55.2067 22.7833 55.3387 22.5926 55.5147 22.358C55.6907 22.1086 55.8814 21.8666 56.0867 21.632C56.3067 21.3826 56.5047 21.1846 56.6807 21.038C57.0474 20.73 57.3847 20.4806 57.6927 20.29C58.0154 20.0993 58.338 19.9673 58.6607 19.894C58.9834 19.8206 59.3134 19.784 59.6507 19.784C60.0027 19.784 60.2887 19.9013 60.5087 20.136C60.846 20.2826 61.0807 20.4806 61.2127 20.73C61.3594 20.9793 61.4547 21.302 61.4987 21.698C61.5427 22.138 61.4987 22.6806 61.3667 23.326C61.2347 23.9566 60.8754 24.69 60.2887 25.526C59.922 26.054 59.5627 26.4646 59.2107 26.758C58.8587 27.0513 58.47 27.3226 58.0447 27.572C57.7367 27.7773 57.4067 27.902 57.0547 27.946C56.7027 27.99 56.358 28.0266 56.0207 28.056ZM58.2647 25.372C58.5874 25.0933 58.8147 24.7853 58.9467 24.448C59.0934 24.1106 59.2474 23.7146 59.4087 23.26C59.4674 23.172 59.504 23.0253 59.5187 22.82C59.548 22.6146 59.5554 22.4166 59.5407 22.226C59.526 22.0206 59.4747 21.9033 59.3867 21.874C59.2547 21.7713 59.1227 21.7493 58.9907 21.808C58.8587 21.852 58.69 21.9473 58.4847 22.094C58.0447 22.4606 57.634 22.886 57.2527 23.37C56.886 23.8393 56.6294 24.4186 56.4827 25.108C56.4387 25.4746 56.4754 25.7533 56.5927 25.944C56.7247 26.12 56.93 26.1713 57.2087 26.098C57.502 26.01 57.854 25.768 58.2647 25.372ZM63.6394 27.484C63.3607 27.3666 63.1334 27.1906 62.9574 26.956C62.7961 26.7066 62.7154 26.406 62.7154 26.054C62.7154 25.9073 62.7447 25.658 62.8034 25.306C62.8621 24.954 62.9427 24.558 63.0454 24.118C63.1481 23.678 63.2507 23.2673 63.3534 22.886C63.5001 22.622 63.5954 22.358 63.6394 22.094C63.6981 21.83 63.7274 21.6686 63.7274 21.61C63.7567 21.434 63.8081 21.1993 63.8814 20.906C63.9547 20.6126 64.0281 20.3486 64.1014 20.114C64.1894 19.8646 64.2481 19.7253 64.2774 19.696C64.3507 19.6226 64.4754 19.5786 64.6514 19.564C64.8274 19.5493 65.0034 19.5713 65.1794 19.63C65.3554 19.674 65.4727 19.7693 65.5314 19.916C65.6927 20.092 65.7807 20.356 65.7954 20.708C65.8247 21.06 65.7587 21.4706 65.5974 21.94C65.4654 22.2333 65.3334 22.578 65.2014 22.974C65.0694 23.37 64.9521 23.7366 64.8494 24.074C64.7614 24.3966 64.7101 24.6166 64.6954 24.734L63.9034 24.712C64.1527 24.4773 64.3874 24.2353 64.6074 23.986C64.8274 23.722 64.9887 23.5166 65.0914 23.37C65.3407 23.0326 65.5534 22.754 65.7294 22.534C65.9201 22.2993 66.1621 22.0206 66.4554 21.698C66.7487 21.3606 67.0641 21.126 67.4014 20.994C67.7387 20.8473 67.9881 20.774 68.1494 20.774C68.4721 20.8326 68.7581 21.0013 69.0074 21.28C69.2714 21.544 69.4327 21.94 69.4914 22.468C69.4914 22.6733 69.4694 22.9153 69.4254 23.194C69.3961 23.4726 69.3814 23.612 69.3814 23.612C69.3814 23.612 69.4987 23.4653 69.7334 23.172C69.9827 22.8786 70.3127 22.5486 70.7234 22.182C71.0021 21.9766 71.2734 21.8593 71.5374 21.83C71.8014 21.786 72.0361 21.874 72.2414 22.094C72.6227 22.2993 72.9014 22.6586 73.0774 23.172C73.2534 23.6853 73.3121 24.2646 73.2534 24.91C73.2094 25.2913 73.2094 25.5993 73.2534 25.834C73.3121 26.054 73.3707 26.252 73.4294 26.428C73.6201 26.692 73.6494 26.9266 73.5174 27.132C73.3854 27.3226 73.2681 27.418 73.1654 27.418C73.0187 27.418 72.7987 27.3886 72.5054 27.33C72.2121 27.2713 71.9407 27.1686 71.6914 27.022C71.4567 26.8753 71.3394 26.6773 71.3394 26.428V25.064C71.3394 24.7413 71.3247 24.5066 71.2954 24.36C71.2807 24.1986 71.2441 24.096 71.1854 24.052C71.0241 23.964 70.8261 24.03 70.5914 24.25C70.3567 24.47 70.1001 24.7853 69.8214 25.196C69.5574 25.592 69.2714 26.0393 68.9634 26.538C68.6847 26.9926 68.4574 27.2713 68.2814 27.374C68.1054 27.462 67.9367 27.4546 67.7754 27.352C67.4527 27.2493 67.2474 27.11 67.1594 26.934C67.0861 26.7433 67.0787 26.5306 67.1374 26.296C67.2107 26.0466 67.2987 25.724 67.4014 25.328C67.5187 24.932 67.6287 24.5506 67.7314 24.184C67.8341 23.8026 67.9001 23.524 67.9294 23.348C67.8707 23.2306 67.7681 23.194 67.6214 23.238C67.4894 23.2673 67.3501 23.3333 67.2034 23.436C67.0274 23.5533 66.8367 23.678 66.6314 23.81C66.4407 23.942 66.2134 24.2206 65.9494 24.646C65.7734 24.9246 65.5754 25.2326 65.3554 25.57C65.1354 25.8926 64.9301 26.186 64.7394 26.45C64.5634 26.714 64.4167 26.8973 64.2994 27C64.1967 27.264 64.1014 27.4326 64.0134 27.506C63.9254 27.5646 63.8007 27.5573 63.6394 27.484ZM74.1628 33.336C74.1041 33.336 74.0161 33.336 73.8988 33.336C73.7961 33.3506 73.7081 33.292 73.6348 33.16C73.5761 33.0866 73.4881 32.94 73.3708 32.72C73.2535 32.5146 73.2315 32.2213 73.3048 31.84C73.3781 31.5906 73.4368 31.3413 73.4808 31.092C73.5248 30.8573 73.5468 30.6813 73.5468 30.564C73.5468 30.5053 73.5615 30.388 73.5908 30.212C73.6348 30.0506 73.6568 29.9333 73.6568 29.86C73.7301 29.7426 73.7888 29.5813 73.8328 29.376C73.8768 29.1706 73.8988 28.9873 73.8988 28.826C73.8988 28.65 73.9868 28.4886 74.1628 28.342C74.1628 28.2246 74.1848 28.078 74.2288 27.902C74.2875 27.726 74.3168 27.6086 74.3168 27.55C74.3608 27.3446 74.4561 26.9853 74.6028 26.472C74.7641 25.944 74.9548 25.35 75.1748 24.69C75.4095 24.03 75.6368 23.3846 75.8568 22.754C76.0768 22.1233 76.2748 21.588 76.4508 21.148C76.6268 20.7373 76.7735 20.356 76.8908 20.004C77.0081 19.652 77.0668 19.4026 77.0668 19.256C77.0668 19.1973 77.0815 19.1533 77.1108 19.124C77.1401 19.08 77.2061 18.9993 77.3088 18.882C77.4555 18.7353 77.6461 18.684 77.8808 18.728C78.1301 18.7573 78.3355 18.8306 78.4968 18.948C78.6141 19.1386 78.6948 19.3146 78.7388 19.476C78.7975 19.6226 78.7975 19.8573 78.7388 20.18C78.7388 20.4 78.6875 20.6053 78.5848 20.796C78.4821 20.972 78.3868 21.1186 78.2988 21.236C78.2255 21.3386 78.2035 21.3826 78.2328 21.368C78.8781 20.972 79.4575 20.7593 79.9708 20.73C80.4988 20.686 80.9388 20.774 81.2908 20.994C81.6575 21.1993 81.9361 21.4853 82.1268 21.852C82.3175 22.2186 82.4128 22.6146 82.4128 23.04C82.4128 23.216 82.3541 23.4506 82.2368 23.744C82.1195 24.0373 81.9875 24.316 81.8408 24.58C81.6941 24.8293 81.5768 24.998 81.4888 25.086C81.4301 25.086 81.3715 25.1373 81.3128 25.24C81.2541 25.328 81.1955 25.4306 81.1368 25.548C81.0195 25.6946 80.8215 25.8633 80.5428 26.054C80.2788 26.23 80.0075 26.3766 79.7288 26.494C79.4501 26.5966 79.2521 26.626 79.1348 26.582C79.1348 26.582 79.1128 26.5966 79.0688 26.626C79.0395 26.6553 79.0248 26.7066 79.0248 26.78C79.0248 26.8093 78.9221 26.868 78.7168 26.956C78.5115 27.044 78.2695 27.1246 77.9908 27.198C77.7121 27.2713 77.4555 27.308 77.2208 27.308C76.9128 27.308 76.6928 27.2493 76.5608 27.132C76.5315 27.1613 76.4948 27.2053 76.4508 27.264C76.4215 27.3226 76.4068 27.374 76.4068 27.418C76.4068 27.506 76.3701 27.6453 76.2968 27.836C76.2381 28.0266 76.1648 28.1953 76.0768 28.342C75.9888 28.5033 75.9081 28.584 75.8348 28.584C75.8348 28.584 75.8201 28.606 75.7908 28.65C75.7615 28.694 75.7761 28.7526 75.8348 28.826C75.8348 28.826 75.8275 28.9066 75.8128 29.068C75.8128 29.244 75.7761 29.3906 75.7028 29.508C75.7028 29.6253 75.6808 29.8013 75.6368 30.036C75.5928 30.2706 75.5415 30.4466 75.4828 30.564C75.4828 30.74 75.4535 30.9086 75.3948 31.07C75.3508 31.246 75.2995 31.334 75.2408 31.334C75.1821 31.3486 75.1455 31.4366 75.1308 31.598C75.1161 31.774 75.1088 31.8986 75.1088 31.972C75.0941 32.3386 74.9768 32.654 74.7568 32.918C74.5368 33.1966 74.3388 33.336 74.1628 33.336ZM76.9788 25.636C77.0961 25.636 77.3088 25.5846 77.6168 25.482C77.9248 25.3793 78.2475 25.2546 78.5848 25.108C78.9221 24.9466 79.1861 24.7853 79.3768 24.624C79.7581 24.2866 80.0515 23.9566 80.2568 23.634C80.4768 23.3113 80.4621 22.952 80.2128 22.556C80.0955 22.3506 79.9048 22.27 79.6408 22.314C79.3915 22.3433 79.1128 22.4606 78.8048 22.666C78.4968 22.8713 78.1815 23.128 77.8588 23.436C77.6828 23.6266 77.5215 23.8466 77.3748 24.096C77.2281 24.3453 77.1035 24.5873 77.0008 24.822C76.9128 25.0566 76.8615 25.2546 76.8468 25.416C76.8321 25.5626 76.8761 25.636 76.9788 25.636ZM83.9073 27.682C83.7606 27.594 83.5993 27.4693 83.4233 27.308C83.2473 27.132 83.1593 26.9633 83.1593 26.802C83.1593 26.582 83.1886 26.3106 83.2473 25.988C83.3059 25.6506 83.3646 25.3646 83.4233 25.13C83.4526 24.866 83.4893 24.602 83.5333 24.338C83.5919 24.0593 83.6946 23.8026 83.8413 23.568C84.0026 23.0106 84.1713 22.4606 84.3473 21.918C84.5233 21.3606 84.6773 20.7886 84.8093 20.202C84.9999 19.6593 85.1686 19.1826 85.3153 18.772C85.4766 18.3466 85.6746 17.8113 85.9093 17.166C86.0413 16.7993 86.1513 16.4106 86.2393 16C86.3419 15.5746 86.4959 15.1933 86.7013 14.856C86.7893 14.724 86.8553 14.614 86.8993 14.526C86.9579 14.4233 87.0166 14.328 87.0753 14.24C87.0899 14.1813 87.1633 14.13 87.2953 14.086C87.4419 14.042 87.5886 14.02 87.7353 14.02C87.8966 14.0053 88.0066 14.0346 88.0653 14.108C88.1093 14.0933 88.1826 14.152 88.2853 14.284C88.3879 14.4013 88.4833 14.5406 88.5713 14.702C88.6739 14.8486 88.7179 14.966 88.7033 15.054C88.7033 15.1126 88.6886 15.1933 88.6593 15.296C88.6446 15.3986 88.6079 15.494 88.5493 15.582C88.4906 15.6406 88.4319 15.7286 88.3733 15.846C88.3293 15.9486 88.2559 16.0953 88.1533 16.286C88.0946 16.4766 88.0433 16.6746 87.9993 16.88C87.9553 17.0706 87.8966 17.2466 87.8233 17.408C87.7646 17.584 87.6913 17.7526 87.6033 17.914C87.5299 18.0753 87.4786 18.2073 87.4493 18.31C87.3466 18.6473 87.2219 18.9773 87.0753 19.3C86.9433 19.6226 86.8259 19.9673 86.7233 20.334C86.6206 20.686 86.5179 21.0526 86.4153 21.434C86.3126 21.8006 86.1659 22.1526 85.9753 22.49C85.8726 22.6513 85.7993 22.8566 85.7553 23.106C85.7113 23.3553 85.6673 23.6046 85.6233 23.854C85.5353 24.118 85.4546 24.3673 85.3813 24.602C85.3226 24.822 85.2933 24.9613 85.2933 25.02C85.2053 25.3426 85.1393 25.6653 85.0953 25.988C85.0659 26.296 84.9926 26.5673 84.8753 26.802C84.8606 26.9486 84.8093 27.11 84.7213 27.286C84.6333 27.462 84.5159 27.594 84.3693 27.682C84.2373 27.77 84.0833 27.77 83.9073 27.682ZM89.4674 28.606C88.6607 28.606 88.0374 28.3713 87.5974 27.902C87.1721 27.4326 86.9594 26.714 86.9594 25.746C86.9594 25.218 87.0547 24.6386 87.2454 24.008C87.4507 23.3773 87.7147 22.7613 88.0374 22.16C88.3747 21.5586 88.7414 21.038 89.1374 20.598C89.5334 20.1433 89.9294 19.828 90.3254 19.652C90.4721 19.5786 90.6261 19.5273 90.7874 19.498C90.9634 19.454 91.1321 19.432 91.2934 19.432C91.4694 19.432 91.6601 19.4466 91.8654 19.476C92.0854 19.4906 92.2907 19.5346 92.4814 19.608C92.8187 19.7106 93.1121 19.9086 93.3614 20.202C93.6254 20.4953 93.7574 20.9206 93.7574 21.478C93.7574 21.6246 93.7427 21.786 93.7134 21.962C93.6841 22.1233 93.6327 22.2846 93.5594 22.446C93.3687 22.93 93.0754 23.392 92.6794 23.832C92.2981 24.272 91.8947 24.58 91.4694 24.756C91.3521 24.8146 91.2347 24.8586 91.1174 24.888C91.0147 24.9026 90.9047 24.91 90.7874 24.91C90.4794 24.91 90.2007 24.866 89.9514 24.778C89.7167 24.69 89.4967 24.5726 89.2914 24.426L89.1154 24.272L89.0054 24.492C88.9027 24.7706 88.8294 25.0053 88.7854 25.196C88.7561 25.3866 88.7414 25.526 88.7414 25.614C88.7414 25.79 88.7487 25.9733 88.7634 26.164C88.7781 26.34 88.8221 26.4866 88.8954 26.604C88.9541 26.6773 89.0274 26.736 89.1154 26.78C89.2181 26.824 89.3427 26.846 89.4894 26.846C89.5774 26.846 89.6581 26.846 89.7314 26.846C89.8194 26.8313 89.8927 26.8166 89.9514 26.802C90.2154 26.7433 90.4281 26.648 90.5894 26.516C90.7654 26.3693 90.9487 26.2446 91.1394 26.142L91.2274 26.098L91.2054 26.032C91.4547 25.9 91.6234 25.8193 91.7114 25.79C91.7994 25.746 91.8654 25.7093 91.9094 25.68C91.9681 25.6213 92.0341 25.592 92.1074 25.592C92.3127 25.5626 92.5107 25.6213 92.7014 25.768C92.9067 25.9 93.0094 26.0686 93.0094 26.274C93.0094 26.362 92.9434 26.5013 92.8114 26.692C92.6941 26.8826 92.5401 27.0733 92.3494 27.264C92.1734 27.44 91.9901 27.5793 91.7994 27.682C91.7554 27.6966 91.7114 27.7186 91.6674 27.748C91.6234 27.7626 91.5794 27.7846 91.5354 27.814H91.5574C91.4254 27.99 91.2934 28.078 91.1614 28.078H90.9854C90.9267 28.1806 90.7361 28.2906 90.4134 28.408C90.0907 28.54 89.7754 28.606 89.4674 28.606ZM90.6114 23.304C90.7434 23.304 90.8607 23.282 90.9634 23.238C91.0807 23.194 91.1907 23.1426 91.2934 23.084C91.6454 22.8346 91.8727 22.512 91.9754 22.116C92.0781 21.72 92.0414 21.4193 91.8654 21.214C91.8361 21.17 91.7994 21.1406 91.7554 21.126C91.7114 21.0966 91.6601 21.082 91.6014 21.082C91.4401 21.082 91.2567 21.1333 91.0514 21.236C90.8607 21.3386 90.6701 21.4853 90.4794 21.676C90.2887 21.8666 90.1127 22.094 89.9514 22.358L89.6654 22.82C89.6947 22.8053 89.7167 22.798 89.7314 22.798C89.7607 22.7833 89.7827 22.776 89.7974 22.776C89.9294 22.776 90.0174 22.82 90.0614 22.908C90.1054 22.996 90.1567 23.084 90.2154 23.172C90.2887 23.26 90.4207 23.304 90.6114 23.304ZM96.6391 29.53C95.9204 29.5153 95.4584 29.31 95.2531 28.914C95.0624 28.5326 95.0111 28.0486 95.0991 27.462C95.1871 27.1833 95.2384 26.934 95.2531 26.714C95.2824 26.4793 95.3484 26.3326 95.4511 26.274C95.4511 26.274 95.4584 26.252 95.4731 26.208C95.5024 26.164 95.4951 26.12 95.4511 26.076C95.4511 25.8853 95.5171 25.6213 95.6491 25.284C95.6784 25.196 95.7151 25.0933 95.7591 24.976C95.8177 24.844 95.8471 24.778 95.8471 24.778C95.7737 24.6606 95.7737 24.5653 95.8471 24.492C95.9204 24.4186 95.9937 24.3526 96.0671 24.294C96.1551 24.2206 96.1624 24.14 96.0891 24.052C96.0597 23.9933 96.0964 23.8613 96.1991 23.656C96.3017 23.436 96.4191 23.2086 96.5511 22.974C96.6831 22.7393 96.7711 22.556 96.8151 22.424C96.8151 22.3946 96.8517 22.292 96.9251 22.116C96.9984 21.94 97.0864 21.7346 97.1891 21.5C97.2917 21.2653 97.3871 21.0526 97.4751 20.862C97.5777 20.6713 97.6437 20.5466 97.6731 20.488C97.8197 20.4146 97.7611 20.3633 97.4971 20.334C97.2331 20.3046 96.9544 20.2973 96.6611 20.312C96.2064 20.2973 95.8397 20.2753 95.5611 20.246C95.2971 20.2166 95.0771 20.1506 94.9011 20.048C94.7251 19.8426 94.7031 19.6006 94.8351 19.322C94.9671 19.0286 95.1797 18.8746 95.4731 18.86C95.6637 18.8453 95.8104 18.838 95.9131 18.838C96.0304 18.838 96.1771 18.8306 96.3531 18.816C96.5437 18.7866 96.8371 18.75 97.2331 18.706L98.3551 18.618L98.4211 18.244C98.5384 18.0533 98.6191 17.9286 98.6631 17.87C98.7071 17.8113 98.7364 17.7526 98.7511 17.694C98.7657 17.6206 98.7877 17.496 98.8171 17.32C98.8171 17.32 98.8831 17.2026 99.0151 16.968C99.1471 16.7186 99.2277 16.462 99.2571 16.198C99.4331 15.9046 99.5871 15.6406 99.7191 15.406C99.8511 15.1566 99.9317 15.0026 99.9611 14.944C100.21 14.5773 100.452 14.3793 100.687 14.35C100.936 14.3206 101.171 14.3793 101.391 14.526C101.523 14.5993 101.648 14.6946 101.765 14.812C101.882 14.9146 101.956 15.054 101.985 15.23C102.014 15.3913 101.948 15.604 101.787 15.868C101.758 15.9266 101.714 16.0366 101.655 16.198C101.596 16.3446 101.552 16.4693 101.523 16.572C101.435 16.6746 101.325 16.8433 101.193 17.078C101.076 17.298 100.995 17.5253 100.951 17.76C100.834 18.0093 100.76 18.1633 100.731 18.222C100.702 18.2806 100.658 18.31 100.599 18.31C100.628 18.4566 100.716 18.53 100.863 18.53C101.01 18.5153 101.252 18.5006 101.589 18.486C101.868 18.4566 102.058 18.4273 102.161 18.398C102.278 18.354 102.41 18.3686 102.557 18.442C102.63 18.5446 102.667 18.6986 102.667 18.904C102.682 19.0946 102.66 19.2853 102.601 19.476C102.542 19.652 102.462 19.762 102.359 19.806C102.286 19.806 102.132 19.85 101.897 19.938C101.677 20.0113 101.398 20.0553 101.061 20.07L99.8951 20.18L99.5211 20.928C99.4184 21.1186 99.3304 21.2946 99.2571 21.456C99.1837 21.6026 99.1324 21.6906 99.1031 21.72C99.1031 21.808 99.0517 21.94 98.9491 22.116C98.8611 22.292 98.7657 22.4826 98.6631 22.688C98.5751 22.9373 98.4724 23.1646 98.3551 23.37C98.2524 23.5753 98.2011 23.678 98.2011 23.678C98.1424 23.678 98.1131 23.722 98.1131 23.81C98.1864 23.986 98.1644 24.118 98.0471 24.206C97.9737 24.25 97.9077 24.316 97.8491 24.404C97.8051 24.4773 97.7831 24.514 97.7831 24.514C97.8417 24.5726 97.8491 24.646 97.8051 24.734C97.7757 24.822 97.7317 24.9173 97.6731 25.02C97.6731 25.1373 97.6364 25.306 97.5631 25.526C97.5044 25.746 97.4384 25.9513 97.3651 26.142C97.3797 26.406 97.3944 26.5746 97.4091 26.648C97.4237 26.7213 97.4604 26.7506 97.5191 26.736C97.5924 26.7506 97.6951 26.7506 97.8271 26.736C97.9591 26.7213 98.0544 26.714 98.1131 26.714C98.3331 26.6113 98.2304 27.1246 97.8051 28.254C97.5704 28.6206 97.3357 28.9213 97.1011 29.156C96.8664 29.4053 96.7124 29.53 96.6391 29.53ZM103.35 28.012C102.778 27.7773 102.382 27.396 102.162 26.868C101.942 26.34 101.884 25.636 101.986 24.756C102.016 24.3013 102.001 24.0006 101.942 23.854C101.884 23.6926 101.774 23.5386 101.612 23.392C101.568 23.3333 101.466 23.238 101.304 23.106C101.143 22.9593 101.07 22.8493 101.084 22.776C101.07 22.6733 101.092 22.5486 101.15 22.402C101.209 22.2406 101.26 22.1526 101.304 22.138C101.407 22.094 101.51 22.0426 101.612 21.984C101.73 21.9253 101.818 21.9106 101.876 21.94C101.935 21.94 102.023 21.9766 102.14 22.05C102.272 22.1233 102.338 22.1893 102.338 22.248C102.397 22.3506 102.485 22.3066 102.602 22.116C102.734 21.9253 102.874 21.6833 103.02 21.39C103.167 21.1553 103.35 20.9353 103.57 20.73C103.79 20.5246 104.01 20.3413 104.23 20.18C104.465 20.004 104.663 19.872 104.824 19.784C104.898 19.7546 105.037 19.7106 105.242 19.652C105.462 19.5933 105.69 19.5493 105.924 19.52C106.159 19.476 106.335 19.4613 106.452 19.476C106.716 19.4906 106.995 19.6006 107.288 19.806C107.582 20.0113 107.809 20.202 107.97 20.378C108.161 20.51 108.286 20.7153 108.344 20.994C108.418 21.258 108.447 21.5366 108.432 21.83C108.418 22.1233 108.359 22.3726 108.256 22.578C108.212 22.7246 108.058 22.93 107.794 23.194C107.53 23.458 107.237 23.7146 106.914 23.964C106.606 24.1986 106.342 24.36 106.122 24.448C105.932 24.492 105.704 24.5286 105.44 24.558C105.176 24.5726 104.927 24.5726 104.692 24.558C104.472 24.5286 104.318 24.492 104.23 24.448C104.128 24.3893 104.04 24.4113 103.966 24.514C103.908 24.602 103.856 24.8513 103.812 25.262C103.798 25.4233 103.798 25.5626 103.812 25.68C103.842 25.7973 103.871 25.8853 103.9 25.944C104.003 26.12 104.106 26.252 104.208 26.34C104.311 26.4133 104.502 26.4353 104.78 26.406C105.059 26.3766 105.338 26.208 105.616 25.9C105.91 25.5773 106.174 25.3206 106.408 25.13C106.467 25.0273 106.592 24.9613 106.782 24.932C106.988 24.888 107.23 24.9026 107.508 24.976C107.67 25.0786 107.743 25.24 107.728 25.46C107.728 25.68 107.611 26.0026 107.376 26.428C107.332 26.5306 107.208 26.6846 107.002 26.89C106.812 27.0806 106.599 27.2786 106.364 27.484C106.144 27.6746 105.961 27.814 105.814 27.902C105.374 28.1366 104.942 28.2466 104.516 28.232C104.091 28.2173 103.702 28.144 103.35 28.012ZM104.978 23.062C105.198 23.0033 105.382 22.9446 105.528 22.886C105.69 22.8273 105.844 22.732 105.99 22.6C106.137 22.468 106.306 22.27 106.496 22.006C106.555 21.8446 106.584 21.7053 106.584 21.588C106.599 21.4706 106.592 21.3973 106.562 21.368C106.445 21.2506 106.313 21.214 106.166 21.258C106.034 21.2873 105.888 21.3606 105.726 21.478C105.624 21.522 105.477 21.6173 105.286 21.764C105.11 21.896 104.934 22.05 104.758 22.226C104.597 22.3873 104.465 22.5413 104.362 22.688C104.274 22.82 104.26 22.9006 104.318 22.93C104.289 22.9886 104.37 23.0253 104.56 23.04C104.766 23.0546 104.905 23.062 104.978 23.062ZM115.252 28.628C115.061 28.672 114.871 28.6206 114.68 28.474C114.504 28.342 114.379 28.1953 114.306 28.034C114.218 27.7993 114.159 27.5793 114.13 27.374C114.115 27.154 114.101 26.9046 114.086 26.626L114.064 25.878L113.162 26.692C112.663 27.1613 112.194 27.4986 111.754 27.704C111.329 27.8946 110.94 27.99 110.588 27.99C110.427 27.9606 110.229 27.858 109.994 27.682C109.774 27.4913 109.569 27.286 109.378 27.066C109.202 26.8313 109.077 26.6406 109.004 26.494C108.916 26.2886 108.887 26.0026 108.916 25.636C108.96 25.2693 109.048 24.866 109.18 24.426C109.327 23.986 109.503 23.5533 109.708 23.128C109.928 22.7026 110.177 22.336 110.456 22.028C110.94 21.2946 111.541 20.84 112.26 20.664C112.979 20.4733 113.617 20.532 114.174 20.84C114.438 20.972 114.629 21.0233 114.746 20.994C114.863 20.9646 114.937 20.8693 114.966 20.708C115.025 20.4733 115.091 20.2533 115.164 20.048C115.237 19.8426 115.34 19.5346 115.472 19.124C115.839 18.0093 116.154 17.1366 116.418 16.506C116.697 15.8753 116.946 15.3253 117.166 14.856C117.327 14.5186 117.489 14.284 117.65 14.152C117.811 14.02 117.951 13.9613 118.068 13.976C118.229 13.976 118.427 14.0346 118.662 14.152C118.911 14.2693 119.073 14.4306 119.146 14.636C119.205 14.768 119.227 14.9073 119.212 15.054C119.212 15.2006 119.168 15.3546 119.08 15.516C118.889 15.868 118.662 16.3373 118.398 16.924C118.149 17.496 117.892 18.1266 117.628 18.816C117.379 19.5053 117.144 20.1873 116.924 20.862C116.704 21.5366 116.521 22.1306 116.374 22.644C116.286 22.9666 116.213 23.3773 116.154 23.876C116.11 24.3746 116.073 24.888 116.044 25.416C116.029 25.9293 116.029 26.3913 116.044 26.802C116.059 27.198 116.081 27.4546 116.11 27.572C116.198 27.8653 116.198 28.0853 116.11 28.232C116.022 28.3786 115.897 28.474 115.736 28.518C115.575 28.5766 115.413 28.6133 115.252 28.628ZM111.622 25.966C111.827 25.8926 112.011 25.8046 112.172 25.702C112.333 25.5993 112.524 25.4673 112.744 25.306C113.184 24.9686 113.499 24.6753 113.69 24.426C113.895 24.1766 114.057 23.8686 114.174 23.502C114.247 23.282 114.247 23.0913 114.174 22.93C114.115 22.7686 114.005 22.6146 113.844 22.468C113.683 22.336 113.477 22.2846 113.228 22.314C112.979 22.3286 112.693 22.4826 112.37 22.776C112.018 23.0986 111.717 23.4726 111.468 23.898C111.219 24.3233 111.013 24.932 110.852 25.724C110.823 25.8706 110.874 25.9733 111.006 26.032C111.138 26.0906 111.343 26.0686 111.622 25.966Z"
        fill="#303133" />
</svg>