<svg width="503" height="43" viewBox="0 0 503 43" fill="none" xmlns="http://www.w3.org/2000/svg">
    <path
        d="M1.73169 14.5479C1.73169 7.92043 7.10427 2.54785 13.7317 2.54785H489.732C496.359 2.54785 501.732 7.92043 501.732 14.5479V27.5479C501.732 34.1753 496.359 39.5479 489.732 39.5479H13.7317C7.10427 39.5479 1.73169 34.1753 1.73169 27.5479V14.5479Z"
        fill="#303133" />
    <path
        d="M28.9567 2.26094L28.7328 1.54513L28.9567 2.26094ZM29.4817 2.09676L29.7055 2.81257L29.4817 2.09676ZM30.0067 1.93258L29.7828 1.21676L30.0067 1.93258ZM40.5067 1.8082L40.3356 2.53842L40.5067 1.8082ZM49.9567 2.19244L49.8433 1.45107L49.9567 2.19244ZM50.4817 2.11211L50.5951 2.85348L50.4817 2.11211ZM51.0067 2.03178L50.8933 1.29041L51.0067 2.03178ZM60.4567 2.69342L60.2458 3.41316L60.4567 2.69342ZM61.5067 3.00111L61.7176 2.28138L61.5067 3.00111ZM70.9567 3.71219L71.0625 4.45469L70.9567 3.71219ZM72.0067 3.56252L71.9009 2.82003L72.0067 3.56252ZM81.4567 3.39267L81.3772 4.13844L81.4567 3.39267ZM81.9817 3.44863L82.0612 2.70285L81.9817 3.44863ZM82.5067 3.50459L82.4272 4.25037L82.5067 3.50459ZM92.4817 3.82659L92.4557 3.07704L92.4817 3.82659ZM103.507 3.89467L103.474 4.64397L103.507 3.89467ZM112.957 3.82894L112.914 3.08016L112.957 3.82894ZM113.482 3.79893L113.524 4.54771L113.482 3.79893ZM114.007 3.76892L113.964 3.02014L114.007 3.76892ZM123.457 2.22399L123.652 2.9481L123.457 2.22399ZM123.982 2.08234L123.786 1.35824L123.982 2.08234ZM124.507 1.94069L124.702 2.6648L124.507 1.94069ZM133.957 2.12251L133.736 2.83923L133.957 2.12251ZM135.007 2.44622L135.228 1.7295L135.007 2.44622ZM144.457 2.38331L144.686 3.09729L144.457 2.38331ZM144.982 2.21447L144.752 1.50048L144.982 2.21447ZM145.507 2.04562L145.736 2.75961L145.507 2.04562ZM154.957 1.31787L154.833 2.05755L154.957 1.31787ZM155.482 1.40585L155.606 0.666161L155.482 1.40585ZM156.007 1.49383L155.883 2.23351L156.007 1.49383ZM165.457 2.10868L165.429 1.35921L165.457 2.10868ZM166.507 2.06936L166.535 2.81883L166.507 2.06936ZM175.957 1.80031L175.971 2.55017L175.957 1.80031ZM176.482 1.79008L176.467 1.04022L176.482 1.79008ZM177.007 1.77985L177.021 2.52971L177.007 1.77985ZM186.457 2.88244L186.273 3.60956L186.457 2.88244ZM186.982 3.01518L187.166 2.28807L186.982 3.01518ZM187.507 3.14793L187.323 3.87504L187.507 3.14793ZM196.957 4.42387L196.944 5.17376L196.957 4.42387ZM207.982 4.59109L207.972 5.34102L207.982 4.59109ZM217.957 3.95922L217.847 3.21731L217.957 3.95922ZM218.482 3.88147L218.592 4.62338L218.482 3.88147ZM219.007 3.80372L218.897 3.06181L219.007 3.80372ZM228.457 3.19713L228.442 3.94699L228.457 3.19713ZM238.957 2.67549L239.057 3.4188L238.957 2.67549ZM239.482 2.60488L239.382 1.86157L239.482 2.60488ZM240.007 2.53427L240.107 3.27757L240.007 2.53427ZM249.457 2.71383L249.329 3.45291L249.457 2.71383ZM249.982 2.80439L250.109 2.06531L249.982 2.80439ZM250.507 2.89496L250.379 3.63404L250.507 2.89496ZM259.957 2.48384L260.145 3.20979L259.957 2.48384ZM261.007 2.21135L260.818 1.4854L261.007 2.21135ZM270.457 1.73566L270.574 0.994941L270.457 1.73566ZM271.507 1.90243L271.389 2.64315L271.507 1.90243ZM280.957 2.10458L281.043 2.84958L280.957 2.10458ZM281.482 2.04365L281.395 1.29865L281.482 2.04365ZM282.007 1.98272L282.093 2.72772L282.007 1.98272ZM291.457 1.05382L291.517 1.8014L291.457 1.05382ZM291.982 1.01154L291.921 0.263956L291.982 1.01154ZM292.507 0.969252L292.567 1.71683L292.507 0.969252ZM301.957 1.2945L302.067 0.552734L301.957 1.2945ZM303.007 1.45135L302.896 2.19312L303.007 1.45135ZM312.457 3.10733L312.309 3.84261L312.457 3.10733ZM312.982 3.2129L313.13 2.47762L312.982 3.2129ZM313.507 3.31848L313.359 4.05376L313.507 3.31848ZM322.957 2.73244L323.189 3.44569L322.957 2.73244ZM323.482 2.56175L323.25 1.8485L323.482 2.56175ZM324.007 2.39106L324.239 3.10431L324.007 2.39106ZM333.457 0.772399L333.47 1.52228L333.457 0.772399ZM333.982 0.763237L333.969 0.0133517L333.982 0.763237ZM334.507 0.754076L334.52 1.50396L334.507 0.754076ZM343.957 2.26955L344.197 1.55908L343.957 2.26955ZM345.007 2.62465L344.766 3.33512L345.007 2.62465ZM354.457 4.2031L354.46 4.9531L354.457 4.2031ZM354.982 4.20094L354.979 3.45095L354.982 4.20094ZM355.507 4.19878L355.51 4.94877L355.507 4.19878ZM364.957 2.7783L365.17 3.49735L364.957 2.7783ZM366.007 2.46696L365.793 1.7479L366.007 2.46696ZM375.457 1.3472L375.412 2.09588L375.457 1.3472ZM375.982 1.37845L376.026 0.62978L375.982 1.37845ZM376.507 1.4097L376.462 2.15838L376.507 1.4097ZM385.957 2.45678L386.077 1.71644L385.957 2.45678ZM386.482 2.54187L386.362 3.28221L386.482 2.54187ZM387.007 2.62696L387.127 1.88662L387.007 2.62696ZM396.457 3.78409L396.519 3.03665L396.457 3.78409ZM396.982 3.82757L396.92 4.57501L396.982 3.82757ZM397.507 3.87105L397.445 4.61849L397.507 3.87105ZM406.957 3.98562L406.913 3.2369L406.957 3.98562ZM407.482 3.95487L407.526 4.70359L407.482 3.95487ZM408.007 3.92412L407.963 3.1754L408.007 3.92412ZM417.457 3.09652L417.544 3.84147L417.457 3.09652ZM417.982 3.03531L417.895 2.29036L417.982 3.03531ZM418.507 2.97411L418.594 3.71906L418.507 2.97411ZM427.957 3.25725L428.087 2.51867L427.957 3.25725ZM429.007 3.44258L428.876 4.18116L429.007 3.44258ZM448.957 2.72721L449.188 3.44071L448.957 2.72721ZM449.482 2.55716L449.251 1.84365L449.482 2.55716ZM450.007 2.3871L450.238 3.1006L450.007 2.3871ZM459.457 1.03431L459.485 0.284845L459.457 1.03431ZM460.507 1.07381L460.479 1.82328L460.507 1.07381ZM469.957 1.63855L469.895 2.38604L469.957 1.63855ZM470.482 1.68154L470.543 0.934048L470.482 1.68154ZM471.007 1.72454L470.945 2.47204L471.007 1.72454ZM480.457 2.48528L480.516 1.73762L480.457 2.48528ZM480.982 2.52681L480.923 3.27447L480.982 2.52681ZM481.507 2.56834L481.566 1.82067L481.507 2.56834ZM490.986 3.34719L491.05 2.5999L490.986 3.34719ZM492.043 3.43721L491.979 4.18451L492.043 3.43721ZM498.299 8.12968L497.592 8.37771L498.299 8.12968ZM498.633 9.08243L499.341 8.83441L498.633 9.08243ZM501.149 18.0173L500.417 18.1771L501.149 18.0173ZM501.262 18.5337L501.995 18.3738L501.262 18.5337ZM501.375 19.0501L500.642 19.2099L501.375 19.0501ZM501.657 28.5025L500.916 28.3897L501.657 28.5025ZM501.495 29.5703L500.753 29.4575L501.495 29.5703ZM496.595 36.8804L496.209 36.2375L496.595 36.8804ZM496.132 37.1587L496.518 37.8016L496.132 37.1587ZM495.669 37.4371L495.282 36.7942L495.669 37.4371ZM486.745 39.851L486.73 40.6009L486.745 39.851ZM485.688 39.8307L485.702 39.0808L485.688 39.8307ZM476.207 38.6711L476.042 39.4026L476.207 38.6711ZM475.157 38.4337L475.323 37.7021L475.157 38.4337ZM465.707 38.5933L465.519 37.8674L465.707 38.5933ZM465.182 38.7298L465.371 39.4556L465.182 38.7298ZM464.657 38.8662L464.469 38.1403L464.657 38.8662ZM455.207 39.9928L455.223 39.243L455.207 39.9928ZM454.157 39.9703L454.141 40.7201L454.157 39.9703ZM444.707 40.6801L444.834 41.4193L444.707 40.6801ZM444.182 40.7702L444.055 40.0311L444.182 40.7702ZM443.657 40.8604L443.784 41.5996L443.657 40.8604ZM434.207 40.6361L434.047 41.3687L434.207 40.6361ZM433.682 40.521L433.843 39.7884L433.682 40.521ZM433.157 40.406L433.318 39.6734L433.157 40.406ZM423.707 38.5689L423.833 37.8295L423.707 38.5689ZM423.182 38.4799L423.057 39.2193L423.182 38.4799ZM422.657 38.3908L422.532 39.1303L422.657 38.3908ZM413.207 38.8288L413.017 38.1034L413.207 38.8288ZM412.682 38.9665L412.873 39.692L412.682 38.9665ZM412.157 39.1043L411.967 38.3788L412.157 39.1043ZM402.707 40.4403L402.723 41.1902L402.707 40.4403ZM392.207 39.5676L392.053 40.3016L392.207 39.5676ZM391.682 39.4575L391.836 38.7235L391.682 39.4575ZM391.157 39.3475L391.003 40.0815L391.157 39.3475ZM381.707 38.3663L381.709 39.1162L381.707 38.3663ZM381.182 38.3673L381.181 37.6173L381.182 38.3673ZM380.657 38.3683L380.659 39.1183L380.657 38.3683ZM371.207 39.2448L371.343 39.9825L371.207 39.2448ZM370.682 39.3412L370.818 40.0789L370.682 39.3412ZM370.157 39.4375L370.022 38.6998L370.157 39.4375ZM360.707 38.988L360.506 39.7105L360.707 38.988ZM360.182 38.8417L360.384 38.1192L360.182 38.8417ZM359.657 38.6954L359.456 39.4179L359.657 38.6954ZM350.207 39.1708L349.941 38.4695L350.207 39.1708ZM349.682 39.3699L349.948 40.0711L349.682 39.3699ZM349.157 39.569L348.891 38.8677L349.157 39.569ZM339.707 39.9862L339.917 39.2661L339.707 39.9862ZM338.657 39.6808L338.448 40.4009L338.657 39.6808ZM329.207 38.6956L329.146 37.9481L329.207 38.6956ZM328.682 38.7388L328.744 39.4863L328.682 38.7388ZM328.157 38.7821L328.096 38.0346L328.157 38.7821ZM318.707 40.0787L318.849 40.8152L318.707 40.0787ZM318.182 40.1795L318.041 39.4429L318.182 40.1795ZM317.657 40.2802L317.799 41.0168L317.657 40.2802ZM308.207 40.4519L308.323 39.7109L308.207 40.4519ZM307.157 40.2885L307.042 41.0296L307.157 40.2885ZM297.707 39.2953L297.666 40.0442L297.707 39.2953ZM297.182 39.2667L297.223 38.5178L297.182 39.2667ZM296.657 39.2381L296.616 39.9869L296.657 39.2381ZM287.207 38.6924L287.162 39.441L287.207 38.6924ZM286.682 38.6604L286.728 37.9118L286.682 38.6604ZM286.157 38.6284L286.112 39.377L286.157 38.6284ZM276.707 38.1317L276.674 38.881L276.707 38.1317ZM276.182 38.1085L276.215 37.3592L276.182 38.1085ZM275.657 38.0853L275.624 38.8346L275.657 38.0853ZM266.207 38.2918L266.273 39.0389L266.207 38.2918ZM265.157 38.3841L265.092 37.637L265.157 38.3841ZM255.707 38.4113L255.769 37.6638L255.707 38.4113ZM255.182 38.3681L255.121 39.1156L255.182 38.3681ZM254.657 38.325L254.719 37.5775L254.657 38.325ZM245.207 39.5053L245.444 40.2171L245.207 39.5053ZM244.682 39.6796L244.446 38.9678L244.682 39.6796ZM244.157 39.8538L244.394 40.5656L244.157 39.8538ZM234.707 40.0876L234.911 39.3658L234.707 40.0876ZM234.182 39.9392L233.978 40.661L234.182 39.9392ZM233.657 39.7909L233.861 39.0692L233.657 39.7909ZM224.207 38.8367L224.268 39.5842L224.207 38.8367ZM223.682 38.8789L223.622 38.1314L223.682 38.8789ZM223.157 38.9212L223.218 39.6688L223.157 38.9212ZM213.707 39.5544L213.667 38.8055L213.707 39.5544ZM213.182 39.5825L213.222 40.3314L213.182 39.5825ZM212.657 39.6106L212.617 38.8616L212.657 39.6106ZM203.207 39.6429L203.172 40.3921L203.207 39.6429ZM202.682 39.6185L202.717 38.8693L202.682 39.6185ZM202.157 39.594L202.122 40.3432L202.157 39.594ZM192.707 39.3513L192.711 38.6013L192.707 39.3513ZM191.657 39.3463L191.654 40.0963L191.657 39.3463ZM182.207 40.3084L182.36 41.0426L182.207 40.3084ZM181.157 40.5272L181.004 39.7929L181.157 40.5272ZM171.707 40.048L171.485 40.7645L171.707 40.048ZM171.182 39.8854L171.404 39.169L171.182 39.8854ZM170.657 39.7228L170.435 40.4392L170.657 39.7228ZM161.207 37.9044L161.151 38.6523L161.207 37.9044ZM160.682 37.865L160.738 37.1171L160.682 37.865ZM160.157 37.8255L160.101 38.5734L160.157 37.8255ZM150.707 37.4265L150.714 36.6765L150.707 37.4265ZM149.657 37.4166L149.65 38.1666L149.657 37.4166ZM140.207 38.204L140.337 38.9426L140.207 38.204ZM139.157 38.3888L139.027 37.6502L139.157 38.3888ZM129.707 39.7155L129.785 40.4614L129.707 39.7155ZM129.182 39.7705L129.104 39.0246L129.182 39.7705ZM128.657 39.8255L128.579 39.0796L128.657 39.8255ZM119.207 40.334L119.209 41.084L119.207 40.334ZM118.157 40.337L118.155 39.587L118.157 40.337ZM108.707 39.1604L108.891 38.4331L108.707 39.1604ZM108.182 39.0281L107.999 39.7554L108.182 39.0281ZM107.657 38.8959L107.474 39.6232L107.657 38.8959ZM98.2073 37.964L98.2483 38.7129L98.2073 37.964ZM97.6823 37.9928L97.7233 38.7416L97.6823 37.9928ZM97.1573 38.0215L97.1164 37.2726L97.1573 38.0215ZM87.7073 39.686L87.9212 40.4048L87.7073 39.686ZM87.1823 39.8422L87.3962 40.5611L87.1823 39.8422ZM86.6573 39.9985L86.4434 39.2796L86.6573 39.9985ZM77.2073 41.3746L77.2121 40.6246L77.2073 41.3746ZM76.1573 41.3679L76.1525 42.1179L76.1573 41.3679ZM66.7073 40.3271L66.5504 41.0605L66.7073 40.3271ZM66.1823 40.2148L66.3392 39.4814L66.1823 40.2148ZM65.6573 40.1025L65.5004 40.836L65.6573 40.1025ZM56.2073 40.2802L56.3902 41.0075L56.2073 40.2802ZM55.6823 40.4122L55.4994 39.6849L55.6823 40.4122ZM55.1573 40.5443L55.3402 41.2716L55.1573 40.5443ZM45.7073 41.2039L45.6239 41.9493L45.7073 41.2039ZM45.1823 41.1452L45.2657 40.3999L45.1823 41.1452ZM44.6573 41.0865L44.7407 40.3411L44.6573 41.0865ZM35.2073 39.1705L35.4186 38.4509L35.2073 39.1705ZM34.6823 39.0164L34.471 39.736L34.6823 39.0164ZM34.1573 38.8622L33.946 39.5819L34.1573 38.8622ZM23.6573 38.8596L23.4824 38.1302L23.6573 38.8596ZM14.2527 39.3409L14.1492 40.0837L14.2527 39.3409ZM13.2128 39.1961L13.3162 38.4532L13.2128 39.1961ZM4.86612 35.1563L5.37509 34.6054L4.86612 35.1563ZM4.45867 34.7798L3.9497 35.3307L4.45867 34.7798ZM5.92029 6.2771L5.39783 5.73902L5.92029 6.2771ZM11.9316 2.36795L11.8571 3.11423L11.9316 2.36795ZM18.9817 3.14322L18.8972 3.88844L19.4222 3.94798L19.5067 3.20275L19.5912 2.45753L19.0662 2.39799L18.9817 3.14322ZM19.5067 3.20275L19.4222 3.94798C22.6802 4.31744 25.9351 3.9917 29.1805 2.97675L28.9567 2.26094L28.7328 1.54513C25.6783 2.50038 22.6332 2.80251 19.5912 2.45753L19.5067 3.20275ZM28.9567 2.26094L29.1805 2.97675L29.7055 2.81257L29.4817 2.09676L29.2578 1.38095L28.7328 1.54513L28.9567 2.26094ZM29.4817 2.09676L29.7055 2.81257L30.2305 2.64839L30.0067 1.93258L29.7828 1.21676L29.2578 1.38095L29.4817 2.09676ZM30.0067 1.93258L30.2305 2.64839C33.2553 1.70248 36.2689 1.58546 39.2856 2.29237L39.4567 1.56215L39.6278 0.831929C36.3445 0.0625467 33.0581 0.192484 29.7828 1.21676L30.0067 1.93258ZM39.4567 1.56215L39.2856 2.29237L39.8106 2.41539L39.9817 1.68517L40.1528 0.954953L39.6278 0.831929L39.4567 1.56215ZM39.9817 1.68517L39.8106 2.41539L40.3356 2.53842L40.5067 1.8082L40.6778 1.07798L40.1528 0.954953L39.9817 1.68517ZM40.5067 1.8082L40.3356 2.53842C43.5774 3.29807 46.824 3.43051 50.0701 2.93381L49.9567 2.19244L49.8433 1.45107C46.7894 1.91834 43.736 1.79461 40.6778 1.07798L40.5067 1.8082ZM49.9567 2.19244L50.0701 2.93381L50.5951 2.85348L50.4817 2.11211L50.3683 1.37074L49.8433 1.45107L49.9567 2.19244ZM50.4817 2.11211L50.5951 2.85348L51.1201 2.77315L51.0067 2.03178L50.8933 1.29041L50.3683 1.37074L50.4817 2.11211ZM51.0067 2.03178L51.1201 2.77315C54.1584 2.30826 57.1978 2.51997 60.2458 3.41316L60.4567 2.69342L60.6676 1.97369C57.4156 1.02073 54.155 0.791338 50.8933 1.29041L51.0067 2.03178ZM60.4567 2.69342L60.2458 3.41316L60.7708 3.567L60.9817 2.84727L61.1926 2.12753L60.6676 1.97369L60.4567 2.69342ZM60.9817 2.84727L60.7708 3.567L61.2958 3.72085L61.5067 3.00111L61.7176 2.28138L61.1926 2.12753L60.9817 2.84727ZM61.5067 3.00111L61.2958 3.72085C64.5452 4.67305 67.8031 4.9193 71.0625 4.45469L70.9567 3.71219L70.8509 2.9697C67.8102 3.40313 64.7682 3.17532 61.7176 2.28138L61.5067 3.00111ZM70.9567 3.71219L71.0625 4.45469L71.5875 4.37985L71.4817 3.63736L71.3759 2.89486L70.8509 2.9697L70.9567 3.71219ZM71.4817 3.63736L71.5875 4.37985L72.1125 4.30501L72.0067 3.56252L71.9009 2.82003L71.3759 2.89486L71.4817 3.63736ZM72.0067 3.56252L72.1125 4.30501C75.2014 3.86471 78.2891 3.80926 81.3772 4.13844L81.4567 3.39267L81.5362 2.64689C78.3242 2.3045 75.112 2.36229 71.9009 2.82003L72.0067 3.56252ZM81.4567 3.39267L81.3772 4.13844L81.9022 4.1944L81.9817 3.44863L82.0612 2.70285L81.5362 2.64689L81.4567 3.39267ZM81.9817 3.44863L81.9022 4.1944L82.4272 4.25037L82.5067 3.50459L82.5862 2.75882L82.0612 2.70285L81.9817 3.44863ZM82.5067 3.50459L82.4272 4.25037C85.612 4.58987 88.7973 4.70454 91.9826 4.59431L91.9567 3.84476L91.9308 3.09521C88.8161 3.20299 85.7014 3.09089 82.5862 2.75882L82.5067 3.50459ZM91.9567 3.84476L91.9826 4.59431L92.5076 4.57614L92.4817 3.82659L92.4557 3.07704L91.9308 3.09521L91.9567 3.84476ZM92.4817 3.82659L92.5076 4.57614L93.0326 4.55798L93.0067 3.80842L92.9808 3.05887L92.4557 3.07704L92.4817 3.82659ZM93.0067 3.80842L93.0326 4.55798C96.1632 4.44964 99.2937 4.46317 102.424 4.59856L102.457 3.84926L102.489 3.09996C99.3197 2.96289 96.1502 2.94919 92.9808 3.05887L93.0067 3.80842ZM102.457 3.84926L102.424 4.59856L102.949 4.62127L102.982 3.87197L103.014 3.12267L102.489 3.09996L102.457 3.84926ZM102.982 3.87197L102.949 4.62127L103.474 4.64397L103.507 3.89467L103.539 3.14537L103.014 3.12267L102.982 3.87197ZM103.507 3.89467L103.474 4.64397C106.649 4.78129 109.824 4.7592 112.999 4.57772L112.957 3.82894L112.914 3.08016C109.789 3.25879 106.664 3.28052 103.539 3.14537L103.507 3.89467ZM112.957 3.82894L112.999 4.57772L113.524 4.54771L113.482 3.79893L113.439 3.05015L112.914 3.08016L112.957 3.82894ZM113.482 3.79893L113.524 4.54771L114.049 4.5177L114.007 3.76892L113.964 3.02014L113.439 3.05015L113.482 3.79893ZM114.007 3.76892L114.049 4.5177C117.253 4.3346 120.454 3.81099 123.652 2.9481L123.457 2.22399L123.261 1.49989C120.159 2.33679 117.061 2.84314 113.964 3.02014L114.007 3.76892ZM123.457 2.22399L123.652 2.9481L124.177 2.80645L123.982 2.08234L123.786 1.35824L123.261 1.49989L123.457 2.22399ZM123.982 2.08234L124.177 2.80645L124.702 2.6648L124.507 1.94069L124.311 1.21659L123.786 1.35824L123.982 2.08234ZM124.507 1.94069L124.702 2.6648C127.714 1.85218 130.72 1.90937 133.736 2.83923L133.957 2.12251L134.178 1.4058C130.894 0.393435 127.599 0.329408 124.311 1.21659L124.507 1.94069ZM133.957 2.12251L133.736 2.83923L134.261 3.00108L134.482 2.28437L134.703 1.56765L134.178 1.4058L133.957 2.12251ZM134.482 2.28437L134.261 3.00108L134.786 3.16293L135.007 2.44622L135.228 1.7295L134.703 1.56765L134.482 2.28437ZM135.007 2.44622L134.786 3.16293C138.083 4.17952 141.391 4.15722 144.686 3.09729L144.457 2.38331L144.227 1.66932C141.223 2.6355 138.23 2.65514 135.228 1.7295L135.007 2.44622ZM144.457 2.38331L144.686 3.09729L145.211 2.92845L144.982 2.21447L144.752 1.50048L144.227 1.66932L144.457 2.38331ZM144.982 2.21447L145.211 2.92845L145.736 2.75961L145.507 2.04562L145.277 1.33164L144.752 1.50048L144.982 2.21447ZM145.507 2.04562L145.736 2.75961C148.776 1.78189 151.805 1.55021 154.833 2.05755L154.957 1.31787L155.081 0.57818C151.808 0.0297637 148.537 0.283254 145.277 1.33164L145.507 2.04562ZM154.957 1.31787L154.833 2.05755L155.358 2.14553L155.482 1.40585L155.606 0.666161L155.081 0.57818L154.957 1.31787ZM155.482 1.40585L155.358 2.14553L155.883 2.23351L156.007 1.49383L156.131 0.754141L155.606 0.666161L155.482 1.40585ZM156.007 1.49383L155.883 2.23351C159.082 2.76969 162.283 2.97806 165.485 2.85816L165.457 2.10868L165.429 1.35921C162.33 1.47525 159.231 1.27372 156.131 0.754141L156.007 1.49383ZM165.457 2.10868L165.485 2.85816L166.01 2.83849L165.982 2.08902L165.954 1.33954L165.429 1.35921L165.457 2.10868ZM165.982 2.08902L166.01 2.83849L166.535 2.81883L166.507 2.06936L166.479 1.31988L165.954 1.33954L165.982 2.08902ZM166.507 2.06936L166.535 2.81883C169.68 2.70102 172.826 2.61147 175.971 2.55017L175.957 1.80031L175.942 1.05045C172.788 1.11193 169.633 1.20174 166.479 1.31988L166.507 2.06936ZM175.957 1.80031L175.971 2.55017L176.496 2.53994L176.482 1.79008L176.467 1.04022L175.942 1.05045L175.957 1.80031ZM176.482 1.79008L176.496 2.53994L177.021 2.52971L177.007 1.77985L176.992 1.02999L176.467 1.04022L176.482 1.79008ZM177.007 1.77985L177.021 2.52971C180.102 2.46966 183.186 2.82899 186.273 3.60956L186.457 2.88244L186.641 2.15532C183.428 1.343 180.211 0.967262 176.992 1.02999L177.007 1.77985ZM186.457 2.88244L186.273 3.60956L186.798 3.7423L186.982 3.01518L187.166 2.28807L186.641 2.15532L186.457 2.88244ZM186.982 3.01518L186.798 3.7423L187.323 3.87504L187.507 3.14793L187.691 2.42081L187.166 2.28807L186.982 3.01518ZM187.507 3.14793L187.323 3.87504C190.527 4.68519 193.734 5.11856 196.944 5.17376L196.957 4.42387L196.97 3.67398C193.879 3.62082 190.786 3.20356 187.691 2.42081L187.507 3.14793ZM196.957 4.42387L196.944 5.17376L197.469 5.18279L197.482 4.4329L197.495 3.68301L196.97 3.67398L196.957 4.42387ZM197.482 4.4329L197.469 5.18279L197.994 5.19182L198.007 4.44193L198.02 3.69204L197.495 3.68301L197.482 4.4329ZM198.007 4.44193L197.994 5.19182C201.145 5.24602 204.296 5.29349 207.447 5.33424L207.457 4.5843L207.466 3.83436C204.317 3.79365 201.169 3.74621 198.02 3.69204L198.007 4.44193ZM207.457 4.5843L207.447 5.33424L207.972 5.34102L207.982 4.59109L207.991 3.84115L207.466 3.83436L207.457 4.5843ZM207.982 4.59109L207.972 5.34102L208.497 5.34781L208.507 4.59788L208.516 3.84794L207.991 3.84115L207.982 4.59109ZM208.507 4.59788L208.497 5.34781C211.687 5.38907 214.877 5.17343 218.067 4.70113L217.957 3.95922L217.847 3.21731C214.736 3.67801 211.626 3.88815 208.516 3.84794L208.507 4.59788ZM217.957 3.95922L218.067 4.70113L218.592 4.62338L218.482 3.88147L218.372 3.13956L217.847 3.21731L217.957 3.95922ZM218.482 3.88147L218.592 4.62338L219.117 4.54563L219.007 3.80372L218.897 3.06181L218.372 3.13956L218.482 3.88147ZM219.007 3.80372L219.117 4.54563C222.226 4.08517 225.334 3.88571 228.442 3.94699L228.457 3.19713L228.471 2.44728C225.279 2.38433 222.088 2.58926 218.897 3.06181L219.007 3.80372ZM228.457 3.19713L228.442 3.94699L228.967 3.95734L228.982 3.20748L228.996 2.45763L228.471 2.44728L228.457 3.19713ZM228.982 3.20748L228.967 3.95734L229.492 3.96769L229.507 3.21784L229.521 2.46798L228.996 2.45763L228.982 3.20748ZM229.507 3.21784L229.492 3.96769C232.681 4.03056 235.869 3.84754 239.057 3.4188L238.957 2.67549L238.857 1.93219C235.744 2.35079 232.633 2.52933 229.521 2.46798L229.507 3.21784ZM238.957 2.67549L239.057 3.4188L239.582 3.34819L239.482 2.60488L239.382 1.86157L238.857 1.93219L238.957 2.67549ZM239.482 2.60488L239.582 3.34819L240.107 3.27757L240.007 2.53427L239.907 1.79096L239.382 1.86157L239.482 2.60488ZM240.007 2.53427L240.107 3.27757C243.181 2.86413 246.254 2.92242 249.329 3.45291L249.457 2.71383L249.584 1.97475C246.359 1.41847 243.133 1.35706 239.907 1.79096L240.007 2.53427ZM249.457 2.71383L249.329 3.45291L249.854 3.54348L249.982 2.80439L250.109 2.06531L249.584 1.97475L249.457 2.71383ZM249.982 2.80439L249.854 3.54348L250.379 3.63404L250.507 2.89496L250.634 2.15587L250.109 2.06531L249.982 2.80439ZM250.507 2.89496L250.379 3.63404C253.636 4.19588 256.894 4.05353 260.145 3.20979L259.957 2.48384L259.768 1.75789C256.72 2.54907 253.677 2.6808 250.634 2.15587L250.507 2.89496ZM259.957 2.48384L260.145 3.20979L260.67 3.07355L260.482 2.3476L260.293 1.62164L259.768 1.75789L259.957 2.48384ZM260.482 2.3476L260.67 3.07355L261.195 2.93731L261.007 2.21135L260.818 1.4854L260.293 1.62164L260.482 2.3476ZM261.007 2.21135L261.195 2.93731C264.247 2.14523 267.293 1.99257 270.339 2.47637L270.457 1.73566L270.574 0.994941C267.32 0.478086 264.066 0.642553 260.818 1.4854L261.007 2.21135ZM270.457 1.73566L270.339 2.47637L270.864 2.55976L270.982 1.81904L271.099 1.07833L270.574 0.994941L270.457 1.73566ZM270.982 1.81904L270.864 2.55976L271.389 2.64315L271.507 1.90243L271.624 1.16172L271.099 1.07833L270.982 1.81904ZM271.507 1.90243L271.389 2.64315C274.606 3.15414 277.825 3.22307 281.043 2.84958L280.957 2.10458L280.87 1.35958C277.789 1.71721 274.707 1.65138 271.624 1.16172L271.507 1.90243ZM280.957 2.10458L281.043 2.84958L281.568 2.78865L281.482 2.04365L281.395 1.29865L280.87 1.35958L280.957 2.10458ZM281.482 2.04365L281.568 2.78865L282.093 2.72772L282.007 1.98272L281.92 1.23772L281.395 1.29865L281.482 2.04365ZM282.007 1.98272L282.093 2.72772C285.234 2.36316 288.376 2.05439 291.517 1.8014L291.457 1.05382L291.396 0.30624C288.238 0.56065 285.079 0.871144 281.92 1.23772L282.007 1.98272ZM291.457 1.05382L291.517 1.8014L292.042 1.75911L291.982 1.01154L291.921 0.263956L291.396 0.30624L291.457 1.05382ZM291.982 1.01154L292.042 1.75911L292.567 1.71683L292.507 0.969252L292.446 0.221672L291.921 0.263956L291.982 1.01154ZM292.507 0.969252L292.567 1.71683C295.659 1.46776 298.752 1.57412 301.846 2.03627L301.957 1.2945L302.067 0.552734C298.861 0.0738101 295.654 -0.0366595 292.446 0.221672L292.507 0.969252ZM301.957 1.2945L301.846 2.03627L302.371 2.1147L302.482 1.37293L302.592 0.631157L302.067 0.552734L301.957 1.2945ZM302.482 1.37293L302.371 2.1147L302.896 2.19312L303.007 1.45135L303.117 0.70958L302.592 0.631157L302.482 1.37293ZM303.007 1.45135L302.896 2.19312C306.033 2.66179 309.171 3.21161 312.309 3.84261L312.457 3.10733L312.605 2.37205C309.442 1.73615 306.28 1.18199 303.117 0.70958L303.007 1.45135ZM312.457 3.10733L312.309 3.84261L312.834 3.94818L312.982 3.2129L313.13 2.47762L312.605 2.37205L312.457 3.10733ZM312.982 3.2129L312.834 3.94818L313.359 4.05376L313.507 3.31848L313.655 2.58319L313.13 2.47762L312.982 3.2129ZM313.507 3.31848L313.359 4.05376C316.639 4.71342 319.92 4.5084 323.189 3.44569L322.957 2.73244L322.725 2.01919C319.693 3.00475 316.674 3.19042 313.655 2.58319L313.507 3.31848ZM322.957 2.73244L323.189 3.44569L323.714 3.275L323.482 2.56175L323.25 1.8485L322.725 2.01919L322.957 2.73244ZM323.482 2.56175L323.714 3.275L324.239 3.10431L324.007 2.39106L323.775 1.67781L323.25 1.8485L323.482 2.56175ZM324.007 2.39106L324.239 3.10431C327.322 2.10198 330.398 1.57589 333.47 1.52228L333.457 0.772399L333.444 0.0225132C330.216 0.0788443 326.992 0.631865 323.775 1.67781L324.007 2.39106ZM333.457 0.772399L333.47 1.52228L333.995 1.51312L333.982 0.763237L333.969 0.0133517L333.444 0.0225132L333.457 0.772399ZM333.982 0.763237L333.995 1.51312L334.52 1.50396L334.507 0.754076L334.494 0.00419021L333.969 0.0133517L333.982 0.763237ZM334.507 0.754076L334.52 1.50396C337.579 1.45058 340.643 1.94078 343.716 2.98003L343.957 2.26955L344.197 1.55908C340.97 0.467755 337.734 -0.0523627 334.494 0.00419021L334.507 0.754076ZM343.957 2.26955L343.716 2.98003L344.241 3.15757L344.482 2.4471L344.722 1.73663L344.197 1.55908L343.957 2.26955ZM344.482 2.4471L344.241 3.15757L344.766 3.33512L345.007 2.62465L345.247 1.91418L344.722 1.73663L344.482 2.4471ZM345.007 2.62465L344.766 3.33512C347.99 4.42543 351.223 4.96644 354.46 4.9531L354.457 4.2031L354.454 3.45311C351.391 3.46574 348.323 2.95444 345.247 1.91418L345.007 2.62465ZM354.457 4.2031L354.46 4.9531L354.985 4.95093L354.982 4.20094L354.979 3.45095L354.454 3.45311L354.457 4.2031ZM354.982 4.20094L354.985 4.95093L355.51 4.94877L355.507 4.19878L355.504 3.44878L354.979 3.45095L354.982 4.20094ZM355.507 4.19878L355.51 4.94877C358.734 4.93548 361.955 4.45071 365.17 3.49735L364.957 2.7783L364.743 2.05924C361.659 2.97389 358.579 3.4361 355.504 3.44878L355.507 4.19878ZM364.957 2.7783L365.17 3.49735L365.695 3.34169L365.482 2.62263L365.268 1.90357L364.743 2.05924L364.957 2.7783ZM365.482 2.62263L365.695 3.34169L366.22 3.18602L366.007 2.46696L365.793 1.7479L365.268 1.90357L365.482 2.62263ZM366.007 2.46696L366.22 3.18602C369.29 2.27576 372.353 1.91377 375.412 2.09588L375.457 1.3472L375.501 0.59853C372.261 0.405642 369.024 0.790161 365.793 1.7479L366.007 2.46696ZM375.457 1.3472L375.412 2.09588L375.937 2.12713L375.982 1.37845L376.026 0.62978L375.501 0.59853L375.457 1.3472ZM375.982 1.37845L375.937 2.12713L376.462 2.15838L376.507 1.4097L376.551 0.661029L376.026 0.62978L375.982 1.37845ZM376.507 1.4097L376.462 2.15838C379.587 2.34436 382.711 2.69057 385.837 3.19711L385.957 2.45678L386.077 1.71644C382.902 1.20188 379.727 0.850048 376.551 0.661029L376.507 1.4097ZM385.957 2.45678L385.837 3.19711L386.362 3.28221L386.482 2.54187L386.602 1.80153L386.077 1.71644L385.957 2.45678ZM386.482 2.54187L386.362 3.28221L386.887 3.3673L387.007 2.62696L387.127 1.88662L386.602 1.80153L386.482 2.54187ZM387.007 2.62696L386.887 3.3673C390.056 3.88094 393.225 4.26903 396.395 4.53154L396.457 3.78409L396.519 3.03665C393.388 2.7774 390.258 2.39408 387.127 1.88662L387.007 2.62696ZM396.457 3.78409L396.395 4.53154L396.92 4.57501L396.982 3.82757L397.044 3.08013L396.519 3.03665L396.457 3.78409ZM396.982 3.82757L396.92 4.57501L397.445 4.61849L397.507 3.87105L397.569 3.12361L397.044 3.08013L396.982 3.82757ZM397.507 3.87105L397.445 4.61849C400.63 4.88228 403.815 4.9209 407.001 4.73434L406.957 3.98562L406.913 3.2369C403.798 3.41933 400.683 3.38158 397.569 3.12361L397.507 3.87105ZM406.957 3.98562L407.001 4.73434L407.526 4.70359L407.482 3.95487L407.438 3.20615L406.913 3.2369L406.957 3.98562ZM407.482 3.95487L407.526 4.70359L408.051 4.67284L408.007 3.92412L407.963 3.1754L407.438 3.20615L407.482 3.95487ZM408.007 3.92412L408.051 4.67284C411.215 4.48749 414.379 4.21037 417.544 3.84147L417.457 3.09652L417.37 2.35156C414.234 2.71714 411.098 2.99175 407.963 3.1754L408.007 3.92412ZM417.457 3.09652L417.544 3.84147L418.069 3.78027L417.982 3.03531L417.895 2.29036L417.37 2.35156L417.457 3.09652ZM417.982 3.03531L418.069 3.78027L418.594 3.71906L418.507 2.97411L418.42 2.22915L417.895 2.29036L417.982 3.03531ZM418.507 2.97411L418.594 3.71906C421.671 3.36033 424.747 3.45238 427.826 3.99583L427.957 3.25725L428.087 2.51867C424.866 1.95012 421.643 1.85341 418.42 2.22915L418.507 2.97411ZM427.957 3.25725L427.826 3.99583L428.351 4.0885L428.482 3.34991L428.612 2.61133L428.087 2.51867L427.957 3.25725ZM428.482 3.34991L428.351 4.0885L428.876 4.18116L429.007 3.44258L429.137 2.704L428.612 2.61133L428.482 3.34991ZM429.007 3.44258L428.876 4.18116C432.069 4.74472 435.263 5.02383 438.458 5.0181L438.457 4.2681L438.455 3.5181C435.35 3.52367 432.244 3.25244 429.137 2.704L429.007 3.44258ZM438.457 4.2681L438.458 5.0181L438.983 5.01715L438.982 4.26715L438.98 3.51716L438.455 3.5181L438.457 4.2681ZM438.982 4.26715L438.983 5.01715L439.508 5.01621L439.507 4.26621L439.505 3.51621L438.98 3.51716L438.982 4.26715ZM439.507 4.26621L439.508 5.01621C442.74 5.01041 445.967 4.48387 449.188 3.44071L448.957 2.72721L448.726 2.01371C445.646 3.01125 442.573 3.51071 439.505 3.51621L439.507 4.26621ZM448.957 2.72721L449.188 3.44071L449.713 3.27066L449.482 2.55716L449.251 1.84365L448.726 2.01371L448.957 2.72721ZM449.482 2.55716L449.713 3.27066L450.238 3.1006L450.007 2.3871L449.776 1.6736L449.251 1.84365L449.482 2.55716ZM450.007 2.3871L450.238 3.1006C453.308 2.10597 456.371 1.66876 459.428 1.78378L459.457 1.03431L459.485 0.284845C456.243 0.162882 453.005 0.627529 449.776 1.6736L450.007 2.3871ZM459.457 1.03431L459.428 1.78378L459.953 1.80353L459.982 1.05406L460.01 0.304593L459.485 0.284845L459.457 1.03431ZM459.982 1.05406L459.953 1.80353L460.479 1.82328L460.507 1.07381L460.535 0.324342L460.01 0.304593L459.982 1.05406ZM460.507 1.07381L460.479 1.82328C463.617 1.94136 466.756 2.12894 469.895 2.38604L469.957 1.63855L470.018 0.891048C466.857 0.632154 463.696 0.443251 460.535 0.324342L460.507 1.07381ZM469.957 1.63855L469.895 2.38604L470.42 2.42904L470.482 1.68154L470.543 0.934048L470.018 0.891048L469.957 1.63855ZM470.482 1.68154L470.42 2.42904L470.945 2.47204L471.007 1.72454L471.068 0.977047L470.543 0.934048L470.482 1.68154ZM471.007 1.72454L470.945 2.47204C474.096 2.73009 477.247 2.98373 480.398 3.23295L480.457 2.48528L480.516 1.73762C477.367 1.48851 474.217 1.23499 471.068 0.977047L471.007 1.72454ZM480.457 2.48528L480.398 3.23295L480.923 3.27447L480.982 2.52681L481.041 1.77914L480.516 1.73762L480.457 2.48528ZM480.982 2.52681L480.923 3.27447L481.448 3.316L481.507 2.56834L481.566 1.82067L481.041 1.77914L480.982 2.52681ZM481.507 2.56834L481.448 3.316C484.596 3.56504 487.754 3.82453 490.922 4.09448L490.986 3.34719L491.05 2.5999C487.879 2.32969 484.717 2.06995 481.566 1.82067L481.507 2.56834ZM490.986 3.34719L490.922 4.09448L491.451 4.13949L491.514 3.3922L491.578 2.64491L491.05 2.5999L490.986 3.34719ZM491.514 3.3922L491.451 4.13949L491.979 4.18451L492.043 3.43721L492.106 2.68992L491.578 2.64491L491.514 3.3922ZM492.043 3.43721L491.979 4.18451C493.455 4.31025 494.626 4.732 495.534 5.41289C496.44 6.09206 497.132 7.0656 497.592 8.37771L498.299 8.12968L499.007 7.88166C498.465 6.33553 497.614 5.09787 496.434 4.21288C495.256 3.32962 493.8 2.83425 492.106 2.68992L492.043 3.43721ZM498.299 8.12968L497.592 8.37771L497.759 8.85408L498.466 8.60606L499.174 8.35803L499.007 7.88166L498.299 8.12968ZM498.466 8.60606L497.759 8.85408L497.926 9.33046L498.633 9.08243L499.341 8.83441L499.174 8.35803L498.466 8.60606ZM498.633 9.08243L497.926 9.33046C498.917 12.1585 499.747 15.1073 500.417 18.1771L501.149 18.0173L501.882 17.8575C501.2 14.7306 500.353 11.7228 499.341 8.83441L498.633 9.08243ZM501.149 18.0173L500.417 18.1771L500.529 18.6935L501.262 18.5337L501.995 18.3738L501.882 17.8575L501.149 18.0173ZM501.262 18.5337L500.529 18.6935L500.642 19.2099L501.375 19.0501L502.107 18.8902L501.995 18.3738L501.262 18.5337ZM501.375 19.0501L500.642 19.2099C501.298 22.2167 501.39 25.275 500.916 28.3897L501.657 28.5025L502.399 28.6153C502.9 25.3234 502.803 22.0801 502.107 18.8902L501.375 19.0501ZM501.657 28.5025L500.916 28.3897L500.835 28.9236L501.576 29.0364L502.317 29.1492L502.399 28.6153L501.657 28.5025ZM501.576 29.0364L500.835 28.9236L500.753 29.4575L501.495 29.5703L502.236 29.6831L502.317 29.1492L501.576 29.0364ZM501.495 29.5703L500.753 29.4575C500.3 32.4399 498.797 34.6824 496.209 36.2375L496.595 36.8804L496.981 37.5232C499.952 35.7382 501.715 33.1073 502.236 29.6831L501.495 29.5703ZM496.595 36.8804L496.209 36.2375L495.746 36.5159L496.132 37.1587L496.518 37.8016L496.981 37.5232L496.595 36.8804ZM496.132 37.1587L495.746 36.5159L495.282 36.7942L495.669 37.4371L496.055 38.0799L496.518 37.8016L496.132 37.1587ZM495.669 37.4371L495.282 36.7942C492.621 38.3935 489.785 39.1592 486.759 39.1011L486.745 39.851L486.73 40.6009C490.045 40.6645 493.158 39.821 496.055 38.0799L495.669 37.4371ZM486.745 39.851L486.759 39.1011L486.231 39.091L486.216 39.8409L486.202 40.5907L486.73 40.6009L486.745 39.851ZM486.216 39.8409L486.231 39.091L485.702 39.0808L485.688 39.8307L485.673 40.5806L486.202 40.5907L486.216 39.8409ZM485.688 39.8307L485.702 39.0808C482.584 39.021 479.474 38.6408 476.373 37.9396L476.207 38.6711L476.042 39.4026C479.241 40.1259 482.451 40.5187 485.673 40.5806L485.688 39.8307ZM476.207 38.6711L476.373 37.9396L475.848 37.8208L475.682 38.5524L475.517 39.2839L476.042 39.4026L476.207 38.6711ZM475.682 38.5524L475.848 37.8208L475.323 37.7021L475.157 38.4337L474.992 39.1652L475.517 39.2839L475.682 38.5524ZM475.157 38.4337L475.323 37.7021C472.055 36.9633 468.784 37.0189 465.519 37.8674L465.707 38.5933L465.896 39.3192C468.931 38.5304 471.96 38.4796 474.992 39.1652L475.157 38.4337ZM465.707 38.5933L465.519 37.8674L464.994 38.0039L465.182 38.7298L465.371 39.4556L465.896 39.3192L465.707 38.5933ZM465.182 38.7298L464.994 38.0039L464.469 38.1403L464.657 38.8662L464.846 39.5921L465.371 39.4556L465.182 38.7298ZM464.657 38.8662L464.469 38.1403C461.383 38.9422 458.302 39.3091 455.223 39.243L455.207 39.9928L455.191 40.7427C458.413 40.8118 461.631 40.4276 464.846 39.5921L464.657 38.8662ZM455.207 39.9928L455.223 39.243L454.698 39.2318L454.682 39.9816L454.666 40.7314L455.191 40.7427L455.207 39.9928ZM454.682 39.9816L454.698 39.2318L454.173 39.2205L454.157 39.9703L454.141 40.7201L454.666 40.7314L454.682 39.9816ZM454.157 39.9703L454.173 39.2205C450.975 39.1519 447.777 39.3922 444.58 39.9409L444.707 40.6801L444.834 41.4193C447.938 40.8865 451.04 40.6536 454.141 40.7201L454.157 39.9703ZM444.707 40.6801L444.58 39.9409L444.055 40.0311L444.182 40.7702L444.309 41.5094L444.834 41.4193L444.707 40.6801ZM444.182 40.7702L444.055 40.0311L443.53 40.1212L443.657 40.8604L443.784 41.5996L444.309 41.5094L444.182 40.7702ZM443.657 40.8604L443.53 40.1212C440.477 40.6454 437.424 40.5732 434.368 39.9035L434.207 40.6361L434.047 41.3687C437.29 42.0795 440.538 42.1568 443.784 41.5996L443.657 40.8604ZM434.207 40.6361L434.368 39.9035L433.843 39.7884L433.682 40.521L433.522 41.2536L434.047 41.3687L434.207 40.6361ZM433.682 40.521L433.843 39.7884L433.318 39.6734L433.157 40.406L432.997 41.1386L433.522 41.2536L433.682 40.521ZM433.157 40.406L433.318 39.6734C430.156 38.9805 426.995 38.3659 423.833 37.8295L423.707 38.5689L423.582 39.3084C426.72 39.8408 429.858 40.4508 432.997 41.1386L433.157 40.406ZM423.707 38.5689L423.833 37.8295L423.308 37.7404L423.182 38.4799L423.057 39.2193L423.582 39.3084L423.707 38.5689ZM423.182 38.4799L423.308 37.7404L422.783 37.6514L422.657 38.3908L422.532 39.1303L423.057 39.2193L423.182 38.4799ZM422.657 38.3908L422.783 37.6514C419.526 37.0988 416.268 37.2505 413.017 38.1034L413.207 38.8288L413.398 39.5543C416.447 38.7544 419.489 38.614 422.532 39.1303L422.657 38.3908ZM413.207 38.8288L413.017 38.1034L412.492 38.2411L412.682 38.9665L412.873 39.692L413.398 39.5543L413.207 38.8288ZM412.682 38.9665L412.492 38.2411L411.967 38.3788L412.157 39.1043L412.348 39.8297L412.873 39.692L412.682 38.9665ZM412.157 39.1043L411.967 38.3788C408.872 39.1907 405.781 39.6274 402.692 39.6905L402.707 40.4403L402.723 41.1902C405.934 41.1246 409.142 40.6706 412.348 39.8297L412.157 39.1043ZM402.707 40.4403L402.692 39.6905L402.167 39.7012L402.182 40.451L402.198 41.2009L402.723 41.1902L402.707 40.4403ZM402.182 40.451L402.167 39.7012L401.642 39.7119L401.657 40.4617L401.673 41.2116L402.198 41.2009L402.182 40.451ZM401.657 40.4617L401.642 39.7119C398.55 39.775 395.457 39.4825 392.361 38.8335L392.207 39.5676L392.053 40.3016C395.258 40.9734 398.465 41.2771 401.673 41.2116L401.657 40.4617ZM392.207 39.5676L392.361 38.8335L391.836 38.7235L391.682 39.4575L391.528 40.1916L392.053 40.3016L392.207 39.5676ZM391.682 39.4575L391.836 38.7235L391.311 38.6134L391.157 39.3475L391.003 40.0815L391.528 40.1916L391.682 39.4575ZM391.157 39.3475L391.311 38.6134C388.111 37.9425 384.909 37.6099 381.706 37.6163L381.707 38.3663L381.709 39.1162C384.805 39.1101 387.903 39.4316 391.003 40.0815L391.157 39.3475ZM381.707 38.3663L381.706 37.6163L381.181 37.6173L381.182 38.3673L381.184 39.1173L381.709 39.1162L381.707 38.3663ZM381.182 38.3673L381.181 37.6173L380.656 37.6183L380.657 38.3683L380.659 39.1183L381.184 39.1173L381.182 38.3673ZM380.657 38.3683L380.656 37.6183C377.46 37.6247 374.265 37.9211 371.072 38.5072L371.207 39.2448L371.343 39.9825C374.449 39.4124 377.554 39.1245 380.659 39.1183L380.657 38.3683ZM371.207 39.2448L371.072 38.5072L370.547 38.6035L370.682 39.3412L370.818 40.0789L371.343 39.9825L371.207 39.2448ZM370.682 39.3412L370.547 38.6035L370.022 38.6998L370.157 39.4375L370.293 40.1752L370.818 40.0789L370.682 39.3412ZM370.157 39.4375L370.022 38.6998C366.986 39.2569 363.951 39.1134 360.909 38.2655L360.707 38.988L360.506 39.7105C363.763 40.6181 367.028 40.7743 370.293 40.1752L370.157 39.4375ZM360.707 38.988L360.909 38.2655L360.384 38.1192L360.182 38.8417L359.981 39.5642L360.506 39.7105L360.707 38.988ZM360.182 38.8417L360.384 38.1192L359.859 37.9729L359.657 38.6954L359.456 39.4179L359.981 39.5642L360.182 38.8417ZM359.657 38.6954L359.859 37.9729C356.55 37.0509 353.236 37.22 349.941 38.4695L350.207 39.1708L350.473 39.872C353.479 38.7322 356.465 38.5844 359.456 39.4179L359.657 38.6954ZM350.207 39.1708L349.941 38.4695L349.416 38.6686L349.682 39.3699L349.948 40.0711L350.473 39.872L350.207 39.1708ZM349.682 39.3699L349.416 38.6686L348.891 38.8677L349.157 39.569L349.423 40.2702L349.948 40.0711L349.682 39.3699ZM349.157 39.569L348.891 38.8677C345.889 40.0063 342.906 40.1358 339.917 39.2661L339.707 39.9862L339.498 40.7064C342.809 41.6696 346.125 41.521 349.423 40.2702L349.157 39.569ZM339.707 39.9862L339.917 39.2661L339.392 39.1134L339.182 39.8335L338.973 40.5536L339.498 40.7064L339.707 39.9862ZM339.182 39.8335L339.392 39.1134L338.867 38.9606L338.657 39.6808L338.448 40.4009L338.973 40.5536L339.182 39.8335ZM338.657 39.6808L338.867 38.9606C335.632 38.0195 332.39 37.6806 329.146 37.9481L329.207 38.6956L329.269 39.443C332.324 39.1912 335.382 39.509 338.448 40.4009L338.657 39.6808ZM329.207 38.6956L329.146 37.9481L328.621 37.9914L328.682 38.7388L328.744 39.4863L329.269 39.443L329.207 38.6956ZM328.682 38.7388L328.621 37.9914L328.096 38.0346L328.157 38.7821L328.219 39.5296L328.744 39.4863L328.682 38.7388ZM328.157 38.7821L328.096 38.0346C324.919 38.2966 321.742 38.7324 318.566 39.3421L318.707 40.0787L318.849 40.8152C321.973 40.2155 325.096 39.787 328.219 39.5296L328.157 38.7821ZM318.707 40.0787L318.566 39.3421L318.041 39.4429L318.182 40.1795L318.324 40.916L318.849 40.8152L318.707 40.0787ZM318.182 40.1795L318.041 39.4429L317.516 39.5437L317.657 40.2802L317.799 41.0168L318.324 40.916L318.182 40.1795ZM317.657 40.2802L317.516 39.5437C314.45 40.1322 311.387 40.1878 308.323 39.7109L308.207 40.4519L308.092 41.193C311.328 41.6966 314.565 41.6377 317.799 41.0168L317.657 40.2802ZM308.207 40.4519L308.323 39.7109L307.798 39.6291L307.682 40.3702L307.567 41.1113L308.092 41.193L308.207 40.4519ZM307.682 40.3702L307.798 39.6291L307.273 39.5474L307.157 40.2885L307.042 41.0296L307.567 41.1113L307.682 40.3702ZM307.157 40.2885L307.273 39.5474C304.098 39.0534 300.923 38.7197 297.748 38.5465L297.707 39.2953L297.666 40.0442C300.791 40.2147 303.916 40.5432 307.042 41.0296L307.157 40.2885ZM297.707 39.2953L297.748 38.5465L297.223 38.5178L297.182 39.2667L297.141 40.0156L297.666 40.0442L297.707 39.2953ZM297.182 39.2667L297.223 38.5178L296.698 38.4892L296.657 39.2381L296.616 39.9869L297.141 40.0156L297.182 39.2667ZM296.657 39.2381L296.698 38.4892C293.55 38.3174 290.401 38.1356 287.253 37.9438L287.207 38.6924L287.162 39.441C290.313 39.633 293.465 39.815 296.616 39.9869L296.657 39.2381ZM287.207 38.6924L287.253 37.9438L286.728 37.9118L286.682 38.6604L286.637 39.409L287.162 39.441L287.207 38.6924ZM286.682 38.6604L286.728 37.9118L286.203 37.8798L286.157 38.6284L286.112 39.377L286.637 39.409L286.682 38.6604ZM286.157 38.6284L286.203 37.8798C283.049 37.6877 279.895 37.5219 276.74 37.3825L276.707 38.1317L276.674 38.881C279.82 39.02 282.966 39.1854 286.112 39.377L286.157 38.6284ZM276.707 38.1317L276.74 37.3825L276.215 37.3592L276.182 38.1085L276.149 38.8578L276.674 38.881L276.707 38.1317ZM276.182 38.1085L276.215 37.3592L275.69 37.336L275.657 38.0853L275.624 38.8346L276.149 38.8578L276.182 38.1085ZM275.657 38.0853L275.69 37.336C272.507 37.1953 269.324 37.2649 266.142 37.5447L266.207 38.2918L266.273 39.0389C269.39 38.7649 272.507 38.6968 275.624 38.8346L275.657 38.0853ZM266.207 38.2918L266.142 37.5447L265.617 37.5908L265.682 38.338L265.748 39.0851L266.273 39.0389L266.207 38.2918ZM265.682 38.338L265.617 37.5908L265.092 37.637L265.157 38.3841L265.223 39.1312L265.748 39.0851L265.682 38.338ZM265.157 38.3841L265.092 37.637C261.984 37.9102 258.876 37.9191 255.769 37.6638L255.707 38.4113L255.646 39.1587C258.838 39.421 262.031 39.4118 265.223 39.1312L265.157 38.3841ZM255.707 38.4113L255.769 37.6638L255.244 37.6206L255.182 38.3681L255.121 39.1156L255.646 39.1587L255.707 38.4113ZM255.182 38.3681L255.244 37.6206L254.719 37.5775L254.657 38.325L254.596 39.0725L255.121 39.1156L255.182 38.3681ZM254.657 38.325L254.719 37.5775C251.463 37.31 248.212 37.7176 244.971 38.7935L245.207 39.5053L245.444 40.2171C248.503 39.2016 251.552 38.8223 254.596 39.0725L254.657 38.325ZM245.207 39.5053L244.971 38.7935L244.446 38.9678L244.682 39.6796L244.919 40.3914L245.444 40.2171L245.207 39.5053ZM244.682 39.6796L244.446 38.9678L243.921 39.142L244.157 39.8538L244.394 40.5656L244.919 40.3914L244.682 39.6796ZM244.157 39.8538L243.921 39.142C240.911 40.1411 237.915 40.2143 234.911 39.3658L234.707 40.0876L234.503 40.8093C237.8 41.7406 241.103 41.6579 244.394 40.5656L244.157 39.8538ZM234.707 40.0876L234.911 39.3658L234.386 39.2175L234.182 39.9392L233.978 40.661L234.503 40.8093L234.707 40.0876ZM234.182 39.9392L234.386 39.2175L233.861 39.0692L233.657 39.7909L233.453 40.5127L233.978 40.661L234.182 39.9392ZM233.657 39.7909L233.861 39.0692C230.629 38.156 227.389 37.828 224.147 38.0891L224.207 38.8367L224.268 39.5842C227.325 39.338 230.386 39.6462 233.453 40.5127L233.657 39.7909ZM224.207 38.8367L224.147 38.0891L223.622 38.1314L223.682 38.8789L223.743 39.6265L224.268 39.5842L224.207 38.8367ZM223.682 38.8789L223.622 38.1314L223.097 38.1736L223.157 38.9212L223.218 39.6688L223.743 39.6265L223.682 38.8789ZM223.157 38.9212L223.097 38.1736C219.954 38.4268 216.811 38.6374 213.667 38.8055L213.707 39.5544L213.747 40.3033C216.904 40.1345 220.061 39.923 223.218 39.6688L223.157 38.9212ZM213.707 39.5544L213.667 38.8055L213.142 38.8335L213.182 39.5825L213.222 40.3314L213.747 40.3033L213.707 39.5544ZM213.182 39.5825L213.142 38.8335L212.617 38.8616L212.657 39.6106L212.697 40.3595L213.222 40.3314L213.182 39.5825ZM212.657 39.6106L212.617 38.8616C209.492 39.0287 206.367 39.0395 203.242 38.8938L203.207 39.6429L203.172 40.3921C206.347 40.5402 209.522 40.5293 212.697 40.3595L212.657 39.6106ZM203.207 39.6429L203.242 38.8938L202.717 38.8693L202.682 39.6185L202.647 40.3677L203.172 40.3921L203.207 39.6429ZM202.682 39.6185L202.717 38.8693L202.192 38.8448L202.157 39.594L202.122 40.3432L202.647 40.3677L202.682 39.6185ZM202.157 39.594L202.192 38.8448C199.032 38.6975 195.871 38.6163 192.711 38.6013L192.707 39.3513L192.704 40.1013C195.843 40.1162 198.983 40.1968 202.122 40.3432L202.157 39.594ZM192.707 39.3513L192.711 38.6013L192.186 38.5988L192.182 39.3488L192.179 40.0988L192.704 40.1013L192.707 39.3513ZM192.182 39.3488L192.186 38.5988L191.661 38.5963L191.657 39.3463L191.654 40.0963L192.179 40.0988L192.182 39.3488ZM191.657 39.3463L191.661 38.5963C188.457 38.5811 185.255 38.9073 182.054 39.5741L182.207 40.3084L182.36 41.0426C185.46 40.3967 188.557 40.0816 191.654 40.0963L191.657 39.3463ZM182.207 40.3084L182.054 39.5741L181.529 39.6835L181.682 40.4178L181.835 41.152L182.36 41.0426L182.207 40.3084ZM181.682 40.4178L181.529 39.6835L181.004 39.7929L181.157 40.5272L181.31 41.2614L181.835 41.152L181.682 40.4178ZM181.157 40.5272L181.004 39.7929C177.982 40.4227 174.961 40.2708 171.929 39.3316L171.707 40.048L171.485 40.7645C174.754 41.7769 178.033 41.9443 181.31 41.2614L181.157 40.5272ZM171.707 40.048L171.929 39.3316L171.404 39.169L171.182 39.8854L170.96 40.6018L171.485 40.7645L171.707 40.048ZM171.182 39.8854L171.404 39.169L170.879 39.0064L170.657 39.7228L170.435 40.4392L170.96 40.6018L171.182 39.8854ZM170.657 39.7228L170.879 39.0064C167.678 38.0147 164.472 37.3974 161.263 37.1565L161.207 37.9044L161.151 38.6523C164.242 38.8844 167.337 39.4794 170.435 40.4392L170.657 39.7228ZM161.207 37.9044L161.263 37.1565L160.738 37.1171L160.682 37.865L160.626 38.6129L161.151 38.6523L161.207 37.9044ZM160.682 37.865L160.738 37.1171L160.213 37.0776L160.157 37.8255L160.101 38.5734L160.626 38.6129L160.682 37.865ZM160.157 37.8255L160.213 37.0776C157.047 36.8399 153.881 36.7062 150.714 36.6765L150.707 37.4265L150.7 38.1764C153.834 38.2058 156.967 38.3381 160.101 38.5734L160.157 37.8255ZM150.707 37.4265L150.714 36.6765L150.189 36.6716L150.182 37.4216L150.175 38.1715L150.7 38.1764L150.707 37.4265ZM150.182 37.4216L150.189 36.6716L149.664 36.6667L149.657 37.4166L149.65 38.1666L150.175 38.1715L150.182 37.4216ZM149.657 37.4166L149.664 36.6667C146.468 36.6367 143.272 36.9031 140.077 37.4653L140.207 38.204L140.337 38.9426C143.443 38.396 146.547 38.1375 149.65 38.1666L149.657 37.4166ZM140.207 38.204L140.077 37.4653L139.552 37.5578L139.682 38.2964L139.812 39.035L140.337 38.9426L140.207 38.204ZM139.682 38.2964L139.552 37.5578L139.027 37.6502L139.157 38.3888L139.287 39.1274L139.812 39.035L139.682 38.2964ZM139.157 38.3888L139.027 37.6502C135.894 38.2016 132.762 38.6414 129.629 38.9696L129.707 39.7155L129.785 40.4614C132.953 40.1295 136.12 39.6849 139.287 39.1274L139.157 38.3888ZM129.707 39.7155L129.629 38.9696L129.104 39.0246L129.182 39.7705L129.26 40.5164L129.785 40.4614L129.707 39.7155ZM129.182 39.7705L129.104 39.0246L128.579 39.0796L128.657 39.8255L128.735 40.5714L129.26 40.5164L129.182 39.7705ZM128.657 39.8255L128.579 39.0796C125.454 39.407 122.33 39.5751 119.205 39.584L119.207 40.334L119.209 41.084C122.385 41.0749 125.56 40.9041 128.735 40.5714L128.657 39.8255ZM119.207 40.334L119.205 39.584L118.68 39.5855L118.682 40.3355L118.684 41.0855L119.209 41.084L119.207 40.334ZM118.682 40.3355L118.68 39.5855L118.155 39.587L118.157 40.337L118.159 41.087L118.684 41.0855L118.682 40.3355ZM118.157 40.337L118.155 39.587C115.07 39.5959 111.982 39.2118 108.891 38.4331L108.707 39.1604L108.524 39.8877C111.733 40.6959 114.945 41.0962 118.159 41.087L118.157 40.337ZM108.707 39.1604L108.891 38.4331L108.366 38.3008L108.182 39.0281L107.999 39.7554L108.524 39.8877L108.707 39.1604ZM108.182 39.0281L108.366 38.3008L107.841 38.1686L107.657 38.8959L107.474 39.6232L107.999 39.7554L108.182 39.0281ZM107.657 38.8959L107.841 38.1686C104.62 37.3573 101.394 37.0387 98.1664 37.2152L98.2073 37.964L98.2483 38.7129C101.321 38.5449 104.395 38.8476 107.474 39.6232L107.657 38.8959ZM98.2073 37.964L98.1664 37.2152L97.6414 37.2439L97.6823 37.9928L97.7233 38.7416L98.2483 38.7129L98.2073 37.964ZM97.6823 37.9928L97.6414 37.2439L97.1164 37.2726L97.1573 38.0215L97.1983 38.7703L97.7233 38.7416L97.6823 37.9928ZM97.1573 38.0215L97.1164 37.2726C93.9053 37.4481 90.6973 38.0136 87.4934 38.9672L87.7073 39.686L87.9212 40.4048C91.0173 39.4834 94.1093 38.9392 97.1983 38.7703L97.1573 38.0215ZM87.7073 39.686L87.4934 38.9672L86.9684 39.1234L87.1823 39.8422L87.3962 40.5611L87.9212 40.4048L87.7073 39.686ZM87.1823 39.8422L86.9684 39.1234L86.4434 39.2796L86.6573 39.9985L86.8712 40.7173L87.3962 40.5611L87.1823 39.8422ZM86.6573 39.9985L86.4434 39.2796C83.3612 40.1969 80.2849 40.6442 77.2121 40.6246L77.2073 41.3746L77.2025 42.1246C80.4297 42.1451 83.6534 41.675 86.8712 40.7173L86.6573 39.9985ZM77.2073 41.3746L77.2121 40.6246L76.6871 40.6213L76.6823 41.3712L76.6775 42.1212L77.2025 42.1246L77.2073 41.3746ZM76.6823 41.3712L76.6871 40.6213L76.1621 40.6179L76.1573 41.3679L76.1525 42.1179L76.6775 42.1212L76.6823 41.3712ZM76.1573 41.3679L76.1621 40.6179C73.0644 40.5982 69.9653 40.257 66.8642 39.5937L66.7073 40.3271L66.5504 41.0605C69.7493 41.7448 72.9503 42.0975 76.1525 42.1179L76.1573 41.3679ZM66.7073 40.3271L66.8642 39.5937L66.3392 39.4814L66.1823 40.2148L66.0254 40.9482L66.5504 41.0605L66.7073 40.3271ZM66.1823 40.2148L66.3392 39.4814L65.8142 39.3691L65.6573 40.1025L65.5004 40.836L66.0254 40.9482L66.1823 40.2148ZM65.6573 40.1025L65.8142 39.3691C62.551 38.6711 59.2847 38.7329 56.0244 39.5528L56.2073 40.2802L56.3902 41.0075C59.4299 40.2431 62.4636 40.1864 65.5004 40.836L65.6573 40.1025ZM56.2073 40.2802L56.0244 39.5528L55.4994 39.6849L55.6823 40.4122L55.8652 41.1396L56.3902 41.0075L56.2073 40.2802ZM55.6823 40.4122L55.4994 39.6849L54.9744 39.8169L55.1573 40.5443L55.3402 41.2716L55.8652 41.1396L55.6823 40.4122ZM55.1573 40.5443L54.9744 39.8169C51.9092 40.5878 48.8493 40.8008 45.7907 40.4586L45.7073 41.2039L45.6239 41.9493C48.8653 42.3119 52.1054 42.0851 55.3402 41.2716L55.1573 40.5443ZM45.7073 41.2039L45.7907 40.4586L45.2657 40.3999L45.1823 41.1452L45.0989 41.8906L45.6239 41.9493L45.7073 41.2039ZM45.1823 41.1452L45.2657 40.3999L44.7407 40.3411L44.6573 41.0865L44.5739 41.8318L45.0989 41.8906L45.1823 41.1452ZM44.6573 41.0865L44.7407 40.3411C41.6355 39.9937 38.5283 39.3639 35.4186 38.4509L35.2073 39.1705L34.996 39.8902C38.1863 40.8269 41.3791 41.4744 44.5739 41.8318L44.6573 41.0865ZM35.2073 39.1705L35.4186 38.4509L34.8936 38.2968L34.6823 39.0164L34.471 39.736L34.996 39.8902L35.2073 39.1705ZM34.6823 39.0164L34.8936 38.2968L34.3686 38.1426L34.1573 38.8622L33.946 39.5819L34.471 39.736L34.6823 39.0164ZM34.1573 38.8622L34.3686 38.1426C31.0947 37.1814 27.8116 37.0923 24.5324 37.8785L24.7073 38.6078L24.8822 39.3371C27.903 38.6128 30.9199 38.6934 33.946 39.5819L34.1573 38.8622ZM24.7073 38.6078L24.5324 37.8785L24.0074 38.0044L24.1823 38.7337L24.3572 39.463L24.8822 39.3371L24.7073 38.6078ZM24.1823 38.7337L24.0074 38.0044L23.4824 38.1302L23.6573 38.8596L23.8322 39.5889L24.3572 39.463L24.1823 38.7337ZM23.6573 38.8596L23.4824 38.1302C20.4209 38.8643 17.3804 39.0191 14.3561 38.598L14.2527 39.3409L14.1492 40.0837C17.3644 40.5314 20.5937 40.3654 23.8322 39.5889L23.6573 38.8596ZM14.2527 39.3409L14.3561 38.598L13.8361 38.5256L13.7327 39.2685L13.6293 40.0113L14.1492 40.0837L14.2527 39.3409ZM13.7327 39.2685L13.8361 38.5256L13.3162 38.4532L13.2128 39.1961L13.1093 39.9389L13.6293 40.0113L13.7327 39.2685ZM13.2128 39.1961L13.3162 38.4532C10.3569 38.0412 7.71409 36.7666 5.37509 34.6054L4.86612 35.1563L4.35715 35.7071C6.9075 38.0636 9.82913 39.4821 13.1093 39.9389L13.2128 39.1961ZM4.86612 35.1563L5.37509 34.6054L4.96765 34.229L4.45867 34.7798L3.9497 35.3307L4.35715 35.7071L4.86612 35.1563ZM4.45867 34.7798L4.96765 34.229L4.5602 33.8525L4.05123 34.4034L3.54226 34.9542L3.9497 35.3307L4.45867 34.7798ZM4.05123 34.4034L4.5602 33.8525C2.28251 31.748 1.2864 29.206 1.53795 26.1646L0.790502 26.1028L0.0430536 26.041C-0.247115 29.5494 0.9306 32.5412 3.54226 34.9542L4.05123 34.4034ZM0.790502 26.1028L1.53795 26.1646L1.58309 25.6188L0.835645 25.557L0.0881966 25.4952L0.0430536 26.041L0.790502 26.1028ZM0.835645 25.557L1.58309 25.6188L1.62824 25.073L0.880787 25.0112L0.13334 24.9493L0.0881966 25.4952L0.835645 25.557ZM0.880787 25.0112L1.62824 25.073C1.89849 21.8053 2.21133 18.604 2.56673 15.469L1.8215 15.3845L1.07627 15.3001C0.719101 18.4507 0.404799 21.6671 0.13334 24.9493L0.880787 25.0112ZM1.8215 15.3845L2.56673 15.469L2.62611 14.9452L1.88088 14.8607L1.13565 14.7762L1.07627 15.3001L1.8215 15.3845ZM1.88088 14.8607L2.62611 14.9452L2.68549 14.4214L1.94026 14.3369L1.19503 14.2524L1.13565 14.7762L1.88088 14.8607ZM1.94026 14.3369L2.68549 14.4214C3.02196 11.4533 4.26851 8.92632 6.44275 6.81518L5.92029 6.2771L5.39783 5.73902C2.97793 8.08868 1.57112 10.9349 1.19503 14.2524L1.94026 14.3369ZM5.92029 6.2771L6.44275 6.81518L6.8256 6.44345L6.30314 5.90537L5.78067 5.36729L5.39783 5.73902L5.92029 6.2771ZM6.30314 5.90537L6.8256 6.44345L7.20845 6.07172L6.68598 5.53364L6.16352 4.99555L5.78067 5.36729L6.30314 5.90537ZM6.68598 5.53364L7.20845 6.07172C8.33903 4.97395 9.29279 4.19108 10.0743 3.69992C10.8808 3.19303 11.3932 3.06787 11.677 3.09624L11.7516 2.34996L11.8262 1.60367C11.03 1.5241 10.1581 1.87558 9.27611 2.42992C8.36905 2.99999 7.33001 3.86293 6.16352 4.99555L6.68598 5.53364ZM11.7516 2.34996L11.677 3.09624L11.8571 3.11423L11.9316 2.36795L12.0062 1.62167L11.8262 1.60367L11.7516 2.34996ZM11.9316 2.36795L11.8571 3.11423L12.0371 3.13222L12.1116 2.38594L12.1862 1.63966L12.0062 1.62167L11.9316 2.36795ZM12.1116 2.38594L12.0371 3.13222C13.1113 3.23959 15.2215 3.4716 18.3722 3.8289L18.4567 3.08368L18.5412 2.33846C15.3919 1.98132 13.272 1.74817 12.1862 1.63966L12.1116 2.38594ZM18.4567 3.08368L18.3722 3.8289L18.8972 3.88844L18.9817 3.14322L19.0662 2.39799L18.5412 2.33846L18.4567 3.08368Z"
        fill="black" />
    <path
        d="M236.116 29.8899C235.529 29.7432 235.053 29.4352 234.686 28.9659C234.334 28.5112 234.048 27.9612 233.828 27.3159C233.813 27.1252 233.806 26.8612 233.806 26.5239C233.821 26.1865 233.843 25.8712 233.872 25.5779C233.901 25.2845 233.931 25.1159 233.96 25.0719C234.004 25.0425 234.026 24.9545 234.026 24.8079C234.011 24.7492 234.019 24.6539 234.048 24.5219C234.092 24.3752 234.136 24.2285 234.18 24.0819C234.253 23.9059 234.29 23.7665 234.29 23.6639C234.29 23.5465 234.283 23.4585 234.268 23.3999C234.268 23.3999 234.29 23.3559 234.334 23.2679C234.378 23.1652 234.429 23.0845 234.488 23.0259C234.576 22.9379 234.613 22.8499 234.598 22.7619C234.598 22.6739 234.598 22.6299 234.598 22.6299C234.583 22.5712 234.598 22.4905 234.642 22.3879C234.686 22.2852 234.73 22.2045 234.774 22.1459C234.803 22.1165 234.84 22.0579 234.884 21.9699C234.943 21.8672 234.972 21.8159 234.972 21.8159C234.972 21.7719 235.001 21.6545 235.06 21.4639C235.133 21.2732 235.214 21.0679 235.302 20.8479C235.39 20.6132 235.471 20.4005 235.544 20.2099C235.632 20.0192 235.698 19.8945 235.742 19.8359V19.7919C235.801 19.6452 235.881 19.4912 235.984 19.3299C235.999 19.2565 236.035 19.1392 236.094 18.9779C236.153 18.8019 236.219 18.6332 236.292 18.4719C236.453 18.1199 236.651 17.7239 236.886 17.2839C237.135 16.8292 237.399 16.3819 237.678 15.9419C237.957 15.4872 238.221 15.0839 238.47 14.7319C238.734 14.3652 238.961 14.0939 239.152 13.9179C239.401 13.6392 239.651 13.4412 239.9 13.3239C240.164 13.1919 240.406 13.2359 240.626 13.4559C240.729 13.5585 240.817 13.7125 240.89 13.9179C240.963 14.1085 240.993 14.2919 240.978 14.4679C240.978 14.6292 240.919 14.7172 240.802 14.7319C240.699 14.7905 240.56 14.9592 240.384 15.2379C240.208 15.5019 240.01 15.8172 239.79 16.1839C239.585 16.5505 239.379 16.9319 239.174 17.3279C238.969 17.7092 238.778 18.0539 238.602 18.3619C238.411 18.7872 238.235 19.1612 238.074 19.4839C237.913 19.7919 237.832 19.9459 237.832 19.9459C237.817 19.9899 237.803 20.0265 237.788 20.0559C237.773 20.0852 237.759 20.1145 237.744 20.1439C237.524 20.5985 237.341 21.0165 237.194 21.3979C237.047 21.7645 236.901 22.1532 236.754 22.5639C236.666 22.6665 236.615 22.7692 236.6 22.8719C236.585 22.9745 236.578 23.0259 236.578 23.0259C236.549 23.0112 236.527 23.0479 236.512 23.1359C236.497 23.2092 236.468 23.2972 236.424 23.3999C236.351 23.4585 236.307 23.5539 236.292 23.6859C236.277 23.8032 236.27 23.9205 236.27 24.0379C236.167 24.3019 236.072 24.6245 235.984 25.0059C235.896 25.3725 235.83 25.7319 235.786 26.0839C235.757 26.4212 235.749 26.6852 235.764 26.8759C235.793 27.1252 235.859 27.3379 235.962 27.5139C236.079 27.6752 236.241 27.8072 236.446 27.9099C236.607 27.9832 236.754 28.0492 236.886 28.1079C237.018 28.1519 237.135 28.1739 237.238 28.1739C237.355 28.1885 237.502 28.1885 237.678 28.1739C237.869 28.1445 238.125 28.1005 238.448 28.0419H238.426C238.617 28.0125 238.815 27.9759 239.02 27.9319C239.24 27.8732 239.445 27.8219 239.636 27.7779C239.812 27.7485 239.981 27.7192 240.142 27.6899C240.303 27.6459 240.428 27.6092 240.516 27.5799C240.839 27.4919 241.095 27.4185 241.286 27.3599C241.491 27.3012 241.631 27.3012 241.704 27.3599C241.777 27.4185 241.858 27.5285 241.946 27.6899C242.034 27.8512 242.056 27.9979 242.012 28.1299C241.983 28.2032 241.836 28.3499 241.572 28.5699C241.308 28.8045 241.007 29.0319 240.67 29.2519C240.333 29.4865 240.025 29.6479 239.746 29.7359C239.453 29.8679 239.057 29.9559 238.558 29.9999C238.074 30.0585 237.605 30.0732 237.15 30.0439C236.695 30.0145 236.351 29.9632 236.116 29.8899ZM244.911 28.3939C244.72 28.3939 244.566 28.3572 244.449 28.2839C244.346 28.2105 244.214 28.1079 244.053 27.9759C243.774 27.6825 243.547 27.3672 243.371 27.0299C243.21 26.6925 243.151 26.3992 243.195 26.1499C243.239 26.0325 243.254 25.9225 243.239 25.8199C243.239 25.7025 243.239 25.6439 243.239 25.6439C243.166 25.5705 243.144 25.5265 243.173 25.5119C243.202 25.4825 243.232 25.4385 243.261 25.3799C243.349 25.3799 243.378 25.2992 243.349 25.1379C243.32 25.0205 243.364 24.7712 243.481 24.3899C243.613 23.9939 243.789 23.6199 244.009 23.2679C244.097 23.1212 244.229 22.9305 244.405 22.6959C244.581 22.4465 244.772 22.2045 244.977 21.9699C245.197 21.7205 245.395 21.5225 245.571 21.3759C245.938 21.0679 246.275 20.8185 246.583 20.6279C246.906 20.4372 247.228 20.3052 247.551 20.2319C247.874 20.1585 248.204 20.1219 248.541 20.1219C248.893 20.1219 249.179 20.2392 249.399 20.4739C249.736 20.6205 249.971 20.8185 250.103 21.0679C250.25 21.3172 250.345 21.6399 250.389 22.0359C250.433 22.4759 250.389 23.0185 250.257 23.6639C250.125 24.2945 249.766 25.0279 249.179 25.8639C248.812 26.3919 248.453 26.8025 248.101 27.0959C247.749 27.3892 247.36 27.6605 246.935 27.9099C246.627 28.1152 246.297 28.2399 245.945 28.2839C245.593 28.3279 245.248 28.3645 244.911 28.3939ZM247.155 25.7099C247.478 25.4312 247.705 25.1232 247.837 24.7859C247.984 24.4485 248.138 24.0525 248.299 23.5979C248.358 23.5099 248.394 23.3632 248.409 23.1579C248.438 22.9525 248.446 22.7545 248.431 22.5639C248.416 22.3585 248.365 22.2412 248.277 22.2119C248.145 22.1092 248.013 22.0872 247.881 22.1459C247.749 22.1899 247.58 22.2852 247.375 22.4319C246.935 22.7985 246.524 23.2239 246.143 23.7079C245.776 24.1772 245.52 24.7565 245.373 25.4459C245.329 25.8125 245.366 26.0912 245.483 26.2819C245.615 26.4579 245.82 26.5092 246.099 26.4359C246.392 26.3479 246.744 26.1059 247.155 25.7099ZM253.894 32.9479C253.483 33.1092 253.05 33.0799 252.596 32.8599C252.156 32.6545 251.774 32.3245 251.452 31.8699C251.393 31.7819 251.305 31.6205 251.188 31.3859C251.07 31.1659 250.953 30.9239 250.836 30.6599C250.733 30.3959 250.652 30.1685 250.594 29.9779C250.55 29.7872 250.55 29.6772 250.594 29.6479C250.652 29.4865 250.784 29.3912 250.99 29.3619C251.195 29.3325 251.4 29.3399 251.606 29.3839C251.811 29.4425 251.928 29.5159 251.958 29.6039C252.002 29.7065 252.046 29.8092 252.09 29.9119C252.134 30.0292 252.185 30.1319 252.244 30.2199C252.317 30.3225 252.383 30.4105 252.442 30.4839C252.603 30.7332 252.779 30.9019 252.97 30.9899C253.16 31.0925 253.307 31.1072 253.41 31.0339C253.659 30.8432 253.842 30.6159 253.96 30.3519C254.092 30.1025 254.26 29.6552 254.466 29.0099C254.627 28.4672 254.766 27.9979 254.884 27.6019C255.001 27.2059 255.126 26.8392 255.258 26.5019C255.302 26.3259 255.353 26.1792 255.412 26.0619C255.485 25.9299 255.551 25.8345 255.61 25.7759H255.742C255.419 25.9812 255.148 26.1865 254.928 26.3919C254.708 26.5972 254.407 26.7805 254.026 26.9419C253.938 27.0445 253.718 27.1105 253.366 27.1399C253.028 27.1545 252.698 27.1105 252.376 27.0079C252.17 26.8905 252.002 26.7732 251.87 26.6559C251.752 26.5239 251.65 26.3772 251.562 26.2159C251.488 26.0545 251.408 25.8639 251.32 25.6439C251.217 25.4239 251.202 25.0645 251.276 24.5659C251.349 24.0672 251.481 23.5685 251.672 23.0699C251.848 22.7032 252.104 22.3072 252.442 21.8819C252.779 21.4565 253.138 21.0752 253.52 20.7379C253.901 20.3859 254.246 20.1659 254.554 20.0779C254.671 20.0192 254.876 19.9532 255.17 19.8799C255.463 19.7919 255.742 19.7845 256.006 19.8579C256.255 19.8872 256.446 19.9459 256.578 20.0339C256.71 20.1072 256.922 20.2685 257.216 20.5179C257.406 20.7085 257.641 20.9579 257.92 21.2659C258.198 21.5592 258.374 21.8085 258.448 22.0139C258.55 22.2339 258.572 22.4759 258.514 22.7399C258.455 22.9892 258.352 23.2092 258.206 23.3999C258.074 23.5905 257.934 23.7812 257.788 23.9719C257.641 24.1625 257.531 24.4265 257.458 24.7639C257.384 25.2039 257.245 25.7025 257.04 26.2599C256.834 26.8025 256.673 27.3085 256.556 27.7779L256.204 29.1419C255.837 30.3885 255.434 31.2905 254.994 31.8479C254.554 32.4199 254.187 32.7865 253.894 32.9479ZM253.432 25.3799C253.725 25.3652 253.974 25.3359 254.18 25.2919C254.4 25.2332 254.605 25.1159 254.796 24.9399C254.986 24.7492 255.206 24.4632 255.456 24.0819C255.705 23.7299 255.881 23.4072 255.984 23.1139C256.086 22.8205 256.123 22.4905 256.094 22.1239C256.079 21.8892 256.013 21.7352 255.896 21.6619C255.778 21.5885 255.624 21.5665 255.434 21.5959C255.155 21.6399 254.906 21.7572 254.686 21.9479C254.466 22.1239 254.209 22.4025 253.916 22.7839C253.696 23.0772 253.512 23.4292 253.366 23.8399C253.219 24.2799 253.153 24.6319 253.168 24.8959C253.197 25.1599 253.285 25.3212 253.432 25.3799ZM260.961 28.5259C260.609 28.5259 260.301 28.3425 260.037 27.9759C259.788 27.5945 259.634 27.1399 259.575 26.6119C259.59 26.4945 259.605 26.3259 259.619 26.1059C259.649 25.8859 259.678 25.6585 259.707 25.4239C259.766 25.1452 259.847 24.7859 259.949 24.3459C260.052 23.9059 260.162 23.4659 260.279 23.0259C260.397 22.5712 260.499 22.1825 260.587 21.8599C260.675 21.5225 260.727 21.3245 260.741 21.2659C260.829 21.0605 261.027 21.0092 261.335 21.1119C261.643 21.2145 261.907 21.4345 262.127 21.7719C262.215 21.8892 262.267 22.0285 262.281 22.1899C262.311 22.3512 262.289 22.5859 262.215 22.8939C262.157 23.2019 262.039 23.6565 261.863 24.2579C261.702 24.8445 261.577 25.3212 261.489 25.6879C261.416 26.0399 261.387 26.4139 261.401 26.8099C261.343 27.4845 261.284 27.9465 261.225 28.1959C261.167 28.4305 261.079 28.5405 260.961 28.5259ZM262.985 19.3959C262.927 19.4399 262.868 19.4619 262.809 19.4619C262.765 19.4472 262.685 19.4032 262.567 19.3299C262.465 19.3152 262.333 19.2492 262.171 19.1319C262.025 18.9999 261.893 18.8679 261.775 18.7359C261.673 18.6039 261.621 18.5232 261.621 18.4939C261.607 18.3472 261.614 18.1125 261.643 17.7899C261.687 17.4672 261.768 17.1665 261.885 16.8879C262.017 16.5945 262.193 16.4405 262.413 16.4259C262.472 16.4259 262.597 16.4552 262.787 16.5139C262.993 16.5725 263.205 16.6459 263.425 16.7339C263.543 16.9539 263.653 17.2399 263.755 17.5919C263.858 17.9439 263.865 18.2885 263.777 18.6259C263.704 18.9485 263.44 19.2052 262.985 19.3959ZM270.736 28.4599C270.516 28.4599 270.303 28.3939 270.098 28.2619C269.892 28.1152 269.724 27.9172 269.592 27.6679C269.46 27.4039 269.394 27.0959 269.394 26.7439C269.394 26.5239 269.43 26.2159 269.504 25.8199C269.592 25.4092 269.716 24.8959 269.878 24.2799C269.907 24.0745 269.929 23.9425 269.944 23.8839C269.973 23.8252 269.988 23.7665 269.988 23.7079C269.988 23.6785 269.98 23.6565 269.966 23.6419C269.966 23.6125 269.951 23.5979 269.922 23.5979C269.804 23.5979 269.643 23.6785 269.438 23.8399C269.247 23.9865 269.027 24.1625 268.778 24.3679C268.734 24.3972 268.682 24.4339 268.624 24.4779C268.58 24.5219 268.528 24.5659 268.47 24.6099C268.426 24.6539 268.374 24.6979 268.316 24.7419C268.169 24.8299 267.942 24.9985 267.634 25.2479C267.34 25.4972 267.032 25.7612 266.71 26.0399C266.402 26.3185 266.13 26.5532 265.896 26.7439C265.778 26.8319 265.676 26.9052 265.588 26.9639C265.514 27.0225 265.463 27.0519 265.434 27.0519C265.404 27.0519 265.287 27.0152 265.082 26.9419C264.891 26.8539 264.7 26.7365 264.51 26.5899C264.334 26.4285 264.246 26.2452 264.246 26.0399C264.246 25.9079 264.297 25.6439 264.4 25.2479C264.517 24.8519 264.678 24.3825 264.884 23.8399C265.089 23.2972 265.324 22.7472 265.588 22.1899C265.646 22.0579 265.69 21.8819 265.72 21.6619C265.749 21.4419 265.778 21.2292 265.808 21.0239C265.852 20.8039 265.925 20.6425 266.028 20.5399C266.072 20.4665 266.123 20.4152 266.182 20.3859C266.255 20.3419 266.328 20.3199 266.402 20.3199C266.548 20.3199 266.688 20.3565 266.82 20.4299C266.952 20.4885 267.076 20.5912 267.194 20.7379C267.414 20.9725 267.531 21.2512 267.546 21.5739C267.575 21.8819 267.553 22.1825 267.48 22.4759C267.406 22.7692 267.326 23.0112 267.238 23.2019C267.15 23.3779 267.106 23.4512 267.106 23.4219C267.164 23.3925 267.245 23.3192 267.348 23.2019C267.465 23.0845 267.663 22.9452 267.942 22.7839C268.323 22.4905 268.616 22.2852 268.822 22.1679C269.027 22.0359 269.181 21.9405 269.284 21.8819C269.401 21.8232 269.504 21.7572 269.592 21.6839C269.665 21.6252 269.716 21.5885 269.746 21.5739C269.79 21.5592 269.812 21.5519 269.812 21.5519C269.856 21.5519 269.929 21.5225 270.032 21.4639C270.149 21.4052 270.259 21.3759 270.362 21.3759C270.508 21.3759 270.662 21.4125 270.824 21.4859C270.985 21.5445 271.124 21.6325 271.242 21.7499C271.359 21.8525 271.418 21.9625 271.418 22.0799C271.418 22.1239 271.432 22.1605 271.462 22.1899C271.491 22.2192 271.52 22.2559 271.55 22.2999C271.623 22.3879 271.704 22.5125 271.792 22.6739C271.894 22.8205 271.946 23.0625 271.946 23.3999C271.946 23.6345 271.894 23.9792 271.792 24.4339C271.689 24.8885 271.579 25.3359 271.462 25.7759C271.344 26.2305 271.286 26.5972 271.286 26.8759C271.3 27.1399 271.33 27.3452 271.374 27.4919C271.418 27.6239 271.44 27.7339 271.44 27.8219C271.44 27.9392 271.381 28.0785 271.264 28.2399C271.146 28.3865 270.97 28.4599 270.736 28.4599Z"
        fill="#F8F8F6" />
</svg>