<svg width="21" height="27" viewBox="0 0 21 27" fill="none" xmlns="http://www.w3.org/2000/svg">
    <path
        d="M2 1.02393C2.22956 3.97934 3.15478 9.91078 3.50608 14.7211C3.85043 17.0011 4.31651 19.0719 4.66433 21.0091C4.78259 22.0411 4.78259 23.1725 4.78259 24.3382"
        stroke="#121212" stroke-width="2" stroke-linecap="round" />
    <path
        d="M17.644 25.0483C17.0498 21.6155 16.7396 16.5853 16.6556 7.56211C16.5992 5.59172 16.3965 4.68054 16.3056 3.75876C16.2146 2.83698 16.2414 1.93221 16.269 1.00002"
        stroke="#121212" stroke-width="2" stroke-linecap="round" />
    <path
        d="M2.38342 1.02393C1.64178 1.16551 1.28109 1.45298 1.146 1.66536C0.722451 2.33125 1.34728 4.59366 1.42631 5.73924C1.50443 6.8717 1.57288 8.0261 1.62895 9.20707C1.69465 10.591 1.70797 12.0292 1.76403 13.5309C1.85971 16.0938 1.88764 17.3924 1.97781 18.8243C2.06371 20.1883 2.15782 21.4684 2.23684 22.8649C2.27072 23.4636 2.27062 24.047 2.34897 24.5468C2.38832 24.7979 2.49419 24.9051 2.5847 24.978C2.67521 25.051 2.76437 25.051 2.82144 24.874C3.19005 23.731 2.87919 21.1251 2.84508 18.9101C2.81181 16.7497 2.72114 14.6207 2.59787 13.0428C2.48233 11.5639 2.42935 10.1113 2.32736 8.78766C2.23324 7.56629 2.15917 6.10822 1.98997 4.71165C1.95586 4.38771 1.93357 4.10454 1.91094 3.81707C1.88831 3.5296 1.86602 3.24643 1.84306 2.95467"
        stroke="#121212" stroke-width="2" stroke-linecap="round" />
    <path
        d="M17.0058 1.26147C17.0605 1.25985 17.1961 1.18629 17.4819 1.07246C17.6582 1.00224 17.9066 1.02406 18.0633 2.02787C18.5135 4.91246 18.404 7.39929 18.5569 9.7636C18.9419 15.7144 18.9163 20.0292 18.9866 21.005C19.0543 22.8154 18.9808 24.0336 18.8749 24.2117C18.8764 24.317 18.9899 24.4527 18.8706 25.0211"
        stroke="#121212" stroke-width="2" stroke-linecap="round" />
</svg>
