<svg width="39" height="26" viewBox="0 0 39 26" fill="none" xmlns="http://www.w3.org/2000/svg">
    <path
        d="M38 5.0146C37.6324 12.0067 37.1472 24.4801 36.0482 23.9947C33.5889 22.9086 31.8836 21.203 29.6764 19.6174C27.9055 18.3452 26.2451 17.0646 25.078 15.3002C24.7872 14.8605 24.4072 14.5101 24.2804 14.0832C23.759 12.3276 26.2304 10.3791 28.0076 8.97228C29.9892 7.40363 32.4791 5.75176 34.3169 4.5931C34.8095 4.28838 35.2947 3.9271 35.7872 3.68077C36.2798 3.43444 36.765 3.31402 37.2649 3.18994"
        stroke="black" stroke-width="2" stroke-linecap="round" />
    <path
        d="M17.4161 1C17.0485 1.48171 16.8059 3.66401 16.6203 16.0352C16.5573 20.2348 15.9458 22.7609 15.7032 24.6476C15.6252 25.2541 14.9754 24.9687 14.4829 24.6038C12.3931 23.0555 10.8071 21.2026 8.41977 18.7083C6.56295 16.7683 3.94827 15.4805 1.98544 14.4459C1.47286 14.1757 1.0077 13.7799 1.00035 13.2927C0.958161 10.4969 4.78634 9.03581 6.99361 7.87715C9.12861 6.75642 11.4026 5.02155 13.121 3.56C13.6117 3.19325 14.2182 2.83196 14.7126 2.46521C15.207 2.09845 15.5709 1.73717 15.9458 1.36494"
        stroke="black" stroke-width="2" stroke-linecap="round" />
    <path
        d="M35.8314 23.1677C35.8314 23.1677 24.2337 19.1815 24.4808 13.3533C24.729 7.49948 37.6442 3.82387 37.6442 3.82387L35.8314 23.1677Z"
        fill="#121212" />
    <path
        d="M2.06732 12.6474C1.94432 16.1942 15.5865 23.9415 15.5865 23.9415L16.298 2.41211C16.298 2.41211 2.15511 10.1161 2.06732 12.6474Z"
        fill="#121212" />
</svg>