<svg width="503" height="50" viewBox="0 0 503 50" fill="none" xmlns="http://www.w3.org/2000/svg">
    <path
        d="M1.36279 14.5479C1.36279 7.92045 6.73538 2.54785 13.3628 2.54785H489.363C495.99 2.54785 501.363 7.92043 501.363 14.5478V34.8858C501.363 41.5132 495.99 46.8858 489.363 46.8858H13.3628C6.73537 46.8858 1.36279 41.5132 1.36279 34.8858V14.5479Z"
        fill="#F8F8F6" />
    <path
        d="M28.5878 2.26094L28.3639 1.54513L28.5878 2.26094ZM29.1128 2.09676L29.3366 2.81257L29.1128 2.09676ZM29.6378 1.93258L29.4139 1.21676L29.6378 1.93258ZM40.1378 1.8082L39.9667 2.53842L40.1378 1.8082ZM49.5878 2.19244L49.4744 1.45107L49.5878 2.19244ZM50.1128 2.11211L50.2262 2.85348L50.1128 2.11211ZM50.6378 2.03178L50.5244 1.29041L50.6378 2.03178ZM60.0878 2.69342L59.8769 3.41316L60.0878 2.69342ZM61.1378 3.00111L61.3487 2.28138L61.1378 3.00111ZM70.5878 3.71219L70.6936 4.45469L70.5878 3.71219ZM71.6378 3.56252L71.532 2.82003L71.6378 3.56252ZM81.0878 3.39267L81.0083 4.13844L81.0878 3.39267ZM81.6128 3.44863L81.6923 2.70285L81.6128 3.44863ZM82.1378 3.50459L82.0583 4.25037L82.1378 3.50459ZM92.1128 3.82659L92.0869 3.07704L92.1128 3.82659ZM103.138 3.89467L103.105 4.64397L103.138 3.89467ZM112.588 3.82894L112.545 3.08016L112.588 3.82894ZM113.113 3.79893L113.156 4.54771L113.113 3.79893ZM113.638 3.76892L113.595 3.02014L113.638 3.76892ZM123.088 2.22399L123.283 2.9481L123.088 2.22399ZM123.613 2.08234L123.417 1.35824L123.613 2.08234ZM124.138 1.94069L124.333 2.6648L124.138 1.94069ZM133.588 2.12251L133.367 2.83923L133.588 2.12251ZM134.638 2.44622L134.859 1.7295L134.638 2.44622ZM144.088 2.38331L144.317 3.09729L144.088 2.38331ZM144.613 2.21447L144.383 1.50048L144.613 2.21447ZM145.138 2.04562L145.367 2.75961L145.138 2.04562ZM154.588 1.31787L154.464 2.05755L154.588 1.31787ZM155.113 1.40585L155.237 0.666161L155.113 1.40585ZM155.638 1.49383L155.514 2.23351L155.638 1.49383ZM165.088 2.10868L165.06 1.35921L165.088 2.10868ZM166.138 2.06936L166.166 2.81883L166.138 2.06936ZM175.588 1.80031L175.602 2.55017L175.588 1.80031ZM176.113 1.79008L176.098 1.04022L176.113 1.79008ZM176.638 1.77985L176.652 2.52971L176.638 1.77985ZM186.088 2.88244L185.904 3.60956L186.088 2.88244ZM186.613 3.01518L186.797 2.28807L186.613 3.01518ZM187.138 3.14793L186.954 3.87504L187.138 3.14793ZM196.588 4.42387L196.575 5.17376L196.588 4.42387ZM207.613 4.59109L207.603 5.34102L207.613 4.59109ZM217.588 3.95922L217.478 3.21731L217.588 3.95922ZM218.113 3.88147L218.223 4.62338L218.113 3.88147ZM218.638 3.80372L218.528 3.06181L218.638 3.80372ZM228.088 3.19713L228.073 3.94699L228.088 3.19713ZM238.588 2.67549L238.688 3.4188L238.588 2.67549ZM239.113 2.60488L239.013 1.86157L239.113 2.60488ZM239.638 2.53427L239.738 3.27757L239.638 2.53427ZM249.088 2.71383L248.96 3.45291L249.088 2.71383ZM249.613 2.80439L249.74 2.06531L249.613 2.80439ZM250.138 2.89496L250.01 3.63404L250.138 2.89496ZM259.588 2.48384L259.776 3.20979L259.588 2.48384ZM260.638 2.21135L260.449 1.4854L260.638 2.21135ZM270.088 1.73566L270.205 0.994941L270.088 1.73566ZM271.138 1.90243L271.02 2.64315L271.138 1.90243ZM280.588 2.10458L280.674 2.84958L280.588 2.10458ZM281.113 2.04365L281.026 1.29865L281.113 2.04365ZM281.638 1.98272L281.724 2.72772L281.638 1.98272ZM291.088 1.05382L291.148 1.8014L291.088 1.05382ZM291.613 1.01154L291.553 0.263956L291.613 1.01154ZM292.138 0.969252L292.198 1.71683L292.138 0.969252ZM301.588 1.2945L301.699 0.552734L301.588 1.2945ZM302.638 1.45135L302.527 2.19312L302.638 1.45135ZM312.088 3.10733L311.94 3.84261L312.088 3.10733ZM312.613 3.2129L312.761 2.47762L312.613 3.2129ZM313.138 3.31848L312.99 4.05376L313.138 3.31848ZM322.588 2.73244L322.82 3.44569L322.588 2.73244ZM323.113 2.56175L322.881 1.8485L323.113 2.56175ZM323.638 2.39106L323.87 3.10431L323.638 2.39106ZM333.088 0.772399L333.101 1.52228L333.088 0.772399ZM333.613 0.763237L333.6 0.0133517L333.613 0.763237ZM334.138 0.754076L334.151 1.50396L334.138 0.754076ZM343.588 2.26955L343.828 1.55908L343.588 2.26955ZM344.638 2.62465L344.398 3.33512L344.638 2.62465ZM354.088 4.2031L354.091 4.9531L354.088 4.2031ZM354.613 4.20094L354.61 3.45095L354.613 4.20094ZM355.138 4.19878L355.141 4.94877L355.138 4.19878ZM364.588 2.7783L364.801 3.49735L364.588 2.7783ZM365.638 2.46696L365.425 1.7479L365.638 2.46696ZM375.088 1.3472L375.043 2.09588L375.088 1.3472ZM375.613 1.37845L375.657 0.62978L375.613 1.37845ZM376.138 1.4097L376.093 2.15838L376.138 1.4097ZM385.588 2.45678L385.708 1.71644L385.588 2.45678ZM386.113 2.54187L385.993 3.28221L386.113 2.54187ZM386.638 2.62696L386.758 1.88662L386.638 2.62696ZM396.088 3.78409L396.15 3.03665L396.088 3.78409ZM396.613 3.82757L396.551 4.57501L396.613 3.82757ZM397.138 3.87105L397.076 4.61849L397.138 3.87105ZM406.588 3.98562L406.544 3.2369L406.588 3.98562ZM407.113 3.95487L407.157 4.70359L407.113 3.95487ZM407.638 3.92412L407.594 3.1754L407.638 3.92412ZM417.088 3.09652L417.175 3.84147L417.088 3.09652ZM417.613 3.03531L417.526 2.29036L417.613 3.03531ZM418.138 2.97411L418.225 3.71906L418.138 2.97411ZM427.588 3.25725L427.718 2.51867L427.588 3.25725ZM428.638 3.44258L428.507 4.18116L428.638 3.44258ZM448.588 2.72721L448.819 3.44071L448.588 2.72721ZM449.113 2.55716L448.882 1.84365L449.113 2.55716ZM449.638 2.3871L449.869 3.1006L449.638 2.3871ZM459.088 1.03431L459.116 0.284845L459.088 1.03431ZM460.138 1.07381L460.11 1.82328L460.138 1.07381ZM469.588 1.63855L469.527 2.38604L469.588 1.63855ZM470.113 1.68154L470.174 0.934048L470.113 1.68154ZM470.638 1.72454L470.577 2.47204L470.638 1.72454ZM480.088 2.48528L480.147 1.73762L480.088 2.48528ZM480.613 2.52681L480.554 3.27447L480.613 2.52681ZM481.138 2.56834L481.197 1.82067L481.138 2.56834ZM490.617 3.34719L490.681 2.5999L490.617 3.34719ZM491.674 3.43721L491.61 4.18451L491.674 3.43721ZM497.931 8.12968L498.638 7.88166L497.931 8.12968ZM498.098 8.60606L497.39 8.85408L498.098 8.60606ZM498.264 9.08243L498.972 8.83441L498.264 9.08243ZM500.78 18.0173L501.513 17.8575L500.78 18.0173ZM500.893 18.5337L500.16 18.6935L500.893 18.5337ZM501.006 19.0501L500.273 19.2099L501.006 19.0501ZM502.161 28.4225L502.911 28.4L502.161 28.4225ZM502.177 28.9475L501.427 28.9701L502.177 28.9475ZM502.193 29.4725L502.943 29.45L502.193 29.4725ZM500.35 38.6168L501.035 38.924L500.35 38.6168ZM500.13 39.1078L499.446 38.8006L500.13 39.1078ZM499.909 39.5989L499.225 39.2916L499.909 39.5989ZM493.414 45.3948L493.195 44.6775L493.414 45.3948ZM492.913 45.5478L493.132 46.2651L492.913 45.5478ZM492.412 45.7007L492.193 44.9834L492.412 45.7007ZM483.176 46.009L483.011 46.7406L483.176 46.009ZM482.651 45.8903L482.817 45.1588L482.651 45.8903ZM482.126 45.7716L481.961 46.5032L482.126 45.7716ZM472.676 45.9313L472.488 45.2054L472.676 45.9313ZM472.151 46.0677L472.34 46.7936L472.151 46.0677ZM471.626 46.2042L471.438 45.4783L471.626 46.2042ZM462.176 47.3308L462.192 46.581L462.176 47.3308ZM461.651 47.3195L461.635 48.0694L461.651 47.3195ZM461.126 47.3083L461.11 48.0581L461.126 47.3083ZM451.676 48.0181L451.549 47.2789L451.676 48.0181ZM450.626 48.1983L450.753 48.9375L450.626 48.1983ZM441.176 47.974L441.016 48.7066L441.176 47.974ZM440.651 47.859L440.812 47.1264L440.651 47.859ZM440.126 47.7439L439.966 48.4765L440.126 47.7439ZM430.676 45.9069L430.802 45.1675L430.676 45.9069ZM430.151 45.8178L430.026 46.5573L430.151 45.8178ZM429.626 45.7288L429.752 44.9893L429.626 45.7288ZM420.176 46.1668L420.367 46.8922L420.176 46.1668ZM419.651 46.3045L419.461 45.579L419.651 46.3045ZM419.126 46.4422L419.317 47.1677L419.126 46.4422ZM409.151 47.789L409.167 48.5388L409.151 47.789ZM408.626 47.7997L408.611 47.0498L408.626 47.7997ZM399.176 46.9055L399.022 47.6396L399.176 46.9055ZM398.651 46.7955L398.805 46.0614L398.651 46.7955ZM398.126 46.6854L397.972 47.4194L398.126 46.6854ZM388.676 45.7042L388.678 46.4542L388.676 45.7042ZM388.151 45.7052L388.15 44.9552L388.151 45.7052ZM387.626 45.7063L387.628 46.4563L387.626 45.7063ZM378.176 46.5828L378.312 47.3205L378.176 46.5828ZM377.651 46.6791L377.787 47.4168L377.651 46.6791ZM377.126 46.7755L376.991 46.0378L377.126 46.7755ZM367.676 46.3259L367.475 47.0484L367.676 46.3259ZM367.151 46.1796L367.353 45.4572L367.151 46.1796ZM366.626 46.0334L366.425 46.7558L366.626 46.0334ZM357.176 46.5087L356.91 45.8074L357.176 46.5087ZM356.651 46.7078L356.917 47.4091L356.651 46.7078ZM356.126 46.9069L355.86 46.2057L356.126 46.9069ZM346.676 47.3242L346.467 48.0443L346.676 47.3242ZM346.151 47.1714L346.361 46.4513L346.151 47.1714ZM345.626 47.0187L345.417 47.7388L345.626 47.0187ZM336.176 46.0335L336.115 45.286L336.176 46.0335ZM335.126 46.1201L335.188 46.8675L335.126 46.1201ZM325.676 47.4166L325.818 48.1532L325.676 47.4166ZM324.626 47.6182L324.485 46.8816L324.626 47.6182ZM315.176 47.7899L315.061 48.531L315.176 47.7899ZM314.126 47.6265L314.242 46.8854L314.126 47.6265ZM303.626 46.576L303.585 47.3249L303.626 46.576ZM294.176 46.0303L294.131 46.779L294.176 46.0303ZM293.651 45.9984L293.697 45.2497L293.651 45.9984ZM293.126 45.9664L293.172 45.2178L293.126 45.9664ZM283.676 45.4697L283.643 46.2189L283.676 45.4697ZM283.151 45.4465L283.184 44.6972L283.151 45.4465ZM282.626 45.4233L282.593 46.1725L282.626 45.4233ZM273.176 45.6297L273.242 46.3769L273.176 45.6297ZM272.126 45.722L272.061 44.9749L272.126 45.722ZM262.676 45.7492L262.738 45.0017L262.676 45.7492ZM261.626 45.6629L261.565 46.4104L261.626 45.6629ZM252.176 46.8432L252.413 47.555L252.176 46.8432ZM251.651 47.0175L251.415 46.3057L251.651 47.0175ZM251.126 47.1918L251.363 47.9036L251.126 47.1918ZM241.676 47.4255L241.88 46.7037L241.676 47.4255ZM241.151 47.2772L240.947 47.9989L241.151 47.2772ZM240.626 47.1289L240.83 46.4071L240.626 47.1289ZM231.176 46.1746L231.237 46.9222L231.176 46.1746ZM230.651 46.2169L230.591 45.4693L230.651 46.2169ZM230.126 46.2592L230.187 47.0067L230.126 46.2592ZM220.676 46.8923L220.716 47.6413L220.676 46.8923ZM220.151 46.9204L220.111 46.1715L220.151 46.9204ZM219.626 46.9485L219.666 47.6974L219.626 46.9485ZM210.176 46.9809L210.141 47.7301L210.176 46.9809ZM209.651 46.9564L209.686 46.2072L209.651 46.9564ZM209.126 46.9319L209.091 47.6811L209.126 46.9319ZM199.676 46.6892L199.68 45.9392L199.676 46.6892ZM198.626 46.6842L198.623 47.4342L198.626 46.6842ZM189.176 47.6463L189.329 48.3805L189.176 47.6463ZM188.651 47.7557L188.498 47.0215L188.651 47.7557ZM188.126 47.8651L188.279 48.5993L188.126 47.8651ZM178.676 47.386L178.454 48.1024L178.676 47.386ZM178.151 47.2234L178.373 46.507L178.151 47.2234ZM177.626 47.0607L177.404 47.7772L177.626 47.0607ZM168.176 45.2423L168.232 44.4944L168.176 45.2423ZM167.651 45.2029L167.595 45.9508L167.651 45.2029ZM167.126 45.1635L167.182 44.4156L167.126 45.1635ZM157.676 44.7644L157.683 44.0145L157.676 44.7644ZM156.626 44.7546L156.619 45.5045L156.626 44.7546ZM147.176 45.5419L147.306 46.2806L147.176 45.5419ZM146.651 45.6343L146.521 44.8957L146.651 45.6343ZM146.126 45.7267L146.256 46.4654L146.126 45.7267ZM136.676 47.0534L136.754 47.7993L136.676 47.0534ZM136.151 47.1084L136.073 46.3625L136.151 47.1084ZM135.626 47.1634L135.548 46.4175L135.626 47.1634ZM126.176 47.672L126.178 48.422L126.176 47.672ZM125.651 47.6735L125.649 46.9235L125.651 47.6735ZM125.126 47.675L125.124 46.925L125.126 47.675ZM115.676 46.4983L115.493 47.2256L115.676 46.4983ZM115.151 46.3661L115.335 45.6388L115.151 46.3661ZM114.626 46.2338L114.443 46.9611L114.626 46.2338ZM105.176 45.302L105.217 46.0509L105.176 45.302ZM104.651 45.3307L104.61 44.5818L104.651 45.3307ZM104.126 45.3594L104.167 46.1083L104.126 45.3594ZM94.6763 47.0239L94.4624 46.3051L94.6763 47.0239ZM93.6263 47.3364L93.8403 48.0553L93.6263 47.3364ZM84.1763 48.7125L84.1716 49.4625L84.1763 48.7125ZM83.6513 48.7092L83.6561 47.9592L83.6513 48.7092ZM83.1263 48.7058L83.1216 49.4558L83.1263 48.7058ZM73.6763 47.6651L73.5195 48.3985L73.6763 47.6651ZM73.1513 47.5528L73.3082 46.8194L73.1513 47.5528ZM72.6263 47.4405L72.4695 48.1739L72.6263 47.4405ZM63.1763 47.6181L63.3593 48.3455L63.1763 47.6181ZM62.6513 47.7502L62.4684 47.0228L62.6513 47.7502ZM62.1263 47.8822L62.3093 48.6096L62.1263 47.8822ZM52.6763 48.5419L52.5929 49.2872L52.6763 48.5419ZM52.1513 48.4831L52.068 49.2285L52.1513 48.4831ZM51.6263 48.4244L51.7097 47.6791L51.6263 48.4244ZM42.1763 46.5085L42.3876 45.7888L42.1763 46.5085ZM41.6513 46.3543L41.44 47.0739L41.6513 46.3543ZM31.6763 45.9458L31.8512 46.6751L31.6763 45.9458ZM30.6263 46.1975L30.4515 45.4682L30.6263 46.1975ZM21.1763 47.2026L21.1561 47.9524L21.1763 47.2026ZM20.1263 47.1742L20.1466 46.4245L20.1263 47.1742ZM10.4626 46.299L10.5748 45.5574L10.4626 46.299ZM9.9138 46.2159L9.80157 46.9575L9.9138 46.2159ZM9.36505 46.1329L9.47728 45.3913L9.36505 46.1329ZM2.84763 40.6106L2.13554 40.846L2.84763 40.6106ZM2.67222 40.08L3.38431 39.8446L2.67222 40.08ZM2.49682 39.5495L1.78473 39.7849L2.49682 39.5495ZM3.3445 10.0518L2.7504 9.59405L3.3445 10.0518ZM3.65848 9.64431L4.25258 10.1021L3.65848 9.64431ZM3.97245 9.23682L3.37835 8.77906L3.97245 9.23682ZM9.75227 3.86125L9.37685 3.21198L9.75227 3.86125ZM18.6128 3.14322L18.5283 3.88844L19.0533 3.94798L19.1378 3.20275L19.2223 2.45753L18.6973 2.39799L18.6128 3.14322ZM19.1378 3.20275L19.0533 3.94798C22.3113 4.31744 25.5662 3.9917 28.8116 2.97675L28.5878 2.26094L28.3639 1.54513C25.3094 2.50038 22.2643 2.80251 19.2223 2.45753L19.1378 3.20275ZM28.5878 2.26094L28.8116 2.97675L29.3366 2.81257L29.1128 2.09676L28.8889 1.38095L28.3639 1.54513L28.5878 2.26094ZM29.1128 2.09676L29.3366 2.81257L29.8616 2.64839L29.6378 1.93258L29.4139 1.21676L28.8889 1.38095L29.1128 2.09676ZM29.6378 1.93258L29.8616 2.64839C32.8864 1.70248 35.9 1.58546 38.9167 2.29237L39.0878 1.56215L39.2589 0.831929C35.9756 0.0625467 32.6892 0.192484 29.4139 1.21676L29.6378 1.93258ZM39.0878 1.56215L38.9167 2.29237L39.4417 2.41539L39.6128 1.68517L39.7839 0.954953L39.2589 0.831929L39.0878 1.56215ZM39.6128 1.68517L39.4417 2.41539L39.9667 2.53842L40.1378 1.8082L40.3089 1.07798L39.7839 0.954953L39.6128 1.68517ZM40.1378 1.8082L39.9667 2.53842C43.2085 3.29807 46.4551 3.43051 49.7012 2.93381L49.5878 2.19244L49.4744 1.45107C46.4205 1.91834 43.3671 1.79461 40.3089 1.07798L40.1378 1.8082ZM49.5878 2.19244L49.7012 2.93381L50.2262 2.85348L50.1128 2.11211L49.9994 1.37074L49.4744 1.45107L49.5878 2.19244ZM50.1128 2.11211L50.2262 2.85348L50.7512 2.77315L50.6378 2.03178L50.5244 1.29041L49.9994 1.37074L50.1128 2.11211ZM50.6378 2.03178L50.7512 2.77315C53.7895 2.30826 56.8289 2.51997 59.8769 3.41316L60.0878 2.69342L60.2987 1.97369C57.0467 1.02073 53.7861 0.791338 50.5244 1.29041L50.6378 2.03178ZM60.0878 2.69342L59.8769 3.41316L60.4019 3.567L60.6128 2.84727L60.8237 2.12753L60.2987 1.97369L60.0878 2.69342ZM60.6128 2.84727L60.4019 3.567L60.9269 3.72085L61.1378 3.00111L61.3487 2.28138L60.8237 2.12753L60.6128 2.84727ZM61.1378 3.00111L60.9269 3.72085C64.1763 4.67305 67.4342 4.9193 70.6936 4.45469L70.5878 3.71219L70.482 2.9697C67.4413 3.40313 64.3993 3.17532 61.3487 2.28138L61.1378 3.00111ZM70.5878 3.71219L70.6936 4.45469L71.2186 4.37985L71.1128 3.63736L71.007 2.89486L70.482 2.9697L70.5878 3.71219ZM71.1128 3.63736L71.2186 4.37985L71.7436 4.30501L71.6378 3.56252L71.532 2.82003L71.007 2.89486L71.1128 3.63736ZM71.6378 3.56252L71.7436 4.30501C74.8325 3.86471 77.9202 3.80926 81.0083 4.13844L81.0878 3.39267L81.1673 2.64689C77.9553 2.3045 74.7431 2.36229 71.532 2.82003L71.6378 3.56252ZM81.0878 3.39267L81.0083 4.13844L81.5333 4.1944L81.6128 3.44863L81.6923 2.70285L81.1673 2.64689L81.0878 3.39267ZM81.6128 3.44863L81.5333 4.1944L82.0583 4.25037L82.1378 3.50459L82.2173 2.75882L81.6923 2.70285L81.6128 3.44863ZM82.1378 3.50459L82.0583 4.25037C85.2431 4.58987 88.4284 4.70454 91.6137 4.59431L91.5878 3.84476L91.5619 3.09521C88.4472 3.20299 85.3325 3.09089 82.2173 2.75882L82.1378 3.50459ZM91.5878 3.84476L91.6137 4.59431L92.1387 4.57614L92.1128 3.82659L92.0869 3.07704L91.5619 3.09521L91.5878 3.84476ZM92.1128 3.82659L92.1387 4.57614L92.6637 4.55798L92.6378 3.80842L92.6119 3.05887L92.0869 3.07704L92.1128 3.82659ZM92.6378 3.80842L92.6637 4.55798C95.7943 4.44964 98.9248 4.46317 102.055 4.59856L102.088 3.84926L102.12 3.09996C98.9508 2.96289 95.7813 2.94919 92.6119 3.05887L92.6378 3.80842ZM102.088 3.84926L102.055 4.59856L102.58 4.62127L102.613 3.87197L102.645 3.12267L102.12 3.09996L102.088 3.84926ZM102.613 3.87197L102.58 4.62127L103.105 4.64397L103.138 3.89467L103.17 3.14537L102.645 3.12267L102.613 3.87197ZM103.138 3.89467L103.105 4.64397C106.28 4.78129 109.456 4.7592 112.631 4.57772L112.588 3.82894L112.545 3.08016C109.42 3.25879 106.295 3.28052 103.17 3.14537L103.138 3.89467ZM112.588 3.82894L112.631 4.57772L113.156 4.54771L113.113 3.79893L113.07 3.05015L112.545 3.08016L112.588 3.82894ZM113.113 3.79893L113.156 4.54771L113.681 4.5177L113.638 3.76892L113.595 3.02014L113.07 3.05015L113.113 3.79893ZM113.638 3.76892L113.681 4.5177C116.884 4.3346 120.085 3.81099 123.283 2.9481L123.088 2.22399L122.892 1.49989C119.791 2.33679 116.692 2.84314 113.595 3.02014L113.638 3.76892ZM123.088 2.22399L123.283 2.9481L123.808 2.80645L123.613 2.08234L123.417 1.35824L122.892 1.49989L123.088 2.22399ZM123.613 2.08234L123.808 2.80645L124.333 2.6648L124.138 1.94069L123.942 1.21659L123.417 1.35824L123.613 2.08234ZM124.138 1.94069L124.333 2.6648C127.345 1.85218 130.351 1.90937 133.367 2.83923L133.588 2.12251L133.809 1.4058C130.525 0.393435 127.231 0.329408 123.942 1.21659L124.138 1.94069ZM133.588 2.12251L133.367 2.83923L133.892 3.00108L134.113 2.28437L134.334 1.56765L133.809 1.4058L133.588 2.12251ZM134.113 2.28437L133.892 3.00108L134.417 3.16293L134.638 2.44622L134.859 1.7295L134.334 1.56765L134.113 2.28437ZM134.638 2.44622L134.417 3.16293C137.714 4.17952 141.022 4.15722 144.317 3.09729L144.088 2.38331L143.858 1.66932C140.854 2.6355 137.861 2.65514 134.859 1.7295L134.638 2.44622ZM144.088 2.38331L144.317 3.09729L144.842 2.92845L144.613 2.21447L144.383 1.50048L143.858 1.66932L144.088 2.38331ZM144.613 2.21447L144.842 2.92845L145.367 2.75961L145.138 2.04562L144.908 1.33164L144.383 1.50048L144.613 2.21447ZM145.138 2.04562L145.367 2.75961C148.408 1.78189 151.436 1.55021 154.464 2.05755L154.588 1.31787L154.712 0.57818C151.439 0.0297637 148.168 0.283254 144.908 1.33164L145.138 2.04562ZM154.588 1.31787L154.464 2.05755L154.989 2.14553L155.113 1.40585L155.237 0.666161L154.712 0.57818L154.588 1.31787ZM155.113 1.40585L154.989 2.14553L155.514 2.23351L155.638 1.49383L155.762 0.754141L155.237 0.666161L155.113 1.40585ZM155.638 1.49383L155.514 2.23351C158.713 2.76969 161.914 2.97806 165.116 2.85816L165.088 2.10868L165.06 1.35921C161.961 1.47525 158.862 1.27372 155.762 0.754141L155.638 1.49383ZM165.088 2.10868L165.116 2.85816L165.641 2.83849L165.613 2.08902L165.585 1.33954L165.06 1.35921L165.088 2.10868ZM165.613 2.08902L165.641 2.83849L166.166 2.81883L166.138 2.06936L166.11 1.31988L165.585 1.33954L165.613 2.08902ZM166.138 2.06936L166.166 2.81883C169.311 2.70102 172.457 2.61147 175.602 2.55017L175.588 1.80031L175.573 1.05045C172.419 1.11193 169.264 1.20174 166.11 1.31988L166.138 2.06936ZM175.588 1.80031L175.602 2.55017L176.127 2.53994L176.113 1.79008L176.098 1.04022L175.573 1.05045L175.588 1.80031ZM176.113 1.79008L176.127 2.53994L176.652 2.52971L176.638 1.77985L176.623 1.02999L176.098 1.04022L176.113 1.79008ZM176.638 1.77985L176.652 2.52971C179.733 2.46966 182.817 2.82899 185.904 3.60956L186.088 2.88244L186.272 2.15532C183.059 1.343 179.842 0.967262 176.623 1.02999L176.638 1.77985ZM186.088 2.88244L185.904 3.60956L186.429 3.7423L186.613 3.01518L186.797 2.28807L186.272 2.15532L186.088 2.88244ZM186.613 3.01518L186.429 3.7423L186.954 3.87504L187.138 3.14793L187.322 2.42081L186.797 2.28807L186.613 3.01518ZM187.138 3.14793L186.954 3.87504C190.158 4.68519 193.365 5.11856 196.575 5.17376L196.588 4.42387L196.601 3.67398C193.51 3.62082 190.417 3.20356 187.322 2.42081L187.138 3.14793ZM196.588 4.42387L196.575 5.17376L197.1 5.18279L197.113 4.4329L197.126 3.68301L196.601 3.67398L196.588 4.42387ZM197.113 4.4329L197.1 5.18279L197.625 5.19182L197.638 4.44193L197.651 3.69204L197.126 3.68301L197.113 4.4329ZM197.638 4.44193L197.625 5.19182C200.776 5.24602 203.927 5.29349 207.078 5.33424L207.088 4.5843L207.097 3.83436C203.949 3.79365 200.8 3.74621 197.651 3.69204L197.638 4.44193ZM207.088 4.5843L207.078 5.33424L207.603 5.34102L207.613 4.59109L207.622 3.84115L207.097 3.83436L207.088 4.5843ZM207.613 4.59109L207.603 5.34102L208.128 5.34781L208.138 4.59788L208.147 3.84794L207.622 3.84115L207.613 4.59109ZM208.138 4.59788L208.128 5.34781C211.319 5.38907 214.509 5.17343 217.698 4.70113L217.588 3.95922L217.478 3.21731C214.367 3.67801 211.257 3.88815 208.147 3.84794L208.138 4.59788ZM217.588 3.95922L217.698 4.70113L218.223 4.62338L218.113 3.88147L218.003 3.13956L217.478 3.21731L217.588 3.95922ZM218.113 3.88147L218.223 4.62338L218.748 4.54563L218.638 3.80372L218.528 3.06181L218.003 3.13956L218.113 3.88147ZM218.638 3.80372L218.748 4.54563C221.857 4.08517 224.965 3.88571 228.073 3.94699L228.088 3.19713L228.103 2.44728C224.91 2.38433 221.719 2.58926 218.528 3.06181L218.638 3.80372ZM228.088 3.19713L228.073 3.94699L228.598 3.95734L228.613 3.20748L228.628 2.45763L228.103 2.44728L228.088 3.19713ZM228.613 3.20748L228.598 3.95734L229.123 3.96769L229.138 3.21784L229.153 2.46798L228.628 2.45763L228.613 3.20748ZM229.138 3.21784L229.123 3.96769C232.312 4.03056 235.5 3.84754 238.688 3.4188L238.588 2.67549L238.488 1.93219C235.376 2.35079 232.264 2.52933 229.153 2.46798L229.138 3.21784ZM238.588 2.67549L238.688 3.4188L239.213 3.34819L239.113 2.60488L239.013 1.86157L238.488 1.93219L238.588 2.67549ZM239.113 2.60488L239.213 3.34819L239.738 3.27757L239.638 2.53427L239.538 1.79096L239.013 1.86157L239.113 2.60488ZM239.638 2.53427L239.738 3.27757C242.812 2.86413 245.885 2.92242 248.96 3.45291L249.088 2.71383L249.215 1.97475C245.991 1.41847 242.764 1.35706 239.538 1.79096L239.638 2.53427ZM249.088 2.71383L248.96 3.45291L249.485 3.54348L249.613 2.80439L249.74 2.06531L249.215 1.97475L249.088 2.71383ZM249.613 2.80439L249.485 3.54348L250.01 3.63404L250.138 2.89496L250.265 2.15587L249.74 2.06531L249.613 2.80439ZM250.138 2.89496L250.01 3.63404C253.267 4.19588 256.525 4.05353 259.776 3.20979L259.588 2.48384L259.399 1.75789C256.351 2.54907 253.308 2.6808 250.265 2.15587L250.138 2.89496ZM259.588 2.48384L259.776 3.20979L260.301 3.07355L260.113 2.3476L259.924 1.62164L259.399 1.75789L259.588 2.48384ZM260.113 2.3476L260.301 3.07355L260.826 2.93731L260.638 2.21135L260.449 1.4854L259.924 1.62164L260.113 2.3476ZM260.638 2.21135L260.826 2.93731C263.878 2.14523 266.924 1.99257 269.97 2.47637L270.088 1.73566L270.205 0.994941C266.951 0.478086 263.697 0.642553 260.449 1.4854L260.638 2.21135ZM270.088 1.73566L269.97 2.47637L270.495 2.55976L270.613 1.81904L270.73 1.07833L270.205 0.994941L270.088 1.73566ZM270.613 1.81904L270.495 2.55976L271.02 2.64315L271.138 1.90243L271.255 1.16172L270.73 1.07833L270.613 1.81904ZM271.138 1.90243L271.02 2.64315C274.237 3.15414 277.456 3.22307 280.674 2.84958L280.588 2.10458L280.501 1.35958C277.42 1.71721 274.338 1.65138 271.255 1.16172L271.138 1.90243ZM280.588 2.10458L280.674 2.84958L281.199 2.78865L281.113 2.04365L281.026 1.29865L280.501 1.35958L280.588 2.10458ZM281.113 2.04365L281.199 2.78865L281.724 2.72772L281.638 1.98272L281.551 1.23772L281.026 1.29865L281.113 2.04365ZM281.638 1.98272L281.724 2.72772C284.866 2.36316 288.007 2.05439 291.148 1.8014L291.088 1.05382L291.028 0.30624C287.869 0.56065 284.71 0.871144 281.551 1.23772L281.638 1.98272ZM291.088 1.05382L291.148 1.8014L291.673 1.75911L291.613 1.01154L291.553 0.263956L291.028 0.30624L291.088 1.05382ZM291.613 1.01154L291.673 1.75911L292.198 1.71683L292.138 0.969252L292.078 0.221672L291.553 0.263956L291.613 1.01154ZM292.138 0.969252L292.198 1.71683C295.29 1.46776 298.383 1.57412 301.477 2.03627L301.588 1.2945L301.699 0.552734C298.492 0.0738101 295.285 -0.0366595 292.078 0.221672L292.138 0.969252ZM301.588 1.2945L301.477 2.03627L302.002 2.1147L302.113 1.37293L302.224 0.631157L301.699 0.552734L301.588 1.2945ZM302.113 1.37293L302.002 2.1147L302.527 2.19312L302.638 1.45135L302.749 0.70958L302.224 0.631157L302.113 1.37293ZM302.638 1.45135L302.527 2.19312C305.664 2.66179 308.802 3.21161 311.94 3.84261L312.088 3.10733L312.236 2.37205C309.073 1.73615 305.911 1.18199 302.749 0.70958L302.638 1.45135ZM312.088 3.10733L311.94 3.84261L312.465 3.94818L312.613 3.2129L312.761 2.47762L312.236 2.37205L312.088 3.10733ZM312.613 3.2129L312.465 3.94818L312.99 4.05376L313.138 3.31848L313.286 2.58319L312.761 2.47762L312.613 3.2129ZM313.138 3.31848L312.99 4.05376C316.27 4.71342 319.551 4.5084 322.82 3.44569L322.588 2.73244L322.356 2.01919C319.325 3.00475 316.305 3.19042 313.286 2.58319L313.138 3.31848ZM322.588 2.73244L322.82 3.44569L323.345 3.275L323.113 2.56175L322.881 1.8485L322.356 2.01919L322.588 2.73244ZM323.113 2.56175L323.345 3.275L323.87 3.10431L323.638 2.39106L323.406 1.67781L322.881 1.8485L323.113 2.56175ZM323.638 2.39106L323.87 3.10431C326.953 2.10198 330.029 1.57589 333.101 1.52228L333.088 0.772399L333.075 0.0225132C329.847 0.0788443 326.623 0.631865 323.406 1.67781L323.638 2.39106ZM333.088 0.772399L333.101 1.52228L333.626 1.51312L333.613 0.763237L333.6 0.0133517L333.075 0.0225132L333.088 0.772399ZM333.613 0.763237L333.626 1.51312L334.151 1.50396L334.138 0.754076L334.125 0.00419021L333.6 0.0133517L333.613 0.763237ZM334.138 0.754076L334.151 1.50396C337.21 1.45058 340.275 1.94078 343.348 2.98003L343.588 2.26955L343.828 1.55908C340.601 0.467755 337.365 -0.0523627 334.125 0.00419021L334.138 0.754076ZM343.588 2.26955L343.348 2.98003L343.873 3.15757L344.113 2.4471L344.353 1.73663L343.828 1.55908L343.588 2.26955ZM344.113 2.4471L343.873 3.15757L344.398 3.33512L344.638 2.62465L344.878 1.91418L344.353 1.73663L344.113 2.4471ZM344.638 2.62465L344.398 3.33512C347.622 4.42543 350.854 4.96644 354.091 4.9531L354.088 4.2031L354.085 3.45311C351.022 3.46574 347.954 2.95444 344.878 1.91418L344.638 2.62465ZM354.088 4.2031L354.091 4.9531L354.616 4.95093L354.613 4.20094L354.61 3.45095L354.085 3.45311L354.088 4.2031ZM354.613 4.20094L354.616 4.95093L355.141 4.94877L355.138 4.19878L355.135 3.44878L354.61 3.45095L354.613 4.20094ZM355.138 4.19878L355.141 4.94877C358.365 4.93548 361.586 4.45071 364.801 3.49735L364.588 2.7783L364.375 2.05924C361.29 2.97389 358.211 3.4361 355.135 3.44878L355.138 4.19878ZM364.588 2.7783L364.801 3.49735L365.326 3.34169L365.113 2.62263L364.9 1.90357L364.375 2.05924L364.588 2.7783ZM365.113 2.62263L365.326 3.34169L365.851 3.18602L365.638 2.46696L365.425 1.7479L364.9 1.90357L365.113 2.62263ZM365.638 2.46696L365.851 3.18602C368.921 2.27576 371.984 1.91377 375.043 2.09588L375.088 1.3472L375.132 0.59853C371.892 0.405642 368.655 0.790161 365.425 1.7479L365.638 2.46696ZM375.088 1.3472L375.043 2.09588L375.568 2.12713L375.613 1.37845L375.657 0.62978L375.132 0.59853L375.088 1.3472ZM375.613 1.37845L375.568 2.12713L376.093 2.15838L376.138 1.4097L376.182 0.661029L375.657 0.62978L375.613 1.37845ZM376.138 1.4097L376.093 2.15838C379.218 2.34436 382.343 2.69057 385.468 3.19711L385.588 2.45678L385.708 1.71644C382.533 1.20188 379.358 0.850048 376.182 0.661029L376.138 1.4097ZM385.588 2.45678L385.468 3.19711L385.993 3.28221L386.113 2.54187L386.233 1.80153L385.708 1.71644L385.588 2.45678ZM386.113 2.54187L385.993 3.28221L386.518 3.3673L386.638 2.62696L386.758 1.88662L386.233 1.80153L386.113 2.54187ZM386.638 2.62696L386.518 3.3673C389.687 3.88094 392.856 4.26903 396.026 4.53154L396.088 3.78409L396.15 3.03665C393.019 2.7774 389.889 2.39408 386.758 1.88662L386.638 2.62696ZM396.088 3.78409L396.026 4.53154L396.551 4.57501L396.613 3.82757L396.675 3.08013L396.15 3.03665L396.088 3.78409ZM396.613 3.82757L396.551 4.57501L397.076 4.61849L397.138 3.87105L397.2 3.12361L396.675 3.08013L396.613 3.82757ZM397.138 3.87105L397.076 4.61849C400.261 4.88228 403.446 4.9209 406.632 4.73434L406.588 3.98562L406.544 3.2369C403.429 3.41933 400.315 3.38158 397.2 3.12361L397.138 3.87105ZM406.588 3.98562L406.632 4.73434L407.157 4.70359L407.113 3.95487L407.069 3.20615L406.544 3.2369L406.588 3.98562ZM407.113 3.95487L407.157 4.70359L407.682 4.67284L407.638 3.92412L407.594 3.1754L407.069 3.20615L407.113 3.95487ZM407.638 3.92412L407.682 4.67284C410.846 4.48749 414.01 4.21037 417.175 3.84147L417.088 3.09652L417.001 2.35156C413.865 2.71714 410.73 2.99175 407.594 3.1754L407.638 3.92412ZM417.088 3.09652L417.175 3.84147L417.7 3.78027L417.613 3.03531L417.526 2.29036L417.001 2.35156L417.088 3.09652ZM417.613 3.03531L417.7 3.78027L418.225 3.71906L418.138 2.97411L418.051 2.22915L417.526 2.29036L417.613 3.03531ZM418.138 2.97411L418.225 3.71906C421.302 3.36033 424.379 3.45238 427.457 3.99583L427.588 3.25725L427.718 2.51867C424.497 1.95012 421.274 1.85341 418.051 2.22915L418.138 2.97411ZM427.588 3.25725L427.457 3.99583L427.982 4.0885L428.113 3.34991L428.243 2.61133L427.718 2.51867L427.588 3.25725ZM428.113 3.34991L427.982 4.0885L428.507 4.18116L428.638 3.44258L428.768 2.704L428.243 2.61133L428.113 3.34991ZM428.638 3.44258L428.507 4.18116C431.7 4.74472 434.894 5.02383 438.089 5.0181L438.088 4.2681L438.086 3.5181C434.981 3.52367 431.875 3.25244 428.768 2.704L428.638 3.44258ZM438.088 4.2681L438.089 5.0181L438.614 5.01715L438.613 4.26715L438.611 3.51716L438.086 3.5181L438.088 4.2681ZM438.613 4.26715L438.614 5.01715L439.139 5.01621L439.138 4.26621L439.136 3.51621L438.611 3.51716L438.613 4.26715ZM439.138 4.26621L439.139 5.01621C442.371 5.01041 445.599 4.48387 448.819 3.44071L448.588 2.72721L448.357 2.01371C445.277 3.01125 442.205 3.51071 439.136 3.51621L439.138 4.26621ZM448.588 2.72721L448.819 3.44071L449.344 3.27066L449.113 2.55716L448.882 1.84365L448.357 2.01371L448.588 2.72721ZM449.113 2.55716L449.344 3.27066L449.869 3.1006L449.638 2.3871L449.407 1.6736L448.882 1.84365L449.113 2.55716ZM449.638 2.3871L449.869 3.1006C452.94 2.10597 456.002 1.66876 459.06 1.78378L459.088 1.03431L459.116 0.284845C455.874 0.162882 452.636 0.627529 449.407 1.6736L449.638 2.3871ZM459.088 1.03431L459.06 1.78378L459.585 1.80353L459.613 1.05406L459.641 0.304593L459.116 0.284845L459.088 1.03431ZM459.613 1.05406L459.585 1.80353L460.11 1.82328L460.138 1.07381L460.166 0.324342L459.641 0.304593L459.613 1.05406ZM460.138 1.07381L460.11 1.82328C463.249 1.94136 466.388 2.12894 469.527 2.38604L469.588 1.63855L469.649 0.891048C466.488 0.632154 463.327 0.443251 460.166 0.324342L460.138 1.07381ZM469.588 1.63855L469.527 2.38604L470.052 2.42904L470.113 1.68154L470.174 0.934048L469.649 0.891048L469.588 1.63855ZM470.113 1.68154L470.052 2.42904L470.577 2.47204L470.638 1.72454L470.699 0.977047L470.174 0.934048L470.113 1.68154ZM470.638 1.72454L470.577 2.47204C473.727 2.73009 476.878 2.98373 480.029 3.23295L480.088 2.48528L480.147 1.73762C476.998 1.48851 473.848 1.23499 470.699 0.977047L470.638 1.72454ZM480.088 2.48528L480.029 3.23295L480.554 3.27447L480.613 2.52681L480.672 1.77914L480.147 1.73762L480.088 2.48528ZM480.613 2.52681L480.554 3.27447L481.079 3.316L481.138 2.56834L481.197 1.82067L480.672 1.77914L480.613 2.52681ZM481.138 2.56834L481.079 3.316C484.227 3.56504 487.385 3.82453 490.554 4.09448L490.617 3.34719L490.681 2.5999C487.51 2.32969 484.348 2.06995 481.197 1.82067L481.138 2.56834ZM490.617 3.34719L490.554 4.09448L491.082 4.13949L491.146 3.3922L491.209 2.64491L490.681 2.5999L490.617 3.34719ZM491.146 3.3922L491.082 4.13949L491.61 4.18451L491.674 3.43721L491.737 2.68992L491.209 2.64491L491.146 3.3922ZM491.674 3.43721L491.61 4.18451C493.086 4.31025 494.257 4.732 495.165 5.41289C496.071 6.09206 496.763 7.0656 497.223 8.37771L497.931 8.12968L498.638 7.88166C498.097 6.33553 497.245 5.09787 496.065 4.21288C494.887 3.32962 493.431 2.83425 491.737 2.68992L491.674 3.43721ZM497.931 8.12968L497.223 8.37771L497.39 8.85408L498.098 8.60606L498.805 8.35803L498.638 7.88166L497.931 8.12968ZM498.098 8.60606L497.39 8.85408L497.557 9.33046L498.264 9.08243L498.972 8.83441L498.805 8.35803L498.098 8.60606ZM498.264 9.08243L497.557 9.33046C498.548 12.1585 499.378 15.1073 500.048 18.1771L500.78 18.0173L501.513 17.8575C500.831 14.7306 499.984 11.7228 498.972 8.83441L498.264 9.08243ZM500.78 18.0173L500.048 18.1771L500.16 18.6935L500.893 18.5337L501.626 18.3738L501.513 17.8575L500.78 18.0173ZM500.893 18.5337L500.16 18.6935L500.273 19.2099L501.006 19.0501L501.738 18.8902L501.626 18.3738L500.893 18.5337ZM501.006 19.0501L500.273 19.2099C500.939 22.2633 501.318 25.3416 501.412 28.4451L502.161 28.4225L502.911 28.4C502.815 25.2035 502.424 22.0334 501.738 18.8902L501.006 19.0501ZM502.161 28.4225L501.412 28.4451L501.427 28.9701L502.177 28.9475L502.927 28.925L502.911 28.4L502.161 28.4225ZM502.177 28.9475L501.427 28.9701L501.443 29.4951L502.193 29.4725L502.943 29.45L502.927 28.925L502.177 28.9475ZM502.193 29.4725L501.443 29.4951C501.534 32.5287 500.944 35.4643 499.666 38.3096L500.35 38.6168L501.035 38.924C502.403 35.877 503.041 32.7163 502.943 29.45L502.193 29.4725ZM500.35 38.6168L499.666 38.3096L499.446 38.8006L500.13 39.1078L500.814 39.4151L501.035 38.924L500.35 38.6168ZM500.13 39.1078L499.446 38.8006L499.225 39.2916L499.909 39.5989L500.594 39.9061L500.814 39.4151L500.13 39.1078ZM499.909 39.5989L499.225 39.2916C497.988 42.0465 495.989 43.8248 493.195 44.6775L493.414 45.3948L493.633 46.1121C496.854 45.1292 499.185 43.0436 500.594 39.9061L499.909 39.5989ZM493.414 45.3948L493.195 44.6775L492.694 44.8304L492.913 45.5478L493.132 46.2651L493.633 46.1121L493.414 45.3948ZM492.913 45.5478L492.694 44.8304L492.193 44.9834L492.412 45.7007L492.631 46.4181L493.132 46.2651L492.913 45.5478ZM492.412 45.7007L492.193 44.9834C489.314 45.862 486.368 45.9618 483.342 45.2775L483.176 46.009L483.011 46.7406C486.284 47.4807 489.496 47.375 492.631 46.4181L492.412 45.7007ZM483.176 46.009L483.342 45.2775L482.817 45.1588L482.651 45.8903L482.486 46.6219L483.011 46.7406L483.176 46.009ZM482.651 45.8903L482.817 45.1588L482.292 45.0401L482.126 45.7716L481.961 46.5032L482.486 46.6219L482.651 45.8903ZM482.126 45.7716L482.292 45.0401C479.024 44.3012 475.753 44.3568 472.488 45.2054L472.676 45.9313L472.865 46.6571C475.9 45.8683 478.929 45.8175 481.961 46.5032L482.126 45.7716ZM472.676 45.9313L472.488 45.2054L471.963 45.3418L472.151 46.0677L472.34 46.7936L472.865 46.6571L472.676 45.9313ZM472.151 46.0677L471.963 45.3418L471.438 45.4783L471.626 46.2042L471.815 46.93L472.34 46.7936L472.151 46.0677ZM471.626 46.2042L471.438 45.4783C468.352 46.2801 465.271 46.647 462.192 46.581L462.176 47.3308L462.16 48.0806C465.382 48.1497 468.6 47.7655 471.815 46.93L471.626 46.2042ZM462.176 47.3308L462.192 46.581L461.667 46.5697L461.651 47.3195L461.635 48.0694L462.16 48.0806L462.176 47.3308ZM461.651 47.3195L461.667 46.5697L461.142 46.5584L461.126 47.3083L461.11 48.0581L461.635 48.0694L461.651 47.3195ZM461.126 47.3083L461.142 46.5584C457.944 46.4898 454.746 46.7301 451.549 47.2789L451.676 48.0181L451.803 48.7572C454.907 48.2245 458.009 47.9916 461.11 48.0581L461.126 47.3083ZM451.676 48.0181L451.549 47.2789L451.024 47.369L451.151 48.1082L451.278 48.8474L451.803 48.7572L451.676 48.0181ZM451.151 48.1082L451.024 47.369L450.499 47.4591L450.626 48.1983L450.753 48.9375L451.278 48.8474L451.151 48.1082ZM450.626 48.1983L450.499 47.4591C447.446 47.9834 444.393 47.9112 441.337 47.2414L441.176 47.974L441.016 48.7066C444.259 49.4174 447.507 49.4948 450.753 48.9375L450.626 48.1983ZM441.176 47.974L441.337 47.2414L440.812 47.1264L440.651 47.859L440.491 48.5916L441.016 48.7066L441.176 47.974ZM440.651 47.859L440.812 47.1264L440.287 47.0113L440.126 47.7439L439.966 48.4765L440.491 48.5916L440.651 47.859ZM440.126 47.7439L440.287 47.0113C437.125 46.3185 433.964 45.7038 430.802 45.1675L430.676 45.9069L430.551 46.6463C433.689 47.1787 436.827 47.7888 439.966 48.4765L440.126 47.7439ZM430.676 45.9069L430.802 45.1675L430.277 45.0784L430.151 45.8178L430.026 46.5573L430.551 46.6463L430.676 45.9069ZM430.151 45.8178L430.277 45.0784L429.752 44.9893L429.626 45.7288L429.501 46.4682L430.026 46.5573L430.151 45.8178ZM429.626 45.7288L429.752 44.9893C426.495 44.4368 423.237 44.5884 419.986 45.4413L420.176 46.1668L420.367 46.8922C423.416 46.0923 426.458 45.952 429.501 46.4682L429.626 45.7288ZM420.176 46.1668L419.986 45.4413L419.461 45.579L419.651 46.3045L419.842 47.0299L420.367 46.8922L420.176 46.1668ZM419.651 46.3045L419.461 45.579L418.936 45.7168L419.126 46.4422L419.317 47.1677L419.842 47.0299L419.651 46.3045ZM419.126 46.4422L418.936 45.7168C415.841 46.5287 412.75 46.9654 409.661 47.0284L409.676 47.7783L409.692 48.5281C412.903 48.4625 416.111 48.0086 419.317 47.1677L419.126 46.4422ZM409.676 47.7783L409.661 47.0284L409.136 47.0391L409.151 47.789L409.167 48.5388L409.692 48.5281L409.676 47.7783ZM409.151 47.789L409.136 47.0391L408.611 47.0498L408.626 47.7997L408.642 48.5495L409.167 48.5388L409.151 47.789ZM408.626 47.7997L408.611 47.0498C405.519 47.113 402.426 46.8205 399.33 46.1715L399.176 46.9055L399.022 47.6396C402.227 48.3114 405.434 48.615 408.642 48.5495L408.626 47.7997ZM399.176 46.9055L399.33 46.1715L398.805 46.0614L398.651 46.7955L398.497 47.5295L399.022 47.6396L399.176 46.9055ZM398.651 46.7955L398.805 46.0614L398.28 45.9514L398.126 46.6854L397.972 47.4194L398.497 47.5295L398.651 46.7955ZM398.126 46.6854L398.28 45.9514C395.08 45.2805 391.878 44.9478 388.675 44.9542L388.676 45.7042L388.678 46.4542C391.775 46.448 394.872 46.7695 397.972 47.4194L398.126 46.6854ZM388.676 45.7042L388.675 44.9542L388.15 44.9552L388.151 45.7052L388.153 46.4552L388.678 46.4542L388.676 45.7042ZM388.151 45.7052L388.15 44.9552L387.625 44.9563L387.626 45.7063L387.628 46.4563L388.153 46.4552L388.151 45.7052ZM387.626 45.7063L387.625 44.9563C384.429 44.9626 381.234 45.2591 378.041 45.8451L378.176 46.5828L378.312 47.3205C381.418 46.7504 384.523 46.4625 387.628 46.4563L387.626 45.7063ZM378.176 46.5828L378.041 45.8451L377.516 45.9414L377.651 46.6791L377.787 47.4168L378.312 47.3205L378.176 46.5828ZM377.651 46.6791L377.516 45.9414L376.991 46.0378L377.126 46.7755L377.262 47.5132L377.787 47.4168L377.651 46.6791ZM377.126 46.7755L376.991 46.0378C373.955 46.5949 370.92 46.4513 367.878 45.6035L367.676 46.3259L367.475 47.0484C370.732 47.956 373.997 48.1122 377.262 47.5132L377.126 46.7755ZM367.676 46.3259L367.878 45.6035L367.353 45.4572L367.151 46.1796L366.95 46.9021L367.475 47.0484L367.676 46.3259ZM367.151 46.1796L367.353 45.4572L366.828 45.3109L366.626 46.0334L366.425 46.7558L366.95 46.9021L367.151 46.1796ZM366.626 46.0334L366.828 45.3109C363.519 44.3888 360.205 44.5579 356.91 45.8074L357.176 46.5087L357.442 47.21C360.448 46.0702 363.434 45.9224 366.425 46.7558L366.626 46.0334ZM357.176 46.5087L356.91 45.8074L356.385 46.0066L356.651 46.7078L356.917 47.4091L357.442 47.21L357.176 46.5087ZM356.651 46.7078L356.385 46.0066L355.86 46.2057L356.126 46.9069L356.392 47.6082L356.917 47.4091L356.651 46.7078ZM356.126 46.9069L355.86 46.2057C352.858 47.3442 349.875 47.4737 346.886 46.6041L346.676 47.3242L346.467 48.0443C349.778 49.0076 353.094 48.8589 356.392 47.6082L356.126 46.9069ZM346.676 47.3242L346.886 46.6041L346.361 46.4513L346.151 47.1714L345.942 47.8916L346.467 48.0443L346.676 47.3242ZM346.151 47.1714L346.361 46.4513L345.836 46.2986L345.626 47.0187L345.417 47.7388L345.942 47.8916L346.151 47.1714ZM345.626 47.0187L345.836 46.2986C342.601 45.3575 339.359 45.0186 336.115 45.286L336.176 46.0335L336.238 46.781C339.293 46.5291 342.351 46.847 345.417 47.7388L345.626 47.0187ZM336.176 46.0335L336.115 45.286L335.59 45.3293L335.651 46.0768L335.713 46.8242L336.238 46.781L336.176 46.0335ZM335.651 46.0768L335.59 45.3293L335.065 45.3726L335.126 46.1201L335.188 46.8675L335.713 46.8242L335.651 46.0768ZM335.126 46.1201L335.065 45.3726C331.888 45.6345 328.711 46.0704 325.535 46.6801L325.676 47.4166L325.818 48.1532C328.942 47.5534 332.065 47.1249 335.188 46.8675L335.126 46.1201ZM325.676 47.4166L325.535 46.6801L325.01 46.7808L325.151 47.5174L325.293 48.2539L325.818 48.1532L325.676 47.4166ZM325.151 47.5174L325.01 46.7808L324.485 46.8816L324.626 47.6182L324.768 48.3547L325.293 48.2539L325.151 47.5174ZM324.626 47.6182L324.485 46.8816C321.419 47.4702 318.356 47.5257 315.292 47.0488L315.176 47.7899L315.061 48.531C318.297 49.0345 321.534 48.9756 324.768 48.3547L324.626 47.6182ZM315.176 47.7899L315.292 47.0488L314.767 46.9671L314.651 47.7082L314.536 48.4492L315.061 48.531L315.176 47.7899ZM314.651 47.7082L314.767 46.9671L314.242 46.8854L314.126 47.6265L314.011 48.3675L314.536 48.4492L314.651 47.7082ZM314.126 47.6265L314.242 46.8854C311.067 46.3913 307.892 46.0576 304.717 45.8844L304.676 46.6333L304.635 47.3822C307.76 47.5527 310.885 47.8811 314.011 48.3675L314.126 47.6265ZM304.676 46.6333L304.717 45.8844L304.192 45.8558L304.151 46.6046L304.11 47.3535L304.635 47.3822L304.676 46.6333ZM304.151 46.6046L304.192 45.8558L303.667 45.8271L303.626 46.576L303.585 47.3249L304.11 47.3535L304.151 46.6046ZM303.626 46.576L303.667 45.8271C300.519 45.6553 297.37 45.4735 294.222 45.2817L294.176 46.0303L294.131 46.779C297.282 46.971 300.434 47.1529 303.585 47.3249L303.626 46.576ZM294.176 46.0303L294.222 45.2817L293.697 45.2497L293.651 45.9984L293.606 46.747L294.131 46.779L294.176 46.0303ZM293.651 45.9984L293.697 45.2497L293.172 45.2178L293.126 45.9664L293.081 46.715L293.606 46.747L293.651 45.9984ZM293.126 45.9664L293.172 45.2178C290.018 45.0256 286.864 44.8598 283.709 44.7204L283.676 45.4697L283.643 46.2189C286.789 46.358 289.935 46.5233 293.081 46.715L293.126 45.9664ZM283.676 45.4697L283.709 44.7204L283.184 44.6972L283.151 45.4465L283.118 46.1957L283.643 46.2189L283.676 45.4697ZM283.151 45.4465L283.184 44.6972L282.659 44.674L282.626 45.4233L282.593 46.1725L283.118 46.1957L283.151 45.4465ZM282.626 45.4233L282.659 44.674C279.476 44.5333 276.293 44.6028 273.111 44.8826L273.176 45.6297L273.242 46.3769C276.359 46.1028 279.476 46.0347 282.593 46.1725L282.626 45.4233ZM273.176 45.6297L273.111 44.8826L272.586 44.9288L272.651 45.6759L272.717 46.423L273.242 46.3769L273.176 45.6297ZM272.651 45.6759L272.586 44.9288L272.061 44.9749L272.126 45.722L272.192 46.4692L272.717 46.423L272.651 45.6759ZM272.126 45.722L272.061 44.9749C268.953 45.2481 265.845 45.257 262.738 45.0017L262.676 45.7492L262.615 46.4967C265.807 46.759 269 46.7498 272.192 46.4692L272.126 45.722ZM262.676 45.7492L262.738 45.0017L262.213 44.9586L262.151 45.7061L262.09 46.4535L262.615 46.4967L262.676 45.7492ZM262.151 45.7061L262.213 44.9586L261.688 44.9154L261.626 45.6629L261.565 46.4104L262.09 46.4535L262.151 45.7061ZM261.626 45.6629L261.688 44.9154C258.432 44.648 255.181 45.0556 251.94 46.1314L252.176 46.8432L252.413 47.555C255.472 46.5395 258.521 46.1603 261.565 46.4104L261.626 45.6629ZM252.176 46.8432L251.94 46.1314L251.415 46.3057L251.651 47.0175L251.888 47.7293L252.413 47.555L252.176 46.8432ZM251.651 47.0175L251.415 46.3057L250.89 46.48L251.126 47.1918L251.363 47.9036L251.888 47.7293L251.651 47.0175ZM251.126 47.1918L250.89 46.48C247.88 47.4791 244.884 47.5522 241.88 46.7037L241.676 47.4255L241.472 48.1473C244.769 49.0785 248.072 48.9958 251.363 47.9036L251.126 47.1918ZM241.676 47.4255L241.88 46.7037L241.355 46.5554L241.151 47.2772L240.947 47.9989L241.472 48.1473L241.676 47.4255ZM241.151 47.2772L241.355 46.5554L240.83 46.4071L240.626 47.1289L240.422 47.8506L240.947 47.9989L241.151 47.2772ZM240.626 47.1289L240.83 46.4071C237.598 45.4939 234.358 45.1659 231.116 45.427L231.176 46.1746L231.237 46.9222C234.295 46.6759 237.355 46.9841 240.422 47.8506L240.626 47.1289ZM231.176 46.1746L231.116 45.427L230.591 45.4693L230.651 46.2169L230.712 46.9645L231.237 46.9222L231.176 46.1746ZM230.651 46.2169L230.591 45.4693L230.066 45.5116L230.126 46.2592L230.187 47.0067L230.712 46.9645L230.651 46.2169ZM230.126 46.2592L230.066 45.5116C226.923 45.7647 223.78 45.9753 220.636 46.1434L220.676 46.8923L220.716 47.6413C223.873 47.4725 227.03 47.261 230.187 47.0067L230.126 46.2592ZM220.676 46.8923L220.636 46.1434L220.111 46.1715L220.151 46.9204L220.191 47.6694L220.716 47.6413L220.676 46.8923ZM220.151 46.9204L220.111 46.1715L219.586 46.1996L219.626 46.9485L219.666 47.6974L220.191 47.6694L220.151 46.9204ZM219.626 46.9485L219.586 46.1996C216.461 46.3667 213.336 46.3774 210.211 46.2317L210.176 46.9809L210.141 47.7301C213.316 47.8781 216.491 47.8672 219.666 47.6974L219.626 46.9485ZM210.176 46.9809L210.211 46.2317L209.686 46.2072L209.651 46.9564L209.616 47.7056L210.141 47.7301L210.176 46.9809ZM209.651 46.9564L209.686 46.2072L209.161 46.1828L209.126 46.9319L209.091 47.6811L209.616 47.7056L209.651 46.9564ZM209.126 46.9319L209.161 46.1828C206.001 46.0354 202.84 45.9542 199.68 45.9392L199.676 46.6892L199.673 47.4392C202.812 47.4541 205.952 47.5348 209.091 47.6811L209.126 46.9319ZM199.676 46.6892L199.68 45.9392L199.155 45.9367L199.151 46.6867L199.148 47.4367L199.673 47.4392L199.676 46.6892ZM199.151 46.6867L199.155 45.9367L198.63 45.9342L198.626 46.6842L198.623 47.4342L199.148 47.4367L199.151 46.6867ZM198.626 46.6842L198.63 45.9342C195.426 45.919 192.224 46.2452 189.023 46.9121L189.176 47.6463L189.329 48.3805C192.429 47.7347 195.526 47.4195 198.623 47.4342L198.626 46.6842ZM189.176 47.6463L189.023 46.9121L188.498 47.0215L188.651 47.7557L188.804 48.4899L189.329 48.3805L189.176 47.6463ZM188.651 47.7557L188.498 47.0215L187.973 47.1309L188.126 47.8651L188.279 48.5993L188.804 48.4899L188.651 47.7557ZM188.126 47.8651L187.973 47.1309C184.951 47.7606 181.93 47.6087 178.898 46.6696L178.676 47.386L178.454 48.1024C181.723 49.1148 185.002 49.2823 188.279 48.5993L188.126 47.8651ZM178.676 47.386L178.898 46.6696L178.373 46.507L178.151 47.2234L177.929 47.9398L178.454 48.1024L178.676 47.386ZM178.151 47.2234L178.373 46.507L177.848 46.3443L177.626 47.0607L177.404 47.7772L177.929 47.9398L178.151 47.2234ZM177.626 47.0607L177.848 46.3443C174.647 45.3526 171.441 44.7354 168.232 44.4944L168.176 45.2423L168.12 45.9902C171.212 46.2223 174.306 46.8174 177.404 47.7772L177.626 47.0607ZM168.176 45.2423L168.232 44.4944L167.707 44.455L167.651 45.2029L167.595 45.9508L168.12 45.9902L168.176 45.2423ZM167.651 45.2029L167.707 44.455L167.182 44.4156L167.126 45.1635L167.07 45.9114L167.595 45.9508L167.651 45.2029ZM167.126 45.1635L167.182 44.4156C164.016 44.1778 160.85 44.0441 157.683 44.0145L157.676 44.7644L157.669 45.5144C160.803 45.5438 163.936 45.6761 167.07 45.9114L167.126 45.1635ZM157.676 44.7644L157.683 44.0145L157.158 44.0095L157.151 44.7595L157.144 45.5095L157.669 45.5144L157.676 44.7644ZM157.151 44.7595L157.158 44.0095L156.633 44.0046L156.626 44.7546L156.619 45.5045L157.144 45.5095L157.151 44.7595ZM156.626 44.7546L156.633 44.0046C153.437 43.9746 150.241 44.241 147.046 44.8033L147.176 45.5419L147.306 46.2806C150.412 45.734 153.516 45.4755 156.619 45.5045L156.626 44.7546ZM147.176 45.5419L147.046 44.8033L146.521 44.8957L146.651 45.6343L146.781 46.373L147.306 46.2806L147.176 45.5419ZM146.651 45.6343L146.521 44.8957L145.996 44.9881L146.126 45.7267L146.256 46.4654L146.781 46.373L146.651 45.6343ZM146.126 45.7267L145.996 44.9881C142.863 45.5395 139.731 45.9793 136.598 46.3075L136.676 47.0534L136.754 47.7993C139.922 47.4675 143.089 47.0228 146.256 46.4654L146.126 45.7267ZM136.676 47.0534L136.598 46.3075L136.073 46.3625L136.151 47.1084L136.229 47.8543L136.754 47.7993L136.676 47.0534ZM136.151 47.1084L136.073 46.3625L135.548 46.4175L135.626 47.1634L135.704 47.9094L136.229 47.8543L136.151 47.1084ZM135.626 47.1634L135.548 46.4175C132.423 46.7449 129.299 46.913 126.174 46.922L126.176 47.672L126.178 48.422C129.354 48.4129 132.529 48.242 135.704 47.9094L135.626 47.1634ZM126.176 47.672L126.174 46.922L125.649 46.9235L125.651 47.6735L125.653 48.4235L126.178 48.422L126.176 47.672ZM125.651 47.6735L125.649 46.9235L125.124 46.925L125.126 47.675L125.128 48.425L125.653 48.4235L125.651 47.6735ZM125.126 47.675L125.124 46.925C122.039 46.9338 118.951 46.5497 115.86 45.771L115.676 46.4983L115.493 47.2256C118.702 48.0338 121.914 48.4342 125.128 48.425L125.126 47.675ZM115.676 46.4983L115.86 45.771L115.335 45.6388L115.151 46.3661L114.968 47.0934L115.493 47.2256L115.676 46.4983ZM115.151 46.3661L115.335 45.6388L114.81 45.5065L114.626 46.2338L114.443 46.9611L114.968 47.0934L115.151 46.3661ZM114.626 46.2338L114.81 45.5065C111.589 44.6952 108.363 44.3766 105.135 44.5531L105.176 45.302L105.217 46.0509C108.29 45.8829 111.364 46.1855 114.443 46.9611L114.626 46.2338ZM105.176 45.302L105.135 44.5531L104.61 44.5818L104.651 45.3307L104.692 46.0796L105.217 46.0509L105.176 45.302ZM104.651 45.3307L104.61 44.5818L104.085 44.6105L104.126 45.3594L104.167 46.1083L104.692 46.0796L104.651 45.3307ZM104.126 45.3594L104.085 44.6105C100.874 44.7861 97.6663 45.3516 94.4624 46.3051L94.6763 47.0239L94.8903 47.7428C97.9863 46.8214 101.078 46.2772 104.167 46.1083L104.126 45.3594ZM94.6763 47.0239L94.4624 46.3051L93.9374 46.4613L94.1513 47.1802L94.3653 47.899L94.8903 47.7428L94.6763 47.0239ZM94.1513 47.1802L93.9374 46.4613L93.4124 46.6176L93.6263 47.3364L93.8403 48.0553L94.3653 47.899L94.1513 47.1802ZM93.6263 47.3364L93.4124 46.6176C90.3303 47.5348 87.2539 47.9821 84.1811 47.9625L84.1763 48.7125L84.1716 49.4625C87.3988 49.4831 90.6224 49.0129 93.8403 48.0553L93.6263 47.3364ZM84.1763 48.7125L84.1811 47.9625L83.6561 47.9592L83.6513 48.7092L83.6466 49.4592L84.1716 49.4625L84.1763 48.7125ZM83.6513 48.7092L83.6561 47.9592L83.1311 47.9558L83.1263 48.7058L83.1216 49.4558L83.6466 49.4592L83.6513 48.7092ZM83.1263 48.7058L83.1311 47.9558C80.0334 47.9361 76.9343 47.595 73.8332 46.9317L73.6763 47.6651L73.5195 48.3985C76.7183 49.0827 79.9193 49.4354 83.1216 49.4558L83.1263 48.7058ZM73.6763 47.6651L73.8332 46.9317L73.3082 46.8194L73.1513 47.5528L72.9945 48.2862L73.5195 48.3985L73.6763 47.6651ZM73.1513 47.5528L73.3082 46.8194L72.7832 46.7071L72.6263 47.4405L72.4695 48.1739L72.9945 48.2862L73.1513 47.5528ZM72.6263 47.4405L72.7832 46.7071C69.52 46.0091 66.2538 46.0708 62.9934 46.8908L63.1763 47.6181L63.3593 48.3455C66.3989 47.581 69.4327 47.5243 72.4695 48.1739L72.6263 47.4405ZM63.1763 47.6181L62.9934 46.8908L62.4684 47.0228L62.6513 47.7502L62.8343 48.4775L63.3593 48.3455L63.1763 47.6181ZM62.6513 47.7502L62.4684 47.0228L61.9434 47.1549L62.1263 47.8822L62.3093 48.6096L62.8343 48.4775L62.6513 47.7502ZM62.1263 47.8822L61.9434 47.1549C58.8782 47.9257 55.8184 48.1387 52.7597 47.7965L52.6763 48.5419L52.5929 49.2872C55.8343 49.6499 59.0745 49.4231 62.3093 48.6096L62.1263 47.8822ZM52.6763 48.5419L52.7597 47.7965L52.2347 47.7378L52.1513 48.4831L52.068 49.2285L52.5929 49.2872L52.6763 48.5419ZM52.1513 48.4831L52.2347 47.7378L51.7097 47.6791L51.6263 48.4244L51.5429 49.1698L52.068 49.2285L52.1513 48.4831ZM51.6263 48.4244L51.7097 47.6791C48.6045 47.3317 45.4973 46.7019 42.3876 45.7888L42.1763 46.5085L41.965 47.2281C45.1554 48.1648 48.3481 48.8123 51.5429 49.1698L51.6263 48.4244ZM42.1763 46.5085L42.3876 45.7888L41.8626 45.6347L41.6513 46.3543L41.44 47.0739L41.965 47.2281L42.1763 46.5085ZM41.6513 46.3543L41.8626 45.6347L41.3376 45.4806L41.1263 46.2002L40.915 46.9198L41.44 47.0739L41.6513 46.3543ZM41.1263 46.2002L41.3376 45.4806C38.0637 44.5193 34.7806 44.4302 31.5015 45.2164L31.6763 45.9458L31.8512 46.6751C34.872 45.9508 37.8889 46.0313 40.915 46.9198L41.1263 46.2002ZM31.6763 45.9458L31.5015 45.2164L30.9765 45.3423L31.1513 46.0716L31.3262 46.801L31.8512 46.6751L31.6763 45.9458ZM31.1513 46.0716L30.9765 45.3423L30.4515 45.4682L30.6263 46.1975L30.8012 46.9268L31.3262 46.801L31.1513 46.0716ZM30.6263 46.1975L30.4515 45.4682C27.3635 46.2086 24.2791 46.5363 21.1966 46.4529L21.1763 47.2026L21.1561 47.9524C24.3735 48.0394 27.5891 47.697 30.8012 46.9268L30.6263 46.1975ZM21.1763 47.2026L21.1966 46.4529L20.6716 46.4387L20.6513 47.1884L20.6311 47.9382L21.1561 47.9524L21.1763 47.2026ZM20.6513 47.1884L20.6716 46.4387L20.1466 46.4245L20.1263 47.1742L20.1061 47.924L20.6311 47.9382L20.6513 47.1884ZM20.1263 47.1742L20.1466 46.4245C17.0291 46.3402 13.8386 46.0514 10.5748 45.5574L10.4626 46.299L10.3503 47.0405C13.6716 47.5432 16.9236 47.8379 20.1061 47.924L20.1263 47.1742ZM10.4626 46.299L10.5748 45.5574L10.026 45.4744L9.9138 46.2159L9.80157 46.9575L10.3503 47.0405L10.4626 46.299ZM9.9138 46.2159L10.026 45.4744L9.47728 45.3913L9.36505 46.1329L9.25282 46.8744L9.80157 46.9575L9.9138 46.2159ZM9.36505 46.1329L9.47728 45.3913C7.94487 45.1594 6.7144 44.6225 5.75115 43.8064C4.78763 42.99 4.05039 41.8593 3.55972 40.3751L2.84763 40.6106L2.13554 40.846C2.69729 42.5451 3.5725 43.9264 4.78146 44.9508C5.99068 45.9754 7.49271 46.6081 9.25282 46.8744L9.36505 46.1329ZM2.84763 40.6106L3.55972 40.3751L3.38431 39.8446L2.67222 40.08L1.96013 40.3155L2.13554 40.846L2.84763 40.6106ZM2.67222 40.08L3.38431 39.8446L3.20891 39.3141L2.49682 39.5495L1.78473 39.7849L1.96013 40.3155L2.67222 40.08ZM2.49682 39.5495L3.20891 39.3141C2.1811 36.2053 1.6935 33.122 1.74025 30.0611L0.990341 30.0497L0.240428 30.0382C0.190959 33.2773 0.707682 36.5272 1.78473 39.7849L2.49682 39.5495ZM0.990341 30.0497L1.74025 30.0611L1.74827 29.5361L0.998359 29.5247L0.248446 29.5132L0.240428 30.0382L0.990341 30.0497ZM0.998359 29.5247L1.74827 29.5361L1.75629 29.0111L1.00638 28.9997L0.256464 28.9882L0.248446 29.5132L0.998359 29.5247ZM1.00638 28.9997L1.75629 29.0111C1.80466 25.8439 1.74442 22.6686 1.57558 19.485L0.826631 19.5247L0.0776832 19.5644C0.244725 22.7141 0.304311 25.8554 0.256464 28.9882L1.00638 28.9997ZM0.826631 19.5247L1.57558 19.485L1.54759 18.9572L0.798641 18.997L0.0496932 19.0367L0.0776832 19.5644L0.826631 19.5247ZM0.798641 18.997L1.54759 18.9572L1.5196 18.4295L0.770651 18.4692L0.0217032 18.5089L0.0496932 19.0367L0.798641 18.997ZM0.770651 18.4692L1.5196 18.4295C1.36087 15.4365 2.16741 12.8083 3.93861 10.5096L3.3445 10.0518L2.7504 9.59405C0.753918 12.1852 -0.155445 15.1686 0.0217032 18.5089L0.770651 18.4692ZM3.3445 10.0518L3.93861 10.5096L4.25258 10.1021L3.65848 9.64431L3.06437 9.18656L2.7504 9.59405L3.3445 10.0518ZM3.65848 9.64431L4.25258 10.1021L4.56656 9.69457L3.97245 9.23682L3.37835 8.77906L3.06437 9.18656L3.65848 9.64431ZM3.97245 9.23682L4.56656 9.69457C6.4107 7.30114 8.26739 5.58621 10.1277 4.51053L9.75227 3.86125L9.37685 3.21198C7.29841 4.41379 5.30189 6.28257 3.37835 8.77906L3.97245 9.23682ZM9.75227 3.86125L10.1277 4.51053L10.4559 4.32074L10.0805 3.67146L9.70508 3.02219L9.37685 3.21198L9.75227 3.86125ZM10.0805 3.67146L10.4559 4.32074L10.7842 4.13094L10.4087 3.48167L10.0333 2.8324L9.70508 3.02219L10.0805 3.67146ZM10.4087 3.48167L10.7842 4.13094C11.7655 3.56348 12.4789 3.18022 12.9379 2.96899C13.1778 2.85857 13.3016 2.81725 13.3424 2.80811C13.3813 2.79937 13.2835 2.83142 13.1365 2.79506C13.0474 2.77302 12.8999 2.71522 12.7769 2.56873C12.6483 2.41556 12.6128 2.24472 12.6128 2.12199H13.3628H14.1128C14.1128 1.97022 14.0696 1.7757 13.9256 1.60421C13.7873 1.43939 13.6166 1.36862 13.4968 1.33897C13.2883 1.28738 13.0981 1.32563 13.014 1.3445C12.8085 1.39059 12.5631 1.4902 12.3107 1.6064C11.7849 1.8484 11.0213 2.26112 10.0333 2.8324L10.4087 3.48167ZM13.3628 2.12199H12.6128V2.1607H13.3628H14.1128V2.12199H13.3628ZM13.3628 2.1607H12.6128V2.19942H13.3628H14.1128V2.1607H13.3628ZM13.3628 2.19942H12.6128C12.6128 2.43805 12.7162 2.61545 12.8013 2.71926C12.8835 2.81951 12.9747 2.88488 13.037 2.92414C13.1616 3.00259 13.3018 3.05699 13.4201 3.09658C13.6672 3.17927 14.0034 3.25655 14.4061 3.3319C15.221 3.48442 16.4241 3.64982 18.0033 3.8289L18.0878 3.08368L18.1723 2.33846C16.6015 2.16032 15.4421 1.99974 14.682 1.8575C14.2971 1.78547 14.0428 1.72318 13.8961 1.67411C13.8175 1.64782 13.8101 1.6383 13.8362 1.65477C13.8494 1.66304 13.9036 1.69791 13.9612 1.76815C14.0217 1.84194 14.1128 1.98982 14.1128 2.19942H13.3628ZM18.0878 3.08368L18.0033 3.8289L18.5283 3.88844L18.6128 3.14322L18.6973 2.39799L18.1723 2.33846L18.0878 3.08368Z"
        fill="black" />
    <path
        d="M173.9 29.9922C174.7 29.9922 177.566 28.6589 178.9 27.9922V21.4922L173.4 18.4922C172.9 19.6589 171.8 22.0922 171.4 22.4922C171 22.8922 171.566 26.6589 171.9 28.4922C172.233 28.9922 173.1 29.9922 173.9 29.9922Z"
        fill="#FEDA6C" />
    <path
        d="M178.595 27.8951C178.434 28.1365 177.788 28.6226 177.22 29.0682C176.757 29.4306 176.221 29.6757 175.748 29.9062C175.255 30.1459 174.522 30.1634 173.899 30.2307C173.445 30.2796 173.06 30.1642 172.858 29.9759C172.429 29.5758 172.519 28.924 172.371 28.3966C172.227 27.8813 172.169 27.2762 172.101 26.8302C171.996 26.1475 171.926 25.3319 171.857 24.8187C171.785 24.2746 171.709 23.0976 171.816 22.2802C171.897 21.6676 172.221 21.2278 172.437 20.7677C172.638 20.3403 172.788 19.9041 173.004 19.4715C173.112 19.256 173.247 19.0656 173.502 18.9441C174.393 18.5203 175.244 19.2528 175.677 19.4691C176.195 19.7282 176.89 20.1164 177.459 20.3736C178.006 20.6212 178.404 21.061 178.729 21.4936C178.867 21.6777 178.838 23.1827 178.865 25.3153C178.879 26.4565 179.35 26.8128 179.472 27.2588C179.505 27.3771 179.486 27.5144 179.432 27.6233C179.379 27.7323 179.272 27.8125 179.15 27.8805C179.028 27.9486 178.895 28.002 178.514 28.2192"
        stroke="#121212" stroke-linecap="round" />
    <path
        d="M178.9 21.4921L173.9 18.4921C175.733 16.3255 179.6 11.7923 180.4 10.9923C181.4 9.9923 185.4 10.9923 187.4 10.9923C189 10.9923 193.4 13.3256 195.4 14.4923L191.4 18.9923L187.4 17.4923C186.9 17.8256 185.4 18.3921 183.4 17.9921C181.4 17.5921 179.566 20.1588 178.9 21.4921Z"
        fill="#E35957" />
    <path
        d="M173.896 18.7404C173.949 18.7672 174.541 18.9819 175.029 19.2257C175.472 19.4476 175.892 19.7385 176.392 20.0087C176.862 20.2628 177.485 20.5211 177.958 20.8322C178.428 21.1409 178.89 21.3587 179.296 21.3604C179.745 21.3622 179.808 20.5519 180.066 20.1193C180.338 19.6615 180.806 19.3626 181.293 19.0657C181.851 18.7255 182.427 18.6335 182.981 18.4844C183.617 18.3132 184.209 18.1474 184.75 18.0117C185.285 17.8775 185.829 17.7958 186.424 17.7549C187.286 17.6956 188.584 17.7942 189.111 17.9972C189.55 18.1661 189.988 18.3078 190.488 18.4966C190.942 18.6679 191.284 19.0094 191.73 19.1856C192.204 19.3726 192.662 18.8231 193.256 18.2568C193.851 17.6886 194.147 17.2838 194.485 16.7577C194.795 16.2746 195.254 15.8532 195.525 15.4206C195.653 15.2165 195.688 14.8008 195.648 14.3018C195.6 13.6991 194.719 13.4228 193.936 13.0036C193.258 12.6407 192.425 12.4231 191.882 12.1927C191.407 11.9907 190.696 11.7475 189.939 11.5178C189.222 11.3004 188.644 11.0994 187.873 10.9098C187.332 10.7765 186.887 10.8013 186.118 10.6668C185.569 10.5707 183.259 10.5583 181.891 10.6522C181.298 10.693 180.892 11.0427 180.406 11.3133C179.729 11.6903 179.407 12.0148 178.948 12.2721C178.535 12.5035 177.924 13.0923 177.368 13.6484C176.894 14.1227 176.545 14.6331 176.22 15.0933C175.888 15.5624 175.518 15.9034 175.18 16.3085C174.819 16.7419 174.411 17.0376 173.938 17.5232C173.723 17.7438 173.707 18.064 173.694 18.32C173.707 18.4423 173.76 18.5492 173.828 18.6444C173.895 18.7396 173.976 18.8198 174.22 18.9025"
        stroke="#121212" stroke-linecap="round" />
    <path
        d="M186.4 27.4922C185.6 26.6922 185.733 23.4922 185.9 21.9922L198.9 21.4922C199.233 21.6589 200 22.4922 200.4 24.4922C200.8 26.4922 199.233 30.3255 198.4 31.9922C197.4 33.4922 195.4 36.2922 195.4 35.4922C195.4 34.6922 192.4 32.1589 190.9 30.9922L192.9 28.4922H188.9C188.4 28.4922 187.2 28.2922 186.4 27.4922Z"
        fill="#77A7EF" />
    <path
        d="M185.886 22.3863C185.913 23.8429 185.967 25.2914 186.047 26.2056C186.095 26.7415 186.37 27.3248 187.112 28.1086C187.337 28.3471 188.629 28.3002 190.384 28.2868C191.124 28.2812 191.741 28.2192 192.55 28.2593C192.854 28.2743 192.932 28.3796 192.933 28.5011C192.94 29.1527 192.26 29.5672 191.681 30.2015C191.254 30.6685 190.99 30.8917 190.869 31.0667C190.81 31.1517 190.828 31.2684 190.881 31.3503C191.135 31.7391 191.636 31.9441 192.068 32.3086C192.646 32.7964 192.851 33.2937 193.31 33.7263C193.729 34.1207 194.066 34.5365 194.378 34.9415C194.528 35.1377 194.634 35.3474 194.809 35.4956C194.989 35.6479 195.282 35.6722 195.578 35.6455C196.096 35.5988 196.469 35.0258 196.969 34.419C197.411 33.8825 197.712 33.2711 198.023 32.7578C198.34 32.2342 198.522 31.6508 198.725 31.1109C199 30.3812 199.332 29.6012 199.63 28.8292C199.805 28.3755 199.846 27.7639 199.928 27.1547C200.015 26.505 200.144 25.6592 200.225 24.9941C200.353 23.9374 200.279 22.3604 200.199 22.1583C200.039 21.7579 199.444 21.7658 197.875 21.671C196.685 21.5991 194.437 21.6572 193.187 21.6706C191.368 21.69 190.776 21.7917 189.321 21.8326C188.993 21.846 188.859 21.8727 188.322 21.8865C187.786 21.9002 186.85 21.9002 185.886 21.9002"
        stroke="#121212" stroke-linecap="round" />
    <path
        d="M174.4 30.4922C173.6 30.4922 173.733 31.4922 173.9 31.9922C174.001 32.9922 179.4 37.9922 180.4 38.4922C181.4 38.9922 187.4 38.4922 188.4 38.4922C189.2 38.4922 192.733 36.4922 194.4 35.4922L190.9 31.9922C190.566 31.9922 189.8 32.1922 189.4 32.9922C188.9 33.9922 185.9 32.4922 184.4 32.9922C183.2 33.3922 181.233 31.8255 180.4 30.9922C179.9 29.6588 178.8 27.1922 178.4 27.9922C177.9 28.9922 175.4 30.4922 174.4 30.4922Z"
        fill="#5BAA73" />
    <path
        d="M190.666 31.6215C190.961 31.7017 191.5 32.0784 191.947 32.4304C192.374 32.7672 192.824 33.1866 193.176 33.4969C193.642 33.9082 194.066 34.5087 194.31 34.9413C194.429 35.1512 194.527 35.3739 194.608 35.6295C194.709 35.9507 194.582 36.2651 194.447 36.4538C194.177 36.8326 193.692 36.9942 193.26 37.1971C192.845 37.3914 192.396 37.5613 191.963 37.6431C191.485 37.7336 191.019 37.9663 190.573 38.102C190.083 38.251 189.642 38.2644 189.142 38.345C188.694 38.4173 188.211 38.4799 187.751 38.5881C187.194 38.719 186.482 38.723 185.982 38.7639C185.135 38.8332 183.783 38.885 181.655 38.8858C180.663 38.8862 180.082 38.616 179.354 38.3467C178.65 38.0864 177.924 37.5386 177.368 37.0108C176.793 36.4652 176.518 35.9977 176.152 35.5927C175.773 35.1722 175.358 34.6221 174.803 34.0538C174.298 33.5373 174.032 32.9468 173.749 32.5142C173.613 32.3073 173.545 32.0816 173.505 31.7993C173.446 31.3873 173.571 31.0285 173.746 30.8263C174.126 30.3871 175.079 30.1114 175.771 29.7594C176.385 29.4468 176.864 29.1117 177.243 28.7334C177.62 28.3564 178.133 28.2465 178.593 28.1246C179.102 27.9897 179.269 28.9999 179.485 29.4459C179.717 29.9248 179.998 30.2961 180.295 30.7287C180.599 31.1712 181.023 31.4578 181.415 31.715C181.82 31.9806 182.613 32.3749 183.211 32.5393C183.648 32.6595 184.074 32.7281 184.574 32.769C185.024 32.8058 185.452 32.8901 188.305 32.9043C189.219 32.9088 189.583 32.4867 189.935 32.1225C190.097 31.9471 190.286 31.811 190.542 31.73C190.691 31.7025 190.878 31.7025 191.071 31.7835"
        stroke="#121212" stroke-linecap="round" />
    <path
        d="M216.105 20.2528C216.82 20.2528 217.609 20.3915 218.473 20.6688C218.665 20.8181 218.761 20.9835 218.761 21.1648C218.761 21.3355 218.671 21.4901 218.489 21.6288C218.319 21.7568 218.121 21.8208 217.897 21.8208C217.321 21.6715 216.783 21.5968 216.281 21.5968C215.129 21.5968 214.255 21.9381 213.657 22.6208C213.06 23.3035 212.761 24.3168 212.761 25.6608C212.761 27.0048 213.113 28.0555 213.817 28.8128C214.18 29.2075 214.612 29.4048 215.113 29.4048C215.615 29.4048 216.415 29.1381 217.513 28.6048C217.897 28.4235 218.153 28.3328 218.281 28.3328C218.559 28.3328 218.697 28.4768 218.697 28.7648C218.697 29.0528 218.564 29.2928 218.297 29.4848C217.38 29.9648 216.665 30.2901 216.153 30.4608C215.641 30.6208 215.199 30.7008 214.825 30.7008C214.057 30.7008 213.401 30.4181 212.857 29.8528C211.887 28.8075 211.401 27.3835 211.401 25.5808C211.401 23.7675 211.86 22.4288 212.777 21.5648C213.705 20.6901 214.815 20.2528 216.105 20.2528ZM222.935 23.2608C223.703 23.2608 224.332 23.6288 224.823 24.3648C225.324 25.1008 225.575 25.9861 225.575 27.0208C225.575 28.0448 225.319 28.9195 224.807 29.6448C224.306 30.3701 223.634 30.7328 222.791 30.7328C221.959 30.7328 221.287 30.3648 220.775 29.6288C220.263 28.8821 220.007 28.0555 220.007 27.1488C220.007 25.9861 220.242 25.0581 220.711 24.3648C221.212 23.6288 221.954 23.2608 222.935 23.2608ZM222.743 24.5728C222.295 24.5728 221.927 24.8075 221.639 25.2768C221.351 25.7461 221.207 26.2421 221.207 26.7648C221.207 27.5755 221.367 28.1941 221.687 28.6208C222.007 29.0475 222.37 29.2608 222.775 29.2608C223.5 29.2608 223.964 28.9461 224.167 28.3168C224.252 28.0181 224.295 27.6448 224.295 27.1968C224.295 25.4475 223.778 24.5728 222.743 24.5728ZM227.164 30.2208L226.988 23.7248C226.988 23.5221 227.057 23.3568 227.196 23.2288C227.335 23.1008 227.473 23.0368 227.612 23.0368C227.953 23.0368 228.151 23.1808 228.204 23.4688C228.247 23.7568 228.268 24.0555 228.268 24.3648C228.844 23.6075 229.564 23.2288 230.428 23.2288C231.751 23.2288 232.412 24.7381 232.412 27.7568C232.412 28.0341 232.412 28.4555 232.412 29.0208C232.412 29.5755 232.38 29.9808 232.316 30.2368C232.241 30.5568 232.012 30.7168 231.628 30.7168C231.372 30.7168 231.244 30.5461 231.244 30.2048L231.26 29.3088C231.26 28.0715 231.217 27.2288 231.132 26.7808C231.057 26.3221 230.983 25.9595 230.908 25.6928C230.727 25.1168 230.433 24.8288 230.028 24.8288C229.495 24.8288 229.121 25.0208 228.908 25.4048C228.673 25.8208 228.535 26.3115 228.492 26.8768C228.417 27.8688 228.38 28.9195 228.38 30.0288C228.38 30.2421 228.3 30.4128 228.14 30.5408C227.98 30.6688 227.788 30.7328 227.564 30.7328C227.297 30.7328 227.164 30.5621 227.164 30.2208ZM234.19 23.2448L234.99 23.2608C235.172 23.2608 235.273 23.2555 235.294 23.2448V19.9648C235.305 19.7835 235.396 19.6288 235.566 19.5008C235.737 19.3728 235.897 19.3088 236.046 19.3088C236.196 19.3088 236.313 19.3568 236.398 19.4528C236.494 19.5488 236.537 19.6981 236.526 19.9008C236.516 20.1035 236.51 21.2128 236.51 23.2288L238.382 23.1648C238.702 23.1648 238.862 23.3515 238.862 23.7248C238.862 24.0021 238.777 24.2101 238.606 24.3488C238.446 24.4875 238.27 24.5621 238.078 24.5728C237.897 24.5835 237.716 24.5888 237.534 24.5888L236.558 24.5728C236.558 25.0101 236.601 25.8741 236.686 27.1648C236.782 28.4555 236.857 29.2928 236.91 29.6768C236.964 30.0501 236.974 30.2955 236.942 30.4128C236.91 30.5195 236.852 30.5941 236.766 30.6368C236.628 30.7008 236.441 30.7328 236.206 30.7328C235.972 30.7328 235.833 30.6048 235.79 30.3488C235.577 28.9515 235.433 27.0315 235.358 24.5888C235.262 24.5995 234.894 24.6048 234.254 24.6048C233.614 24.6048 233.294 24.4181 233.294 24.0448C233.294 23.5115 233.593 23.2448 234.19 23.2448ZM240.346 20.6048C240.538 20.6048 240.72 20.6955 240.89 20.8768C241.061 21.0581 241.146 21.2501 241.146 21.4528C241.146 21.6448 241.05 21.8421 240.858 22.0448C240.677 22.2475 240.485 22.3488 240.282 22.3488C240.08 22.3488 239.893 22.2635 239.722 22.0928C239.562 21.9221 239.482 21.7035 239.482 21.4368C239.482 20.9248 239.76 20.6475 240.314 20.6048C240.325 20.6048 240.336 20.6048 240.346 20.6048ZM241.018 28.9888L241.034 30.1088C241.034 30.3115 240.954 30.4821 240.794 30.6208C240.634 30.7488 240.464 30.8128 240.282 30.8128C240.016 30.8128 239.877 30.6795 239.866 30.4128C239.728 27.0101 239.658 25.1275 239.658 24.7648C239.658 24.4021 239.674 23.9595 239.706 23.4368C239.728 23.2448 239.85 23.1488 240.074 23.1488C240.64 23.1488 240.96 23.3781 241.034 23.8368C241.066 24.0715 241.082 24.2581 241.082 24.3968L241.018 25.4048V28.9888ZM243.476 30.2208L243.3 23.7248C243.3 23.5221 243.37 23.3568 243.508 23.2288C243.647 23.1008 243.786 23.0368 243.924 23.0368C244.266 23.0368 244.463 23.1808 244.516 23.4688C244.559 23.7568 244.58 24.0555 244.58 24.3648C245.156 23.6075 245.876 23.2288 246.74 23.2288C248.063 23.2288 248.724 24.7381 248.724 27.7568C248.724 28.0341 248.724 28.4555 248.724 29.0208C248.724 29.5755 248.692 29.9808 248.628 30.2368C248.554 30.5568 248.324 30.7168 247.94 30.7168C247.684 30.7168 247.556 30.5461 247.556 30.2048L247.572 29.3088C247.572 28.0715 247.53 27.2288 247.444 26.7808C247.37 26.3221 247.295 25.9595 247.22 25.6928C247.039 25.1168 246.746 24.8288 246.34 24.8288C245.807 24.8288 245.434 25.0208 245.22 25.4048C244.986 25.8208 244.847 26.3115 244.804 26.8768C244.73 27.8688 244.692 28.9195 244.692 30.0288C244.692 30.2421 244.612 30.4128 244.452 30.5408C244.292 30.6688 244.1 30.7328 243.876 30.7328C243.61 30.7328 243.476 30.5621 243.476 30.2208ZM250.071 23.8688C250.114 23.6875 250.204 23.5381 250.343 23.4208C250.482 23.2928 250.62 23.2288 250.759 23.2288C250.908 23.2288 251.02 23.2555 251.095 23.3088C251.18 23.3621 251.228 23.4101 251.239 23.4528C251.26 23.4955 251.282 23.5701 251.303 23.6768C251.239 24.5088 251.207 25.2608 251.207 25.9328C251.207 26.5941 251.287 27.3568 251.447 28.2208C251.607 29.0741 251.783 29.5008 251.975 29.5008C252.263 29.5008 252.626 29.3408 253.063 29.0208C253.511 28.7008 253.831 28.3648 254.023 28.0128C253.895 26.4768 253.831 25.1595 253.831 24.0608C253.831 23.8368 253.9 23.6448 254.039 23.4848C254.188 23.3248 254.364 23.2448 254.567 23.2448C254.898 23.2448 255.063 23.4688 255.063 23.9168C255.063 24.6741 255.116 25.7995 255.223 27.2928C255.34 28.7861 255.458 29.7355 255.575 30.1408C255.596 30.2261 255.607 30.3275 255.607 30.4448C255.607 30.5515 255.532 30.6528 255.383 30.7488C255.244 30.8555 255.058 30.9088 254.823 30.9088C254.599 30.9088 254.45 30.7808 254.375 30.5248C254.354 30.3115 254.3 29.9915 254.215 29.5648C253.468 30.3435 252.716 30.7328 251.959 30.7328C251.607 30.7328 251.292 30.5995 251.015 30.3328C250.738 30.0661 250.519 29.7035 250.359 29.2448C250.082 28.3595 249.943 27.5275 249.943 26.7488C249.943 25.9701 249.986 25.0101 250.071 23.8688ZM258.813 23.3088C259.378 23.3088 259.917 23.4741 260.429 23.8048C260.941 24.1355 261.197 24.5461 261.197 25.0368C261.197 25.5168 260.989 25.9861 260.573 26.4448C260.157 26.8928 259.602 27.1648 258.909 27.2608C258.61 27.3035 258.162 27.3248 257.565 27.3248C257.682 28.2315 257.912 28.8288 258.253 29.1168C258.36 29.2341 258.504 29.2928 258.685 29.2928C259.346 29.2928 259.901 29.0848 260.349 28.6688C260.797 28.2421 261.117 28.0288 261.309 28.0288C261.394 28.0288 261.522 28.1088 261.693 28.2688C261.864 28.4288 261.949 28.5781 261.949 28.7168C261.949 28.9941 261.613 29.3941 260.941 29.9168C260.642 30.1621 260.28 30.3701 259.853 30.5408C259.437 30.7008 259.048 30.7808 258.685 30.7808C257.757 30.7808 257.074 30.1835 256.637 28.9888C256.36 28.2528 256.221 27.4421 256.221 26.5568C256.221 25.6715 256.429 24.9088 256.845 24.2688C257.261 23.6288 257.917 23.3088 258.813 23.3088ZM258.893 24.4128C258.488 24.4128 258.141 24.6421 257.853 25.1008C257.746 25.2608 257.645 25.6235 257.549 26.1888C259.042 26.1888 259.789 25.8208 259.789 25.0848C259.789 24.6368 259.49 24.4128 258.893 24.4128ZM267.9 30.7008C267.537 30.7008 267.185 29.9968 266.844 28.5888C266.513 27.1701 266.348 25.5808 266.348 23.8208C266.348 23.6395 266.422 23.5008 266.572 23.4048C266.732 23.2981 266.876 23.2448 267.004 23.2448C267.132 23.2448 267.233 23.2875 267.308 23.3728C267.393 23.4475 267.436 23.5488 267.436 23.6768C267.436 25.3408 267.718 26.9408 268.284 28.4768C268.369 28.3488 268.502 28.0928 268.684 27.7088C268.865 27.3141 269.036 27.0261 269.196 26.8448C269.356 26.6635 269.548 26.5728 269.772 26.5728C269.996 26.5728 270.23 26.7381 270.476 27.0688C270.721 27.3995 270.929 27.7568 271.1 28.1408C271.281 28.5141 271.382 28.7115 271.404 28.7328C271.692 27.8368 271.836 27.0048 271.836 26.2368L271.74 23.8048C271.729 23.6448 271.804 23.5115 271.964 23.4048C272.124 23.2875 272.278 23.2288 272.428 23.2288C272.737 23.2288 272.892 23.8315 272.892 25.0368V25.9168C272.892 27.3461 272.673 28.6208 272.236 29.7408C272.001 30.3808 271.708 30.7008 271.356 30.7008C271.153 30.7008 270.966 30.5728 270.796 30.3168C270.625 30.0501 270.433 29.6768 270.22 29.1968C270.006 28.7168 269.841 28.3861 269.724 28.2048L269.244 29.1488C269.062 29.5221 268.924 29.7941 268.828 29.9648C268.732 30.1248 268.598 30.2901 268.428 30.4608C268.257 30.6208 268.081 30.7008 267.9 30.7008ZM275.034 20.6048C275.226 20.6048 275.407 20.6955 275.578 20.8768C275.749 21.0581 275.834 21.2501 275.834 21.4528C275.834 21.6448 275.738 21.8421 275.546 22.0448C275.365 22.2475 275.173 22.3488 274.97 22.3488C274.767 22.3488 274.581 22.2635 274.41 22.0928C274.25 21.9221 274.17 21.7035 274.17 21.4368C274.17 20.9248 274.447 20.6475 275.002 20.6048C275.013 20.6048 275.023 20.6048 275.034 20.6048ZM275.706 28.9888L275.722 30.1088C275.722 30.3115 275.642 30.4821 275.482 30.6208C275.322 30.7488 275.151 30.8128 274.97 30.8128C274.703 30.8128 274.565 30.6795 274.554 30.4128C274.415 27.0101 274.346 25.1275 274.346 24.7648C274.346 24.4021 274.362 23.9595 274.394 23.4368C274.415 23.2448 274.538 23.1488 274.762 23.1488C275.327 23.1488 275.647 23.3781 275.722 23.8368C275.754 24.0715 275.77 24.2581 275.77 24.3968L275.706 25.4048V28.9888ZM277.956 23.2448L278.756 23.2608C278.937 23.2608 279.039 23.2555 279.06 23.2448V19.9648C279.071 19.7835 279.161 19.6288 279.332 19.5008C279.503 19.3728 279.663 19.3088 279.812 19.3088C279.961 19.3088 280.079 19.3568 280.164 19.4528C280.26 19.5488 280.303 19.6981 280.292 19.9008C280.281 20.1035 280.276 21.2128 280.276 23.2288L282.148 23.1648C282.468 23.1648 282.628 23.3515 282.628 23.7248C282.628 24.0021 282.543 24.2101 282.372 24.3488C282.212 24.4875 282.036 24.5621 281.844 24.5728C281.663 24.5835 281.481 24.5888 281.3 24.5888L280.324 24.5728C280.324 25.0101 280.367 25.8741 280.452 27.1648C280.548 28.4555 280.623 29.2928 280.676 29.6768C280.729 30.0501 280.74 30.2955 280.708 30.4128C280.676 30.5195 280.617 30.5941 280.532 30.6368C280.393 30.7008 280.207 30.7328 279.972 30.7328C279.737 30.7328 279.599 30.6048 279.556 30.3488C279.343 28.9515 279.199 27.0315 279.124 24.5888C279.028 24.5995 278.66 24.6048 278.02 24.6048C277.38 24.6048 277.06 24.4181 277.06 24.0448C277.06 23.5115 277.359 23.2448 277.956 23.2448ZM284.768 25.5328L284.896 29.3088C284.896 29.7781 284.875 30.0501 284.832 30.1248C284.811 30.3168 284.747 30.4661 284.64 30.5728C284.544 30.6795 284.352 30.7328 284.064 30.7328C283.925 30.7328 283.813 30.6475 283.728 30.4768C283.643 30.2955 283.595 30.0928 283.584 29.8688C283.509 27.9915 283.408 26.2315 283.28 24.5888C283.163 22.9355 283.104 21.3995 283.104 19.9808C283.104 19.7568 283.179 19.5808 283.328 19.4528C283.477 19.3248 283.653 19.2608 283.856 19.2608C284.155 19.2608 284.331 19.5168 284.384 20.0288C284.448 20.5408 284.485 21.1808 284.496 21.9488C284.517 22.7168 284.539 23.2768 284.56 23.6288C285.093 23.3515 285.627 23.2128 286.16 23.2128C287.397 23.2128 288.181 23.7568 288.512 24.8448C288.704 25.4635 288.8 26.2581 288.8 27.2288C288.8 27.5488 288.768 28.0555 288.704 28.7488C288.651 29.4315 288.619 29.8741 288.608 30.0768C288.597 30.2795 288.507 30.4395 288.336 30.5568C288.176 30.6635 288 30.7168 287.808 30.7168C287.509 30.7168 287.36 30.5568 287.36 30.2368L287.472 27.4528C287.472 27.2181 287.461 26.8288 287.44 26.2848C287.419 25.7408 287.307 25.3088 287.104 24.9888C286.912 24.6688 286.571 24.5088 286.08 24.5088C285.205 24.5088 284.768 24.8501 284.768 25.5328ZM298.15 20.0928C298.662 20.0928 299.169 20.2208 299.67 20.4768C300.182 20.7328 300.438 21.0208 300.438 21.3408C300.438 21.8315 300.236 22.0768 299.83 22.0768C299.681 22.0768 299.42 21.9808 299.046 21.7888C298.673 21.5968 298.358 21.5008 298.102 21.5008C297.185 21.5008 296.417 21.9115 295.798 22.7328C295.19 23.5541 294.886 24.5995 294.886 25.8688C294.886 26.8181 295.094 27.6501 295.51 28.3648C295.926 29.0795 296.417 29.4368 296.982 29.4368C297.558 29.4368 298.006 29.2501 298.326 28.8768C298.657 28.4928 298.822 28.0608 298.822 27.5808C298.822 27.3141 298.801 27.0955 298.758 26.9248C298.726 26.7435 298.636 26.5835 298.486 26.4448C298.337 26.2955 298.14 26.2208 297.894 26.2208C297.649 26.2208 297.414 26.1675 297.19 26.0608C296.977 25.9541 296.87 25.8101 296.87 25.6288C296.87 25.4475 296.924 25.2768 297.03 25.1168C297.137 24.9568 297.281 24.8608 297.462 24.8288C298.188 24.8288 298.673 24.9035 298.918 25.0528C299.174 25.2021 299.366 25.3248 299.494 25.4208C299.622 25.5168 299.729 25.6768 299.814 25.9008C299.9 26.1248 299.964 26.3115 300.006 26.4608C300.06 26.6101 300.097 26.8501 300.118 27.1808C300.14 27.7355 300.15 28.3861 300.15 29.1328C300.15 29.8688 300.097 30.3221 299.99 30.4928C299.894 30.6315 299.734 30.7061 299.51 30.7168C299.286 30.7168 299.132 30.6688 299.046 30.5728C298.961 30.4768 298.908 30.2635 298.886 29.9328C298.63 30.1568 298.305 30.3488 297.91 30.5088C297.526 30.6581 297.185 30.7328 296.886 30.7328C295.948 30.7328 295.158 30.2368 294.518 29.2448C293.878 28.2421 293.558 27.0368 293.558 25.6288C293.558 24.8821 293.681 24.1515 293.926 23.4368C294.172 22.7115 294.502 22.1035 294.918 21.6128C295.793 20.5995 296.87 20.0928 298.15 20.0928ZM303.982 23.2608C304.75 23.2608 305.379 23.6288 305.87 24.3648C306.371 25.1008 306.622 25.9861 306.622 27.0208C306.622 28.0448 306.366 28.9195 305.854 29.6448C305.352 30.3701 304.68 30.7328 303.838 30.7328C303.006 30.7328 302.334 30.3648 301.822 29.6288C301.31 28.8821 301.054 28.0555 301.054 27.1488C301.054 25.9861 301.288 25.0581 301.758 24.3648C302.259 23.6288 303 23.2608 303.982 23.2608ZM303.79 24.5728C303.342 24.5728 302.974 24.8075 302.686 25.2768C302.398 25.7461 302.254 26.2421 302.254 26.7648C302.254 27.5755 302.414 28.1941 302.734 28.6208C303.054 29.0475 303.416 29.2608 303.822 29.2608C304.547 29.2608 305.011 28.9461 305.214 28.3168C305.299 28.0181 305.342 27.6448 305.342 27.1968C305.342 25.4475 304.824 24.5728 303.79 24.5728ZM310.435 23.2608C311.203 23.2608 311.832 23.6288 312.323 24.3648C312.824 25.1008 313.075 25.9861 313.075 27.0208C313.075 28.0448 312.819 28.9195 312.307 29.6448C311.806 30.3701 311.134 30.7328 310.291 30.7328C309.459 30.7328 308.787 30.3648 308.275 29.6288C307.763 28.8821 307.507 28.0555 307.507 27.1488C307.507 25.9861 307.742 25.0581 308.211 24.3648C308.712 23.6288 309.454 23.2608 310.435 23.2608ZM310.243 24.5728C309.795 24.5728 309.427 24.8075 309.139 25.2768C308.851 25.7461 308.707 26.2421 308.707 26.7648C308.707 27.5755 308.867 28.1941 309.187 28.6208C309.507 29.0475 309.87 29.2608 310.275 29.2608C311 29.2608 311.464 28.9461 311.667 28.3168C311.752 28.0181 311.795 27.6448 311.795 27.1968C311.795 25.4475 311.278 24.5728 310.243 24.5728ZM318.648 30.0608C318.264 30.5088 317.779 30.7328 317.192 30.7328C316.605 30.7328 316.099 30.5515 315.672 30.1888C314.776 29.4955 314.328 28.4341 314.328 27.0048C314.328 25.8848 314.637 24.9888 315.256 24.3168C315.875 23.6341 316.637 23.2928 317.544 23.2928C318.451 23.2928 319.069 23.6021 319.4 24.2208C319.688 24.7648 319.832 25.5861 319.832 26.6848L319.8 27.9968C319.8 28.6155 319.827 29.4741 319.88 30.5728C319.944 31.6608 319.976 32.4821 319.976 33.0368C319.976 33.9541 319.747 34.6261 319.288 35.0528C318.84 35.4901 318.152 35.7088 317.224 35.7088C316.669 35.7088 316.104 35.5915 315.528 35.3568C314.952 35.1221 314.664 34.8501 314.664 34.5408C314.664 34.3168 314.723 34.1461 314.84 34.0288C314.968 33.9115 315.112 33.8528 315.272 33.8528C315.432 33.8528 315.789 33.9701 316.344 34.2048C316.909 34.4395 317.315 34.5568 317.56 34.5568C318.328 34.5568 318.712 33.9275 318.712 32.6688C318.712 31.4101 318.691 30.5408 318.648 30.0608ZM318.632 26.6848C318.632 25.9061 318.515 25.3621 318.28 25.0528C318.056 24.7328 317.699 24.5728 317.208 24.5728C316.717 24.5728 316.323 24.7968 316.024 25.2448C315.725 25.6928 315.576 26.2635 315.576 26.9568C315.576 27.6395 315.715 28.1835 315.992 28.5888C316.28 28.9941 316.717 29.1968 317.304 29.1968C317.891 29.1968 318.269 28.9461 318.44 28.4448C318.568 28.0395 318.632 27.4528 318.632 26.6848ZM321.133 20.3648C321.165 19.9595 321.229 19.6981 321.325 19.5808C321.432 19.4528 321.597 19.3888 321.821 19.3888C322.28 19.3888 322.509 19.5755 322.509 19.9488C322.509 20.2368 322.482 20.9888 322.429 22.2048C322.386 23.4208 322.365 24.5088 322.365 25.4688C322.365 26.4288 322.402 27.2021 322.477 27.7888C322.605 28.8128 322.786 29.3248 323.021 29.3248C323.256 29.3248 323.432 29.1595 323.549 28.8288C323.602 28.7008 323.688 28.5888 323.805 28.4928C323.922 28.3861 324.072 28.3328 324.253 28.3328C324.626 28.3328 324.813 28.6475 324.813 29.2768C324.813 29.6181 324.626 29.9595 324.253 30.3008C323.89 30.6315 323.528 30.7968 323.165 30.7968C322.802 30.7968 322.509 30.7381 322.285 30.6208C322.072 30.4928 321.896 30.3061 321.757 30.0608C321.629 29.8155 321.522 29.5808 321.437 29.3568C321.362 29.1221 321.309 28.8395 321.277 28.5088C321.213 27.9755 321.165 27.1221 321.133 25.9488C321.112 24.7648 321.101 23.6395 321.101 22.5728C321.101 21.4955 321.112 20.7595 321.133 20.3648ZM327.735 23.3088C328.3 23.3088 328.839 23.4741 329.351 23.8048C329.863 24.1355 330.119 24.5461 330.119 25.0368C330.119 25.5168 329.911 25.9861 329.495 26.4448C329.079 26.8928 328.524 27.1648 327.831 27.2608C327.532 27.3035 327.084 27.3248 326.487 27.3248C326.604 28.2315 326.834 28.8288 327.175 29.1168C327.282 29.2341 327.426 29.2928 327.607 29.2928C328.268 29.2928 328.823 29.0848 329.271 28.6688C329.719 28.2421 330.039 28.0288 330.231 28.0288C330.316 28.0288 330.444 28.1088 330.615 28.2688C330.786 28.4288 330.871 28.5781 330.871 28.7168C330.871 28.9941 330.535 29.3941 329.863 29.9168C329.564 30.1621 329.202 30.3701 328.775 30.5408C328.359 30.7008 327.97 30.7808 327.607 30.7808C326.679 30.7808 325.996 30.1835 325.559 28.9888C325.282 28.2528 325.143 27.4421 325.143 26.5568C325.143 25.6715 325.351 24.9088 325.767 24.2688C326.183 23.6288 326.839 23.3088 327.735 23.3088ZM327.815 24.4128C327.41 24.4128 327.063 24.6421 326.775 25.1008C326.668 25.2608 326.567 25.6235 326.471 26.1888C327.964 26.1888 328.711 25.8208 328.711 25.0848C328.711 24.6368 328.412 24.4128 327.815 24.4128Z"
        fill="#303133" />
</svg>