<svg width="503" height="50" viewBox="0 0 503 50" fill="none" xmlns="http://www.w3.org/2000/svg">
    <path
        d="M1.37634 14.5478C1.37634 7.92043 6.74893 2.54785 13.3763 2.54785H489.376C496.004 2.54785 501.376 7.92043 501.376 14.5478V35.0892C501.376 41.7166 496.004 47.0892 489.376 47.0892H13.3763C6.74892 47.0892 1.37634 41.7166 1.37634 35.0892V14.5478Z"
        fill="#F8F8F6" />
    <path
        d="M28.6013 2.26094L28.3775 1.54513L28.6013 2.26094ZM29.1263 2.09676L29.3502 2.81257L29.1263 2.09676ZM29.6513 1.93258L29.4275 1.21676L29.6513 1.93258ZM40.1513 1.8082L39.9802 2.53842L40.1513 1.8082ZM49.6013 2.19244L49.4879 1.45107L49.6013 2.19244ZM50.1263 2.11211L50.2398 2.85348L50.1263 2.11211ZM50.6513 2.03178L50.5379 1.29041L50.6513 2.03178ZM60.1013 2.69342L59.8904 3.41316L60.1013 2.69342ZM61.1513 3.00111L61.3623 2.28138L61.1513 3.00111ZM70.6013 3.71219L70.7072 4.45469L70.6013 3.71219ZM71.6513 3.56252L71.5455 2.82003L71.6513 3.56252ZM81.1013 3.39267L81.0218 4.13844L81.1013 3.39267ZM81.6263 3.44863L81.7058 2.70285L81.6263 3.44863ZM82.1513 3.50459L82.0718 4.25037L82.1513 3.50459ZM92.1263 3.82659L92.1004 3.07704L92.1263 3.82659ZM103.151 3.89467L103.119 4.64397L103.151 3.89467ZM112.601 3.82894L112.559 3.08016L112.601 3.82894ZM113.126 3.79893L113.169 4.54771L113.126 3.79893ZM113.651 3.76892L113.609 3.02014L113.651 3.76892ZM123.101 2.22399L123.297 2.9481L123.101 2.22399ZM123.626 2.08234L123.431 1.35824L123.626 2.08234ZM124.151 1.94069L124.347 2.6648L124.151 1.94069ZM133.601 2.12251L133.38 2.83923L133.601 2.12251ZM134.651 2.44622L134.872 1.7295L134.651 2.44622ZM144.101 2.38331L144.331 3.09729L144.101 2.38331ZM144.626 2.21447L144.397 1.50048L144.626 2.21447ZM145.151 2.04562L145.381 2.75961L145.151 2.04562ZM154.601 1.31787L154.477 2.05755L154.601 1.31787ZM155.126 1.40585L155.25 0.666161L155.126 1.40585ZM155.651 1.49383L155.527 2.23351L155.651 1.49383ZM165.101 2.10868L165.073 1.35921L165.101 2.10868ZM166.151 2.06936L166.179 2.81883L166.151 2.06936ZM175.601 1.80031L175.616 2.55017L175.601 1.80031ZM176.126 1.79008L176.112 1.04022L176.126 1.79008ZM176.651 1.77985L176.666 2.52971L176.651 1.77985ZM186.101 2.88244L185.917 3.60956L186.101 2.88244ZM186.626 3.01518L186.81 2.28807L186.626 3.01518ZM187.151 3.14793L186.967 3.87504L187.151 3.14793ZM196.601 4.42387L196.588 5.17376L196.601 4.42387ZM207.626 4.59109L207.617 5.34102L207.626 4.59109ZM217.601 3.95922L217.491 3.21731L217.601 3.95922ZM218.126 3.88147L218.236 4.62338L218.126 3.88147ZM218.651 3.80372L218.541 3.06181L218.651 3.80372ZM228.101 3.19713L228.087 3.94699L228.101 3.19713ZM238.601 2.67549L238.701 3.4188L238.601 2.67549ZM239.126 2.60488L239.026 1.86157L239.126 2.60488ZM239.651 2.53427L239.751 3.27757L239.651 2.53427ZM249.101 2.71383L248.974 3.45291L249.101 2.71383ZM249.626 2.80439L249.754 2.06531L249.626 2.80439ZM250.151 2.89496L250.024 3.63404L250.151 2.89496ZM259.601 2.48384L259.79 3.20979L259.601 2.48384ZM260.651 2.21135L260.463 1.4854L260.651 2.21135ZM270.101 1.73566L270.219 0.994941L270.101 1.73566ZM271.151 1.90243L271.034 2.64315L271.151 1.90243ZM280.601 2.10458L280.688 2.84958L280.601 2.10458ZM281.126 2.04365L281.04 1.29865L281.126 2.04365ZM281.651 1.98272L281.738 2.72772L281.651 1.98272ZM291.101 1.05382L291.162 1.8014L291.101 1.05382ZM291.626 1.01154L291.566 0.263956L291.626 1.01154ZM292.151 0.969252L292.212 1.71683L292.151 0.969252ZM301.601 1.2945L301.712 0.552734L301.601 1.2945ZM302.651 1.45135L302.541 2.19312L302.651 1.45135ZM312.101 3.10733L311.953 3.84261L312.101 3.10733ZM312.626 3.2129L312.774 2.47762L312.626 3.2129ZM313.151 3.31848L313.003 4.05376L313.151 3.31848ZM322.601 2.73244L322.833 3.44569L322.601 2.73244ZM323.126 2.56175L322.894 1.8485L323.126 2.56175ZM323.651 2.39106L323.883 3.10431L323.651 2.39106ZM333.101 0.772399L333.114 1.52228L333.101 0.772399ZM333.626 0.763237L333.613 0.0133517L333.626 0.763237ZM334.151 0.754076L334.164 1.50396L334.151 0.754076ZM343.601 2.26955L343.842 1.55908L343.601 2.26955ZM344.651 2.62465L344.411 3.33512L344.651 2.62465ZM354.101 4.2031L354.104 4.9531L354.101 4.2031ZM354.626 4.20094L354.623 3.45095L354.626 4.20094ZM355.151 4.19878L355.154 4.94877L355.151 4.19878ZM364.601 2.7783L364.815 3.49735L364.601 2.7783ZM365.651 2.46696L365.438 1.7479L365.651 2.46696ZM375.101 1.3472L375.057 2.09588L375.101 1.3472ZM375.626 1.37845L375.671 0.62978L375.626 1.37845ZM376.151 1.4097L376.107 2.15838L376.151 1.4097ZM385.601 2.45678L385.721 1.71644L385.601 2.45678ZM386.126 2.54187L386.006 3.28221L386.126 2.54187ZM386.651 2.62696L386.771 1.88662L386.651 2.62696ZM396.101 3.78409L396.163 3.03665L396.101 3.78409ZM396.626 3.82757L396.564 4.57501L396.626 3.82757ZM397.151 3.87105L397.089 4.61849L397.151 3.87105ZM406.601 3.98562L406.557 3.2369L406.601 3.98562ZM407.126 3.95487L407.17 4.70359L407.126 3.95487ZM407.651 3.92412L407.608 3.1754L407.651 3.92412ZM417.101 3.09652L417.188 3.84147L417.101 3.09652ZM417.626 3.03531L417.539 2.29036L417.626 3.03531ZM418.151 2.97411L418.238 3.71906L418.151 2.97411ZM427.601 3.25725L427.732 2.51867L427.601 3.25725ZM428.651 3.44258L428.521 4.18116L428.651 3.44258ZM448.601 2.72721L448.832 3.44071L448.601 2.72721ZM449.126 2.55716L448.895 1.84365L449.126 2.55716ZM449.651 2.3871L449.882 3.1006L449.651 2.3871ZM459.101 1.03431L459.13 0.284845L459.101 1.03431ZM460.151 1.07381L460.123 1.82328L460.151 1.07381ZM469.601 1.63855L469.54 2.38604L469.601 1.63855ZM470.126 1.68154L470.188 0.934048L470.126 1.68154ZM470.651 1.72454L470.59 2.47204L470.651 1.72454ZM480.101 2.48528L480.16 1.73762L480.101 2.48528ZM480.626 2.52681L480.567 3.27447L480.626 2.52681ZM481.151 2.56834L481.21 1.82067L481.151 2.56834ZM490.631 3.34719L490.694 2.5999L490.631 3.34719ZM491.159 3.3922L491.095 4.13949L491.159 3.3922ZM491.687 3.43721L491.751 2.68992L491.687 3.43721ZM497.944 8.12968L497.236 8.37771L497.944 8.12968ZM498.278 9.08243L498.986 8.83441L498.278 9.08243ZM500.794 18.0173L500.061 18.1771L500.794 18.0173ZM500.907 18.5337L501.639 18.3738L500.907 18.5337ZM501.019 19.0501L500.286 19.2099L501.019 19.0501ZM502.175 28.4225L502.925 28.4L502.175 28.4225ZM502.191 28.9475L501.441 28.9701L502.191 28.9475ZM502.206 29.4725L502.956 29.45L502.206 29.4725ZM500.433 38.6425L501.122 38.9393L500.433 38.6425ZM500.007 39.6302L499.319 39.3334L500.007 39.6302ZM493.604 45.5177L493.833 46.2317L493.604 45.5177ZM493.105 45.678L492.876 44.9639L493.105 45.678ZM492.607 45.8383L492.836 46.5523L492.607 45.8383ZM483.393 46.2125L483.228 46.944L483.393 46.2125ZM482.343 45.975L482.509 45.2435L482.343 45.975ZM472.893 46.1347L473.082 46.8606L472.893 46.1347ZM472.368 46.2711L472.18 45.5452L472.368 46.2711ZM471.843 46.4076L471.655 45.6817L471.843 46.4076ZM462.393 47.5342L462.409 46.7844L462.393 47.5342ZM461.343 47.5117L461.327 48.2615L461.343 47.5117ZM451.893 48.2215L451.766 47.4823L451.893 48.2215ZM451.368 48.3116L451.495 49.0508L451.368 48.3116ZM450.843 48.4017L450.716 47.6626L450.843 48.4017ZM441.393 48.1774L441.233 48.9101L441.393 48.1774ZM440.868 48.0624L441.029 47.3298L440.868 48.0624ZM440.343 47.9473L440.504 47.2147L440.343 47.9473ZM430.893 46.1103L431.019 45.3709L430.893 46.1103ZM430.368 46.0213L430.243 46.7607L430.368 46.0213ZM429.843 45.9322L429.969 45.1928L429.843 45.9322ZM420.393 46.3702L420.584 47.0956L420.393 46.3702ZM419.868 46.5079L419.678 45.7825L419.868 46.5079ZM419.343 46.6457L419.153 45.9202L419.343 46.6457ZM409.893 47.9817L409.909 48.7315L409.893 47.9817ZM409.368 47.9924L409.353 47.2426L409.368 47.9924ZM408.843 48.0031L408.859 48.753L408.843 48.0031ZM399.393 47.109L399.547 46.3749L399.393 47.109ZM398.343 46.8888L398.189 47.6229L398.343 46.8888ZM388.893 45.9076L388.895 46.6576L388.893 45.9076ZM388.368 45.9087L388.367 45.1587L388.368 45.9087ZM387.843 45.9097L387.845 46.6597L387.843 45.9097ZM378.393 46.7862L378.529 47.5239L378.393 46.7862ZM377.868 46.8826L377.733 46.1449L377.868 46.8826ZM377.343 46.9789L377.479 47.7166L377.343 46.9789ZM367.893 46.5294L368.095 45.8069L367.893 46.5294ZM367.368 46.3831L367.167 47.1056L367.368 46.3831ZM366.843 46.2368L367.045 45.5143L366.843 46.2368ZM357.393 46.7121L357.127 46.0109L357.393 46.7121ZM356.868 46.9112L357.134 47.6125L356.868 46.9112ZM356.343 47.1104L356.077 46.4091L356.343 47.1104ZM346.893 47.5276L347.103 46.8075L346.893 47.5276ZM345.843 47.2221L345.634 47.9423L345.843 47.2221ZM336.393 46.2369L336.332 45.4895L336.393 46.2369ZM335.343 46.3235L335.405 47.0709L335.343 46.3235ZM325.893 47.62L326.035 48.3566L325.893 47.62ZM324.843 47.8216L324.702 47.0851L324.843 47.8216ZM315.393 47.9933L315.509 47.2522L315.393 47.9933ZM314.343 47.8299L314.228 48.571L314.343 47.8299ZM304.893 46.8367L304.852 47.5856L304.893 46.8367ZM304.368 46.8081L304.409 46.0592L304.368 46.8081ZM303.843 46.7794L303.802 47.5283L303.843 46.7794ZM294.393 46.2338L294.348 46.9824L294.393 46.2338ZM293.868 46.2018L293.914 45.4532L293.868 46.2018ZM293.343 46.1698L293.298 46.9184L293.343 46.1698ZM283.893 45.6731L283.86 46.4224L283.893 45.6731ZM283.368 45.6499L283.401 44.9006L283.368 45.6499ZM282.843 45.6267L282.81 46.3759L282.843 45.6267ZM262.893 45.9526L262.955 45.2051L262.893 45.9526ZM261.843 45.8664L261.782 46.6138L261.843 45.8664ZM252.393 47.0467L252.63 47.7585L252.393 47.0467ZM251.868 47.2209L251.632 46.5091L251.868 47.2209ZM251.343 47.3952L251.58 48.107L251.343 47.3952ZM241.893 47.6289L241.689 48.3507L241.893 47.6289ZM241.368 47.4806L241.572 46.7589L241.368 47.4806ZM240.843 47.3323L240.639 48.0541L240.843 47.3323ZM231.393 46.378L231.454 47.1256L231.393 46.378ZM230.868 46.4203L230.808 45.6727L230.868 46.4203ZM230.343 46.4626L230.404 47.2102L230.343 46.4626ZM220.893 47.0958L220.933 47.8447L220.893 47.0958ZM219.843 47.1519L219.803 46.403L219.843 47.1519ZM210.393 47.1843L210.358 47.9335L210.393 47.1843ZM209.868 47.1598L209.903 46.4107L209.868 47.1598ZM209.343 47.1354L209.308 47.8846L209.343 47.1354ZM199.893 46.8926L199.897 46.1427L199.893 46.8926ZM199.368 46.8901L199.365 47.6401L199.368 46.8901ZM198.843 46.8877L198.84 47.6376L198.843 46.8877ZM189.393 47.8497L189.546 48.584L189.393 47.8497ZM188.868 47.9591L188.715 47.2249L188.868 47.9591ZM188.343 48.0685L188.496 48.8028L188.343 48.0685ZM178.893 47.5894L178.671 48.3058L178.893 47.5894ZM178.368 47.4268L178.59 46.7104L178.368 47.4268ZM177.843 47.2642L177.621 47.9806L177.843 47.2642ZM168.393 45.4458L168.449 44.6979L168.393 45.4458ZM167.868 45.4063L167.812 46.1542L167.868 45.4063ZM167.343 45.3669L167.399 44.619L167.343 45.3669ZM157.893 44.9678L157.9 44.2179L157.893 44.9678ZM156.843 44.958L156.836 45.708L156.843 44.958ZM147.393 45.7454L147.263 45.0067L147.393 45.7454ZM146.868 45.8378L146.998 46.5764L146.868 45.8378ZM146.343 45.9302L146.213 45.1915L146.343 45.9302ZM136.893 47.2569L136.971 48.0028L136.893 47.2569ZM136.368 47.3119L136.29 46.5659L136.368 47.3119ZM135.843 47.3669L135.765 46.6209L135.843 47.3669ZM126.393 47.8754L126.395 48.6254L126.393 47.8754ZM125.343 47.8784L125.341 47.1284L125.343 47.8784ZM115.893 46.7017L115.71 47.429L115.893 46.7017ZM114.843 46.4373L114.66 47.1645L114.843 46.4373ZM105.393 45.5054L105.434 46.2543L105.393 45.5054ZM104.868 45.5341L104.827 44.7852L104.868 45.5341ZM104.343 45.5628L104.384 46.3117L104.343 45.5628ZM94.8933 47.2274L94.6794 46.5085L94.8933 47.2274ZM94.3683 47.3836L94.5822 48.1025L94.3683 47.3836ZM93.8433 47.5399L93.6294 46.821L93.8433 47.5399ZM84.3933 48.916L84.3885 49.6659L84.3933 48.916ZM83.8683 48.9126L83.8731 48.1626L83.8683 48.9126ZM83.3433 48.9093L83.3385 49.6592L83.3433 48.9093ZM73.8933 47.8685L73.7364 48.6019L73.8933 47.8685ZM73.3683 47.7562L73.5252 47.0228L73.3683 47.7562ZM72.8433 47.6439L72.6864 48.3773L72.8433 47.6439ZM63.3933 47.8216L63.5762 48.5489L63.3933 47.8216ZM62.8683 47.9536L62.6854 47.2262L62.8683 47.9536ZM62.3433 48.0856L62.5262 48.813L62.3433 48.0856ZM52.8933 48.7453L52.8099 49.4907L52.8933 48.7453ZM52.3683 48.6866L52.4517 47.9412L52.3683 48.6866ZM51.8433 48.6278L51.9267 47.8825L51.8433 48.6278ZM41.8683 46.5578L42.0796 45.8381L41.8683 46.5578ZM41.3433 46.4036L41.132 47.1232L41.3433 46.4036ZM31.8933 46.1492L32.0682 46.8785L31.8933 46.1492ZM30.8433 46.4009L30.6684 45.6716L30.8433 46.4009ZM21.3933 47.4061L21.373 48.1558L21.3933 47.4061ZM20.3433 47.3777L20.3636 46.6279L20.3433 47.3777ZM10.6686 46.5699L10.7707 45.8269L10.6686 46.5699ZM10.1186 46.4944L10.0166 47.2374L10.1186 46.4944ZM9.56866 46.4188L9.67073 45.6758L9.56866 46.4188ZM2.95986 40.9898L2.25183 41.2371L2.95986 40.9898ZM1.02009 29.4082L0.270177 29.3968L1.02009 29.4082ZM0.802004 19.418L0.0531403 19.4593L0.802004 19.418ZM3.51158 9.97597L2.90232 9.5386L3.51158 9.97597ZM10.2871 3.58428L9.9078 2.93723L10.2871 3.58428ZM18.6263 3.14322L18.5418 3.88844L19.0668 3.94798L19.1513 3.20275L19.2359 2.45753L18.7109 2.39799L18.6263 3.14322ZM19.1513 3.20275L19.0668 3.94798C22.3248 4.31744 25.5798 3.9917 28.8252 2.97675L28.6013 2.26094L28.3775 1.54513C25.3229 2.50038 22.2779 2.80251 19.2359 2.45753L19.1513 3.20275ZM28.6013 2.26094L28.8252 2.97675L29.3502 2.81257L29.1263 2.09676L28.9025 1.38095L28.3775 1.54513L28.6013 2.26094ZM29.1263 2.09676L29.3502 2.81257L29.8752 2.64839L29.6513 1.93258L29.4275 1.21676L28.9025 1.38095L29.1263 2.09676ZM29.6513 1.93258L29.8752 2.64839C32.8999 1.70248 35.9135 1.58546 38.9302 2.29237L39.1013 1.56215L39.2725 0.831929C35.9891 0.0625467 32.7028 0.192484 29.4275 1.21676L29.6513 1.93258ZM39.1013 1.56215L38.9302 2.29237L39.4552 2.41539L39.6263 1.68517L39.7975 0.954953L39.2725 0.831929L39.1013 1.56215ZM39.6263 1.68517L39.4552 2.41539L39.9802 2.53842L40.1513 1.8082L40.3225 1.07798L39.7975 0.954953L39.6263 1.68517ZM40.1513 1.8082L39.9802 2.53842C43.222 3.29807 46.4686 3.43051 49.7148 2.93381L49.6013 2.19244L49.4879 1.45107C46.4341 1.91834 43.3806 1.79461 40.3225 1.07798L40.1513 1.8082ZM49.6013 2.19244L49.7148 2.93381L50.2398 2.85348L50.1263 2.11211L50.0129 1.37074L49.4879 1.45107L49.6013 2.19244ZM50.1263 2.11211L50.2398 2.85348L50.7648 2.77315L50.6513 2.03178L50.5379 1.29041L50.0129 1.37074L50.1263 2.11211ZM50.6513 2.03178L50.7648 2.77315C53.8031 2.30826 56.8424 2.51997 59.8904 3.41316L60.1013 2.69342L60.3123 1.97369C57.0603 1.02073 53.7996 0.791338 50.5379 1.29041L50.6513 2.03178ZM60.1013 2.69342L59.8904 3.41316L60.4154 3.567L60.6263 2.84727L60.8373 2.12753L60.3123 1.97369L60.1013 2.69342ZM60.6263 2.84727L60.4154 3.567L60.9404 3.72085L61.1513 3.00111L61.3623 2.28138L60.8373 2.12753L60.6263 2.84727ZM61.1513 3.00111L60.9404 3.72085C64.1898 4.67305 67.4478 4.9193 70.7072 4.45469L70.6013 3.71219L70.4955 2.9697C67.4549 3.40313 64.4128 3.17532 61.3623 2.28138L61.1513 3.00111ZM70.6013 3.71219L70.7072 4.45469L71.2322 4.37985L71.1263 3.63736L71.0205 2.89486L70.4955 2.9697L70.6013 3.71219ZM71.1263 3.63736L71.2322 4.37985L71.7572 4.30501L71.6513 3.56252L71.5455 2.82003L71.0205 2.89486L71.1263 3.63736ZM71.6513 3.56252L71.7572 4.30501C74.8461 3.86471 77.9338 3.80926 81.0218 4.13844L81.1013 3.39267L81.1808 2.64689C77.9689 2.3045 74.7566 2.36229 71.5455 2.82003L71.6513 3.56252ZM81.1013 3.39267L81.0218 4.13844L81.5468 4.1944L81.6263 3.44863L81.7058 2.70285L81.1808 2.64689L81.1013 3.39267ZM81.6263 3.44863L81.5468 4.1944L82.0718 4.25037L82.1513 3.50459L82.2308 2.75882L81.7058 2.70285L81.6263 3.44863ZM82.1513 3.50459L82.0718 4.25037C85.2567 4.58987 88.4419 4.70454 91.6273 4.59431L91.6013 3.84476L91.5754 3.09521C88.4608 3.20299 85.346 3.09089 82.2308 2.75882L82.1513 3.50459ZM91.6013 3.84476L91.6273 4.59431L92.1523 4.57614L92.1263 3.82659L92.1004 3.07704L91.5754 3.09521L91.6013 3.84476ZM92.1263 3.82659L92.1523 4.57614L92.6773 4.55798L92.6513 3.80842L92.6254 3.05887L92.1004 3.07704L92.1263 3.82659ZM92.6513 3.80842L92.6773 4.55798C95.8078 4.44964 98.9384 4.46317 102.069 4.59856L102.101 3.84926L102.134 3.09996C98.9643 2.96289 95.7949 2.94919 92.6254 3.05887L92.6513 3.80842ZM102.101 3.84926L102.069 4.59856L102.594 4.62127L102.626 3.87197L102.659 3.12267L102.134 3.09996L102.101 3.84926ZM102.626 3.87197L102.594 4.62127L103.119 4.64397L103.151 3.89467L103.184 3.14537L102.659 3.12267L102.626 3.87197ZM103.151 3.89467L103.119 4.64397C106.294 4.78129 109.469 4.7592 112.644 4.57772L112.601 3.82894L112.559 3.08016C109.434 3.25879 106.309 3.28052 103.184 3.14537L103.151 3.89467ZM112.601 3.82894L112.644 4.57772L113.169 4.54771L113.126 3.79893L113.084 3.05015L112.559 3.08016L112.601 3.82894ZM113.126 3.79893L113.169 4.54771L113.694 4.5177L113.651 3.76892L113.609 3.02014L113.084 3.05015L113.126 3.79893ZM113.651 3.76892L113.694 4.5177C116.897 4.3346 120.099 3.81099 123.297 2.9481L123.101 2.22399L122.906 1.49989C119.804 2.33679 116.705 2.84314 113.609 3.02014L113.651 3.76892ZM123.101 2.22399L123.297 2.9481L123.822 2.80645L123.626 2.08234L123.431 1.35824L122.906 1.49989L123.101 2.22399ZM123.626 2.08234L123.822 2.80645L124.347 2.6648L124.151 1.94069L123.956 1.21659L123.431 1.35824L123.626 2.08234ZM124.151 1.94069L124.347 2.6648C127.359 1.85218 130.364 1.90937 133.38 2.83923L133.601 2.12251L133.822 1.4058C130.538 0.393435 127.244 0.329408 123.956 1.21659L124.151 1.94069ZM133.601 2.12251L133.38 2.83923L133.905 3.00108L134.126 2.28437L134.347 1.56765L133.822 1.4058L133.601 2.12251ZM134.126 2.28437L133.905 3.00108L134.43 3.16293L134.651 2.44622L134.872 1.7295L134.347 1.56765L134.126 2.28437ZM134.651 2.44622L134.43 3.16293C137.728 4.17952 141.035 4.15722 144.331 3.09729L144.101 2.38331L143.872 1.66932C140.867 2.6355 137.875 2.65514 134.872 1.7295L134.651 2.44622ZM144.101 2.38331L144.331 3.09729L144.856 2.92845L144.626 2.21447L144.397 1.50048L143.872 1.66932L144.101 2.38331ZM144.626 2.21447L144.856 2.92845L145.381 2.75961L145.151 2.04562L144.922 1.33164L144.397 1.50048L144.626 2.21447ZM145.151 2.04562L145.381 2.75961C148.421 1.78189 151.45 1.55021 154.477 2.05755L154.601 1.31787L154.725 0.57818C151.453 0.0297637 148.182 0.283254 144.922 1.33164L145.151 2.04562ZM154.601 1.31787L154.477 2.05755L155.002 2.14553L155.126 1.40585L155.25 0.666161L154.725 0.57818L154.601 1.31787ZM155.126 1.40585L155.002 2.14553L155.527 2.23351L155.651 1.49383L155.775 0.754141L155.25 0.666161L155.126 1.40585ZM155.651 1.49383L155.527 2.23351C158.727 2.76969 161.928 2.97806 165.129 2.85816L165.101 2.10868L165.073 1.35921C161.975 1.47525 158.876 1.27372 155.775 0.754141L155.651 1.49383ZM165.101 2.10868L165.129 2.85816L165.654 2.83849L165.626 2.08902L165.598 1.33954L165.073 1.35921L165.101 2.10868ZM165.626 2.08902L165.654 2.83849L166.179 2.81883L166.151 2.06936L166.123 1.31988L165.598 1.33954L165.626 2.08902ZM166.151 2.06936L166.179 2.81883C169.325 2.70102 172.47 2.61147 175.616 2.55017L175.601 1.80031L175.587 1.05045C172.432 1.11193 169.278 1.20174 166.123 1.31988L166.151 2.06936ZM175.601 1.80031L175.616 2.55017L176.141 2.53994L176.126 1.79008L176.112 1.04022L175.587 1.05045L175.601 1.80031ZM176.126 1.79008L176.141 2.53994L176.666 2.52971L176.651 1.77985L176.637 1.02999L176.112 1.04022L176.126 1.79008ZM176.651 1.77985L176.666 2.52971C179.747 2.46966 182.83 2.82899 185.917 3.60956L186.101 2.88244L186.285 2.15532C183.072 1.343 179.856 0.967262 176.637 1.02999L176.651 1.77985ZM186.101 2.88244L185.917 3.60956L186.443 3.7423L186.626 3.01518L186.81 2.28807L186.285 2.15532L186.101 2.88244ZM186.626 3.01518L186.443 3.7423L186.967 3.87504L187.151 3.14793L187.335 2.42081L186.81 2.28807L186.626 3.01518ZM187.151 3.14793L186.967 3.87504C190.172 4.68519 193.379 5.11856 196.588 5.17376L196.601 4.42387L196.614 3.67398C193.524 3.62082 190.431 3.20356 187.335 2.42081L187.151 3.14793ZM196.601 4.42387L196.588 5.17376L197.113 5.18279L197.126 4.4329L197.139 3.68301L196.614 3.67398L196.601 4.42387ZM197.126 4.4329L197.113 5.18279L197.638 5.19182L197.651 4.44193L197.664 3.69204L197.139 3.68301L197.126 4.4329ZM197.651 4.44193L197.638 5.19182C200.79 5.24602 203.941 5.29349 207.092 5.33424L207.101 4.5843L207.111 3.83436C203.962 3.79365 200.813 3.74621 197.664 3.69204L197.651 4.44193ZM207.101 4.5843L207.092 5.33424L207.617 5.34102L207.626 4.59109L207.636 3.84115L207.111 3.83436L207.101 4.5843ZM207.626 4.59109L207.617 5.34102L208.142 5.34781L208.151 4.59788L208.161 3.84794L207.636 3.84115L207.626 4.59109ZM208.151 4.59788L208.142 5.34781C211.332 5.38907 214.522 5.17343 217.711 4.70113L217.601 3.95922L217.491 3.21731C214.381 3.67801 211.271 3.88815 208.161 3.84794L208.151 4.59788ZM217.601 3.95922L217.711 4.70113L218.236 4.62338L218.126 3.88147L218.016 3.13956L217.491 3.21731L217.601 3.95922ZM218.126 3.88147L218.236 4.62338L218.761 4.54563L218.651 3.80372L218.541 3.06181L218.016 3.13956L218.126 3.88147ZM218.651 3.80372L218.761 4.54563C221.87 4.08517 224.979 3.88571 228.087 3.94699L228.101 3.19713L228.116 2.44728C224.924 2.38433 221.732 2.58926 218.541 3.06181L218.651 3.80372ZM228.101 3.19713L228.087 3.94699L228.612 3.95734L228.626 3.20748L228.641 2.45763L228.116 2.44728L228.101 3.19713ZM228.626 3.20748L228.612 3.95734L229.137 3.96769L229.151 3.21784L229.166 2.46798L228.641 2.45763L228.626 3.20748ZM229.151 3.21784L229.137 3.96769C232.325 4.03056 235.514 3.84754 238.701 3.4188L238.601 2.67549L238.501 1.93219C235.389 2.35079 232.277 2.52933 229.166 2.46798L229.151 3.21784ZM238.601 2.67549L238.701 3.4188L239.226 3.34819L239.126 2.60488L239.026 1.86157L238.501 1.93219L238.601 2.67549ZM239.126 2.60488L239.226 3.34819L239.751 3.27757L239.651 2.53427L239.551 1.79096L239.026 1.86157L239.126 2.60488ZM239.651 2.53427L239.751 3.27757C242.825 2.86413 245.899 2.92242 248.974 3.45291L249.101 2.71383L249.229 1.97475C246.004 1.41847 242.777 1.35706 239.551 1.79096L239.651 2.53427ZM249.101 2.71383L248.974 3.45291L249.499 3.54348L249.626 2.80439L249.754 2.06531L249.229 1.97475L249.101 2.71383ZM249.626 2.80439L249.499 3.54348L250.024 3.63404L250.151 2.89496L250.279 2.15587L249.754 2.06531L249.626 2.80439ZM250.151 2.89496L250.024 3.63404C253.281 4.19588 256.538 4.05353 259.79 3.20979L259.601 2.48384L259.413 1.75789C256.364 2.54907 253.322 2.6808 250.279 2.15587L250.151 2.89496ZM259.601 2.48384L259.79 3.20979L260.315 3.07355L260.126 2.3476L259.938 1.62164L259.413 1.75789L259.601 2.48384ZM260.126 2.3476L260.315 3.07355L260.84 2.93731L260.651 2.21135L260.463 1.4854L259.938 1.62164L260.126 2.3476ZM260.651 2.21135L260.84 2.93731C263.892 2.14523 266.938 1.99257 269.984 2.47637L270.101 1.73566L270.219 0.994941C266.965 0.478086 263.711 0.642553 260.463 1.4854L260.651 2.21135ZM270.101 1.73566L269.984 2.47637L270.509 2.55976L270.626 1.81904L270.744 1.07833L270.219 0.994941L270.101 1.73566ZM270.626 1.81904L270.509 2.55976L271.034 2.64315L271.151 1.90243L271.269 1.16172L270.744 1.07833L270.626 1.81904ZM271.151 1.90243L271.034 2.64315C274.251 3.15414 277.469 3.22307 280.688 2.84958L280.601 2.10458L280.515 1.35958C277.433 1.71721 274.352 1.65138 271.269 1.16172L271.151 1.90243ZM280.601 2.10458L280.688 2.84958L281.213 2.78865L281.126 2.04365L281.04 1.29865L280.515 1.35958L280.601 2.10458ZM281.126 2.04365L281.213 2.78865L281.738 2.72772L281.651 1.98272L281.565 1.23772L281.04 1.29865L281.126 2.04365ZM281.651 1.98272L281.738 2.72772C284.879 2.36316 288.02 2.05439 291.162 1.8014L291.101 1.05382L291.041 0.30624C287.882 0.56065 284.724 0.871144 281.565 1.23772L281.651 1.98272ZM291.101 1.05382L291.162 1.8014L291.687 1.75911L291.626 1.01154L291.566 0.263956L291.041 0.30624L291.101 1.05382ZM291.626 1.01154L291.687 1.75911L292.212 1.71683L292.151 0.969252L292.091 0.221672L291.566 0.263956L291.626 1.01154ZM292.151 0.969252L292.212 1.71683C295.304 1.46776 298.397 1.57412 301.491 2.03627L301.601 1.2945L301.712 0.552734C298.506 0.0738101 295.299 -0.0366595 292.091 0.221672L292.151 0.969252ZM301.601 1.2945L301.491 2.03627L302.016 2.1147L302.126 1.37293L302.237 0.631157L301.712 0.552734L301.601 1.2945ZM302.126 1.37293L302.016 2.1147L302.541 2.19312L302.651 1.45135L302.762 0.70958L302.237 0.631157L302.126 1.37293ZM302.651 1.45135L302.541 2.19312C305.678 2.66179 308.816 3.21161 311.953 3.84261L312.101 3.10733L312.249 2.37205C309.087 1.73615 305.925 1.18199 302.762 0.70958L302.651 1.45135ZM312.101 3.10733L311.953 3.84261L312.478 3.94818L312.626 3.2129L312.774 2.47762L312.249 2.37205L312.101 3.10733ZM312.626 3.2129L312.478 3.94818L313.003 4.05376L313.151 3.31848L313.299 2.58319L312.774 2.47762L312.626 3.2129ZM313.151 3.31848L313.003 4.05376C316.284 4.71342 319.565 4.5084 322.833 3.44569L322.601 2.73244L322.369 2.01919C319.338 3.00475 316.319 3.19042 313.299 2.58319L313.151 3.31848ZM322.601 2.73244L322.833 3.44569L323.358 3.275L323.126 2.56175L322.894 1.8485L322.369 2.01919L322.601 2.73244ZM323.126 2.56175L323.358 3.275L323.883 3.10431L323.651 2.39106L323.419 1.67781L322.894 1.8485L323.126 2.56175ZM323.651 2.39106L323.883 3.10431C326.966 2.10198 330.043 1.57589 333.114 1.52228L333.101 0.772399L333.088 0.0225132C329.86 0.0788443 326.637 0.631865 323.419 1.67781L323.651 2.39106ZM333.101 0.772399L333.114 1.52228L333.639 1.51312L333.626 0.763237L333.613 0.0133517L333.088 0.0225132L333.101 0.772399ZM333.626 0.763237L333.639 1.51312L334.164 1.50396L334.151 0.754076L334.138 0.00419021L333.613 0.0133517L333.626 0.763237ZM334.151 0.754076L334.164 1.50396C337.224 1.45058 340.288 1.94078 343.361 2.98003L343.601 2.26955L343.842 1.55908C340.615 0.467755 337.379 -0.0523627 334.138 0.00419021L334.151 0.754076ZM343.601 2.26955L343.361 2.98003L343.886 3.15757L344.126 2.4471L344.367 1.73663L343.842 1.55908L343.601 2.26955ZM344.126 2.4471L343.886 3.15757L344.411 3.33512L344.651 2.62465L344.892 1.91418L344.367 1.73663L344.126 2.4471ZM344.651 2.62465L344.411 3.33512C347.635 4.42543 350.867 4.96644 354.104 4.9531L354.101 4.2031L354.098 3.45311C351.036 3.46574 347.968 2.95444 344.892 1.91418L344.651 2.62465ZM354.101 4.2031L354.104 4.9531L354.629 4.95093L354.626 4.20094L354.623 3.45095L354.098 3.45311L354.101 4.2031ZM354.626 4.20094L354.629 4.95093L355.154 4.94877L355.151 4.19878L355.148 3.44878L354.623 3.45095L354.626 4.20094ZM355.151 4.19878L355.154 4.94877C358.379 4.93548 361.599 4.45071 364.815 3.49735L364.601 2.7783L364.388 2.05924C361.303 2.97389 358.224 3.4361 355.148 3.44878L355.151 4.19878ZM364.601 2.7783L364.815 3.49735L365.34 3.34169L365.126 2.62263L364.913 1.90357L364.388 2.05924L364.601 2.7783ZM365.126 2.62263L365.34 3.34169L365.865 3.18602L365.651 2.46696L365.438 1.7479L364.913 1.90357L365.126 2.62263ZM365.651 2.46696L365.865 3.18602C368.934 2.27576 371.997 1.91377 375.057 2.09588L375.101 1.3472L375.146 0.59853C371.905 0.405642 368.668 0.790161 365.438 1.7479L365.651 2.46696ZM375.101 1.3472L375.057 2.09588L375.582 2.12713L375.626 1.37845L375.671 0.62978L375.146 0.59853L375.101 1.3472ZM375.626 1.37845L375.582 2.12713L376.107 2.15838L376.151 1.4097L376.196 0.661029L375.671 0.62978L375.626 1.37845ZM376.151 1.4097L376.107 2.15838C379.231 2.34436 382.356 2.69057 385.481 3.19711L385.601 2.45678L385.721 1.71644C382.547 1.20188 379.371 0.850048 376.196 0.661029L376.151 1.4097ZM385.601 2.45678L385.481 3.19711L386.006 3.28221L386.126 2.54187L386.246 1.80153L385.721 1.71644L385.601 2.45678ZM386.126 2.54187L386.006 3.28221L386.531 3.3673L386.651 2.62696L386.771 1.88662L386.246 1.80153L386.126 2.54187ZM386.651 2.62696L386.531 3.3673C389.7 3.88094 392.87 4.26903 396.039 4.53154L396.101 3.78409L396.163 3.03665C393.033 2.7774 389.902 2.39408 386.771 1.88662L386.651 2.62696ZM396.101 3.78409L396.039 4.53154L396.564 4.57501L396.626 3.82757L396.688 3.08013L396.163 3.03665L396.101 3.78409ZM396.626 3.82757L396.564 4.57501L397.089 4.61849L397.151 3.87105L397.213 3.12361L396.688 3.08013L396.626 3.82757ZM397.151 3.87105L397.089 4.61849C400.275 4.88228 403.46 4.9209 406.645 4.73434L406.601 3.98562L406.557 3.2369C403.443 3.41933 400.328 3.38158 397.213 3.12361L397.151 3.87105ZM406.601 3.98562L406.645 4.73434L407.17 4.70359L407.126 3.95487L407.082 3.20615L406.557 3.2369L406.601 3.98562ZM407.126 3.95487L407.17 4.70359L407.695 4.67284L407.651 3.92412L407.608 3.1754L407.082 3.20615L407.126 3.95487ZM407.651 3.92412L407.695 4.67284C410.86 4.48749 414.024 4.21037 417.188 3.84147L417.101 3.09652L417.014 2.35156C413.879 2.71714 410.743 2.99175 407.608 3.1754L407.651 3.92412ZM417.101 3.09652L417.188 3.84147L417.713 3.78027L417.626 3.03531L417.539 2.29036L417.014 2.35156L417.101 3.09652ZM417.626 3.03531L417.713 3.78027L418.238 3.71906L418.151 2.97411L418.065 2.22915L417.539 2.29036L417.626 3.03531ZM418.151 2.97411L418.238 3.71906C421.315 3.36033 424.392 3.45238 427.471 3.99583L427.601 3.25725L427.732 2.51867C424.511 1.95012 421.287 1.85341 418.065 2.22915L418.151 2.97411ZM427.601 3.25725L427.471 3.99583L427.996 4.0885L428.126 3.34991L428.257 2.61133L427.732 2.51867L427.601 3.25725ZM428.126 3.34991L427.996 4.0885L428.521 4.18116L428.651 3.44258L428.782 2.704L428.257 2.61133L428.126 3.34991ZM428.651 3.44258L428.521 4.18116C431.714 4.74472 434.908 5.02383 438.103 5.0181L438.101 4.2681L438.1 3.5181C434.995 3.52367 431.889 3.25244 428.782 2.704L428.651 3.44258ZM438.101 4.2681L438.103 5.0181L438.628 5.01715L438.626 4.26715L438.625 3.51716L438.1 3.5181L438.101 4.2681ZM438.626 4.26715L438.628 5.01715L439.153 5.01621L439.151 4.26621L439.15 3.51621L438.625 3.51716L438.626 4.26715ZM439.151 4.26621L439.153 5.01621C442.385 5.01041 445.612 4.48387 448.832 3.44071L448.601 2.72721L448.37 2.01371C445.291 3.01125 442.218 3.51071 439.15 3.51621L439.151 4.26621ZM448.601 2.72721L448.832 3.44071L449.357 3.27066L449.126 2.55716L448.895 1.84365L448.37 2.01371L448.601 2.72721ZM449.126 2.55716L449.357 3.27066L449.882 3.1006L449.651 2.3871L449.42 1.6736L448.895 1.84365L449.126 2.55716ZM449.651 2.3871L449.882 3.1006C452.953 2.10597 456.015 1.66876 459.073 1.78378L459.101 1.03431L459.13 0.284845C455.887 0.162882 452.65 0.627529 449.42 1.6736L449.651 2.3871ZM459.101 1.03431L459.073 1.78378L459.598 1.80353L459.626 1.05406L459.655 0.304593L459.13 0.284845L459.101 1.03431ZM459.626 1.05406L459.598 1.80353L460.123 1.82328L460.151 1.07381L460.18 0.324342L459.655 0.304593L459.626 1.05406ZM460.151 1.07381L460.123 1.82328C463.262 1.94136 466.401 2.12894 469.54 2.38604L469.601 1.63855L469.663 0.891048C466.502 0.632154 463.341 0.443251 460.18 0.324342L460.151 1.07381ZM469.601 1.63855L469.54 2.38604L470.065 2.42904L470.126 1.68154L470.188 0.934048L469.663 0.891048L469.601 1.63855ZM470.126 1.68154L470.065 2.42904L470.59 2.47204L470.651 1.72454L470.713 0.977047L470.188 0.934048L470.126 1.68154ZM470.651 1.72454L470.59 2.47204C473.741 2.73009 476.892 2.98373 480.042 3.23295L480.101 2.48528L480.16 1.73762C477.011 1.48851 473.862 1.23499 470.713 0.977047L470.651 1.72454ZM480.101 2.48528L480.042 3.23295L480.567 3.27447L480.626 2.52681L480.685 1.77914L480.16 1.73762L480.101 2.48528ZM480.626 2.52681L480.567 3.27447L481.092 3.316L481.151 2.56834L481.21 1.82067L480.685 1.77914L480.626 2.52681ZM481.151 2.56834L481.092 3.316C484.241 3.56504 487.399 3.82453 490.567 4.09448L490.631 3.34719L490.694 2.5999C487.523 2.32969 484.362 2.06995 481.21 1.82067L481.151 2.56834ZM490.631 3.34719L490.567 4.09448L491.095 4.13949L491.159 3.3922L491.223 2.64491L490.694 2.5999L490.631 3.34719ZM491.159 3.3922L491.095 4.13949L491.624 4.18451L491.687 3.43721L491.751 2.68992L491.223 2.64491L491.159 3.3922ZM491.687 3.43721L491.624 4.18451C493.099 4.31025 494.271 4.732 495.179 5.41289C496.084 6.09206 496.777 7.0656 497.236 8.37771L497.944 8.12968L498.652 7.88166C498.11 6.33553 497.259 5.09787 496.079 4.21288C494.901 3.32962 493.445 2.83425 491.751 2.68992L491.687 3.43721ZM497.944 8.12968L497.236 8.37771L497.403 8.85408L498.111 8.60606L498.819 8.35803L498.652 7.88166L497.944 8.12968ZM498.111 8.60606L497.403 8.85408L497.57 9.33046L498.278 9.08243L498.986 8.83441L498.819 8.35803L498.111 8.60606ZM498.278 9.08243L497.57 9.33046C498.561 12.1585 499.392 15.1073 500.061 18.1771L500.794 18.0173L501.527 17.8575C500.845 14.7306 499.998 11.7228 498.986 8.83441L498.278 9.08243ZM500.794 18.0173L500.061 18.1771L500.174 18.6935L500.907 18.5337L501.639 18.3738L501.527 17.8575L500.794 18.0173ZM500.907 18.5337L500.174 18.6935L500.286 19.2099L501.019 19.0501L501.752 18.8902L501.639 18.3738L500.907 18.5337ZM501.019 19.0501L500.286 19.2099C500.952 22.2633 501.332 25.3416 501.425 28.4451L502.175 28.4225L502.925 28.4C502.828 25.2035 502.438 22.0334 501.752 18.8902L501.019 19.0501ZM502.175 28.4225L501.425 28.4451L501.441 28.9701L502.191 28.9475L502.94 28.925L502.925 28.4L502.175 28.4225ZM502.191 28.9475L501.441 28.9701L501.457 29.4951L502.206 29.4725L502.956 29.45L502.94 28.925L502.191 28.9475ZM502.206 29.4725L501.457 29.4951C501.548 32.5328 500.979 35.4806 499.744 38.3457L500.433 38.6425L501.122 38.9393C502.441 35.8778 503.054 32.7123 502.956 29.45L502.206 29.4725ZM500.433 38.6425L499.744 38.3457L499.531 38.8395L500.22 39.1363L500.909 39.4331L501.122 38.9393L500.433 38.6425ZM500.22 39.1363L499.531 38.8395L499.319 39.3334L500.007 39.6302L500.696 39.927L500.909 39.4331L500.22 39.1363ZM500.007 39.6302L499.319 39.3334C498.125 42.1039 496.154 43.9102 493.374 44.8037L493.604 45.5177L493.833 46.2317C497.038 45.2017 499.336 43.0831 500.696 39.927L500.007 39.6302ZM493.604 45.5177L493.374 44.8037L492.876 44.9639L493.105 45.678L493.335 46.392L493.833 46.2317L493.604 45.5177ZM493.105 45.678L492.876 44.9639L492.377 45.1242L492.607 45.8383L492.836 46.5523L493.335 46.392L493.105 45.678ZM492.607 45.8383L492.377 45.1242C489.516 46.0437 486.582 46.1644 483.559 45.4809L483.393 46.2125L483.228 46.944C486.505 47.685 489.713 47.5562 492.836 46.5523L492.607 45.8383ZM483.393 46.2125L483.559 45.4809L483.034 45.3622L482.868 46.0938L482.703 46.8253L483.228 46.944L483.393 46.2125ZM482.868 46.0938L483.034 45.3622L482.509 45.2435L482.343 45.975L482.178 46.7066L482.703 46.8253L482.868 46.0938ZM482.343 45.975L482.509 45.2435C479.241 44.5047 475.97 44.5603 472.705 45.4088L472.893 46.1347L473.082 46.8606C476.117 46.0718 479.146 46.021 482.178 46.7066L482.343 45.975ZM472.893 46.1347L472.705 45.4088L472.18 45.5452L472.368 46.2711L472.557 46.997L473.082 46.8606L472.893 46.1347ZM472.368 46.2711L472.18 45.5452L471.655 45.6817L471.843 46.4076L472.032 47.1335L472.557 46.997L472.368 46.2711ZM471.843 46.4076L471.655 45.6817C468.569 46.4836 465.488 46.8504 462.409 46.7844L462.393 47.5342L462.377 48.284C465.599 48.3532 468.817 47.9689 472.032 47.1335L471.843 46.4076ZM462.393 47.5342L462.409 46.7844L461.884 46.7731L461.868 47.523L461.852 48.2728L462.377 48.284L462.393 47.5342ZM461.868 47.523L461.884 46.7731L461.359 46.7619L461.343 47.5117L461.327 48.2615L461.852 48.2728L461.868 47.523ZM461.343 47.5117L461.359 46.7619C458.161 46.6933 454.963 46.9335 451.766 47.4823L451.893 48.2215L452.02 48.9607C455.124 48.4279 458.226 48.195 461.327 48.2615L461.343 47.5117ZM451.893 48.2215L451.766 47.4823L451.241 47.5724L451.368 48.3116L451.495 49.0508L452.02 48.9607L451.893 48.2215ZM451.368 48.3116L451.241 47.5724L450.716 47.6626L450.843 48.4017L450.97 49.1409L451.495 49.0508L451.368 48.3116ZM450.843 48.4017L450.716 47.6626C447.663 48.1868 444.61 48.1146 441.554 47.4448L441.393 48.1774L441.233 48.9101C444.476 49.6209 447.724 49.6982 450.97 49.1409L450.843 48.4017ZM441.393 48.1774L441.554 47.4448L441.029 47.3298L440.868 48.0624L440.708 48.795L441.233 48.9101L441.393 48.1774ZM440.868 48.0624L441.029 47.3298L440.504 47.2147L440.343 47.9473L440.183 48.68L440.708 48.795L440.868 48.0624ZM440.343 47.9473L440.504 47.2147C437.342 46.5219 434.181 45.9073 431.019 45.3709L430.893 46.1103L430.768 46.8498C433.906 47.3821 437.044 47.9922 440.183 48.68L440.343 47.9473ZM430.893 46.1103L431.019 45.3709L430.494 45.2818L430.368 46.0213L430.243 46.7607L430.768 46.8498L430.893 46.1103ZM430.368 46.0213L430.494 45.2818L429.969 45.1928L429.843 45.9322L429.718 46.6716L430.243 46.7607L430.368 46.0213ZM429.843 45.9322L429.969 45.1928C426.712 44.6402 423.454 44.7919 420.203 45.6447L420.393 46.3702L420.584 47.0956C423.633 46.2958 426.675 46.1554 429.718 46.6716L429.843 45.9322ZM420.393 46.3702L420.203 45.6447L419.678 45.7825L419.868 46.5079L420.059 47.2334L420.584 47.0956L420.393 46.3702ZM419.868 46.5079L419.678 45.7825L419.153 45.9202L419.343 46.6457L419.534 47.3711L420.059 47.2334L419.868 46.5079ZM419.343 46.6457L419.153 45.9202C416.058 46.7321 412.967 47.1688 409.878 47.2318L409.893 47.9817L409.909 48.7315C413.12 48.666 416.328 48.212 419.534 47.3711L419.343 46.6457ZM409.893 47.9817L409.878 47.2318L409.353 47.2426L409.368 47.9924L409.384 48.7422L409.909 48.7315L409.893 47.9817ZM409.368 47.9924L409.353 47.2426L408.828 47.2533L408.843 48.0031L408.859 48.753L409.384 48.7422L409.368 47.9924ZM408.843 48.0031L408.828 47.2533C405.736 47.3164 402.643 47.0239 399.547 46.3749L399.393 47.109L399.239 47.843C402.444 48.5148 405.651 48.8185 408.859 48.753L408.843 48.0031ZM399.393 47.109L399.547 46.3749L399.022 46.2649L398.868 46.9989L398.714 47.7329L399.239 47.843L399.393 47.109ZM398.868 46.9989L399.022 46.2649L398.497 46.1548L398.343 46.8888L398.189 47.6229L398.714 47.7329L398.868 46.9989ZM398.343 46.8888L398.497 46.1548C395.297 45.4839 392.095 45.1513 388.892 45.1576L388.893 45.9076L388.895 46.6576C391.991 46.6515 395.089 46.9729 398.189 47.6229L398.343 46.8888ZM388.893 45.9076L388.892 45.1576L388.367 45.1587L388.368 45.9087L388.37 46.6587L388.895 46.6576L388.893 45.9076ZM388.368 45.9087L388.367 45.1587L387.842 45.1597L387.843 45.9097L387.845 46.6597L388.37 46.6587L388.368 45.9087ZM387.843 45.9097L387.842 45.1597C384.646 45.1661 381.451 45.4625 378.258 46.0485L378.393 46.7862L378.529 47.5239C381.635 46.9538 384.74 46.6659 387.845 46.6597L387.843 45.9097ZM378.393 46.7862L378.258 46.0485L377.733 46.1449L377.868 46.8826L378.004 47.6202L378.529 47.5239L378.393 46.7862ZM377.868 46.8826L377.733 46.1449L377.208 46.2412L377.343 46.9789L377.479 47.7166L378.004 47.6202L377.868 46.8826ZM377.343 46.9789L377.208 46.2412C374.172 46.7983 371.137 46.6548 368.095 45.8069L367.893 46.5294L367.692 47.2518C370.949 48.1595 374.214 48.3156 377.479 47.7166L377.343 46.9789ZM367.893 46.5294L368.095 45.8069L367.57 45.6606L367.368 46.3831L367.167 47.1056L367.692 47.2518L367.893 46.5294ZM367.368 46.3831L367.57 45.6606L367.045 45.5143L366.843 46.2368L366.642 46.9593L367.167 47.1056L367.368 46.3831ZM366.843 46.2368L367.045 45.5143C363.736 44.5923 360.422 44.7614 357.127 46.0109L357.393 46.7121L357.659 47.4134C360.665 46.2736 363.651 46.1258 366.642 46.9593L366.843 46.2368ZM357.393 46.7121L357.127 46.0109L356.602 46.21L356.868 46.9112L357.134 47.6125L357.659 47.4134L357.393 46.7121ZM356.868 46.9112L356.602 46.21L356.077 46.4091L356.343 47.1104L356.609 47.8116L357.134 47.6125L356.868 46.9112ZM356.343 47.1104L356.077 46.4091C353.075 47.5477 350.092 47.6772 347.103 46.8075L346.893 47.5276L346.684 48.2478C349.995 49.211 353.311 49.0623 356.609 47.8116L356.343 47.1104ZM346.893 47.5276L347.103 46.8075L346.578 46.6547L346.368 47.3749L346.159 48.095L346.684 48.2478L346.893 47.5276ZM346.368 47.3749L346.578 46.6547L346.053 46.502L345.843 47.2221L345.634 47.9423L346.159 48.095L346.368 47.3749ZM345.843 47.2221L346.053 46.502C342.818 45.5609 339.576 45.222 336.332 45.4895L336.393 46.2369L336.455 46.9844C339.51 46.7325 342.568 47.0504 345.634 47.9423L345.843 47.2221ZM336.393 46.2369L336.332 45.4895L335.807 45.5327L335.868 46.2802L335.93 47.0277L336.455 46.9844L336.393 46.2369ZM335.868 46.2802L335.807 45.5327L335.282 45.576L335.343 46.3235L335.405 47.0709L335.93 47.0277L335.868 46.2802ZM335.343 46.3235L335.282 45.576C332.105 45.8379 328.928 46.2738 325.752 46.8835L325.893 47.62L326.035 48.3566C329.159 47.7569 332.282 47.3284 335.405 47.0709L335.343 46.3235ZM325.893 47.62L325.752 46.8835L325.227 46.9843L325.368 47.7208L325.51 48.4574L326.035 48.3566L325.893 47.62ZM325.368 47.7208L325.227 46.9843L324.702 47.0851L324.843 47.8216L324.985 48.5582L325.51 48.4574L325.368 47.7208ZM324.843 47.8216L324.702 47.0851C321.636 47.6736 318.573 47.7291 315.509 47.2522L315.393 47.9933L315.278 48.7344C318.514 49.238 321.751 49.179 324.985 48.5582L324.843 47.8216ZM315.393 47.9933L315.509 47.2522L314.984 47.1705L314.868 47.9116L314.753 48.6527L315.278 48.7344L315.393 47.9933ZM314.868 47.9116L314.984 47.1705L314.459 47.0888L314.343 47.8299L314.228 48.571L314.753 48.6527L314.868 47.9116ZM314.343 47.8299L314.459 47.0888C311.284 46.5948 308.109 46.2611 304.934 46.0878L304.893 46.8367L304.852 47.5856C307.977 47.7561 311.102 48.0845 314.228 48.571L314.343 47.8299ZM304.893 46.8367L304.934 46.0878L304.409 46.0592L304.368 46.8081L304.327 47.557L304.852 47.5856L304.893 46.8367ZM304.368 46.8081L304.409 46.0592L303.884 46.0305L303.843 46.7794L303.802 47.5283L304.327 47.557L304.368 46.8081ZM303.843 46.7794L303.884 46.0305C300.736 45.8588 297.587 45.677 294.439 45.4852L294.393 46.2338L294.348 46.9824C297.499 47.1744 300.651 47.3564 303.802 47.5283L303.843 46.7794ZM294.393 46.2338L294.439 45.4852L293.914 45.4532L293.868 46.2018L293.823 46.9504L294.348 46.9824L294.393 46.2338ZM293.868 46.2018L293.914 45.4532L293.389 45.4212L293.343 46.1698L293.298 46.9184L293.823 46.9504L293.868 46.2018ZM293.343 46.1698L293.389 45.4212C290.235 45.229 287.081 45.0632 283.926 44.9238L283.893 45.6731L283.86 46.4224C287.006 46.5614 290.152 46.7268 293.298 46.9184L293.343 46.1698ZM283.893 45.6731L283.926 44.9238L283.401 44.9006L283.368 45.6499L283.335 46.3992L283.86 46.4224L283.893 45.6731ZM283.368 45.6499L283.401 44.9006L282.876 44.8774L282.843 45.6267L282.81 46.3759L283.335 46.3992L283.368 45.6499ZM282.843 45.6267L282.876 44.8774C279.693 44.7367 276.51 44.8063 273.328 45.0861L273.393 45.8332L273.459 46.5803C276.576 46.3063 279.693 46.2382 282.81 46.3759L282.843 45.6267ZM273.393 45.8332L273.328 45.0861L272.803 45.1322L272.868 45.8793L272.934 46.6264L273.459 46.5803L273.393 45.8332ZM272.868 45.8793L272.803 45.1322L272.278 45.1784L272.343 45.9255L272.409 46.6726L272.934 46.6264L272.868 45.8793ZM272.343 45.9255L272.278 45.1784C269.17 45.4515 266.062 45.4605 262.955 45.2051L262.893 45.9526L262.832 46.7001C266.024 46.9624 269.217 46.9532 272.409 46.6726L272.343 45.9255ZM262.893 45.9526L262.955 45.2051L262.43 45.162L262.368 45.9095L262.307 46.657L262.832 46.7001L262.893 45.9526ZM262.368 45.9095L262.43 45.162L261.905 45.1189L261.843 45.8664L261.782 46.6138L262.307 46.657L262.368 45.9095ZM261.843 45.8664L261.905 45.1189C258.649 44.8514 255.398 45.259 252.157 46.3349L252.393 47.0467L252.63 47.7585C255.689 46.743 258.738 46.3637 261.782 46.6138L261.843 45.8664ZM252.393 47.0467L252.157 46.3349L251.632 46.5091L251.868 47.2209L252.105 47.9327L252.63 47.7585L252.393 47.0467ZM251.868 47.2209L251.632 46.5091L251.107 46.6834L251.343 47.3952L251.58 48.107L252.105 47.9327L251.868 47.2209ZM251.343 47.3952L251.107 46.6834C248.097 47.6825 245.101 47.7556 242.097 46.9072L241.893 47.6289L241.689 48.3507C244.986 49.2819 248.289 49.1993 251.58 48.107L251.343 47.3952ZM241.893 47.6289L242.097 46.9072L241.572 46.7589L241.368 47.4806L241.164 48.2024L241.689 48.3507L241.893 47.6289ZM241.368 47.4806L241.572 46.7589L241.047 46.6106L240.843 47.3323L240.639 48.0541L241.164 48.2024L241.368 47.4806ZM240.843 47.3323L241.047 46.6106C237.815 45.6973 234.575 45.3694 231.333 45.6304L231.393 46.378L231.454 47.1256C234.511 46.8793 237.572 47.1876 240.639 48.0541L240.843 47.3323ZM231.393 46.378L231.333 45.6304L230.808 45.6727L230.868 46.4203L230.929 47.1679L231.454 47.1256L231.393 46.378ZM230.868 46.4203L230.808 45.6727L230.283 45.715L230.343 46.4626L230.404 47.2102L230.929 47.1679L230.868 46.4203ZM230.343 46.4626L230.283 45.715C227.14 45.9681 223.997 46.1788 220.853 46.3468L220.893 47.0958L220.933 47.8447C224.09 47.6759 227.247 47.4644 230.404 47.2102L230.343 46.4626ZM220.893 47.0958L220.853 46.3468L220.328 46.3749L220.368 47.1239L220.408 47.8728L220.933 47.8447L220.893 47.0958ZM220.368 47.1239L220.328 46.3749L219.803 46.403L219.843 47.1519L219.883 47.9009L220.408 47.8728L220.368 47.1239ZM219.843 47.1519L219.803 46.403C216.678 46.5701 213.553 46.5808 210.428 46.4351L210.393 47.1843L210.358 47.9335C213.533 48.0815 216.708 48.0706 219.883 47.9009L219.843 47.1519ZM210.393 47.1843L210.428 46.4351L209.903 46.4107L209.868 47.1598L209.833 47.909L210.358 47.9335L210.393 47.1843ZM209.868 47.1598L209.903 46.4107L209.378 46.3862L209.343 47.1354L209.308 47.8846L209.833 47.909L209.868 47.1598ZM209.343 47.1354L209.378 46.3862C206.218 46.2388 203.057 46.1577 199.897 46.1427L199.893 46.8926L199.89 47.6426C203.029 47.6575 206.169 47.7382 209.308 47.8846L209.343 47.1354ZM199.893 46.8926L199.897 46.1427L199.372 46.1402L199.368 46.8901L199.365 47.6401L199.89 47.6426L199.893 46.8926ZM199.368 46.8901L199.372 46.1402L198.847 46.1377L198.843 46.8877L198.84 47.6376L199.365 47.6401L199.368 46.8901ZM198.843 46.8877L198.847 46.1377C195.643 46.1224 192.441 46.4487 189.24 47.1155L189.393 47.8497L189.546 48.584C192.646 47.9381 195.743 47.6229 198.84 47.6376L198.843 46.8877ZM189.393 47.8497L189.24 47.1155L188.715 47.2249L188.868 47.9591L189.021 48.6934L189.546 48.584L189.393 47.8497ZM188.868 47.9591L188.715 47.2249L188.19 47.3343L188.343 48.0685L188.496 48.8028L189.021 48.6934L188.868 47.9591ZM188.343 48.0685L188.19 47.3343C185.168 47.9641 182.147 47.8121 179.115 46.873L178.893 47.5894L178.671 48.3058C181.94 49.3182 185.219 49.4857 188.496 48.8028L188.343 48.0685ZM178.893 47.5894L179.115 46.873L178.59 46.7104L178.368 47.4268L178.146 48.1432L178.671 48.3058L178.893 47.5894ZM178.368 47.4268L178.59 46.7104L178.065 46.5478L177.843 47.2642L177.621 47.9806L178.146 48.1432L178.368 47.4268ZM177.843 47.2642L178.065 46.5478C174.864 45.556 171.658 44.9388 168.449 44.6979L168.393 45.4458L168.337 46.1936C171.428 46.4258 174.523 47.0208 177.621 47.9806L177.843 47.2642ZM168.393 45.4458L168.449 44.6979L167.924 44.6584L167.868 45.4063L167.812 46.1542L168.337 46.1936L168.393 45.4458ZM167.868 45.4063L167.924 44.6584L167.399 44.619L167.343 45.3669L167.287 46.1148L167.812 46.1542L167.868 45.4063ZM167.343 45.3669L167.399 44.619C164.233 44.3813 161.067 44.2476 157.9 44.2179L157.893 44.9678L157.886 45.7178C161.02 45.7472 164.153 45.8795 167.287 46.1148L167.343 45.3669ZM157.893 44.9678L157.9 44.2179L157.375 44.213L157.368 44.9629L157.361 45.7129L157.886 45.7178L157.893 44.9678ZM157.368 44.9629L157.375 44.213L156.85 44.208L156.843 44.958L156.836 45.708L157.361 45.7129L157.368 44.9629ZM156.843 44.958L156.85 44.208C153.654 44.1781 150.458 44.4445 147.263 45.0067L147.393 45.7454L147.523 46.484C150.629 45.9374 153.733 45.6789 156.836 45.708L156.843 44.958ZM147.393 45.7454L147.263 45.0067L146.738 45.0991L146.868 45.8378L146.998 46.5764L147.523 46.484L147.393 45.7454ZM146.868 45.8378L146.738 45.0991L146.213 45.1915L146.343 45.9302L146.473 46.6688L146.998 46.5764L146.868 45.8378ZM146.343 45.9302L146.213 45.1915C143.08 45.743 139.948 46.1828 136.815 46.5109L136.893 47.2569L136.971 48.0028C140.139 47.6709 143.306 47.2263 146.473 46.6688L146.343 45.9302ZM136.893 47.2569L136.815 46.5109L136.29 46.5659L136.368 47.3119L136.446 48.0578L136.971 48.0028L136.893 47.2569ZM136.368 47.3119L136.29 46.5659L135.765 46.6209L135.843 47.3669L135.921 48.1128L136.446 48.0578L136.368 47.3119ZM135.843 47.3669L135.765 46.6209C132.64 46.9483 129.516 47.1165 126.391 47.1254L126.393 47.8754L126.395 48.6254C129.571 48.6163 132.746 48.4454 135.921 48.1128L135.843 47.3669ZM126.393 47.8754L126.391 47.1254L125.866 47.1269L125.868 47.8769L125.87 48.6269L126.395 48.6254L126.393 47.8754ZM125.868 47.8769L125.866 47.1269L125.341 47.1284L125.343 47.8784L125.345 48.6284L125.87 48.6269L125.868 47.8769ZM125.343 47.8784L125.341 47.1284C122.256 47.1372 119.168 46.7531 116.077 45.9745L115.893 46.7017L115.71 47.429C118.919 48.2373 122.131 48.6376 125.345 48.6284L125.343 47.8784ZM115.893 46.7017L116.077 45.9745L115.552 45.8422L115.368 46.5695L115.185 47.2968L115.71 47.429L115.893 46.7017ZM115.368 46.5695L115.552 45.8422L115.027 45.71L114.843 46.4373L114.66 47.1645L115.185 47.2968L115.368 46.5695ZM114.843 46.4373L115.027 45.71C111.806 44.8986 108.58 44.5801 105.352 44.7565L105.393 45.5054L105.434 46.2543C108.507 46.0863 111.581 46.389 114.66 47.1645L114.843 46.4373ZM105.393 45.5054L105.352 44.7565L104.827 44.7852L104.868 45.5341L104.909 46.283L105.434 46.2543L105.393 45.5054ZM104.868 45.5341L104.827 44.7852L104.302 44.8139L104.343 45.5628L104.384 46.3117L104.909 46.283L104.868 45.5341ZM104.343 45.5628L104.302 44.8139C101.091 44.9895 97.8833 45.555 94.6794 46.5085L94.8933 47.2274L95.1072 47.9462C98.2033 47.0248 101.295 46.4806 104.384 46.3117L104.343 45.5628ZM94.8933 47.2274L94.6794 46.5085L94.1544 46.6648L94.3683 47.3836L94.5822 48.1025L95.1072 47.9462L94.8933 47.2274ZM94.3683 47.3836L94.1544 46.6648L93.6294 46.821L93.8433 47.5399L94.0572 48.2587L94.5822 48.1025L94.3683 47.3836ZM93.8433 47.5399L93.6294 46.821C90.5473 47.7383 87.4709 48.1855 84.3981 48.166L84.3933 48.916L84.3885 49.6659C87.6157 49.6865 90.8394 49.2164 94.0572 48.2587L93.8433 47.5399ZM84.3933 48.916L84.3981 48.166L83.8731 48.1626L83.8683 48.9126L83.8635 49.6626L84.3885 49.6659L84.3933 48.916ZM83.8683 48.9126L83.8731 48.1626L83.3481 48.1593L83.3433 48.9093L83.3385 49.6592L83.8635 49.6626L83.8683 48.9126ZM83.3433 48.9093L83.3481 48.1593C80.2504 48.1395 77.1513 47.7984 74.0502 47.1351L73.8933 47.8685L73.7364 48.6019C76.9353 49.2861 80.1363 49.6389 83.3385 49.6592L83.3433 48.9093ZM73.8933 47.8685L74.0502 47.1351L73.5252 47.0228L73.3683 47.7562L73.2114 48.4896L73.7364 48.6019L73.8933 47.8685ZM73.3683 47.7562L73.5252 47.0228L73.0002 46.9105L72.8433 47.6439L72.6864 48.3773L73.2114 48.4896L73.3683 47.7562ZM72.8433 47.6439L73.0002 46.9105C69.737 46.2125 66.4707 46.2743 63.2104 47.0942L63.3933 47.8216L63.5762 48.5489C66.6159 47.7845 69.6496 47.7278 72.6864 48.3773L72.8433 47.6439ZM63.3933 47.8216L63.2104 47.0942L62.6854 47.2262L62.8683 47.9536L63.0512 48.6809L63.5762 48.5489L63.3933 47.8216ZM62.8683 47.9536L62.6854 47.2262L62.1604 47.3583L62.3433 48.0856L62.5262 48.813L63.0512 48.6809L62.8683 47.9536ZM62.3433 48.0856L62.1604 47.3583C59.0952 48.1292 56.0354 48.3422 52.9767 48L52.8933 48.7453L52.8099 49.4907C56.0513 49.8533 59.2915 49.6265 62.5262 48.813L62.3433 48.0856ZM52.8933 48.7453L52.9767 48L52.4517 47.9412L52.3683 48.6866L52.2849 49.4319L52.8099 49.4907L52.8933 48.7453ZM52.3683 48.6866L52.4517 47.9412L51.9267 47.8825L51.8433 48.6278L51.7599 49.3732L52.2849 49.4319L52.3683 48.6866ZM51.8433 48.6278L51.9267 47.8825C48.8215 47.5351 45.7143 46.9053 42.6046 45.9923L42.3933 46.7119L42.182 47.4315C45.3723 48.3682 48.5651 49.0158 51.7599 49.3732L51.8433 48.6278ZM42.3933 46.7119L42.6046 45.9923L42.0796 45.8381L41.8683 46.5578L41.657 47.2774L42.182 47.4315L42.3933 46.7119ZM41.8683 46.5578L42.0796 45.8381L41.5546 45.684L41.3433 46.4036L41.132 47.1232L41.657 47.2774L41.8683 46.5578ZM41.3433 46.4036L41.5546 45.684C38.2807 44.7227 34.9976 44.6336 31.7184 45.4199L31.8933 46.1492L32.0682 46.8785C35.089 46.1542 38.1059 46.2347 41.132 47.1232L41.3433 46.4036ZM31.8933 46.1492L31.7184 45.4199L31.1934 45.5457L31.3683 46.2751L31.5432 47.0044L32.0682 46.8785L31.8933 46.1492ZM31.3683 46.2751L31.1934 45.5457L30.6684 45.6716L30.8433 46.4009L31.0182 47.1303L31.5432 47.0044L31.3683 46.2751ZM30.8433 46.4009L30.6684 45.6716C27.5805 46.412 24.4961 46.7397 21.4136 46.6563L21.3933 47.4061L21.373 48.1558C24.5905 48.2428 27.8061 47.9004 31.0182 47.1303L30.8433 46.4009ZM21.3933 47.4061L21.4136 46.6563L20.8886 46.6421L20.8683 47.3919L20.848 48.1416L21.373 48.1558L21.3933 47.4061ZM20.8683 47.3919L20.8886 46.6421L20.3636 46.6279L20.3433 47.3777L20.323 48.1274L20.848 48.1416L20.8683 47.3919ZM20.3433 47.3777L20.3636 46.6279C17.2424 46.5435 14.0449 46.2767 10.7707 45.8269L10.6686 46.5699L10.5665 47.3129C13.8919 47.7698 17.1442 48.0414 20.323 48.1274L20.3433 47.3777ZM10.6686 46.5699L10.7707 45.8269L10.2207 45.7513L10.1186 46.4944L10.0166 47.2374L10.5665 47.3129L10.6686 46.5699ZM10.1186 46.4944L10.2207 45.7513L9.67073 45.6758L9.56866 46.4188L9.46659 47.1618L10.0166 47.2374L10.1186 46.4944ZM9.56866 46.4188L9.67073 45.6758C8.13474 45.4648 6.89505 44.9449 5.91768 44.142C4.94004 43.3389 4.18364 42.2187 3.6679 40.7424L2.95986 40.9898L2.25183 41.2371C2.84214 42.9269 3.74023 44.2945 4.96553 45.3011C6.19109 46.3079 7.70277 46.9195 9.46659 47.1618L9.56866 46.4188ZM2.95986 40.9898L3.6679 40.7424L3.48356 40.2147L2.77552 40.4621L2.06748 40.7094L2.25183 41.2371L2.95986 40.9898ZM2.77552 40.4621L3.48356 40.2147L3.29921 39.6871L2.59118 39.9344L1.88314 40.1818L2.06748 40.7094L2.77552 40.4621ZM2.59118 39.9344L3.29921 39.6871C2.22032 36.5988 1.70743 33.5276 1.754 30.47L1.00409 30.4586L0.254178 30.4472C0.204753 33.6919 0.749917 36.938 1.88314 40.1818L2.59118 39.9344ZM1.00409 30.4586L1.754 30.47L1.762 29.9449L1.01209 29.9334L0.262177 29.922L0.254178 30.4472L1.00409 30.4586ZM1.01209 29.9334L1.762 29.9449L1.77 29.4197L1.02009 29.4082L0.270177 29.3968L0.262177 29.922L1.01209 29.9334ZM1.02009 29.4082L1.77 29.4197C1.81827 26.2509 1.75489 23.0787 1.57988 19.9031L0.831012 19.9444L0.0821489 19.9857C0.255237 23.1263 0.317909 26.2633 0.270177 29.3968L1.02009 29.4082ZM0.831012 19.9444L1.57988 19.9031L1.55087 19.3768L0.802004 19.418L0.0531403 19.4593L0.0821489 19.9857L0.831012 19.9444ZM0.802004 19.418L1.55087 19.3768L1.52186 18.8504L0.772995 18.8917L0.0241317 18.933L0.0531403 19.4593L0.802004 19.418ZM0.772995 18.8917L1.52186 18.8504C1.35697 15.8585 2.12349 13.1957 3.82088 10.8312L3.21162 10.3938L2.60235 9.95646C0.700141 12.6063 -0.15908 15.6087 0.0241317 18.933L0.772995 18.8917ZM3.21162 10.3938L3.82088 10.8312L4.12085 10.4133L3.51158 9.97597L2.90232 9.5386L2.60235 9.95646L3.21162 10.3938ZM3.51158 9.97597L4.12085 10.4133L4.42082 9.99549L3.81155 9.55811L3.20228 9.12074L2.90232 9.5386L3.51158 9.97597ZM3.81155 9.55811L4.42082 9.99549C6.17662 7.54962 8.03311 5.77472 9.97979 4.63371L9.60054 3.98666L9.22129 3.33962C7.04891 4.61291 5.04607 6.55231 3.20228 9.12074L3.81155 9.55811ZM9.60054 3.98666L9.97979 4.63371L10.323 4.43252L9.9438 3.78547L9.56454 3.13843L9.22129 3.33962L9.60054 3.98666ZM9.9438 3.78547L10.323 4.43252L10.6663 4.23133L10.2871 3.58428L9.9078 2.93723L9.56454 3.13843L9.9438 3.78547ZM10.2871 3.58428L10.6663 4.23133C11.6929 3.6296 12.4415 3.22004 12.9249 2.99124C13.1764 2.87219 13.3123 2.82341 13.3636 2.81071C13.4082 2.79967 13.3189 2.83211 13.1786 2.80357C13.0946 2.7865 12.9406 2.73657 12.808 2.58995C12.6663 2.43322 12.6263 2.25224 12.6263 2.12199H13.3763H14.1263C14.1263 1.9627 14.0784 1.75831 13.9205 1.58379C13.7718 1.41938 13.5937 1.35728 13.4775 1.33366C13.2729 1.29204 13.0871 1.33387 13.0029 1.35473C12.7967 1.40581 12.5465 1.51078 12.2831 1.63545C11.7368 1.89408 10.9407 2.33181 9.9078 2.93723L10.2871 3.58428ZM13.3763 2.12199H12.6263V2.1607H13.3763H14.1263V2.12199H13.3763ZM13.3763 2.1607H12.6263V2.19942H13.3763H14.1263V2.1607H13.3763ZM13.3763 2.19942H12.6263C12.6263 2.43805 12.7297 2.61545 12.8148 2.71926C12.8971 2.81951 12.9882 2.88488 13.0506 2.92414C13.1752 3.00259 13.3153 3.05699 13.4337 3.09658C13.6808 3.17927 14.017 3.25655 14.4196 3.3319C15.2346 3.48442 16.4376 3.64982 18.0168 3.8289L18.1013 3.08368L18.1859 2.33846C16.6151 2.16032 15.4556 1.99974 14.6956 1.8575C14.3107 1.78547 14.0563 1.72318 13.9097 1.67411C13.8311 1.64782 13.8236 1.6383 13.8498 1.65477C13.8629 1.66304 13.9172 1.69791 13.9748 1.76815C14.0353 1.84194 14.1263 1.98982 14.1263 2.19942H13.3763ZM18.1013 3.08368L18.0168 3.8289L18.5418 3.88844L18.6263 3.14322L18.7109 2.39799L18.1859 2.33846L18.1013 3.08368Z"
        fill="black" />
    <path
        d="M188.668 19.0162C188.536 19.0661 188.038 19.0332 187.181 18.776C186.508 18.5739 186.023 18.4009 185.656 18.309C185.219 18.1994 184.791 18.1172 184.176 18.0758C183.386 18.0224 182.809 18.0838 182.478 18.1829C181.18 18.5721 180.895 18.7495 180.388 19.0482C179.789 19.4012 179.297 19.8802 178.905 20.3712C178.661 20.6786 178.53 20.979 178.405 21.2956C178.195 21.8252 177.865 22.6731 177.764 23.2432C177.717 23.5085 177.647 23.8258 177.597 24.4134C177.438 26.2838 177.63 26.8204 177.771 27.5044C177.858 27.9268 177.913 28.3207 178.021 28.6458C178.11 28.9128 178.179 29.3845 178.396 30.1262C178.493 30.459 178.545 30.8009 178.762 31.4744C178.944 32.0413 179.045 32.3831 179.186 32.7907C179.339 33.231 179.544 33.6477 179.91 34.5946C180.201 35.3504 180.409 35.7783 180.626 36.2036C180.826 36.5958 181.026 36.7951 181.234 37.0863C181.467 37.4122 181.808 37.7101 182.24 38.1182C182.572 38.4311 182.989 38.676 183.298 38.893C183.666 39.1524 184.088 39.0766 185.532 39.0853C186.039 39.0884 186.401 38.9777 186.761 38.7946C187.084 38.6297 187.318 38.3454 187.585 38.046C187.999 37.5802 188.483 37.0309 188.775 36.7225C189.125 36.3528 189.432 36.0979 189.732 35.9891C190.106 35.8533 190.745 35.8472 191.172 35.9548C191.552 36.0504 191.846 36.3457 192.121 36.5125C192.444 36.708 192.86 36.961 193.344 37.2282C193.673 37.4094 193.994 37.4614 194.393 37.5533C195.046 37.7035 196.189 37.5793 196.839 37.413C197.813 37.164 198.439 36.4645 198.805 35.9998C199.753 34.7943 199.954 33.7366 200.022 33.3346C200.084 32.9598 200.155 32.6358 200.196 32.1956C200.299 31.1076 199.956 30.7709 199.731 30.3884C199.578 30.1267 199.291 29.839 198.67 29.0948C198.198 28.5287 197.473 27.5266 197.05 26.8688C196.465 25.9606 196.459 25.1143 196.484 24.2992C196.505 23.614 196.725 23.3293 196.825 23.0129C196.931 22.6787 197.074 22.4304 197.307 22.1554C197.556 21.862 197.757 21.6642 198.106 21.4063C198.51 21.1075 198.789 20.6504 198.898 20.2413C199.012 19.8137 198.675 19.5336 198.342 19.1178C197.966 18.6482 197.56 18.3849 197.218 18.1429C196.976 17.9721 196.644 17.9344 195.07 17.7931C193.389 17.6422 192.248 17.7841 192.024 17.8091C191.601 17.8562 190.607 18.0653 189.603 18.3495C189.251 18.5163 188.986 18.6826 188.81 18.9071C188.768 18.9658 188.719 19.0152 188.568 19.166"
        stroke="#121212" stroke-linecap="round" />
    <path
        d="M188.119 16.3691C188.119 16.2033 188.152 15.9047 188.318 15.1817C188.431 14.6894 188.716 14.1756 188.983 13.6322C189.096 13.4028 189.531 12.9765 190.178 12.3532C190.491 12.052 190.859 11.8782 191.457 11.6362C192.876 11.0625 193.977 10.776 194.334 10.701C194.543 10.6756 194.71 10.6591 195.008 10.6341C195.208 10.6256 195.504 10.6256 195.86 10.5757"
        stroke="#121212" stroke-linecap="round" />
    <path
        d="M187.969 16.9687C188.134 16.9687 188.665 16.9358 189.58 16.7944C189.895 16.7458 190.28 16.703 190.869 16.5043C191.607 16.2555 192.129 15.9204 192.585 15.7301C194.007 15.1364 194.658 14.4076 195.01 14.048C195.335 13.7156 195.792 13.2739 196.042 12.8918C196.392 12.3574 196.558 11.9604 196.659 11.5761C196.753 11.2159 196.759 10.8272 196.619 10.6024C196.198 10.526 195.844 10.5425 195.711 10.5757C195.644 10.5924 195.578 10.6089 195.46 10.6259"
        stroke="#121212" stroke-linecap="round" />
    <path
        d="M193.654 17.5C192.454 17.1 188.654 19.5002 188.654 19.5002L185.154 18.5003C185.154 18.5003 181.354 18.131 179.654 19.5002C177.73 21.0494 177.654 25.5003 177.654 25.5003L179.654 33.0003C179.654 33.0003 180.535 37.1669 182.654 38.0003C183.926 38.5005 186.154 39 186.154 39C186.154 39 185.654 39.5003 188.654 36.5003C192.154 34.5003 192.654 36.5003 193.654 37.5003C194.654 38.5003 197.654 36.5003 198.654 36.5003C199.454 36.5003 199.654 32.5003 199.654 30.5003C198.821 29.5003 195.738 26.9957 196.154 24.5003C196.654 21.5001 199.387 21.8722 198.654 20.0003C198.017 18.374 195.154 18 193.654 17.5Z"
        fill="#121212" />
    <path
        d="M191.654 12C189.254 12.8 188.321 15.3333 188.154 16.5C189.487 16.3333 192.454 15.8 193.654 15C194.854 14.2 195.821 12 196.154 11C195.654 11 194.054 11.2 191.654 12Z"
        fill="#121212" />
    <path
        d="M215.966 20.3545C216.681 20.3545 217.47 20.4931 218.334 20.7705C218.526 20.9198 218.622 21.0851 218.622 21.2665C218.622 21.4371 218.532 21.5918 218.35 21.7305C218.18 21.8585 217.982 21.9225 217.758 21.9225C217.182 21.7731 216.644 21.6985 216.142 21.6985C214.99 21.6985 214.116 22.0398 213.518 22.7225C212.921 23.4051 212.622 24.4185 212.622 25.7625C212.622 27.1065 212.974 28.1571 213.678 28.9145C214.041 29.3091 214.473 29.5065 214.974 29.5065C215.476 29.5065 216.276 29.2398 217.374 28.7065C217.758 28.5251 218.014 28.4345 218.142 28.4345C218.42 28.4345 218.558 28.5785 218.558 28.8665C218.558 29.1545 218.425 29.3945 218.158 29.5865C217.241 30.0665 216.526 30.3918 216.014 30.5625C215.502 30.7225 215.06 30.8025 214.686 30.8025C213.918 30.8025 213.262 30.5198 212.718 29.9545C211.748 28.9091 211.262 27.4851 211.262 25.6825C211.262 23.8691 211.721 22.5305 212.638 21.6665C213.566 20.7918 214.676 20.3545 215.966 20.3545ZM222.796 23.3625C223.564 23.3625 224.193 23.7305 224.684 24.4665C225.185 25.2025 225.436 26.0878 225.436 27.1225C225.436 28.1465 225.18 29.0211 224.668 29.7465C224.167 30.4718 223.495 30.8345 222.652 30.8345C221.82 30.8345 221.148 30.4665 220.636 29.7305C220.124 28.9838 219.868 28.1571 219.868 27.2505C219.868 26.0878 220.103 25.1598 220.572 24.4665C221.073 23.7305 221.815 23.3625 222.796 23.3625ZM222.604 24.6745C222.156 24.6745 221.788 24.9091 221.5 25.3785C221.212 25.8478 221.068 26.3438 221.068 26.8665C221.068 27.6771 221.228 28.2958 221.548 28.7225C221.868 29.1491 222.231 29.3625 222.636 29.3625C223.361 29.3625 223.825 29.0478 224.028 28.4185C224.113 28.1198 224.156 27.7465 224.156 27.2985C224.156 25.5491 223.639 24.6745 222.604 24.6745ZM227.025 30.3225L226.849 23.8265C226.849 23.6238 226.918 23.4585 227.057 23.3305C227.196 23.2025 227.334 23.1385 227.473 23.1385C227.814 23.1385 228.012 23.2825 228.065 23.5705C228.108 23.8585 228.129 24.1571 228.129 24.4665C228.705 23.7091 229.425 23.3305 230.289 23.3305C231.612 23.3305 232.273 24.8398 232.273 27.8585C232.273 28.1358 232.273 28.5571 232.273 29.1225C232.273 29.6771 232.241 30.0825 232.177 30.3385C232.102 30.6585 231.873 30.8185 231.489 30.8185C231.233 30.8185 231.105 30.6478 231.105 30.3065L231.121 29.4105C231.121 28.1731 231.078 27.3305 230.993 26.8825C230.918 26.4238 230.844 26.0611 230.769 25.7945C230.588 25.2185 230.294 24.9305 229.889 24.9305C229.356 24.9305 228.982 25.1225 228.769 25.5065C228.534 25.9225 228.396 26.4131 228.353 26.9785C228.278 27.9705 228.241 29.0211 228.241 30.1305C228.241 30.3438 228.161 30.5145 228.001 30.6425C227.841 30.7705 227.649 30.8345 227.425 30.8345C227.158 30.8345 227.025 30.6638 227.025 30.3225ZM234.051 23.3465L234.851 23.3625C235.033 23.3625 235.134 23.3571 235.155 23.3465V20.0665C235.166 19.8851 235.257 19.7305 235.427 19.6025C235.598 19.4745 235.758 19.4105 235.907 19.4105C236.057 19.4105 236.174 19.4585 236.259 19.5545C236.355 19.6505 236.398 19.7998 236.387 20.0025C236.377 20.2051 236.371 21.3145 236.371 23.3305L238.243 23.2665C238.563 23.2665 238.723 23.4531 238.723 23.8265C238.723 24.1038 238.638 24.3118 238.467 24.4505C238.307 24.5891 238.131 24.6638 237.939 24.6745C237.758 24.6851 237.577 24.6905 237.395 24.6905L236.419 24.6745C236.419 25.1118 236.462 25.9758 236.547 27.2665C236.643 28.5571 236.718 29.3945 236.771 29.7785C236.825 30.1518 236.835 30.3971 236.803 30.5145C236.771 30.6211 236.713 30.6958 236.627 30.7385C236.489 30.8025 236.302 30.8345 236.067 30.8345C235.833 30.8345 235.694 30.7065 235.651 30.4505C235.438 29.0531 235.294 27.1331 235.219 24.6905C235.123 24.7011 234.755 24.7065 234.115 24.7065C233.475 24.7065 233.155 24.5198 233.155 24.1465C233.155 23.6131 233.454 23.3465 234.051 23.3465ZM240.207 20.7065C240.399 20.7065 240.581 20.7971 240.751 20.9785C240.922 21.1598 241.007 21.3518 241.007 21.5545C241.007 21.7465 240.911 21.9438 240.719 22.1465C240.538 22.3491 240.346 22.4505 240.143 22.4505C239.941 22.4505 239.754 22.3651 239.583 22.1945C239.423 22.0238 239.343 21.8051 239.343 21.5385C239.343 21.0265 239.621 20.7491 240.175 20.7065C240.186 20.7065 240.197 20.7065 240.207 20.7065ZM240.879 29.0905L240.895 30.2105C240.895 30.4131 240.815 30.5838 240.655 30.7225C240.495 30.8505 240.325 30.9145 240.143 30.9145C239.877 30.9145 239.738 30.7811 239.727 30.5145C239.589 27.1118 239.519 25.2291 239.519 24.8665C239.519 24.5038 239.535 24.0611 239.567 23.5385C239.589 23.3465 239.711 23.2505 239.935 23.2505C240.501 23.2505 240.821 23.4798 240.895 23.9385C240.927 24.1731 240.943 24.3598 240.943 24.4985L240.879 25.5065V29.0905ZM243.337 30.3225L243.161 23.8265C243.161 23.6238 243.231 23.4585 243.369 23.3305C243.508 23.2025 243.647 23.1385 243.785 23.1385C244.127 23.1385 244.324 23.2825 244.377 23.5705C244.42 23.8585 244.441 24.1571 244.441 24.4665C245.017 23.7091 245.737 23.3305 246.601 23.3305C247.924 23.3305 248.585 24.8398 248.585 27.8585C248.585 28.1358 248.585 28.5571 248.585 29.1225C248.585 29.6771 248.553 30.0825 248.489 30.3385C248.415 30.6585 248.185 30.8185 247.801 30.8185C247.545 30.8185 247.417 30.6478 247.417 30.3065L247.433 29.4105C247.433 28.1731 247.391 27.3305 247.305 26.8825C247.231 26.4238 247.156 26.0611 247.081 25.7945C246.9 25.2185 246.607 24.9305 246.201 24.9305C245.668 24.9305 245.295 25.1225 245.081 25.5065C244.847 25.9225 244.708 26.4131 244.665 26.9785C244.591 27.9705 244.553 29.0211 244.553 30.1305C244.553 30.3438 244.473 30.5145 244.313 30.6425C244.153 30.7705 243.961 30.8345 243.737 30.8345C243.471 30.8345 243.337 30.6638 243.337 30.3225ZM249.932 23.9705C249.975 23.7891 250.065 23.6398 250.204 23.5225C250.343 23.3945 250.481 23.3305 250.62 23.3305C250.769 23.3305 250.881 23.3571 250.956 23.4105C251.041 23.4638 251.089 23.5118 251.1 23.5545C251.121 23.5971 251.143 23.6718 251.164 23.7785C251.1 24.6105 251.068 25.3625 251.068 26.0345C251.068 26.6958 251.148 27.4585 251.308 28.3225C251.468 29.1758 251.644 29.6025 251.836 29.6025C252.124 29.6025 252.487 29.4425 252.924 29.1225C253.372 28.8025 253.692 28.4665 253.884 28.1145C253.756 26.5785 253.692 25.2611 253.692 24.1625C253.692 23.9385 253.761 23.7465 253.9 23.5865C254.049 23.4265 254.225 23.3465 254.428 23.3465C254.759 23.3465 254.924 23.5705 254.924 24.0185C254.924 24.7758 254.977 25.9011 255.084 27.3945C255.201 28.8878 255.319 29.8371 255.436 30.2425C255.457 30.3278 255.468 30.4291 255.468 30.5465C255.468 30.6531 255.393 30.7545 255.244 30.8505C255.105 30.9571 254.919 31.0105 254.684 31.0105C254.46 31.0105 254.311 30.8825 254.236 30.6265C254.215 30.4131 254.161 30.0931 254.076 29.6665C253.329 30.4451 252.577 30.8345 251.82 30.8345C251.468 30.8345 251.153 30.7011 250.876 30.4345C250.599 30.1678 250.38 29.8051 250.22 29.3465C249.943 28.4611 249.804 27.6291 249.804 26.8505C249.804 26.0718 249.847 25.1118 249.932 23.9705ZM258.674 23.4105C259.239 23.4105 259.778 23.5758 260.29 23.9065C260.802 24.2371 261.058 24.6478 261.058 25.1385C261.058 25.6185 260.85 26.0878 260.434 26.5465C260.018 26.9945 259.463 27.2665 258.77 27.3625C258.471 27.4051 258.023 27.4265 257.426 27.4265C257.543 28.3331 257.773 28.9305 258.114 29.2185C258.221 29.3358 258.365 29.3945 258.546 29.3945C259.207 29.3945 259.762 29.1865 260.21 28.7705C260.658 28.3438 260.978 28.1305 261.17 28.1305C261.255 28.1305 261.383 28.2105 261.554 28.3705C261.725 28.5305 261.81 28.6798 261.81 28.8185C261.81 29.0958 261.474 29.4958 260.802 30.0185C260.503 30.2638 260.141 30.4718 259.714 30.6425C259.298 30.8025 258.909 30.8825 258.546 30.8825C257.618 30.8825 256.935 30.2851 256.498 29.0905C256.221 28.3545 256.082 27.5438 256.082 26.6585C256.082 25.7731 256.29 25.0105 256.706 24.3705C257.122 23.7305 257.778 23.4105 258.674 23.4105ZM258.754 24.5145C258.349 24.5145 258.002 24.7438 257.714 25.2025C257.607 25.3625 257.506 25.7251 257.41 26.2905C258.903 26.2905 259.65 25.9225 259.65 25.1865C259.65 24.7385 259.351 24.5145 258.754 24.5145ZM267.761 30.8025C267.398 30.8025 267.046 30.0985 266.705 28.6905C266.374 27.2718 266.209 25.6825 266.209 23.9225C266.209 23.7411 266.283 23.6025 266.433 23.5065C266.593 23.3998 266.737 23.3465 266.865 23.3465C266.993 23.3465 267.094 23.3891 267.169 23.4745C267.254 23.5491 267.297 23.6505 267.297 23.7785C267.297 25.4425 267.579 27.0425 268.145 28.5785C268.23 28.4505 268.363 28.1945 268.545 27.8105C268.726 27.4158 268.897 27.1278 269.057 26.9465C269.217 26.7651 269.409 26.6745 269.633 26.6745C269.857 26.6745 270.091 26.8398 270.337 27.1705C270.582 27.5011 270.79 27.8585 270.961 28.2425C271.142 28.6158 271.243 28.8131 271.265 28.8345C271.553 27.9385 271.697 27.1065 271.697 26.3385L271.601 23.9065C271.59 23.7465 271.665 23.6131 271.825 23.5065C271.985 23.3891 272.139 23.3305 272.289 23.3305C272.598 23.3305 272.753 23.9331 272.753 25.1385V26.0185C272.753 27.4478 272.534 28.7225 272.097 29.8425C271.862 30.4825 271.569 30.8025 271.217 30.8025C271.014 30.8025 270.827 30.6745 270.657 30.4185C270.486 30.1518 270.294 29.7785 270.081 29.2985C269.867 28.8185 269.702 28.4878 269.585 28.3065L269.105 29.2505C268.923 29.6238 268.785 29.8958 268.689 30.0665C268.593 30.2265 268.459 30.3918 268.289 30.5625C268.118 30.7225 267.942 30.8025 267.761 30.8025ZM274.895 20.7065C275.087 20.7065 275.268 20.7971 275.439 20.9785C275.61 21.1598 275.695 21.3518 275.695 21.5545C275.695 21.7465 275.599 21.9438 275.407 22.1465C275.226 22.3491 275.034 22.4505 274.831 22.4505C274.628 22.4505 274.442 22.3651 274.271 22.1945C274.111 22.0238 274.031 21.8051 274.031 21.5385C274.031 21.0265 274.308 20.7491 274.863 20.7065C274.874 20.7065 274.884 20.7065 274.895 20.7065ZM275.567 29.0905L275.583 30.2105C275.583 30.4131 275.503 30.5838 275.343 30.7225C275.183 30.8505 275.012 30.9145 274.831 30.9145C274.564 30.9145 274.426 30.7811 274.415 30.5145C274.276 27.1118 274.207 25.2291 274.207 24.8665C274.207 24.5038 274.223 24.0611 274.255 23.5385C274.276 23.3465 274.399 23.2505 274.623 23.2505C275.188 23.2505 275.508 23.4798 275.583 23.9385C275.615 24.1731 275.631 24.3598 275.631 24.4985L275.567 25.5065V29.0905ZM277.817 23.3465L278.617 23.3625C278.798 23.3625 278.9 23.3571 278.921 23.3465V20.0665C278.932 19.8851 279.022 19.7305 279.193 19.6025C279.364 19.4745 279.524 19.4105 279.673 19.4105C279.822 19.4105 279.94 19.4585 280.025 19.5545C280.121 19.6505 280.164 19.7998 280.153 20.0025C280.142 20.2051 280.137 21.3145 280.137 23.3305L282.009 23.2665C282.329 23.2665 282.489 23.4531 282.489 23.8265C282.489 24.1038 282.404 24.3118 282.233 24.4505C282.073 24.5891 281.897 24.6638 281.705 24.6745C281.524 24.6851 281.342 24.6905 281.161 24.6905L280.185 24.6745C280.185 25.1118 280.228 25.9758 280.313 27.2665C280.409 28.5571 280.484 29.3945 280.537 29.7785C280.59 30.1518 280.601 30.3971 280.569 30.5145C280.537 30.6211 280.478 30.6958 280.393 30.7385C280.254 30.8025 280.068 30.8345 279.833 30.8345C279.598 30.8345 279.46 30.7065 279.417 30.4505C279.204 29.0531 279.06 27.1331 278.985 24.6905C278.889 24.7011 278.521 24.7065 277.881 24.7065C277.241 24.7065 276.921 24.5198 276.921 24.1465C276.921 23.6131 277.22 23.3465 277.817 23.3465ZM284.629 25.6345L284.757 29.4105C284.757 29.8798 284.736 30.1518 284.693 30.2265C284.672 30.4185 284.608 30.5678 284.501 30.6745C284.405 30.7811 284.213 30.8345 283.925 30.8345C283.786 30.8345 283.674 30.7491 283.589 30.5785C283.504 30.3971 283.456 30.1945 283.445 29.9705C283.37 28.0931 283.269 26.3331 283.141 24.6905C283.024 23.0371 282.965 21.5011 282.965 20.0825C282.965 19.8585 283.04 19.6825 283.189 19.5545C283.338 19.4265 283.514 19.3625 283.717 19.3625C284.016 19.3625 284.192 19.6185 284.245 20.1305C284.309 20.6425 284.346 21.2825 284.357 22.0505C284.378 22.8185 284.4 23.3785 284.421 23.7305C284.954 23.4531 285.488 23.3145 286.021 23.3145C287.258 23.3145 288.042 23.8585 288.373 24.9465C288.565 25.5651 288.661 26.3598 288.661 27.3305C288.661 27.6505 288.629 28.1571 288.565 28.8505C288.512 29.5331 288.48 29.9758 288.469 30.1785C288.458 30.3811 288.368 30.5411 288.197 30.6585C288.037 30.7651 287.861 30.8185 287.669 30.8185C287.37 30.8185 287.221 30.6585 287.221 30.3385L287.333 27.5545C287.333 27.3198 287.322 26.9305 287.301 26.3865C287.28 25.8425 287.168 25.4105 286.965 25.0905C286.773 24.7705 286.432 24.6105 285.941 24.6105C285.066 24.6105 284.629 24.9518 284.629 25.6345ZM296.859 20.2745C297.126 20.2745 297.35 20.3918 297.531 20.6265C297.713 20.8611 297.947 21.3465 298.235 22.0825C298.907 23.8211 299.563 26.5465 300.203 30.2585C300.214 30.3011 300.219 30.3651 300.219 30.4505C300.219 30.5251 300.166 30.6105 300.059 30.7065C299.963 30.7918 299.819 30.8345 299.627 30.8345C299.446 30.8345 299.291 30.7918 299.163 30.7065C299.035 30.6105 298.95 30.4611 298.907 30.2585C298.865 30.0451 298.785 29.6345 298.667 29.0265C298.411 27.6718 298.241 26.9678 298.155 26.9145C298.027 26.8398 297.601 26.7598 296.875 26.6745C296.161 26.5891 295.686 26.5465 295.451 26.5465C295.217 26.5465 295.078 26.5678 295.035 26.6105C294.843 26.7811 294.582 28.0771 294.251 30.4985C294.209 30.7011 294.006 30.8025 293.643 30.8025C293.281 30.8025 293.099 30.6478 293.099 30.3385C293.099 29.5705 293.382 28.1038 293.947 25.9385C294.513 23.7731 294.982 22.3385 295.355 21.6345C295.825 20.7278 296.326 20.2745 296.859 20.2745ZM296.795 22.0505C296.635 22.0505 296.358 22.5251 295.963 23.4745C295.569 24.4131 295.371 24.9945 295.371 25.2185C295.371 25.2718 295.382 25.3091 295.403 25.3305C295.489 25.4158 295.825 25.4905 296.411 25.5545C296.998 25.6185 297.387 25.6505 297.579 25.6505C297.771 25.6505 297.878 25.6398 297.899 25.6185C297.921 25.5865 297.931 25.5011 297.931 25.3625C297.931 25.2131 297.787 24.6265 297.499 23.6025C297.211 22.5678 296.977 22.0505 296.795 22.0505ZM303.664 30.8025C303.301 30.8025 302.965 30.6798 302.656 30.4345C302.656 30.4345 302.586 30.3758 302.448 30.2585V35.0585C302.384 35.2718 302.272 35.4478 302.112 35.5865C301.952 35.7358 301.781 35.8105 301.6 35.8105C301.322 35.8105 301.184 35.6238 301.184 35.2505V24.0985C301.248 23.8211 301.322 23.6238 301.408 23.5065C301.504 23.3891 301.648 23.3305 301.84 23.3305C302.042 23.3305 302.17 23.3785 302.224 23.4745C302.288 23.5598 302.362 23.8051 302.448 24.2105C302.49 23.9971 302.661 23.7998 302.96 23.6185C303.258 23.4371 303.658 23.3465 304.16 23.3465C305.248 23.3465 306.021 23.7411 306.48 24.5305C306.938 25.3198 307.168 26.2531 307.168 27.3305C307.168 28.3971 306.853 29.2451 306.224 29.8745C305.605 30.4931 304.752 30.8025 303.664 30.8025ZM302.448 26.0025V28.9785C302.512 29.0105 302.586 29.0638 302.672 29.1385C302.981 29.4158 303.317 29.5545 303.68 29.5545C305.152 29.5545 305.888 28.7971 305.888 27.2825C305.888 25.9918 305.557 25.1758 304.896 24.8345C304.618 24.6851 304.277 24.6105 303.872 24.6105C303.477 24.6638 303.141 24.8398 302.864 25.1385C302.586 25.4265 302.448 25.7145 302.448 26.0025ZM310.507 30.8025C310.145 30.8025 309.809 30.6798 309.499 30.4345C309.499 30.4345 309.43 30.3758 309.291 30.2585V35.0585C309.227 35.2718 309.115 35.4478 308.955 35.5865C308.795 35.7358 308.625 35.8105 308.443 35.8105C308.166 35.8105 308.027 35.6238 308.027 35.2505V24.0985C308.091 23.8211 308.166 23.6238 308.251 23.5065C308.347 23.3891 308.491 23.3305 308.683 23.3305C308.886 23.3305 309.014 23.3785 309.067 23.4745C309.131 23.5598 309.206 23.8051 309.291 24.2105C309.334 23.9971 309.505 23.7998 309.803 23.6185C310.102 23.4371 310.502 23.3465 311.003 23.3465C312.091 23.3465 312.865 23.7411 313.323 24.5305C313.782 25.3198 314.011 26.2531 314.011 27.3305C314.011 28.3971 313.697 29.2451 313.067 29.8745C312.449 30.4931 311.595 30.8025 310.507 30.8025ZM309.291 26.0025V28.9785C309.355 29.0105 309.43 29.0638 309.515 29.1385C309.825 29.4158 310.161 29.5545 310.523 29.5545C311.995 29.5545 312.731 28.7971 312.731 27.2825C312.731 25.9918 312.401 25.1758 311.739 24.8345C311.462 24.6851 311.121 24.6105 310.715 24.6105C310.321 24.6638 309.985 24.8398 309.707 25.1385C309.43 25.4265 309.291 25.7145 309.291 26.0025ZM314.775 20.4665C314.807 20.0611 314.871 19.7998 314.967 19.6825C315.074 19.5545 315.239 19.4905 315.463 19.4905C315.922 19.4905 316.151 19.6771 316.151 20.0505C316.151 20.3385 316.125 21.0905 316.071 22.3065C316.029 23.5225 316.007 24.6105 316.007 25.5705C316.007 26.5305 316.045 27.3038 316.119 27.8905C316.247 28.9145 316.429 29.4265 316.663 29.4265C316.898 29.4265 317.074 29.2611 317.191 28.9305C317.245 28.8025 317.33 28.6905 317.447 28.5945C317.565 28.4878 317.714 28.4345 317.895 28.4345C318.269 28.4345 318.455 28.7491 318.455 29.3785C318.455 29.7198 318.269 30.0611 317.895 30.4025C317.533 30.7331 317.17 30.8985 316.807 30.8985C316.445 30.8985 316.151 30.8398 315.927 30.7225C315.714 30.5945 315.538 30.4078 315.399 30.1625C315.271 29.9171 315.165 29.6825 315.079 29.4585C315.005 29.2238 314.951 28.9411 314.919 28.6105C314.855 28.0771 314.807 27.2238 314.775 26.0505C314.754 24.8665 314.743 23.7411 314.743 22.6745C314.743 21.5971 314.754 20.8611 314.775 20.4665ZM321.377 23.4105C321.943 23.4105 322.481 23.5758 322.993 23.9065C323.505 24.2371 323.761 24.6478 323.761 25.1385C323.761 25.6185 323.553 26.0878 323.137 26.5465C322.721 26.9945 322.167 27.2665 321.473 27.3625C321.175 27.4051 320.727 27.4265 320.129 27.4265C320.247 28.3331 320.476 28.9305 320.817 29.2185C320.924 29.3358 321.068 29.3945 321.249 29.3945C321.911 29.3945 322.465 29.1865 322.913 28.7705C323.361 28.3438 323.681 28.1305 323.873 28.1305C323.959 28.1305 324.087 28.2105 324.257 28.3705C324.428 28.5305 324.513 28.6798 324.513 28.8185C324.513 29.0958 324.177 29.4958 323.505 30.0185C323.207 30.2638 322.844 30.4718 322.417 30.6425C322.001 30.8025 321.612 30.8825 321.249 30.8825C320.321 30.8825 319.639 30.2851 319.201 29.0905C318.924 28.3545 318.785 27.5438 318.785 26.6585C318.785 25.7731 318.993 25.0105 319.409 24.3705C319.825 23.7305 320.481 23.4105 321.377 23.4105ZM321.457 24.5145C321.052 24.5145 320.705 24.7438 320.417 25.2025C320.311 25.3625 320.209 25.7251 320.113 26.2905C321.607 26.2905 322.353 25.9225 322.353 25.1865C322.353 24.7385 322.055 24.5145 321.457 24.5145Z"
        fill="#303133" />
</svg>