<svg width="83" height="42" viewBox="0 0 83 42" fill="none" xmlns="http://www.w3.org/2000/svg">
    <path
        d="M0 14.21C0 7.58254 5.37258 2.20996 12 2.20996H71C77.6274 2.20996 83 7.58254 83 14.21V27.21C83 33.8374 77.6274 39.21 71 39.21H12C5.37259 39.21 0 33.8374 0 27.21V14.21Z"
        fill="#303133" />
    <path
        d="M17.775 2.86486L17.6905 3.61009L17.775 2.86486ZM27.225 1.92305L27.0011 1.20724L27.225 1.92305ZM27.75 1.75887L27.9739 2.47468L27.75 1.75887ZM28.275 1.59469L28.0511 0.878872L28.275 1.59469ZM37.725 1.22426L37.8961 0.494039L37.725 1.22426ZM38.775 1.47031L38.6039 2.20053L38.775 1.47031ZM48.225 1.85455L48.3384 2.59592L48.225 1.85455ZM48.75 1.77422L48.6366 1.03285L48.75 1.77422ZM49.275 1.69389L49.1616 0.952519L49.275 1.69389ZM77.5347 6.46649L76.9576 6.9454L77.5347 6.46649ZM77.8368 6.83057L78.414 6.35166L77.8368 6.83057ZM78.1389 7.19464L77.5617 7.67356L78.1389 7.19464ZM81.328 14.9211L82.0739 14.8422L81.328 14.9211ZM81.3803 15.4155L80.6345 15.4943L81.3803 15.4155ZM81.4326 15.9099L82.1784 15.8311L81.4326 15.9099ZM81.4841 24.851L82.2309 24.9207L81.4841 24.851ZM81.4376 25.3501L80.6908 25.2804L81.4376 25.3501ZM81.391 25.8491L82.1378 25.9187L81.391 25.8491ZM78.0956 33.8828L77.5134 33.41L78.0956 33.8828ZM77.808 34.237L78.3902 34.7098L77.808 34.237ZM70.7107 39.0752L70.4529 38.3709L70.7107 39.0752ZM60.4756 39.6353L60.6966 38.9186L60.4756 39.6353ZM59.9506 39.4734L59.7297 40.1902L59.9506 39.4734ZM59.4256 39.3116L59.6466 38.5949L59.4256 39.3116ZM49.9756 39.3745L49.746 38.6605L49.9756 39.3745ZM49.4506 39.5433L49.6802 40.2573L49.4506 39.5433ZM48.9256 39.7122L48.696 38.9982L48.9256 39.7122ZM39.4756 40.4399L39.5996 39.7003L39.4756 40.4399ZM38.9506 40.352L38.8267 41.0917L38.9506 40.352ZM28.9756 39.6491L29.0037 40.3986L28.9756 39.6491ZM28.4506 39.6688L28.4225 38.9193L28.4506 39.6688ZM27.9256 39.6885L27.9537 40.4379L27.9256 39.6885ZM18.4756 39.9575L18.4902 40.7074L18.4756 39.9575ZM17.9506 39.9677L17.936 39.2179L17.9506 39.9677ZM17.4256 39.978L17.4402 40.7278L17.4256 39.978ZM9.03825 37.4274L8.59938 38.0355L9.03825 37.4274ZM8.63132 37.1337L8.19245 37.7419L8.63132 37.1337ZM8.22439 36.8401L8.66325 36.2319L8.22439 36.8401ZM3.39802 30.401L2.68097 30.6208L3.39802 30.401ZM3.26869 29.9791L3.98574 29.7593L3.26869 29.9791ZM7.55826 4.69388L7.28732 3.99453L7.55826 4.69388ZM8.36585 4.38101L8.09491 3.68166L8.36585 4.38101ZM17.25 2.80533L17.1655 3.55055L17.6905 3.61009L17.775 2.86486L17.8595 2.11964L17.3345 2.0601L17.25 2.80533ZM17.775 2.86486L17.6905 3.61009C20.9485 3.97955 24.2034 3.65381 27.4489 2.63886L27.225 1.92305L27.0011 1.20724C23.9466 2.16249 20.9015 2.46461 17.8595 2.11964L17.775 2.86486ZM27.225 1.92305L27.4489 2.63886L27.9739 2.47468L27.75 1.75887L27.5261 1.04305L27.0011 1.20724L27.225 1.92305ZM27.75 1.75887L27.9739 2.47468L28.4989 2.3105L28.275 1.59469L28.0511 0.878872L27.5261 1.04305L27.75 1.75887ZM28.275 1.59469L28.4989 2.3105C31.5236 1.36459 34.5372 1.24757 37.5539 1.95448L37.725 1.22426L37.8961 0.494039C34.6128 -0.275344 31.3264 -0.145407 28.0511 0.878872L28.275 1.59469ZM37.725 1.22426L37.5539 1.95448L38.0789 2.0775L38.25 1.34728L38.4211 0.617063L37.8961 0.494039L37.725 1.22426ZM38.25 1.34728L38.0789 2.0775L38.6039 2.20053L38.775 1.47031L38.9461 0.740087L38.4211 0.617063L38.25 1.34728ZM38.775 1.47031L38.6039 2.20053C41.8457 2.96018 45.0923 3.09262 48.3384 2.59592L48.225 1.85455L48.1116 1.11318C45.0577 1.58045 42.0043 1.45672 38.9461 0.740087L38.775 1.47031ZM48.225 1.85455L48.3384 2.59592L48.8634 2.51559L48.75 1.77422L48.6366 1.03285L48.1116 1.11318L48.225 1.85455ZM48.75 1.77422L48.8634 2.51559L49.3884 2.43526L49.275 1.69389L49.1616 0.952519L48.6366 1.03285L48.75 1.77422ZM49.275 1.69389L49.3884 2.43526C52.4267 1.97037 55.4661 2.18207 58.5141 3.07527L58.725 2.35553L58.9359 1.6358C55.6839 0.68284 52.4233 0.453447 49.1616 0.952519L49.275 1.69389ZM58.725 2.35553L58.5141 3.07527L59.0391 3.22911L59.25 2.50938L59.4609 1.78964L58.9359 1.6358L58.725 2.35553ZM59.25 2.50938L59.0391 3.22911L59.5641 3.38296L59.775 2.66322L59.9859 1.94349L59.4609 1.78964L59.25 2.50938ZM59.775 2.66322L59.5641 3.38296C62.7975 4.33048 66.0125 4.67463 69.2044 4.40914L69.1422 3.66172L69.08 2.91431C66.0823 3.16364 63.0525 2.84211 59.9859 1.94349L59.775 2.66322ZM69.1422 3.66172L69.2044 4.40914L69.7201 4.36624L69.658 3.61882L69.5958 2.8714L69.08 2.91431L69.1422 3.66172ZM69.658 3.61882L69.7201 4.36624L70.2359 4.32334L70.1738 3.57592L70.1116 2.8285L69.5958 2.8714L69.658 3.61882ZM70.1738 3.57592L70.2359 4.32334C73.1135 4.08401 75.318 4.96938 76.9576 6.9454L77.5347 6.46649L78.1119 5.98758C76.1265 3.5947 73.4237 2.55302 70.1116 2.8285L70.1738 3.57592ZM77.5347 6.46649L76.9576 6.9454L77.2596 7.30948L77.8368 6.83057L78.414 6.35166L78.1119 5.98758L77.5347 6.46649ZM77.8368 6.83057L77.2596 7.30948L77.5617 7.67356L78.1389 7.19464L78.7161 6.71573L78.414 6.35166L77.8368 6.83057ZM78.1389 7.19464L77.5617 7.67356C79.2749 9.73824 80.2833 12.1726 80.5822 14.9999L81.328 14.9211L82.0739 14.8422C81.7456 11.7366 80.628 9.01996 78.7161 6.71573L78.1389 7.19464ZM81.328 14.9211L80.5822 14.9999L80.6345 15.4943L81.3803 15.4155L82.1262 15.3366L82.0739 14.8422L81.328 14.9211ZM81.3803 15.4155L80.6345 15.4943L80.6867 15.9887L81.4326 15.9099L82.1784 15.8311L82.1262 15.3366L81.3803 15.4155ZM81.4326 15.9099L80.6867 15.9887C80.995 18.9055 81.012 21.8361 80.7374 24.7814L81.4841 24.851L82.2309 24.9207C82.5147 21.8774 82.4973 18.8473 82.1784 15.8311L81.4326 15.9099ZM81.4841 24.851L80.7374 24.7814L80.6908 25.2804L81.4376 25.3501L82.1843 25.4197L82.2309 24.9207L81.4841 24.851ZM81.4376 25.3501L80.6908 25.2804L80.6443 25.7795L81.391 25.8491L82.1378 25.9187L82.1843 25.4197L81.4376 25.3501ZM81.391 25.8491L80.6443 25.7795C80.3774 28.6411 79.4244 31.0568 77.8011 33.0558L78.3833 33.5286L78.9655 34.0014C80.7941 31.7495 81.8462 29.0455 82.1378 25.9187L81.391 25.8491ZM78.3833 33.5286L77.8011 33.0558L77.5134 33.41L78.0956 33.8828L78.6778 34.3556L78.9655 34.0014L78.3833 33.5286ZM78.0956 33.8828L77.5134 33.41L77.2257 33.7642L77.808 34.237L78.3902 34.7098L78.6778 34.3556L78.0956 33.8828ZM77.808 34.237L77.2257 33.7642C75.5986 35.768 73.3531 37.3094 70.4529 38.3709L70.7107 39.0752L70.9685 39.7795C74.0794 38.6409 76.5654 36.9569 78.3902 34.7098L77.808 34.237ZM70.7107 39.0752L70.4529 38.3709L69.952 38.5542L70.2098 39.2586L70.4676 39.9629L70.9685 39.7795L70.7107 39.0752ZM70.2098 39.2586L69.952 38.5542L69.4511 38.7376L69.7089 39.4419L69.9667 40.1462L70.4676 39.9629L70.2098 39.2586ZM69.7089 39.4419L69.4511 38.7376C66.6044 39.7795 63.695 39.843 60.6966 38.9186L60.4756 39.6353L60.2547 40.352C63.5563 41.3699 66.8023 41.3044 69.9667 40.1462L69.7089 39.4419ZM60.4756 39.6353L60.6966 38.9186L60.1716 38.7567L59.9506 39.4734L59.7297 40.1902L60.2547 40.352L60.4756 39.6353ZM59.9506 39.4734L60.1716 38.7567L59.6466 38.5949L59.4256 39.3116L59.2047 40.0283L59.7297 40.1902L59.9506 39.4734ZM59.4256 39.3116L59.6466 38.5949C56.349 37.5783 53.0418 37.6006 49.746 38.6605L49.9756 39.3745L50.2052 40.0885C53.2095 39.1223 56.2022 39.1027 59.2047 40.0283L59.4256 39.3116ZM49.9756 39.3745L49.746 38.6605L49.221 38.8294L49.4506 39.5433L49.6802 40.2573L50.2052 40.0885L49.9756 39.3745ZM49.4506 39.5433L49.221 38.8294L48.696 38.9982L48.9256 39.7122L49.1552 40.4262L49.6802 40.2573L49.4506 39.5433ZM48.9256 39.7122L48.696 38.9982C45.6559 39.9759 42.627 40.2076 39.5996 39.7003L39.4756 40.4399L39.3517 41.1796C42.6242 41.7281 45.8954 41.4746 49.1552 40.4262L48.9256 39.7122ZM39.4756 40.4399L39.5996 39.7003L39.0746 39.6123L38.9506 40.352L38.8267 41.0917L39.3517 41.1796L39.4756 40.4399ZM38.9506 40.352L39.0746 39.6123L38.5496 39.5243L38.4256 40.264L38.3017 41.0037L38.8267 41.0917L38.9506 40.352ZM38.4256 40.264L38.5496 39.5243C35.35 38.9881 32.1491 38.7798 28.9475 38.8997L28.9756 39.6491L29.0037 40.3986C32.1021 40.2826 35.2012 40.4841 38.3017 41.0037L38.4256 40.264ZM28.9756 39.6491L28.9475 38.8997L28.4225 38.9193L28.4506 39.6688L28.4787 40.4183L29.0037 40.3986L28.9756 39.6491ZM28.4506 39.6688L28.4225 38.9193L27.8975 38.939L27.9256 39.6885L27.9537 40.4379L28.4787 40.4183L28.4506 39.6688ZM27.9256 39.6885L27.8975 38.939C24.752 39.0568 21.6065 39.1463 18.461 39.2076L18.4756 39.9575L18.4902 40.7074C21.6447 40.6459 24.7992 40.5561 27.9537 40.4379L27.9256 39.6885ZM18.4756 39.9575L18.461 39.2076L17.936 39.2179L17.9506 39.9677L17.9652 40.7176L18.4902 40.7074L18.4756 39.9575ZM17.9506 39.9677L17.936 39.2179L17.411 39.2281L17.4256 39.978L17.4402 40.7278L17.9652 40.7176L17.9506 39.9677ZM17.4256 39.978L17.411 39.2281C14.4154 39.2865 11.7805 38.4812 9.47711 36.8192L9.03825 37.4274L8.59938 38.0355C11.1792 39.8971 14.1358 40.7922 17.4402 40.7278L17.4256 39.978ZM9.03825 37.4274L9.47711 36.8192L9.07018 36.5255L8.63132 37.1337L8.19245 37.7419L8.59938 38.0355L9.03825 37.4274ZM8.63132 37.1337L9.07018 36.5255L8.66325 36.2319L8.22439 36.8401L7.78552 37.4483L8.19245 37.7419L8.63132 37.1337ZM8.22439 36.8401L8.66325 36.2319C6.33519 34.552 4.83669 32.5347 4.11507 30.1811L3.39802 30.401L2.68097 30.6208C3.51135 33.3292 5.23043 35.6046 7.78552 37.4483L8.22439 36.8401ZM3.39802 30.401L4.11507 30.1811L3.98574 29.7593L3.26869 29.9791L2.55163 30.199L2.68097 30.6208L3.39802 30.401ZM3.26869 29.9791L3.98574 29.7593L3.85641 29.3375L3.13935 29.5573L2.4223 29.7772L2.55163 30.199L3.26869 29.9791ZM3.13935 29.5573L3.85641 29.3375C3.10705 26.8934 2.74647 24.1322 2.78638 21.0456L2.03645 21.0359L1.28651 21.0262C1.24496 24.2396 1.61965 27.1593 2.4223 29.7772L3.13935 29.5573ZM2.03645 21.0359L2.78638 21.0456L2.79317 20.5206L2.04324 20.5109L1.2933 20.5012L1.28651 21.0262L2.03645 21.0359ZM2.04324 20.5109L2.79317 20.5206L2.79996 19.9956L2.05002 19.9859L1.30009 19.9762L1.2933 20.5012L2.04324 20.5109ZM2.05002 19.9859L2.79996 19.9956C2.84017 16.8857 3.12867 13.9827 3.66269 11.2849L2.92696 11.1393L2.19124 10.9937C1.63746 13.7913 1.34134 16.7861 1.30009 19.9762L2.05002 19.9859ZM2.92696 11.1393L3.66269 11.2849L3.75334 10.827L3.01761 10.6813L2.28189 10.5357L2.19124 10.9937L2.92696 11.1393ZM3.01761 10.6813L3.75334 10.827L3.84399 10.369L3.10826 10.2234L2.37254 10.0777L2.28189 10.5357L3.01761 10.6813ZM3.10826 10.2234L3.84399 10.369C4.34267 7.84971 5.66753 6.23068 7.82919 5.39323L7.55826 4.69388L7.28732 3.99453C4.60345 5.03429 2.96165 7.10159 2.37254 10.0777L3.10826 10.2234ZM7.55826 4.69388L7.82919 5.39323L8.23299 5.2368L7.96205 4.53745L7.69112 3.8381L7.28732 3.99453L7.55826 4.69388ZM7.96205 4.53745L8.23299 5.2368L8.63678 5.08037L8.36585 4.38101L8.09491 3.68166L7.69112 3.8381L7.96205 4.53745ZM8.36585 4.38101L8.63678 5.08037C9.85303 4.60918 10.7839 4.22 11.4171 3.91487C11.73 3.76406 11.9949 3.62213 12.1907 3.49075C12.2862 3.42668 12.3939 3.34633 12.486 3.24971C12.5496 3.1831 12.75 2.96446 12.75 2.62969H12H11.25C11.25 2.47886 11.2991 2.36868 11.3298 2.3133C11.361 2.25695 11.3915 2.22401 11.4004 2.21465C11.4168 2.19745 11.4109 2.20759 11.355 2.24512C11.248 2.31691 11.0586 2.42252 10.7659 2.56359C10.1877 2.84224 9.30144 3.21424 8.09491 3.68166L8.36585 4.38101ZM12 2.62969H12.75V2.59154H12H11.25V2.62969H12ZM12 2.59154H12.75V2.55338H12H11.25V2.59154H12ZM12 2.55338H12.75C12.75 2.78101 12.6434 2.95192 12.5425 3.0504C12.4558 3.13517 12.3729 3.16952 12.3496 3.17873C12.3024 3.1974 12.2948 3.19077 12.3734 3.18255C12.5142 3.16782 12.7651 3.16345 13.1507 3.17915C13.9101 3.21007 15.0693 3.31284 16.6405 3.49101L16.725 2.74579L16.8095 2.00057C15.2307 1.82152 14.0274 1.71361 13.2118 1.68039C12.8099 1.66403 12.4702 1.66423 12.2173 1.6907C12.099 1.70307 11.9437 1.72621 11.7981 1.7838C11.719 1.81506 11.25 2.01221 11.25 2.55338H12ZM16.725 2.74579L16.6405 3.49101L17.1655 3.55055L17.25 2.80533L17.3345 2.0601L16.8095 2.00057L16.725 2.74579Z"
        fill="black" />
    <path
        d="M30.0034 29.64C29.7394 29.5666 29.5267 29.5006 29.3654 29.442C29.204 29.398 29.1234 29.376 29.1234 29.376C29.1527 29.3026 29.138 29.2366 29.0794 29.178C29.0354 29.1193 28.9327 29.0826 28.7714 29.068C28.5514 28.9213 28.324 28.716 28.0894 28.452C27.8547 28.188 27.6494 27.9166 27.4734 27.638C27.2974 27.3593 27.18 27.154 27.1214 27.022C27.0187 26.802 27.026 26.67 27.1434 26.626C27.2607 26.5673 27.4 26.5013 27.5614 26.428C27.7227 26.3106 27.8914 26.2226 28.0674 26.164C28.258 26.1053 28.412 26.2006 28.5294 26.45C28.72 26.7873 29.0134 27.0733 29.4094 27.308C29.82 27.5426 30.282 27.682 30.7954 27.726C31.3234 27.77 31.8514 27.682 32.3794 27.462C32.7314 27.3006 32.922 27.0806 32.9514 26.802C32.9807 26.5086 32.8707 26.1713 32.6214 25.79C32.5774 25.6726 32.5114 25.5773 32.4234 25.504C32.35 25.4306 32.2327 25.3353 32.0714 25.218C31.9247 25.1006 31.712 24.91 31.4334 24.646C31.2134 24.5433 31.008 24.448 30.8174 24.36C30.6414 24.272 30.4507 24.1766 30.2454 24.074C30.0107 23.9566 29.7467 23.7953 29.4534 23.59C29.16 23.37 28.8887 23.1353 28.6394 22.886C28.39 22.622 28.1994 22.3726 28.0674 22.138C27.8327 21.918 27.686 21.6173 27.6274 21.236C27.5687 20.84 27.576 20.422 27.6494 19.982C27.7374 19.542 27.8767 19.146 28.0674 18.794C28.1554 18.5886 28.3167 18.3246 28.5514 18.002C28.786 17.6646 29.05 17.32 29.3434 16.968C29.6367 16.616 29.9154 16.3006 30.1794 16.022C30.458 15.7286 30.678 15.5306 30.8394 15.428C30.9567 15.3106 31.0814 15.1933 31.2134 15.076C31.3454 14.944 31.4114 14.878 31.4114 14.878C31.426 14.8046 31.448 14.768 31.4774 14.768C31.5214 14.768 31.5434 14.768 31.5434 14.768C31.6167 14.724 31.778 14.6506 32.0274 14.548C32.2767 14.4453 32.548 14.2546 32.8414 13.976C33.824 13.5066 34.66 13.1913 35.3494 13.03C36.0387 12.854 36.5814 12.766 36.9774 12.766C37.344 12.7806 37.7034 12.8833 38.0554 13.074C38.4074 13.25 38.708 13.4773 38.9574 13.756C39.2214 14.0346 39.3754 14.35 39.4194 14.702C39.522 15.054 39.4707 15.4793 39.2654 15.978C39.0747 16.462 38.8034 16.924 38.4514 17.364C38.114 17.7893 37.762 18.1046 37.3954 18.31C36.9847 18.486 36.6327 18.508 36.3394 18.376C36.0607 18.244 35.9287 18.0386 35.9434 17.76C35.9434 17.6426 35.98 17.5033 36.0534 17.342C36.1414 17.1806 36.3687 16.8946 36.7354 16.484C37.2047 15.7946 37.454 15.3033 37.4834 15.01C37.5127 14.7166 37.3807 14.548 37.0874 14.504C36.9994 14.4746 36.8307 14.482 36.5814 14.526C36.332 14.57 36.0607 14.6286 35.7674 14.702C35.4887 14.7606 35.2394 14.8266 35.0194 14.9C34.814 14.9733 34.7114 15.0246 34.7114 15.054C34.7114 15.054 34.7114 15.076 34.7114 15.12C34.7114 15.164 34.682 15.1786 34.6234 15.164C34.594 15.164 34.4914 15.2153 34.3154 15.318C34.154 15.406 33.956 15.5233 33.7214 15.67C33.4867 15.8166 33.252 15.9706 33.0174 16.132C32.7974 16.2786 32.6067 16.4106 32.4454 16.528C32.284 16.6453 32.196 16.7186 32.1814 16.748C32.152 16.9093 31.9834 17.056 31.6754 17.188C31.382 17.364 31.1254 17.6133 30.9054 17.936C30.6854 18.2586 30.4287 18.6693 30.1354 19.168C29.886 19.5053 29.71 19.872 29.6074 20.268C29.5047 20.6493 29.5047 20.9573 29.6074 21.192C29.6807 21.4266 29.8787 21.6613 30.2014 21.896C30.5387 22.116 30.9934 22.3946 31.5654 22.732C32.064 23.0106 32.5334 23.304 32.9734 23.612C33.4134 23.92 33.7874 24.2206 34.0954 24.514C34.4034 24.7926 34.6014 25.0273 34.6894 25.218C34.8654 25.4673 34.968 25.7533 34.9974 26.076C35.0414 26.3986 35.0414 26.714 34.9974 27.022C34.968 27.3153 34.924 27.5573 34.8654 27.748C34.7627 27.9826 34.6014 28.232 34.3814 28.496C34.176 28.76 33.9854 28.8846 33.8094 28.87C33.648 28.914 33.5234 28.9653 33.4354 29.024C33.362 29.0826 33.274 29.134 33.1714 29.178C33.0687 29.2366 32.8267 29.3026 32.4454 29.376C32.064 29.464 31.646 29.53 31.1914 29.574C30.7367 29.6326 30.3407 29.6546 30.0034 29.64ZM37.5571 27.748C37.4984 27.6306 37.3664 27.5133 37.1611 27.396C36.9704 27.2786 36.8751 27.1906 36.8751 27.132C36.8751 27.0733 36.8384 26.9853 36.7651 26.868C36.7064 26.736 36.6478 26.6406 36.5891 26.582C36.5158 26.494 36.5378 26.2813 36.6551 25.944C36.7724 25.592 36.9484 25.1666 37.1831 24.668C37.4178 24.1693 37.6744 23.6633 37.9531 23.15C38.0704 23.0326 38.1878 22.8786 38.3051 22.688C38.4224 22.4973 38.5104 22.3726 38.5691 22.314C38.5691 22.2553 38.5911 22.204 38.6351 22.16C38.6791 22.1013 38.7304 22.072 38.7891 22.072L38.9651 21.72C38.9944 21.6613 39.0824 21.544 39.2291 21.368C39.3904 21.192 39.5811 21.0013 39.8011 20.796C40.0211 20.576 40.2411 20.3706 40.4611 20.18C40.6958 19.9893 40.8864 19.85 41.0331 19.762C41.3411 19.5566 41.6564 19.4613 41.9791 19.476C42.3164 19.4906 42.6024 19.5933 42.8371 19.784C42.8811 19.828 42.9764 19.916 43.1231 20.048C43.2844 20.18 43.4604 20.3266 43.6511 20.488C43.8564 20.6493 44.0324 20.796 44.1791 20.928L44.9931 21.654L44.6191 22.754C44.4284 23.3406 44.3771 23.854 44.4651 24.294C44.5531 24.734 44.6924 25.1153 44.8831 25.438C44.9564 25.5993 45.0518 25.724 45.1691 25.812C45.3011 25.9 45.4698 25.9586 45.6751 25.988C45.7924 26.0026 45.9024 26.0466 46.0051 26.12C46.1078 26.1933 46.1591 26.3106 46.1591 26.472C46.1591 26.824 46.0931 27.0806 45.9611 27.242C45.8438 27.3886 45.7118 27.4766 45.5651 27.506C45.0811 27.5646 44.6191 27.5133 44.1791 27.352C43.7391 27.1906 43.3431 26.7726 42.9911 26.098C42.9324 26.01 42.8518 25.8486 42.7491 25.614C42.6611 25.3646 42.6098 25.2033 42.5951 25.13C42.5364 25.2033 42.4558 25.2986 42.3531 25.416C42.2651 25.5186 42.1771 25.614 42.0891 25.702C41.0478 26.758 40.1531 27.4473 39.4051 27.77C38.6718 28.078 38.0558 28.0706 37.5571 27.748ZM38.7671 25.922C38.8698 25.9366 39.0311 25.8853 39.2511 25.768C39.4711 25.636 39.7644 25.4233 40.1311 25.13C40.6298 24.7046 41.0404 24.3526 41.3631 24.074C41.6858 23.7953 42.0011 23.436 42.3091 22.996L42.7931 22.204C42.6464 21.8666 42.5144 21.6466 42.3971 21.544C42.2798 21.4413 42.1624 21.39 42.0451 21.39C41.8544 21.39 41.6271 21.5146 41.3631 21.764C41.0991 21.9986 40.7984 22.3506 40.4611 22.82C40.1384 23.2746 39.7718 23.8466 39.3611 24.536C39.1704 24.8586 39.0238 25.174 38.9211 25.482C38.8184 25.7753 38.7671 25.922 38.7671 25.922ZM48.1558 27.044C48.0531 26.956 47.9138 26.692 47.7378 26.252C47.5764 25.812 47.4151 25.2986 47.2538 24.712C47.1071 24.1253 46.9898 23.5826 46.9018 23.084C46.8431 22.7906 46.7771 22.5413 46.7038 22.336C46.6451 22.1306 46.5938 21.962 46.5498 21.83C46.4764 21.566 46.4984 21.2873 46.6158 20.994C46.7478 20.7006 46.9018 20.5026 47.0778 20.4C47.1511 20.356 47.2831 20.3266 47.4738 20.312C47.6791 20.2826 47.8111 20.2753 47.8698 20.29C48.0458 20.3486 48.2071 20.62 48.3538 21.104C48.5004 21.5733 48.6324 22.1966 48.7498 22.974C48.8084 23.4286 48.8524 23.766 48.8818 23.986C48.9258 24.1913 48.9478 24.3233 48.9478 24.382C49.0064 24.4993 49.0431 24.646 49.0578 24.822C49.0871 24.9833 49.1604 25.0053 49.2778 24.888C49.3364 24.8293 49.4244 24.7266 49.5418 24.58C49.6738 24.4333 49.8278 24.2426 50.0038 24.008C50.3118 23.5973 50.5538 23.26 50.7298 22.996C50.9204 22.7173 51.1331 22.4313 51.3678 22.138C51.4704 21.9913 51.6098 21.83 51.7858 21.654C51.9618 21.478 52.1378 21.3166 52.3138 21.17C52.4898 21.0086 52.6364 20.9133 52.7538 20.884C53.1058 20.8253 53.3184 20.9573 53.3918 21.28C53.4798 21.588 53.3771 21.9473 53.0838 22.358C52.9664 22.534 52.8711 22.7026 52.7978 22.864C52.7391 23.0106 52.6804 23.1133 52.6218 23.172C52.5044 23.4066 52.3211 23.7073 52.0718 24.074C51.8224 24.426 51.5804 24.756 51.3458 25.064C51.1111 25.3573 50.9498 25.548 50.8618 25.636C50.8031 25.6946 50.6711 25.8046 50.4658 25.966C50.2751 26.1273 50.0918 26.3326 49.9158 26.582C49.5638 26.9193 49.2264 27.1246 48.9038 27.198C48.5811 27.2713 48.3318 27.22 48.1558 27.044ZM55.923 28.606C55.1163 28.606 54.493 28.3713 54.053 27.902C53.6276 27.4326 53.415 26.714 53.415 25.746C53.415 25.218 53.5103 24.6386 53.701 24.008C53.9063 23.3773 54.1703 22.7613 54.493 22.16C54.8303 21.5586 55.197 21.038 55.593 20.598C55.989 20.1433 56.385 19.828 56.781 19.652C56.9276 19.5786 57.0816 19.5273 57.243 19.498C57.419 19.454 57.5876 19.432 57.749 19.432C57.925 19.432 58.1156 19.4466 58.321 19.476C58.541 19.4906 58.7463 19.5346 58.937 19.608C59.2743 19.7106 59.5676 19.9086 59.817 20.202C60.081 20.4953 60.213 20.9206 60.213 21.478C60.213 21.6246 60.1983 21.786 60.169 21.962C60.1396 22.1233 60.0883 22.2846 60.015 22.446C59.8243 22.93 59.531 23.392 59.135 23.832C58.7536 24.272 58.3503 24.58 57.925 24.756C57.8076 24.8146 57.6903 24.8586 57.573 24.888C57.4703 24.9026 57.3603 24.91 57.243 24.91C56.935 24.91 56.6563 24.866 56.407 24.778C56.1723 24.69 55.9523 24.5726 55.747 24.426L55.571 24.272L55.461 24.492C55.3583 24.7706 55.285 25.0053 55.241 25.196C55.2116 25.3866 55.197 25.526 55.197 25.614C55.197 25.79 55.2043 25.9733 55.219 26.164C55.2336 26.34 55.2776 26.4866 55.351 26.604C55.4096 26.6773 55.483 26.736 55.571 26.78C55.6736 26.824 55.7983 26.846 55.945 26.846C56.033 26.846 56.1136 26.846 56.187 26.846C56.275 26.8313 56.3483 26.8166 56.407 26.802C56.671 26.7433 56.8836 26.648 57.045 26.516C57.221 26.3693 57.4043 26.2446 57.595 26.142L57.683 26.098L57.661 26.032C57.9103 25.9 58.079 25.8193 58.167 25.79C58.255 25.746 58.321 25.7093 58.365 25.68C58.4236 25.6213 58.4896 25.592 58.563 25.592C58.7683 25.5626 58.9663 25.6213 59.157 25.768C59.3623 25.9 59.465 26.0686 59.465 26.274C59.465 26.362 59.399 26.5013 59.267 26.692C59.1496 26.8826 58.9956 27.0733 58.805 27.264C58.629 27.44 58.4456 27.5793 58.255 27.682C58.211 27.6966 58.167 27.7186 58.123 27.748C58.079 27.7626 58.035 27.7846 57.991 27.814H58.013C57.881 27.99 57.749 28.078 57.617 28.078H57.441C57.3823 28.1806 57.1916 28.2906 56.869 28.408C56.5463 28.54 56.231 28.606 55.923 28.606ZM57.067 23.304C57.199 23.304 57.3163 23.282 57.419 23.238C57.5363 23.194 57.6463 23.1426 57.749 23.084C58.101 22.8346 58.3283 22.512 58.431 22.116C58.5336 21.72 58.497 21.4193 58.321 21.214C58.2916 21.17 58.255 21.1406 58.211 21.126C58.167 21.0966 58.1156 21.082 58.057 21.082C57.8956 21.082 57.7123 21.1333 57.507 21.236C57.3163 21.3386 57.1256 21.4853 56.935 21.676C56.7443 21.8666 56.5683 22.094 56.407 22.358L56.121 22.82C56.1503 22.8053 56.1723 22.798 56.187 22.798C56.2163 22.7833 56.2383 22.776 56.253 22.776C56.385 22.776 56.473 22.82 56.517 22.908C56.561 22.996 56.6123 23.084 56.671 23.172C56.7443 23.26 56.8763 23.304 57.067 23.304Z"
        fill="#F8F8F6" />
</svg>