<svg width="503" height="51" viewBox="0 0 503 51" fill="none" xmlns="http://www.w3.org/2000/svg">
    <path
        d="M1.38708 14.5478C1.38708 7.92042 6.75967 2.54785 13.3871 2.54785H489.387C496.014 2.54785 501.387 7.92043 501.387 14.5479V36.2318C501.387 42.8592 496.014 48.2318 489.387 48.2318H13.3871C6.75966 48.2318 1.38708 42.8592 1.38708 36.2318V14.5478Z"
        fill="#F8F8F6" />
    <path
        d="M28.6121 2.26094L28.3882 1.54513L28.6121 2.26094ZM29.1371 2.09676L29.3609 2.81257L29.1371 2.09676ZM29.6621 1.93258L29.4382 1.21676L29.6621 1.93258ZM40.1621 1.8082L39.991 2.53842L40.1621 1.8082ZM49.6121 2.19244L49.4986 1.45107L49.6121 2.19244ZM50.1371 2.11211L50.2505 2.85348L50.1371 2.11211ZM50.6621 2.03178L50.5486 1.29041L50.6621 2.03178ZM60.1121 2.69342L59.9012 3.41316L60.1121 2.69342ZM61.1621 3.00111L61.373 2.28138L61.1621 3.00111ZM70.6121 3.71219L70.7179 4.45469L70.6121 3.71219ZM71.6621 3.56252L71.5563 2.82003L71.6621 3.56252ZM81.1121 3.39267L81.0326 4.13844L81.1121 3.39267ZM81.6371 3.44863L81.7166 2.70285L81.6371 3.44863ZM82.1621 3.50459L82.0826 4.25037L82.1621 3.50459ZM92.1371 3.82659L92.1111 3.07704L92.1371 3.82659ZM103.162 3.89467L103.13 4.64397L103.162 3.89467ZM112.612 3.82894L112.569 3.08016L112.612 3.82894ZM113.137 3.79893L113.18 4.54771L113.137 3.79893ZM113.662 3.76892L113.619 3.02014L113.662 3.76892ZM123.112 2.22399L123.307 2.9481L123.112 2.22399ZM123.637 2.08234L123.442 1.35824L123.637 2.08234ZM124.162 1.94069L124.357 2.6648L124.162 1.94069ZM133.612 2.12251L133.391 2.83923L133.612 2.12251ZM134.662 2.44622L134.883 1.7295L134.662 2.44622ZM144.112 2.38331L144.342 3.09729L144.112 2.38331ZM144.637 2.21447L144.407 1.50048L144.637 2.21447ZM145.162 2.04562L145.392 2.75961L145.162 2.04562ZM154.612 1.31787L154.488 2.05755L154.612 1.31787ZM155.137 1.40585L155.261 0.666161L155.137 1.40585ZM155.662 1.49383L155.538 2.23351L155.662 1.49383ZM165.112 2.10868L165.084 1.35921L165.112 2.10868ZM166.162 2.06936L166.19 2.81883L166.162 2.06936ZM175.612 1.80031L175.627 2.55017L175.612 1.80031ZM176.137 1.79008L176.122 1.04022L176.137 1.79008ZM176.662 1.77985L176.677 2.52971L176.662 1.77985ZM186.112 2.88244L185.928 3.60956L186.112 2.88244ZM186.637 3.01518L186.821 2.28807L186.637 3.01518ZM187.162 3.14793L186.978 3.87504L187.162 3.14793ZM196.612 4.42387L196.599 5.17376L196.612 4.42387ZM207.637 4.59109L207.627 5.34102L207.637 4.59109ZM217.612 3.95922L217.502 3.21731L217.612 3.95922ZM218.137 3.88147L218.247 4.62338L218.137 3.88147ZM218.662 3.80372L218.552 3.06181L218.662 3.80372ZM228.112 3.19713L228.097 3.94699L228.112 3.19713ZM238.612 2.67549L238.712 3.4188L238.612 2.67549ZM239.137 2.60488L239.037 1.86157L239.137 2.60488ZM239.662 2.53427L239.762 3.27757L239.662 2.53427ZM249.112 2.71383L248.985 3.45291L249.112 2.71383ZM249.637 2.80439L249.765 2.06531L249.637 2.80439ZM250.162 2.89496L250.035 3.63404L250.162 2.89496ZM259.612 2.48384L259.8 3.20979L259.612 2.48384ZM260.662 2.21135L260.474 1.4854L260.662 2.21135ZM270.112 1.73566L270.23 0.994941L270.112 1.73566ZM271.162 1.90243L271.044 2.64315L271.162 1.90243ZM280.612 2.10458L280.699 2.84958L280.612 2.10458ZM281.137 2.04365L281.051 1.29865L281.137 2.04365ZM281.662 1.98272L281.749 2.72772L281.662 1.98272ZM291.112 1.05382L291.172 1.8014L291.112 1.05382ZM291.637 1.01154L291.577 0.263956L291.637 1.01154ZM292.162 0.969252L292.222 1.71683L292.162 0.969252ZM301.612 1.2945L301.723 0.552734L301.612 1.2945ZM302.662 1.45135L302.551 2.19312L302.662 1.45135ZM312.112 3.10733L311.964 3.84261L312.112 3.10733ZM312.637 3.2129L312.785 2.47762L312.637 3.2129ZM313.162 3.31848L313.014 4.05376L313.162 3.31848ZM322.612 2.73244L322.844 3.44569L322.612 2.73244ZM323.137 2.56175L322.905 1.8485L323.137 2.56175ZM323.662 2.39106L323.894 3.10431L323.662 2.39106ZM333.112 0.772399L333.125 1.52228L333.112 0.772399ZM333.637 0.763237L333.624 0.0133517L333.637 0.763237ZM334.162 0.754076L334.175 1.50396L334.162 0.754076ZM343.612 2.26955L343.852 1.55908L343.612 2.26955ZM344.662 2.62465L344.422 3.33512L344.662 2.62465ZM354.112 4.2031L354.115 4.9531L354.112 4.2031ZM354.637 4.20094L354.634 3.45095L354.637 4.20094ZM355.162 4.19878L355.165 4.94877L355.162 4.19878ZM364.612 2.7783L364.825 3.49735L364.612 2.7783ZM365.662 2.46696L365.449 1.7479L365.662 2.46696ZM375.112 1.3472L375.068 2.09588L375.112 1.3472ZM375.637 1.37845L375.682 0.62978L375.637 1.37845ZM376.162 1.4097L376.118 2.15838L376.162 1.4097ZM385.612 2.45678L385.732 1.71644L385.612 2.45678ZM386.137 2.54187L386.017 3.28221L386.137 2.54187ZM386.662 2.62696L386.782 1.88662L386.662 2.62696ZM396.112 3.78409L396.174 3.03665L396.112 3.78409ZM396.637 3.82757L396.575 4.57501L396.637 3.82757ZM397.162 3.87105L397.1 4.61849L397.162 3.87105ZM406.612 3.98562L406.568 3.2369L406.612 3.98562ZM407.137 3.95487L407.181 4.70359L407.137 3.95487ZM407.662 3.92412L407.618 3.1754L407.662 3.92412ZM417.112 3.09652L417.199 3.84147L417.112 3.09652ZM417.637 3.03531L417.55 2.29036L417.637 3.03531ZM418.162 2.97411L418.249 3.71906L418.162 2.97411ZM427.612 3.25725L427.742 2.51867L427.612 3.25725ZM428.662 3.44258L428.532 4.18116L428.662 3.44258ZM448.612 2.72721L448.843 3.44071L448.612 2.72721ZM449.137 2.55716L448.906 1.84365L449.137 2.55716ZM449.662 2.3871L449.893 3.1006L449.662 2.3871ZM459.112 1.03431L459.14 0.284845L459.112 1.03431ZM460.162 1.07381L460.134 1.82328L460.162 1.07381ZM469.612 1.63855L469.551 2.38604L469.612 1.63855ZM470.137 1.68154L470.198 0.934048L470.137 1.68154ZM470.662 1.72454L470.601 2.47204L470.662 1.72454ZM480.112 2.48528L480.171 1.73762L480.112 2.48528ZM480.637 2.52681L480.578 3.27447L480.637 2.52681ZM481.162 2.56834L481.221 1.82067L481.162 2.56834ZM491.698 3.43721L491.634 4.18451L491.698 3.43721ZM497.955 8.12969L498.663 7.88166L497.955 8.12969ZM498.122 8.60606L497.414 8.85408L498.122 8.60606ZM498.289 9.08243L497.581 9.33046L498.289 9.08243ZM500.805 18.0173L500.072 18.1771L500.805 18.0173ZM500.917 18.5337L501.65 18.3738L500.917 18.5337ZM501.03 19.0501L500.297 19.2099L501.03 19.0501ZM502.186 28.4225L502.935 28.4L502.186 28.4225ZM502.201 28.9475L501.452 28.9701L502.201 28.9475ZM502.217 29.4725L502.967 29.45L502.217 29.4725ZM500.81 38.7656L501.521 39.0064L500.81 38.7656ZM500.638 39.2731L499.928 39.0323L500.638 39.2731ZM500.466 39.7807L501.177 40.0215L500.466 39.7807ZM494.577 46.1823L494.285 45.4914L494.577 46.1823ZM494.095 46.386L494.386 47.0769L494.095 46.386ZM493.612 46.5898L493.32 45.8989L493.612 46.5898ZM484.547 47.355L484.712 46.6235L484.547 47.355ZM484.022 47.2363L483.856 47.9678L484.022 47.2363ZM483.497 47.1176L483.662 46.3861L483.497 47.1176ZM474.047 47.2772L473.858 46.5513L474.047 47.2772ZM473.522 47.4137L473.71 48.1396L473.522 47.4137ZM472.997 47.5501L472.808 46.8242L472.997 47.5501ZM463.547 48.6768L463.563 47.9269L463.547 48.6768ZM462.497 48.6542L462.481 49.4041L462.497 48.6542ZM453.047 49.364L452.92 48.6248L453.047 49.364ZM451.997 49.5443L452.124 50.2835L451.997 49.5443ZM442.547 49.32L442.707 48.5874L442.547 49.32ZM442.022 49.2049L441.861 49.9375L442.022 49.2049ZM441.497 49.0899L441.657 48.3573L441.497 49.0899ZM432.047 47.2529L432.172 46.5134L432.047 47.2529ZM431.522 47.1638L431.396 47.9032L431.522 47.1638ZM430.997 47.0747L431.122 46.3353L430.997 47.0747ZM421.547 47.5127L421.737 48.2382L421.547 47.5127ZM421.022 47.6505L420.831 46.925L421.022 47.6505ZM420.497 47.7882L420.306 47.0627L420.497 47.7882ZM410.522 49.1349L410.537 49.8848L410.522 49.1349ZM400.547 48.2515L400.701 47.5175L400.547 48.2515ZM400.022 48.1414L399.868 48.8755L400.022 48.1414ZM399.497 48.0314L399.651 47.2973L399.497 48.0314ZM390.047 47.0502L390.048 47.8002L390.047 47.0502ZM389.522 47.0512L389.52 46.3012L389.522 47.0512ZM388.997 47.0523L388.998 47.8023L388.997 47.0523ZM379.547 47.9288L379.682 48.6664L379.547 47.9288ZM379.022 48.0251L379.157 48.7628L379.022 48.0251ZM378.497 48.1214L378.361 47.3838L378.497 48.1214ZM367.997 47.3793L368.198 46.6569L367.997 47.3793ZM358.547 47.8547L358.281 47.1534L358.547 47.8547ZM358.022 48.0538L358.288 48.755L358.022 48.0538ZM357.497 48.2529L357.763 48.9542L357.497 48.2529ZM348.047 48.6702L348.256 47.95L348.047 48.6702ZM346.997 48.3647L346.787 49.0848L346.997 48.3647ZM337.547 47.3795L337.485 46.632L337.547 47.3795ZM337.022 47.4227L337.083 48.1702L337.022 47.4227ZM336.497 47.466L336.435 46.7186L336.497 47.466ZM327.047 48.7626L327.188 49.4991L327.047 48.7626ZM326.522 48.8634L326.38 48.1268L326.522 48.8634ZM325.997 48.9642L326.138 49.7007L325.997 48.9642ZM316.547 49.1358L316.662 48.3948L316.547 49.1358ZM315.497 48.9724L315.381 49.7135L315.497 48.9724ZM306.047 47.9793L306.006 48.7281L306.047 47.9793ZM305.522 47.9506L305.562 47.2017L305.522 47.9506ZM304.997 47.922L304.956 48.6709L304.997 47.922ZM295.547 47.3763L295.501 48.1249L295.547 47.3763ZM295.022 47.3443L295.067 46.5957L295.022 47.3443ZM294.497 47.3123L294.451 48.061L294.497 47.3123ZM285.047 46.8156L285.013 47.5649L285.047 46.8156ZM284.522 46.7924L284.555 46.0432L284.522 46.7924ZM283.997 46.7692L283.964 47.5185L283.997 46.7692ZM274.547 46.9757L274.612 47.7228L274.547 46.9757ZM274.022 47.0219L273.956 46.2747L274.022 47.0219ZM264.047 47.0952L264.108 46.3477L264.047 47.0952ZM262.997 47.0089L262.935 47.7564L262.997 47.0089ZM253.547 48.1892L253.31 47.4774L253.547 48.1892ZM253.022 48.3635L253.258 49.0753L253.022 48.3635ZM252.497 48.5378L252.733 49.2496L252.497 48.5378ZM243.047 48.7715L243.25 48.0497L243.047 48.7715ZM242.522 48.6232L242.318 49.3449L242.522 48.6232ZM241.997 48.4748L242.2 47.7531L241.997 48.4748ZM232.547 47.5206L232.607 48.2681L232.547 47.5206ZM232.022 47.5628L231.961 46.8153L232.022 47.5628ZM231.497 47.6051L231.557 48.3527L231.497 47.6051ZM222.047 48.2383L222.007 47.4894L222.047 48.2383ZM221.522 48.2664L221.562 49.0153L221.522 48.2664ZM220.997 48.2945L220.957 47.5455L220.997 48.2945ZM211.547 48.3269L211.512 49.076L211.547 48.3269ZM211.022 48.3024L211.057 47.5532L211.022 48.3024ZM210.497 48.2779L210.462 49.0271L210.497 48.2779ZM201.047 48.0352L201.05 47.2852L201.047 48.0352ZM199.997 48.0302L199.993 48.7802L199.997 48.0302ZM190.547 48.9923L190.394 48.2581L190.547 48.9923ZM190.022 49.1017L190.175 49.8359L190.022 49.1017ZM189.497 49.2111L189.344 48.4768L189.497 49.2111ZM180.047 48.732L179.825 49.4484L180.047 48.732ZM179.522 48.5693L179.3 49.2858L179.522 48.5693ZM178.997 48.4067L179.219 47.6903L178.997 48.4067ZM169.547 46.5883L169.603 45.8404L169.547 46.5883ZM169.022 46.5489L168.965 47.2968L169.022 46.5489ZM168.497 46.5095L168.553 45.7616L168.497 46.5095ZM159.047 46.1104L159.054 45.3604L159.047 46.1104ZM157.997 46.1005L157.99 46.8505L157.997 46.1005ZM148.547 46.8879L148.677 47.6266L148.547 46.8879ZM148.022 46.9803L147.892 46.2417L148.022 46.9803ZM147.497 47.0727L147.627 47.8114L147.497 47.0727ZM138.047 48.3994L138.125 49.1453L138.047 48.3994ZM137.522 48.4544L137.443 47.7085L137.522 48.4544ZM136.997 48.5094L136.918 47.7635L136.997 48.5094ZM127.547 49.0179L127.549 49.7679L127.547 49.0179ZM126.497 49.0209L126.494 48.271L126.497 49.0209ZM117.047 47.8443L117.23 47.117L117.047 47.8443ZM116.522 47.712L116.338 48.4393L116.522 47.712ZM115.997 47.5798L115.813 48.3071L115.997 47.5798ZM106.547 46.648L106.588 47.3968L106.547 46.648ZM106.022 46.6767L105.981 45.9278L106.022 46.6767ZM105.497 46.7054L105.538 47.4543L105.497 46.7054ZM96.0466 48.3699L95.8327 47.6511L96.0466 48.3699ZM94.9966 48.6824L95.2105 49.4012L94.9966 48.6824ZM85.5466 50.0585L85.5418 50.8085L85.5466 50.0585ZM85.0216 50.0551L85.0264 49.3052L85.0216 50.0551ZM84.4966 50.0518L84.4918 50.8018L84.4966 50.0518ZM75.0466 49.011L74.8897 49.7445L75.0466 49.011ZM74.5216 48.8988L74.6785 48.1653L74.5216 48.8988ZM73.9966 48.7865L73.8397 49.5199L73.9966 48.7865ZM64.5466 48.9641L64.7295 49.6915L64.5466 48.9641ZM64.0216 49.0961L63.8387 48.3688L64.0216 49.0961ZM63.4966 49.2282L63.6795 49.9555L63.4966 49.2282ZM54.0466 49.8879L53.9632 50.6332L54.0466 49.8879ZM52.9966 49.7704L53.08 49.025L52.9966 49.7704ZM43.5466 47.8544L43.3353 48.5741L43.5466 47.8544ZM43.0216 47.7003L43.2329 46.9807L43.0216 47.7003ZM42.4966 47.5462L42.2853 48.2658L42.4966 47.5462ZM31.9966 47.5435L31.8217 46.8142L31.9966 47.5435ZM22.5466 48.5486L22.5263 49.2983L22.5466 48.5486ZM22.0216 48.5344L22.0013 49.2841L22.0216 48.5344ZM21.4966 48.5202L21.5169 47.7705L21.4966 48.5202ZM11.7808 48.0656L11.8298 47.3172L11.7808 48.0656ZM11.2262 48.0293L11.1772 48.7777L11.2262 48.0293ZM10.6717 47.993L10.7207 47.2446L10.6717 47.993ZM3.57776 43.0958L2.89643 43.4093L3.57776 43.0958ZM3.34408 42.5879L4.02541 42.2744L3.34408 42.5879ZM3.11041 42.0801L2.42908 42.3936L3.11041 42.0801ZM1.05985 31.711L0.309885 31.7042L1.05985 31.711ZM0.809795 21.7166L0.0609605 21.7584L0.809795 21.7166ZM2.52945 12.3218L1.85479 11.9942L2.52945 12.3218ZM2.75309 11.8613L3.42775 12.1889L2.75309 11.8613ZM2.97672 11.4007L2.30206 11.0731L2.97672 11.4007ZM8.76837 4.78887L8.35837 4.16085L8.76837 4.78887ZM9.60813 4.24063L9.19814 3.61261L9.60813 4.24063ZM18.6371 3.14322L18.5526 3.88844L19.0776 3.94798L19.1621 3.20275L19.2466 2.45753L18.7216 2.39799L18.6371 3.14322ZM19.1621 3.20275L19.0776 3.94798C22.3356 4.31744 25.5905 3.9917 28.8359 2.97675L28.6121 2.26094L28.3882 1.54513C25.3337 2.50038 22.2886 2.80251 19.2466 2.45753L19.1621 3.20275ZM28.6121 2.26094L28.8359 2.97675L29.3609 2.81257L29.1371 2.09676L28.9132 1.38095L28.3882 1.54513L28.6121 2.26094ZM29.1371 2.09676L29.3609 2.81257L29.8859 2.64839L29.6621 1.93258L29.4382 1.21676L28.9132 1.38095L29.1371 2.09676ZM29.6621 1.93258L29.8859 2.64839C32.9106 1.70248 35.9243 1.58546 38.941 2.29237L39.1121 1.56215L39.2832 0.831929C35.9999 0.0625467 32.7135 0.192484 29.4382 1.21676L29.6621 1.93258ZM39.1121 1.56215L38.941 2.29237L39.466 2.41539L39.6371 1.68517L39.8082 0.954953L39.2832 0.831929L39.1121 1.56215ZM39.6371 1.68517L39.466 2.41539L39.991 2.53842L40.1621 1.8082L40.3332 1.07798L39.8082 0.954953L39.6371 1.68517ZM40.1621 1.8082L39.991 2.53842C43.2328 3.29807 46.4794 3.43051 49.7255 2.93381L49.6121 2.19244L49.4986 1.45107C46.4448 1.91834 43.3914 1.79461 40.3332 1.07798L40.1621 1.8082ZM49.6121 2.19244L49.7255 2.93381L50.2505 2.85348L50.1371 2.11211L50.0237 1.37074L49.4986 1.45107L49.6121 2.19244ZM50.1371 2.11211L50.2505 2.85348L50.7755 2.77315L50.6621 2.03178L50.5486 1.29041L50.0237 1.37074L50.1371 2.11211ZM50.6621 2.03178L50.7755 2.77315C53.8138 2.30826 56.8532 2.51997 59.9012 3.41316L60.1121 2.69342L60.323 1.97369C57.071 1.02073 53.8104 0.791338 50.5486 1.29041L50.6621 2.03178ZM60.1121 2.69342L59.9012 3.41316L60.4262 3.567L60.6371 2.84727L60.848 2.12753L60.323 1.97369L60.1121 2.69342ZM60.6371 2.84727L60.4262 3.567L60.9512 3.72085L61.1621 3.00111L61.373 2.28138L60.848 2.12753L60.6371 2.84727ZM61.1621 3.00111L60.9512 3.72085C64.2006 4.67305 67.4585 4.9193 70.7179 4.45469L70.6121 3.71219L70.5062 2.9697C67.4656 3.40313 64.4236 3.17532 61.373 2.28138L61.1621 3.00111ZM70.6121 3.71219L70.7179 4.45469L71.2429 4.37985L71.1371 3.63736L71.0312 2.89486L70.5062 2.9697L70.6121 3.71219ZM71.1371 3.63736L71.2429 4.37985L71.7679 4.30501L71.6621 3.56252L71.5563 2.82003L71.0312 2.89486L71.1371 3.63736ZM71.6621 3.56252L71.7679 4.30501C74.8568 3.86471 77.9445 3.80926 81.0326 4.13844L81.1121 3.39267L81.1916 2.64689C77.9796 2.3045 74.7674 2.36229 71.5563 2.82003L71.6621 3.56252ZM81.1121 3.39267L81.0326 4.13844L81.5576 4.1944L81.6371 3.44863L81.7166 2.70285L81.1916 2.64689L81.1121 3.39267ZM81.6371 3.44863L81.5576 4.1944L82.0826 4.25037L82.1621 3.50459L82.2416 2.75882L81.7166 2.70285L81.6371 3.44863ZM82.1621 3.50459L82.0826 4.25037C85.2674 4.58987 88.4527 4.70454 91.638 4.59431L91.6121 3.84476L91.5862 3.09521C88.4715 3.20299 85.3568 3.09089 82.2416 2.75882L82.1621 3.50459ZM91.6121 3.84476L91.638 4.59431L92.163 4.57614L92.1371 3.82659L92.1111 3.07704L91.5862 3.09521L91.6121 3.84476ZM92.1371 3.82659L92.163 4.57614L92.688 4.55798L92.6621 3.80842L92.6361 3.05887L92.1111 3.07704L92.1371 3.82659ZM92.6621 3.80842L92.688 4.55798C95.8186 4.44964 98.9491 4.46317 102.08 4.59856L102.112 3.84926L102.144 3.09996C98.9751 2.96289 95.8056 2.94919 92.6361 3.05887L92.6621 3.80842ZM102.112 3.84926L102.08 4.59856L102.605 4.62127L102.637 3.87197L102.669 3.12267L102.144 3.09996L102.112 3.84926ZM102.637 3.87197L102.605 4.62127L103.13 4.64397L103.162 3.89467L103.194 3.14537L102.669 3.12267L102.637 3.87197ZM103.162 3.89467L103.13 4.64397C106.305 4.78129 109.48 4.7592 112.655 4.57772L112.612 3.82894L112.569 3.08016C109.444 3.25879 106.319 3.28052 103.194 3.14537L103.162 3.89467ZM112.612 3.82894L112.655 4.57772L113.18 4.54771L113.137 3.79893L113.094 3.05015L112.569 3.08016L112.612 3.82894ZM113.137 3.79893L113.18 4.54771L113.705 4.5177L113.662 3.76892L113.619 3.02014L113.094 3.05015L113.137 3.79893ZM113.662 3.76892L113.705 4.5177C116.908 4.3346 120.109 3.81099 123.307 2.9481L123.112 2.22399L122.917 1.49989C119.815 2.33679 116.716 2.84314 113.619 3.02014L113.662 3.76892ZM123.112 2.22399L123.307 2.9481L123.832 2.80645L123.637 2.08234L123.442 1.35824L122.917 1.49989L123.112 2.22399ZM123.637 2.08234L123.832 2.80645L124.357 2.6648L124.162 1.94069L123.967 1.21659L123.442 1.35824L123.637 2.08234ZM124.162 1.94069L124.357 2.6648C127.369 1.85218 130.375 1.90937 133.391 2.83923L133.612 2.12251L133.833 1.4058C130.549 0.393435 127.255 0.329408 123.967 1.21659L124.162 1.94069ZM133.612 2.12251L133.391 2.83923L133.916 3.00108L134.137 2.28437L134.358 1.56765L133.833 1.4058L133.612 2.12251ZM134.137 2.28437L133.916 3.00108L134.441 3.16293L134.662 2.44622L134.883 1.7295L134.358 1.56765L134.137 2.28437ZM134.662 2.44622L134.441 3.16293C137.739 4.17952 141.046 4.15722 144.342 3.09729L144.112 2.38331L143.882 1.66932C140.878 2.6355 137.886 2.65514 134.883 1.7295L134.662 2.44622ZM144.112 2.38331L144.342 3.09729L144.867 2.92845L144.637 2.21447L144.407 1.50048L143.882 1.66932L144.112 2.38331ZM144.637 2.21447L144.867 2.92845L145.392 2.75961L145.162 2.04562L144.932 1.33164L144.407 1.50048L144.637 2.21447ZM145.162 2.04562L145.392 2.75961C148.432 1.78189 151.461 1.55021 154.488 2.05755L154.612 1.31787L154.736 0.57818C151.464 0.0297637 148.192 0.283254 144.932 1.33164L145.162 2.04562ZM154.612 1.31787L154.488 2.05755L155.013 2.14553L155.137 1.40585L155.261 0.666161L154.736 0.57818L154.612 1.31787ZM155.137 1.40585L155.013 2.14553L155.538 2.23351L155.662 1.49383L155.786 0.754141L155.261 0.666161L155.137 1.40585ZM155.662 1.49383L155.538 2.23351C158.738 2.76969 161.939 2.97806 165.14 2.85816L165.112 2.10868L165.084 1.35921C161.986 1.47525 158.887 1.27372 155.786 0.754141L155.662 1.49383ZM165.112 2.10868L165.14 2.85816L165.665 2.83849L165.637 2.08902L165.609 1.33954L165.084 1.35921L165.112 2.10868ZM165.637 2.08902L165.665 2.83849L166.19 2.81883L166.162 2.06936L166.134 1.31988L165.609 1.33954L165.637 2.08902ZM166.162 2.06936L166.19 2.81883C169.336 2.70102 172.481 2.61147 175.627 2.55017L175.612 1.80031L175.597 1.05045C172.443 1.11193 169.288 1.20174 166.134 1.31988L166.162 2.06936ZM175.612 1.80031L175.627 2.55017L176.152 2.53994L176.137 1.79008L176.122 1.04022L175.597 1.05045L175.612 1.80031ZM176.137 1.79008L176.152 2.53994L176.677 2.52971L176.662 1.77985L176.647 1.02999L176.122 1.04022L176.137 1.79008ZM176.662 1.77985L176.677 2.52971C179.758 2.46966 182.841 2.82899 185.928 3.60956L186.112 2.88244L186.296 2.15532C183.083 1.343 179.866 0.967262 176.647 1.02999L176.662 1.77985ZM186.112 2.88244L185.928 3.60956L186.453 3.7423L186.637 3.01518L186.821 2.28807L186.296 2.15532L186.112 2.88244ZM186.637 3.01518L186.453 3.7423L186.978 3.87504L187.162 3.14793L187.346 2.42081L186.821 2.28807L186.637 3.01518ZM187.162 3.14793L186.978 3.87504C190.182 4.68519 193.39 5.11856 196.599 5.17376L196.612 4.42387L196.625 3.67398C193.534 3.62082 190.442 3.20356 187.346 2.42081L187.162 3.14793ZM196.612 4.42387L196.599 5.17376L197.124 5.18279L197.137 4.4329L197.15 3.68301L196.625 3.67398L196.612 4.42387ZM197.137 4.4329L197.124 5.18279L197.649 5.19182L197.662 4.44193L197.675 3.69204L197.15 3.68301L197.137 4.4329ZM197.662 4.44193L197.649 5.19182C200.8 5.24602 203.951 5.29349 207.102 5.33424L207.112 4.5843L207.122 3.83436C203.973 3.79365 200.824 3.74621 197.675 3.69204L197.662 4.44193ZM207.112 4.5843L207.102 5.33424L207.627 5.34102L207.637 4.59109L207.647 3.84115L207.122 3.83436L207.112 4.5843ZM207.637 4.59109L207.627 5.34102L208.152 5.34781L208.162 4.59788L208.172 3.84794L207.647 3.84115L207.637 4.59109ZM208.162 4.59788L208.152 5.34781C211.343 5.38907 214.533 5.17343 217.722 4.70113L217.612 3.95922L217.502 3.21731C214.391 3.67801 211.281 3.88815 208.172 3.84794L208.162 4.59788ZM217.612 3.95922L217.722 4.70113L218.247 4.62338L218.137 3.88147L218.027 3.13956L217.502 3.21731L217.612 3.95922ZM218.137 3.88147L218.247 4.62338L218.772 4.54563L218.662 3.80372L218.552 3.06181L218.027 3.13956L218.137 3.88147ZM218.662 3.80372L218.772 4.54563C221.881 4.08517 224.989 3.88571 228.097 3.94699L228.112 3.19713L228.127 2.44728C224.935 2.38433 221.743 2.58926 218.552 3.06181L218.662 3.80372ZM228.112 3.19713L228.097 3.94699L228.622 3.95734L228.637 3.20748L228.652 2.45763L228.127 2.44728L228.112 3.19713ZM228.637 3.20748L228.622 3.95734L229.147 3.96769L229.162 3.21784L229.177 2.46798L228.652 2.45763L228.637 3.20748ZM229.162 3.21784L229.147 3.96769C232.336 4.03056 235.524 3.84754 238.712 3.4188L238.612 2.67549L238.512 1.93219C235.4 2.35079 232.288 2.52933 229.177 2.46798L229.162 3.21784ZM238.612 2.67549L238.712 3.4188L239.237 3.34819L239.137 2.60488L239.037 1.86157L238.512 1.93219L238.612 2.67549ZM239.137 2.60488L239.237 3.34819L239.762 3.27757L239.662 2.53427L239.562 1.79096L239.037 1.86157L239.137 2.60488ZM239.662 2.53427L239.762 3.27757C242.836 2.86413 245.909 2.92242 248.985 3.45291L249.112 2.71383L249.24 1.97475C246.015 1.41847 242.788 1.35706 239.562 1.79096L239.662 2.53427ZM249.112 2.71383L248.985 3.45291L249.51 3.54348L249.637 2.80439L249.765 2.06531L249.24 1.97475L249.112 2.71383ZM249.637 2.80439L249.51 3.54348L250.035 3.63404L250.162 2.89496L250.29 2.15587L249.765 2.06531L249.637 2.80439ZM250.162 2.89496L250.035 3.63404C253.292 4.19588 256.549 4.05353 259.8 3.20979L259.612 2.48384L259.424 1.75789C256.375 2.54907 253.333 2.6808 250.29 2.15587L250.162 2.89496ZM259.612 2.48384L259.8 3.20979L260.326 3.07355L260.137 2.3476L259.949 1.62164L259.424 1.75789L259.612 2.48384ZM260.137 2.3476L260.326 3.07355L260.85 2.93731L260.662 2.21135L260.474 1.4854L259.949 1.62164L260.137 2.3476ZM260.662 2.21135L260.85 2.93731C263.903 2.14523 266.948 1.99257 269.994 2.47637L270.112 1.73566L270.23 0.994941C266.976 0.478086 263.722 0.642553 260.474 1.4854L260.662 2.21135ZM270.112 1.73566L269.994 2.47637L270.519 2.55976L270.637 1.81904L270.755 1.07833L270.23 0.994941L270.112 1.73566ZM270.637 1.81904L270.519 2.55976L271.044 2.64315L271.162 1.90243L271.28 1.16172L270.755 1.07833L270.637 1.81904ZM271.162 1.90243L271.044 2.64315C274.262 3.15414 277.48 3.22307 280.699 2.84958L280.612 2.10458L280.526 1.35958C277.444 1.71721 274.363 1.65138 271.28 1.16172L271.162 1.90243ZM280.612 2.10458L280.699 2.84958L281.224 2.78865L281.137 2.04365L281.051 1.29865L280.526 1.35958L280.612 2.10458ZM281.137 2.04365L281.224 2.78865L281.749 2.72772L281.662 1.98272L281.576 1.23772L281.051 1.29865L281.137 2.04365ZM281.662 1.98272L281.749 2.72772C284.89 2.36316 288.031 2.05439 291.172 1.8014L291.112 1.05382L291.052 0.30624C287.893 0.56065 284.734 0.871144 281.576 1.23772L281.662 1.98272ZM291.112 1.05382L291.172 1.8014L291.697 1.75911L291.637 1.01154L291.577 0.263956L291.052 0.30624L291.112 1.05382ZM291.637 1.01154L291.697 1.75911L292.222 1.71683L292.162 0.969252L292.102 0.221672L291.577 0.263956L291.637 1.01154ZM292.162 0.969252L292.222 1.71683C295.315 1.46776 298.407 1.57412 301.501 2.03627L301.612 1.2945L301.723 0.552734C298.517 0.0738101 295.309 -0.0366595 292.102 0.221672L292.162 0.969252ZM301.612 1.2945L301.501 2.03627L302.026 2.1147L302.137 1.37293L302.248 0.631157L301.723 0.552734L301.612 1.2945ZM302.137 1.37293L302.026 2.1147L302.551 2.19312L302.662 1.45135L302.773 0.70958L302.248 0.631157L302.137 1.37293ZM302.662 1.45135L302.551 2.19312C305.689 2.66179 308.826 3.21161 311.964 3.84261L312.112 3.10733L312.26 2.37205C309.098 1.73615 305.935 1.18199 302.773 0.70958L302.662 1.45135ZM312.112 3.10733L311.964 3.84261L312.489 3.94818L312.637 3.2129L312.785 2.47762L312.26 2.37205L312.112 3.10733ZM312.637 3.2129L312.489 3.94818L313.014 4.05376L313.162 3.31848L313.31 2.58319L312.785 2.47762L312.637 3.2129ZM313.162 3.31848L313.014 4.05376C316.295 4.71342 319.575 4.5084 322.844 3.44569L322.612 2.73244L322.38 2.01919C319.349 3.00475 316.33 3.19042 313.31 2.58319L313.162 3.31848ZM322.612 2.73244L322.844 3.44569L323.369 3.275L323.137 2.56175L322.905 1.8485L322.38 2.01919L322.612 2.73244ZM323.137 2.56175L323.369 3.275L323.894 3.10431L323.662 2.39106L323.43 1.67781L322.905 1.8485L323.137 2.56175ZM323.662 2.39106L323.894 3.10431C326.977 2.10198 330.053 1.57589 333.125 1.52228L333.112 0.772399L333.099 0.0225132C329.871 0.0788443 326.647 0.631865 323.43 1.67781L323.662 2.39106ZM333.112 0.772399L333.125 1.52228L333.65 1.51312L333.637 0.763237L333.624 0.0133517L333.099 0.0225132L333.112 0.772399ZM333.637 0.763237L333.65 1.51312L334.175 1.50396L334.162 0.754076L334.149 0.00419021L333.624 0.0133517L333.637 0.763237ZM334.162 0.754076L334.175 1.50396C337.234 1.45058 340.299 1.94078 343.372 2.98003L343.612 2.26955L343.852 1.55908C340.625 0.467755 337.39 -0.0523627 334.149 0.00419021L334.162 0.754076ZM343.612 2.26955L343.372 2.98003L343.897 3.15757L344.137 2.4471L344.377 1.73663L343.852 1.55908L343.612 2.26955ZM344.137 2.4471L343.897 3.15757L344.422 3.33512L344.662 2.62465L344.902 1.91418L344.377 1.73663L344.137 2.4471ZM344.662 2.62465L344.422 3.33512C347.646 4.42543 350.878 4.96644 354.115 4.9531L354.112 4.2031L354.109 3.45311C351.046 3.46574 347.978 2.95444 344.902 1.91418L344.662 2.62465ZM354.112 4.2031L354.115 4.9531L354.64 4.95093L354.637 4.20094L354.634 3.45095L354.109 3.45311L354.112 4.2031ZM354.637 4.20094L354.64 4.95093L355.165 4.94877L355.162 4.19878L355.159 3.44878L354.634 3.45095L354.637 4.20094ZM355.162 4.19878L355.165 4.94877C358.389 4.93548 361.61 4.45071 364.825 3.49735L364.612 2.7783L364.399 2.05924C361.314 2.97389 358.235 3.4361 355.159 3.44878L355.162 4.19878ZM364.612 2.7783L364.825 3.49735L365.35 3.34169L365.137 2.62263L364.924 1.90357L364.399 2.05924L364.612 2.7783ZM365.137 2.62263L365.35 3.34169L365.875 3.18602L365.662 2.46696L365.449 1.7479L364.924 1.90357L365.137 2.62263ZM365.662 2.46696L365.875 3.18602C368.945 2.27576 372.008 1.91377 375.068 2.09588L375.112 1.3472L375.157 0.59853C371.916 0.405642 368.679 0.790161 365.449 1.7479L365.662 2.46696ZM375.112 1.3472L375.068 2.09588L375.593 2.12713L375.637 1.37845L375.682 0.62978L375.157 0.59853L375.112 1.3472ZM375.637 1.37845L375.593 2.12713L376.118 2.15838L376.162 1.4097L376.207 0.661029L375.682 0.62978L375.637 1.37845ZM376.162 1.4097L376.118 2.15838C379.242 2.34436 382.367 2.69057 385.492 3.19711L385.612 2.45678L385.732 1.71644C382.557 1.20188 379.382 0.850048 376.207 0.661029L376.162 1.4097ZM385.612 2.45678L385.492 3.19711L386.017 3.28221L386.137 2.54187L386.257 1.80153L385.732 1.71644L385.612 2.45678ZM386.137 2.54187L386.017 3.28221L386.542 3.3673L386.662 2.62696L386.782 1.88662L386.257 1.80153L386.137 2.54187ZM386.662 2.62696L386.542 3.3673C389.711 3.88094 392.881 4.26903 396.05 4.53154L396.112 3.78409L396.174 3.03665C393.044 2.7774 389.913 2.39408 386.782 1.88662L386.662 2.62696ZM396.112 3.78409L396.05 4.53154L396.575 4.57501L396.637 3.82757L396.699 3.08013L396.174 3.03665L396.112 3.78409ZM396.637 3.82757L396.575 4.57501L397.1 4.61849L397.162 3.87105L397.224 3.12361L396.699 3.08013L396.637 3.82757ZM397.162 3.87105L397.1 4.61849C400.285 4.88228 403.471 4.9209 406.656 4.73434L406.612 3.98562L406.568 3.2369C403.454 3.41933 400.339 3.38158 397.224 3.12361L397.162 3.87105ZM406.612 3.98562L406.656 4.73434L407.181 4.70359L407.137 3.95487L407.093 3.20615L406.568 3.2369L406.612 3.98562ZM407.137 3.95487L407.181 4.70359L407.706 4.67284L407.662 3.92412L407.618 3.1754L407.093 3.20615L407.137 3.95487ZM407.662 3.92412L407.706 4.67284C410.87 4.48749 414.035 4.21037 417.199 3.84147L417.112 3.09652L417.025 2.35156C413.889 2.71714 410.754 2.99175 407.618 3.1754L407.662 3.92412ZM417.112 3.09652L417.199 3.84147L417.724 3.78027L417.637 3.03531L417.55 2.29036L417.025 2.35156L417.112 3.09652ZM417.637 3.03531L417.724 3.78027L418.249 3.71906L418.162 2.97411L418.075 2.22915L417.55 2.29036L417.637 3.03531ZM418.162 2.97411L418.249 3.71906C421.326 3.36033 424.403 3.45238 427.482 3.99583L427.612 3.25725L427.742 2.51867C424.521 1.95012 421.298 1.85341 418.075 2.22915L418.162 2.97411ZM427.612 3.25725L427.482 3.99583L428.007 4.0885L428.137 3.34991L428.267 2.61133L427.742 2.51867L427.612 3.25725ZM428.137 3.34991L428.007 4.0885L428.532 4.18116L428.662 3.44258L428.792 2.704L428.267 2.61133L428.137 3.34991ZM428.662 3.44258L428.532 4.18116C431.725 4.74472 434.919 5.02383 438.113 5.0181L438.112 4.2681L438.111 3.5181C435.006 3.52367 431.9 3.25244 428.792 2.704L428.662 3.44258ZM438.112 4.2681L438.113 5.0181L438.638 5.01715L438.637 4.26715L438.636 3.51716L438.111 3.5181L438.112 4.2681ZM438.637 4.26715L438.638 5.01715L439.163 5.01621L439.162 4.26621L439.161 3.51621L438.636 3.51716L438.637 4.26715ZM439.162 4.26621L439.163 5.01621C442.395 5.01041 445.623 4.48387 448.843 3.44071L448.612 2.72721L448.381 2.01371C445.301 3.01125 442.229 3.51071 439.161 3.51621L439.162 4.26621ZM448.612 2.72721L448.843 3.44071L449.368 3.27066L449.137 2.55716L448.906 1.84365L448.381 2.01371L448.612 2.72721ZM449.137 2.55716L449.368 3.27066L449.893 3.1006L449.662 2.3871L449.431 1.6736L448.906 1.84365L449.137 2.55716ZM449.662 2.3871L449.893 3.1006C452.964 2.10597 456.026 1.66876 459.084 1.78378L459.112 1.03431L459.14 0.284845C455.898 0.162882 452.66 0.627529 449.431 1.6736L449.662 2.3871ZM459.112 1.03431L459.084 1.78378L459.609 1.80353L459.637 1.05406L459.665 0.304593L459.14 0.284845L459.112 1.03431ZM459.637 1.05406L459.609 1.80353L460.134 1.82328L460.162 1.07381L460.19 0.324342L459.665 0.304593L459.637 1.05406ZM460.162 1.07381L460.134 1.82328C463.273 1.94136 466.412 2.12894 469.551 2.38604L469.612 1.63855L469.673 0.891048C466.512 0.632154 463.351 0.443251 460.19 0.324342L460.162 1.07381ZM469.612 1.63855L469.551 2.38604L470.076 2.42904L470.137 1.68154L470.198 0.934048L469.673 0.891048L469.612 1.63855ZM470.137 1.68154L470.076 2.42904L470.601 2.47204L470.662 1.72454L470.723 0.977047L470.198 0.934048L470.137 1.68154ZM470.662 1.72454L470.601 2.47204C473.752 2.73009 476.902 2.98373 480.053 3.23295L480.112 2.48528L480.171 1.73762C477.022 1.48851 473.873 1.23499 470.723 0.977047L470.662 1.72454ZM480.112 2.48528L480.053 3.23295L480.578 3.27447L480.637 2.52681L480.696 1.77914L480.171 1.73762L480.112 2.48528ZM480.637 2.52681L480.578 3.27447L481.103 3.316L481.162 2.56834L481.221 1.82067L480.696 1.77914L480.637 2.52681ZM481.162 2.56834L481.103 3.316C484.251 3.56504 487.41 3.82453 490.578 4.09448L490.642 3.34719L490.705 2.5999C487.534 2.32969 484.373 2.06995 481.221 1.82067L481.162 2.56834ZM490.642 3.34719L490.578 4.09448L491.106 4.13949L491.17 3.3922L491.233 2.64491L490.705 2.5999L490.642 3.34719ZM491.17 3.3922L491.106 4.13949L491.634 4.18451L491.698 3.43721L491.762 2.68992L491.233 2.64491L491.17 3.3922ZM491.698 3.43721L491.634 4.18451C493.11 4.31025 494.282 4.732 495.189 5.41289C496.095 6.09206 496.787 7.0656 497.247 8.37771L497.955 8.12969L498.663 7.88166C498.121 6.33553 497.27 5.09787 496.089 4.21288C494.912 3.32962 493.456 2.83425 491.762 2.68992L491.698 3.43721ZM497.955 8.12969L497.247 8.37771L497.414 8.85408L498.122 8.60606L498.83 8.35803L498.663 7.88166L497.955 8.12969ZM498.122 8.60606L497.414 8.85408L497.581 9.33046L498.289 9.08243L498.997 8.83441L498.83 8.35803L498.122 8.60606ZM498.289 9.08243L497.581 9.33046C498.572 12.1585 499.402 15.1073 500.072 18.1771L500.805 18.0173L501.538 17.8575C500.856 14.7306 500.009 11.7228 498.997 8.83441L498.289 9.08243ZM500.805 18.0173L500.072 18.1771L500.185 18.6935L500.917 18.5337L501.65 18.3738L501.538 17.8575L500.805 18.0173ZM500.917 18.5337L500.185 18.6935L500.297 19.2099L501.03 19.0501L501.763 18.8902L501.65 18.3738L500.917 18.5337ZM501.03 19.0501L500.297 19.2099C500.963 22.2633 501.343 25.3416 501.436 28.4451L502.186 28.4225L502.935 28.4C502.839 25.2035 502.448 22.0334 501.763 18.8902L501.03 19.0501ZM502.186 28.4225L501.436 28.4451L501.452 28.9701L502.201 28.9475L502.951 28.925L502.935 28.4L502.186 28.4225ZM502.201 28.9475L501.452 28.9701L501.468 29.4951L502.217 29.4725L502.967 29.45L502.951 28.925L502.201 28.9475ZM502.217 29.4725L501.468 29.4951C501.559 32.5538 501.105 35.5624 500.1 38.5248L500.81 38.7656L501.521 39.0064C502.581 35.8781 503.064 32.6913 502.967 29.45L502.217 29.4725ZM500.81 38.7656L500.1 38.5248L499.928 39.0323L500.638 39.2731L501.349 39.5139L501.521 39.0064L500.81 38.7656ZM500.638 39.2731L499.928 39.0323L499.756 39.5399L500.466 39.7807L501.177 40.0215L501.349 39.5139L500.638 39.2731ZM500.466 39.7807L499.756 39.5399C498.791 42.3878 496.976 44.3546 494.285 45.4914L494.577 46.1823L494.869 46.8732C497.965 45.5652 500.077 43.2643 501.177 40.0215L500.466 39.7807ZM494.577 46.1823L494.285 45.4914L493.803 45.6951L494.095 46.386L494.386 47.0769L494.869 46.8732L494.577 46.1823ZM494.095 46.386L493.803 45.6951L493.32 45.8989L493.612 46.5898L493.904 47.2807L494.386 47.0769L494.095 46.386ZM493.612 46.5898L493.32 45.8989C490.575 47.0585 487.714 47.3022 484.712 46.6235L484.547 47.355L484.381 48.0865C487.68 48.8323 490.862 48.5659 493.904 47.2807L493.612 46.5898ZM484.547 47.355L484.712 46.6235L484.187 46.5048L484.022 47.2363L483.856 47.9678L484.381 48.0865L484.547 47.355ZM484.022 47.2363L484.187 46.5048L483.662 46.3861L483.497 47.1176L483.331 47.8491L483.856 47.9678L484.022 47.2363ZM483.497 47.1176L483.662 46.3861C480.394 45.6472 477.123 45.7028 473.858 46.5513L474.047 47.2772L474.235 48.0031C477.27 47.2143 480.299 47.1635 483.331 47.8491L483.497 47.1176ZM474.047 47.2772L473.858 46.5513L473.333 46.6878L473.522 47.4137L473.71 48.1396L474.235 48.0031L474.047 47.2772ZM473.522 47.4137L473.333 46.6878L472.808 46.8242L472.997 47.5501L473.185 48.276L473.71 48.1396L473.522 47.4137ZM472.997 47.5501L472.808 46.8242C469.723 47.6261 466.641 47.993 463.563 47.9269L463.547 48.6768L463.531 49.4266C466.752 49.4957 469.971 49.1115 473.185 48.276L472.997 47.5501ZM463.547 48.6768L463.563 47.9269L463.038 47.9157L463.022 48.6655L463.006 49.4153L463.531 49.4266L463.547 48.6768ZM463.022 48.6655L463.038 47.9157L462.513 47.9044L462.497 48.6542L462.481 49.4041L463.006 49.4153L463.022 48.6655ZM462.497 48.6542L462.513 47.9044C459.314 47.8358 456.116 48.0761 452.92 48.6248L453.047 49.364L453.174 50.1032C456.277 49.5704 459.379 49.3375 462.481 49.4041L462.497 48.6542ZM453.047 49.364L452.92 48.6248L452.395 48.715L452.522 49.4542L452.648 50.1933L453.174 50.1032L453.047 49.364ZM452.522 49.4542L452.395 48.715L451.87 48.8051L451.997 49.5443L452.124 50.2835L452.648 50.1933L452.522 49.4542ZM451.997 49.5443L451.87 48.8051C448.816 49.3293 445.764 49.2572 442.707 48.5874L442.547 49.32L442.386 50.0526C445.63 50.7634 448.877 50.8408 452.124 50.2835L451.997 49.5443ZM442.547 49.32L442.707 48.5874L442.182 48.4723L442.022 49.2049L441.861 49.9375L442.386 50.0526L442.547 49.32ZM442.022 49.2049L442.182 48.4723L441.657 48.3573L441.497 49.0899L441.336 49.8225L441.861 49.9375L442.022 49.2049ZM441.497 49.0899L441.657 48.3573C438.496 47.6644 435.334 47.0498 432.172 46.5134L432.047 47.2529L431.921 47.9923C435.059 48.5247 438.198 49.1347 441.336 49.8225L441.497 49.0899ZM432.047 47.2529L432.172 46.5134L431.647 46.4244L431.522 47.1638L431.396 47.9032L431.921 47.9923L432.047 47.2529ZM431.522 47.1638L431.647 46.4244L431.122 46.3353L430.997 47.0747L430.871 47.8142L431.396 47.9032L431.522 47.1638ZM430.997 47.0747L431.122 46.3353C427.865 45.7827 424.607 45.9344 421.356 46.7873L421.547 47.5127L421.737 48.2382C424.786 47.4383 427.828 47.298 430.871 47.8142L430.997 47.0747ZM421.547 47.5127L421.356 46.7873L420.831 46.925L421.022 47.6505L421.212 48.3759L421.737 48.2382L421.547 47.5127ZM421.022 47.6505L420.831 46.925L420.306 47.0627L420.497 47.7882L420.687 48.5136L421.212 48.3759L421.022 47.6505ZM420.497 47.7882L420.306 47.0627C417.212 47.8746 414.12 48.3113 411.031 48.3744L411.047 49.1242L411.062 49.8741C414.273 49.8085 417.482 49.3545 420.687 48.5136L420.497 47.7882ZM411.047 49.1242L411.031 48.3744L410.506 48.3851L410.522 49.1349L410.537 49.8848L411.062 49.8741L411.047 49.1242ZM410.522 49.1349L410.506 48.3851L409.981 48.3958L409.997 49.1457L410.012 49.8955L410.537 49.8848L410.522 49.1349ZM409.997 49.1457L409.981 48.3958C406.889 48.4589 403.796 48.1665 400.701 47.5175L400.547 48.2515L400.393 48.9855C403.597 49.6574 406.804 49.961 410.012 49.8955L409.997 49.1457ZM400.547 48.2515L400.701 47.5175L400.176 47.4074L400.022 48.1414L399.868 48.8755L400.393 48.9855L400.547 48.2515ZM400.022 48.1414L400.176 47.4074L399.651 47.2973L399.497 48.0314L399.343 48.7654L399.868 48.8755L400.022 48.1414ZM399.497 48.0314L399.651 47.2973C396.451 46.6264 393.248 46.2938 390.045 46.3002L390.047 47.0502L390.048 47.8002C393.145 47.794 396.243 48.1155 399.343 48.7654L399.497 48.0314ZM390.047 47.0502L390.045 46.3002L389.52 46.3012L389.522 47.0512L389.523 47.8012L390.048 47.8002L390.047 47.0502ZM389.522 47.0512L389.52 46.3012L388.995 46.3023L388.997 47.0523L388.998 47.8023L389.523 47.8012L389.522 47.0512ZM388.997 47.0523L388.995 46.3023C385.799 46.3086 382.605 46.605 379.411 47.1911L379.547 47.9288L379.682 48.6664C382.789 48.0963 385.894 47.8084 388.998 47.8023L388.997 47.0523ZM379.547 47.9288L379.411 47.1911L378.886 47.2874L379.022 48.0251L379.157 48.7628L379.682 48.6664L379.547 47.9288ZM379.022 48.0251L378.886 47.2874L378.361 47.3838L378.497 48.1214L378.632 48.8591L379.157 48.7628L379.022 48.0251ZM378.497 48.1214L378.361 47.3838C375.326 47.9408 372.291 47.7973 369.248 46.9494L369.047 47.6719L368.845 48.3944C372.103 49.302 375.368 49.4582 378.632 48.8591L378.497 48.1214ZM369.047 47.6719L369.248 46.9494L368.723 46.8031L368.522 47.5256L368.32 48.2481L368.845 48.3944L369.047 47.6719ZM368.522 47.5256L368.723 46.8031L368.198 46.6569L367.997 47.3793L367.795 48.1018L368.32 48.2481L368.522 47.5256ZM367.997 47.3793L368.198 46.6569C364.889 45.7348 361.575 45.9039 358.281 47.1534L358.547 47.8547L358.813 48.5559C361.818 47.4162 364.804 47.2683 367.795 48.1018L367.997 47.3793ZM358.547 47.8547L358.281 47.1534L357.756 47.3525L358.022 48.0538L358.288 48.755L358.813 48.5559L358.547 47.8547ZM358.022 48.0538L357.756 47.3525L357.231 47.5516L357.497 48.2529L357.763 48.9542L358.288 48.755L358.022 48.0538ZM357.497 48.2529L357.231 47.5516C354.228 48.6902 351.245 48.8197 348.256 47.95L348.047 48.6702L347.837 49.3903C351.148 50.3536 354.465 50.2049 357.763 48.9542L357.497 48.2529ZM348.047 48.6702L348.256 47.95L347.731 47.7973L347.522 48.5174L347.312 49.2376L347.837 49.3903L348.047 48.6702ZM347.522 48.5174L347.731 47.7973L347.206 47.6445L346.997 48.3647L346.787 49.0848L347.312 49.2376L347.522 48.5174ZM346.997 48.3647L347.206 47.6445C343.972 46.7035 340.73 46.3645 337.485 46.632L337.547 47.3795L337.608 48.1269C340.663 47.8751 343.722 48.1929 346.787 49.0848L346.997 48.3647ZM337.547 47.3795L337.485 46.632L336.96 46.6753L337.022 47.4227L337.083 48.1702L337.608 48.1269L337.547 47.3795ZM337.022 47.4227L336.96 46.6753L336.435 46.7186L336.497 47.466L336.558 48.2135L337.083 48.1702L337.022 47.4227ZM336.497 47.466L336.435 46.7186C333.258 46.9805 330.081 47.4163 326.905 48.026L327.047 48.7626L327.188 49.4991C330.312 48.8994 333.435 48.4709 336.558 48.2135L336.497 47.466ZM327.047 48.7626L326.905 48.026L326.38 48.1268L326.522 48.8634L326.663 49.5999L327.188 49.4991L327.047 48.7626ZM326.522 48.8634L326.38 48.1268L325.855 48.2276L325.997 48.9642L326.138 49.7007L326.663 49.5999L326.522 48.8634ZM325.997 48.9642L325.855 48.2276C322.789 48.8162 319.726 48.8717 316.662 48.3948L316.547 49.1358L316.431 49.8769C319.667 50.3805 322.904 50.3216 326.138 49.7007L325.997 48.9642ZM316.547 49.1358L316.662 48.3948L316.137 48.3131L316.022 49.0541L315.906 49.7952L316.431 49.8769L316.547 49.1358ZM316.022 49.0541L316.137 48.3131L315.612 48.2314L315.497 48.9724L315.381 49.7135L315.906 49.7952L316.022 49.0541ZM315.497 48.9724L315.612 48.2314C312.438 47.7373 309.263 47.4036 306.087 47.2304L306.047 47.9793L306.006 48.7281C309.131 48.8986 312.256 49.2271 315.381 49.7135L315.497 48.9724ZM306.047 47.9793L306.087 47.2304L305.562 47.2017L305.522 47.9506L305.481 48.6995L306.006 48.7281L306.047 47.9793ZM305.522 47.9506L305.562 47.2017L305.037 47.1731L304.997 47.922L304.956 48.6709L305.481 48.6995L305.522 47.9506ZM304.997 47.922L305.037 47.1731C301.889 47.0013 298.741 46.8195 295.592 46.6277L295.547 47.3763L295.501 48.1249C298.653 48.3169 301.804 48.4989 304.956 48.6709L304.997 47.922ZM295.547 47.3763L295.592 46.6277L295.067 46.5957L295.022 47.3443L294.976 48.0929L295.501 48.1249L295.547 47.3763ZM295.022 47.3443L295.067 46.5957L294.542 46.5637L294.497 47.3123L294.451 48.061L294.976 48.0929L295.022 47.3443ZM294.497 47.3123L294.542 46.5637C291.388 46.3716 288.234 46.2058 285.08 46.0664L285.047 46.8156L285.013 47.5649C288.159 47.704 291.305 47.8693 294.451 48.061L294.497 47.3123ZM285.047 46.8156L285.08 46.0664L284.555 46.0432L284.522 46.7924L284.488 47.5417L285.013 47.5649L285.047 46.8156ZM284.522 46.7924L284.555 46.0432L284.03 46.02L283.997 46.7692L283.964 47.5185L284.488 47.5417L284.522 46.7924ZM283.997 46.7692L284.03 46.02C280.847 45.8793 277.664 45.9488 274.481 46.2286L274.547 46.9757L274.612 47.7228C277.73 47.4488 280.847 47.3807 283.964 47.5185L283.997 46.7692ZM274.547 46.9757L274.481 46.2286L273.956 46.2747L274.022 47.0219L274.087 47.769L274.612 47.7228L274.547 46.9757ZM274.022 47.0219L273.956 46.2747L273.431 46.3209L273.497 47.068L273.562 47.8151L274.087 47.769L274.022 47.0219ZM273.497 47.068L273.431 46.3209C270.323 46.5941 267.216 46.603 264.108 46.3477L264.047 47.0952L263.985 47.8426C267.177 48.1049 270.37 48.0958 273.562 47.8151L273.497 47.068ZM264.047 47.0952L264.108 46.3477L263.583 46.3046L263.522 47.052L263.46 47.7995L263.985 47.8426L264.047 47.0952ZM263.522 47.052L263.583 46.3046L263.058 46.2614L262.997 47.0089L262.935 47.7564L263.46 47.7995L263.522 47.052ZM262.997 47.0089L263.058 46.2614C259.802 45.9939 256.551 46.4015 253.31 47.4774L253.547 48.1892L253.783 48.901C256.842 47.8855 259.891 47.5063 262.935 47.7564L262.997 47.0089ZM253.547 48.1892L253.31 47.4774L252.785 47.6517L253.022 48.3635L253.258 49.0753L253.783 48.901L253.547 48.1892ZM253.022 48.3635L252.785 47.6517L252.26 47.826L252.497 48.5378L252.733 49.2496L253.258 49.0753L253.022 48.3635ZM252.497 48.5378L252.26 47.826C249.251 48.8251 246.254 48.8982 243.25 48.0497L243.047 48.7715L242.843 49.4932C246.139 50.4245 249.443 50.3418 252.733 49.2496L252.497 48.5378ZM243.047 48.7715L243.25 48.0497L242.725 47.9014L242.522 48.6232L242.318 49.3449L242.843 49.4932L243.047 48.7715ZM242.522 48.6232L242.725 47.9014L242.2 47.7531L241.997 48.4748L241.793 49.1966L242.318 49.3449L242.522 48.6232ZM241.997 48.4748L242.2 47.7531C238.968 46.8399 235.728 46.5119 232.486 46.773L232.547 47.5206L232.607 48.2681C235.665 48.0219 238.725 48.3301 241.793 49.1966L241.997 48.4748ZM232.547 47.5206L232.486 46.773L231.961 46.8153L232.022 47.5628L232.082 48.3104L232.607 48.2681L232.547 47.5206ZM232.022 47.5628L231.961 46.8153L231.436 46.8575L231.497 47.6051L231.557 48.3527L232.082 48.3104L232.022 47.5628ZM231.497 47.6051L231.436 46.8575C228.293 47.1107 225.15 47.3213 222.007 47.4894L222.047 48.2383L222.087 48.9872C225.243 48.8184 228.4 48.6069 231.557 48.3527L231.497 47.6051ZM222.047 48.2383L222.007 47.4894L221.482 47.5175L221.522 48.2664L221.562 49.0153L222.087 48.9872L222.047 48.2383ZM221.522 48.2664L221.482 47.5175L220.957 47.5455L220.997 48.2945L221.037 49.0434L221.562 49.0153L221.522 48.2664ZM220.997 48.2945L220.957 47.5455C217.832 47.7127 214.707 47.7234 211.582 47.5777L211.547 48.3269L211.512 49.076C214.687 49.2241 217.862 49.2132 221.037 49.0434L220.997 48.2945ZM211.547 48.3269L211.582 47.5777L211.057 47.5532L211.022 48.3024L210.987 49.0516L211.512 49.076L211.547 48.3269ZM211.022 48.3024L211.057 47.5532L210.532 47.5287L210.497 48.2779L210.462 49.0271L210.987 49.0516L211.022 48.3024ZM210.497 48.2779L210.532 47.5287C207.371 47.3814 204.211 47.3002 201.05 47.2852L201.047 48.0352L201.043 48.7852C204.183 48.8001 207.322 48.8807 210.462 49.0271L210.497 48.2779ZM201.047 48.0352L201.05 47.2852L200.525 47.2827L200.522 48.0327L200.518 48.7827L201.043 48.7852L201.047 48.0352ZM200.522 48.0327L200.525 47.2827L200 47.2802L199.997 48.0302L199.993 48.7802L200.518 48.7827L200.522 48.0327ZM199.997 48.0302L200 47.2802C196.796 47.265 193.594 47.5912 190.394 48.2581L190.547 48.9923L190.7 49.7265C193.799 49.0807 196.897 48.7655 199.993 48.7802L199.997 48.0302ZM190.547 48.9923L190.394 48.2581L189.869 48.3674L190.022 49.1017L190.175 49.8359L190.7 49.7265L190.547 48.9923ZM190.022 49.1017L189.869 48.3674L189.344 48.4768L189.497 49.2111L189.65 49.9453L190.175 49.8359L190.022 49.1017ZM189.497 49.2111L189.344 48.4768C186.321 49.1066 183.3 48.9547 180.269 48.0155L180.047 48.732L179.825 49.4484C183.093 50.4608 186.372 50.6283 189.65 49.9453L189.497 49.2111ZM180.047 48.732L180.269 48.0155L179.744 47.8529L179.522 48.5693L179.3 49.2858L179.825 49.4484L180.047 48.732ZM179.522 48.5693L179.744 47.8529L179.219 47.6903L178.997 48.4067L178.775 49.1231L179.3 49.2858L179.522 48.5693ZM178.997 48.4067L179.219 47.6903C176.017 46.6986 172.811 46.0813 169.603 45.8404L169.547 46.5883L169.49 47.3362C172.582 47.5683 175.676 48.1633 178.775 49.1231L178.997 48.4067ZM169.547 46.5883L169.603 45.8404L169.078 45.801L169.022 46.5489L168.965 47.2968L169.49 47.3362L169.547 46.5883ZM169.022 46.5489L169.078 45.801L168.553 45.7616L168.497 46.5095L168.44 47.2573L168.965 47.2968L169.022 46.5489ZM168.497 46.5095L168.553 45.7616C165.386 45.5238 162.22 45.3901 159.054 45.3604L159.047 46.1104L159.04 46.8604C162.173 46.8897 165.307 47.0221 168.44 47.2573L168.497 46.5095ZM159.047 46.1104L159.054 45.3604L158.529 45.3555L158.522 46.1055L158.515 46.8554L159.04 46.8604L159.047 46.1104ZM158.522 46.1055L158.529 45.3555L158.004 45.3506L157.997 46.1005L157.99 46.8505L158.515 46.8554L158.522 46.1055ZM157.997 46.1005L158.004 45.3506C154.807 45.3206 151.611 45.587 148.417 46.1493L148.547 46.8879L148.677 47.6266C151.782 47.08 154.886 46.8214 157.99 46.8505L157.997 46.1005ZM148.547 46.8879L148.417 46.1493L147.892 46.2417L148.022 46.9803L148.152 47.719L148.677 47.6266L148.547 46.8879ZM148.022 46.9803L147.892 46.2417L147.367 46.3341L147.497 47.0727L147.627 47.8114L148.152 47.719L148.022 46.9803ZM147.497 47.0727L147.367 46.3341C144.234 46.8855 141.101 47.3253 137.968 47.6535L138.047 48.3994L138.125 49.1453C141.292 48.8135 144.46 48.3688 147.627 47.8114L147.497 47.0727ZM138.047 48.3994L137.968 47.6535L137.443 47.7085L137.522 48.4544L137.6 49.2003L138.125 49.1453L138.047 48.3994ZM137.522 48.4544L137.443 47.7085L136.918 47.7635L136.997 48.5094L137.075 49.2553L137.6 49.2003L137.522 48.4544ZM136.997 48.5094L136.918 47.7635C133.794 48.0909 130.669 48.259 127.544 48.2679L127.547 49.0179L127.549 49.7679C130.724 49.7589 133.9 49.588 137.075 49.2553L136.997 48.5094ZM127.547 49.0179L127.544 48.2679L127.019 48.2694L127.022 49.0194L127.024 49.7694L127.549 49.7679L127.547 49.0179ZM127.022 49.0194L127.019 48.2694L126.494 48.271L126.497 49.0209L126.499 49.7709L127.024 49.7694L127.022 49.0194ZM126.497 49.0209L126.494 48.271C123.409 48.2798 120.321 47.8957 117.23 47.117L117.047 47.8443L116.863 48.5716C120.072 49.3798 123.284 49.7801 126.499 49.7709L126.497 49.0209ZM117.047 47.8443L117.23 47.117L116.705 46.9848L116.522 47.712L116.338 48.4393L116.863 48.5716L117.047 47.8443ZM116.522 47.712L116.705 46.9848L116.18 46.8525L115.997 47.5798L115.813 48.3071L116.338 48.4393L116.522 47.712ZM115.997 47.5798L116.18 46.8525C112.959 46.0412 109.733 45.7226 106.506 45.8991L106.547 46.648L106.588 47.3968C109.66 47.2289 112.734 47.5315 115.813 48.3071L115.997 47.5798ZM106.547 46.648L106.506 45.8991L105.981 45.9278L106.022 46.6767L106.063 47.4255L106.588 47.3968L106.547 46.648ZM106.022 46.6767L105.981 45.9278L105.456 45.9565L105.497 46.7054L105.538 47.4543L106.063 47.4255L106.022 46.6767ZM105.497 46.7054L105.456 45.9565C102.245 46.1321 99.0366 46.6975 95.8327 47.6511L96.0466 48.3699L96.2605 49.0887C99.3566 48.1673 102.449 47.6231 105.538 47.4543L105.497 46.7054ZM96.0466 48.3699L95.8327 47.6511L95.3077 47.8073L95.5216 48.5261L95.7355 49.245L96.2605 49.0887L96.0466 48.3699ZM95.5216 48.5261L95.3077 47.8073L94.7827 47.9636L94.9966 48.6824L95.2105 49.4012L95.7355 49.245L95.5216 48.5261ZM94.9966 48.6824L94.7827 47.9636C91.7005 48.8808 88.6242 49.3281 85.5514 49.3085L85.5466 50.0585L85.5418 50.8085C88.769 50.829 91.9927 50.3589 95.2105 49.4012L94.9966 48.6824ZM85.5466 50.0585L85.5514 49.3085L85.0264 49.3052L85.0216 50.0551L85.0168 50.8051L85.5418 50.8085L85.5466 50.0585ZM85.0216 50.0551L85.0264 49.3052L84.5014 49.3018L84.4966 50.0518L84.4918 50.8018L85.0168 50.8051L85.0216 50.0551ZM84.4966 50.0518L84.5014 49.3018C81.4037 49.2821 78.3046 48.941 75.2035 48.2776L75.0466 49.011L74.8897 49.7445C78.0886 50.4287 81.2896 50.7814 84.4918 50.8018L84.4966 50.0518ZM75.0466 49.011L75.2035 48.2776L74.6785 48.1653L74.5216 48.8988L74.3647 49.6322L74.8897 49.7445L75.0466 49.011ZM74.5216 48.8988L74.6785 48.1653L74.1535 48.053L73.9966 48.7865L73.8397 49.5199L74.3647 49.6322L74.5216 48.8988ZM73.9966 48.7865L74.1535 48.053C70.8903 47.3551 67.624 47.4168 64.3637 48.2368L64.5466 48.9641L64.7295 49.6915C67.7692 48.927 70.8029 48.8703 73.8397 49.5199L73.9966 48.7865ZM64.5466 48.9641L64.3637 48.2368L63.8387 48.3688L64.0216 49.0961L64.2045 49.8235L64.7295 49.6915L64.5466 48.9641ZM64.0216 49.0961L63.8387 48.3688L63.3137 48.5008L63.4966 49.2282L63.6795 49.9555L64.2045 49.8235L64.0216 49.0961ZM63.4966 49.2282L63.3137 48.5008C60.2485 49.2717 57.1886 49.4847 54.13 49.1425L54.0466 49.8879L53.9632 50.6332C57.2046 50.9958 60.4447 50.769 63.6795 49.9555L63.4966 49.2282ZM54.0466 49.8879L54.13 49.1425L53.605 49.0838L53.5216 49.8291L53.4382 50.5745L53.9632 50.6332L54.0466 49.8879ZM53.5216 49.8291L53.605 49.0838L53.08 49.025L52.9966 49.7704L52.9132 50.5157L53.4382 50.5745L53.5216 49.8291ZM52.9966 49.7704L53.08 49.025C49.9748 48.6776 46.8676 48.0479 43.7579 47.1348L43.5466 47.8544L43.3353 48.5741C46.5256 49.5108 49.7184 50.1583 52.9132 50.5157L52.9966 49.7704ZM43.5466 47.8544L43.7579 47.1348L43.2329 46.9807L43.0216 47.7003L42.8103 48.4199L43.3353 48.5741L43.5466 47.8544ZM43.0216 47.7003L43.2329 46.9807L42.7079 46.8265L42.4966 47.5462L42.2853 48.2658L42.8103 48.4199L43.0216 47.7003ZM42.4966 47.5462L42.7079 46.8265C39.434 45.8653 36.1509 45.7762 32.8717 46.5624L33.0466 47.2917L33.2215 48.0211C36.2423 47.2968 39.2592 47.3773 42.2853 48.2658L42.4966 47.5462ZM33.0466 47.2917L32.8717 46.5624L32.3467 46.6883L32.5216 47.4176L32.6965 48.1469L33.2215 48.0211L33.0466 47.2917ZM32.5216 47.4176L32.3467 46.6883L31.8217 46.8142L31.9966 47.5435L32.1715 48.2728L32.6965 48.1469L32.5216 47.4176ZM31.9966 47.5435L31.8217 46.8142C28.7338 47.5545 25.6494 47.8822 22.5669 47.7989L22.5466 48.5486L22.5263 49.2983C25.7438 49.3853 28.9594 49.043 32.1715 48.2728L31.9966 47.5435ZM22.5466 48.5486L22.5669 47.7989L22.0419 47.7847L22.0216 48.5344L22.0013 49.2841L22.5263 49.2983L22.5466 48.5486ZM22.0216 48.5344L22.0419 47.7847L21.5169 47.7705L21.4966 48.5202L21.4763 49.2699L22.0013 49.2841L22.0216 48.5344ZM21.4966 48.5202L21.5169 47.7705C18.377 47.6856 15.148 47.5345 11.8298 47.3172L11.7808 48.0656L11.7318 48.814C15.068 49.0325 18.3162 49.1845 21.4763 49.2699L21.4966 48.5202ZM11.7808 48.0656L11.8298 47.3172L11.2752 47.2809L11.2262 48.0293L11.1772 48.7777L11.7318 48.814L11.7808 48.0656ZM11.2262 48.0293L11.2752 47.2809L10.7207 47.2446L10.6717 47.993L10.6227 48.7414L11.1772 48.7777L11.2262 48.0293ZM10.6717 47.993L10.7207 47.2446C9.1703 47.143 7.8828 46.7156 6.82886 45.988C5.7747 45.2603 4.91336 44.2041 4.25908 42.7822L3.57776 43.0958L2.89643 43.4093C3.64421 45.0343 4.66621 46.3178 5.97669 47.2225C7.2874 48.1273 8.84583 48.625 10.6227 48.7414L10.6717 47.993ZM3.57776 43.0958L4.25908 42.7822L4.02541 42.2744L3.34408 42.5879L2.66275 42.9015L2.89643 43.4093L3.57776 43.0958ZM3.34408 42.5879L4.02541 42.2744L3.79173 41.7666L3.11041 42.0801L2.42908 42.3936L2.66275 42.9015L3.34408 42.5879ZM3.11041 42.0801L3.79173 41.7666C2.43303 38.8139 1.77268 35.818 1.80027 32.7721L1.0503 32.7653L0.300335 32.7586C0.270622 36.0387 0.983672 39.2525 2.42908 42.3936L3.11041 42.0801ZM1.0503 32.7653L1.80027 32.7721L1.80505 32.245L1.05508 32.2382L0.30511 32.2314L0.300335 32.7586L1.0503 32.7653ZM1.05508 32.2382L1.80505 32.245L1.80982 31.7178L1.05985 31.711L0.309885 31.7042L0.30511 32.2314L1.05508 32.2382ZM1.05985 31.711L1.80982 31.7178C1.83862 28.5387 1.76466 25.366 1.58793 22.1998L0.839099 22.2416L0.0902642 22.2834C0.265181 25.4172 0.338391 28.5574 0.309885 31.7042L1.05985 31.711ZM0.839099 22.2416L1.58793 22.1998L1.55863 21.6748L0.809795 21.7166L0.0609605 21.7584L0.0902642 22.2834L0.839099 22.2416ZM0.809795 21.7166L1.55863 21.6748L1.52933 21.1498L0.780491 21.1916L0.0316567 21.2334L0.0609605 21.7584L0.809795 21.7166ZM0.780491 21.1916L1.52933 21.1498C1.36042 18.1236 1.91963 15.2946 3.20412 12.6494L2.52945 12.3218L1.85479 11.9942C0.455684 14.8754 -0.151078 17.9596 0.0316567 21.2334L0.780491 21.1916ZM2.52945 12.3218L3.20412 12.6494L3.42775 12.1889L2.75309 11.8613L2.07842 11.5337L1.85479 11.9942L2.52945 12.3218ZM2.75309 11.8613L3.42775 12.1889L3.65138 11.7283L2.97672 11.4007L2.30206 11.0731L2.07842 11.5337L2.75309 11.8613ZM2.97672 11.4007L3.65138 11.7283C4.93512 9.08472 6.77536 6.98567 9.17836 5.41688L8.76837 4.78887L8.35837 4.16085C5.72277 5.88149 3.70192 8.19036 2.30206 11.0731L2.97672 11.4007ZM8.76837 4.78887L9.17836 5.41688L9.59825 5.14276L9.18825 4.51475L8.77825 3.88673L8.35837 4.16085L8.76837 4.78887ZM9.18825 4.51475L9.59825 5.14276L10.0181 4.86864L9.60813 4.24063L9.19814 3.61261L8.77825 3.88673L9.18825 4.51475ZM9.60813 4.24063L10.0181 4.86864C11.2753 4.04788 12.2025 3.47172 12.8091 3.13163C13.1196 2.95758 13.3141 2.86367 13.415 2.8257C13.4834 2.79999 13.4361 2.82809 13.3336 2.82885C13.2836 2.82922 13.1083 2.82531 12.93 2.69514C12.7081 2.53307 12.6371 2.29502 12.6371 2.12199H13.3871H14.1371C14.1371 1.91992 14.0562 1.66016 13.8146 1.48373C13.6167 1.33918 13.4119 1.32823 13.3225 1.32889C13.1412 1.33024 12.9759 1.38826 12.8868 1.42178C12.6728 1.50229 12.395 1.64417 12.0756 1.82323C11.4225 2.18936 10.4602 2.78866 9.19814 3.61261L9.60813 4.24063ZM13.3871 2.12199H12.6371V2.1607H13.3871H14.1371V2.12199H13.3871ZM13.3871 2.1607H12.6371V2.19942H13.3871H14.1371V2.1607H13.3871ZM13.3871 2.19942H12.6371C12.6371 2.43805 12.7405 2.61545 12.8256 2.71926C12.9078 2.81951 12.999 2.88488 13.0613 2.92414C13.1859 3.00259 13.3261 3.05699 13.4444 3.09658C13.6915 3.17927 14.0277 3.25655 14.4304 3.3319C15.2453 3.48442 16.4484 3.64982 18.0276 3.8289L18.1121 3.08368L18.1966 2.33846C16.6258 2.16032 15.4663 1.99974 14.7063 1.8575C14.3214 1.78547 14.067 1.72318 13.9204 1.67411C13.8418 1.64782 13.8343 1.6383 13.8605 1.65477C13.8736 1.66304 13.9279 1.69791 13.9855 1.76815C14.046 1.84194 14.1371 1.98982 14.1371 2.19942H13.3871ZM18.1121 3.08368L18.0276 3.8289L18.5526 3.88844L18.6371 3.14322L18.7216 2.39799L18.1966 2.33846L18.1121 3.08368Z"
        fill="black" />
    <path
        d="M173.183 38.921C172.911 38.6831 172.23 38.2054 169.623 36.4678C168.277 35.5706 167.481 34.8593 166.727 34.1904C166.048 33.5881 165.599 32.8767 165.29 32.2427C164.98 31.6054 164.847 30.8264 164.675 30.1242C164.537 29.5596 164.469 28.9463 164.299 27.7546C163.844 24.5685 164.434 23.9231 164.639 23.3408C164.824 22.8155 164.947 22.248 165.084 21.7006C165.221 21.1532 165.357 20.6078 165.579 19.9753C165.812 19.3126 166.075 18.5575 166.297 18.0101C166.519 17.4627 166.86 16.9173 167.236 16.3529C167.67 15.7011 167.988 15.072 168.567 14.4226C169.148 13.772 169.661 13.4646 170.276 13.0889C170.856 12.7353 171.403 12.2344 172.138 11.8756C172.793 11.5558 173.351 11.3118 173.899 11.1401C174.446 10.9685 174.991 10.7644 175.539 10.6444C176.109 10.5195 178.155 10.5245 179.434 10.6096C180.02 10.6485 180.63 10.8997 181.279 11.0365C181.929 11.1736 182.475 11.3097 183.022 11.3615C183.607 11.4168 184.218 11.5148 184.901 11.6347C185.745 11.7829 186.37 11.8223 187.071 11.993C188.055 12.233 188.626 12.7777 189.071 13.1883C189.519 13.6009 189.721 14.2806 190.011 14.828C190.315 15.3993 190.881 15.886 191.445 16.6553C191.976 17.3789 192.386 17.9363 192.745 18.6036C193.053 19.1776 193.343 19.7815 193.514 20.3638C193.691 20.9666 193.959 21.5243 194.18 22.2086C194.387 22.8444 194.471 23.4044 194.523 24.6494C194.555 25.4304 194.711 26.9145 194.609 27.9499C194.554 28.5114 194.268 29.0427 193.978 29.6239C193.611 30.3566 193.175 30.8879 192.697 31.4861C191.845 32.5517 190.852 33.2806 190.407 33.7932C189.964 34.3026 189.86 34.9885 189.569 35.621C189.282 36.2464 188.7 36.7313 187.982 37.4319C187.464 37.9372 186.922 38.2013 186.392 38.3397C185.695 38.5219 185.044 38.8861 184.445 39.023C183.774 39.1762 183.164 39.331 182.464 39.5012C181.983 39.6179 181.556 39.5699 181.334 39.5535C180.721 39.5081 181.247 38.1378 181.265 35.7184C181.272 34.75 181.111 34.072 180.975 33.4897C180.84 32.9151 180.804 32.2944 180.684 31.6963C180.519 30.873 180.564 30.1765 180.767 29.6639C181.198 28.5752 182.543 29.6598 184.606 29.5763C186.415 29.503 185.041 25.3563 184.922 25.1343C184.411 24.1811 182.139 24.9113 181.387 24.7914C180.983 24.7269 180.634 24.7401 180.412 24.6212C180.19 24.5026 180.256 23.8216 180.307 23.0538C180.344 22.5026 180.868 22.0092 181.448 21.4971C182.185 20.8466 182.953 21.0158 184.471 20.9979C185.22 20.989 185.62 21.186 185.842 21.1183C186.333 20.9685 186.1 19.4863 186.015 18.6252C185.96 18.0738 185.792 17.6 185.708 17.2586C185.629 16.9414 185.111 16.9491 183.975 16.8978C179.306 16.6871 178.62 17.1182 177.936 17.2556C176.916 17.4601 176.263 18.414 175.934 19.0819C175.054 20.8745 175.814 24.0871 175.933 24.7883C176.058 25.5187 176.19 25.9344 176.156 26.1733C176.05 26.9346 174.45 26.2092 172.558 26.2087C172.219 26.2086 172.293 26.445 172.379 26.6843C172.741 27.6985 172.908 28.4604 173.063 29.1114C173.15 29.4758 173.182 29.83 173.42 30.0519C174.152 30.7333 175.777 30.3426 176.359 30.4292C176.633 30.47 176.906 30.5824 177.162 30.7357C177.664 31.0364 177.659 31.8106 177.677 35.6764C177.685 37.5144 177.726 39.3618 177.899 39.9102C178.124 40.6287 175.955 39.9482 175.321 39.7416C174.997 39.6734 174.688 39.6047 174.415 39.5196C174.278 39.4684 174.143 39.4007 173.696 39.126"
        stroke="#121212" stroke-linecap="round" />
    <path
        d="M164.458 29.0525C164.858 35.8525 173.291 39.2192 177.458 40.0525L176.458 30.5527L172.958 30.0527L172.458 26.0527H176.458L174.958 22.0527C174.958 21.2194 175.258 19.0527 176.458 17.0527C177.658 15.0527 183.291 16.2194 185.958 17.0527V21.0527C185.458 20.8861 183.858 20.6527 181.458 21.0527C179.058 21.4527 180.124 23.5527 180.958 24.5527H184.958L185.958 27.5527L184.458 30.0527C183.291 29.7193 180.958 29.2525 180.958 30.0527C180.958 31.053 181.458 33.5527 181.458 35.0527C181.458 36.2527 181.124 38.5527 180.958 39.5527L184.458 39.0527L193.458 30.5527C194.458 28.0527 195.558 21.8527 191.958 17.0527C187.458 11.0527 183.458 12.5525 181.458 11.5525C179.458 10.5525 171.958 11.0525 169.958 12.5525C167.958 14.0525 163.958 20.5525 164.458 29.0525Z"
        fill="#77A7EF" stroke="#121212" />
    <path
        d="M210.465 20.9258C211.179 20.9258 211.969 21.0644 212.833 21.3418C213.025 21.4911 213.121 21.6564 213.121 21.8378C213.121 22.0084 213.03 22.1631 212.849 22.3018C212.678 22.4298 212.481 22.4938 212.257 22.4938C211.681 22.3444 211.142 22.2698 210.641 22.2698C209.489 22.2698 208.614 22.6111 208.017 23.2938C207.419 23.9764 207.121 24.9898 207.121 26.3338C207.121 27.6778 207.473 28.7284 208.177 29.4858C208.539 29.8804 208.971 30.0778 209.473 30.0778C209.974 30.0778 210.774 29.8111 211.873 29.2778C212.257 29.0964 212.513 29.0058 212.641 29.0058C212.918 29.0058 213.057 29.1498 213.057 29.4378C213.057 29.7258 212.923 29.9658 212.657 30.1578C211.739 30.6378 211.025 30.9631 210.513 31.1338C210.001 31.2938 209.558 31.3738 209.185 31.3738C208.417 31.3738 207.761 31.0911 207.217 30.5258C206.246 29.4804 205.761 28.0564 205.761 26.2538C205.761 24.4404 206.219 23.1018 207.137 22.2378C208.065 21.3631 209.174 20.9258 210.465 20.9258ZM217.294 23.9338C218.062 23.9338 218.691 24.3018 219.182 25.0378C219.683 25.7738 219.934 26.6591 219.934 27.6938C219.934 28.7178 219.678 29.5924 219.166 30.3178C218.665 31.0431 217.993 31.4058 217.15 31.4058C216.318 31.4058 215.646 31.0378 215.134 30.3018C214.622 29.5551 214.366 28.7284 214.366 27.8218C214.366 26.6591 214.601 25.7311 215.07 25.0378C215.571 24.3018 216.313 23.9338 217.294 23.9338ZM217.102 25.2458C216.654 25.2458 216.286 25.4804 215.998 25.9498C215.71 26.4191 215.566 26.9151 215.566 27.4378C215.566 28.2484 215.726 28.8671 216.046 29.2938C216.366 29.7204 216.729 29.9338 217.134 29.9338C217.859 29.9338 218.323 29.6191 218.526 28.9898C218.611 28.6911 218.654 28.3178 218.654 27.8698C218.654 26.1204 218.137 25.2458 217.102 25.2458ZM221.523 30.8938L221.347 24.3978C221.347 24.1951 221.417 24.0298 221.555 23.9018C221.694 23.7738 221.833 23.7098 221.971 23.7098C222.313 23.7098 222.51 23.8538 222.563 24.1418C222.606 24.4298 222.627 24.7284 222.627 25.0378C223.203 24.2804 223.923 23.9018 224.787 23.9018C226.11 23.9018 226.771 25.4111 226.771 28.4298C226.771 28.7071 226.771 29.1284 226.771 29.6938C226.771 30.2484 226.739 30.6538 226.675 30.9098C226.601 31.2298 226.371 31.3898 225.987 31.3898C225.731 31.3898 225.603 31.2191 225.603 30.8778L225.619 29.9818C225.619 28.7444 225.577 27.9018 225.491 27.4538C225.417 26.9951 225.342 26.6324 225.267 26.3658C225.086 25.7898 224.793 25.5018 224.387 25.5018C223.854 25.5018 223.481 25.6938 223.267 26.0778C223.033 26.4938 222.894 26.9844 222.851 27.5498C222.777 28.5418 222.739 29.5924 222.739 30.7018C222.739 30.9151 222.659 31.0858 222.499 31.2138C222.339 31.3418 222.147 31.4058 221.923 31.4058C221.657 31.4058 221.523 31.2351 221.523 30.8938ZM228.55 23.9178L229.35 23.9338C229.531 23.9338 229.632 23.9284 229.654 23.9178V20.6378C229.664 20.4564 229.755 20.3018 229.926 20.1738C230.096 20.0458 230.256 19.9818 230.406 19.9818C230.555 19.9818 230.672 20.0298 230.758 20.1258C230.854 20.2218 230.896 20.3711 230.886 20.5738C230.875 20.7764 230.87 21.8858 230.87 23.9018L232.742 23.8378C233.062 23.8378 233.222 24.0244 233.222 24.3978C233.222 24.6751 233.136 24.8831 232.966 25.0218C232.806 25.1604 232.63 25.2351 232.438 25.2458C232.256 25.2564 232.075 25.2618 231.894 25.2618L230.918 25.2458C230.918 25.6831 230.96 26.5471 231.046 27.8378C231.142 29.1284 231.216 29.9658 231.27 30.3498C231.323 30.7231 231.334 30.9684 231.302 31.0858C231.27 31.1924 231.211 31.2671 231.126 31.3098C230.987 31.3738 230.8 31.4058 230.566 31.4058C230.331 31.4058 230.192 31.2778 230.15 31.0218C229.936 29.6244 229.792 27.7044 229.718 25.2618C229.622 25.2724 229.254 25.2778 228.614 25.2778C227.974 25.2778 227.654 25.0911 227.654 24.7178C227.654 24.1844 227.952 23.9178 228.55 23.9178ZM234.706 21.2778C234.898 21.2778 235.079 21.3684 235.25 21.5498C235.42 21.7311 235.506 21.9231 235.506 22.1258C235.506 22.3178 235.41 22.5151 235.218 22.7178C235.036 22.9204 234.844 23.0218 234.642 23.0218C234.439 23.0218 234.252 22.9364 234.082 22.7658C233.922 22.5951 233.842 22.3764 233.842 22.1098C233.842 21.5978 234.119 21.3204 234.674 21.2778C234.684 21.2778 234.695 21.2778 234.706 21.2778ZM235.378 29.6618L235.394 30.7818C235.394 30.9844 235.314 31.1551 235.154 31.2938C234.994 31.4218 234.823 31.4858 234.642 31.4858C234.375 31.4858 234.236 31.3524 234.226 31.0858C234.087 27.6831 234.018 25.8004 234.018 25.4378C234.018 25.0751 234.034 24.6324 234.066 24.1098C234.087 23.9178 234.21 23.8218 234.434 23.8218C234.999 23.8218 235.319 24.0511 235.394 24.5098C235.426 24.7444 235.442 24.9311 235.442 25.0698L235.378 26.0778V29.6618ZM237.836 30.8938L237.66 24.3978C237.66 24.1951 237.729 24.0298 237.868 23.9018C238.006 23.7738 238.145 23.7098 238.284 23.7098C238.625 23.7098 238.822 23.8538 238.876 24.1418C238.918 24.4298 238.94 24.7284 238.94 25.0378C239.516 24.2804 240.236 23.9018 241.1 23.9018C242.422 23.9018 243.084 25.4111 243.084 28.4298C243.084 28.7071 243.084 29.1284 243.084 29.6938C243.084 30.2484 243.052 30.6538 242.988 30.9098C242.913 31.2298 242.684 31.3898 242.3 31.3898C242.044 31.3898 241.916 31.2191 241.916 30.8778L241.932 29.9818C241.932 28.7444 241.889 27.9018 241.804 27.4538C241.729 26.9951 241.654 26.6324 241.58 26.3658C241.398 25.7898 241.105 25.5018 240.7 25.5018C240.166 25.5018 239.793 25.6938 239.58 26.0778C239.345 26.4938 239.206 26.9844 239.164 27.5498C239.089 28.5418 239.052 29.5924 239.052 30.7018C239.052 30.9151 238.972 31.0858 238.812 31.2138C238.652 31.3418 238.46 31.4058 238.236 31.4058C237.969 31.4058 237.836 31.2351 237.836 30.8938ZM244.43 24.5418C244.473 24.3604 244.563 24.2111 244.702 24.0938C244.841 23.9658 244.979 23.9018 245.118 23.9018C245.267 23.9018 245.379 23.9284 245.454 23.9818C245.539 24.0351 245.587 24.0831 245.598 24.1258C245.619 24.1684 245.641 24.2431 245.662 24.3498C245.598 25.1818 245.566 25.9338 245.566 26.6058C245.566 27.2671 245.646 28.0298 245.806 28.8938C245.966 29.7471 246.142 30.1738 246.334 30.1738C246.622 30.1738 246.985 30.0138 247.422 29.6938C247.87 29.3738 248.19 29.0378 248.382 28.6858C248.254 27.1498 248.19 25.8324 248.19 24.7338C248.19 24.5098 248.259 24.3178 248.398 24.1578C248.547 23.9978 248.723 23.9178 248.926 23.9178C249.257 23.9178 249.422 24.1418 249.422 24.5898C249.422 25.3471 249.475 26.4724 249.582 27.9658C249.699 29.4591 249.817 30.4084 249.934 30.8138C249.955 30.8991 249.966 31.0004 249.966 31.1178C249.966 31.2244 249.891 31.3258 249.742 31.4218C249.603 31.5284 249.417 31.5818 249.182 31.5818C248.958 31.5818 248.809 31.4538 248.734 31.1978C248.713 30.9844 248.659 30.6644 248.574 30.2378C247.827 31.0164 247.075 31.4058 246.318 31.4058C245.966 31.4058 245.651 31.2724 245.374 31.0058C245.097 30.7391 244.878 30.3764 244.718 29.9178C244.441 29.0324 244.302 28.2004 244.302 27.4218C244.302 26.6431 244.345 25.6831 244.43 24.5418ZM253.172 23.9818C253.738 23.9818 254.276 24.1471 254.788 24.4778C255.3 24.8084 255.556 25.2191 255.556 25.7098C255.556 26.1898 255.348 26.6591 254.932 27.1178C254.516 27.5658 253.962 27.8378 253.268 27.9338C252.97 27.9764 252.522 27.9978 251.924 27.9978C252.042 28.9044 252.271 29.5018 252.612 29.7898C252.719 29.9071 252.863 29.9658 253.044 29.9658C253.706 29.9658 254.26 29.7578 254.708 29.3418C255.156 28.9151 255.476 28.7018 255.668 28.7018C255.754 28.7018 255.882 28.7818 256.052 28.9418C256.223 29.1018 256.308 29.2511 256.308 29.3898C256.308 29.6671 255.972 30.0671 255.3 30.5898C255.002 30.8351 254.639 31.0431 254.212 31.2138C253.796 31.3738 253.407 31.4538 253.044 31.4538C252.116 31.4538 251.434 30.8564 250.996 29.6618C250.719 28.9258 250.58 28.1151 250.58 27.2298C250.58 26.3444 250.788 25.5818 251.204 24.9418C251.62 24.3018 252.276 23.9818 253.172 23.9818ZM253.252 25.0858C252.847 25.0858 252.5 25.3151 252.212 25.7738C252.106 25.9338 252.004 26.2964 251.908 26.8618C253.402 26.8618 254.148 26.4938 254.148 25.7578C254.148 25.3098 253.85 25.0858 253.252 25.0858ZM262.259 31.3738C261.896 31.3738 261.544 30.6698 261.203 29.2618C260.872 27.8431 260.707 26.2538 260.707 24.4938C260.707 24.3124 260.782 24.1738 260.931 24.0778C261.091 23.9711 261.235 23.9178 261.363 23.9178C261.491 23.9178 261.592 23.9604 261.667 24.0458C261.752 24.1204 261.795 24.2218 261.795 24.3498C261.795 26.0138 262.078 27.6138 262.643 29.1498C262.728 29.0218 262.862 28.7658 263.043 28.3818C263.224 27.9871 263.395 27.6991 263.555 27.5178C263.715 27.3364 263.907 27.2458 264.131 27.2458C264.355 27.2458 264.59 27.4111 264.835 27.7418C265.08 28.0724 265.288 28.4298 265.459 28.8138C265.64 29.1871 265.742 29.3844 265.763 29.4058C266.051 28.5098 266.195 27.6778 266.195 26.9098L266.099 24.4778C266.088 24.3178 266.163 24.1844 266.323 24.0778C266.483 23.9604 266.638 23.9018 266.787 23.9018C267.096 23.9018 267.251 24.5044 267.251 25.7098V26.5898C267.251 28.0191 267.032 29.2938 266.595 30.4138C266.36 31.0538 266.067 31.3738 265.715 31.3738C265.512 31.3738 265.326 31.2458 265.155 30.9898C264.984 30.7231 264.792 30.3498 264.579 29.8698C264.366 29.3898 264.2 29.0591 264.083 28.8778L263.603 29.8218C263.422 30.1951 263.283 30.4671 263.187 30.6378C263.091 30.7978 262.958 30.9631 262.787 31.1338C262.616 31.2938 262.44 31.3738 262.259 31.3738ZM269.393 21.2778C269.585 21.2778 269.766 21.3684 269.937 21.5498C270.108 21.7311 270.193 21.9231 270.193 22.1258C270.193 22.3178 270.097 22.5151 269.905 22.7178C269.724 22.9204 269.532 23.0218 269.329 23.0218C269.126 23.0218 268.94 22.9364 268.769 22.7658C268.609 22.5951 268.529 22.3764 268.529 22.1098C268.529 21.5978 268.806 21.3204 269.361 21.2778C269.372 21.2778 269.382 21.2778 269.393 21.2778ZM270.065 29.6618L270.081 30.7818C270.081 30.9844 270.001 31.1551 269.841 31.2938C269.681 31.4218 269.51 31.4858 269.329 31.4858C269.062 31.4858 268.924 31.3524 268.913 31.0858C268.774 27.6831 268.705 25.8004 268.705 25.4378C268.705 25.0751 268.721 24.6324 268.753 24.1098C268.774 23.9178 268.897 23.8218 269.121 23.8218C269.686 23.8218 270.006 24.0511 270.081 24.5098C270.113 24.7444 270.129 24.9311 270.129 25.0698L270.065 26.0778V29.6618ZM272.315 23.9178L273.115 23.9338C273.297 23.9338 273.398 23.9284 273.419 23.9178V20.6378C273.43 20.4564 273.521 20.3018 273.691 20.1738C273.862 20.0458 274.022 19.9818 274.171 19.9818C274.321 19.9818 274.438 20.0298 274.523 20.1258C274.619 20.2218 274.662 20.3711 274.651 20.5738C274.641 20.7764 274.635 21.8858 274.635 23.9018L276.507 23.8378C276.827 23.8378 276.987 24.0244 276.987 24.3978C276.987 24.6751 276.902 24.8831 276.731 25.0218C276.571 25.1604 276.395 25.2351 276.203 25.2458C276.022 25.2564 275.841 25.2618 275.659 25.2618L274.683 25.2458C274.683 25.6831 274.726 26.5471 274.811 27.8378C274.907 29.1284 274.982 29.9658 275.035 30.3498C275.089 30.7231 275.099 30.9684 275.067 31.0858C275.035 31.1924 274.977 31.2671 274.891 31.3098C274.753 31.3738 274.566 31.4058 274.331 31.4058C274.097 31.4058 273.958 31.2778 273.915 31.0218C273.702 29.6244 273.558 27.7044 273.483 25.2618C273.387 25.2724 273.019 25.2778 272.379 25.2778C271.739 25.2778 271.419 25.0911 271.419 24.7178C271.419 24.1844 271.718 23.9178 272.315 23.9178ZM279.127 26.2058L279.255 29.9818C279.255 30.4511 279.234 30.7231 279.191 30.7978C279.17 30.9898 279.106 31.1391 278.999 31.2458C278.903 31.3524 278.711 31.4058 278.423 31.4058C278.285 31.4058 278.173 31.3204 278.087 31.1498C278.002 30.9684 277.954 30.7658 277.943 30.5418C277.869 28.6644 277.767 26.9044 277.639 25.2618C277.522 23.6084 277.463 22.0724 277.463 20.6538C277.463 20.4298 277.538 20.2538 277.687 20.1258C277.837 19.9978 278.013 19.9338 278.215 19.9338C278.514 19.9338 278.69 20.1898 278.743 20.7018C278.807 21.2138 278.845 21.8538 278.855 22.6218C278.877 23.3898 278.898 23.9498 278.919 24.3018C279.453 24.0244 279.986 23.8858 280.519 23.8858C281.757 23.8858 282.541 24.4298 282.871 25.5178C283.063 26.1364 283.159 26.9311 283.159 27.9018C283.159 28.2218 283.127 28.7284 283.063 29.4218C283.01 30.1044 282.978 30.5471 282.967 30.7498C282.957 30.9524 282.866 31.1124 282.695 31.2298C282.535 31.3364 282.359 31.3898 282.167 31.3898C281.869 31.3898 281.719 31.2298 281.719 30.9098L281.831 28.1258C281.831 27.8911 281.821 27.5018 281.799 26.9578C281.778 26.4138 281.666 25.9818 281.463 25.6618C281.271 25.3418 280.93 25.1818 280.439 25.1818C279.565 25.1818 279.127 25.5231 279.127 26.2058ZM290.574 21.0218L292.35 20.9898C293.139 20.9898 293.534 21.1978 293.534 21.6138C293.534 21.7631 293.512 21.8698 293.47 21.9338C293.427 21.9871 293.395 22.0298 293.374 22.0618C293.352 22.0938 293.31 22.1204 293.246 22.1418C293.118 22.1844 293.011 22.2111 292.926 22.2218C292.84 22.2324 292.782 22.2378 292.75 22.2378C292.632 22.2591 292.435 22.2751 292.158 22.2858C291.88 22.2964 291.475 22.3018 290.942 22.3018C290.419 22.3018 289.774 22.2804 289.006 22.2378V25.1818H292.27C292.387 25.1818 292.494 25.2351 292.59 25.3418C292.696 25.4484 292.75 25.5658 292.75 25.6938C292.75 26.1844 292.542 26.4298 292.126 26.4298H289.006L289.07 30.6218C289.07 31.1658 288.883 31.4378 288.51 31.4378C288.147 31.4378 287.934 31.1924 287.87 30.7018C287.838 30.5418 287.816 29.1871 287.806 26.6378C287.806 24.0778 287.795 22.6058 287.774 22.2218C287.379 22.2644 287.182 22.0404 287.182 21.5498C287.182 21.4218 287.235 21.2831 287.342 21.1338C287.448 20.9738 287.539 20.8884 287.614 20.8778C287.699 20.8671 287.8 20.8618 287.918 20.8618C288.046 20.8618 288.35 20.8831 288.83 20.9258C289.491 20.9898 290.072 21.0218 290.574 21.0218ZM298.286 23.9178C298.755 23.9178 298.99 24.3178 298.99 25.1178C298.99 25.2031 298.99 25.2938 298.99 25.3898L298.958 26.5098C298.947 26.8618 298.942 27.2084 298.942 27.5498L299.182 31.1658C299.182 31.4324 298.91 31.5658 298.366 31.5658C298.334 31.5658 298.254 31.5658 298.126 31.5658C298.008 31.5658 297.923 31.5178 297.87 31.4218C297.827 31.3258 297.822 31.2084 297.854 31.0698C297.896 30.9311 297.886 30.7764 297.822 30.6058C297.331 31.1284 296.68 31.3898 295.87 31.3898C294.366 31.3898 293.614 30.2271 293.614 27.9018C293.614 26.6111 293.854 25.6351 294.334 24.9738C294.824 24.3124 295.523 23.9818 296.43 23.9818C296.856 23.9818 297.283 24.0564 297.71 24.2058C297.848 24.0138 298.04 23.9178 298.286 23.9178ZM296.622 25.3738C296.014 25.3738 295.56 25.5498 295.262 25.9018C294.963 26.2538 294.814 26.8991 294.814 27.8378C294.814 29.4164 295.24 30.2058 296.094 30.2058C296.318 30.2058 296.563 30.1044 296.83 29.9018C297.107 29.6991 297.299 29.4698 297.406 29.2138C297.608 28.6378 297.71 28.0084 297.71 27.3258C297.71 26.6431 297.624 26.1471 297.454 25.8378C297.294 25.5284 297.016 25.3738 296.622 25.3738ZM299.863 27.6458C299.863 26.9311 300.05 26.2804 300.423 25.6938C300.807 25.1071 301.292 24.6698 301.879 24.3818C302.466 24.0831 303.036 23.9338 303.591 23.9338C304.146 23.9338 304.588 24.0031 304.919 24.1418C305.26 24.2698 305.431 24.4458 305.431 24.6698C305.431 24.8831 305.367 25.1018 305.239 25.3258C305.122 25.5391 304.962 25.6458 304.759 25.6458C304.684 25.6458 304.476 25.5871 304.135 25.4698C303.804 25.3418 303.591 25.2778 303.495 25.2778C302.876 25.2778 302.348 25.5071 301.911 25.9658C301.474 26.4138 301.255 27.0111 301.255 27.7578C301.255 28.5044 301.372 29.0644 301.607 29.4378C301.852 29.8004 302.268 29.9818 302.855 29.9818C303.09 29.9818 303.49 29.8484 304.055 29.5818C304.631 29.3044 304.988 29.1658 305.127 29.1658C305.266 29.1658 305.378 29.2084 305.463 29.2938C305.548 29.3791 305.591 29.4858 305.591 29.6138C305.591 29.8698 305.426 30.1418 305.095 30.4298C304.775 30.7071 304.375 30.9418 303.895 31.1338C303.415 31.3151 302.983 31.4058 302.599 31.4058C301.746 31.4058 301.074 31.0698 300.583 30.3978C300.103 29.7258 299.863 28.8084 299.863 27.6458ZM308.594 23.9818C309.16 23.9818 309.698 24.1471 310.21 24.4778C310.722 24.8084 310.978 25.2191 310.978 25.7098C310.978 26.1898 310.77 26.6591 310.354 27.1178C309.938 27.5658 309.384 27.8378 308.69 27.9338C308.392 27.9764 307.944 27.9978 307.346 27.9978C307.464 28.9044 307.693 29.5018 308.034 29.7898C308.141 29.9071 308.285 29.9658 308.466 29.9658C309.128 29.9658 309.682 29.7578 310.13 29.3418C310.578 28.9151 310.898 28.7018 311.09 28.7018C311.176 28.7018 311.304 28.7818 311.474 28.9418C311.645 29.1018 311.73 29.2511 311.73 29.3898C311.73 29.6671 311.394 30.0671 310.722 30.5898C310.424 30.8351 310.061 31.0431 309.634 31.2138C309.218 31.3738 308.829 31.4538 308.466 31.4538C307.538 31.4538 306.856 30.8564 306.418 29.6618C306.141 28.9258 306.002 28.1151 306.002 27.2298C306.002 26.3444 306.21 25.5818 306.626 24.9418C307.042 24.3018 307.698 23.9818 308.594 23.9818ZM308.674 25.0858C308.269 25.0858 307.922 25.3151 307.634 25.7738C307.528 25.9338 307.426 26.2964 307.33 26.8618C308.824 26.8618 309.57 26.4938 309.57 25.7578C309.57 25.3098 309.272 25.0858 308.674 25.0858ZM312.697 20.5738C312.697 20.1471 312.964 19.9338 313.497 19.9338C313.743 19.9338 313.887 20.0831 313.929 20.3818V22.7818C313.929 23.2298 313.935 23.6778 313.945 24.1258C314.159 24.0618 314.431 24.0298 314.761 24.0298C315.796 24.0298 316.596 24.3764 317.161 25.0698C317.727 25.7631 318.009 26.6324 318.009 27.6778C318.009 28.7231 317.673 29.6084 317.001 30.3338C316.34 31.0484 315.487 31.4058 314.441 31.4058C313.396 31.4058 312.873 31.1124 312.873 30.5258C312.873 29.9284 312.841 28.4244 312.777 26.0138C312.724 23.5924 312.697 21.7791 312.697 20.5738ZM315.929 25.7258C315.545 25.4271 315.14 25.2778 314.713 25.2778C314.479 25.2778 314.239 25.3204 313.993 25.4058C314.057 26.2804 314.089 27.8324 314.089 30.0618C314.271 30.1258 314.457 30.1578 314.649 30.1578C315.065 30.1578 315.481 30.0031 315.897 29.6938C316.516 29.2671 316.825 28.6164 316.825 27.7418C316.825 26.8564 316.527 26.1844 315.929 25.7258ZM322.091 23.9338C322.859 23.9338 323.488 24.3018 323.979 25.0378C324.48 25.7738 324.731 26.6591 324.731 27.6938C324.731 28.7178 324.475 29.5924 323.963 30.3178C323.462 31.0431 322.79 31.4058 321.947 31.4058C321.115 31.4058 320.443 31.0378 319.931 30.3018C319.419 29.5551 319.163 28.7284 319.163 27.8218C319.163 26.6591 319.398 25.7311 319.867 25.0378C320.368 24.3018 321.11 23.9338 322.091 23.9338ZM321.899 25.2458C321.451 25.2458 321.083 25.4804 320.795 25.9498C320.507 26.4191 320.363 26.9151 320.363 27.4378C320.363 28.2484 320.523 28.8671 320.843 29.2938C321.163 29.7204 321.526 29.9338 321.931 29.9338C322.656 29.9338 323.12 29.6191 323.323 28.9898C323.408 28.6911 323.451 28.3178 323.451 27.8698C323.451 26.1204 322.934 25.2458 321.899 25.2458ZM328.544 23.9338C329.312 23.9338 329.941 24.3018 330.432 25.0378C330.933 25.7738 331.184 26.6591 331.184 27.6938C331.184 28.7178 330.928 29.5924 330.416 30.3178C329.915 31.0431 329.243 31.4058 328.4 31.4058C327.568 31.4058 326.896 31.0378 326.384 30.3018C325.872 29.5551 325.616 28.7284 325.616 27.8218C325.616 26.6591 325.851 25.7311 326.32 25.0378C326.821 24.3018 327.563 23.9338 328.544 23.9338ZM328.352 25.2458C327.904 25.2458 327.536 25.4804 327.248 25.9498C326.96 26.4191 326.816 26.9151 326.816 27.4378C326.816 28.2484 326.976 28.8671 327.296 29.2938C327.616 29.7204 327.979 29.9338 328.384 29.9338C329.109 29.9338 329.573 29.6191 329.776 28.9898C329.861 28.6911 329.904 28.3178 329.904 27.8698C329.904 26.1204 329.387 25.2458 328.352 25.2458ZM337.877 30.6698C337.877 31.1711 337.648 31.4218 337.189 31.4218C336.997 31.4218 336.736 30.9524 336.405 30.0138C336.075 29.0644 335.632 28.3338 335.077 27.8218C335.024 27.8964 334.795 28.1098 334.389 28.4618C333.995 28.8031 333.76 29.0111 333.685 29.0858V30.6858C333.664 30.8458 333.637 30.9684 333.605 31.0538C333.573 31.1391 333.499 31.2191 333.381 31.2938C333.275 31.3684 333.125 31.4058 332.933 31.4058C332.645 31.4058 332.501 31.2298 332.501 30.8778C332.501 29.8858 332.459 28.3498 332.373 26.2698C332.288 24.1791 332.245 22.3071 332.245 20.6538C332.245 20.4511 332.325 20.2911 332.485 20.1738C332.656 20.0564 332.832 19.9978 333.013 19.9978C333.259 19.9978 333.408 20.1524 333.461 20.4618V23.2938C333.461 23.6351 333.467 23.8911 333.477 24.0618C333.488 24.2324 333.499 24.4884 333.509 24.8298C333.531 25.5338 333.568 26.3284 333.621 27.2138C333.931 26.9791 334.325 26.6111 334.805 26.1098C335.296 25.5978 335.664 25.1604 335.909 24.7978C336.293 24.1898 336.645 23.8858 336.965 23.8858C337.051 23.8858 337.136 23.9071 337.221 23.9498C337.445 24.0778 337.557 24.2271 337.557 24.3978C337.557 24.5684 337.483 24.7924 337.333 25.0698C336.949 25.7311 336.507 26.3338 336.005 26.8778C336.485 27.4111 336.965 28.1738 337.445 29.1658C337.733 29.8058 337.877 30.3071 337.877 30.6698Z"
        fill="#303133" />
</svg>