<svg width="78" height="63" viewBox="0 0 78 63" fill="none" xmlns="http://www.w3.org/2000/svg">
    <path
        d="M46.9297 17.4113C47.1499 16.7515 47.8905 15.4237 48.2814 14.7375C48.6649 14.0642 49.2983 12.8478 49.598 11.9061C49.7179 11.5294 49.7097 11.0852 49.6363 10.6563C49.6007 10.4481 49.4162 10.3047 49.2488 10.225C49.0814 10.1453 48.898 10.1453 48.7301 10.2226C48.0447 10.5383 47.895 11.4696 47.5981 12.3298C47.3452 13.0623 47.2278 13.8533 46.8202 14.5957C46.5984 14.9854 46.3749 15.3393 46.1714 15.6511C46.078 15.8081 46.0046 15.9628 45.929 16.1222"
        stroke="#121212" stroke-linecap="round" />
    <path
        d="M56.3816 10.9657C56.0869 11.1591 55.4942 11.7837 55.1606 12.3093C54.9934 12.5728 55.0472 12.951 55.1023 13.2076C55.2738 14.0075 56.1192 14.2073 56.8231 14.4417C57.4211 14.6408 57.974 14.4042 58.2514 14.229C58.7921 13.8875 58.828 12.8853 58.7546 12.007C58.5344 11.554 58.2364 11.3571 57.9406 11.2206C57.7916 11.1614 57.6448 11.1227 57.3824 10.9657"
        stroke="#121212" stroke-linecap="round" />
    <path
        d="M63.0536 12.1379C62.9057 12.4485 62.8312 13.8466 63.1815 14.7144C63.4495 15.3785 64.4213 15.185 65.108 15.2822C65.5652 15.347 65.9804 15.1861 66.2394 14.933C66.4839 14.6941 66.5008 14.0951 66.4824 13.4318C66.4704 12.9968 66.2795 12.7251 66.0393 12.53C65.7624 12.4122 65.4644 12.3337 65.1686 12.2751C65.0196 12.2551 64.8728 12.2551 64.7216 12.2551"
        stroke="#121212" stroke-linecap="round" />
    <path
        d="M43.1489 8.1532C43.6638 8.1532 44.9971 8.23054 45.9067 8.36766C47.2494 8.57008 48.2241 8.62198 49.2977 8.73858C50.2274 8.83956 51.3354 8.93371 52.1349 8.99289C52.8619 9.0467 54.7737 9.32279 56.2832 9.51968C58.8322 9.85214 61.0364 10.2978 62.3647 10.5357C63.7163 10.8088 65.2709 11.1205 66.3478 11.2975C66.7176 11.3174 67.268 11.3174 67.8351 11.3174"
        stroke="#121212" stroke-width="2" stroke-linecap="round" />
    <path
        d="M32.6757 5C33.1538 5 34.3392 5.07735 35.5802 5.35041C36.896 5.63995 38.0799 5.70316 39.1775 5.80043C40.3048 5.90035 42.3789 6.05475 43.3841 6.15202C44.9006 6.29876 46.3821 6.40633 47.4435 6.5036C48.644 6.61361 51.1592 6.75791 53.3481 6.85518C55.663 6.95804 57.3963 6.91377 58.3727 6.97237C61.6915 7.17157 63.6113 7.10949 65.123 7.20676C66.4413 7.26536 68.1348 7.34388 69.2579 7.46048C69.4069 7.49974 69.5537 7.53842 69.9274 7.57826"
        stroke="#121212" stroke-width="2" stroke-linecap="round" />
    <path
        d="M32.6757 59C33.741 59.0424 37.4342 60.306 40.1757 60.4549C44.6831 60.6997 46.7015 61.2892 49.1757 61.5889C50.8143 61.7873 51.8565 60.9041 54.1757 60.9041C55.6168 60.9041 57.2198 61.0318 58.1757 60.9041C59.2824 60.7563 60.7554 60.5627 62.1757 60.4331C64.4758 60.2188 65.8977 60.1502 67.1757 60C67.7536 59.9782 68.18 59 69.1757 59"
        stroke="#121212" stroke-width="2" stroke-linecap="round" />
    <path
        d="M51.8979 58.819C44.475 59.2263 32.8503 58.819 32.8503 58.819L29.6757 9C29.6757 9 42.1826 9.33918 49.9931 10.0714C57.8036 10.8036 69.6757 12.7498 69.6757 12.7498L67.7709 57.2119C67.7709 57.2119 58.128 58.4772 51.8979 58.819Z"
        fill="#F8F8F6" />
    <path
        d="M45.5197 43.5898C45.8143 43.6672 46.8474 43.9789 47.6486 44.2725C48.4112 44.5519 49.3338 44.2555 49.9654 44.1371C50.5864 44.0207 50.9662 43.2804 51.4482 42.6353C52.0101 41.8833 52.265 41.2108 52.4134 40.5451C52.6765 39.3656 52.4518 37.4606 52.3217 36.7756C52.3028 36.4058 52.2294 36.0519 52.0999 35.7402C52.0437 35.5831 47.9088 31.8938 47.6486 31.5"
        stroke="#121212" stroke-width="4" stroke-linecap="round" />
    <path
        d="M76.3447 55.6883C75.4563 56.2354 68.9557 59.4472 67.3337 57.2265C66.5722 56.1839 70.3797 15 70.3797 15C70.3797 15 77.233 50.9064 77.233 52.5347C77.2331 54.163 77.2331 55.1413 76.3447 55.6883Z"
        fill="#F8F8F6" />
    <path
        d="M71.2823 27.9587C71.2823 27.9974 71.2823 28.0361 71.319 31.4787C71.3557 34.9212 71.4291 41.7665 71.4486 45.3896C71.4681 49.0126 71.4314 49.206 71.3936 49.7568"
        stroke="#121212" stroke-linecap="round" />
    <path
        d="M70.2816 39.2094C70.1715 40.679 70.0614 42.1486 69.9496 43.157C69.8379 44.1655 69.7278 44.6682 69.6527 45.5073C69.5777 46.3465 69.541 47.5067 69.7256 48.3505"
        stroke="#121212" stroke-linecap="round" />
    <path
        d="M72.8391 40.264C72.9859 41.7336 73.1327 43.2033 73.2083 44.5404C73.2839 45.8776 73.2839 47.0378 73.3951 48.3504"
        stroke="#121212" stroke-linecap="round" />
    <path
        d="M70.0592 21.5132C69.9858 24.143 69.9113 25.6525 69.819 26.1962C69.69 27.2041 69.6144 28.4604 69.596 29.514C69.5777 29.9488 69.541 30.1808 69.5032 30.7715"
        stroke="#121212" stroke-linecap="round" />
    <path
        d="M68.7192 10.6546C68.7192 10.6546 38.6153 8.55225 35.7482 6.80027C34.5873 6.0909 68.7192 8.20186 68.7192 8.20186V10.6546Z"
        fill="#F8F8F6" />
    <path
        d="M31.8724 60.8038C21.7631 59.2933 -2.21648 44.623 0.597247 42.9974C3.41097 41.3717 17.9263 4.64862 17.9263 4.64862C34.0616 4.89718 41.6872 11.9015 57.0117 17.1921C48.4079 36.6128 41.7373 43.9648 31.8724 60.8038Z"
        fill="#F8F8F6" />
    <path
        d="M19.7634 20.46C20.0357 20.4432 20.6766 20.4715 21.4703 20.5495C22.3498 20.4875 23.2163 20.4697 24.1091 20.3841C24.4527 20.3329 24.9761 20.2233 25.5154 20.1104"
        stroke="#FB3748" stroke-width="4" stroke-linecap="round" />
    <path
        d="M14.1394 36.7827C14.4404 36.8821 15.1001 36.987 15.7863 37.1896C16.4733 37.5544 16.9183 37.9095 17.2015 38.0938C17.3441 38.1867 17.4846 38.2782 17.7714 38.4649"
        stroke="#FB3748" stroke-width="4" stroke-linecap="round" />
    <path
        d="M17.3931 3.12476C17.3201 3.78493 17.1931 5.67531 16.9651 8.36606C16.7299 11.1421 16.1701 11.8448 15.8661 12.7036C15.5869 13.4921 14.4898 15.9292 13.707 17.6338C13.3806 18.3444 12.8864 19.1278 11.7071 21.1836C11.1327 22.1848 10.7694 23.113 10.2439 24.1196C9.74369 25.0775 9.08773 26.2743 8.1092 28.0816C6.79721 30.5048 5.99511 32.4192 5.62708 33.4074C4.45565 36.5528 3.77321 37.5635 2.90848 39.5351C2.47601 40.5212 2.12741 41.2083 1.81269 41.9465C1.72326 42.1491 1.62099 42.372 1.5264 42.5561C1.43182 42.7402 1.34802 42.8786 1.12106 43.4172"
        stroke="#121212" stroke-width="2" stroke-linecap="round" />
    <path
        d="M1.00781 43.4404C2.19754 44.0853 2.93491 44.5001 4.24316 45.3839C5.46697 46.2108 6.55975 47.1192 7.56098 47.6424C8.86122 48.3218 10.4949 49.4218 11.6181 50.234C12.4078 50.805 13.5711 51.3914 14.7478 52.2228C15.2155 52.5532 16.6284 53.835 18.7379 55.5496C20.518 56.9964 22.0861 57.5861 22.969 57.9337C23.8805 58.2927 24.9223 58.6215 26.2852 59.0701C27.8501 59.5852 28.7992 59.6832 29.7192 59.94C30.4678 60.3133 31.1845 60.6493 31.8617 60.8152C32.0279 60.8415 32.1963 60.8869 32.5118 61.026"
        stroke="#121212" stroke-width="2" stroke-linecap="round" />
    <path
        d="M16.5497 37.3772C16.6048 37.1226 17.0173 36.5489 17.4604 35.8455C17.9192 35.117 18.2032 34.2658 18.4841 33.5548C18.8121 32.7246 19.3006 31.7985 19.8085 30.9569C20.2324 30.2544 20.5976 29.3284 21.1181 28.2216C21.952 26.4481 22.5794 25.6158 23.0224 24.6662C23.8778 23.4703 24.762 22.225 25.1543 21.5524C25.2345 21.3921 25.3183 21.2536 25.3187 20.7625"
        stroke="#FB3748" stroke-width="4" stroke-linecap="round" />
    <path
        d="M29.4912 23.1864C29.8288 23.1157 30.677 23.0186 31.5093 23.0886C32.4379 23.1667 33.2297 23.3781 34.0331 23.7393C34.5183 23.9575 35.0177 24.3472 35.4811 24.6972C36.3284 25.337 36.1895 26.9915 36.0833 27.6861C35.9665 28.4495 35.5921 29.0708 35.1127 29.7019C34.5095 30.4959 33.6246 30.9093 33.0249 31.3812C32.3176 31.9377 31.7487 32.482 30.8438 33.1606C30.2112 33.6351 29.6372 34.0649 29.1506 34.5943C28.5168 35.2838 27.4524 35.8244 26.7561 36.3177C26.1526 36.7453 25.5078 37.1281 24.8232 37.415C23.7965 37.8452 23.0264 38.1778 22.5475 38.5016C22.094 38.8082 23.7391 39.328 24.5267 39.8569C25.4532 40.479 26.7486 41.3848 27.4839 41.7017C27.7815 41.8622 28.0388 42.0941 28.2797 42.3484C28.408 42.4651 28.5485 42.5566 28.8639 42.8594"
        stroke="#FB3748" stroke-width="4" stroke-linecap="round" />
    <path
        d="M18.1001 2.61011C18.4668 2.81667 19.4474 3.26108 21.0219 3.62326C24.8399 4.50148 26.0257 4.16501 27.1647 4.43519C27.9356 4.61805 29.4499 4.86961 31.1903 5.38269C32.0686 5.64159 32.804 5.87956 33.5702 6.00551C34.3068 6.1266 35.1465 6.69099 35.9728 7.04862C36.76 7.3893 37.8995 8.0271 38.8618 8.53949C39.944 9.11578 41.1169 9.79608 42.2718 10.5319C43.0969 11.0576 44.0312 11.4673 44.912 11.8935C45.9144 12.3786 47.143 12.9725 48.2125 13.6035C49.2169 14.1961 50.2357 14.5649 50.9571 14.9029C51.7657 15.2819 52.5267 15.6313 53.3066 15.8973C53.7356 16.0304 54.1353 16.1922 54.4752 16.3647C54.6371 16.4535 54.7776 16.545 55.2063 16.8241"
        stroke="#121212" stroke-width="2" stroke-linecap="round" />
    <path
        d="M32.6252 61.0028C32.9444 60.693 33.6382 59.9797 34.5897 58.6013C35.3258 57.5348 35.6356 56.6302 36.3669 55.4194C36.8206 54.6682 37.092 54.0047 37.5008 53.2467C37.9997 52.3216 38.9138 51.1023 40.2582 48.8269C41.0401 47.5036 41.39 46.6314 41.7461 45.9859C42.2909 44.9981 42.9506 44.5923 43.4269 44.026C44.2015 43.105 44.6355 42.4099 45.2625 41.7278C46.1725 40.7378 47.9021 37.8297 48.8473 36.1338C49.537 34.8963 50.1667 33.1101 50.6634 31.9068C51.1667 30.6875 52.1455 28.9119 52.6138 27.9754C53.0555 27.0922 53.4639 26.1907 53.7498 25.3357C54.0475 24.4455 54.6824 23.4122 55.0039 22.6096C55.3417 21.7663 55.7347 20.5879 56.2073 18.961C56.2879 18.474 56.3712 18.1695 56.4793 17.883C56.5036 17.7351 56.4657 17.5818 56.4828 17.1678"
        stroke="#121212" stroke-width="2" stroke-linecap="round" />
    <path
        d="M41.6998 9.54178C41.6264 9.46443 41.4418 9.34724 41.146 9.23005C40.5519 8.99468 39.9962 9.6578 39.7738 9.93028C39.6651 10.0634 39.6982 10.2801 39.7532 10.4377C39.9674 11.051 40.6589 11.3372 41.3812 11.6114C42.0229 11.8551 42.5882 11.5352 42.7917 11.2821C43.0007 11.0222 43.0341 10.4442 42.9607 9.81953C42.4426 9.34724 41.9978 9.15153 41.702 9.07359C41.553 9.03433 41.4062 8.99566 41.255 8.95581"
        stroke="#121212" stroke-linecap="round" />
    <path
        d="M49.8129 9.42458C49.5927 9.42458 49.3325 9.34723 49.0367 9.26871C48.7414 9.19033 48.4796 9.5406 48.2944 9.79374C48.2027 9.91912 48.1827 10.0856 48.2005 10.2426C48.2742 10.8936 48.9944 11.2973 49.5882 11.6114C49.7256 11.6841 49.884 11.6513 50.0147 11.5739C50.5806 11.2389 50.4801 10.3657 50.4067 9.78027C50.3333 9.54295 50.1865 9.42693 50.0375 9.30915C49.8885 9.19137 49.7417 9.07535 49.5905 8.95581"
        stroke="#121212" stroke-linecap="round" />
    <path
        d="M58.6418 12.1737C58.1992 12.135 57.3852 12.0565 56.8087 12.3284C56.6758 12.3911 56.678 12.6003 56.6958 12.7767C56.7721 13.533 57.5276 14.0066 57.9913 14.4965C58.2196 14.7377 58.6029 14.752 58.8992 14.6746C59.0488 14.4426 59.0866 13.7804 58.9765 12.9027C58.8664 12.5277 58.6462 12.2956 58.0858 11.9393"
        stroke="#121212" stroke-linecap="round" />
    <path
        d="M65.0315 13.051C64.9581 12.9737 64.7735 12.9725 64.5327 13.1085C64.026 13.3946 64.2531 14.53 64.585 15.256C64.6596 15.4193 64.8068 15.5098 65.0654 15.5695C65.3239 15.6293 65.7276 15.6293 65.9906 15.4939C66.4725 15.2459 66.4771 14.3449 66.4037 13.5837C66.3742 13.2783 66.1835 13.1706 66.0161 13.0915C65.8488 13.0124 65.6653 12.9737 65.479 12.9538C65.2928 12.9338 65.1093 12.9338 64.9203 12.9338"
        stroke="#121212" stroke-linecap="round" />
    <path
        d="M34.6979 10.7316C34.6979 10.0331 34.7713 8.78145 34.9014 7.90426C35.1796 6.02818 35.1049 5.30549 35.161 4.44528C35.2083 3.7212 35.6231 3.03896 36.0673 2.3938C36.6146 1.59896 37.3266 1.31855 37.9755 1.04432C38.1681 0.962914 38.4364 1.00447 38.6054 1.08182C38.8478 1.31386 39.0335 1.58927 39.237 1.84241C39.3304 1.97952 39.4038 2.13422 39.5906 2.2936"
        stroke="#121212" stroke-width="2" stroke-linecap="round" />
    <path
        d="M34.9201 11.0833C34.9935 11.0833 35.2882 11.2379 35.7141 11.569C36.0573 11.8358 36.0321 12.4474 35.9587 13.0128C35.8937 13.514 35.4405 13.7775 35.1264 13.9727C34.8092 14.1697 34.3297 14.1303 33.9038 14.0529C33.224 13.9295 33.4745 12.5716 33.5296 11.9276C33.552 11.665 33.6947 11.5544 33.8432 11.4753C33.9916 11.3962 34.1751 11.3575 34.343 11.3182C34.5109 11.279 34.6577 11.2403 34.9201 11.2004"
        stroke="#121212" stroke-linecap="round" />
    <path
        d="M57.4936 12.4893C57.3101 11.8682 56.7908 10.4642 56.4383 9.65965C56.1302 8.95642 56.0858 8.19532 56.0296 7.45289C55.9034 5.78356 56.0469 3.46654 56.2871 3.23274C56.8052 2.72838 57.4535 2.56767 58.1213 2.58584C58.3809 2.75987 58.5677 3.0341 58.7156 3.34584C58.7901 3.50288 58.8635 3.65757 59.0504 3.81695"
        stroke="#121212" stroke-width="2" stroke-linecap="round" />
    <path
        d="M65.0552 13.544C64.7961 13.2721 64.3546 12.1846 64.0366 11.1058C63.7922 10.2768 63.6852 9.17503 63.3327 7.26301C63.1071 6.03928 63.3494 5.18575 63.5156 4.85468C63.8889 4.11125 64.5704 3.70208 65.1642 3.62122C65.4599 3.73724 65.7213 3.97163 65.9064 4.28336C65.9815 4.4404 66.0182 4.5951 66.1672 4.98887"
        stroke="#121212" stroke-width="2" stroke-linecap="round" />
    <path
        d="M48.8201 10.3798C48.7089 9.99302 48.7823 8.89843 48.8384 7.08603C48.8709 6.03757 49.1159 5.03338 49.1904 3.89894C49.2171 3.49166 49.4128 3.15476 49.5418 2.78443C49.678 2.39343 50.0789 2.25471 50.3746 2.21545C50.6704 2.25354 50.9318 2.44808 51.1536 2.75982C51.2654 2.91686 51.3754 3.07155 51.7113 3.34813"
        stroke="#121212" stroke-width="2" stroke-linecap="round" />
    <path
        d="M42.0369 8.03578C42.0369 7.492 42.1103 6.55445 42.2771 5.83136C42.4489 5.08655 42.813 4.09572 43.1661 3.15583C43.3098 2.7732 43.6292 2.56751 44.0168 2.45032C44.2575 2.41047 44.5878 2.41047 44.8313 2.44915C45.0748 2.48782 45.2216 2.56517 45.5952 2.87925"
        stroke="#121212" stroke-width="2" stroke-linecap="round" />
    <path
        d="M69.8982 10C69.8982 12.4435 69.8248 16.2863 69.7687 16.9121C69.7047 17.6252 69.5646 18.9372 69.4723 20.6746C69.2616 24.6411 69.3422 25.5821 69.2499 27.8732C69.1798 29.6144 69.231 32.9419 69.176 34.9646C69.1209 36.9874 69.0108 37.6062 68.9174 39.1045C68.6772 42.9576 68.6383 45.5472 68.5827 45.9363C68.4387 46.9439 68.4526 49.7428 68.3603 52.1224C68.3414 52.9175 68.3414 54.3485 68.3598 55.163C68.3781 55.9775 68.4148 56.1322 68.675 56.6431"
        stroke="#121212" stroke-width="2" stroke-linecap="round" />
    <path
        d="M71.0101 13C71.2691 15.1857 71.8574 17.4346 72.3066 20.2373C72.4947 21.4103 72.4545 22.7201 72.6397 24.1035C72.9655 26.5383 73.0483 28.343 73.2507 30.7355C73.5431 34.1924 74.0124 36.4751 74.0491 37.0593C74.131 38.3621 74.3816 39.5186 74.6418 41.082C74.7838 41.9351 74.7908 42.8024 75.16 45.5101C75.3701 47.051 75.4936 47.7644 75.6799 48.7207C75.8652 49.6722 75.9762 50.6919 76.1986 52.2119C76.5012 54.2797 76.0162 55.8906 75.5909 56.3195C74.8655 57.0511 73.4275 57.2969 72.4768 57.7276C71.8641 57.9626 70.9789 58.3516 70.0676 58.821C69.8992 58.9388 69.7891 59.0548 69.6757 59.1743"
        stroke="#121212" stroke-width="2" stroke-linecap="round" />
</svg>