<svg width="461" height="562" viewBox="0 0 461 562" fill="none" xmlns="http://www.w3.org/2000/svg">
    <path
        d="M10.894 2.21003L10.84 3.20857L10.894 2.21003ZM58.894 2.09209L58.7352 1.10479L58.894 2.09209ZM130.894 2.278L130.827 3.27574L130.894 2.278ZM256.894 2.50338L256.958 1.50543L256.894 2.50338ZM346.894 1.38958L346.963 2.38722L346.894 1.38958ZM458.445 4.16826L457.467 4.37565L458.445 4.16826ZM458.577 21.7666L457.58 21.6898L458.577 21.7666ZM458.918 33.7666L459.897 33.9709L458.918 33.7666ZM458.305 39.7666L459.305 39.7624L458.305 39.7666ZM459.189 51.7666L458.191 51.7098L459.189 51.7666ZM458.702 81.7666L459.702 81.7695L458.702 81.7666ZM458.958 87.7666L457.962 87.8544L458.958 87.7666ZM459.038 105.767L460.027 105.908L459.038 105.767ZM459.134 123.767L460.113 123.562L459.134 123.767ZM459.202 129.767L460.185 129.949L459.202 129.767ZM458.304 153.767L459.297 153.647L458.304 153.767ZM458.927 159.767L459.924 159.68L458.927 159.767ZM459.221 171.767L460.202 171.961L459.221 171.767ZM458.904 177.767L457.908 177.858L458.904 177.767ZM458.991 189.767L457.992 189.796L458.991 189.767ZM458.747 219.767L457.753 219.879L458.747 219.767ZM459.416 285.767L460.406 285.904L459.416 285.767ZM459.071 345.767L460.06 345.917L459.071 345.767ZM458.672 387.767L459.672 387.781L458.672 387.767ZM458.995 393.767L458.003 393.888L458.995 393.767ZM458.417 411.767L459.405 411.616L458.417 411.767ZM458.609 417.767L459.605 417.854L458.609 417.767ZM458.986 423.767L459.964 423.558L458.986 423.767ZM459.161 429.767L458.173 429.614L459.161 429.767ZM458.792 435.767L457.793 435.798L458.792 435.767ZM458.656 441.767L459.653 441.843L458.656 441.767ZM458.972 471.767L457.993 471.563L458.972 471.767ZM458.354 483.767L459.352 483.703L458.354 483.767ZM458.446 489.767L457.447 489.734L458.446 489.767ZM458.925 495.767L459.907 495.578L458.925 495.767ZM459.645 501.767L460.644 501.719L459.645 501.767ZM458.389 543.767L459.383 543.655L458.389 543.767ZM444.894 559.942L445.053 560.929L444.894 559.942ZM426.894 559.453L426.894 558.453L426.894 559.453ZM408.894 559.448L408.932 560.447L408.894 559.448ZM354.894 559.931L354.724 558.945L354.894 559.931ZM342.894 560.055L342.958 561.053L342.894 560.055ZM330.894 560.091L330.688 559.112L330.894 560.091ZM324.894 560.146L325.083 559.164L324.894 560.146ZM276.894 560.251L276.746 559.262L276.894 560.251ZM270.894 560.548L270.945 559.549L270.894 560.548ZM264.894 560.127L264.983 559.131L264.894 560.127ZM258.894 560.221L259.014 561.213L258.894 560.221ZM246.894 559.856L247.005 558.863L246.894 559.856ZM216.894 559.934L216.849 558.935L216.894 559.934ZM192.894 559.437L192.992 560.433L192.894 559.437ZM180.894 559.041L180.843 558.042L180.894 559.041ZM156.894 559.863L157.025 560.854L156.894 559.863ZM150.894 560.125L150.849 561.124L150.894 560.125ZM138.894 559.619L138.855 560.618L138.894 559.619ZM108.894 559.821L108.727 558.835L108.894 559.821ZM96.894 560.328L96.8685 559.329L96.894 560.328ZM90.894 559.862L90.716 560.846L90.894 559.862ZM84.894 559.18L84.9403 558.181L84.894 559.18ZM66.894 560.635L66.8942 561.635L66.894 560.635ZM48.8941 560.074L48.9131 559.075L48.8941 560.074ZM12.894 559.531L12.9449 558.532L12.894 559.531ZM2.57545 558.236L1.6933 558.707L2.57545 558.236ZM4.89404 1.90718L4.84723 2.90608C6.84483 2.99969 8.84243 3.10052 10.84 3.20857L10.894 2.21003L10.9481 1.21149C8.94565 1.10318 6.94325 1.00211 4.94085 0.908276L4.89404 1.90718ZM10.894 2.21003L10.84 3.20857C12.8818 3.31901 14.9237 3.30128 16.9653 3.1554L16.894 2.15794L16.8228 1.16049C14.8644 1.30041 12.9063 1.31741 10.9481 1.21149L10.894 2.21003ZM16.894 2.15794L16.9653 3.1554C18.9824 3.01128 20.9993 2.81524 23.0161 2.5673L22.894 1.57477L22.772 0.582243C20.7888 0.82606 18.8057 1.0188 16.8228 1.16049L16.894 2.15794ZM22.894 1.57477L23.0161 2.5673C24.9592 2.3284 26.9016 2.25806 28.8436 2.35606L28.894 1.35733L28.9444 0.358605C26.8865 0.254759 24.8288 0.329375 22.772 0.582243L22.894 1.57477ZM28.894 1.35733L28.8436 2.35606C30.8412 2.45686 32.8388 2.56503 34.8363 2.68055L34.894 1.68222L34.9518 0.683883C32.9493 0.568079 30.9469 0.459652 28.9444 0.358605L28.894 1.35733ZM34.894 1.68222L34.8363 2.68055C36.8854 2.79905 38.9345 2.7666 40.9832 2.58326L40.894 1.58724L40.8049 0.591221C38.8536 0.765841 36.9027 0.796709 34.9518 0.683883L34.894 1.68222ZM40.894 1.58724L40.9832 2.58326C42.9052 2.41126 44.8271 2.46448 46.7506 2.74332L46.894 1.75366L47.0375 0.764006C44.961 0.462986 42.8829 0.40526 40.8049 0.591221L40.894 1.58724ZM46.894 1.75366L46.7506 2.74332C48.7766 3.03702 50.8031 3.24913 52.8298 3.37957L52.894 2.38164L52.9583 1.3837C50.985 1.2567 49.0114 1.05015 47.0375 0.764006L46.894 1.75366ZM52.894 2.38164L52.8298 3.37957C54.9051 3.51315 56.98 3.41289 59.0529 3.0794L58.894 2.09209L58.7352 1.10479C56.8081 1.41481 54.8829 1.50758 52.9583 1.3837L52.894 2.38164ZM58.894 2.09209L59.0529 3.0794C60.9655 2.77171 62.8759 2.72135 64.7866 2.92778L64.894 1.93356L65.0015 0.939346C62.9122 0.713632 60.8226 0.768967 58.7352 1.10479L58.894 2.09209ZM64.894 1.93356L64.7866 2.92778C66.8568 3.15143 68.9277 3.15513 70.9979 2.93885L70.894 1.94426L70.7901 0.94967C68.8604 1.15127 66.9313 1.14783 65.0015 0.939346L64.894 1.93356ZM70.894 1.94426L70.9979 2.93885C72.9188 2.73817 74.8393 2.76665 76.7611 3.02451L76.894 2.03339L77.027 1.04227C74.9488 0.76341 72.8692 0.732469 70.7901 0.94967L70.894 1.94426ZM76.894 2.03339L76.7611 3.02451C78.8375 3.30313 80.9153 3.33961 82.9927 3.13372L82.894 2.13859L82.7954 1.14347C80.8728 1.33402 78.9506 1.30037 77.027 1.04227L76.894 2.03339ZM82.894 2.13859L82.9927 3.13372C85.0175 2.93303 87.042 2.65588 89.0661 2.30233L88.894 1.31725L88.722 0.33216C86.7461 0.677291 84.7706 0.947706 82.7954 1.14347L82.894 2.13859ZM88.894 1.31725L89.0661 2.30233C90.9266 1.97737 92.7857 2.04579 94.6524 2.51061L94.894 1.54024L95.1357 0.569874C93.0024 0.0386899 90.8615 -0.0415539 88.722 0.33216L88.894 1.31725ZM94.894 1.54024L94.6524 2.51061C96.7341 3.02897 98.8207 3.2724 100.91 3.23862L100.894 2.23875L100.878 1.23888C98.9673 1.26977 97.054 1.04753 95.1357 0.569874L94.894 1.54024ZM100.894 2.23875L100.91 3.23862C102.904 3.20638 104.899 3.19148 106.893 3.19391L106.894 2.19391L106.895 1.19391C104.889 1.19146 102.884 1.20645 100.878 1.23888L100.894 2.23875ZM106.894 2.19391L106.893 3.19391C108.961 3.19644 111.028 2.98898 113.092 2.57244L112.894 1.5922L112.696 0.611957C110.76 1.00259 108.827 1.19628 106.895 1.19391L106.894 2.19391ZM112.894 1.5922L113.092 2.57244C115.026 2.18211 116.958 1.99316 118.888 2.00465L118.894 1.00467L118.9 0.00468493C116.83 -0.0076319 114.762 0.195108 112.696 0.611957L112.894 1.5922ZM118.894 1.00467L118.888 2.00465C120.831 2.01621 122.775 2.19254 124.721 2.5341L124.894 1.54916L125.067 0.564222C123.013 0.203597 120.957 0.0169245 118.9 0.00468493L118.894 1.00467ZM124.894 1.54916L124.721 2.5341C126.756 2.89125 128.791 3.13852 130.827 3.27574L130.894 2.278L130.961 1.28026C128.997 1.14788 127.032 0.909257 125.067 0.564222L124.894 1.54916ZM130.894 2.278L130.827 3.27574C132.837 3.41125 134.848 3.51475 136.859 3.58626L136.894 2.58689L136.93 1.58752C134.94 1.51677 132.951 1.41435 130.961 1.28026L130.894 2.278ZM136.894 2.58689L136.859 3.58626C138.921 3.65959 140.982 3.54135 143.043 3.23195L142.894 2.24304L142.746 1.25413C140.806 1.54543 138.867 1.65643 136.93 1.58752L136.894 2.58689ZM142.894 2.24304L143.043 3.23195C144.964 2.94335 146.884 2.88582 148.804 3.05889L148.894 2.06293L148.984 1.06697C146.904 0.87947 144.824 0.94201 142.746 1.25413L142.894 2.24304ZM148.894 2.06293L148.804 3.05889C150.917 3.24933 153.028 3.0853 155.132 2.56994L154.894 1.59864L154.656 0.627347C152.761 1.0916 150.871 1.2371 148.984 1.06697L148.894 2.06293ZM154.894 1.59864L155.132 2.56994C157.039 2.10297 158.94 1.92377 160.838 2.0296L160.894 1.03115L160.95 0.0327015C158.848 -0.0844301 156.749 0.114701 154.656 0.627347L154.894 1.59864ZM160.894 1.03115L160.838 2.0296C162.828 2.14048 164.817 2.28372 166.806 2.45933L166.894 1.4632L166.982 0.467074C164.971 0.289575 162.96 0.144783 160.95 0.0327015L160.894 1.03115ZM166.894 1.4632L166.806 2.45933C168.853 2.64004 170.901 2.67487 172.948 2.56375L172.894 1.56522L172.84 0.566692C170.887 0.672652 168.935 0.639464 166.982 0.467074L166.894 1.4632ZM172.894 1.56522L172.948 2.56375C174.88 2.45891 176.813 2.55038 178.747 2.83862L178.894 1.84955L179.041 0.860475C176.975 0.552539 174.908 0.454465 172.84 0.566692L172.894 1.56522ZM178.894 1.84955L178.747 2.83862C180.785 3.14245 182.824 3.325 184.864 3.38612L184.894 2.38656L184.924 1.38701C182.964 1.32828 181.003 1.15282 179.041 0.860475L178.894 1.84955ZM184.894 2.38656L184.864 3.38612C186.925 3.44786 188.985 3.32269 191.044 3.01101L190.894 2.02227L190.744 1.03354C188.803 1.32742 186.863 1.44512 184.924 1.38701L184.894 2.38656ZM190.894 2.02227L191.044 3.01101C193.037 2.7092 195.031 2.42728 197.024 2.16527L196.894 1.17379L196.764 0.182321C194.757 0.446042 192.751 0.729781 190.744 1.03354L190.894 2.02227ZM196.894 1.17379L197.024 2.16527C198.871 1.9226 200.721 2.09882 202.586 2.70338L202.894 1.75212L203.202 0.800867C201.067 0.108584 198.917 -0.100747 196.764 0.182321L196.894 1.17379ZM202.894 1.75212L202.586 2.70338C204.723 3.39625 206.874 3.59971 209.03 3.30424L208.894 2.3135L208.758 1.32277C206.914 1.57563 205.065 1.40484 203.202 0.800867L202.894 1.75212ZM208.894 2.3135L209.03 3.30424C210.994 3.03496 212.958 2.87361 214.921 2.82006L214.894 1.82043L214.867 0.820804C212.83 0.876353 210.794 1.04372 208.758 1.32277L208.894 2.3135ZM214.894 1.82043L214.921 2.82006C216.965 2.76432 219.008 2.5746 221.05 2.25113L220.894 1.26344L220.738 0.275757C218.78 0.585842 216.823 0.767448 214.867 0.820804L214.894 1.82043ZM220.894 1.26344L221.05 2.25113C222.954 1.94968 224.855 1.93037 226.757 2.19291L226.894 1.20229L227.031 0.211683C224.933 -0.0777972 222.834 -0.0563424 220.738 0.275757L220.894 1.26344ZM226.894 1.20229L226.757 2.19291C228.817 2.47714 230.878 2.57315 232.939 2.48061L232.894 1.48162L232.849 0.482622C230.91 0.569671 228.971 0.479463 227.031 0.211683L226.894 1.20229ZM232.894 1.48162L232.939 2.48061C234.865 2.39411 236.793 2.51866 238.722 2.85498L238.894 1.86984L239.066 0.88469C236.995 0.523799 234.923 0.389528 232.849 0.482622L232.894 1.48162ZM238.894 1.86984L238.722 2.85498C240.768 3.21158 242.815 3.42184 244.863 3.48545L244.894 2.48594L244.925 1.48642C242.973 1.42578 241.02 1.22531 239.066 0.88469L238.894 1.86984ZM244.894 2.48594L244.863 3.48545C246.888 3.54836 248.914 3.53452 250.939 3.44394L250.894 2.44494L250.849 1.44594C248.875 1.53427 246.9 1.54776 244.925 1.48642L244.894 2.48594ZM250.894 2.44494L250.939 3.44394C252.902 3.35611 254.866 3.37523 256.83 3.50132L256.894 2.50338L256.958 1.50543C254.922 1.3747 252.886 1.35486 250.849 1.44594L250.894 2.44494ZM256.894 2.50338L256.83 3.50132C258.878 3.63281 260.926 3.61707 262.973 3.45412L262.894 2.45727L262.815 1.46042C260.862 1.61578 258.91 1.63078 256.958 1.50543L256.894 2.50338ZM262.894 2.45727L262.973 3.45412C264.983 3.29418 266.993 3.10419 269.003 2.88415L268.894 1.89009L268.785 0.89603C266.795 1.11392 264.805 1.30205 262.815 1.46042L262.894 2.45727ZM268.894 1.89009L269.003 2.88415C271.005 2.66491 273.008 2.43804 275.01 2.20354L274.894 1.21033L274.778 0.217114C272.78 0.451032 270.783 0.677337 268.785 0.89603L268.894 1.89009ZM274.894 1.21033L275.01 2.20354C276.872 1.98554 278.737 2.1489 280.612 2.70006L280.894 1.74063L281.176 0.781206C279.052 0.156876 276.916 -0.0333031 274.778 0.217114L274.894 1.21033ZM280.894 1.74063L280.612 2.70006C282.763 3.33225 284.927 3.43677 287.089 3.00767L286.894 2.0268L286.699 1.04593C284.861 1.41077 283.025 1.32451 281.176 0.781206L280.894 1.74063ZM286.894 2.0268L287.089 3.00767C288.988 2.63065 290.884 2.55228 292.779 2.77115L292.894 1.77775L293.009 0.784353C290.904 0.541348 288.8 0.629009 286.699 1.04593L286.894 2.0268ZM292.894 1.77775L292.779 2.77115C294.833 3.00823 296.886 3.07902 298.941 2.98334L298.894 1.98442L298.848 0.985506C296.902 1.07614 294.956 1.00915 293.009 0.784353L292.894 1.77775ZM298.894 1.98442L298.941 2.98334C300.91 2.8916 302.88 2.88967 304.849 2.97757L304.894 1.97857L304.939 0.979563C302.908 0.888953 300.878 0.890934 298.848 0.985506L298.894 1.98442ZM304.894 1.97857L304.849 2.97757C306.895 3.06888 308.941 3.0193 310.987 2.82891L310.894 1.83321L310.801 0.837518C308.847 1.01944 306.893 1.06677 304.939 0.979563L304.894 1.97857ZM310.894 1.83321L310.987 2.82891C312.902 2.65065 314.817 2.71622 316.734 3.02625L316.894 2.03907L317.054 1.0519C314.971 0.715129 312.886 0.643461 310.801 0.837518L310.894 1.83321ZM316.894 2.03907L316.734 3.02625C318.817 3.36304 320.902 3.43434 322.987 3.23952L322.894 2.24386L322.801 1.24819C320.886 1.42713 318.971 1.36191 317.054 1.0519L316.894 2.03907ZM322.894 2.24386L322.987 3.23952C324.92 3.05892 326.852 3.07428 328.785 3.28567L328.894 2.2916L329.003 1.29752C326.936 1.0715 324.868 1.05503 322.801 1.24819L322.894 2.24386ZM328.894 2.2916L328.785 3.28567C330.833 3.50956 332.881 3.58583 334.929 3.51437L334.894 2.51498L334.859 1.51558C332.907 1.58369 330.955 1.51104 329.003 1.29752L328.894 2.2916ZM334.894 2.51498L334.929 3.51437C336.962 3.44341 338.996 3.26996 341.029 2.99412L340.894 2.0032L340.76 1.01229C338.792 1.27924 336.826 1.44697 334.859 1.51558L334.894 2.51498ZM340.894 2.0032L341.029 2.99412C343.007 2.72567 344.985 2.52338 346.963 2.38722L346.894 1.38958L346.825 0.39194C344.803 0.531151 342.781 0.737944 340.76 1.01229L340.894 2.0032ZM346.894 1.38958L346.963 2.38722C348.942 2.25094 350.922 2.17585 352.901 2.16195L352.894 1.16197L352.887 0.162C350.866 0.176194 348.846 0.252844 346.825 0.39194L346.894 1.38958ZM352.894 1.16197L352.901 2.16195C354.829 2.14841 356.758 2.34208 358.69 2.74403L358.894 1.76499L359.098 0.78595C357.03 0.355785 354.959 0.147443 352.887 0.162L352.894 1.16197ZM358.894 1.76499L358.69 2.74403C360.769 3.17648 362.851 3.35048 364.935 3.26461L364.894 2.26546L364.853 1.2663C362.937 1.34527 361.019 1.18561 359.098 0.78595L358.894 1.76499ZM364.894 2.26546L364.935 3.26461C366.894 3.18389 368.853 3.22412 370.812 3.38533L370.894 2.3887L370.976 1.39207C368.935 1.22413 366.894 1.18219 364.853 1.2663L364.894 2.26546ZM370.894 2.3887L370.812 3.38533C372.871 3.55479 374.931 3.54032 376.99 3.34199L376.894 2.34659L376.798 1.3512C374.857 1.53816 372.917 1.55177 370.976 1.39207L370.894 2.3887ZM376.894 2.34659L376.99 3.34199C378.971 3.15119 380.951 3.01846 382.932 2.94378L382.894 1.94449L382.856 0.945204C380.837 1.02136 378.817 1.15669 376.798 1.3512L376.894 2.34659ZM382.894 1.94449L382.932 2.94378C384.902 2.86947 386.873 2.88194 388.844 2.98118L388.894 1.98245L388.944 0.983711C386.915 0.881518 384.886 0.868681 382.856 0.945204L382.894 1.94449ZM388.894 1.98245L388.844 2.98118C390.857 3.08255 392.87 3.14458 394.883 3.16728L394.894 2.16734L394.905 1.1674C392.918 1.14501 390.931 1.08377 388.944 0.983711L388.894 1.98245ZM394.894 2.16734L394.883 3.16728C396.94 3.19047 398.996 3.03912 401.05 2.71363L400.894 1.72594L400.738 0.73826C398.792 1.04639 396.848 1.18931 394.905 1.1674L394.894 2.16734ZM400.894 1.72594L401.05 2.71363C402.988 2.40671 404.924 2.28717 406.859 2.3545L406.894 1.35511L406.929 0.355713C404.864 0.283875 402.8 0.411554 400.738 0.73826L400.894 1.72594ZM406.894 1.35511L406.859 2.3545C408.844 2.42354 410.828 2.5396 412.812 2.70268L412.894 1.70604L412.976 0.7094C410.96 0.543746 408.945 0.425848 406.929 0.355713L406.894 1.35511ZM412.894 1.70604L412.812 2.70268C414.833 2.8688 416.855 2.96972 418.876 3.00543L418.894 2.00559L418.912 1.00574C416.933 0.970793 414.955 0.872017 412.976 0.7094L412.894 1.70604ZM418.894 2.00559L418.876 3.00543C420.943 3.04193 423.008 2.87475 425.071 2.50458L424.894 1.5203L424.717 0.536017C422.781 0.883553 420.846 1.0399 418.912 1.00574L418.894 2.00559ZM424.894 1.5203L425.071 2.50458C426.941 2.16901 428.809 2.204 430.682 2.61082L430.894 1.63361L431.106 0.656392C428.979 0.194424 426.847 0.153875 424.717 0.536017L424.894 1.5203ZM430.894 1.63361L430.682 2.61082C432.738 3.05747 434.797 3.3191 436.857 3.39491L436.894 2.39559L436.931 1.39626C434.991 1.32489 433.05 1.07853 431.106 0.656392L430.894 1.63361ZM436.894 2.39559L436.857 3.39491C438.954 3.47207 441.049 3.24738 443.137 2.72353L442.894 1.75357L442.651 0.783608C440.739 1.26296 438.834 1.46628 436.931 1.39626L436.894 2.39559ZM442.894 1.75357L443.137 2.72353C445.031 2.24853 446.918 2.09848 448.803 2.26996L448.894 1.27407L448.985 0.27818C446.87 0.0857877 444.757 0.255401 442.651 0.783608L442.894 1.75357ZM448.894 1.27407L448.803 2.26996C450.832 2.45451 452.861 2.55068 454.89 2.55844L454.894 1.55844L454.898 0.558452C452.927 0.550914 450.956 0.457502 448.985 0.27818L448.894 1.27407ZM454.894 1.55844L454.89 2.55844C455.754 2.56174 456.32 2.75106 456.69 3.0224C457.045 3.28346 457.323 3.69779 457.467 4.37565L458.445 4.16826L459.423 3.96087C459.2 2.90651 458.702 2.01975 457.874 1.41087C457.06 0.812276 456.034 0.562799 454.898 0.558452L454.894 1.55844ZM458.445 4.16826L457.467 4.37565C457.826 6.06862 458.106 7.89905 458.307 9.86816L459.302 9.7666L460.297 9.66504C460.089 7.63415 459.799 5.73235 459.423 3.96087L458.445 4.16826ZM459.302 9.7666L458.307 9.86816C458.503 11.7901 458.473 13.7116 458.217 15.6344L459.208 15.7666L460.199 15.8988C460.476 13.8216 460.509 11.7431 460.297 9.66504L459.302 9.7666ZM459.208 15.7666L458.217 15.6344C457.948 17.6527 457.735 19.6712 457.58 21.6898L458.577 21.7666L459.574 21.8434C459.726 19.862 459.935 17.8805 460.199 15.8988L459.208 15.7666ZM458.577 21.7666L457.58 21.6898C457.419 23.7826 457.547 25.8743 457.965 27.9625L458.945 27.7666L459.926 27.5707C459.544 25.6589 459.427 23.7506 459.574 21.8434L458.577 21.7666ZM458.945 27.7666L457.965 27.9625C458.338 29.8301 458.329 31.694 457.94 33.5623L458.918 33.7666L459.897 33.9709C460.342 31.8392 460.352 29.7031 459.926 27.5707L458.945 27.7666ZM458.918 33.7666L457.94 33.5623C457.508 35.6294 457.296 37.6993 457.305 39.7708L458.305 39.7666L459.305 39.7624C459.297 37.8339 459.494 35.9038 459.897 33.9709L458.918 33.7666ZM458.305 39.7666L457.305 39.7708C457.314 41.8276 457.497 43.8834 457.853 45.9377L458.839 45.7666L459.824 45.5955C459.486 43.6498 459.313 41.7056 459.305 39.7624L458.305 39.7666ZM458.839 45.7666L457.853 45.9377C458.188 47.8635 458.3 49.7871 458.191 51.7098L459.189 51.7666L460.188 51.8234C460.306 49.7461 460.184 47.6697 459.824 45.5955L458.839 45.7666ZM459.189 51.7666L458.191 51.7098C458.078 53.6858 457.895 55.662 457.639 57.6385L458.631 57.7666L459.623 57.8947C459.884 55.8712 460.072 53.8474 460.188 51.8234L459.189 51.7666ZM458.631 57.7666L457.639 57.6385C457.376 59.6805 457.243 61.7232 457.242 63.7662L458.242 63.7666L459.242 63.767C459.243 61.81 459.37 59.8527 459.623 57.8947L458.631 57.7666ZM458.242 63.7666L457.242 63.7662C457.242 65.7578 457.216 67.7495 457.165 69.7411L458.165 69.7666L459.164 69.7921C459.216 67.7837 459.242 65.7754 459.242 63.767L458.242 63.7666ZM458.165 69.7666L457.165 69.7411C457.113 71.7843 457.193 73.8273 457.405 75.8698L458.4 75.7666L459.394 75.6634C459.191 73.7059 459.115 71.7489 459.164 69.7921L458.165 69.7666ZM458.4 75.7666L457.405 75.8698C457.609 77.8348 457.708 79.7994 457.702 81.7637L458.702 81.7666L459.702 81.7695C459.708 79.7338 459.605 77.6984 459.394 75.6634L458.4 75.7666ZM458.702 81.7666L457.702 81.7637C457.696 83.7941 457.783 85.8244 457.962 87.8544L458.958 87.7666L459.954 87.6788C459.781 85.7088 459.697 83.7391 459.702 81.7695L458.702 81.7666ZM458.958 87.7666L457.962 87.8544C458.138 89.8453 458.286 91.8362 458.406 93.8271L459.404 93.7666L460.402 93.7061C460.281 91.697 460.131 89.6879 459.954 87.6788L458.958 87.7666ZM459.404 93.7666L458.406 93.8271C458.526 95.8003 458.566 97.7735 458.526 99.7467L459.526 99.7666L460.526 99.7865C460.566 97.7597 460.525 95.7329 460.402 93.7061L459.404 93.7666ZM459.526 99.7666L458.526 99.7467C458.487 101.706 458.328 103.665 458.048 105.625L459.038 105.767L460.027 105.908C460.319 103.868 460.485 101.828 460.526 99.7865L459.526 99.7666ZM459.038 105.767L458.048 105.625C457.76 107.639 457.515 109.653 457.315 111.668L458.31 111.767L459.305 111.865C459.503 109.88 459.743 107.894 460.027 105.908L459.038 105.767ZM458.31 111.767L457.315 111.668C457.111 113.728 457.093 115.789 457.264 117.849L458.26 117.767L459.257 117.684C459.097 115.745 459.113 113.805 459.305 111.865L458.31 111.767ZM458.26 117.767L457.264 117.849C457.432 119.891 457.73 121.931 458.155 123.971L459.134 123.767L460.113 123.562C459.704 121.602 459.419 119.643 459.257 117.684L458.26 117.767ZM459.134 123.767L458.155 123.971C458.546 125.844 458.567 127.712 458.219 129.584L459.202 129.767L460.185 129.949C460.581 127.821 460.556 125.689 460.113 123.562L459.134 123.767ZM459.202 129.767L458.219 129.584C457.824 131.707 457.832 133.833 458.241 135.956L459.223 135.767L460.205 135.577C459.843 133.7 459.836 131.826 460.185 129.949L459.202 129.767ZM459.223 135.767L458.241 135.956C458.598 137.808 458.537 139.657 458.054 141.515L459.022 141.767L459.99 142.018C460.547 139.876 460.619 137.726 460.205 135.577L459.223 135.767ZM459.022 141.767L458.054 141.515C457.518 143.579 457.197 145.646 457.093 147.717L458.092 147.767L459.09 147.817C459.187 145.887 459.486 143.954 459.99 142.018L459.022 141.767ZM458.092 147.767L457.093 147.717C456.99 149.774 457.063 151.831 457.311 153.887L458.304 153.767L459.297 153.647C459.062 151.703 458.993 149.76 459.09 147.817L458.092 147.767ZM458.304 153.767L457.311 153.887C457.552 155.876 457.758 157.864 457.931 159.853L458.927 159.767L459.924 159.68C459.749 157.669 459.54 155.658 459.297 153.647L458.304 153.767ZM458.927 159.767L457.931 159.853C458.105 161.859 458.297 163.865 458.506 165.871L459.501 165.767L460.496 165.663C460.287 163.668 460.097 161.674 459.924 159.68L458.927 159.767ZM459.501 165.767L458.506 165.871C458.705 167.77 458.617 169.669 458.24 171.573L459.221 171.767L460.202 171.961C460.617 169.864 460.715 167.764 460.496 165.663L459.501 165.767ZM459.221 171.767L458.24 171.573C457.826 173.665 457.715 175.761 457.908 177.858L458.904 177.767L459.9 177.675C459.724 175.772 459.825 173.868 460.202 171.961L459.221 171.767ZM458.904 177.767L457.908 177.858C458.088 179.813 458.133 181.767 458.042 183.72L459.041 183.767L460.04 183.813C460.135 181.767 460.088 179.721 459.9 177.675L458.904 177.767ZM459.041 183.767L458.042 183.72C457.949 185.746 457.932 187.771 457.992 189.796L458.991 189.767L459.991 189.737C459.933 187.762 459.949 185.788 460.04 183.813L459.041 183.767ZM458.991 189.767L457.992 189.796C458.049 191.744 457.955 193.692 457.71 195.641L458.702 195.767L459.694 195.892C459.952 193.841 460.052 191.789 459.991 189.737L458.991 189.767ZM458.702 195.767L457.71 195.641C457.449 197.711 457.407 199.782 457.585 201.852L458.581 201.767L459.577 201.681C459.412 199.752 459.45 197.822 459.694 195.892L458.702 195.767ZM458.581 201.767L457.585 201.852C457.753 203.813 457.806 205.774 457.745 207.735L458.745 207.767L459.744 207.798C459.808 205.759 459.752 203.72 459.577 201.681L458.581 201.767ZM458.745 207.767L457.745 207.735C457.683 209.732 457.611 211.729 457.53 213.726L458.53 213.767L459.529 213.807C459.61 211.804 459.681 209.801 459.744 207.798L458.745 207.767ZM458.53 213.767L457.53 213.726C457.448 215.777 457.522 217.828 457.753 219.879L458.747 219.767L459.74 219.655C459.521 217.705 459.45 215.756 459.529 213.807L458.53 213.767ZM458.747 219.767L457.753 219.879C457.972 221.82 458.017 223.76 457.889 225.701L458.886 225.767L459.884 225.833C460.02 223.773 459.972 221.713 459.74 219.655L458.747 219.767ZM458.886 225.767L457.889 225.701C457.754 227.731 457.713 229.762 457.765 231.792L458.765 231.767L459.765 231.741C459.714 229.772 459.754 227.802 459.884 225.833L458.886 225.767ZM458.765 231.767L457.765 231.792C457.815 233.743 457.723 235.695 457.489 237.647L458.481 237.767L459.474 237.886C459.72 235.838 459.817 233.79 459.765 231.741L458.765 231.767ZM458.481 237.767L457.489 237.647C457.235 239.755 457.324 241.863 457.754 243.967L458.734 243.767L459.713 243.567C459.326 241.67 459.247 239.778 459.474 237.886L458.481 237.767ZM458.734 243.767L457.754 243.967C458.142 245.87 458.241 247.769 458.051 249.667L459.046 249.767L460.041 249.866C460.251 247.764 460.142 245.664 459.713 243.567L458.734 243.767ZM459.046 249.767L458.051 249.667C457.846 251.714 457.789 253.762 457.878 255.81L458.878 255.767L459.877 255.723C459.791 253.771 459.846 251.819 460.041 249.866L459.046 249.767ZM458.878 255.767L457.878 255.81C457.966 257.801 458.024 259.791 458.054 261.781L459.053 261.767L460.053 261.752C460.023 259.742 459.965 257.732 459.877 255.723L458.878 255.767ZM459.053 261.767L458.054 261.781C458.083 263.764 458.062 265.747 457.99 267.73L458.989 267.767L459.989 267.803C460.062 265.786 460.083 263.769 460.053 261.752L459.053 261.767ZM458.989 267.767L457.99 267.73C457.918 269.72 457.814 271.709 457.677 273.698L458.675 273.767L459.672 273.835C459.811 271.824 459.916 269.814 459.989 267.803L458.989 267.767ZM458.675 273.767L457.677 273.698C457.533 275.798 457.7 277.895 458.176 279.988L459.151 279.767L460.126 279.545C459.692 277.638 459.542 275.736 459.672 273.835L458.675 273.767ZM459.151 279.767L458.176 279.988C458.604 281.872 458.687 283.75 458.425 285.629L459.416 285.767L460.406 285.904C460.701 283.783 460.607 281.661 460.126 279.545L459.151 279.767ZM459.416 285.767L458.425 285.629C458.148 287.619 457.841 289.609 457.505 291.6L458.491 291.767L459.477 291.933C459.817 289.924 460.126 287.914 460.406 285.904L459.416 285.767ZM458.491 291.767L457.505 291.6C457.145 293.722 457.183 295.847 457.617 297.967L458.597 297.767L459.577 297.566C459.192 295.686 459.159 293.811 459.477 291.933L458.491 291.767ZM458.597 297.767L457.617 297.967C458.015 299.913 458.245 301.856 458.306 303.798L459.305 303.767L460.305 303.735C460.24 301.677 459.997 299.621 459.577 297.566L458.597 297.767ZM459.305 303.767L458.306 303.798C458.366 305.727 458.224 307.658 457.878 309.59L458.862 309.767L459.847 309.943C460.217 307.875 460.37 305.806 460.305 303.735L459.305 303.767ZM458.862 309.767L457.878 309.59C457.496 311.722 457.545 313.857 458.022 315.985L458.998 315.767L459.974 315.548C459.554 313.676 459.512 311.811 459.847 309.943L458.862 309.767ZM458.998 315.767L458.022 315.985C458.454 317.914 458.664 319.838 458.653 321.761L459.653 321.767L460.653 321.772C460.665 319.695 460.438 317.62 459.974 315.548L458.998 315.767ZM459.653 321.767L458.653 321.761C458.643 323.667 458.367 325.577 457.822 327.493L458.784 327.767L459.746 328.04C460.338 325.956 460.642 323.866 460.653 321.772L459.653 321.767ZM458.784 327.767L457.822 327.493C457.219 329.613 457.033 331.744 457.269 333.877L458.263 333.767L459.257 333.657C459.05 331.79 459.211 329.92 459.746 328.04L458.784 327.767ZM458.263 333.767L457.269 333.877C457.492 335.891 457.76 337.906 458.073 339.92L459.061 339.767L460.049 339.613C459.741 337.628 459.477 335.642 459.257 333.657L458.263 333.767ZM459.061 339.767L458.073 339.92C458.368 341.82 458.371 343.717 458.083 345.617L459.071 345.767L460.06 345.917C460.379 343.816 460.375 341.714 460.049 339.613L459.061 339.767ZM459.071 345.767L458.083 345.617C457.764 347.717 457.768 349.82 458.096 351.921L459.084 351.767L460.072 351.612C459.776 349.713 459.772 347.816 460.06 345.917L459.071 345.767ZM459.084 351.767L458.096 351.921C458.399 353.862 458.525 355.802 458.476 357.741L459.476 357.767L460.476 357.792C460.528 355.731 460.393 353.671 460.072 351.612L459.084 351.767ZM459.476 357.767L458.476 357.741C458.426 359.742 458.379 361.744 458.335 363.745L459.335 363.767L460.334 363.788C460.378 361.79 460.425 359.791 460.476 357.792L459.476 357.767ZM459.335 363.767L458.335 363.745C458.292 365.689 458.089 367.635 457.725 369.583L458.708 369.767L459.691 369.951C460.075 367.898 460.289 365.844 460.334 363.788L459.335 363.767ZM458.708 369.767L457.725 369.583C457.341 371.637 457.13 373.692 457.093 375.749L458.093 375.767L459.093 375.784C459.127 373.841 459.327 371.897 459.691 369.951L458.708 369.767ZM458.093 375.767L457.093 375.749C457.057 377.792 457.154 379.836 457.384 381.879L458.378 381.767L459.371 381.655C459.151 379.697 459.058 377.741 459.093 375.784L458.093 375.767ZM458.378 381.767L457.384 381.879C457.605 383.837 457.701 385.795 457.673 387.752L458.672 387.767L459.672 387.781C459.702 385.739 459.601 383.696 459.371 381.655L458.378 381.767ZM458.672 387.767L457.673 387.752C457.643 389.798 457.753 391.843 458.003 393.888L458.995 393.767L459.988 393.645C459.749 391.69 459.644 389.735 459.672 387.781L458.672 387.767ZM458.995 393.767L458.003 393.888C458.238 395.818 458.27 397.748 458.099 399.678L459.095 399.767L460.091 399.855C460.275 397.785 460.241 395.715 459.988 393.645L458.995 393.767ZM459.095 399.767L458.099 399.678C457.922 401.66 457.691 403.642 457.405 405.624L458.394 405.767L459.384 405.91C459.676 403.892 459.911 401.874 460.091 399.855L459.095 399.767ZM458.394 405.767L457.405 405.624C457.102 407.721 457.11 409.82 457.428 411.917L458.417 411.767L459.405 411.616C459.116 409.713 459.109 407.812 459.384 405.91L458.394 405.767ZM458.417 411.767L457.428 411.917C457.72 413.839 457.781 415.759 457.613 417.679L458.609 417.767L459.605 417.854C459.788 415.774 459.721 413.694 459.405 411.616L458.417 411.767ZM458.609 417.767L457.613 417.679C457.428 419.78 457.561 421.88 458.008 423.975L458.986 423.767L459.964 423.558C459.557 421.653 459.438 419.753 459.605 417.854L458.609 417.767ZM458.986 423.767L458.008 423.975C458.409 425.858 458.464 427.735 458.173 429.614L459.161 429.767L460.15 429.92C460.478 427.798 460.415 425.676 459.964 423.558L458.986 423.767ZM459.161 429.767L458.173 429.614C457.854 431.674 457.727 433.736 457.793 435.798L458.792 435.767L459.792 435.735C459.73 433.797 459.849 431.859 460.15 429.92L459.161 429.767ZM458.792 435.767L457.793 435.798C457.855 437.762 457.81 439.726 457.659 441.69L458.656 441.767L459.653 441.843C459.81 439.807 459.856 437.771 459.792 435.735L458.792 435.767ZM458.656 441.767L457.659 441.69C457.505 443.692 457.358 445.694 457.216 447.696L458.214 447.767L459.211 447.837C459.352 445.839 459.5 443.841 459.653 441.843L458.656 441.767ZM458.214 447.767L457.216 447.696C457.068 449.797 457.235 451.896 457.714 453.99L458.689 453.767L459.664 453.543C459.227 451.637 459.077 449.736 459.211 447.837L458.214 447.767ZM458.689 453.767L457.714 453.99C458.15 455.891 458.286 457.788 458.126 459.682L459.123 459.767L460.119 459.851C460.297 457.745 460.144 455.642 459.664 453.543L458.689 453.767ZM459.123 459.767L458.126 459.682C457.952 461.751 457.99 463.819 458.24 465.887L459.233 465.767L460.226 465.646C459.992 463.714 459.956 461.782 460.119 459.851L459.123 459.767ZM459.233 465.767L458.24 465.887C458.469 467.777 458.388 469.668 457.993 471.563L458.972 471.767L459.952 471.97C460.389 469.865 460.481 467.756 460.226 465.646L459.233 465.767ZM458.972 471.767L457.993 471.563C457.566 473.619 457.32 475.677 457.257 477.736L458.256 477.767L459.256 477.797C459.315 475.857 459.547 473.915 459.952 471.97L458.972 471.767ZM458.256 477.767L457.257 477.736C457.194 479.767 457.228 481.799 457.356 483.83L458.354 483.767L459.352 483.703C459.228 481.735 459.195 479.766 459.256 477.797L458.256 477.767ZM458.354 483.767L457.356 483.83C457.481 485.798 457.511 487.766 457.447 489.734L458.446 489.767L459.446 489.799C459.512 487.767 459.481 485.735 459.352 483.703L458.354 483.767ZM458.446 489.767L457.447 489.734C457.378 491.809 457.544 493.884 457.943 495.956L458.925 495.767L459.907 495.578C459.536 493.649 459.382 491.724 459.446 489.799L458.446 489.767ZM458.925 495.767L457.943 495.956C458.319 497.91 458.554 499.862 458.646 501.814L459.645 501.767L460.644 501.719C460.547 499.671 460.301 497.624 459.907 495.578L458.925 495.767ZM459.645 501.767L458.646 501.814C458.74 503.787 458.753 505.76 458.687 507.733L459.687 507.767L460.686 507.8C460.754 505.773 460.74 503.746 460.644 501.719L459.645 501.767ZM459.687 507.767L458.687 507.733C458.622 509.665 458.362 511.599 457.904 513.537L458.878 513.767L459.851 513.996C460.338 511.934 460.617 509.868 460.686 507.8L459.687 507.767ZM458.878 513.767L457.904 513.537C457.396 515.688 457.398 517.846 457.909 519.998L458.882 519.767L459.855 519.536C459.416 517.687 459.414 515.845 459.851 513.996L458.878 513.767ZM458.882 519.767L457.909 519.998C458.348 521.847 458.351 523.689 457.917 525.538L458.891 525.767L459.864 525.995C460.369 523.844 460.366 521.686 459.855 519.536L458.882 519.767ZM458.891 525.767L457.917 525.538C457.427 527.628 457.236 529.723 457.347 531.819L458.346 531.767L459.344 531.714C459.243 529.811 459.416 527.905 459.864 525.995L458.891 525.767ZM458.346 531.767L457.347 531.819C457.451 533.777 457.429 535.734 457.281 537.692L458.278 537.767L459.276 537.842C459.43 535.799 459.452 533.756 459.344 531.714L458.346 531.767ZM458.278 537.767L457.281 537.692C457.126 539.754 457.164 541.816 457.395 543.878L458.389 543.767L459.383 543.655C459.165 541.717 459.13 539.779 459.276 537.842L458.278 537.767ZM458.389 543.767L457.395 543.878C457.622 545.896 457.904 547.914 458.243 549.932L459.229 549.767L460.215 549.601C459.883 547.619 459.605 545.637 459.383 543.655L458.389 543.767ZM459.229 549.767L458.243 549.932C458.568 551.872 458.714 553.811 458.68 555.749L459.68 555.767L460.679 555.784C460.716 553.722 460.561 551.661 460.215 549.601L459.229 549.767ZM459.68 555.767L458.68 555.749C458.665 556.588 458.457 557.2 458.121 557.652C457.785 558.104 457.257 558.482 456.453 558.742L456.76 559.693L457.068 560.645C458.175 560.287 459.089 559.702 459.726 558.845C460.363 557.988 460.659 556.945 460.679 555.784L459.68 555.767ZM456.76 559.693L456.453 558.742C454.705 559.307 452.921 559.414 451.084 559.058L450.894 560.04L450.704 561.022C452.867 561.44 454.994 561.316 457.068 560.645L456.76 559.693ZM450.894 560.04L451.084 559.058C448.97 558.649 446.852 558.614 444.735 558.954L444.894 559.942L445.053 560.929C446.936 560.626 448.818 560.657 450.704 561.022L450.894 560.04ZM444.894 559.942L444.735 558.954C442.835 559.26 440.938 559.273 439.038 558.996L438.894 559.986L438.75 560.975C440.85 561.282 442.953 561.266 445.053 560.929L444.894 559.942ZM438.894 559.986L439.038 558.996C436.996 558.698 434.953 558.533 432.91 558.501L432.894 559.501L432.878 560.501C434.835 560.531 436.792 560.689 438.75 560.975L438.894 559.986ZM432.894 559.501L432.91 558.501C430.905 558.47 428.899 558.454 426.894 558.453L426.894 559.453L426.894 560.453C428.889 560.454 430.884 560.469 432.878 560.501L432.894 559.501ZM426.894 559.453L426.894 558.453C424.861 558.453 422.828 558.553 420.796 558.753L420.894 559.749L420.992 560.744C422.96 560.55 424.927 560.453 426.894 560.453L426.894 559.453ZM420.894 559.749L420.796 558.753C418.868 558.943 416.94 558.925 415.011 558.697L414.894 559.69L414.777 560.683C416.848 560.928 418.92 560.948 420.992 560.744L420.894 559.749ZM414.894 559.69L415.011 558.697C412.96 558.455 410.909 558.372 408.857 558.449L408.894 559.448L408.932 560.447C410.88 560.374 412.828 560.453 414.777 560.683L414.894 559.69ZM408.894 559.448L408.857 558.449C406.893 558.522 404.93 558.487 402.967 558.344L402.894 559.341L402.821 560.339C404.858 560.487 406.895 560.524 408.932 560.447L408.894 559.448ZM402.894 559.341L402.967 558.344C400.94 558.196 398.912 558.131 396.885 558.149L396.894 559.149L396.903 560.149C398.876 560.131 400.848 560.194 402.821 560.339L402.894 559.341ZM396.894 559.149L396.885 558.149C394.896 558.167 392.907 558.152 390.918 558.105L390.894 559.104L390.87 560.104C392.881 560.152 394.892 560.167 396.903 560.149L396.894 559.149ZM390.894 559.104L390.918 558.105C388.812 558.054 386.711 558.333 384.617 558.937L384.894 559.898L385.171 560.859C387.077 560.309 388.976 560.059 390.87 560.104L390.894 559.104ZM384.894 559.898L384.617 558.937C382.748 559.476 380.891 559.611 379.034 559.347L378.894 560.338L378.754 561.328C380.898 561.632 383.04 561.473 385.171 560.859L384.894 559.898ZM378.894 560.338L379.034 559.347C376.955 559.052 374.875 559.009 372.794 559.218L372.894 560.213L372.994 561.208C374.913 561.015 376.833 561.055 378.754 561.328L378.894 560.338ZM372.894 560.213L372.794 559.218C370.873 559.41 368.952 559.375 367.029 559.112L366.894 560.103L366.759 561.094C368.836 561.378 370.915 561.416 372.994 561.208L372.894 560.213ZM366.894 560.103L367.029 559.112C365 558.835 362.971 558.649 360.941 558.554L360.894 559.553L360.847 560.552C362.817 560.644 364.788 560.825 366.759 561.094L366.894 560.103ZM360.894 559.553L360.941 558.554C358.867 558.457 356.794 558.588 354.724 558.945L354.894 559.931L355.064 560.916C356.994 560.583 358.921 560.461 360.847 560.552L360.894 559.553ZM354.894 559.931L354.724 558.945C352.811 559.276 350.901 559.348 348.991 559.161L348.894 560.157L348.797 561.152C350.887 561.356 352.977 561.277 355.064 560.916L354.894 559.931ZM348.894 560.157L348.991 559.161C346.938 558.961 344.884 558.926 342.83 559.057L342.894 560.055L342.958 561.053C344.904 560.929 346.85 560.962 348.797 561.152L348.894 560.157ZM342.894 560.055L342.83 559.057C340.895 559.181 338.96 559.116 337.024 558.862L336.894 559.853L336.764 560.845C338.828 561.115 340.893 561.185 342.958 561.053L342.894 560.055ZM336.894 559.853L337.024 558.862C334.911 558.585 332.797 558.669 330.688 559.112L330.894 560.091L331.1 561.07C332.991 560.672 334.877 560.598 336.764 560.845L336.894 559.853ZM330.894 560.091L330.688 559.112C328.818 559.506 326.952 559.523 325.083 559.164L324.894 560.146L324.706 561.128C326.836 561.537 328.97 561.517 331.1 561.07L330.894 560.091ZM324.894 560.146L325.083 559.164C323.019 558.768 320.954 558.577 318.887 558.592L318.894 559.592L318.901 560.592C320.834 560.578 322.769 560.756 324.706 561.128L324.894 560.146ZM318.894 559.592L318.887 558.592C316.848 558.607 314.809 558.741 312.771 558.994L312.894 559.986L313.017 560.979C314.979 560.735 316.94 560.606 318.901 560.592L318.894 559.592ZM312.894 559.986L312.771 558.994C310.807 559.237 308.844 559.372 306.881 559.398L306.894 560.398L306.907 561.398C308.944 561.371 310.981 561.231 313.017 560.979L312.894 559.986ZM306.894 560.398L306.881 559.398C304.895 559.424 302.908 559.409 300.922 559.354L300.894 560.354L300.866 561.353C302.88 561.409 304.894 561.424 306.907 561.398L306.894 560.398ZM300.894 560.354L300.922 559.354C298.95 559.299 296.978 559.161 295.006 558.938L294.894 559.932L294.782 560.925C296.81 561.154 298.838 561.297 300.866 561.353L300.894 560.354ZM294.894 559.932L295.006 558.938C292.928 558.703 290.85 558.714 288.772 558.969L288.894 559.961L289.016 560.954C290.938 560.718 292.86 560.708 294.782 560.925L294.894 559.932ZM288.894 559.961L288.772 558.969C286.841 559.206 284.912 559.239 282.982 559.069L282.894 560.065L282.806 561.062C284.876 561.244 286.947 561.208 289.016 560.954L288.894 559.961ZM282.894 560.065L282.982 559.069C280.903 558.886 278.823 558.951 276.746 559.262L276.894 560.251L277.042 561.24C278.965 560.952 280.886 560.892 282.806 561.062L282.894 560.065ZM276.894 560.251L276.746 559.262C274.811 559.552 272.878 559.647 270.945 559.549L270.894 560.548L270.843 561.547C272.91 561.652 274.977 561.549 277.042 561.24L276.894 560.251ZM270.894 560.548L270.945 559.549C268.958 559.448 266.97 559.309 264.983 559.131L264.894 560.127L264.805 561.123C266.818 561.303 268.83 561.444 270.843 561.547L270.894 560.548ZM264.894 560.127L264.983 559.131C262.913 558.945 260.843 558.978 258.774 559.228L258.894 560.221L259.014 561.213C260.945 560.98 262.875 560.95 264.805 561.123L264.894 560.127ZM258.894 560.221L258.774 559.228C256.835 559.462 254.897 559.516 252.959 559.389L252.894 560.387L252.829 561.385C254.891 561.52 256.953 561.462 259.014 561.213L258.894 560.221ZM252.894 560.387L252.959 559.389C250.975 559.26 248.99 559.084 247.005 558.863L246.894 559.856L246.783 560.85C248.798 561.075 250.814 561.254 252.829 561.385L252.894 560.387ZM246.894 559.856L247.005 558.863C244.947 558.633 242.889 558.584 240.83 558.715L240.894 559.713L240.958 560.711C242.899 560.587 244.841 560.633 246.783 560.85L246.894 559.856ZM240.894 559.713L240.83 558.715C238.808 558.845 236.786 559.041 234.765 559.305L234.894 560.296L235.023 561.288C237.002 561.03 238.98 560.838 240.958 560.711L240.894 559.713ZM234.894 560.296L234.765 559.305C232.885 559.55 231.005 559.456 229.118 559.022L228.894 559.996L228.67 560.971C230.783 561.457 232.903 561.564 235.023 561.288L234.894 560.296ZM228.894 559.996L229.118 559.022C227.02 558.538 224.917 558.382 222.812 558.555L222.894 559.551L222.976 560.548C224.871 560.393 226.768 560.533 228.67 560.971L228.894 559.996ZM222.894 559.551L222.812 558.555C220.824 558.718 218.836 558.845 216.849 558.935L216.894 559.934L216.94 560.933C218.952 560.842 220.964 560.713 222.976 560.548L222.894 559.551ZM216.894 559.934L216.849 558.935C214.922 559.023 212.995 558.9 211.065 558.565L210.894 559.55L210.723 560.535C212.793 560.895 214.866 561.028 216.94 560.933L216.894 559.934ZM210.894 559.55L211.065 558.565C208.983 558.203 206.897 558.107 204.812 558.28L204.894 559.276L204.976 560.273C206.891 560.115 208.806 560.202 210.723 560.535L210.894 559.55ZM204.894 559.276L204.812 558.28C202.86 558.441 200.909 558.46 198.957 558.336L198.894 559.334L198.831 560.332C200.879 560.462 202.928 560.443 204.976 560.273L204.894 559.276ZM198.894 559.334L198.957 558.336C196.904 558.206 194.85 558.241 192.796 558.442L192.894 559.437L192.992 560.433C194.938 560.242 196.884 560.208 198.831 560.332L198.894 559.334ZM192.894 559.437L192.796 558.442C190.876 558.63 188.955 558.59 187.033 558.32L186.894 559.31L186.755 560.3C188.833 560.592 190.912 560.637 192.992 560.433L192.894 559.437ZM186.894 559.31L187.033 558.32C184.971 558.03 182.907 557.937 180.843 558.042L180.894 559.041L180.945 560.04C182.881 559.941 184.817 560.028 186.755 560.3L186.894 559.31ZM180.894 559.041L180.843 558.042C178.795 558.147 176.747 558.4 174.701 558.802L174.894 559.783L175.087 560.764C177.041 560.381 178.993 560.139 180.945 560.04L180.894 559.041ZM174.894 559.783L174.701 558.802C172.754 559.184 170.808 559.405 168.863 559.466L168.894 560.465L168.925 561.465C170.98 561.401 173.034 561.167 175.087 560.764L174.894 559.783ZM168.894 560.465L168.863 559.466C166.935 559.526 165.005 559.38 163.073 559.028L162.894 560.012L162.715 560.996C164.783 561.373 166.854 561.529 168.925 561.465L168.894 560.465ZM162.894 560.012L163.073 559.028C160.972 558.645 158.867 558.593 156.763 558.871L156.894 559.863L157.025 560.854C158.921 560.603 160.816 560.65 162.715 560.996L162.894 560.012ZM156.894 559.863L156.763 558.871C154.821 559.129 152.88 559.213 150.939 559.126L150.894 560.125L150.849 561.124C152.908 561.217 154.967 561.127 157.025 560.854L156.894 559.863ZM150.894 560.125L150.939 559.126C148.938 559.035 146.937 558.948 144.936 558.863L144.894 559.863L144.852 560.862C146.851 560.946 148.85 561.033 150.849 561.124L150.894 560.125ZM144.894 559.863L144.936 558.863C142.935 558.779 140.934 558.698 138.933 558.619L138.894 559.619L138.855 560.618C140.854 560.696 142.853 560.777 144.852 560.862L144.894 559.863ZM138.894 559.619L138.933 558.619C136.854 558.538 134.776 558.702 132.701 559.11L132.894 560.091L133.087 561.072C135.012 560.694 136.934 560.543 138.855 560.618L138.894 559.619ZM132.894 560.091L132.701 559.11C130.827 559.478 128.956 559.483 127.082 559.125L126.894 560.108L126.706 561.09C128.832 561.496 130.961 561.49 133.087 561.072L132.894 560.091ZM126.894 560.108L127.082 559.125C125.021 558.732 122.958 558.535 120.894 558.535L120.894 559.535L120.894 560.535C122.83 560.535 124.767 560.72 126.706 561.09L126.894 560.108ZM120.894 559.535L120.894 558.535C118.906 558.535 116.919 558.498 114.931 558.425L114.894 559.424L114.857 560.423C116.869 560.498 118.882 560.535 120.894 560.535L120.894 559.535ZM114.894 559.424L114.931 558.425C112.862 558.348 110.793 558.485 108.727 558.835L108.894 559.821L109.061 560.807C110.995 560.479 112.926 560.352 114.857 560.423L114.894 559.424ZM108.894 559.821L108.727 558.835C106.786 559.164 104.846 559.316 102.907 559.291L102.894 560.291L102.881 561.291C104.942 561.317 107.003 561.156 109.061 560.807L108.894 559.821ZM102.894 560.291L102.907 559.291C100.894 559.265 98.8813 559.277 96.8685 559.329L96.894 560.328L96.9195 561.328C98.9068 561.277 100.894 561.265 102.881 561.291L102.894 560.291ZM96.894 560.328L96.8685 559.329C94.9378 559.378 93.006 559.228 91.0721 558.878L90.894 559.862L90.716 560.846C92.782 561.22 94.8502 561.381 96.9195 561.328L96.894 560.328ZM90.894 559.862L91.0721 558.878C89.0292 558.508 86.9852 558.276 84.9403 558.181L84.894 559.18L84.8478 560.179C86.8029 560.27 88.7589 560.492 90.716 560.846L90.894 559.862ZM84.894 559.18L84.9403 558.181C82.8937 558.087 80.8472 558.135 78.8011 558.326L78.8941 559.321L78.987 560.317C80.9409 560.135 82.8944 560.089 84.8478 560.179L84.894 559.18ZM78.8941 559.321L78.8011 558.326C76.7752 558.515 74.7496 558.784 72.7244 559.132L72.894 560.118L73.0636 561.103C75.0385 560.763 77.0129 560.501 78.987 560.317L78.8941 559.321ZM72.894 560.118L72.7244 559.132C70.7796 559.467 68.8363 559.634 66.8939 559.635L66.894 560.635L66.8942 561.635C68.9518 561.634 71.0085 561.457 73.0636 561.103L72.894 560.118ZM66.894 560.635L66.8939 559.635C64.8883 559.635 62.8827 559.652 60.8771 559.686L60.894 560.686L60.9109 561.685C62.9054 561.652 64.8998 561.635 66.8942 561.635L66.894 560.635ZM60.894 560.686L60.8771 559.686C58.9164 559.719 56.9556 559.637 54.9943 559.439L54.894 560.434L54.7938 561.429C56.8325 561.634 58.8716 561.72 60.9109 561.685L60.894 560.686ZM54.894 560.434L54.9943 559.439C52.9675 559.235 50.9404 559.113 48.9131 559.075L48.8941 560.074L48.875 561.074C50.8477 561.112 52.8206 561.23 54.7938 561.429L54.894 560.434ZM48.8941 560.074L48.9131 559.075C46.9539 559.037 44.9942 558.88 43.0338 558.603L42.894 559.594L42.7543 560.584C44.7939 560.872 46.8342 561.035 48.875 561.074L48.8941 560.074ZM42.894 559.594L43.0338 558.603C40.9877 558.315 38.9408 558.171 36.8933 558.172L36.894 559.172L36.8948 560.172C38.8473 560.171 40.8004 560.308 42.7543 560.584L42.894 559.594ZM36.894 559.172L36.8933 558.172C34.8747 558.174 32.8562 558.232 30.8378 558.345L30.894 559.344L30.9503 560.342C32.9318 560.231 34.9133 560.174 36.8948 560.172L36.894 559.172ZM30.894 559.344L30.8378 558.345C28.8264 558.459 26.8151 558.607 24.8038 558.789L24.894 559.785L24.9843 560.781C26.973 560.6 28.9617 560.454 30.9503 560.342L30.894 559.344ZM24.894 559.785L24.8038 558.789C22.8543 558.965 20.9052 558.993 18.9561 558.872L18.8941 559.87L18.832 560.868C20.8829 560.996 22.9338 560.966 24.9843 560.781L24.894 559.785ZM18.8941 559.87L18.9561 558.872C16.9524 558.747 14.9487 558.634 12.9449 558.532L12.894 559.531L12.8431 560.529C14.8394 560.631 16.8357 560.744 18.832 560.868L18.8941 559.87ZM12.894 559.531L12.9449 558.532C10.8533 558.425 8.76348 558.604 6.67789 559.066L6.89404 560.042L7.11019 561.018C9.0246 560.595 10.9348 560.432 12.8431 560.529L12.894 559.531ZM6.89404 560.042L6.67789 559.066C5.81681 559.256 5.17808 559.2 4.70014 559C4.23261 558.805 3.81078 558.427 3.4576 557.765L2.57545 558.236L1.6933 558.707C2.21918 559.692 2.95664 560.439 3.92864 560.845C4.89024 561.247 5.97126 561.271 7.11019 561.018L6.89404 560.042ZM2.57545 558.236L3.4576 557.765C2.70095 556.348 2.49442 554.77 2.88033 552.977L1.90272 552.767L0.925122 552.556C0.449896 554.764 0.691853 556.832 1.6933 558.707L2.57545 558.236ZM1.90272 552.767L2.88033 552.977C3.34529 550.817 3.27918 548.654 2.68575 546.501L1.7217 546.767L0.757644 547.032C1.26671 548.879 1.32129 550.716 0.925122 552.556L1.90272 552.767ZM1.7217 546.767L2.68575 546.501C2.18516 544.685 2.20985 542.878 2.76261 541.057L1.80575 540.767L0.84889 540.476C0.187075 542.656 0.155726 544.849 0.757644 547.032L1.7217 546.767ZM1.80575 540.767L2.76261 541.057C3.40244 538.95 3.66616 536.833 3.54779 534.711L2.54934 534.767L1.55089 534.822C1.65565 536.7 1.42364 538.583 0.84889 540.476L1.80575 540.767ZM2.54934 534.767L3.54779 534.711C3.4378 532.739 3.41207 530.768 3.47057 528.796L2.47101 528.767L1.47145 528.737C1.41126 530.765 1.43774 532.794 1.55089 534.822L2.54934 534.767ZM2.47101 528.767L3.47057 528.796C3.52976 526.802 3.60481 524.807 3.69573 522.812L2.69677 522.767L1.69781 522.721C1.6064 524.726 1.53095 526.732 1.47145 528.737L2.47101 528.767ZM2.69677 522.767L3.69573 522.812C3.7919 520.702 3.54553 518.596 2.96081 516.498L1.99751 516.767L1.03421 517.035C1.56416 518.937 1.78397 520.831 1.69781 522.721L2.69677 522.767ZM1.99751 516.767L2.96081 516.498C2.43448 514.609 2.25503 512.73 2.41751 510.853L1.42124 510.767L0.424966 510.68C0.241131 512.804 0.44586 514.924 1.03421 517.035L1.99751 516.767ZM1.42124 510.767L2.41751 510.853C2.59177 508.84 2.72729 506.827 2.82407 504.815L1.82523 504.767L0.82638 504.719C0.730828 506.706 0.597025 508.693 0.424966 510.68L1.42124 510.767ZM1.82523 504.767L2.82407 504.815C2.91985 502.823 3.03962 500.831 3.18338 498.839L2.18598 498.767L1.18857 498.695C1.04366 500.703 0.922931 502.711 0.82638 504.719L1.82523 504.767ZM2.18598 498.767L3.18338 498.839C3.33059 496.799 3.35525 494.759 3.25733 492.719L2.25848 492.767L1.25963 492.815C1.35371 494.775 1.33003 496.734 1.18857 498.695L2.18598 498.767ZM2.25848 492.767L3.25733 492.719C3.16118 490.716 3.05584 488.713 2.9413 486.71L1.94293 486.767L0.944563 486.824C1.05875 488.821 1.16378 490.818 1.25963 492.815L2.25848 492.767ZM1.94293 486.767L2.9413 486.71C2.82964 484.757 2.85643 482.804 3.02173 480.851L2.02529 480.767L1.02885 480.682C0.855608 482.729 0.827497 484.776 0.944563 486.824L1.94293 486.767ZM2.02529 480.767L3.02173 480.851C3.19833 478.764 3.10424 476.678 2.74033 474.595L1.75524 474.767L0.770149 474.939C1.10485 476.855 1.1908 478.769 1.02885 480.682L2.02529 480.767ZM1.75524 474.767L2.74033 474.595C2.40983 472.702 2.3928 470.813 2.68888 468.921L1.70091 468.767L0.712943 468.612C0.382847 470.721 0.402035 472.831 0.770149 474.939L1.75524 474.767ZM1.70091 468.767L2.68888 468.921C3.00738 466.887 3.21666 464.851 3.31657 462.816L2.31777 462.767L1.31897 462.718C1.22258 464.682 1.02061 466.647 0.712943 468.612L1.70091 468.767ZM2.31777 462.767L3.31657 462.816C3.4187 460.735 3.26987 458.655 2.87119 456.578L1.88912 456.767L0.907052 456.955C1.27621 458.878 1.41316 460.798 1.31897 462.718L2.31777 462.767ZM1.88912 456.767L2.87119 456.578C2.51301 454.712 2.53857 452.849 2.94893 450.981L1.97222 450.767L0.995503 450.552C0.527222 452.684 0.497393 454.821 0.907052 456.955L1.88912 456.767ZM1.97222 450.767L2.94893 450.981C3.40587 448.901 3.59791 446.817 3.5234 444.731L2.52403 444.767L1.52467 444.802C1.59304 446.716 1.4172 448.632 0.995503 450.552L1.97222 450.767ZM2.52403 444.767L3.5234 444.731C3.4533 442.769 3.49393 440.806 3.64531 438.844L2.64827 438.767L1.65124 438.69C1.49408 440.727 1.45188 442.765 1.52467 444.802L2.52403 444.767ZM2.64827 438.767L3.64531 438.844C3.80712 436.746 3.66326 434.649 3.21557 432.557L2.2377 432.767L1.25984 432.976C1.66811 434.884 1.79797 436.787 1.65124 438.69L2.64827 438.767ZM2.2377 432.767L3.21557 432.557C2.80767 430.651 2.68306 428.749 2.83989 426.849L1.84328 426.767L0.846664 426.684C0.673428 428.784 0.811774 430.882 1.25984 432.976L2.2377 432.767ZM1.84328 426.767L2.83989 426.849C3.01175 424.766 2.92529 422.684 2.5812 420.603L1.5946 420.767L0.608007 420.93C0.925547 422.85 1.00487 424.767 0.846664 426.684L1.84328 426.767ZM1.5946 420.767L2.5812 420.603C2.26902 418.716 2.28171 416.831 2.61957 414.943L1.6352 414.767L0.650836 414.59C0.272932 416.702 0.258556 418.817 0.608007 420.93L1.5946 420.767ZM1.6352 414.767L2.61957 414.943C2.99848 412.825 2.99513 410.705 2.6096 408.587L1.62577 408.767L0.641948 408.946C0.984741 410.828 0.987677 412.708 0.650836 414.59L1.6352 414.767ZM1.62577 408.767L2.6096 408.587C2.27002 406.723 2.31443 404.86 2.74464 402.991L1.77013 402.767L0.795616 402.542C0.305019 404.673 0.253194 406.811 0.641948 408.946L1.62577 408.767ZM1.77013 402.767L2.74464 402.991C3.21916 400.93 3.49069 398.865 3.55814 396.799L2.55867 396.767L1.5592 396.734C1.49607 398.668 1.2419 400.604 0.795616 402.542L1.77013 402.767ZM2.55867 396.767L3.55814 396.799C3.62358 394.795 3.67519 392.79 3.71296 390.785L2.71314 390.767L1.71332 390.748C1.67572 392.743 1.62434 394.739 1.5592 396.734L2.55867 396.767ZM2.71314 390.767L3.71296 390.785C3.75269 388.677 3.45489 386.574 2.82432 384.478L1.86675 384.767L0.90918 385.055C1.4825 386.96 1.74896 388.856 1.71332 390.748L2.71314 390.767ZM1.86675 384.767L2.82432 384.478C2.27927 382.667 2.28192 380.869 2.83263 379.057L1.87586 378.767L0.919101 378.476C0.253754 380.664 0.250333 382.866 0.90918 385.055L1.86675 384.767ZM1.87586 378.767L2.83263 379.057C3.4847 376.913 3.62749 374.755 3.25357 372.596L2.26824 372.767L1.28292 372.937C1.60187 374.779 1.48308 376.621 0.919101 378.476L1.87586 378.767ZM2.26824 372.767L3.25357 372.596C2.92162 370.68 2.83826 368.766 3.00265 366.852L2.00632 366.767L1.00999 366.681C0.830735 368.768 0.92199 370.854 1.28292 372.937L2.26824 372.767ZM2.00632 366.767L3.00265 366.852C3.17937 364.795 3.17908 362.738 3.00177 360.681L2.00547 360.767L1.00916 360.852C1.17663 362.795 1.1769 364.738 1.00999 366.681L2.00632 366.767ZM2.00547 360.767L3.00177 360.681C2.83256 358.717 2.77264 356.755 2.82198 354.792L1.82229 354.767L0.822608 354.741C0.771406 356.779 0.833606 358.816 1.00916 360.852L2.00547 360.767ZM1.82229 354.767L2.82198 354.792C2.87175 352.812 2.9805 350.831 3.14825 348.851L2.15181 348.767L1.15538 348.682C0.984305 350.702 0.873376 352.722 0.822608 354.741L1.82229 354.767ZM2.15181 348.767L3.14825 348.851C3.32014 346.822 3.40198 344.792 3.39374 342.763L2.39375 342.767L1.39376 342.771C1.40176 344.741 1.32231 346.712 1.15538 348.682L2.15181 348.767ZM2.39375 342.767L3.39374 342.763C3.38549 340.731 3.28277 338.701 3.08561 336.67L2.09029 336.767L1.09497 336.863C1.28618 338.833 1.38576 340.802 1.39376 342.771L2.39375 342.767ZM2.09029 336.767L3.08561 336.67C2.8946 334.703 2.80122 332.736 2.80542 330.769L1.80542 330.767L0.805426 330.764C0.801083 332.798 0.897615 334.831 1.09497 336.863L2.09029 336.767ZM1.80542 330.767L2.80542 330.769C2.80958 328.823 2.97034 326.876 3.28807 324.928L2.30111 324.767L1.31415 324.606C0.979514 326.657 0.809813 328.711 0.805426 330.764L1.80542 330.767ZM2.30111 324.767L3.28807 324.928C3.62886 322.838 3.68198 320.746 3.44686 318.655L2.45312 318.767L1.45938 318.878C1.67395 320.787 1.62574 322.695 1.31415 324.606L2.30111 324.767ZM2.45312 318.767L3.44686 318.655C3.23027 316.728 3.22802 314.803 3.44011 312.876L2.44611 312.767L1.45212 312.657C1.22384 314.731 1.22627 316.805 1.45938 318.878L2.45312 318.767ZM2.44611 312.767L3.44011 312.876C3.67145 310.775 3.5825 308.673 3.17453 306.576L2.19293 306.767L1.21132 306.958C1.5813 308.86 1.66113 310.759 1.45212 312.657L2.44611 312.767ZM2.19293 306.767L3.17453 306.576C2.79424 304.62 2.55213 302.666 2.44782 300.713L1.44924 300.767L0.450662 300.82C0.559993 302.867 0.813669 304.913 1.21132 306.958L2.19293 306.767ZM1.44924 300.767L2.44782 300.713C2.3418 298.728 2.28107 296.744 2.2656 294.759L1.26563 294.767L0.265664 294.774C0.281365 296.79 0.343032 298.805 0.450662 300.82L1.44924 300.767ZM1.26563 294.767L2.2656 294.759C2.25035 292.801 2.35744 290.842 2.58701 288.883L1.5938 288.767L0.600597 288.65C0.361441 290.691 0.249757 292.733 0.265664 294.774L1.26563 294.767ZM1.5938 288.767L2.58701 288.883C2.83267 286.786 2.77324 284.69 2.40946 282.595L1.42422 282.767L0.438972 282.938C0.770028 284.844 0.823648 286.747 0.600597 288.65L1.5938 288.767ZM1.42422 282.767L2.40946 282.595C2.08691 280.739 2.16616 278.883 2.65094 277.018L1.68311 276.767L0.715294 276.515C0.160046 278.65 0.066691 280.795 0.438972 282.938L1.42422 282.767ZM1.68311 276.767L2.65094 277.018C3.19404 274.929 3.43578 272.835 3.37321 270.737L2.37365 270.767L1.3741 270.796C1.43083 272.698 1.21222 274.604 0.715294 276.515L1.68311 276.767ZM2.37365 270.767L3.37321 270.737C3.31335 268.73 3.23305 266.723 3.13231 264.716L2.13357 264.767L1.13483 264.817C1.23489 266.81 1.31464 268.803 1.3741 270.796L2.37365 270.767ZM2.13357 264.767L3.13231 264.716C3.02992 262.677 2.80572 260.638 2.45993 258.599L1.47402 258.767L0.488104 258.934C0.820918 260.896 1.03643 262.857 1.13483 264.817L2.13357 264.767ZM1.47402 258.767L2.45993 258.599C2.13485 256.683 2.05839 254.769 2.22978 252.856L1.23377 252.767L0.237759 252.677C0.0508754 254.764 0.134579 256.85 0.488104 258.934L1.47402 258.767ZM1.23377 252.767L2.22978 252.856C2.40944 250.85 2.5717 248.844 2.71656 246.839L1.71916 246.767L0.72176 246.695C0.577721 248.689 0.416388 250.683 0.237759 252.677L1.23377 252.767ZM1.71916 246.767L2.71656 246.839C2.86122 244.836 2.99726 242.833 3.12467 240.83L2.12669 240.767L1.12871 240.703C1.00166 242.7 0.866007 244.697 0.72176 246.695L1.71916 246.767ZM2.12669 240.767L3.12467 240.83C3.2548 238.785 3.24507 236.739 3.09549 234.694L2.09815 234.767L1.10082 234.84C1.24375 236.794 1.25305 238.749 1.12871 240.703L2.12669 240.767ZM2.09815 234.767L3.09549 234.694C2.94714 232.665 2.71105 230.637 2.38732 228.609L1.39982 228.767L0.412327 228.924C0.727184 230.896 0.956653 232.868 1.10082 234.84L2.09815 234.767ZM1.39982 228.767L2.38732 228.609C2.09364 226.769 2.23902 224.928 2.83262 223.071L1.88013 222.767L0.927633 222.462C0.242237 224.606 0.0674154 226.764 0.412327 228.924L1.39982 228.767ZM1.88013 222.767L2.83262 223.071C3.51188 220.947 3.74885 218.81 3.53512 216.667L2.54006 216.767L1.545 216.866C1.73036 218.724 1.52737 220.586 0.927633 222.462L1.88013 222.767ZM2.54006 216.767L3.53512 216.667C3.33909 214.703 3.24833 212.738 3.26278 210.774L2.26281 210.767L1.26284 210.759C1.24786 212.795 1.34193 214.831 1.545 216.866L2.54006 216.767ZM2.26281 210.767L3.26278 210.774C3.27805 208.699 3.0623 206.626 2.61678 204.556L1.63917 204.767L0.661555 204.977C1.07698 206.907 1.277 208.834 1.26284 210.759L2.26281 210.767ZM1.63917 204.767L2.61678 204.556C2.2135 202.683 2.18005 200.814 2.51524 198.943L1.53091 198.767L0.54658 198.59C0.165157 200.719 0.20388 202.851 0.661555 204.977L1.63917 204.767ZM1.53091 198.767L2.51524 198.943C2.88991 196.852 2.9687 194.757 2.75067 192.663L1.75605 192.767L0.761422 192.87C0.959818 194.776 0.888515 196.682 0.54658 198.59L1.53091 198.767ZM1.75605 192.767L2.75067 192.663C2.54303 190.669 2.35225 188.674 2.17833 186.68L1.18211 186.767L0.185889 186.853C0.360787 188.859 0.552632 190.865 0.761422 192.87L1.75605 192.767ZM1.18211 186.767L2.17833 186.68C2.00752 184.721 1.95935 182.763 2.03376 180.805L1.03448 180.767L0.0352051 180.729C-0.0423781 182.77 0.00786793 184.812 0.185889 186.853L1.18211 186.767ZM1.03448 180.767L2.03376 180.805C2.10692 178.879 2.39456 176.951 2.89839 175.019L1.93075 174.767L0.963101 174.514C0.42391 176.582 0.11404 178.654 0.0352051 180.729L1.03448 180.767ZM1.93075 174.767L2.89839 175.019C3.45945 172.867 3.50294 170.707 3.02648 168.551L2.05004 168.767L1.0736 168.982C1.48111 170.826 1.44506 172.666 0.963101 174.514L1.93075 174.767ZM2.05004 168.767L3.02648 168.551C2.59474 166.597 2.30861 164.645 2.1676 162.695L1.17021 162.767L0.172809 162.839C0.320956 164.888 0.621389 166.936 1.0736 168.982L2.05004 168.767ZM1.17021 162.767L2.1676 162.695C2.028 160.763 2.08781 158.832 2.34732 156.9L1.35622 156.767L0.365114 156.634C0.0874549 158.701 0.0232524 160.77 0.172809 162.839L1.17021 162.767ZM1.35622 156.767L2.34732 156.9C2.61502 154.906 2.90288 152.913 3.21088 150.919L2.22261 150.767L1.23434 150.614C0.924321 152.62 0.63458 154.627 0.365114 156.634L1.35622 156.767ZM2.22261 150.767L3.21088 150.919C3.53058 148.85 3.62986 146.779 3.5082 144.708L2.50992 144.767L1.51164 144.825C1.62492 146.754 1.53266 148.683 1.23434 150.614L2.22261 150.767ZM2.50992 144.767L3.5082 144.708C3.39208 142.731 3.34417 140.754 3.36446 138.777L2.36451 138.767L1.36457 138.756C1.3438 140.779 1.39283 142.802 1.51164 144.825L2.50992 144.767ZM2.36451 138.767L3.36446 138.777C3.38552 136.725 3.24899 134.675 2.95513 132.625L1.96525 132.767L0.975373 132.908C1.25492 134.859 1.38457 136.808 1.36457 138.756L2.36451 138.767ZM1.96525 132.767L2.95513 132.625C2.67559 130.675 2.54613 128.726 2.56649 126.777L1.56655 126.767L0.566604 126.756C0.545168 128.808 0.681513 130.859 0.975373 132.908L1.96525 132.767ZM1.56655 126.767L2.56649 126.777C2.5867 124.843 2.79829 122.908 3.20218 120.971L2.22322 120.767L1.24426 120.563C0.814385 122.625 0.588196 124.69 0.566604 126.756L1.56655 126.767ZM2.22322 120.767L3.20218 120.971C3.63912 118.874 3.75937 116.774 3.56121 114.673L2.56562 114.767L1.57004 114.86C1.7491 116.759 1.64108 118.659 1.24426 120.563L2.22322 120.767ZM2.56562 114.767L3.56121 114.673C3.37828 112.733 3.37198 110.794 3.54228 108.854L2.54612 108.767L1.54995 108.679C1.36904 110.74 1.37574 112.8 1.57004 114.86L2.56562 114.767ZM2.54612 108.767L3.54228 108.854C3.72334 106.792 3.71154 104.73 3.50693 102.668L2.51182 102.767L1.51671 102.865C1.70905 104.804 1.72011 106.741 1.54995 108.679L2.54612 108.767ZM2.51182 102.767L3.50693 102.668C3.30723 100.655 3.06935 98.643 2.7933 96.6307L1.80258 96.7666L0.81186 96.9025C1.08453 98.8902 1.31948 100.878 1.51671 102.865L2.51182 102.767ZM1.80258 96.7666L2.7933 96.6307C2.52149 94.6493 2.3064 92.668 2.14799 90.6869L1.15117 90.7666L0.154355 90.8463C0.315784 92.8652 0.534959 94.8839 0.81186 96.9025L1.80258 96.7666ZM1.15117 90.7666L2.14799 90.6869C1.99223 88.7388 1.989 86.791 2.1383 84.843L1.14122 84.7666L0.144146 84.6902C-0.0131204 86.7422 -0.00971496 88.7944 0.154355 90.8463L1.15117 90.7666ZM1.14122 84.7666L2.1383 84.843C2.29177 82.8406 2.43787 80.8382 2.57661 78.8357L1.57901 78.7666L0.581398 78.6975C0.442993 80.6951 0.297242 82.6926 0.144146 84.6902L1.14122 84.7666ZM1.57901 78.7666L2.57661 78.8357C2.7188 76.7836 2.70017 74.7314 2.52078 72.6795L1.52458 72.7666L0.528379 72.8537C0.698702 74.8018 0.716362 76.7496 0.581398 78.6975L1.57901 78.7666ZM1.52458 72.7666L2.52078 72.6795C2.35148 70.7431 2.36765 68.8069 2.56936 66.8702L1.57474 66.7666L0.580122 66.663C0.365231 68.7263 0.347961 70.7901 0.528379 72.8537L1.52458 72.7666ZM1.57474 66.7666L2.56936 66.8702C2.78303 64.8187 2.83633 62.7666 2.72914 60.7144L1.7305 60.7666L0.731863 60.8188C0.833601 62.7666 0.783057 64.7145 0.580122 66.663L1.57474 66.7666ZM1.7305 60.7666L2.72914 60.7144C2.62892 58.7957 2.76077 56.8758 3.12574 54.9531L2.14328 54.7666L1.16083 54.5801C0.766502 56.6574 0.62316 58.7375 0.731863 60.8188L1.7305 60.7666ZM2.14328 54.7666L3.12574 54.9531C3.52567 52.8463 3.57694 50.736 3.2786 48.6266L2.28845 48.7666L1.29831 48.9067C1.5657 50.7973 1.5202 52.6869 1.16083 54.5801L2.14328 54.7666ZM2.28845 48.7666L3.2786 48.6266C2.9965 46.632 2.73115 44.6375 2.48255 42.6429L1.49023 42.7666L0.49791 42.8903C0.74787 44.8958 1.01467 46.9012 1.29831 48.9067L2.28845 48.7666ZM1.49023 42.7666L2.48255 42.6429C2.24329 40.7233 2.23826 38.8046 2.4674 36.8851L1.47445 36.7666L0.481501 36.6481C0.233132 38.7286 0.238616 40.8099 0.49791 42.8903L1.49023 42.7666ZM1.47445 36.7666L2.4674 36.8851C2.71505 34.8106 2.72823 32.7353 2.50685 30.6605L1.51249 30.7666L0.518137 30.8727C0.723552 32.7979 0.711367 34.7225 0.481501 36.6481L1.47445 36.7666ZM1.51249 30.7666L2.50685 30.6605C2.3056 28.7744 2.42458 26.887 2.86645 24.9939L1.89263 24.7666L0.918806 24.5393C0.427044 26.6462 0.292593 28.7588 0.518137 30.8727L1.51249 30.7666ZM1.89263 24.7666L2.86645 24.9939C3.36344 22.8647 3.42737 20.7291 3.05608 18.5952L2.07089 18.7666L1.08569 18.938C1.41037 20.8041 1.35546 22.6685 0.918806 24.5393L1.89263 24.7666ZM2.07089 18.7666L3.05608 18.5952C2.712 16.6176 2.43737 14.6403 2.23216 12.6634L1.2375 12.7666L0.242849 12.8699C0.452845 14.8929 0.733808 16.9156 1.08569 18.938L2.07089 18.7666ZM1.2375 12.7666L2.23216 12.6634C2.0331 10.7457 2.07186 8.82834 2.34879 6.90944L1.35904 6.7666L0.369297 6.62377C0.0689622 8.70488 0.0266986 10.7875 0.242849 12.8699L1.2375 12.7666ZM1.35904 6.7666L2.34879 6.90944C2.63627 4.9174 2.80495 3.53816 2.84172 2.81756L1.84302 2.7666L0.844316 2.71563C0.813051 3.32836 0.659079 4.61578 0.369297 6.62377L1.35904 6.7666ZM1.84302 2.7666L2.84172 2.81756C2.82499 3.14544 2.52592 3.12034 2.90242 3.01429C3.25256 2.91566 3.87652 2.8606 4.84723 2.90608L4.89404 1.90718L4.94085 0.908276C3.91157 0.860045 3.02702 0.90136 2.36016 1.0892C1.71964 1.26962 0.895064 1.72109 0.844316 2.71563L1.84302 2.7666Z"
        fill="black" />
</svg>