<svg width="932" height="178" viewBox="0 0 932 178" fill="none" xmlns="http://www.w3.org/2000/svg">
    <path
        d="M64.9331 1.83306L64.7787 2.82107L64.9331 1.83306ZM130.933 2.20297L130.893 3.20215L130.933 2.20297ZM256.933 1.94883L256.994 0.950697L256.933 1.94883ZM262.933 1.89942L262.856 0.902422L262.933 1.89942ZM478.933 1.13597L478.932 2.13597L478.933 1.13597ZM604.933 1.6165L604.949 2.61638L604.933 1.6165ZM610.933 1.6287L610.914 2.62851L610.933 1.6287ZM640.933 2.38097L641.059 3.37306L640.933 2.38097ZM646.933 2.15413L646.984 1.15543L646.933 2.15413ZM652.933 2.69052L652.806 3.68244L652.933 2.69052ZM694.933 2.22484L694.818 3.21819L694.933 2.22484ZM796.933 1.66428L797.05 0.671132L796.933 1.66428ZM838.933 2.58276L839.08 1.59359L838.933 2.58276ZM892.933 1.08817L892.926 0.0881937L892.933 1.08817ZM927.76 2.58937L928.403 1.8235L927.76 2.58937ZM930.145 7.12354L931.128 6.94106L930.145 7.12354ZM929.991 13.1235L930.964 13.3538L929.991 13.1235ZM930.362 31.1235L931.353 30.9879L930.362 31.1235ZM930.45 49.1235L931.442 48.9934L930.45 49.1235ZM930.487 61.1235L929.489 61.0729L930.487 61.1235ZM930.56 67.1235L931.558 67.0487L930.56 67.1235ZM930.18 91.1235L929.204 90.9052L930.18 91.1235ZM930.699 103.124L931.694 103.03L930.699 103.124ZM929.88 121.124L930.873 121.005L929.88 121.124ZM930.178 127.124L929.178 127.103L930.178 127.124ZM929.603 151.124L930.602 151.148L929.603 151.124ZM930.775 163.124L931.773 163.066L930.775 163.124ZM928.559 174.132L929.337 174.762L928.559 174.132ZM917.933 174.177L917.984 173.178L917.933 174.177ZM911.933 174.577L911.751 173.594L911.933 174.577ZM899.933 175.25L899.931 176.25L899.933 175.25ZM887.933 175.159L888.29 176.094L887.933 175.159ZM881.933 175.122L882.3 174.192L881.933 175.122ZM863.933 175.747L863.79 174.758L863.933 175.747ZM851.933 175.356L852.111 174.372L851.933 175.356ZM833.933 174.474L833.983 175.473L833.933 174.474ZM809.933 175.017L809.65 175.976L809.933 175.017ZM785.933 174.884L786.189 175.851L785.933 174.884ZM773.933 174.514L773.863 175.512L773.933 174.514ZM767.933 175.182L768.214 176.142L767.933 175.182ZM725.933 174.448L725.893 173.449L725.933 174.448ZM707.933 174.525L707.956 173.525L707.933 174.525ZM677.933 175.058L677.9 174.058L677.933 175.058ZM671.933 175.3L671.98 176.298L671.933 175.3ZM665.933 175.046L665.802 176.038L665.933 175.046ZM659.933 175.115L660.086 176.104L659.933 175.115ZM653.933 175.768L653.996 176.766L653.933 175.768ZM629.933 175.846L630.003 176.843L629.933 175.846ZM605.933 175.4L605.732 174.42L605.933 175.4ZM599.933 175.238L600.184 174.27L599.933 175.238ZM593.933 175.385L594.227 176.341L593.933 175.385ZM581.933 175.525L581.737 176.505L581.933 175.525ZM569.933 175.309L570.12 176.291L569.933 175.309ZM557.933 175.13L557.578 176.065L557.933 175.13ZM515.933 174.6L515.833 173.605L515.933 174.6ZM509.933 174.547L509.816 175.54L509.933 174.547ZM485.933 173.992L485.939 174.992L485.933 173.992ZM461.933 175.77L461.808 176.762L461.933 175.77ZM455.933 175.125L456.021 174.129L455.933 175.125ZM437.933 175.627L437.723 174.649L437.933 175.627ZM431.933 175.56L432.164 174.587L431.933 175.56ZM413.933 176.138L413.946 177.137L413.933 176.138ZM401.933 175.663L402.127 174.682L401.933 175.663ZM395.933 175.186L395.895 174.187L395.933 175.186ZM353.933 174.596L353.765 175.582L353.933 174.596ZM347.933 174.403L347.828 173.409L347.933 174.403ZM329.933 175.415L330.035 176.41L329.933 175.415ZM305.933 175.079L306.013 174.082L305.933 175.079ZM299.933 175.468L300.138 176.446L299.933 175.468ZM293.933 175.756L293.82 176.75L293.933 175.756ZM257.933 175.126L257.669 174.162L257.933 175.126ZM233.933 174.744L234.091 173.756L233.933 174.744ZM209.933 175.945L209.989 174.946L209.933 175.945ZM203.933 175.805L203.924 174.805L203.933 175.805ZM155.933 175.343L155.705 176.316L155.933 175.343ZM149.933 174.416L150.008 173.419L149.933 174.416ZM137.933 174.71L137.713 175.685L137.933 174.71ZM95.9331 175.15L96.1991 176.114L95.9331 175.15ZM77.9331 174.618L78.021 175.614L77.9331 174.618ZM71.9331 175.47L71.7409 174.489L71.9331 175.47ZM65.9331 175.335L65.6988 176.307L65.9331 175.335ZM41.9331 175.728L42.1181 176.71L41.9331 175.728ZM29.9331 174.185L29.9702 175.184L29.9331 174.185ZM17.9331 175.446L17.8937 176.445L17.9331 175.446ZM4.93311 2.54212L4.79492 3.53253C6.83985 3.81785 8.88561 3.96189 10.9319 3.96443L10.9331 2.96443L10.9343 1.96444C8.98061 1.96201 7.02636 1.8245 5.0713 1.55171L4.93311 2.54212ZM10.9331 2.96443L10.9319 3.96443C12.9425 3.96693 14.9531 3.93739 16.9637 3.87581L16.9331 2.87628L16.9025 1.87674C14.9131 1.93768 12.9237 1.96691 10.9343 1.96444L10.9331 2.96443ZM16.9331 2.87628L16.9637 3.87581C18.9516 3.81492 20.9395 3.7901 22.9274 3.80135L22.9331 2.80136L22.9388 1.80138C20.9267 1.78999 18.9146 1.81512 16.9025 1.87674L16.9331 2.87628ZM22.9331 2.80136L22.9274 3.80135C24.989 3.81301 27.0495 3.63541 29.1083 3.26912L28.9331 2.28458L28.7579 1.30004C26.8167 1.64543 24.8772 1.81235 22.9388 1.80138L22.9331 2.80136ZM28.9331 2.28458L29.1083 3.26912C31.0498 2.92369 32.9895 2.756 34.9282 2.76548L34.9331 1.76549L34.938 0.765506C32.8767 0.75543 30.8164 0.933801 28.7579 1.30004L28.9331 2.28458ZM34.9331 1.76549L34.9282 2.76548C36.8948 2.7751 38.8616 2.88305 40.8288 3.08942L40.9331 2.09487L41.0374 1.10033C39.0046 0.887074 36.9714 0.775446 34.938 0.765506L34.9331 1.76549ZM40.9331 2.09487L40.8288 3.08942C42.9067 3.3074 44.9851 3.28097 47.0623 3.01031L46.9331 2.0187L46.8039 1.02708C44.8811 1.27761 42.9595 1.30196 41.0374 1.10033L40.9331 2.09487ZM46.9331 2.0187L47.0623 3.01031C49.0038 2.75735 50.9442 2.67828 52.8844 2.77285L52.9331 1.77404L52.9818 0.775226C50.922 0.674821 48.8624 0.758858 46.8039 1.02708L46.9331 2.0187ZM52.9331 1.77404L52.8844 2.77285C54.9316 2.87264 56.9787 2.82764 59.0254 2.63793L58.9331 1.6422L58.8408 0.64647C56.8875 0.827521 54.9346 0.870416 52.9818 0.775226L52.9331 1.77404ZM58.9331 1.6422L59.0254 2.63793C60.9425 2.46024 62.8596 2.5211 64.7787 2.82107L64.9331 1.83306L65.0875 0.845059C63.0066 0.519782 60.9237 0.453405 58.8408 0.64647L58.9331 1.6422ZM64.9331 1.83306L64.7787 2.82107C66.8516 3.14509 68.9264 3.23623 71.0015 3.09394L70.9331 2.09628L70.8647 1.09863C68.9398 1.23061 67.0146 1.14628 65.0875 0.845059L64.9331 1.83306ZM70.9331 2.09628L71.0015 3.09394C72.9343 2.96141 74.8672 3.02357 76.8013 3.28071L76.9331 2.28943L77.0649 1.29816C74.999 1.02348 72.9319 0.956875 70.8647 1.09863L70.9331 2.09628ZM76.9331 2.28943L76.8013 3.28071C78.8194 3.54903 80.8377 3.76105 82.8562 3.91675L82.9331 2.91972L83.01 1.92268C81.0285 1.76982 79.0468 1.56166 77.0649 1.29816L76.9331 2.28943ZM82.9331 2.91972L82.8562 3.91675C84.9349 4.0771 87.0134 3.99219 89.0899 3.66261L88.9331 2.67497L88.7763 1.68733C86.8529 1.99263 84.9313 2.07088 83.01 1.92268L82.9331 2.91972ZM88.9331 2.67497L89.0899 3.66261C91.022 3.35593 92.9525 3.25192 94.8823 3.35002L94.9331 2.35131L94.9839 1.3526C92.9137 1.24736 90.8442 1.35912 88.7763 1.68733L88.9331 2.67497ZM94.9331 2.35131L94.8823 3.35002C96.9775 3.45653 99.0705 3.26685 101.159 2.78317L100.933 1.80896L100.707 0.83475C98.7957 1.27754 96.8887 1.44943 94.9839 1.3526L94.9331 2.35131ZM100.933 1.80896L101.159 2.78317C103.082 2.33764 105.002 2.1291 106.919 2.15581L106.933 1.15591L106.947 0.156008C104.864 0.126986 102.784 0.353807 100.707 0.83475L100.933 1.80896ZM106.933 1.15591L106.919 2.15581C108.853 2.18276 110.788 2.40037 112.727 2.80957L112.933 1.83114L113.14 0.852709C111.078 0.417341 109.013 0.184799 106.947 0.156008L106.933 1.15591ZM112.933 1.83114L112.727 2.80957C114.826 3.25295 116.931 3.3668 119.036 3.1493L118.933 2.1546L118.83 1.15989C116.935 1.35568 115.04 1.25389 113.14 0.852709L112.933 1.83114ZM118.933 2.1546L119.036 3.1493C120.989 2.94752 122.941 2.88523 124.894 2.96232L124.933 1.9631L124.973 0.963875C122.925 0.883018 120.877 0.948392 118.83 1.15989L118.933 2.1546ZM124.933 1.9631L124.894 2.96232C126.893 3.04128 128.893 3.12122 130.893 3.20215L130.933 2.20297L130.974 1.20379C128.973 1.12283 126.973 1.04286 124.973 0.963875L124.933 1.9631ZM130.933 2.20297L130.893 3.20215C132.926 3.28444 134.959 3.26538 136.992 3.14498L136.933 2.14673L136.874 1.14848C134.907 1.26496 132.94 1.28339 130.974 1.20379L130.933 2.20297ZM136.933 2.14673L136.992 3.14498C139.029 3.02438 141.065 2.79209 143.1 2.44827L142.933 1.46224L142.767 0.476213C140.802 0.808163 138.838 1.0322 136.874 1.14848L136.933 2.14673ZM142.933 1.46224L143.1 2.44827C144.956 2.13458 146.813 2.22197 148.678 2.71452L148.933 1.74767L149.188 0.780817C147.054 0.217032 144.91 0.114129 142.767 0.476213L142.933 1.46224ZM148.933 1.74767L148.678 2.71452C150.754 3.26288 152.836 3.55165 154.92 3.57853L154.933 2.57861L154.946 1.57869C153.031 1.554 151.112 1.2888 149.188 0.780817L148.933 1.74767ZM154.933 2.57861L154.92 3.57853C156.956 3.60478 158.992 3.52181 161.027 3.32967L160.933 2.33409L160.839 1.33852C158.874 1.52398 156.91 1.60402 154.946 1.57869L154.933 2.57861ZM160.933 2.33409L161.027 3.32967C163.007 3.14277 164.987 3.01625 166.966 2.9501L166.933 1.95066L166.9 0.951213C164.879 1.01872 162.859 1.14783 160.839 1.33852L160.933 2.33409ZM166.933 1.95066L166.966 2.9501C168.96 2.8835 170.953 2.83778 172.946 2.81293L172.933 1.81301L172.921 0.813085C170.914 0.83811 168.907 0.884153 166.9 0.951213L166.933 1.95066ZM172.933 1.81301L172.946 2.81293C174.912 2.78841 176.879 2.86219 178.846 3.03433L178.933 2.03814L179.02 1.04194C176.987 0.864031 174.954 0.787731 172.921 0.813085L172.933 1.81301ZM178.933 2.03814L178.846 3.03433C180.905 3.2145 182.964 3.21211 185.023 3.02717L184.933 2.03118L184.844 1.0352C182.902 1.20957 180.962 1.21182 179.02 1.04194L178.933 2.03814ZM184.933 2.03118L185.023 3.02717C186.94 2.85489 188.858 2.91885 190.778 3.21961L190.933 2.23166L191.088 1.24371C189.008 0.917852 186.926 0.848164 184.844 1.0352L184.933 2.03118ZM190.933 2.23166L190.778 3.21961C192.898 3.55172 195.02 3.49726 197.136 3.05756L196.933 2.07846L196.73 1.09936C194.847 1.49054 192.968 1.53821 191.088 1.24371L190.933 2.23166ZM196.933 2.07846L197.136 3.05756C198.975 2.67575 200.81 2.74751 202.657 3.27787L202.933 2.31671L203.209 1.35555C201.056 0.737357 198.892 0.650276 196.73 1.09936L196.933 2.07846ZM202.933 2.31671L202.657 3.27787C204.84 3.90479 207.035 3.89534 209.217 3.25036L208.933 2.29137L208.65 1.33239C206.832 1.86975 205.026 1.87719 203.209 1.35555L202.933 2.31671ZM208.933 2.29137L209.217 3.25036C211.088 2.69727 212.948 2.54429 214.805 2.78473L214.933 1.79301L215.061 0.801282C212.919 0.523869 210.778 0.703138 208.65 1.33239L208.933 2.29137ZM214.933 1.79301L214.805 2.78473C216.859 3.05068 218.914 3.14614 220.97 3.07089L220.933 2.07156L220.897 1.07223C218.952 1.14342 217.007 1.05318 215.061 0.801282L214.933 1.79301ZM220.933 2.07156L220.97 3.07089C222.947 2.99849 224.924 2.99351 226.902 3.05593L226.933 2.05643L226.965 1.05693C224.942 0.993071 222.919 0.998171 220.897 1.07223L220.933 2.07156ZM226.933 2.05643L226.902 3.05593C228.866 3.11793 230.83 3.28579 232.795 3.55961L232.933 2.56918L233.071 1.57875C231.036 1.29518 229.001 1.1212 226.965 1.05693L226.933 2.05643ZM232.933 2.56918L232.795 3.55961C234.857 3.84699 236.921 3.93744 238.985 3.83062L238.933 2.83196L238.881 1.8333C236.945 1.93351 235.009 1.84877 233.071 1.57875L232.933 2.56918ZM238.933 2.83196L238.985 3.83062C240.96 3.72842 242.934 3.70116 244.909 3.74885L244.933 2.74914L244.957 1.74943C242.932 1.70052 240.907 1.72848 238.881 1.8333L238.933 2.83196ZM244.933 2.74914L244.909 3.74885C246.976 3.79877 249.042 3.64172 251.106 3.27837L250.933 2.29351L250.76 1.30865C248.824 1.6494 246.89 1.79611 244.957 1.74943L244.933 2.74914ZM250.933 2.29351L251.106 3.27837C253.03 2.93975 254.952 2.82956 256.872 2.94697L256.933 1.94883L256.994 0.950697C254.915 0.823578 252.836 0.943177 250.76 1.30865L250.933 2.29351ZM256.933 1.94883L256.872 2.94697C258.918 3.07205 260.964 3.0552 263.01 2.89643L262.933 1.89942L262.856 0.902422C260.902 1.05405 258.948 1.07014 256.994 0.950697L256.933 1.94883ZM262.933 1.89942L263.01 2.89643C264.97 2.74436 266.93 2.7117 268.889 2.79841L268.933 1.79939L268.977 0.800364C266.937 0.710057 264.896 0.744088 262.856 0.902422L262.933 1.89942ZM268.933 1.79939L268.889 2.79841C270.833 2.88446 272.779 3.13222 274.727 3.5423L274.933 2.56375L275.139 1.5852C273.087 1.15315 271.033 0.891331 268.977 0.800364L268.933 1.79939ZM274.933 2.56375L274.727 3.5423C276.83 3.98495 278.937 4.08949 281.044 3.85413L280.933 2.86031L280.822 1.86649C278.93 2.07784 277.037 1.98468 275.139 1.5852L274.933 2.56375ZM280.933 2.86031L281.044 3.85413C283.043 3.6309 285.042 3.41115 287.041 3.19489L286.933 2.20069L286.826 1.20649C284.824 1.423 282.823 1.643 280.822 1.86649L280.933 2.86031ZM286.933 2.20069L287.041 3.19489C288.983 2.98477 290.924 2.94543 292.866 3.07675L292.933 2.07903L293.001 1.08131C290.942 0.942067 288.883 0.983835 286.826 1.20649L286.933 2.20069ZM292.933 2.07903L292.866 3.07675C294.898 3.21423 296.931 3.25225 298.963 3.19079L298.933 2.19125L298.903 1.1917C296.936 1.25119 294.968 1.2144 293.001 1.08131L292.933 2.07903ZM298.933 2.19125L298.963 3.19079C300.904 3.13211 302.846 3.24487 304.788 3.52943L304.933 2.53999L305.078 1.55055C303.021 1.24918 300.962 1.12944 298.903 1.1917L298.933 2.19125ZM304.933 2.53999L304.788 3.52943C306.897 3.83838 309.008 3.79807 311.115 3.40927L310.933 2.42587L310.752 1.44247C308.859 1.79177 306.969 1.82754 305.078 1.55055L304.933 2.53999ZM310.933 2.42587L311.115 3.40927C313.027 3.05636 314.937 2.96425 316.846 3.13187L316.933 2.1357L317.021 1.13953C314.93 0.955936 312.839 1.05727 310.752 1.44247L310.933 2.42587ZM316.933 2.1357L316.846 3.13187C318.898 3.31207 320.951 3.32991 323.003 3.18534L322.933 2.18781L322.863 1.19028C320.915 1.32744 318.968 1.31054 317.021 1.13953L316.933 2.1357ZM322.933 2.18781L323.003 3.18534C325 3.04469 326.997 2.91318 328.994 2.7908L328.933 1.79268L328.872 0.794549C326.869 0.917295 324.866 1.04921 322.863 1.19028L322.933 2.18781ZM328.933 1.79268L328.994 2.7908C330.948 2.67111 332.901 2.68863 334.854 2.8434L334.933 1.84652L335.012 0.849646C332.966 0.6875 330.919 0.669125 328.872 0.794549L328.933 1.79268ZM334.933 1.84652L334.854 2.8434C336.854 3.00181 338.853 3.16196 340.852 3.32385L340.933 2.32711L341.014 1.33037C339.013 1.16839 337.013 1.00815 335.012 0.849646L334.933 1.84652ZM340.933 2.32711L340.852 3.32385C342.846 3.48525 344.839 3.66653 346.833 3.86768L346.933 2.87274L347.034 1.87779C345.027 1.67531 343.02 1.49284 341.014 1.33037L340.933 2.32711ZM346.933 2.87274L346.833 3.86768C348.879 4.07414 350.925 4.13776 352.972 4.05844L352.933 3.05919L352.894 2.05994C350.941 2.13565 348.987 2.07496 347.034 1.87779L346.933 2.87274ZM352.933 3.05919L352.972 4.05844C354.939 3.9822 356.906 4.00319 358.873 4.12144L358.933 3.12324L358.993 2.12504C356.96 2.00285 354.927 1.98114 352.894 2.05994L352.933 3.05919ZM358.933 3.12324L358.873 4.12144C360.922 4.24461 362.972 4.21633 365.02 4.03666L364.933 3.04048L364.846 2.04431C362.895 2.2154 360.944 2.2423 358.993 2.12504L358.933 3.12324ZM364.933 3.04048L365.02 4.03666C367.024 3.86098 369.027 3.67497 371.031 3.47865L370.933 2.48342L370.836 1.48819C368.839 1.68385 366.842 1.86922 364.846 2.04431L364.933 3.04048ZM370.933 2.48342L371.031 3.47865C373.052 3.28059 375.073 3.01765 377.093 2.68987L376.933 1.70277L376.773 0.715676C374.794 1.03677 372.814 1.29427 370.836 1.48819L370.933 2.48342ZM376.933 1.70277L377.093 2.68987C378.985 2.383 380.875 2.38919 382.767 2.70859L382.933 1.72254L383.1 0.736495C380.992 0.38065 378.881 0.373666 376.773 0.715676L376.933 1.70277ZM382.933 1.72254L382.767 2.70859C384.834 3.05762 386.904 3.19004 388.974 3.1052L388.933 2.10603L388.892 1.10687C386.962 1.18595 385.032 1.06271 383.1 0.736495L382.933 1.72254ZM388.933 2.10603L388.974 3.1052C390.971 3.02335 392.968 2.9499 394.966 2.88485L394.933 1.88538L394.901 0.885913C392.898 0.951142 390.895 1.0248 388.892 1.10687L388.933 2.10603ZM394.933 1.88538L394.966 2.88485C396.995 2.81875 399.024 2.66282 401.053 2.41712L400.933 1.42437L400.813 0.431625C398.842 0.670327 396.871 0.821737 394.901 0.885913L394.933 1.88538ZM400.933 1.42437L401.053 2.41712C402.913 2.19185 404.776 2.35195 406.651 2.90394L406.933 1.94468L407.216 0.985423C405.09 0.359262 402.953 0.172482 400.813 0.431625L400.933 1.42437ZM406.933 1.94468L406.651 2.90394C408.747 3.52154 410.853 3.80187 412.962 3.74028L412.933 2.7407L412.904 1.74113C411.014 1.79632 409.119 1.54597 407.216 0.985423L406.933 1.94468ZM412.933 2.7407L412.962 3.74028C415.049 3.67936 417.131 3.3512 419.208 2.75849L418.933 1.79689L418.659 0.835289C416.735 1.38421 414.818 1.68525 412.904 1.74113L412.933 2.7407ZM418.933 1.79689L419.208 2.75849C421.102 2.2179 422.987 2.01098 424.869 2.13274L424.933 1.13483L424.998 0.136918C422.879 -0.000193119 420.765 0.234255 418.659 0.835289L418.933 1.79689ZM424.933 1.13483L424.869 2.13274C426.804 2.25802 428.742 2.57002 430.684 3.06993L430.933 2.10153L431.182 1.13312C429.124 0.60298 427.062 0.270515 424.998 0.136918L424.933 1.13483ZM430.933 2.10153L430.684 3.06993C432.843 3.62589 435.01 3.64059 437.17 3.11316L436.933 2.14169L436.696 1.17022C434.856 1.61929 433.024 1.60722 431.182 1.13312L430.933 2.10153ZM436.933 2.14169L437.17 3.11316C439.046 2.65532 440.914 2.57029 442.782 2.85499L442.933 1.8664L443.084 0.877808C440.952 0.553051 438.821 0.651542 436.696 1.17022L436.933 2.14169ZM442.933 1.8664L442.782 2.85499C444.807 3.16342 446.831 3.39556 448.856 3.55136L448.933 2.55431L449.01 1.55725C447.035 1.4053 445.059 1.17883 443.084 0.877808L442.933 1.8664ZM448.933 2.55431L448.856 3.55136C450.986 3.71523 453.112 3.47016 455.226 2.82284L454.933 1.86665L454.64 0.910463C452.755 1.48777 450.88 1.70114 449.01 1.55725L448.933 2.55431ZM454.933 1.86665L455.226 2.82284C457.039 2.26784 458.838 2.25891 460.649 2.79491L460.933 1.83602L461.217 0.877134C459.028 0.229354 456.828 0.240844 454.64 0.910463L454.933 1.86665ZM460.933 1.83602L460.649 2.79491C462.758 3.41888 464.876 3.66467 466.998 3.52661L466.933 2.52872L466.868 1.53083C464.991 1.65296 463.109 1.43696 461.217 0.877134L460.933 1.83602ZM466.933 2.52872L466.998 3.52661C469.043 3.3936 471.087 3.12276 473.129 2.71443L472.933 1.73384L472.737 0.753239C470.78 1.14457 468.823 1.40365 466.868 1.53083L466.933 2.52872ZM472.933 1.73384L473.129 2.71443C475.066 2.32729 477 2.13476 478.932 2.13597L478.933 1.13597L478.934 0.135974C476.866 0.134678 474.801 0.340723 472.737 0.753239L472.933 1.73384ZM478.933 1.13597L478.932 2.13597C480.886 2.1372 482.84 2.27345 484.796 2.54494L484.933 1.55445L485.071 0.563952C483.026 0.279984 480.98 0.137256 478.934 0.135974L478.933 1.13597ZM484.933 1.55445L484.796 2.54494C486.818 2.8258 488.841 3.03649 490.864 3.17698L490.933 2.17938L491.002 1.18178C489.025 1.04449 487.048 0.838557 485.071 0.563952L484.933 1.55445ZM490.933 2.17938L490.864 3.17698C492.928 3.3203 494.991 3.26608 497.054 3.01454L496.933 2.02189L496.812 1.02924C494.875 1.26547 492.939 1.31625 491.002 1.18178L490.933 2.17938ZM496.933 2.02189L497.054 3.01454C498.972 2.78068 500.889 2.78602 502.807 3.03059L502.933 2.03862L503.06 1.04665C500.977 0.781142 498.894 0.775323 496.812 1.02924L496.933 2.02189ZM502.933 2.03862L502.807 3.03059C504.851 3.29132 506.897 3.41241 508.942 3.39369L508.933 2.39373L508.924 1.39377C506.97 1.41165 505.015 1.296 503.06 1.04665L502.933 2.03862ZM508.933 2.39373L508.942 3.39369C510.972 3.37512 513.001 3.26749 515.03 3.07084L514.933 2.07551L514.837 1.08017C512.866 1.27122 510.895 1.37574 508.924 1.39377L508.933 2.39373ZM514.933 2.07551L515.03 3.07084C517.006 2.87928 518.982 2.75856 520.958 2.70866L520.933 1.70898L520.908 0.709302C518.884 0.760409 516.86 0.884041 514.837 1.08017L514.933 2.07551ZM520.933 1.70898L520.958 2.70866C522.862 2.6606 524.768 2.88468 526.681 3.3838L526.933 2.41621L527.186 1.44862C525.098 0.90377 523.005 0.656357 520.908 0.709302L520.933 1.70898ZM526.933 2.41621L526.681 3.3838C528.828 3.94433 530.985 4.00099 533.138 3.55092L532.933 2.57208L532.729 1.59324C530.881 1.97933 529.038 1.93207 527.186 1.44862L526.933 2.41621ZM532.933 2.57208L533.138 3.55092C535.061 3.14879 536.982 2.97965 538.901 3.04215L538.933 2.04268L538.966 1.04321C536.884 0.975418 534.805 1.15921 532.729 1.59324L532.933 2.57208ZM538.933 2.04268L538.901 3.04215C540.96 3.10923 543.019 2.99369 545.076 2.69588L544.933 1.7062L544.79 0.716507C542.847 0.997637 540.906 1.10642 538.966 1.04321L538.933 2.04268ZM544.933 1.7062L545.076 2.69588C547.015 2.41523 548.953 2.31637 550.891 2.39893L550.933 1.39983L550.976 0.40074C548.913 0.312841 546.851 0.41822 544.79 0.716507L544.933 1.7062ZM550.933 1.39983L550.891 2.39893C552.936 2.48609 554.981 2.43372 557.026 2.24187L556.933 1.24624L556.84 0.250609C554.885 0.434009 552.93 0.484028 550.976 0.40074L550.933 1.39983ZM556.933 1.24624L557.026 2.24187C558.991 2.05756 560.956 1.97861 562.92 2.00497L562.933 1.00506L562.947 0.00514817C560.911 -0.0221715 558.875 0.0596671 556.84 0.250609L556.933 1.24624ZM562.933 1.00506L562.92 2.00497C564.827 2.03056 566.738 2.31829 568.656 2.87139L568.933 1.91055L569.21 0.949715C567.128 0.349166 565.039 0.0332329 562.947 0.00514817L562.933 1.00506ZM568.933 1.91055L568.656 2.87139C570.823 3.49631 573.001 3.54159 575.173 3.00393L574.933 2.03322L574.693 1.06252C572.865 1.51494 571.043 1.47843 569.21 0.949715L568.933 1.91055ZM574.933 2.03322L575.173 3.00393C577.052 2.53899 578.923 2.44003 580.794 2.7037L580.933 1.71349L581.073 0.723279C578.943 0.423169 576.814 0.537362 574.693 1.06252L574.933 2.03322ZM580.933 1.71349L580.794 2.7037C582.84 2.99218 584.888 3.13364 586.936 3.12788L586.933 2.12788L586.93 1.12789C584.978 1.13338 583.026 0.998587 581.073 0.723279L580.933 1.71349ZM586.933 2.12788L586.936 3.12788C588.951 3.12221 590.966 3.07104 592.981 2.97438L592.933 1.97553L592.885 0.976678C590.9 1.0719 588.915 1.1223 586.93 1.12789L586.933 2.12788ZM592.933 1.97553L592.981 2.97438C594.974 2.87876 596.968 2.80293 598.961 2.74689L598.933 1.74728L598.905 0.747678C596.898 0.804089 594.892 0.880422 592.885 0.976678L592.933 1.97553ZM598.933 1.74728L598.961 2.74689C600.957 2.69078 602.953 2.64728 604.949 2.61638L604.933 1.6165L604.918 0.616616C602.913 0.647647 600.909 0.691334 598.905 0.747678L598.933 1.74728ZM604.933 1.6165L604.949 2.61638C606.937 2.58559 608.925 2.58964 610.914 2.62851L610.933 1.6287L610.953 0.628894C608.941 0.589562 606.929 0.585469 604.918 0.616616L604.933 1.6165ZM610.933 1.6287L610.914 2.62851C612.876 2.66689 614.84 2.81442 616.803 3.07123L616.933 2.07967L617.063 1.08811C615.027 0.821835 612.99 0.668724 610.953 0.628894L610.933 1.6287ZM616.933 2.07967L616.803 3.07123C618.84 3.33752 620.877 3.49031 622.914 3.5295L622.933 2.52968L622.952 1.52987C620.99 1.49212 619.026 1.3449 617.063 1.08811L616.933 2.07967ZM622.933 2.52968L622.914 3.5295C625.005 3.56972 627.093 3.32705 629.177 2.80392L628.933 1.83403L628.69 0.864143C626.773 1.34548 624.861 1.56658 622.952 1.52987L622.933 2.52968ZM628.933 1.83403L629.177 2.80392C631.007 2.34438 632.83 2.37019 634.664 2.8836L634.933 1.92063L635.203 0.957662C633.036 0.351141 630.86 0.319218 628.69 0.864143L628.933 1.83403ZM634.933 1.92063L634.664 2.8836C636.788 3.47842 638.922 3.64339 641.059 3.37306L640.933 2.38097L640.808 1.38888C638.944 1.6247 637.078 1.48277 635.203 0.957662L634.933 1.92063ZM640.933 2.38097L641.059 3.37306C643.001 3.12733 644.942 3.05401 646.882 3.15284L646.933 2.15413L646.984 1.15543C644.925 1.05056 642.866 1.12845 640.808 1.38888L640.933 2.38097ZM646.933 2.15413L646.882 3.15284C648.857 3.25339 650.831 3.42991 652.806 3.68244L652.933 2.69052L653.06 1.6986C651.035 1.43965 649.01 1.25858 646.984 1.15543L646.933 2.15413ZM652.933 2.69052L652.806 3.68244C654.862 3.94534 656.919 4.0325 658.976 3.94369L658.933 2.94462L658.89 1.94555C656.947 2.02942 655.004 1.94718 653.06 1.6986L652.933 2.69052ZM658.933 2.94462L658.976 3.94369C661.014 3.8557 663.052 3.65085 665.089 3.3293L664.933 2.34154L664.777 1.35377C662.814 1.66366 660.852 1.86086 658.89 1.94555L658.933 2.94462ZM664.933 2.34154L665.089 3.3293C667.027 3.02339 668.963 2.90377 670.899 2.96998L670.933 1.97057L670.967 0.971151C668.903 0.900542 666.839 1.02824 664.777 1.35377L664.933 2.34154ZM670.933 1.97057L670.899 2.96998C672.965 3.04066 675.031 2.90663 677.095 2.56843L676.933 1.58159L676.771 0.59475C674.835 0.912007 672.901 1.03729 670.967 0.971151L670.933 1.97057ZM676.933 1.58159L677.095 2.56843C679.038 2.25005 680.979 2.10401 682.92 2.12985L682.933 1.12994L682.946 0.130025C680.887 0.10261 678.828 0.257671 676.771 0.59475L676.933 1.58159ZM682.933 1.12994L682.92 2.12985C684.885 2.15601 686.85 2.2849 688.816 2.51659L688.933 1.52347L689.05 0.530341C687.016 0.290581 684.981 0.157115 682.946 0.130025L682.933 1.12994ZM688.933 1.52347L688.816 2.51659C690.817 2.7524 692.817 2.98626 694.818 3.21819L694.933 2.22484L695.048 1.23149C693.049 0.999712 691.05 0.765995 689.05 0.530341L688.933 1.52347ZM694.933 2.22484L694.818 3.21819C696.854 3.45418 698.89 3.57931 700.926 3.59349L700.933 2.59351L700.94 1.59353C698.976 1.57986 697.013 1.45921 695.048 1.23149L694.933 2.22484ZM700.933 2.59351L700.926 3.59349C702.925 3.6074 704.924 3.62508 706.922 3.64653L706.933 2.64659L706.944 1.64665C704.943 1.62517 702.941 1.60747 700.94 1.59353L700.933 2.59351ZM706.933 2.64659L706.922 3.64653C708.913 3.6679 710.904 3.71607 712.896 3.79104L712.933 2.79175L712.971 1.79246C710.962 1.71681 708.953 1.66821 706.944 1.64665L706.933 2.64659ZM712.933 2.79175L712.896 3.79104C714.919 3.86723 716.943 3.87204 718.966 3.80547L718.933 2.80601L718.9 1.80655C716.924 1.87158 714.947 1.86688 712.971 1.79246L712.933 2.79175ZM718.933 2.80601L718.966 3.80547C720.954 3.74005 722.942 3.70991 724.931 3.71504L724.933 2.71504L724.936 1.71504C722.924 1.70985 720.912 1.74036 718.9 1.80655L718.933 2.80601ZM724.933 2.71504L724.931 3.71504C726.931 3.7202 728.932 3.72271 730.933 3.72256L730.933 2.72256L730.933 1.72256C728.934 1.7227 726.935 1.7202 724.936 1.71504L724.933 2.71504ZM730.933 2.72256L730.933 3.72256C732.96 3.72241 734.987 3.64115 737.013 3.47879L736.933 2.48198L736.853 1.48518C734.88 1.64329 732.906 1.72241 730.933 1.72256L730.933 2.72256ZM736.933 2.48198L737.013 3.47879C738.946 3.3239 740.88 3.36269 742.814 3.59535L742.933 2.60251L743.053 1.60967C740.987 1.36116 738.92 1.3196 736.853 1.48518L736.933 2.48198ZM742.933 2.60251L742.814 3.59535C744.938 3.85088 747.061 3.7114 749.177 3.18049L748.933 2.21056L748.69 1.24064C746.805 1.7135 744.928 1.83531 743.053 1.60967L742.933 2.60251ZM748.933 2.21056L749.177 3.18049C751.09 2.70029 752.998 2.4896 754.904 2.54582L754.933 1.54625L754.963 0.546686C752.868 0.484882 750.776 0.717063 748.69 1.24064L748.933 2.21056ZM754.933 1.54625L754.904 2.54582C756.859 2.60351 758.815 2.79174 760.772 3.11074L760.933 2.12377L761.094 1.13679C759.051 0.803797 757.007 0.607012 754.963 0.546686L754.933 1.54625ZM760.933 2.12377L760.772 3.11074C762.797 3.44081 764.823 3.69211 766.848 3.86457L766.933 2.86817L767.018 1.87178C765.044 1.70369 763.069 1.45872 761.094 1.13679L760.933 2.12377ZM766.933 2.86817L766.848 3.86457C768.978 4.04588 771.104 3.81826 773.219 3.18797L772.933 2.22961L772.648 1.27126C770.763 1.83292 768.888 2.03101 767.018 1.87178L766.933 2.86817ZM772.933 2.22961L773.219 3.18797C775.037 2.64623 776.842 2.63554 778.658 3.15463L778.933 2.19314L779.208 1.23164C777.024 0.607409 774.83 0.621028 772.648 1.27126L772.933 2.22961ZM778.933 2.19314L778.658 3.15463C780.776 3.7599 782.903 3.95763 785.034 3.74219L784.933 2.74726L784.833 1.75234C782.963 1.94138 781.09 1.7697 779.208 1.23164L778.933 2.19314ZM784.933 2.74726L785.034 3.74219C787.063 3.53703 789.091 3.24299 791.119 2.86018L790.933 1.87753L790.748 0.894893C788.775 1.26723 786.804 1.55301 784.833 1.75234L784.933 2.74726ZM790.933 1.87753L791.119 2.86018C793.02 2.50122 794.918 2.434 796.816 2.65742L796.933 1.66428L797.05 0.671132C794.948 0.423742 792.846 0.498701 790.748 0.894893L790.933 1.87753ZM796.933 1.66428L796.816 2.65742C798.868 2.89887 800.92 2.9798 802.972 2.90003L802.933 1.90079L802.894 0.901542C800.947 0.977238 798.999 0.900491 797.05 0.671132L796.933 1.66428ZM802.933 1.90079L802.972 2.90003C804.947 2.82325 806.923 2.81909 808.898 2.88752L808.933 1.88812L808.968 0.888723C806.943 0.818588 804.919 0.822861 802.894 0.901542L802.933 1.90079ZM808.933 1.88812L808.898 2.88752C810.862 2.95555 812.826 3.13063 814.791 3.4129L814.933 2.42306L815.075 1.43323C813.04 1.14081 811.004 0.959268 808.968 0.888723L808.933 1.88812ZM814.933 2.42306L814.791 3.4129C816.944 3.72226 819.095 3.53853 821.232 2.87008L820.933 1.91568L820.635 0.961285C818.772 1.54403 816.922 1.69855 815.075 1.43323L814.933 2.42306ZM820.933 1.91568L821.232 2.87008C823.077 2.29293 824.907 2.18972 826.739 2.55251L826.933 1.57157L827.127 0.590627C824.959 0.161048 822.789 0.28725 820.635 0.961285L820.933 1.91568ZM826.933 1.57157L826.739 2.55251C828.803 2.96141 830.87 3.16146 832.938 3.15175L832.933 2.15177L832.928 1.15178C830.997 1.16084 829.063 0.974079 827.127 0.590627L826.933 1.57157ZM832.933 2.15177L832.938 3.15175C834.887 3.14261 836.836 3.28258 838.786 3.57194L838.933 2.58276L839.08 1.59359C837.03 1.28952 834.98 1.14215 832.928 1.15178L832.933 2.15177ZM838.933 2.58276L838.786 3.57194C840.865 3.88031 842.945 3.93839 845.025 3.74576L844.933 2.75002L844.841 1.75428C842.921 1.93207 841.001 1.87865 839.08 1.59359L838.933 2.58276ZM844.933 2.75002L845.025 3.74576C847.036 3.55958 849.046 3.34126 851.057 3.09081L850.933 2.09848L850.809 1.10615C848.82 1.35401 846.83 1.57005 844.841 1.75428L844.933 2.75002ZM850.933 2.09848L851.057 3.09081C852.992 2.84974 854.926 2.80025 856.86 2.94212L856.933 1.94479L857.006 0.947474C854.94 0.79594 852.874 0.848905 850.809 1.10615L850.933 2.09848ZM856.933 1.94479L856.86 2.94212C858.88 3.09025 860.899 3.17869 862.919 3.20743L862.933 2.20753L862.947 1.20763C860.967 1.17945 858.987 1.09274 857.006 0.947474L856.933 1.94479ZM862.933 2.20753L862.919 3.20743C864.881 3.23534 866.843 3.37486 868.806 3.62608L868.933 2.63417L869.06 1.64226C867.023 1.38154 864.985 1.23663 862.947 1.20763L862.933 2.20753ZM868.933 2.63417L868.806 3.62608C870.93 3.89792 873.053 3.77449 875.17 3.25897L874.933 2.28738L874.696 1.31579C872.813 1.7746 870.936 1.88237 869.06 1.64226L868.933 2.63417ZM874.933 2.28738L875.17 3.25897C877.018 2.80865 878.86 2.79755 880.708 3.22498L880.933 2.25072L881.159 1.27645C879.006 0.778433 876.848 0.791774 874.696 1.31579L874.933 2.28738ZM880.933 2.25072L880.708 3.22498C882.882 3.7281 885.061 3.64559 887.226 2.98345L886.933 2.02718L886.641 1.07092C884.805 1.63228 882.984 1.69879 881.159 1.27645L880.933 2.25072ZM886.933 2.02718L887.226 2.98345C889.137 2.39869 891.041 2.10168 892.94 2.08814L892.933 1.08817L892.926 0.0881937C890.825 0.103171 888.729 0.432166 886.641 1.07092L886.933 2.02718ZM892.933 1.08817L892.94 2.08814C894.908 2.07412 896.875 2.15655 898.843 2.33547L898.933 1.33958L899.024 0.34369C896.991 0.158884 894.959 0.0737038 892.926 0.0881937L892.933 1.08817ZM898.933 1.33958L898.843 2.33547C900.828 2.51599 902.813 2.74104 904.799 3.01062L904.933 2.01971L905.068 1.0288C903.053 0.755272 901.038 0.526898 899.024 0.34369L898.933 1.33958ZM904.933 2.01971L904.799 3.01062C906.926 3.29949 909.053 3.18036 911.173 2.65658L910.933 1.68578L910.693 0.714971C908.813 1.17954 906.94 1.28303 905.068 1.0288L904.933 2.01971ZM910.933 1.68578L911.173 2.65658C912.972 2.21211 914.768 2.31812 916.587 2.98892L916.933 2.05066L917.279 1.11241C915.098 0.308343 912.894 0.171094 910.693 0.714971L910.933 1.68578ZM916.933 2.05066L916.587 2.98892C918.804 3.80622 921.043 3.82763 923.264 3.04979L922.933 2.10601L922.603 1.16223C920.823 1.78546 919.062 1.76997 917.279 1.11241L916.933 2.05066ZM922.933 2.10601L923.264 3.04979C925.056 2.42202 926.258 2.63356 927.117 3.35524L927.76 2.58937L928.403 1.8235C926.827 0.49963 924.81 0.388922 922.603 1.16223L922.933 2.10601ZM927.76 2.58937L927.117 3.35524C928.113 4.19139 928.82 5.46923 929.161 7.30601L930.145 7.12354L931.128 6.94106C930.726 4.77784 929.844 3.0329 928.403 1.8235L927.76 2.58937ZM930.145 7.12354L929.161 7.30601C929.507 9.16776 929.46 11.0272 929.018 12.8932L929.991 13.1235L930.964 13.3538C931.469 11.2199 931.525 9.07931 931.128 6.94106L930.145 7.12354ZM929.991 13.1235L929.018 12.8932C928.52 14.9965 928.368 17.1055 928.565 19.2162L929.56 19.1235L930.556 19.0309C930.38 17.1416 930.516 15.2506 930.964 13.3538L929.991 13.1235ZM929.56 19.1235L928.565 19.2162C928.749 21.1917 928.859 23.167 928.896 25.1422L929.896 25.1235L930.895 25.1049C930.858 23.0801 930.745 21.0554 930.556 19.0309L929.56 19.1235ZM929.896 25.1235L928.896 25.1422C928.934 27.1817 929.092 29.2207 929.371 31.2591L930.362 31.1235L931.353 30.9879C931.084 29.0264 930.932 27.0654 930.895 25.1049L929.896 25.1235ZM930.362 31.1235L929.371 31.2591C929.632 33.1642 929.618 35.0681 929.33 36.9738L930.318 37.1235L931.307 37.2733C931.624 35.179 931.64 33.0829 931.353 30.9879L930.362 31.1235ZM930.318 37.1235L929.33 36.9738C929.018 39.0333 928.895 41.0941 928.961 43.1556L929.96 43.1235L930.96 43.0915C930.897 41.1529 931.013 39.2138 931.307 37.2733L930.318 37.1235ZM929.96 43.1235L928.961 43.1556C929.026 45.1886 929.192 47.2214 929.459 49.2537L930.45 49.1235L931.442 48.9934C931.183 47.0257 931.023 45.0584 930.96 43.0915L929.96 43.1235ZM930.45 49.1235L929.459 49.2537C929.714 51.1997 929.808 53.1448 929.742 55.0895L930.742 55.1235L931.741 55.1576C931.811 53.1023 931.711 51.0474 931.442 48.9934L930.45 49.1235ZM930.742 55.1235L929.742 55.0895C929.674 57.084 929.59 59.0784 929.489 61.0729L930.487 61.1235L931.486 61.1742C931.588 59.1686 931.673 57.1631 931.741 55.1576L930.742 55.1235ZM930.487 61.1235L929.489 61.0729C929.385 63.1148 929.41 65.1567 929.563 67.1984L930.56 67.1235L931.558 67.0487C931.411 65.0904 931.387 63.1323 931.486 61.1742L930.487 61.1235ZM930.56 67.1235L929.563 67.1984C929.705 69.0817 929.521 70.9682 929.009 72.8626L929.975 73.1235L930.94 73.3845C931.509 71.2788 931.717 69.1653 931.558 67.0487L930.56 67.1235ZM929.975 73.1235L929.009 72.8626C928.42 75.0425 928.449 77.2311 929.093 79.4073L930.052 79.1235L931.01 78.8397C930.471 77.0159 930.448 75.2045 930.94 73.3845L929.975 73.1235ZM930.052 79.1235L929.093 79.4073C929.657 81.3146 929.923 83.2141 929.895 85.1088L930.895 85.1235L931.895 85.1383C931.926 83.033 931.63 80.9324 931.01 78.8397L930.052 79.1235ZM930.895 85.1235L929.895 85.1088C929.867 87.0386 929.637 88.9704 929.204 90.9052L930.18 91.1235L931.156 91.3419C931.618 89.2767 931.865 87.2085 931.895 85.1383L930.895 85.1235ZM930.18 91.1235L929.204 90.9052C928.73 93.0243 928.652 95.149 928.973 97.273L929.962 97.1235L930.951 96.9741C930.667 95.0981 930.735 93.2228 931.156 91.3419L930.18 91.1235ZM929.962 97.1235L928.973 97.273C929.273 99.2547 929.516 101.236 929.703 103.218L930.699 103.124L931.694 103.03C931.504 101.011 931.256 98.9924 930.951 96.9741L929.962 97.1235ZM930.699 103.124L929.703 103.218C929.881 105.107 929.75 106.998 929.305 108.895L930.278 109.124L931.252 109.352C931.745 107.249 931.893 105.14 931.694 103.03L930.699 103.124ZM930.278 109.124L929.305 108.895C928.819 110.965 928.567 113.039 928.548 115.115L929.548 115.124L930.548 115.132C930.565 113.208 930.799 111.282 931.252 109.352L930.278 109.124ZM929.548 115.124L928.548 115.115C928.53 117.158 928.643 119.2 928.887 121.242L929.88 121.124L930.873 121.005C930.638 119.047 930.53 117.09 930.548 115.132L929.548 115.124ZM929.88 121.124L928.887 121.242C929.12 123.196 929.217 125.15 929.178 127.103L930.178 127.124L931.178 127.144C931.219 125.097 931.117 123.051 930.873 121.005L929.88 121.124ZM930.178 127.124L929.178 127.103C929.137 129.147 929.228 131.19 929.452 133.232L930.446 133.124L931.44 133.015C931.225 131.057 931.138 129.1 931.178 127.144L930.178 127.124ZM930.446 133.124L929.452 133.232C929.661 135.146 929.621 137.059 929.33 138.973L930.319 139.124L931.307 139.274C931.624 137.188 931.668 135.101 931.44 133.015L930.446 133.124ZM930.319 139.124L929.33 138.973C929.02 141.012 928.833 143.052 928.769 145.092L929.769 145.124L930.768 145.155C930.83 143.195 931.009 141.235 931.307 139.274L930.319 139.124ZM929.769 145.124L928.769 145.092C928.707 147.095 928.651 149.097 928.603 151.099L929.603 151.124L930.602 151.148C930.65 149.15 930.706 147.152 930.768 145.155L929.769 145.124ZM929.603 151.124L928.603 151.099C928.553 153.167 928.713 155.234 929.081 157.299L930.065 157.124L931.05 156.948C930.705 155.013 930.556 153.08 930.602 151.148L929.603 151.124ZM930.065 157.124L929.081 157.299C929.431 159.261 929.663 161.222 929.776 163.182L930.775 163.124L931.773 163.066C931.655 161.026 931.413 158.986 931.05 156.948L930.065 157.124ZM930.775 163.124L929.776 163.182C929.889 165.12 929.822 167.058 929.575 168.997L930.567 169.124L931.559 169.25C931.822 167.189 931.893 165.127 931.773 163.066L930.775 163.124ZM930.567 169.124L929.575 168.997C929.34 170.845 928.731 172.331 927.782 173.503L928.559 174.132L929.337 174.762C930.556 173.255 931.285 171.402 931.559 169.25L930.567 169.124ZM928.559 174.132L927.782 173.503C927.366 174.017 926.895 174.312 926.358 174.44C925.805 174.572 925.105 174.545 924.222 174.279L923.933 175.236L923.644 176.193C924.761 176.53 925.832 176.622 926.822 176.386C927.826 176.146 928.668 175.587 929.337 174.762L928.559 174.132ZM923.933 175.236L924.222 174.279C922.148 173.653 920.068 173.285 917.984 173.178L917.933 174.177L917.882 175.175C919.798 175.274 921.718 175.612 923.644 176.193L923.933 175.236ZM917.933 174.177L917.984 173.178C915.905 173.071 913.827 173.21 911.751 173.594L911.933 174.577L912.115 175.561C914.039 175.205 915.961 175.077 917.882 175.175L917.933 174.177ZM911.933 174.577L911.751 173.594C909.804 173.954 907.857 174.154 905.912 174.194L905.933 175.194L905.954 176.194C908.009 176.151 910.063 175.94 912.115 175.561L911.933 174.577ZM905.933 175.194L905.912 174.194C903.92 174.236 901.928 174.255 899.935 174.25L899.933 175.25L899.931 176.25C901.939 176.255 903.946 176.236 905.954 176.194L905.933 175.194ZM899.933 175.25L899.935 174.25C898.003 174.246 896.07 174.046 894.134 173.649L893.933 174.629L893.732 175.608C895.796 176.032 897.863 176.246 899.931 176.25L899.933 175.25ZM893.933 174.629L894.134 173.649C891.938 173.199 889.745 173.397 887.576 174.225L887.933 175.159L888.29 176.094C890.121 175.394 891.928 175.238 893.732 175.608L893.933 174.629ZM887.933 175.159L887.576 174.225C885.811 174.9 884.069 174.89 882.3 174.192L881.933 175.122L881.566 176.053C883.797 176.932 886.056 176.947 888.29 176.094L887.933 175.159ZM881.933 175.122L882.3 174.192C880.068 173.312 877.808 173.301 875.574 174.161L875.933 175.094L876.292 176.028C878.058 175.348 879.799 175.356 881.566 176.053L881.933 175.122ZM875.933 175.094L875.574 174.161C873.727 174.872 871.904 175.077 870.087 174.793L869.933 175.781L869.779 176.769C871.962 177.11 874.139 176.857 876.292 176.028L875.933 175.094ZM869.933 175.781L870.087 174.793C867.989 174.465 865.889 174.453 863.79 174.758L863.933 175.747L864.076 176.737C865.978 176.461 867.877 176.472 869.779 176.769L869.933 175.781ZM863.933 175.747L863.79 174.758C861.852 175.038 859.916 175.133 857.98 175.041L857.933 176.04L857.886 177.039C859.95 177.136 862.014 177.036 864.076 176.737L863.933 175.747ZM857.933 176.04L857.98 175.041C856.025 174.948 854.068 174.725 852.111 174.372L851.933 175.356L851.755 176.34C853.798 176.709 855.841 176.942 857.886 177.039L857.933 176.04ZM851.933 175.356L852.111 174.372C850.003 173.991 847.893 173.96 845.784 174.279L845.933 175.268L846.083 176.256C847.974 175.97 849.863 175.998 851.755 176.34L851.933 175.356ZM845.933 175.268L845.784 174.279C843.911 174.562 842.038 174.487 840.16 174.049L839.933 175.023L839.706 175.997C841.828 176.491 843.956 176.578 846.083 176.256L845.933 175.268ZM839.933 175.023L840.16 174.049C838.072 173.563 835.979 173.371 833.884 173.475L833.933 174.474L833.983 175.473C835.888 175.378 837.795 175.552 839.706 175.997L839.933 175.023ZM833.933 174.474L833.884 173.475C831.923 173.572 829.963 173.553 828.003 173.416L827.933 174.414L827.864 175.412C829.903 175.554 831.943 175.574 833.983 175.473L833.933 174.474ZM827.933 174.414L828.003 173.416C825.963 173.274 823.923 173.254 821.884 173.355L821.933 174.354L821.983 175.352C823.943 175.255 825.903 175.275 827.864 175.412L827.933 174.414ZM821.933 174.354L821.884 173.355C819.822 173.457 817.763 173.749 815.706 174.229L815.933 175.203L816.161 176.177C818.104 175.723 820.044 175.448 821.983 175.352L821.933 174.354ZM815.933 175.203L815.706 174.229C813.877 174.656 812.053 174.601 810.216 174.058L809.933 175.017L809.65 175.976C811.813 176.615 813.989 176.684 816.161 176.177L815.933 175.203ZM809.933 175.017L810.216 174.058C808.074 173.425 805.919 173.291 803.763 173.662L803.933 174.648L804.103 175.633C805.948 175.315 807.793 175.427 809.65 175.976L809.933 175.017ZM803.933 174.648L803.763 173.662C801.841 173.994 799.922 174.092 798.003 173.958L797.933 174.955L797.863 175.953C799.944 176.098 802.025 175.992 804.103 175.633L803.933 174.648ZM797.933 174.955L798.003 173.958C796.016 173.819 794.029 173.641 792.042 173.424L791.933 174.418L791.824 175.412C793.837 175.632 795.85 175.812 797.863 175.953L797.933 174.955ZM791.933 174.418L792.042 173.424C789.916 173.191 787.793 173.357 785.677 173.917L785.933 174.884L786.189 175.851C788.074 175.352 789.95 175.207 791.824 175.412L791.933 174.418ZM785.933 174.884L785.677 173.917C783.809 174.412 781.949 174.509 780.09 174.214L779.933 175.202L779.776 176.189C781.917 176.529 784.057 176.415 786.189 175.851L785.933 174.884ZM779.933 175.202L780.09 174.214C778.061 173.892 776.033 173.66 774.003 173.517L773.933 174.514L773.863 175.512C775.834 175.651 777.805 175.876 779.776 176.189L779.933 175.202ZM773.933 174.514L774.003 173.517C771.88 173.367 769.761 173.604 767.652 174.222L767.933 175.182L768.214 176.142C770.105 175.588 771.986 175.38 773.863 175.512L773.933 174.514ZM767.933 175.182L767.652 174.222C765.838 174.754 764.035 174.747 762.22 174.203L761.933 175.161L761.646 176.119C763.831 176.774 766.028 176.782 768.214 176.142L767.933 175.182ZM761.933 175.161L762.22 174.203C760.13 173.576 758.033 173.264 755.93 173.271L755.933 174.271L755.936 175.271C757.834 175.265 759.736 175.546 761.646 176.119L761.933 175.161ZM755.933 174.271L755.93 173.271C753.853 173.277 751.778 173.522 749.707 174.003L749.933 174.977L750.16 175.951C752.088 175.503 754.013 175.277 755.936 175.271L755.933 174.271ZM749.933 174.977L749.707 174.003C747.862 174.432 746.022 174.416 744.176 173.955L743.933 174.925L743.691 175.895C745.844 176.433 748.004 176.452 750.16 175.951L749.933 174.977ZM743.933 174.925L744.176 173.955C742.076 173.43 739.97 173.242 737.861 173.394L737.933 174.391L738.005 175.389C739.896 175.252 741.79 175.42 743.691 175.895L743.933 174.925ZM737.933 174.391L737.861 173.394C735.901 173.536 733.94 173.56 731.98 173.469L731.933 174.468L731.886 175.467C733.926 175.562 735.966 175.536 738.005 175.389L737.933 174.391ZM731.933 174.468L731.98 173.469C729.951 173.374 727.922 173.367 725.893 173.449L725.933 174.448L725.973 175.448C727.944 175.368 729.915 175.374 731.886 175.467L731.933 174.468ZM725.933 174.448L725.893 173.449C723.885 173.53 721.876 173.636 719.868 173.767L719.933 174.765L719.998 175.763C721.99 175.633 723.982 175.528 725.973 175.448L725.933 174.448ZM719.933 174.765L719.868 173.767C717.91 173.895 715.952 173.899 713.994 173.78L713.933 174.778L713.872 175.776C715.914 175.901 717.956 175.896 719.998 175.763L719.933 174.765ZM713.933 174.778L713.994 173.78C711.982 173.657 709.969 173.572 707.956 173.525L707.933 174.525L707.91 175.524C709.897 175.571 711.885 175.655 713.872 175.776L713.933 174.778ZM707.933 174.525L707.956 173.525C705.868 173.476 703.782 173.702 701.701 174.199L701.933 175.172L702.166 176.144C704.084 175.686 705.998 175.48 707.91 175.524L707.933 174.525ZM701.933 175.172L701.701 174.199C699.821 174.649 697.948 174.738 696.074 174.471L695.933 175.461L695.792 176.451C697.919 176.754 700.045 176.651 702.166 176.144L701.933 175.172ZM695.933 175.461L696.074 174.471C693.974 174.171 691.872 174.193 689.772 174.535L689.933 175.522L690.094 176.509C691.994 176.199 693.892 176.18 695.792 176.451L695.933 175.461ZM689.933 175.522L689.772 174.535C687.883 174.843 685.996 174.831 684.106 174.499L683.933 175.484L683.76 176.469C685.87 176.84 687.983 176.853 690.094 176.509L689.933 175.522ZM683.933 175.484L684.106 174.499C682.039 174.136 679.97 173.989 677.9 174.058L677.933 175.058L677.966 176.057C679.896 175.993 681.827 176.13 683.76 176.469L683.933 175.484ZM677.933 175.058L677.9 174.058C675.895 174.125 673.89 174.206 671.886 174.301L671.933 175.3L671.98 176.298C673.976 176.204 675.971 176.124 677.966 176.057L677.933 175.058ZM671.933 175.3L671.886 174.301C669.946 174.393 668.005 174.311 666.064 174.055L665.933 175.046L665.802 176.038C667.861 176.309 669.921 176.396 671.98 176.298L671.933 175.3ZM665.933 175.046L666.064 174.055C663.969 173.779 661.874 173.803 659.78 174.127L659.933 175.115L660.086 176.104C661.992 175.809 663.897 175.787 665.802 176.038L665.933 175.046ZM659.933 175.115L659.78 174.127C657.81 174.432 655.84 174.646 653.871 174.77L653.933 175.768L653.996 176.766C656.026 176.639 658.056 176.418 660.086 176.104L659.933 175.115ZM653.933 175.768L653.871 174.77C652.002 174.887 650.127 174.644 648.241 174.034L647.933 174.985L647.625 175.936C649.739 176.62 651.864 176.899 653.996 176.766L653.933 175.768ZM647.933 174.985L648.241 174.034C646.048 173.324 643.839 173.302 641.642 173.97L641.933 174.927L642.224 175.884C644.028 175.335 645.818 175.352 647.625 175.936L647.933 174.985ZM641.933 174.927L641.642 173.97C639.743 174.548 637.852 174.802 635.967 174.738L635.933 175.738L635.899 176.737C638.014 176.809 640.124 176.523 642.224 175.884L641.933 174.927ZM635.933 175.738L635.967 174.738C633.932 174.669 631.898 174.706 629.863 174.848L629.933 175.846L630.003 176.843C631.968 176.706 633.934 176.671 635.899 176.737L635.933 175.738ZM629.933 175.846L629.863 174.848C627.998 174.979 626.126 174.741 624.242 174.128L623.933 175.079L623.624 176.03C625.74 176.719 627.868 176.992 630.003 176.843L629.933 175.846ZM623.933 175.079L624.242 174.128C622.035 173.41 619.813 173.43 617.609 174.186L617.933 175.132L618.257 176.078C620.053 175.462 621.831 175.447 623.624 176.03L623.933 175.079ZM617.933 175.132L617.609 174.186C615.779 174.813 613.969 174.913 612.156 174.498L611.933 175.473L611.71 176.447C613.897 176.949 616.087 176.822 618.257 176.078L617.933 175.132ZM611.933 175.473L612.156 174.498C610.018 174.008 607.873 173.982 605.732 174.42L605.933 175.4L606.134 176.379C607.993 175.999 609.848 176.021 611.71 176.447L611.933 175.473ZM605.933 175.4L605.732 174.42C603.884 174.799 602.038 174.75 600.184 174.27L599.933 175.238L599.683 176.206C601.828 176.762 603.983 176.82 606.134 176.379L605.933 175.4ZM599.933 175.238L600.184 174.27C598.002 173.706 595.813 173.761 593.639 174.43L593.933 175.385L594.227 176.341C596.053 175.78 597.864 175.736 599.683 176.206L599.933 175.238ZM593.933 175.385L593.639 174.43C591.739 175.014 589.849 175.275 587.964 175.217L587.933 176.217L587.903 177.217C590.017 177.281 592.127 176.988 594.227 176.341L593.933 175.385ZM587.933 176.217L587.964 175.217C586.02 175.158 584.076 174.934 582.129 174.544L581.933 175.525L581.737 176.505C583.79 176.916 585.846 177.154 587.903 177.217L587.933 176.217ZM581.933 175.525L582.129 174.544C580.076 174.133 578.021 173.895 575.964 173.831L575.933 174.83L575.902 175.83C577.845 175.89 579.79 176.115 581.737 176.505L581.933 175.525ZM575.933 174.83L575.964 173.831C573.89 173.766 571.816 173.932 569.746 174.327L569.933 175.309L570.12 176.291C572.05 175.923 573.977 175.77 575.902 175.83L575.933 174.83ZM569.933 175.309L569.746 174.327C567.786 174.701 565.827 174.951 563.869 175.077L563.933 176.075L563.997 177.073C566.039 176.941 568.081 176.681 570.12 176.291L569.933 175.309ZM563.933 176.075L563.869 175.077C562.021 175.196 560.163 174.907 558.288 174.195L557.933 175.13L557.578 176.065C559.703 176.871 561.845 177.212 563.997 177.073L563.933 176.075ZM557.933 175.13L558.288 174.195C556.065 173.353 553.819 173.333 551.592 174.139L551.933 175.079L552.274 176.02C554.047 175.377 555.801 175.391 557.578 176.065L557.933 175.13ZM551.933 175.079L551.592 174.139C549.717 174.819 547.858 175.084 546.007 174.947L545.933 175.944L545.859 176.941C548.008 177.101 550.149 176.789 552.274 176.02L551.933 175.079ZM545.933 175.944L546.007 174.947C544.022 174.799 542.038 174.606 540.053 174.367L539.933 175.36L539.813 176.352C541.829 176.595 543.844 176.791 545.859 176.941L545.933 175.944ZM539.933 175.36L540.053 174.367C538.015 174.121 535.976 173.995 533.937 173.987L533.933 174.987L533.93 175.987C535.89 175.994 537.852 176.116 539.813 176.352L539.933 175.36ZM533.933 174.987L533.937 173.987C531.935 173.98 529.933 173.978 527.931 173.982L527.933 174.982L527.935 175.982C529.933 175.978 531.931 175.98 533.93 175.987L533.933 174.987ZM527.933 174.982L527.931 173.982C525.97 173.985 524.009 173.874 522.047 173.649L521.933 174.642L521.819 175.635C523.857 175.87 525.896 175.985 527.935 175.982L527.933 174.982ZM521.933 174.642L522.047 173.649C519.976 173.411 517.904 173.396 515.833 173.605L515.933 174.6L516.033 175.595C517.962 175.4 519.89 175.414 521.819 175.635L521.933 174.642ZM515.933 174.6L515.833 173.605C513.905 173.799 511.978 173.782 510.05 173.554L509.933 174.547L509.816 175.54C511.888 175.785 513.961 175.803 516.033 175.595L515.933 174.6ZM509.933 174.547L510.05 173.554C507.98 173.309 505.909 173.285 503.839 173.481L503.933 174.477L504.027 175.472C505.957 175.29 507.886 175.312 509.816 175.54L509.933 174.547ZM503.933 174.477L503.839 173.481C501.891 173.666 499.943 173.697 497.996 173.575L497.933 174.573L497.871 175.571C499.923 175.7 501.975 175.667 504.027 175.472L503.933 174.477ZM497.933 174.573L497.996 173.575C495.998 173.45 494 173.319 492.002 173.182L491.933 174.18L491.865 175.177C493.867 175.315 495.869 175.446 497.871 175.571L497.933 174.573ZM491.933 174.18L492.002 173.182C489.977 173.043 487.952 172.98 485.927 172.992L485.933 173.992L485.939 174.992C487.914 174.98 489.889 175.042 491.865 175.177L491.933 174.18ZM485.933 173.992L485.927 172.992C483.806 173.004 481.693 173.395 479.592 174.157L479.933 175.097L480.274 176.037C482.173 175.349 484.06 175.003 485.939 174.992L485.933 173.992ZM479.933 175.097L479.592 174.157C477.757 174.823 475.943 174.965 474.131 174.6L473.933 175.58L473.735 176.56C475.923 177.002 478.109 176.823 480.274 176.037L479.933 175.097ZM473.933 175.58L474.131 174.6C472.002 174.17 469.87 174.164 467.741 174.581L467.933 175.562L468.125 176.544C469.996 176.177 471.864 176.183 473.735 176.56L473.933 175.58ZM467.933 175.562L467.741 174.581C465.844 174.953 463.952 175.018 462.059 174.778L461.933 175.77L461.808 176.762C463.915 177.029 466.022 176.956 468.125 176.544L467.933 175.562ZM461.933 175.77L462.059 174.778C460.046 174.523 458.034 174.307 456.021 174.129L455.933 175.125L455.845 176.121C457.832 176.297 459.82 176.511 461.808 176.762L461.933 175.77ZM455.933 175.125L456.021 174.129C453.973 173.947 451.924 173.916 449.875 174.036L449.933 175.034L449.991 176.032C451.942 175.918 453.893 175.948 455.845 176.121L455.933 175.125ZM449.933 175.034L449.875 174.036C447.907 174.151 445.939 174.171 443.971 174.097L443.933 175.096L443.895 176.096C445.927 176.172 447.96 176.151 449.991 176.032L449.933 175.034ZM443.933 175.096L443.971 174.097C441.886 174.018 439.803 174.203 437.723 174.649L437.933 175.627L438.143 176.605C440.064 176.192 441.98 176.023 443.895 176.096L443.933 175.096ZM437.933 175.627L437.723 174.649C435.869 175.048 434.02 175.027 432.164 174.587L431.933 175.56L431.702 176.533C433.846 177.041 435.997 177.066 438.143 176.605L437.933 175.627ZM431.933 175.56L432.164 174.587C430.012 174.076 427.853 174.078 425.701 174.592L425.933 175.564L426.165 176.537C428.013 176.096 429.855 176.094 431.702 176.533L431.933 175.56ZM425.933 175.564L425.701 174.592C423.784 175.049 421.873 175.248 419.963 175.191L419.933 176.19L419.903 177.19C421.994 177.253 424.082 177.035 426.165 176.537L425.933 175.564ZM419.933 176.19L419.963 175.191C417.949 175.13 415.935 175.112 413.92 175.138L413.933 176.138L413.946 177.137C415.932 177.112 417.917 177.13 419.903 177.19L419.933 176.19ZM413.933 176.138L413.92 175.138C411.92 175.163 409.92 175.189 407.92 175.215L407.933 176.215L407.946 177.215C409.946 177.189 411.946 177.163 413.946 177.137L413.933 176.138ZM407.933 176.215L407.92 175.215C405.991 175.241 404.06 175.063 402.127 174.682L401.933 175.663L401.739 176.644C403.806 177.052 405.876 177.243 407.946 177.215L407.933 176.215ZM401.933 175.663L402.127 174.682C400.052 174.272 397.974 174.107 395.895 174.187L395.933 175.186L395.972 176.185C397.892 176.111 399.814 176.264 401.739 176.644L401.933 175.663ZM395.933 175.186L395.895 174.187C393.863 174.265 391.831 174.441 389.799 174.715L389.933 175.706L390.067 176.697C392.035 176.432 394.004 176.261 395.972 176.185L395.933 175.186ZM389.933 175.706L389.799 174.715C387.886 174.973 385.974 174.979 384.061 174.731L383.933 175.723L383.805 176.715C385.892 176.985 387.98 176.979 390.067 176.697L389.933 175.706ZM383.933 175.723L384.061 174.731C381.967 174.46 379.872 174.489 377.779 174.816L377.933 175.804L378.088 176.792C379.994 176.494 381.899 176.468 383.805 176.715L383.933 175.723ZM377.933 175.804L377.779 174.816C375.856 175.117 373.936 175.187 372.016 175.027L371.933 176.023L371.85 177.02C373.93 177.193 376.01 177.117 378.088 176.792L377.933 175.804ZM371.933 176.023L372.016 175.027C369.983 174.857 367.95 174.789 365.917 174.822L365.933 175.821L365.949 176.821C367.916 176.79 369.883 176.856 371.85 177.02L371.933 176.023ZM365.933 175.821L365.917 174.822C363.965 174.853 362.012 174.745 360.059 174.496L359.933 175.488L359.807 176.48C361.854 176.74 363.901 176.854 365.949 176.821L365.933 175.821ZM359.933 175.488L360.059 174.496C358.073 174.244 356.087 173.948 354.101 173.61L353.933 174.596L353.765 175.582C355.779 175.925 357.793 176.224 359.807 176.48L359.933 175.488ZM353.933 174.596L354.101 173.61C352.012 173.255 349.92 173.187 347.828 173.409L347.933 174.403L348.039 175.398C349.947 175.195 351.855 175.257 353.765 175.582L353.933 174.596ZM347.933 174.403L347.828 173.409C345.865 173.617 343.903 173.713 341.941 173.698L341.933 174.698L341.925 175.698C343.963 175.714 346.001 175.614 348.039 175.398L347.933 174.403ZM341.933 174.698L341.941 173.698C339.914 173.682 337.887 173.747 335.861 173.894L335.933 174.892L336.005 175.889C337.979 175.746 339.952 175.682 341.925 175.698L341.933 174.698ZM335.933 174.892L335.861 173.894C333.851 174.04 331.841 174.215 329.831 174.421L329.933 175.415L330.035 176.41C332.025 176.207 334.015 176.033 336.005 175.889L335.933 174.892ZM329.933 175.415L329.831 174.421C327.852 174.623 325.873 174.763 323.894 174.841L323.933 175.84L323.973 176.84C325.993 176.76 328.014 176.617 330.035 176.41L329.933 175.415ZM323.933 175.84L323.894 174.841C321.942 174.918 319.99 174.854 318.038 174.648L317.933 175.643L317.828 176.637C319.876 176.853 321.924 176.92 323.973 176.84L323.933 175.84ZM317.933 175.643L318.038 174.648C316.004 174.434 313.969 174.326 311.934 174.323L311.933 175.323L311.932 176.323C313.897 176.326 315.863 176.43 317.828 176.637L317.933 175.643ZM311.933 175.323L311.934 174.323C309.961 174.32 307.987 174.24 306.013 174.082L305.933 175.079L305.853 176.076C307.879 176.238 309.906 176.32 311.932 176.323L311.933 175.323ZM305.933 175.079L306.013 174.082C303.916 173.914 301.82 174.05 299.728 174.489L299.933 175.468L300.138 176.446C302.046 176.046 303.95 175.923 305.853 176.076L305.933 175.079ZM299.933 175.468L299.728 174.489C297.831 174.887 295.938 174.977 294.046 174.762L293.933 175.756L293.82 176.75C295.928 176.989 298.035 176.887 300.138 176.446L299.933 175.468ZM293.933 175.756L294.046 174.762C292.036 174.534 290.027 174.336 288.017 174.166L287.933 175.163L287.849 176.159C289.84 176.327 291.83 176.524 293.82 176.75L293.933 175.756ZM287.933 175.163L288.017 174.166C286.037 174 284.056 173.774 282.075 173.489L281.933 174.479L281.791 175.469C283.81 175.759 285.83 175.989 287.849 176.159L287.933 175.163ZM281.933 174.479L282.075 173.489C279.9 173.177 277.73 173.431 275.582 174.236L275.933 175.172L276.284 176.108C278.136 175.415 279.967 175.207 281.791 175.469L281.933 174.479ZM275.933 175.172L275.582 174.236C273.781 174.911 272.004 174.977 270.217 174.448L269.933 175.406L269.649 176.365C271.863 177.022 274.086 176.932 276.284 176.108L275.933 175.172ZM269.933 175.406L270.217 174.448C268.14 173.831 266.056 173.485 263.968 173.411L263.933 174.411L263.898 175.41C265.81 175.478 267.726 175.795 269.649 176.365L269.933 175.406ZM263.933 174.411L263.968 173.411C261.864 173.337 259.763 173.589 257.669 174.162L257.933 175.126L258.197 176.091C260.103 175.569 262.002 175.343 263.898 175.41L263.933 174.411ZM257.933 175.126L257.669 174.162C255.779 174.679 253.897 174.855 252.019 174.693L251.933 175.689L251.847 176.686C253.969 176.868 256.087 176.668 258.197 176.091L257.933 175.126ZM251.933 175.689L252.019 174.693C250.004 174.52 247.99 174.39 245.976 174.305L245.933 175.304L245.891 176.303C247.876 176.387 249.862 176.515 251.847 176.686L251.933 175.689ZM245.933 175.304L245.976 174.305C243.959 174.219 241.942 174.184 239.925 174.2L239.933 175.2L239.941 176.2C241.924 176.184 243.907 176.218 245.891 176.303L245.933 175.304ZM239.933 175.2L239.925 174.2C237.981 174.216 236.037 174.068 234.091 173.756L233.933 174.744L233.775 175.731C235.829 176.06 237.885 176.217 239.941 176.2L239.933 175.2ZM233.933 174.744L234.091 173.756C231.939 173.411 229.788 173.559 227.649 174.193L227.933 175.152L228.217 176.111C230.078 175.559 231.927 175.435 233.775 175.731L233.933 174.744ZM227.933 175.152L227.649 174.193C225.791 174.743 223.945 174.859 222.1 174.547L221.933 175.533L221.766 176.519C223.921 176.884 226.075 176.745 228.217 176.111L227.933 175.152ZM221.933 175.533L222.1 174.547C219.985 174.189 217.869 174.202 215.755 174.585L215.933 175.569L216.111 176.553C217.998 176.211 219.881 176.2 221.766 176.519L221.933 175.533ZM215.933 175.569L215.755 174.585C213.831 174.933 211.909 175.053 209.989 174.946L209.933 175.945L209.877 176.943C211.957 177.059 214.035 176.929 216.111 176.553L215.933 175.569ZM209.933 175.945L209.989 174.946C207.967 174.834 205.946 174.786 203.924 174.805L203.933 175.805L203.942 176.804C205.92 176.787 207.899 176.833 209.877 176.943L209.933 175.945ZM203.933 175.805L203.924 174.805C201.947 174.822 199.97 174.771 197.994 174.652L197.933 175.65L197.873 176.648C199.896 176.77 201.919 176.823 203.942 176.804L203.933 175.805ZM197.933 175.65L197.994 174.652C196.023 174.532 194.052 174.326 192.08 174.032L191.933 175.021L191.786 176.01C193.814 176.313 195.843 176.525 197.873 176.648L197.933 175.65ZM191.933 175.021L192.08 174.032C189.986 173.72 187.89 173.711 185.795 174.003L185.933 174.994L186.071 175.984C187.977 175.718 189.88 175.727 191.786 176.01L191.933 175.021ZM185.933 174.994L185.795 174.003C183.898 174.268 182.002 174.237 180.103 173.91L179.933 174.895L179.763 175.881C181.865 176.243 183.969 176.278 186.071 175.984L185.933 174.994ZM179.933 174.895L180.103 173.91C178.044 173.555 175.983 173.389 173.922 173.412L173.933 174.412L173.944 175.412C175.883 175.39 177.822 175.546 179.763 175.881L179.933 174.895ZM173.933 174.412L173.922 173.412C171.921 173.435 169.921 173.459 167.92 173.485L167.933 174.485L167.946 175.484C169.945 175.459 171.945 175.435 173.944 175.412L173.933 174.412ZM167.933 174.485L167.92 173.485C165.839 173.511 163.761 173.789 161.687 174.315L161.933 175.284L162.179 176.253C164.105 175.765 166.027 175.509 167.946 175.484L167.933 174.485ZM161.933 175.284L161.687 174.315C159.842 174.783 158.004 174.801 156.161 174.369L155.933 175.343L155.705 176.316C157.862 176.821 160.024 176.8 162.179 176.253L161.933 175.284ZM155.933 175.343L156.161 174.369C154.112 173.889 152.061 173.572 150.008 173.419L149.933 174.416L149.859 175.413C151.806 175.559 153.754 175.859 155.705 176.316L155.933 175.343ZM149.933 174.416L150.008 173.419C147.916 173.263 145.825 173.393 143.738 173.809L143.933 174.789L144.128 175.77C146.041 175.389 147.95 175.271 149.859 175.413L149.933 174.416ZM143.933 174.789L143.738 173.809C141.876 174.179 140.017 174.155 138.153 173.734L137.933 174.71L137.713 175.685C139.849 176.167 141.99 176.196 144.128 175.77L143.933 174.789ZM137.933 174.71L138.153 173.734C136.079 173.266 134.001 173.043 131.922 173.067L131.933 174.067L131.945 175.067C133.865 175.045 135.787 175.25 137.713 175.685L137.933 174.71ZM131.933 174.067L131.922 173.067C129.807 173.091 127.7 173.473 125.604 174.204L125.933 175.148L126.263 176.092C128.166 175.428 130.059 175.088 131.945 175.067L131.933 174.067ZM125.933 175.148L125.604 174.204C123.773 174.843 121.962 174.956 120.149 174.554L119.933 175.531L119.717 176.507C121.905 176.992 124.093 176.849 126.263 176.092L125.933 175.148ZM119.933 175.531L120.149 174.554C118.074 174.095 115.995 173.885 113.913 173.926L113.933 174.926L113.953 175.925C115.872 175.888 117.792 176.081 119.717 176.507L119.933 175.531ZM113.933 174.926L113.913 173.926C111.95 173.965 109.987 173.895 108.024 173.716L107.933 174.712L107.842 175.707C109.879 175.893 111.916 175.966 113.953 175.925L113.933 174.926ZM107.933 174.712L108.024 173.716C106 173.531 103.976 173.42 101.952 173.38L101.933 174.38L101.914 175.38C103.89 175.418 105.866 175.527 107.842 175.707L107.933 174.712ZM101.933 174.38L101.952 173.38C99.8526 173.34 97.7565 173.61 95.6671 174.186L95.9331 175.15L96.1991 176.114C98.1097 175.587 100.014 175.343 101.914 175.38L101.933 174.38ZM95.9331 175.15L95.6671 174.186C93.7751 174.708 91.8914 174.893 90.011 174.747L89.9331 175.743L89.8552 176.74C91.9748 176.906 94.0912 176.696 96.1991 176.114L95.9331 175.15ZM89.9331 175.743L90.011 174.747C88.0489 174.593 86.086 174.327 84.1223 173.949L83.9331 174.931L83.744 175.913C85.7802 176.305 87.8173 176.581 89.8552 176.74L89.9331 175.743ZM83.9331 174.931L84.1223 173.949C82.0324 173.547 79.9391 173.437 77.8452 173.622L77.9331 174.618L78.021 175.614C79.9271 175.446 81.8339 175.545 83.744 175.913L83.9331 174.931ZM77.9331 174.618L77.8452 173.622C75.8097 173.801 73.7748 174.091 71.7409 174.489L71.9331 175.47L72.1253 176.452C74.0913 176.067 76.0565 175.787 78.021 175.614L77.9331 174.618ZM71.9331 175.47L71.7409 174.489C69.8834 174.853 68.0289 174.811 66.1674 174.363L65.9331 175.335L65.6988 176.307C67.8373 176.822 69.9828 176.871 72.1253 176.452L71.9331 175.47ZM65.9331 175.335L66.1674 174.363C64.0286 173.847 61.8828 173.799 59.74 174.221L59.9331 175.202L60.1262 176.183C61.9834 175.818 63.8376 175.858 65.6988 176.307L65.9331 175.335ZM59.9331 175.202L59.74 174.221C57.8387 174.595 55.9412 174.676 54.0439 174.464L53.9331 175.458L53.8223 176.452C55.925 176.687 58.0275 176.597 60.1262 176.183L59.9331 175.202ZM53.9331 175.458L54.0439 174.464C52.0052 174.237 49.966 174.13 47.9266 174.143L47.9331 175.143L47.9396 176.143C49.9002 176.131 51.861 176.234 53.8223 176.452L53.9331 175.458ZM47.9331 175.143L47.9266 174.143C45.8657 174.157 43.806 174.358 41.7481 174.745L41.9331 175.728L42.1181 176.71C44.0603 176.345 46.0006 176.156 47.9396 176.143L47.9331 175.143ZM41.9331 175.728L41.7481 174.745C39.9349 175.086 38.1185 174.925 36.2799 174.245L35.9331 175.183L35.5863 176.121C37.7477 176.92 39.9313 177.122 42.1181 176.71L41.9331 175.728ZM35.9331 175.183L36.2799 174.245C34.1654 173.463 32.0352 173.106 29.896 173.186L29.9331 174.185L29.9702 175.184C31.831 175.115 33.7009 175.424 35.5863 176.121L35.9331 175.183ZM29.9331 174.185L29.896 173.186C27.8378 173.262 25.781 173.518 23.7263 173.952L23.9331 174.93L24.1399 175.909C26.0852 175.497 28.0284 175.256 29.9702 175.184L29.9331 174.185ZM23.9331 174.93L23.7263 173.952C21.8055 174.358 19.8882 174.522 17.9725 174.447L17.9331 175.446L17.8937 176.445C19.9781 176.527 22.0607 176.348 24.1399 175.909L23.9331 174.93ZM17.9331 175.446L17.9725 174.447C15.9294 174.366 13.8864 174.418 11.8437 174.601L11.9331 175.597L12.0225 176.593C13.9798 176.417 15.9368 176.368 17.8937 176.445L17.9331 175.446ZM11.9331 175.597L11.8437 174.601C9.94061 174.772 8.03673 174.667 6.12917 174.286L5.9331 175.266L5.73703 176.247C7.82946 176.665 9.92558 176.781 12.0225 176.593L11.9331 175.597ZM5.9331 175.266L6.12917 174.286C5.23135 174.106 4.70173 173.826 4.40959 173.537C4.14957 173.28 4.00538 172.948 4.02661 172.436L3.02747 172.395L2.02834 172.353C1.98666 173.357 2.29528 174.26 3.00381 174.96C3.68021 175.628 4.63486 176.026 5.73703 176.247L5.9331 175.266ZM3.02747 172.395L4.02661 172.436C4.09146 170.876 4.05163 169.08 3.91062 167.054L2.91304 167.124L1.91545 167.193C2.05285 169.167 2.08931 170.886 2.02834 172.353L3.02747 172.395ZM2.91304 167.124L3.91062 167.054C3.7656 164.97 3.35984 162.891 2.69639 160.819L1.74399 161.124L0.791587 161.428C1.40846 163.356 1.78207 165.277 1.91545 167.193L2.91304 167.124ZM1.74399 161.124L2.69639 160.819C2.09537 158.941 1.88551 157.076 2.05854 155.216L1.06284 155.124L0.0671434 155.031C-0.131961 157.171 0.112282 159.306 0.791587 161.428L1.74399 161.124ZM1.06284 155.124L2.05854 155.216C2.24427 153.22 2.44121 151.224 2.64937 149.227L1.65476 149.124L0.66015 149.02C0.451224 151.024 0.253555 153.027 0.0671434 155.031L1.06284 155.124ZM1.65476 149.124L2.64937 149.227C2.86792 147.131 2.78418 145.035 2.39918 142.943L1.41569 143.124L0.43219 143.304C0.783043 145.212 0.858681 147.116 0.66015 149.02L1.65476 149.124ZM1.41569 143.124L2.39918 142.943C2.0612 141.105 2.17262 139.268 2.74104 137.417L1.78511 137.124L0.829169 136.83C0.169191 138.979 0.0343294 141.142 0.43219 143.304L1.41569 143.124ZM1.78511 137.124L2.74104 137.417C3.37738 135.345 3.76112 133.267 3.88954 131.185L2.89144 131.124L1.89334 131.062C1.77505 132.98 1.42124 134.902 0.829169 136.83L1.78511 137.124ZM2.89144 131.124L3.88954 131.185C4.01984 129.072 3.79769 126.963 3.22719 124.862L2.26211 125.124L1.29704 125.386C1.81234 127.284 2.00974 129.175 1.89334 131.062L2.89144 131.124ZM2.26211 125.124L3.22719 124.862C2.70604 122.942 2.44025 121.027 2.42714 119.117L1.42716 119.124L0.427183 119.13C0.441526 121.22 0.732372 123.305 1.29704 125.386L2.26211 125.124ZM1.42716 119.124L2.42714 119.117C2.41382 117.178 2.57674 115.238 2.91642 113.296L1.93138 113.124L0.946338 112.951C0.58627 115.009 0.413035 117.069 0.427183 119.13L1.42716 119.124ZM1.93138 113.124L2.91642 113.296C3.27757 111.231 3.43177 109.165 3.37838 107.098L2.37871 107.124L1.37905 107.149C1.42896 109.082 1.28494 111.016 0.946338 112.951L1.93138 113.124ZM2.37871 107.124L3.37838 107.098C3.32477 105.022 3.03725 102.949 2.51748 100.88L1.54761 101.124L0.577744 101.367C1.0628 103.298 1.32935 105.225 1.37905 107.149L2.37871 107.124ZM1.54761 101.124L2.51748 100.88C2.06039 99.0603 2.11182 97.2468 2.67704 95.419L1.72167 95.1235L0.766309 94.8281C0.094609 97.0003 0.0299969 99.1867 0.577744 101.367L1.54761 101.124ZM1.72167 95.1235L2.67704 95.419C3.32508 93.3233 3.63627 91.2188 3.60548 89.1089L2.60559 89.1235L1.60569 89.1381C1.63328 91.0283 1.35519 92.9238 0.766309 94.8281L1.72167 95.1235ZM2.60559 89.1235L3.60548 89.1089C3.57599 87.0883 3.48381 85.0676 3.32895 83.0471L2.33187 83.1235L1.3348 83.2C1.48652 85.1794 1.57681 87.1588 1.60569 89.1381L2.60559 89.1235ZM2.33187 83.1235L3.32895 83.0471C3.17516 81.0406 3.00165 79.0341 2.80842 77.0277L1.81302 77.1235L0.817627 77.2194C1.00961 79.2129 1.182 81.2065 1.3348 83.2L2.33187 83.1235ZM1.81302 77.1235L2.80842 77.0277C2.61625 75.0322 2.4379 73.0368 2.27337 71.0414L1.27675 71.1235L0.280136 71.2057C0.445417 73.2103 0.624581 75.2148 0.817627 77.2194L1.81302 77.1235ZM1.27675 71.1235L2.27337 71.0414C2.11773 69.1537 2.27638 67.2637 2.75266 65.3671L1.78277 65.1235L0.812889 64.88C0.284669 66.9834 0.105969 69.0934 0.280136 71.2057L1.27675 71.1235ZM1.78277 65.1235L2.75266 65.3671C3.26733 63.3177 3.61663 61.266 3.79983 59.2124L2.80378 59.1235L1.80774 59.0347C1.6341 60.9811 1.30273 62.9294 0.812889 64.88L1.78277 65.1235ZM2.80378 59.1235L3.79983 59.2124C3.99144 57.0644 3.71486 54.9231 2.98079 52.7972L2.03555 53.1235L1.09031 53.4499C1.73739 55.3239 1.97296 57.1826 1.80774 59.0347L2.80378 59.1235ZM2.03555 53.1235L2.98079 52.7972C2.36345 51.0092 2.36489 49.2396 2.98539 47.4513L2.04064 47.1235L1.0959 46.7957C0.328472 49.0074 0.326517 51.2378 1.09031 53.4499L2.03555 53.1235ZM2.04064 47.1235L2.98539 47.4513C3.74151 45.2722 3.84805 43.0733 3.29465 40.879L2.32501 41.1235L1.35537 41.3681C1.81075 43.1737 1.72771 44.9748 1.0959 46.7957L2.04064 47.1235ZM2.32501 41.1235L3.29465 40.879C2.81289 38.9688 2.6105 37.0642 2.68466 35.1625L1.68542 35.1235L0.686183 35.0846C0.604347 37.1829 0.828341 39.2783 1.35537 41.3681L2.32501 41.1235ZM1.68542 35.1235L2.68466 35.1625C2.7648 33.1079 2.677 31.0536 2.42148 29.0001L1.42913 29.1235L0.436786 29.247C0.67899 31.1935 0.762054 33.1392 0.686183 35.0846L1.68542 35.1235ZM1.42913 29.1235L2.42148 29.0001C2.18385 27.0903 2.20695 25.1813 2.49108 23.2706L1.50195 23.1235L0.512828 22.9764C0.202138 25.0658 0.1767 27.1568 0.436786 29.247L1.42913 29.1235ZM1.50195 23.1235L2.49108 23.2706C2.80508 21.159 2.76122 19.0462 2.36037 16.9368L1.37795 17.1235L0.395534 17.3102C0.75483 19.2009 0.793637 21.0881 0.512828 22.9764L1.50195 23.1235ZM1.37795 17.1235L2.36037 16.9368C1.99915 15.036 1.93148 13.1387 2.15622 11.2412L1.16316 11.1235L0.1701 11.0059C-0.0789182 13.1084 -0.00339115 15.211 0.395534 17.3102L1.37795 17.1235ZM1.16316 11.1235L2.15622 11.2412C2.39349 9.23787 2.62069 7.23459 2.83783 5.2313L1.84365 5.12354L0.849473 5.01578C0.633048 7.01249 0.40659 9.0092 0.1701 11.0059L1.16316 11.1235ZM1.84365 5.12354L2.83783 5.2313C2.94652 4.22848 3.01974 3.46267 3.05568 2.94248C3.07336 2.68677 3.08373 2.46731 3.08216 2.30157C3.08145 2.22686 3.07833 2.11666 3.05991 2.00606C3.05234 1.96063 3.03067 1.83806 2.96517 1.70186C2.92793 1.62443 2.67311 1.12354 2.05096 1.12354V2.12354V3.12354C1.43864 3.12354 1.19248 2.63046 1.16276 2.56864C1.10478 2.44807 1.08947 2.34894 1.0871 2.33476C1.07909 2.28666 1.08177 2.27021 1.08225 2.3205C1.08305 2.40476 1.07733 2.5603 1.06044 2.8046C1.02729 3.28441 0.957558 4.01859 0.849473 5.01578L1.84365 5.12354ZM2.05096 2.12354V1.12354C2.03667 1.12354 2 1.12372 1.95387 1.12808C1.93146 1.1302 1.88748 1.13503 1.83316 1.14693C1.80134 1.1539 1.66014 1.18398 1.50733 1.28184C1.42555 1.33421 1.28195 1.44285 1.17415 1.63522C1.05142 1.85424 1.01513 2.1123 1.07425 2.35805C1.16762 2.7462 1.45335 2.92986 1.47687 2.94617C1.60378 3.03419 1.7248 3.07136 1.72674 3.07202C1.78234 3.09091 1.82941 3.10117 1.83679 3.10283C1.85445 3.1068 1.87023 3.10994 1.88123 3.11206C1.92194 3.11989 1.97557 3.1287 2.03067 3.13742C2.14761 3.15591 2.32815 3.18284 2.56884 3.2178C3.05211 3.28799 3.79459 3.39295 4.79492 3.53253L4.93311 2.54212L5.0713 1.55171C4.07162 1.41223 3.33374 1.30791 2.8563 1.23856C2.61663 1.20376 2.44672 1.17836 2.34313 1.16198C2.31757 1.15793 2.29745 1.15466 2.28221 1.1521C2.27464 1.15082 2.26886 1.14982 2.26464 1.14908C2.26024 1.1483 2.25865 1.14799 2.2592 1.1481C2.25955 1.14816 2.26105 1.14845 2.26345 1.14895C2.26573 1.14941 2.27001 1.15031 2.27574 1.1516C2.27586 1.15162 2.31769 1.16052 2.37008 1.17832C2.37041 1.17843 2.49034 1.21513 2.61666 1.30274C2.63988 1.31884 2.92545 1.50231 3.01878 1.89029C3.07788 2.13597 3.04159 2.39394 2.91891 2.61288C2.81116 2.80518 2.66762 2.91375 2.58595 2.96605C2.43336 3.06378 2.29249 3.09373 2.26114 3.1006C2.20729 3.1124 2.16391 3.11714 2.14222 3.11919C2.09752 3.12342 2.0628 3.12354 2.05096 3.12354V2.12354Z"
        fill="black" />
</svg>