<svg width="412" height="177" viewBox="0 0 412 177" fill="none" xmlns="http://www.w3.org/2000/svg">
    <path
        d="M407.959 136.81C407.963 134.712 408.272 132.615 408.881 130.528C409.417 128.689 409.475 126.86 409.06 125.028C408.58 122.904 408.523 120.774 408.881 118.646C409.205 116.717 409.317 114.79 409.217 112.864C409.114 110.902 408.899 108.937 408.576 106.974C408.229 104.866 408.234 102.753 408.592 100.646C408.912 98.7605 408.902 96.8749 408.56 94.9893C408.177 92.8712 408.183 90.7479 408.568 88.6299C408.909 86.7557 408.886 84.8805 408.506 83.0049C408.072 80.8647 408.105 78.7202 408.607 76.583C409.051 74.6947 409.161 72.8081 408.935 70.9268C408.683 68.8211 408.771 66.7159 409.193 64.6143C409.574 62.7171 409.648 60.8199 409.42 58.9268C409.175 56.8937 409.032 54.859 408.998 52.8252C408.964 50.8133 408.973 48.798 409.013 46.7861C409.055 44.7329 409.264 42.6804 409.646 40.6299C409.991 38.7819 409.913 36.9318 409.404 35.0752C408.814 32.9233 408.749 30.7572 409.209 28.5986C409.601 26.7541 409.553 24.9093 409.068 23.0596C408.509 20.9273 408.408 18.7861 408.763 16.6455C409.086 14.7068 409.224 12.7692 409.177 10.833C409.13 8.83226 409.085 7.02301 409.052 5.41113C409.04 4.82834 408.865 4.53907 408.646 4.36426C408.387 4.15839 407.894 3.96862 407.006 3.96582C404.879 3.96 402.757 3.55961 400.654 2.7627C398.869 2.08592 397.103 2.05424 395.326 2.66113C393.212 3.38254 391.085 3.68418 388.951 3.56738C386.999 3.46053 385.044 3.49665 383.092 3.66895C381.064 3.84778 379.033 3.94369 377.006 3.9502C374.912 3.95661 372.823 3.66206 370.74 3.08301C368.812 2.54701 366.886 2.24696 364.967 2.16895C363.071 2.09203 361.169 2.30662 359.263 2.81738C357.197 3.37096 355.126 3.69451 353.052 3.79395C350.951 3.89466 348.849 3.67862 346.756 3.14551C344.908 2.67539 343.068 2.64246 341.224 3.05176C339.089 3.52614 336.947 3.54815 334.81 3.11426C332.93 2.73205 331.048 2.7025 329.17 3.02051C327.008 3.38614 324.846 3.22013 322.701 2.53613C320.896 1.96108 319.105 1.95098 317.302 2.50488C315.217 3.1465 313.119 3.4926 311.021 3.52832C309.011 3.56253 307 3.55653 304.99 3.52051C302.976 3.4844 300.957 3.41307 298.943 3.29395C297.011 3.17988 295.08 3.25506 293.146 3.52832C291.088 3.81935 289.027 3.92562 286.967 3.84082C284.986 3.75919 283.001 3.73381 281.021 3.77051C278.949 3.80869 276.878 3.62276 274.81 3.20801C272.921 2.82898 271.032 2.77083 269.146 3.04395C267.082 3.34272 265.017 3.43797 262.951 3.3252C260.925 3.21457 258.899 3.01866 256.873 2.73926C254.921 2.46998 252.964 2.34344 251.013 2.36426C249.051 2.38531 247.086 2.51592 245.123 2.75488C243.103 3.00074 241.081 3.18589 239.06 3.30176C237.047 3.41717 235.034 3.48676 233.021 3.5127C230.999 3.53871 228.973 3.48976 226.951 3.37207C225.008 3.25895 223.059 3.3154 221.115 3.53613C219.026 3.77309 216.937 3.72328 214.849 3.3877C212.899 3.07389 210.947 2.91018 208.998 2.8877C207.041 2.86531 205.08 2.96753 203.123 3.2002C201.038 3.44791 198.949 3.42548 196.865 3.1377C194.956 2.87441 193.047 2.8685 191.138 3.12207C189.028 3.4025 186.917 3.33069 184.81 2.90332C182.944 2.52424 181.076 2.52865 179.209 2.91895C177.114 3.35677 175.012 3.47834 172.912 3.28613C170.939 3.10563 168.963 3.00658 166.99 2.98145C164.929 2.95501 162.868 2.73705 160.81 2.33301C158.94 1.96602 157.072 1.97323 155.201 2.34863C153.151 2.75998 151.098 2.99861 149.045 3.0752C147.036 3.15 145.022 3.20115 143.013 3.22363C141.021 3.24595 139.029 3.28383 137.037 3.34082C134.98 3.39968 132.92 3.28633 130.865 2.98926C128.899 2.70496 126.931 2.51649 124.967 2.43457C122.996 2.3525 121.023 2.3549 119.052 2.44238C117.03 2.53226 115.005 2.55115 112.982 2.49707C110.971 2.44323 108.954 2.358 106.943 2.23926C105.025 2.12628 103.107 2.24333 101.185 2.59082C99.1178 2.96491 97.0452 3.12183 94.9744 3.05957C93.0309 3.00121 91.0834 3.10448 89.1384 3.37207C87.0162 3.66363 84.8948 3.55823 82.7791 3.05957C80.9379 2.62533 79.0991 2.64267 77.2556 3.11426C75.1447 3.65472 73.0243 3.823 70.9041 3.60645C68.9613 3.40799 67.0183 3.37445 65.0759 3.5127C63.029 3.65835 60.9822 3.65491 58.9353 3.50488C56.9231 3.35727 54.9083 3.17097 52.8962 2.94238C50.9167 2.71744 48.9302 2.55134 46.9509 2.4502C45.0421 2.35298 43.131 2.51294 41.2166 2.92676C39.0816 3.38821 36.9385 3.40138 34.8025 2.96582C32.9119 2.58067 31.0252 2.51188 29.1384 2.7627C27.0692 3.03793 24.9979 3.0968 22.9275 2.93457C20.8967 2.77544 18.8634 2.52452 16.8337 2.17676C14.9892 1.86113 13.1437 1.97401 11.2869 2.52051C9.16782 3.14392 7.03715 3.34606 4.90405 3.12207C4.2835 3.05678 3.76879 2.98795 3.36499 2.94238C3.22773 3.31332 3.04327 3.76018 2.79468 4.25488C2.2219 5.39437 1.94109 6.88426 2.01343 8.77051C2.08781 10.708 2.34202 12.6489 2.77905 14.5908C3.26409 16.7467 3.22358 18.9076 2.66187 21.0596C2.17078 22.9394 2.03963 24.8143 2.27124 26.6846C2.51684 28.6652 2.82188 30.6488 3.1853 32.6299C3.58224 34.794 3.44279 36.957 2.77124 39.1064C2.19045 40.9649 2.05163 42.8107 2.34155 44.6533C2.66629 46.7168 2.78876 48.7829 2.70874 50.8486C2.63366 52.7874 2.73406 54.7285 3.01343 56.6689C3.319 58.7931 3.2264 60.9181 2.73218 63.0361C2.30233 64.8776 2.31798 66.7152 2.79468 68.5596C3.34881 70.703 3.41596 72.8556 2.98999 75.0049C2.6166 76.8897 2.57843 78.7711 2.8728 80.6533C3.1964 82.7209 3.30861 84.7945 3.20093 86.8643C3.09858 88.8331 3.07693 90.8018 3.14624 92.7705C3.21945 94.8466 3.05566 96.925 2.65405 98.9971C2.29486 100.849 2.35382 102.702 2.82593 104.56C3.34874 106.615 3.67857 108.678 3.82593 110.739C3.97408 112.812 3.8959 114.887 3.59155 116.958C3.29848 118.952 3.02042 120.948 2.75562 122.942C2.50845 124.805 2.63724 126.67 3.14624 128.544C3.71167 130.623 4.00766 132.714 4.02905 134.802C4.04983 136.838 3.95867 138.875 3.7478 140.911C3.54738 142.846 3.53536 144.781 3.71655 146.716C3.91253 148.808 3.82348 150.901 3.44312 152.989C3.08695 154.945 2.86346 156.903 2.77905 158.856C2.69509 160.804 2.75963 162.752 2.96655 164.7C3.19056 166.808 3.06852 168.919 2.60718 171.021C2.41663 171.888 2.54646 172.322 2.70093 172.536C2.85261 172.746 3.2116 173.001 4.07593 173.075C6.05361 173.245 8.02504 173.318 9.98999 173.294C12.046 173.269 14.1078 173.413 16.1619 173.731C18.0627 174.026 19.9645 174.039 21.865 173.763C23.9137 173.465 25.9631 173.323 28.0134 173.341C30.012 173.358 32.0149 173.372 34.0134 173.38C36.0554 173.389 38.0976 173.53 40.1384 173.802C42.0793 174.061 44.0193 174.141 45.9587 174.052C47.9349 173.961 49.9119 173.802 51.8884 173.575C53.9928 173.333 56.1006 173.421 58.2009 173.841C60.0385 174.208 61.8761 174.127 63.7244 173.583C65.8382 172.961 67.9636 172.732 70.0916 172.911C72.132 173.083 74.1705 173.389 76.2087 173.817C78.1649 174.228 80.1223 174.5 82.0759 174.638C84.0155 174.775 85.956 174.735 87.8962 174.521C89.9091 174.298 91.9223 174.12 93.9353 173.981C96.0212 173.837 98.111 173.958 100.193 174.349C102.079 174.702 103.965 174.73 105.849 174.427C107.918 174.094 109.989 173.98 112.06 174.091C114.013 174.195 115.966 174.164 117.92 173.997C119.913 173.826 121.91 173.636 123.904 173.427C126.041 173.203 128.173 173.417 130.295 174.06C132.19 174.634 134.078 174.877 135.959 174.794C137.863 174.71 139.776 174.355 141.693 173.731C143.814 173.042 145.952 172.784 148.092 172.966C150.084 173.135 152.076 173.286 154.068 173.411C156 173.532 157.932 173.45 159.865 173.177C162.04 172.869 164.21 173.128 166.357 173.935C168.165 174.614 169.951 174.7 171.74 174.2C173.787 173.629 175.837 173.217 177.888 172.974C179.929 172.732 181.971 172.625 184.013 172.646C186.052 172.666 188.093 172.804 190.131 173.06C192.149 173.312 194.167 173.625 196.185 173.997C198.037 174.338 199.888 174.262 201.748 173.771C203.841 173.217 205.942 172.986 208.045 173.075C210.069 173.161 212.099 173.32 214.123 173.552C216.11 173.78 218.097 173.967 220.084 174.122C222.036 174.274 223.991 174.29 225.943 174.161C227.956 174.028 229.97 173.938 231.982 173.888C233.972 173.838 235.961 173.76 237.951 173.653C240.045 173.541 242.137 173.722 244.224 174.192C246.043 174.602 247.86 174.507 249.693 173.903C251.872 173.186 254.066 173.109 256.256 173.677C258.115 174.159 259.966 174.22 261.818 173.872C263.925 173.476 266.037 173.433 268.146 173.739C270.119 174.026 272.096 174.229 274.068 174.349C275.945 174.462 277.826 174.24 279.717 173.677C281.889 173.029 284.077 172.986 286.256 173.552C288.156 174.046 290.052 174.233 291.943 174.122C294.007 174 296.076 174.081 298.138 174.356C300.035 174.61 301.935 174.568 303.834 174.231C305.895 173.866 307.957 173.695 310.021 173.731C312.049 173.767 314.079 173.891 316.107 174.099C317.98 174.29 319.856 174.131 321.74 173.614C323.82 173.043 325.908 172.743 327.998 172.724C330.118 172.704 332.233 173.068 334.334 173.794C336.2 174.438 338.052 174.648 339.896 174.442C341.872 174.222 343.85 173.925 345.826 173.56C347.953 173.166 350.084 173.196 352.209 173.646C354.079 174.041 355.949 174.059 357.818 173.7C359.969 173.288 362.12 173.376 364.263 173.95C366.071 174.434 367.875 174.373 369.693 173.771C371.851 173.056 374.026 172.915 376.201 173.349C378.088 173.725 379.973 173.765 381.857 173.481C383.921 173.171 385.987 173.069 388.052 173.169C390.007 173.264 391.965 173.225 393.92 173.052C396.004 172.867 398.088 172.949 400.17 173.294C402.149 173.621 404.129 173.882 406.107 174.083C406.987 174.172 407.399 174.006 407.584 173.849C407.747 173.71 407.943 173.397 407.92 172.63C407.861 170.758 407.842 168.814 407.865 166.802C407.889 164.704 408.215 162.606 408.842 160.521C409.396 158.676 409.486 156.846 409.107 155.013C408.685 152.971 408.398 150.924 408.248 148.88C408.099 146.86 408.013 144.837 407.99 142.817C407.967 140.815 407.954 138.812 407.959 136.81ZM409.99 142.802C410.013 144.78 410.095 146.761 410.24 148.739C410.384 150.694 410.656 152.65 411.06 154.606C411.508 156.773 411.411 158.943 410.763 161.099C410.189 163.012 409.888 164.916 409.865 166.817C409.842 168.804 409.862 170.725 409.92 172.567C409.953 173.655 409.688 174.684 408.881 175.372C408.094 176.041 407.022 176.189 405.904 176.075C403.883 175.87 401.862 175.597 399.842 175.263C397.924 174.945 396.006 174.874 394.092 175.044C392.048 175.225 390.003 175.268 387.959 175.169C386.025 175.075 384.09 175.175 382.154 175.466C380.039 175.784 377.922 175.73 375.81 175.31C373.986 174.946 372.159 175.059 370.318 175.669C368.137 176.391 365.939 176.467 363.748 175.88C361.891 175.383 360.042 175.314 358.193 175.669C356.064 176.078 353.93 176.056 351.802 175.606C349.93 175.21 348.056 175.182 346.185 175.528C344.163 175.903 342.138 176.201 340.115 176.427C337.96 176.667 335.81 176.421 333.677 175.685C331.779 175.029 329.893 174.706 328.013 174.724C326.103 174.741 324.19 175.017 322.271 175.544C320.156 176.125 318.031 176.309 315.904 176.091C313.933 175.889 311.961 175.766 309.99 175.731C308.055 175.697 306.115 175.857 304.177 176.2C302.078 176.572 299.975 176.614 297.873 176.333C295.937 176.075 294.002 176.008 292.068 176.122C289.961 176.246 287.853 176.034 285.756 175.489C283.935 175.016 282.121 175.047 280.295 175.591C278.187 176.219 276.065 176.47 273.943 176.341C271.917 176.218 269.891 176.01 267.865 175.716C265.976 175.441 264.085 175.485 262.193 175.841C260.046 176.245 257.896 176.161 255.756 175.606C253.945 175.137 252.139 175.202 250.318 175.802C248.151 176.515 245.968 176.629 243.787 176.138C241.875 175.707 239.966 175.544 238.06 175.646C236.051 175.753 234.039 175.838 232.029 175.888C230.043 175.937 228.054 176.022 226.068 176.153C224.021 176.288 221.974 176.282 219.927 176.122C217.915 175.965 215.9 175.767 213.888 175.536C211.914 175.31 209.94 175.151 207.967 175.067C206.071 174.987 204.169 175.204 202.263 175.708C200.124 176.274 197.973 176.361 195.826 175.966C193.845 175.601 191.861 175.292 189.881 175.044C187.919 174.798 185.958 174.665 183.998 174.646C182.041 174.626 180.081 174.734 178.123 174.966C176.176 175.197 174.223 175.577 172.271 176.122C170.061 176.738 167.846 176.633 165.654 175.81C163.802 175.113 161.971 174.903 160.146 175.161C158.08 175.454 156.011 175.533 153.943 175.403C151.936 175.277 149.927 175.129 147.92 174.958C146.061 174.8 144.196 175.02 142.318 175.63C140.238 176.307 138.146 176.694 136.052 176.786C133.935 176.879 131.819 176.611 129.717 175.974C127.839 175.405 125.969 175.216 124.107 175.411C122.102 175.622 120.097 175.817 118.092 175.989C116.046 176.165 113.997 176.192 111.951 176.083C110.023 175.98 108.092 176.085 106.162 176.396C104.048 176.736 101.93 176.713 99.8181 176.317C97.9017 175.958 95.9886 175.842 94.0759 175.974C92.0897 176.111 90.1013 176.293 88.115 176.513C86.0556 176.741 83.9954 176.776 81.9353 176.63C79.8897 176.485 77.8455 176.2 75.8025 175.771C73.8419 175.359 71.878 175.068 69.9197 174.903C68.0486 174.746 66.172 174.942 64.2869 175.497C62.1352 176.13 59.9727 176.234 57.8103 175.802C55.9119 175.422 54.0172 175.35 52.1228 175.567C50.1005 175.8 48.0751 175.959 46.0525 176.052C43.9925 176.146 41.9314 176.061 39.8728 175.786C37.9149 175.525 35.9546 175.388 33.9978 175.38C31.9978 175.372 29.9978 175.358 27.9978 175.341C26.0493 175.324 24.0963 175.456 22.1462 175.739C20.0486 176.044 17.9466 176.033 15.8494 175.708C13.9056 175.407 11.963 175.27 10.0212 175.294C7.989 175.319 5.94755 175.243 3.90405 175.067C2.75637 174.969 1.71056 174.585 1.07593 173.708C0.446969 172.836 0.406418 171.728 0.654053 170.599C1.07049 168.703 1.17482 166.809 0.974365 164.919C0.756577 162.87 0.69049 160.813 0.779053 158.763C0.867577 156.718 1.10231 154.673 1.47437 152.63C1.82225 150.719 1.90303 148.811 1.72437 146.903C1.53092 144.838 1.54182 142.773 1.75562 140.708C1.95893 138.745 2.04915 136.779 2.02905 134.817C2.00927 132.907 1.73825 130.994 1.21655 129.075C0.638753 126.95 0.495504 124.812 0.779053 122.677C1.04517 120.673 1.32047 118.665 1.61499 116.661C1.89813 114.733 1.97147 112.806 1.83374 110.88C1.69514 108.942 1.38221 107.002 0.888428 105.06C0.344156 102.919 0.277396 100.768 0.693115 98.6221C1.06655 96.6962 1.21373 94.7704 1.14624 92.8486C1.07469 90.8195 1.09537 88.7839 1.20093 86.7549C1.30109 84.826 1.19839 82.8969 0.89624 80.9658C0.564956 78.8491 0.610045 76.7284 1.02905 74.6143C1.39568 72.7639 1.34482 70.9158 0.86499 69.0596C0.307852 66.9045 0.275554 64.7409 0.779053 62.583C1.21808 60.7022 1.30677 58.825 1.03687 56.9502C0.740526 54.8912 0.628915 52.8312 0.70874 50.7705C0.783629 48.8366 0.669629 46.9019 0.36499 44.9658C0.0255329 42.8088 0.195944 40.6539 0.86499 38.5127C1.44316 36.6626 1.56106 34.8247 1.22437 32.9893C0.854123 30.9709 0.537229 28.9534 0.286865 26.9346C0.0230002 24.8066 0.17138 22.6779 0.724365 20.5596C1.20681 18.7128 1.24067 16.8712 0.825928 15.0283C0.362921 12.9708 0.0926302 10.9105 0.0134277 8.84863C-0.0676335 6.73714 0.239577 4.8905 1.00562 3.36426C1.27086 2.83657 1.42498 2.44949 1.51343 2.2002C1.41804 1.98052 1.34075 1.69128 1.4978 1.37207C1.65268 1.05941 1.91868 0.9373 1.97437 0.911133C2.06541 0.868347 2.14373 0.848663 2.17749 0.84082C2.24991 0.824062 2.31253 0.819162 2.33374 0.817383C2.38468 0.813263 2.43284 0.80957 2.45874 0.80957L2.83374 0.87207V0.879883C2.87768 0.885666 2.92989 0.888063 2.98999 0.895508C3.40442 0.946823 4.10903 1.02486 5.10718 1.12988C6.97235 1.32612 8.84512 1.15172 10.7244 0.598633C12.8663 -0.0316195 15.0232 -0.168915 17.1775 0.200195C19.147 0.537563 21.1153 0.78814 23.0837 0.942383C25.0128 1.09354 26.9425 1.04279 28.8728 0.786133C30.9845 0.505245 33.1009 0.575062 35.2087 1.00488C37.0717 1.38439 38.9306 1.37655 40.7947 0.973633C42.8789 0.523143 44.9704 0.351204 47.0603 0.458008C49.0788 0.56124 51.0968 0.728749 53.115 0.958008C55.1009 1.18367 57.0902 1.36699 59.0759 1.5127C61.0279 1.65589 62.9833 1.65944 64.9353 1.52051C66.9927 1.37411 69.0502 1.40414 71.1072 1.61426C72.9864 1.80622 74.867 1.66015 76.7556 1.17676C78.9104 0.625059 81.0751 0.605984 83.2322 1.11426C85.1145 1.5582 86.997 1.64577 88.8728 1.3877C90.9261 1.10542 92.9821 0.997797 95.0369 1.05957C96.9652 1.11746 98.8943 0.971459 100.826 0.62207C102.903 0.246268 104.988 0.116397 107.068 0.239258C109.055 0.356569 111.042 0.443829 113.029 0.49707C115.004 0.549963 116.983 0.537914 118.959 0.450195C120.986 0.36009 123.017 0.350189 125.045 0.43457C127.078 0.519264 129.114 0.711048 131.146 1.00488C133.089 1.28585 135.033 1.40402 136.974 1.34863C138.98 1.29124 140.992 1.24608 142.998 1.22363C144.987 1.20133 146.977 1.15709 148.967 1.08301C150.912 1.01056 152.862 0.778699 154.81 0.387695C156.938 -0.0392387 159.073 -0.0459593 161.201 0.37207C163.142 0.75313 165.084 0.956757 167.021 0.981445C169.047 1.00733 171.074 1.10861 173.099 1.29395C174.998 1.46748 176.899 1.35597 178.802 0.958008C180.933 0.512852 183.069 0.51002 185.201 0.942383C187.093 1.32661 188.985 1.39626 190.873 1.14551C192.962 0.867865 195.057 0.872651 197.146 1.16113C199.061 1.42514 200.975 1.4433 202.888 1.21582C204.93 0.973207 206.971 0.864481 209.013 0.887695C211.062 0.911144 213.115 1.08195 215.162 1.41113C217.073 1.71852 218.987 1.76857 220.896 1.55176C222.951 1.31863 225.005 1.26042 227.06 1.37988C229.036 1.49491 231.015 1.53804 232.99 1.5127C234.975 1.48716 236.966 1.41562 238.951 1.30176C240.929 1.18827 242.91 1.01134 244.888 0.770508C246.923 0.522893 248.962 0.393805 250.998 0.37207C253.045 0.350349 255.092 0.480523 257.138 0.762695C259.111 1.03491 261.088 1.22534 263.06 1.33301C264.994 1.43852 266.93 1.3476 268.865 1.06738C270.978 0.761686 273.091 0.823845 275.201 1.24707C277.131 1.63442 279.064 1.80621 280.99 1.77051C283.008 1.73316 285.026 1.75766 287.045 1.84082C288.983 1.92073 290.925 1.82596 292.865 1.55176C294.93 1.25979 297.001 1.17166 299.068 1.29395C301.053 1.41129 303.037 1.4849 305.021 1.52051C307.01 1.55616 309.002 1.56217 310.99 1.52832C312.89 1.49584 314.796 1.18674 316.709 0.598633C318.904 -0.0767932 321.117 -0.0694376 323.31 0.629883C325.164 1.22075 327.004 1.35506 328.842 1.04395C330.961 0.685422 333.084 0.723405 335.201 1.15332C337.062 1.53168 338.924 1.51994 340.787 1.10645C342.941 0.627847 345.105 0.660173 347.256 1.20801C349.161 1.69313 351.062 1.89273 352.959 1.80176C354.885 1.70932 356.815 1.39795 358.748 0.879883C360.841 0.31912 362.941 0.083754 365.045 0.168945C367.124 0.253305 369.2 0.585546 371.271 1.16113C373.186 1.69353 375.101 1.95631 377.006 1.9502C378.976 1.94378 380.949 1.85066 382.92 1.67676C384.966 1.49626 387.013 1.46315 389.06 1.5752C390.925 1.67725 392.8 1.40666 394.685 0.762695C396.906 0.00483935 399.144 0.0495291 401.357 0.887695C403.252 1.60594 405.135 1.96036 407.006 1.96582C408.114 1.96885 409.132 2.19352 409.888 2.79395C410.684 3.42671 411.031 4.34787 411.052 5.37207C411.085 6.98129 411.13 8.78702 411.177 10.7861C411.227 12.8497 411.075 14.9126 410.732 16.9736C410.423 18.8316 410.516 20.6933 411.006 22.5596C411.568 24.7075 411.62 26.8673 411.162 29.0205C410.771 30.8605 410.828 32.6972 411.334 34.5439C411.921 36.6857 412.016 38.8388 411.615 40.9893C411.252 42.9363 411.053 44.8887 411.013 46.833C410.973 48.8196 410.964 50.8073 410.998 52.7939C411.031 54.759 411.167 56.7266 411.404 58.6924C411.657 60.7978 411.576 62.9034 411.154 65.0049C410.773 66.9022 410.692 68.7991 410.92 70.6924C411.174 72.8095 411.056 74.9259 410.56 77.0361C410.123 78.8968 410.09 80.7566 410.467 82.6143C410.896 84.7372 410.923 86.8649 410.537 88.9893C410.195 90.8706 410.189 92.7486 410.529 94.6299C410.912 96.7427 410.927 98.8602 410.568 100.974C410.247 102.864 410.242 104.755 410.552 106.646C410.887 108.681 411.11 110.718 411.217 112.755C411.325 114.828 411.198 116.903 410.849 118.974C410.535 120.844 410.589 122.716 411.013 124.591C411.504 126.759 411.433 128.931 410.802 131.091C410.245 133.003 409.963 134.909 409.959 136.81C409.954 138.805 409.967 140.806 409.99 142.802Z"
        fill="#121212" />
</svg>