<svg width="710" height="731" viewBox="0 0 710 731" fill="none" xmlns="http://www.w3.org/2000/svg">
    <path
        d="M172.271 4.6065L172.153 3.11116L172.271 4.6065ZM522.071 4.20367L521.636 2.76807L522.071 4.20367ZM703.917 12.4241L705.407 12.6018L703.917 12.4241ZM705.817 28.7855L707.226 28.2708L705.817 28.7855ZM706.204 44.6855L704.774 44.2326L706.204 44.6855ZM706.229 76.4855L704.747 76.722L706.229 76.4855ZM706.319 108.285L704.851 107.979L706.319 108.285ZM705.422 330.885L703.941 331.119L705.422 330.885ZM704.994 346.785L706.461 347.096L704.994 346.785ZM703.704 362.685L705.202 362.612L703.704 362.685ZM706.671 410.385L708.141 410.68L706.671 410.385ZM704.612 426.285L706.109 426.373L704.612 426.285ZM707.586 458.086L709.085 458.027L707.586 458.086ZM708.111 473.986L709.61 473.945L708.111 473.986ZM706.852 489.885L705.377 489.612L706.852 489.885ZM702.233 553.485L700.74 553.628L702.233 553.485ZM704.026 585.286L705.484 585.638L704.026 585.286ZM703.57 680.685L705.04 680.389L703.57 680.685ZM703.596 696.586L702.125 696.294L703.596 696.586ZM654.412 726.449L654.827 727.891L654.412 726.449ZM559.012 725.658L559.277 724.182L559.012 725.658ZM543.112 726.195L542.753 724.738L543.112 726.195ZM511.312 722.601L511.283 724.1L511.312 722.601ZM479.512 724.726L479.16 723.268L479.512 724.726ZM447.712 728.389L447.584 729.883L447.712 728.389ZM384.112 727.587L384.073 726.087L384.112 727.587ZM256.912 726.876L256.699 728.361L256.912 726.876ZM241.012 726.425L240.882 724.931L241.012 726.425ZM225.112 725.332L225.441 723.869L225.112 725.332ZM161.512 722.283L161.68 720.793L161.512 722.283ZM34.3123 723.346L34.1528 721.854L34.3123 723.346ZM2.40496 293.068L0.915996 292.887L2.40496 293.068ZM13.2709 4.97014L13.3398 6.46856C18.6726 6.22351 24.0052 5.80309 29.3375 5.20734L29.1709 3.71662L29.0044 2.22589C23.7367 2.81442 18.4693 3.22968 13.2021 3.47172L13.2709 4.97014ZM29.1709 3.71662L29.3375 5.20734C34.38 4.64397 39.4362 5.34241 44.5255 7.32901L45.0709 5.9317L45.6164 4.53438C40.1056 2.38327 34.5618 1.60499 29.0044 2.22589L29.1709 3.71662ZM45.0709 5.9317L44.5255 7.32901C49.9922 9.46294 55.4836 10.5027 60.9906 10.4304L60.9709 8.93048L60.9512 7.43061C55.8583 7.49756 50.7497 6.53818 45.6164 4.53438L45.0709 5.9317ZM60.9709 8.93048L60.9906 10.4304C66.2949 10.3606 71.5991 10.2684 76.9034 10.1536L76.8709 8.65392L76.8385 7.15427C71.5427 7.26888 66.247 7.361 60.9512 7.43061L60.9709 8.93048ZM76.8709 8.65392L76.9034 10.1536C82.3585 10.0355 87.8047 9.08331 93.2377 7.30448L92.7709 5.87895L92.3042 4.45341C87.1372 6.14514 81.9833 7.04293 76.8385 7.15427L76.8709 8.65392ZM92.7709 5.87895L93.2377 7.30448C98.3073 5.64462 103.353 5.2908 108.397 6.2282L108.671 4.75345L108.945 3.2787C103.389 2.2462 97.8345 2.64271 92.3042 4.45341L92.7709 5.87895ZM108.671 4.75345L108.397 6.2282C113.821 7.23631 119.25 7.5423 124.681 7.14456L124.571 5.64856L124.461 4.15257C119.291 4.53125 114.12 4.2405 108.945 3.2787L108.671 4.75345ZM124.571 5.64856L124.681 7.14456C129.945 6.75895 135.209 6.56212 140.473 6.55402L140.471 5.05402L140.469 3.55403C135.133 3.56223 129.797 3.76175 124.461 4.15257L124.571 5.64856ZM140.471 5.05402L140.473 6.55402C145.766 6.54588 151.06 6.57389 156.353 6.63804L156.371 5.13815L156.389 3.63826C151.082 3.57395 145.775 3.54587 140.469 3.55403L140.471 5.05402ZM156.371 5.13815L156.353 6.63804C161.698 6.70283 167.044 6.52408 172.389 6.10184L172.271 4.6065L172.153 3.11116C166.898 3.52626 161.643 3.70194 156.389 3.63826L156.371 5.13815ZM172.271 4.6065L172.389 6.10184C177.591 5.69091 182.793 5.79 187.996 6.39937L188.171 4.90955L188.345 3.41973C182.949 2.7877 177.551 2.68477 172.153 3.11116L172.271 4.6065ZM188.171 4.90955L187.996 6.39937C193.433 7.03603 198.87 6.92657 204.304 6.07167L204.071 4.5899L203.838 3.10812C198.672 3.92082 193.509 4.02446 188.345 3.41973L188.171 4.90955ZM204.071 4.5899L204.304 6.07167C209.337 5.27996 214.377 5.81225 219.45 7.69238L219.971 6.28589L220.492 4.87939C214.965 2.83061 209.405 2.23224 203.838 3.10812L204.071 4.5899ZM219.971 6.28589L219.45 7.69238C224.996 9.74811 230.576 10.2403 236.16 9.14493L235.871 7.67299L235.582 6.20104C230.566 7.18509 225.546 6.75258 220.492 4.87939L219.971 6.28589ZM235.871 7.67299L236.16 9.14493C241.385 8.11985 246.608 7.50629 251.829 7.30353L251.771 5.80466L251.713 4.30579C246.334 4.51468 240.957 5.14667 235.582 6.20104L235.871 7.67299ZM251.771 5.80466L251.829 7.30353C257.176 7.09586 262.523 6.63486 267.87 5.92065L267.671 4.43385L267.472 2.94706C262.219 3.64893 256.965 4.1018 251.713 4.30579L251.771 5.80466ZM267.671 4.43385L267.87 5.92065C273.046 5.2291 278.221 5.18651 283.396 5.79267L283.571 4.30285L283.745 2.81304C278.321 2.17777 272.896 2.22252 267.472 2.94706L267.671 4.43385ZM283.571 4.30285L283.396 5.79267C288.728 6.41706 294.06 6.8707 299.391 7.15356L299.471 5.65567L299.55 4.15778C294.282 3.8783 289.014 3.43007 283.745 2.81304L283.571 4.30285ZM299.471 5.65567L299.391 7.15356C304.769 7.43884 310.146 7.30759 315.523 6.75997L315.371 5.26769L315.219 3.77541C309.996 4.30743 304.773 4.43483 299.55 4.15778L299.471 5.65567ZM315.371 5.26769L315.523 6.75997C320.781 6.22441 326.039 5.9117 331.297 5.82178L331.271 4.322L331.245 2.82222C325.903 2.91359 320.561 3.23134 315.219 3.77541L315.371 5.26769ZM331.271 4.322L331.297 5.82178C336.509 5.73263 341.722 6.0991 346.937 6.92179L347.171 5.44011L347.405 3.95844C342.02 3.10901 336.633 2.73007 331.245 2.82222L331.271 4.322ZM347.171 5.44011L346.937 6.92179C352.409 7.78501 357.884 7.69221 363.353 6.64456L363.071 5.17134L362.789 3.69813C357.658 4.68096 352.533 4.76733 347.405 3.95844L347.171 5.44011ZM363.071 5.17134L363.353 6.64456C368.389 5.67989 373.427 6.04516 378.491 7.75716L378.971 6.33617L379.451 4.91517C373.915 3.04359 368.353 2.63232 362.789 3.69813L363.071 5.17134ZM378.971 6.33617L378.491 7.75716C384.146 9.66899 389.821 9.43986 395.448 7.09436L394.871 5.70983L394.294 4.32531C389.32 6.39849 384.396 6.58691 379.451 4.91517L378.971 6.33617ZM394.871 5.70983L395.448 7.09436C400.365 5.04484 405.237 5.10328 410.165 7.28076L410.771 5.90874L411.377 4.53672C405.705 2.03031 399.977 1.95614 394.294 4.32531L394.871 5.70983ZM410.771 5.90874L410.165 7.28076C415.725 9.73777 421.338 10.4323 426.962 9.31782L426.671 7.84642L426.379 6.37503C421.404 7.36085 416.417 6.76359 411.377 4.53672L410.771 5.90874ZM426.671 7.84642L426.962 9.31782C432.121 8.29562 437.275 8.03336 442.427 8.52892L442.571 7.03581L442.715 5.5427C437.267 5.01877 431.82 5.29692 426.379 6.37503L426.671 7.84642ZM442.571 7.03581L442.427 8.52892C447.776 9.04339 453.126 9.29189 458.476 9.27434L458.471 7.77435L458.466 6.27436C453.216 6.29158 447.965 6.04772 442.715 5.5427L442.571 7.03581ZM458.471 7.77435L458.476 9.27434C463.952 9.25638 469.417 8.29093 474.865 6.38886L474.371 4.97269L473.877 3.55652C468.725 5.35523 463.59 6.25755 458.466 6.27436L458.471 7.77435ZM474.371 4.97269L474.865 6.38886C479.848 4.64928 484.802 4.63702 489.783 6.35081L490.271 4.93242L490.759 3.51402C485.14 1.58073 479.494 1.59531 473.877 3.55652L474.371 4.97269ZM490.271 4.93242L489.783 6.35081C495.261 8.23562 500.76 9.00232 506.27 8.63626L506.171 7.13956L506.072 5.64286C500.981 5.98102 495.881 5.27629 490.759 3.51402L490.271 4.93242ZM506.171 7.13956L506.27 8.63626C511.689 8.27628 517.101 7.27606 522.506 5.63928L522.071 4.20367L521.636 2.76807C516.441 4.34158 511.253 5.29862 506.072 5.64286L506.171 7.13956ZM522.071 4.20367L522.506 5.63928C527.455 4.14048 532.393 4.43613 537.383 6.56081L537.971 5.18069L538.559 3.80057C532.949 1.41226 527.287 1.05656 521.636 2.76807L522.071 4.20367ZM537.971 5.18069L537.383 6.56081C543.059 8.97713 548.783 8.97735 554.458 6.56146L553.871 5.1813L553.283 3.80114C548.359 5.89742 543.483 5.89725 538.559 3.80057L537.971 5.18069ZM553.871 5.1813L554.458 6.56146C559.529 4.40312 564.556 3.68701 569.567 4.37543L569.771 2.88939L569.975 1.40335C564.386 0.635468 558.813 1.4473 553.283 3.80114L553.871 5.1813ZM569.771 2.88939L569.567 4.37543C574.809 5.0957 580.054 6.12515 585.3 7.46426L585.671 6.01085L586.042 4.55745C580.688 3.19092 575.333 2.13939 569.975 1.40335L569.771 2.88939ZM585.671 6.01085L585.3 7.46426C590.768 8.85996 596.247 9.27047 601.729 8.69016L601.571 7.1985L601.413 5.70683C596.295 6.24864 591.174 5.86739 586.042 4.55745L585.671 6.01085ZM601.571 7.1985L601.729 8.69016C606.992 8.13295 612.256 7.77 617.519 7.60127L617.471 6.10204L617.423 4.60281C612.086 4.7739 606.749 5.14193 601.413 5.70683L601.571 7.1985ZM617.471 6.10204L617.519 7.60127C622.856 7.43017 628.193 7.06188 633.529 6.49644L633.371 5.00479L633.213 3.51314C627.949 4.07087 622.686 4.43408 617.423 4.60281L617.471 6.10204ZM633.371 5.00479L633.529 6.49644C638.863 5.9313 644.196 5.1843 649.528 4.25551L649.271 2.77775L649.014 1.3C643.746 2.21742 638.479 2.95511 633.213 3.51314L633.371 5.00479ZM649.271 2.77775L649.528 4.25551C654.737 3.34821 659.944 2.93294 665.149 3.0088L665.171 1.50896L665.193 0.00911903C659.798 -0.0695114 654.404 0.361075 649.014 1.3L649.271 2.77775ZM665.171 1.50896L665.149 3.0088C670.269 3.08342 675.402 4.06218 680.553 5.95746L681.071 4.54971L681.589 3.14196C676.14 1.1374 670.673 0.0889907 665.193 0.00911903L665.171 1.50896ZM681.071 4.54971L680.553 5.95746C686.109 8.00164 691.699 8.42654 697.29 7.20927L696.971 5.74361L696.652 4.27795C691.643 5.36864 686.633 4.99761 681.589 3.14196L681.071 4.54971ZM696.971 5.74361L697.29 7.20927C699.789 6.66508 701.039 7.04832 701.643 7.62938C702.273 8.23566 702.747 9.56765 702.428 12.2463L703.917 12.4241L705.407 12.6018C705.756 9.67285 705.407 7.08762 703.722 5.46709C702.011 3.82134 699.453 3.66816 696.652 4.27795L696.971 5.74361ZM703.917 12.4241L702.428 12.2463C701.731 18.0876 702.392 23.7787 704.409 29.3001L705.817 28.7855L707.226 28.2708C705.371 23.1923 704.765 17.9757 705.407 12.6018L703.917 12.4241ZM705.817 28.7855L704.409 29.3001C706.233 34.2938 706.351 39.2537 704.774 44.2326L706.204 44.6855L707.634 45.1383C709.414 39.5173 709.274 33.8771 707.226 28.2708L705.817 28.7855ZM706.204 44.6855L704.774 44.2326C703.039 49.7089 702.387 55.2031 702.827 60.7052L704.323 60.5855L705.818 60.4658C705.41 55.3678 706.011 50.2621 707.634 45.1383L706.204 44.6855ZM704.323 60.5855L702.827 60.7052C703.255 66.0447 703.895 71.3836 704.747 76.722L706.229 76.4855L707.71 76.2489C706.869 70.9873 706.239 65.7263 705.818 60.4658L704.323 60.5855ZM706.229 76.4855L704.747 76.722C705.584 81.9594 706.08 87.1955 706.238 92.4306L707.737 92.3855L709.237 92.3404C709.075 86.9755 708.566 81.6115 707.71 76.2489L706.229 76.4855ZM707.737 92.3855L706.238 92.4306C706.394 97.6102 705.932 102.792 704.851 107.979L706.319 108.285L707.788 108.592C708.916 103.179 709.399 97.7607 709.237 92.3404L707.737 92.3855ZM706.319 108.285L704.851 107.979C703.717 113.423 703.398 118.872 703.899 124.323L705.393 124.185L706.886 124.048C706.413 118.899 706.713 113.748 707.788 108.592L706.319 108.285ZM705.393 124.185L703.899 124.323C704.368 129.435 703.891 134.552 702.46 139.682L703.905 140.085L705.35 140.488C706.875 135.019 707.39 129.536 706.886 124.048L705.393 124.185ZM703.905 140.085L702.46 139.682C700.906 145.255 700.955 150.843 702.604 156.412L704.043 155.985L705.481 155.559C703.99 150.528 703.948 145.516 705.35 140.488L703.905 140.085ZM704.043 155.985L702.604 156.412C704.105 161.476 704.308 166.521 703.223 171.57L704.689 171.885L706.156 172.201C707.349 166.65 707.121 161.095 705.481 155.559L704.043 155.985ZM704.689 171.885L703.223 171.57C702.046 177.044 701.864 182.526 702.681 188.006L704.164 187.785L705.648 187.565C704.885 182.445 705.054 177.327 706.156 172.201L704.689 171.885ZM704.164 187.785L702.681 188.006C703.471 193.315 704.311 198.624 705.201 203.933L706.68 203.685L708.16 203.438C707.273 198.147 706.436 192.856 705.648 187.565L704.164 187.785ZM706.68 203.685L705.201 203.933C706.073 209.138 706.43 214.34 706.272 219.54L707.771 219.585L709.271 219.631C709.434 214.231 709.063 208.833 708.16 203.438L706.68 203.685ZM707.771 219.585L706.272 219.54C706.112 224.819 705.843 230.099 705.466 235.378L706.962 235.485L708.458 235.593C708.839 230.272 709.11 224.951 709.271 219.631L707.771 219.585ZM706.962 235.485L705.466 235.378C705.09 240.632 704.467 245.886 703.599 251.141L705.079 251.385L706.559 251.63C707.442 246.285 708.075 240.939 708.458 235.593L706.962 235.485ZM705.079 251.385L703.599 251.141C702.71 256.518 702.251 261.897 702.222 267.277L703.722 267.285L705.222 267.294C705.25 262.074 705.696 256.853 706.559 251.63L705.079 251.385ZM703.722 267.285L702.222 267.277C702.193 272.736 703.013 278.186 704.676 283.624L706.111 283.185L707.545 282.747C705.966 277.585 705.194 272.435 705.222 267.294L703.722 267.285ZM706.111 283.185L704.676 283.624C706.228 288.697 706.515 293.75 705.548 298.803L707.021 299.086L708.494 299.367C709.556 293.821 709.236 288.274 707.545 282.747L706.111 283.185ZM707.021 299.086L705.548 298.803C704.523 304.155 703.787 309.507 703.34 314.86L704.834 314.985L706.329 315.111C706.768 309.864 707.49 304.616 708.494 299.367L707.021 299.086ZM704.834 314.985L703.34 314.86C702.886 320.281 703.087 325.701 703.941 331.119L705.422 330.885L706.904 330.652C706.087 325.469 705.896 320.29 706.329 315.111L704.834 314.985ZM705.422 330.885L703.941 331.119C704.747 336.237 704.61 341.352 703.526 346.475L704.994 346.785L706.461 347.096C707.62 341.619 707.768 336.134 706.904 330.652L705.422 330.885ZM704.994 346.785L703.526 346.475C702.38 351.899 701.938 357.328 702.205 362.759L703.704 362.685L705.202 362.612C704.948 357.443 705.367 352.272 706.461 347.096L704.994 346.785ZM703.704 362.685L702.205 362.759C702.46 367.941 702.109 373.125 701.152 378.313L702.627 378.585L704.102 378.858C705.101 373.446 705.468 368.029 705.202 362.612L703.704 362.685ZM702.627 378.585L701.152 378.313C700.114 383.935 700.86 389.543 703.343 395.097L704.712 394.485L706.082 393.874C703.827 388.828 703.183 383.836 704.102 378.858L702.627 378.585ZM704.712 394.485L703.343 395.097C705.594 400.135 706.197 405.119 705.2 410.091L706.671 410.385L708.141 410.68C709.27 405.052 708.567 399.436 706.082 393.874L704.712 394.485ZM706.671 410.385L705.2 410.091C704.123 415.458 703.428 420.827 703.114 426.198L704.612 426.285L706.109 426.373C706.415 421.144 707.092 415.913 708.141 410.68L706.671 410.385ZM704.612 426.285L703.114 426.198C702.797 431.627 703.173 437.053 704.241 442.475L705.712 442.186L707.184 441.896C706.165 436.718 705.807 431.544 706.109 426.373L704.612 426.285ZM705.712 442.186L704.241 442.475C705.269 447.7 705.885 452.923 706.087 458.144L707.586 458.086L709.085 458.027C708.876 452.648 708.242 447.271 707.184 441.896L705.712 442.186ZM707.586 458.086L706.087 458.144C706.292 463.438 706.467 468.732 706.611 474.026L708.111 473.986L709.61 473.945C709.466 468.639 709.291 463.333 709.085 458.027L707.586 458.086ZM708.111 473.986L706.611 474.026C706.753 479.219 706.342 484.414 705.377 489.612L706.852 489.885L708.327 490.159C709.329 484.757 709.758 479.352 709.61 473.945L708.111 473.986ZM706.852 489.885L705.377 489.612C704.353 495.13 704.552 500.651 705.971 506.16L707.424 505.785L708.876 505.411C707.565 500.32 707.383 495.241 708.327 490.159L706.852 489.885ZM707.424 505.785L705.971 506.16C707.247 511.113 706.799 516.068 704.582 521.078L705.954 521.685L707.325 522.293C709.799 516.703 710.331 511.058 708.876 505.411L707.424 505.785ZM705.954 521.685L704.582 521.078C702.171 526.527 700.789 532.001 700.457 537.495L701.954 537.586L703.451 537.676C703.76 532.57 705.046 527.444 707.325 522.293L705.954 521.685ZM701.954 537.586L700.457 537.495C700.131 542.873 700.225 548.251 700.74 553.628L702.233 553.485L703.727 553.342C703.226 548.12 703.135 542.898 703.451 537.676L701.954 537.586ZM702.233 553.485L700.74 553.628C701.252 558.973 702.004 564.316 702.996 569.659L704.47 569.385L705.945 569.112C704.969 563.854 704.23 558.598 703.727 553.342L702.233 553.485ZM704.47 569.385L702.996 569.659C703.94 574.749 703.799 579.836 702.568 584.933L704.026 585.286L705.484 585.638C706.813 580.135 706.968 574.622 705.945 569.112L704.47 569.385ZM704.026 585.286L702.568 584.933C701.245 590.41 700.95 595.897 701.686 601.385L703.172 601.185L704.659 600.986C703.973 595.874 704.247 590.761 705.484 585.638L704.026 585.286ZM703.172 601.185L701.686 601.385C702.394 606.665 702.995 611.945 703.489 617.225L704.983 617.086L706.476 616.946C705.978 611.626 705.373 606.306 704.659 600.986L703.172 601.185ZM704.983 617.086L703.489 617.225C703.98 622.463 704.141 627.701 703.975 632.938L705.474 632.985L706.973 633.033C707.144 627.67 706.978 622.308 706.476 616.946L704.983 617.086ZM705.474 632.985L703.975 632.938C703.802 638.352 704.243 643.764 705.297 649.172L706.769 648.885L708.242 648.599C707.23 643.407 706.808 638.219 706.973 633.033L705.474 632.985ZM706.769 648.885L705.297 649.172C706.271 654.173 705.766 659.181 703.749 664.229L705.142 664.785L706.535 665.342C708.753 659.79 709.332 654.198 708.242 648.599L706.769 648.885ZM705.142 664.785L703.749 664.229C701.53 669.784 700.969 675.38 702.099 680.982L703.57 680.685L705.04 680.389C704.032 675.391 704.519 670.387 706.535 665.342L705.142 664.785ZM703.57 680.685L702.099 680.982C703.129 686.088 703.138 691.188 702.125 696.294L703.596 696.586L705.067 696.877C706.157 691.383 706.148 685.883 705.04 680.389L703.57 680.685ZM703.596 696.586L702.125 696.294C701.01 701.91 701.661 707.517 704.036 713.075L705.415 712.486L706.795 711.896C704.641 706.854 704.078 701.861 705.067 696.877L703.596 696.586ZM705.415 712.486L704.036 713.075C705.121 715.615 705.157 717.191 704.758 718.103C704.405 718.91 703.487 719.667 701.279 719.977L701.487 721.462L701.695 722.948C704.371 722.573 706.549 721.492 707.506 719.306C708.416 717.226 707.974 714.656 706.795 711.896L705.415 712.486ZM701.487 721.462L701.279 719.977C696.255 720.681 691.043 722.142 685.646 724.344L686.212 725.733L686.779 727.122C691.982 724.999 696.953 723.612 701.695 722.948L701.487 721.462ZM686.212 725.733L685.646 724.344C680.652 726.382 675.706 726.636 670.747 725.135L670.312 726.571L669.878 728.006C675.519 729.714 681.172 729.41 686.779 727.122L686.212 725.733ZM670.312 726.571L670.747 725.135C665.172 723.447 659.577 723.404 653.998 725.008L654.412 726.449L654.827 727.891C659.848 726.447 664.853 726.485 669.878 728.006L670.312 726.571ZM654.412 726.449L653.998 725.008C648.957 726.457 643.933 726.513 638.896 725.179L638.512 726.629L638.128 728.079C643.692 729.552 649.268 729.489 654.827 727.891L654.412 726.449ZM638.512 726.629L638.896 725.179C633.342 723.707 627.774 723.724 622.22 725.228L622.612 726.675L623.004 728.123C628.051 726.757 633.083 726.742 638.128 728.079L638.512 726.629ZM622.612 726.675L622.22 725.228C617.032 726.632 611.852 727.395 606.676 727.52L606.712 729.02L606.749 730.52C612.173 730.389 617.592 729.589 623.004 728.123L622.612 726.675ZM606.712 729.02L606.676 727.52C601.597 727.643 596.5 726.678 591.375 724.603L590.812 725.993L590.249 727.383C595.724 729.6 601.228 730.653 606.749 730.52L606.712 729.02ZM590.812 725.993L591.375 724.603C585.785 722.339 580.15 721.955 574.52 723.482L574.912 724.929L575.305 726.377C580.275 725.03 585.24 725.355 590.249 727.383L590.812 725.993ZM574.912 724.929L574.52 723.482C569.43 724.861 564.354 725.093 559.277 724.182L559.012 725.658L558.747 727.135C564.27 728.126 569.795 727.871 575.305 726.377L574.912 724.929ZM559.012 725.658L559.277 724.182C553.767 723.193 548.254 723.38 542.753 724.738L543.112 726.195L543.472 727.651C548.57 726.392 553.658 726.222 558.747 727.135L559.012 725.658ZM543.112 726.195L542.753 724.738C537.739 725.976 532.731 725.746 527.695 724.035L527.212 725.455L526.73 726.876C532.294 728.766 537.886 729.03 543.472 727.651L543.112 726.195ZM527.212 725.455L527.695 724.035C522.257 722.187 516.804 721.206 511.341 721.101L511.312 722.601L511.283 724.1C516.421 724.199 521.568 725.122 526.73 726.876L527.212 725.455ZM511.312 722.601L511.341 721.101C506.02 720.998 500.699 721.007 495.379 721.126L495.412 722.626L495.446 724.126C500.725 724.007 506.004 723.998 511.283 724.1L511.312 722.601ZM495.412 722.626L495.379 721.126C489.968 721.248 484.561 721.963 479.16 723.268L479.512 724.726L479.865 726.184C485.063 724.928 490.256 724.242 495.446 724.126L495.412 722.626ZM479.512 724.726L479.16 723.268C473.901 724.539 468.643 725.575 463.386 726.376L463.612 727.859L463.838 729.342C469.181 728.527 474.524 727.475 479.865 726.184L479.512 724.726ZM463.612 727.859L463.386 726.376C458.203 727.166 453.021 727.339 447.84 726.894L447.712 728.389L447.584 729.883C453.003 730.348 458.422 730.167 463.838 729.342L463.612 727.859ZM447.712 728.389L447.84 726.894C442.599 726.445 437.355 725.688 432.111 724.624L431.812 726.094L431.514 727.564C436.869 728.65 442.226 729.424 447.584 729.883L447.712 728.389ZM431.812 726.094L432.111 724.624C426.619 723.509 421.121 723.483 415.627 724.545L415.912 726.018L416.197 727.491C421.304 726.503 426.406 726.527 431.514 727.564L431.812 726.094ZM415.912 726.018L415.627 724.545C410.425 725.552 405.226 726.025 400.029 725.967L400.012 727.467L399.996 728.967C405.399 729.027 410.8 728.535 416.197 727.491L415.912 726.018ZM400.012 727.467L400.029 725.967C394.71 725.908 389.392 725.948 384.073 726.087L384.112 727.587L384.152 729.086C389.433 728.948 394.714 728.908 399.996 728.967L400.012 727.467ZM384.112 727.587L384.073 726.087C378.761 726.227 373.45 726.428 368.138 726.691L368.212 728.189L368.286 729.687C373.575 729.425 378.863 729.225 384.152 729.086L384.112 727.587ZM368.212 728.189L368.138 726.691C363.016 726.945 357.888 726.302 352.744 724.755L352.312 726.191L351.88 727.628C357.337 729.269 362.808 729.959 368.286 729.687L368.212 728.189ZM352.312 726.191L352.744 724.755C347.173 723.079 341.583 723.022 336.007 724.587L336.412 726.031L336.818 727.476C341.842 726.065 346.851 726.115 351.88 727.628L352.312 726.191ZM336.412 726.031L336.007 724.587C331.029 725.984 326.061 725.729 321.052 723.796L320.512 725.196L319.972 726.595C325.564 728.753 331.195 729.054 336.818 727.476L336.412 726.031ZM320.512 725.196L321.052 723.796C315.622 721.701 310.175 720.461 304.715 720.086L304.612 721.582L304.509 723.079C309.65 723.432 314.803 724.601 319.972 726.595L320.512 725.196ZM304.612 721.582L304.715 720.086C299.363 719.718 294.011 719.63 288.658 719.824L288.712 721.323L288.766 722.822C294.014 722.632 299.262 722.718 304.509 723.079L304.612 721.582ZM288.712 721.323L288.658 719.824C283.171 720.022 277.7 721.227 272.251 723.424L272.812 724.815L273.373 726.206C278.524 724.13 283.653 723.007 288.766 722.822L288.712 721.323ZM272.812 724.815L272.251 723.424C267.18 725.469 262.146 726.114 257.126 725.391L256.912 726.876L256.699 728.361C262.278 729.164 267.845 728.435 273.373 726.206L272.812 724.815ZM256.912 726.876L257.126 725.391C251.713 724.612 246.297 724.459 240.882 724.931L241.012 726.425L241.143 727.92C246.327 727.468 251.512 727.614 256.699 728.361L256.912 726.876ZM241.012 726.425L240.882 724.931C235.739 725.38 230.594 725.027 225.441 723.869L225.112 725.332L224.783 726.796C230.231 728.02 235.686 728.396 241.143 727.92L241.012 726.425ZM225.112 725.332L225.441 723.869C220.002 722.647 214.555 722.227 209.107 722.612L209.212 724.108L209.318 725.604C214.469 725.24 219.623 725.636 224.783 726.796L225.112 725.332ZM209.212 724.108L209.107 722.612C203.745 722.991 198.385 723.701 193.026 724.742L193.312 726.214L193.598 727.687C198.84 726.669 204.08 725.975 209.318 725.604L209.212 724.108ZM193.312 726.214L193.026 724.742C187.964 725.725 182.905 725.49 177.827 724.028L177.412 725.469L176.997 726.911C182.52 728.501 188.06 728.763 193.598 727.687L193.312 726.214ZM177.412 725.469L177.827 724.028C172.449 722.479 167.067 721.4 161.68 720.793L161.512 722.283L161.344 723.774C166.558 724.362 171.775 725.407 176.997 726.911L177.412 725.469ZM161.512 722.283L161.68 720.793C156.262 720.182 150.844 720.215 145.426 720.891L145.612 722.38L145.798 723.868C150.981 723.221 156.162 723.189 161.344 723.774L161.512 722.283ZM145.612 722.38L145.426 720.891C140.219 721.542 135.013 721.702 129.807 721.371L129.712 722.868L129.617 724.365C135.011 724.708 140.406 724.542 145.798 723.868L145.612 722.38ZM129.712 722.868L129.807 721.371C124.312 721.022 118.826 721.726 113.357 723.47L113.812 724.899L114.268 726.328C119.399 724.692 124.512 724.041 129.617 724.365L129.712 722.868ZM113.812 724.899L113.357 723.47C108.335 725.071 103.337 725.154 98.324 723.723L97.9123 725.166L97.5006 726.608C103.088 728.203 108.689 728.107 114.268 726.328L113.812 724.899ZM97.9123 725.166L98.324 723.723C92.7744 722.139 87.208 722.034 81.6512 723.413L82.0123 724.869L82.3734 726.325C87.4166 725.074 92.4502 725.167 97.5006 726.608L97.9123 725.166ZM82.0123 724.869L81.6512 723.413C76.6464 724.654 71.6469 724.388 66.6157 722.595L66.1123 724.008L65.6088 725.421C71.1776 727.405 76.7782 727.712 82.3734 726.325L82.0123 724.869ZM66.1123 724.008L66.6157 722.595C61.1266 720.639 55.613 719.882 50.0882 720.341L50.2123 721.835L50.3364 723.33C55.4115 722.909 60.4979 723.6 65.6088 725.421L66.1123 724.008ZM50.2123 721.835L50.0882 720.341C44.7763 720.781 39.4645 721.286 34.1528 721.854L34.3123 723.346L34.4718 724.837C39.76 724.272 45.0482 723.769 50.3364 723.33L50.2123 721.835ZM34.3123 723.346L34.1528 721.854C28.9261 722.413 23.7003 722.584 18.4747 722.366L18.4123 723.865L18.3498 725.363C23.7243 725.587 29.0985 725.412 34.4718 724.837L34.3123 723.346ZM18.4123 723.865L18.4747 722.366C13.3127 722.151 11.2416 720.606 10.7108 718.593L9.26041 718.976L7.80999 719.358C8.88171 723.422 12.9118 725.137 18.3498 725.363L18.4123 723.865ZM9.26041 718.976L10.7108 718.593C9.96999 715.784 9.73706 711.802 10.0874 706.568L8.59078 706.468L7.09413 706.368C6.73486 711.735 6.94835 716.091 7.80999 719.358L9.26041 718.976ZM8.59078 706.468L10.0874 706.568C10.4543 701.089 9.85088 695.615 8.28491 690.155L6.84303 690.568L5.40115 690.982C6.87514 696.121 7.43691 701.248 7.09413 706.368L8.59078 706.468ZM6.84303 690.568L8.28491 690.155C6.77889 684.903 5.56078 679.654 4.63014 674.406L3.15318 674.668L1.67623 674.93C2.62543 680.282 3.86721 685.633 5.40115 690.982L6.84303 690.568ZM3.15318 674.668L4.63014 674.406C3.73565 669.362 4.12843 664.316 5.82473 659.244L4.40218 658.768L2.97964 658.292C1.13077 663.821 0.690877 669.374 1.67623 674.93L3.15318 674.668ZM4.40218 658.768L5.82473 659.244C7.64991 653.787 8.49369 648.312 8.34503 642.828L6.84558 642.868L5.34613 642.909C5.48478 648.024 4.69963 653.15 2.97964 658.292L4.40218 658.768ZM6.84558 642.868L8.34503 642.828C8.19813 637.408 7.40912 631.993 5.98101 626.585L4.53072 626.968L3.08044 627.351C4.45149 632.543 5.20571 637.728 5.34613 642.909L6.84558 642.868ZM4.53072 626.968L5.98101 626.585C4.62327 621.444 4.15123 616.313 4.55893 611.187L3.06365 611.068L1.56837 610.949C1.13301 616.423 1.63903 621.893 3.08044 627.351L4.53072 626.968ZM3.06365 611.068L4.55893 611.187C4.98254 605.861 5.26565 600.535 5.40825 595.208L3.90878 595.168L2.40932 595.128C2.26814 600.402 1.98782 605.675 1.56837 610.949L3.06365 611.068ZM3.90878 595.168L5.40825 595.208C5.55076 589.885 5.57007 584.562 5.46618 579.239L3.96646 579.268L2.46675 579.297C2.56973 584.574 2.55059 589.851 2.40932 595.128L3.90878 595.168ZM3.96646 579.268L5.46618 579.239C5.36172 573.886 4.97649 568.534 4.31064 563.183L2.82212 563.368L1.3336 563.553C1.98667 568.802 2.36434 574.05 2.46675 579.297L3.96646 579.268ZM2.82212 563.368L4.31064 563.183C3.65639 557.925 3.2269 552.667 3.02209 547.41L1.52323 547.468L0.0243626 547.527C0.232496 552.869 0.668937 558.212 1.3336 563.553L2.82212 563.368ZM1.52323 547.468L3.02209 547.41C2.82616 542.38 3.93549 537.323 6.39291 532.219L5.04141 531.568L3.68992 530.917C1.04348 536.414 -0.192653 541.956 0.0243626 547.527L1.52323 547.468ZM5.04141 531.568L6.39291 532.219C9.02554 526.751 10.4467 521.247 10.6253 515.717L9.12607 515.668L7.62685 515.62C7.46312 520.689 6.16115 525.785 3.68992 530.917L5.04141 531.568ZM9.12607 515.668L10.6253 515.717C10.7969 510.403 10.8968 505.09 10.9251 499.776L9.42513 499.768L7.92515 499.76C7.89702 505.047 7.79759 510.333 7.62685 515.62L9.12607 515.668ZM9.42513 499.768L10.9251 499.776C10.9545 494.245 9.74339 488.736 7.31919 483.261L5.94761 483.868L4.57603 484.475C6.84492 489.6 7.95212 494.691 7.92515 499.76L9.42513 499.768ZM5.94761 483.868L7.31919 483.261C5.06518 478.17 4.16857 473.121 4.59176 468.094L3.09705 467.968L1.60234 467.842C1.13319 473.415 2.13697 478.967 4.57603 484.475L5.94761 483.868ZM3.09705 467.968L4.59176 468.094C5.04249 462.74 5.2007 457.385 5.06633 452.031L3.5668 452.068L2.06728 452.106C2.1989 457.351 2.04394 462.597 1.60234 467.842L3.09705 467.968ZM3.5668 452.068L5.06633 452.031C4.9356 446.821 5.27284 441.61 6.07867 436.397L4.59627 436.168L3.11388 435.939C2.28109 441.326 1.93201 446.716 2.06728 452.106L3.5668 452.068ZM4.59627 436.168L6.07867 436.397C6.92981 430.891 6.64116 425.386 5.2186 419.892L3.7665 420.268L2.3144 420.644C3.63682 425.751 3.90135 430.845 3.11388 435.939L4.59627 436.168ZM3.7665 420.268L5.2186 419.892C3.94056 414.957 4.45449 410.016 6.81997 405.009L5.46371 404.368L4.10746 403.727C1.46501 409.321 0.847466 414.98 2.3144 420.644L3.7665 420.268ZM5.46371 404.368L6.81997 405.009C9.44891 399.444 10.2327 393.819 9.11241 388.176L7.64113 388.468L6.16985 388.76C7.15422 393.718 6.48644 398.692 4.10746 403.727L5.46371 404.368ZM7.64113 388.468L9.11241 388.176C8.07308 382.942 7.39686 377.709 7.0832 372.478L5.58589 372.568L4.08858 372.658C4.41054 378.027 5.10448 383.395 6.16985 388.76L7.64113 388.468ZM5.58589 372.568L7.0832 372.478C6.76134 367.111 6.07594 361.745 5.02752 356.38L3.55537 356.668L2.08323 356.956C3.10654 362.192 3.77482 367.426 4.08858 372.658L5.58589 372.568ZM3.55537 356.668L5.02752 356.38C4.03768 351.316 4.25605 346.254 5.69011 341.176L4.24657 340.768L2.80302 340.361C1.24375 345.882 1.00133 351.42 2.08323 356.956L3.55537 356.668ZM4.24657 340.768L5.69011 341.176C7.2449 335.67 7.57441 330.148 6.67031 324.626L5.19002 324.868L3.70972 325.111C4.54102 330.188 4.24156 335.266 2.80302 340.361L4.24657 340.768ZM5.19002 324.868L6.67031 324.626C5.80335 319.33 4.96132 314.035 4.1442 308.739L2.66175 308.968L1.17929 309.197C1.99781 314.501 2.84128 319.806 3.70972 325.111L5.19002 324.868ZM2.66175 308.968L4.1442 308.739C3.34726 303.575 3.26402 298.413 3.89391 293.25L2.40496 293.068L0.915996 292.887C0.252656 298.324 0.340609 303.762 1.17929 309.197L2.66175 308.968ZM2.40496 293.068L3.89391 293.25C4.53629 287.985 5.36588 282.719 6.38278 277.453L4.90999 277.168L3.43719 276.884C2.40729 282.217 1.56686 287.552 0.915996 292.887L2.40496 293.068ZM4.90999 277.168L6.38278 277.453C7.43581 271.999 7.62165 266.54 6.9385 261.082L5.45011 261.268L3.96172 261.454C4.60522 266.596 4.43097 271.737 3.43719 276.884L4.90999 277.168ZM5.45011 261.268L6.9385 261.082C6.29275 255.922 6.37742 250.764 7.19311 245.602L5.7115 245.368L4.22988 245.134C3.37042 250.573 3.28083 256.014 3.96172 261.454L5.45011 261.268ZM5.7115 245.368L7.19311 245.602C8.06905 240.06 7.60384 234.521 5.81207 229.005L4.38545 229.468L2.95883 229.932C4.61028 235.016 5.0291 240.077 4.22988 245.134L5.7115 245.368ZM4.38545 229.468L5.81207 229.005C4.17251 223.957 3.94134 218.935 5.10617 213.907L3.64488 213.568L2.18358 213.23C0.892623 218.802 1.15517 224.379 2.95883 229.932L4.38545 229.468ZM3.64488 213.568L5.10617 213.907C6.36764 208.462 6.79106 203.009 6.37274 197.554L4.87713 197.668L3.38152 197.783C3.77599 202.927 3.3779 208.075 2.18358 213.23L3.64488 213.568ZM4.87713 197.668L6.37274 197.554C5.96647 192.255 5.56845 186.957 5.17867 181.658L3.68271 181.768L2.18676 181.878C2.57676 187.18 2.97502 192.481 3.38152 197.783L4.87713 197.668ZM3.68271 181.768L5.17867 181.658C4.80387 176.563 5.45125 171.459 7.13356 166.336L5.70843 165.868L4.2833 165.4C2.48488 170.877 1.78178 176.373 2.18676 181.878L3.68271 181.768ZM5.70843 165.868L7.13356 166.336C8.93384 160.854 9.60467 155.351 9.13276 149.84L7.63823 149.968L6.1437 150.096C6.57947 155.185 5.96377 160.283 4.2833 165.4L5.70843 165.868ZM7.63823 149.968L9.13276 149.84C8.68137 144.569 8.38226 139.298 8.2354 134.026L6.73598 134.068L5.23656 134.11C5.38503 139.439 5.68742 144.768 6.1437 150.096L7.63823 149.968ZM6.73598 134.068L8.2354 134.026C8.08704 128.702 7.80727 123.377 7.39608 118.053L5.90053 118.168L4.40499 118.284C4.81239 123.559 5.08958 128.835 5.23656 134.11L6.73598 134.068ZM5.90053 118.168L7.39608 118.053C6.98543 112.735 6.4812 107.418 5.88338 102.101L4.39277 102.268L2.90216 102.436C3.4961 107.719 3.99704 113.001 4.40499 118.284L5.90053 118.168ZM4.39277 102.268L5.88338 102.101C5.29474 96.865 5.04835 91.6301 5.14406 86.3956L3.64431 86.3682L2.14456 86.3408C2.04646 91.7063 2.29905 97.0715 2.90216 102.436L4.39277 102.268ZM3.64431 86.3682L5.14406 86.3956C5.24228 81.0231 4.95214 75.6511 4.2739 70.2803L2.78571 70.4682L1.29753 70.6561C1.95788 75.8853 2.24013 81.1133 2.14456 86.3408L3.64431 86.3682ZM2.78571 70.4682L4.2739 70.2803C3.63235 65.2 4.09324 60.1147 5.6683 55.0105L4.23499 54.5682L2.80168 54.1259C1.10578 59.6217 0.600488 65.1364 1.29753 70.6561L2.78571 70.4682ZM4.23499 54.5682L5.6683 55.0105C7.3823 49.4561 7.56375 43.8803 6.20422 38.3124L4.74704 38.6682L3.28985 39.024C4.51855 44.0561 4.35864 49.0804 2.80168 54.1259L4.23499 54.5682ZM4.74704 38.6682L6.20422 38.3124C4.96675 33.2444 4.95819 28.1868 6.17823 23.1193L4.7199 22.7682L3.26157 22.4171C1.92955 27.9496 1.93908 33.492 3.28985 39.024L4.74704 38.6682ZM4.7199 22.7682L6.17823 23.1193C7.48476 17.6926 7.60441 13.1198 6.28432 9.55584L4.87772 10.0769L3.47111 10.5979C4.49266 13.3558 4.50709 17.2438 3.26157 22.4171L4.7199 22.7682ZM4.87772 10.0769L6.28432 9.55584C5.7046 7.99071 5.40699 6.93392 5.3213 6.31507C5.27419 5.97481 5.32088 5.95872 5.27622 6.09595C5.24545 6.19053 5.15547 6.39928 4.9265 6.58199C4.68192 6.77716 4.41348 6.83545 4.22121 6.83545V5.33545V3.83545C3.84565 3.83545 3.42367 3.94313 3.05531 4.23707C2.70255 4.51857 2.51854 4.87548 2.42347 5.16762C2.25024 5.69997 2.28735 6.27656 2.34965 6.72653C2.4828 7.68814 2.88002 9.00206 3.47111 10.5979L4.87772 10.0769ZM4.22121 5.33545V6.83545C4.99892 6.83545 8.06474 6.71095 13.3398 6.46856L13.2709 4.97014L13.2021 3.47172C7.87711 3.71641 4.90978 3.83545 4.22121 3.83545V5.33545Z"
        fill="black" />
</svg>