<svg xmlns="http://www.w3.org/2000/svg" width="101" height="103" fill="none" viewBox="0 0 101 103"><path fill="#121212" d="m2.309 62.002-.748.058zm.67 4.336-.73.17zM8.966 77.95l-.596.455zm2.636 3.463.598-.453zm2.413 3.698-.654.367zm3.073 3.063-.364.656zM35.956 99.14l.202-.722zm4.272 1.078-.164.732zm8.727 1.472.088-.745zm8.754-1.223-.036-.749zm4.255-.896-.269-.7zm4.17-1.342.19.726zm7.828-3.728.31.682zm4.102-1.658-.253-.706zm3.645-2.391-.55-.511zm6.58-5.878.618.425zm2.492-3.664-.623-.418zm8.92-24.333-.737-.14zm-.24-12.985-.733.164zm-.49-4.38.75-.005zm-3.512-7.946-.669.34zM86.304 16.58l.564-.494zm-2.792-3.472-.603.446zm-3.285-2.946-.376.649zM76.38 7.92l-.38.647zm-3.79-2.354-.412.626zm-8.675-1.89.338-.67zm-29.937.816-.213-.72zm-4.282 1.136-.172-.73zm-4.071 1.695-.399-.635zM22.05 9.935l-.485-.573zm-3.353 2.869-.49-.567zm-3.004 3.179.594.458zM12.3 18.878l-.368-.654zm-5.103 7.135-.629-.409zM2.7 38.333l-.738-.135zm-1.673 11.82-.693-.287zm-.19 3.23-.746.084q.25 2.232.79 4.403l.728-.18.727-.182a32 32 0 0 1-.754-4.208zm.772 4.306-.728.181q.513 2.062.679 4.19l.748-.058.747-.059a27 27 0 0 0-.719-4.435zm.699 4.313-.748.058q.176 2.246.687 4.448l.73-.17.731-.17a28 28 0 0 1-.653-4.225zm.67 4.336-.73.17q.497 2.136.951 4.346l.735-.15.735-.152a173 173 0 0 0-.96-4.384zm.956 4.365-.735.151c.335 1.625 1.1 3.044 2.282 4.242l.534-.526.533-.527c-.983-.997-1.605-2.156-1.88-3.49zm2.08 3.867-.533.526a35 35 0 0 1 2.888 3.31l.596-.455.595-.456a36.5 36.5 0 0 0-3.012-3.452zm2.95 3.38-.595.456q1.325 1.733 2.635 3.46l.597-.452.598-.453q-1.311-1.731-2.639-3.466zm2.637 3.464-.597.453a31 31 0 0 1 2.356 3.611l.654-.366.655-.366a33 33 0 0 0-2.47-3.785zm2.413 3.698-.654.367a8.54 8.54 0 0 0 3.363 3.352l.364-.656.364-.655a7.04 7.04 0 0 1-2.782-2.774zm3.073 3.063-.364.656a16.1 16.1 0 0 1 3.395 2.506l.521-.54.521-.54a17.6 17.6 0 0 0-3.709-2.737zm3.552 2.622-.52.54a45 45 0 0 0 3.377 2.952l.465-.588.465-.589a44 44 0 0 1-3.266-2.855zm3.322 2.904-.465.588a13.2 13.2 0 0 0 4.085 2.199l.235-.712.235-.712a11.7 11.7 0 0 1-3.625-1.952zm3.855 2.075-.235.712a25.5 25.5 0 0 1 3.949 1.684l.351-.662.352-.663a27 27 0 0 0-4.182-1.783zm4.065 1.734-.351.662a21.2 21.2 0 0 0 4.223 1.69l.202-.722.202-.722a19.7 19.7 0 0 1-3.924-1.57zm4.074 1.63-.202.722q2.141.6 4.31 1.088l.164-.732.165-.732a84 84 0 0 1-4.235-1.068zm4.272 1.078-.164.732q2.17.488 4.37.855l.124-.74.123-.74a78 78 0 0 1-4.288-.839zm4.33.847-.124.74q2.199.368 4.434.63l.087-.745.088-.745a90 90 0 0 1-4.362-.62zm4.397.625-.087.745q2.38.279 4.701-.458l-.227-.715-.227-.715a9.6 9.6 0 0 1-4.072.398zm4.387-.428.227.715a16.4 16.4 0 0 1 4.176-.761l-.036-.749-.036-.749q-2.298.112-4.558.829zm4.367-.795.036.749a14.4 14.4 0 0 0 4.488-.945l-.269-.7-.269-.7a12.9 12.9 0 0 1-4.022.847zm4.255-.896.27.7a39 39 0 0 1 4.09-1.316l-.19-.726-.19-.726q-2.15.562-4.249 1.368zm4.17-1.342.19.726a15.6 15.6 0 0 0 4.183-1.776l-.39-.64-.39-.641a14 14 0 0 1-3.782 1.605zm3.982-1.69.39.64a35 35 0 0 1 3.767-1.996l-.31-.682-.311-.683a37 37 0 0 0-3.926 2.08zm3.846-2.038.31.682a52 52 0 0 1 4.044-1.634l-.252-.706-.253-.706a54 54 0 0 0-4.159 1.68zm4.102-1.658.252.706a9.8 9.8 0 0 0 3.941-2.586l-.549-.511-.549-.511a8.3 8.3 0 0 1-3.348 2.196zm3.645-2.391.548.51a16.6 16.6 0 0 1 3.27-2.712l-.402-.634-.401-.633a18 18 0 0 0-3.565 2.958zm3.416-2.836.402.634a11.6 11.6 0 0 0 3.38-3.25l-.618-.426-.618-.425a10.1 10.1 0 0 1-2.947 2.834zm3.164-3.042.618.425a384 384 0 0 0 2.496-3.671l-.622-.418-.623-.418a382 382 0 0 1-2.487 3.657zm2.492-3.664.622.418a51 51 0 0 0 2.318-3.803l-.657-.361-.657-.362a49 49 0 0 1-2.25 3.69zm2.283-3.746.657.361a30 30 0 0 0 1.86-4.072l-.703-.26-.704-.26a28.4 28.4 0 0 1-1.767 3.869zm1.814-3.971.704.26a48 48 0 0 1 1.665-3.954l-.678-.322-.677-.322a49 49 0 0 0-1.718 4.078zm1.691-4.016.678.322a44 44 0 0 1 2.077-3.85l-.642-.388-.642-.387a46 46 0 0 0-2.148 3.98zm2.113-3.916.642.388c.874-1.447 1.207-3.031.999-4.727l-.745.092-.744.092c.168 1.367-.096 2.613-.794 3.768zm.896-4.247.745-.092q-.269-2.187.115-4.205l-.737-.14-.737-.14a15.1 15.1 0 0 0-.13 4.669zm.123-4.437.737.14q.422-2.232.284-4.505l-.749.046-.748.046a16.7 16.7 0 0 1-.261 4.134zm.272-4.319.749-.046a51 51 0 0 1-.084-4.297l-.75-.016-.75-.016a54 54 0 0 0 .087 4.42zm-.085-4.359.75.016a18.6 18.6 0 0 0-.446-4.486l-.732.163-.732.164q.456 2.038.41 4.127zm-.428-4.307.732-.163a20 20 0 0 1-.47-4.222l-.75.004-.75.005q.014 2.331.506 4.54zm-.489-4.38.75-.005a8.1 8.1 0 0 0-1.4-4.55l-.624.418-.623.417a6.6 6.6 0 0 1 1.147 3.724zm-1.274-4.137.623-.417a36 36 0 0 1-2.192-3.731l-.669.339-.669.34a37 37 0 0 0 2.284 3.886zm-2.238-3.81.669-.338a92 92 0 0 0-2.058-3.83l-.652.37-.652.37a90 90 0 0 1 2.024 3.768zm-2.041-3.798.652-.37a26.4 26.4 0 0 1-1.793-3.862l-.703.262-.703.26a28 28 0 0 0 1.895 4.08zm-1.844-3.97.703-.262a11.3 11.3 0 0 0-2.465-3.942l-.54.52-.542.52a9.8 9.8 0 0 1 2.141 3.425zm-2.303-3.684.54-.52a94 94 0 0 1-2.943-3.207l-.564.494-.564.495a95 95 0 0 0 2.99 3.258zm-2.967-3.233.564-.494a53 53 0 0 1-2.753-3.424l-.603.446-.603.446a55 55 0 0 0 2.831 3.52zm-2.792-3.472.603-.446a11.5 11.5 0 0 0-3.512-3.149l-.376.649-.376.649q1.8 1.042 3.058 2.743zm-3.285-2.946.376-.649a952 952 0 0 1-3.844-2.24l-.38.647-.378.647q1.913 1.121 3.85 2.244zM76.38 7.92l.379-.647a85 85 0 0 1-3.756-2.334l-.412.627-.413.626a87 87 0 0 0 3.823 2.375zm-3.79-2.354.413-.627c-1.4-.92-2.996-1.31-4.755-1.186l.053.748.053.748c1.457-.102 2.72.218 3.824.943zM68.302 4.5l-.053-.748c-1.486.105-2.81-.15-3.995-.747l-.338.67-.338.67c1.448.73 3.047 1.025 4.777.903zm-4.386-.825.338-.67a33 33 0 0 0-4.176-1.757l-.243.71-.243.71q2.058.704 3.986 1.676zm-4.081-1.717.243-.71a12.3 12.3 0 0 0-4.611-.651l.037.749.036.749a10.8 10.8 0 0 1 4.052.573zm-4.331-.612-.037-.75Q53.29.706 51.144.525l-.062.747-.063.747q2.246.189 4.52.078zM51.08 1.27l.063-.747a130 130 0 0 1-4.42-.45l-.088.745-.089.745q2.262.268 4.472.454zM46.637.819l.088-.745a10.2 10.2 0 0 0-4.718.54l.254.705.255.706a8.7 8.7 0 0 1 4.032-.461zm-4.376.5-.255-.705a67 67 0 0 0-4.204 1.678l.301.686.302.687a66 66 0 0 1 4.11-1.64zm-4.157 1.66-.302-.687a34 34 0 0 1-4.036 1.48l.213.72.213.719a36 36 0 0 0 4.213-1.546zm-4.125 1.513-.213-.72q-2.072.615-4.24 1.126l.171.73.172.73A78 78 0 0 0 34.19 5.21zm-4.282 1.136-.172-.73a14.1 14.1 0 0 0-4.298 1.79l.399.635.398.636a12.6 12.6 0 0 1 3.845-1.601zm-4.071 1.695-.399-.635a32 32 0 0 0-3.66 2.674l.484.573.484.573a30.5 30.5 0 0 1 3.49-2.55zM22.05 9.935l-.485-.573q-1.695 1.434-3.359 2.875l.491.567.491.567q1.657-1.435 3.346-2.863zm-3.353 2.869-.49-.567a22.6 22.6 0 0 0-3.108 3.287l.594.459.594.458a21 21 0 0 1 2.901-3.07zm-3.004 3.179-.594-.459c-.83 1.077-1.883 1.977-3.167 2.7l.368.654.368.653c1.447-.815 2.657-1.844 3.619-3.09zM12.3 18.878l-.368-.654c-1.5.845-2.605 2.037-3.29 3.566l.685.306.684.307c.549-1.224 1.426-2.178 2.657-2.872zm-2.973 3.218-.685-.306a28 28 0 0 1-2.074 3.814l.629.41.628.408a29.4 29.4 0 0 0 2.186-4.019zm-2.13 3.917-.629-.409a11.7 11.7 0 0 0-1.717 4.353l.738.134.738.133q.376-2.08 1.498-3.802zm-1.608 4.078-.738-.134a13.1 13.1 0 0 1-1.37 3.935l.659.357.66.357a14.6 14.6 0 0 0 1.527-4.382zM4.14 34.249l-.66-.357a14.5 14.5 0 0 0-1.517 4.306l.738.135.737.135A13 13 0 0 1 4.8 34.606zM2.7 38.333l-.737-.135a81 81 0 0 1-.892 4.235l.73.174.73.174q.51-2.142.907-4.313zm-.9 4.274-.729-.174a16.6 16.6 0 0 0-.442 4.514l.75-.03.749-.028q-.081-2.085.402-4.108zm-.422 4.31-.75.03c.056 1.433-.068 2.376-.293 2.92l.693.286.693.287c.354-.853.464-2.066.407-3.55zm-.35 3.236-.693-.287c-.365.88-.408 2.117-.243 3.6l.746-.082.745-.084c-.16-1.427-.076-2.344.138-2.86z"/><path stroke="#121212" stroke-linecap="round" d="M66.684 86.725c.035.189.279.378.588.41.258.029.567-.004 1.29-.106.539-.076.893-.177 1.383-.278.395-.082 1.125-.34 1.668-.541.17-.07.321-.136.566-.258.17-.09.435-.237.707-.388"/><path stroke="#121212" stroke-linecap="round" stroke-width="3" d="M67.782 87.161c.205-.03.696-.183 1.291-.378.445-.193.849-.361 1.237-.504l.464-.143"/><path stroke="#121212" stroke-linecap="round" d="M34.565 59.112c.017.14.122.49.22.842.104.379.237.79.386 1.152.113.275.167.64.281 1.02.118.39.237.712.422 1.133a6.5 6.5 0 0 0 .642 1.126c.214.297.526.824.79 1.204.218.312.528.642.783 1.002.284.4.642.782.861 1.116.224.34.5.598.739.906.26.336.553.641.826.94.232.255.43.51.642.783.337.436.949.958 1.16 1.178.332.345.773.817 1.23 1.265.282.276.51.467.73.678.31.297.712.632.993.852.291.227.563.413.844.58a9.8 9.8 0 0 0 1.899.835c.277.088.562.142.853.22.36.099.711.133.993.203.345.086.773.088 1.055.158s.562.14.852.255c.167.044.326.08.501.106.106.009.245.009.388.009"/><path stroke="#121212" stroke-linecap="round" d="M51.442 76.306c.488 0 1.51-.07 1.792-.167.31-.107.563-.378.844-.57.282-.194.563-.3.844-.414.276-.112.563-.168.853-.273.37-.134.746-.369 1.037-.536.27-.156.519-.447.8-.633.278-.183.544-.447.8-.668.231-.199.5-.377.774-.632.228-.214.518-.378.756-.58.232-.199.5-.344.913-.703.276-.24.571-.536.871-.818.238-.225.475-.474.695-.756.226-.29.465-.51.746-.843.41-.486.598-.81.783-1.1.162-.254.395-.518.624-.887.209-.336.387-.686.537-.976.171-.333.325-.607.466-.888.14-.282.28-.562.457-.8.17-.23.193-.554.281-.835.112-.355.3-.773.37-1.055.075-.302.158-.65.245-.95.08-.272.106-.562.168-.852.043-.326.114-.676.202-1.08.018-.158.018-.402.07-.653M50.599 57.74c0 .123.07.403.201.685.127.27.203.562.264.905.105.58.132.94.22 1.257.078.28.106.528.027.686-.042.085-.234.054-.35.019a.45.45 0 0 1-.238-.175c-.054-.07-.088-.14-.106-.646s-.018-1.446-.018-2.414M49.228 67.814a1.9 1.9 0 0 0 .684-.158c.311-.136.807-.263 1.3-.378.37-.114 1.139-.15 2.07-.132.34.017.41.052.64.14M41.686 40.178c-.07.07-.176.385-.299.684a3 3 0 0 0-.185.844 4.5 4.5 0 0 1-.193.905c-.105.337-.15.66-.307 1.046-.159.388-.177.756-.308 1.204-.112.383-.15.712-.194 1.143-.034.33-.132.677-.237.994-.117.352-.105.65-.132.94-.03.33-.132.607-.158 1.02-.02.314-.132.589-.246 1.002-.09.323-.15.642-.316 1.055-.126.31-.272.693-.475.993-.209.31-.378.616-.545.914-.15.27-.36.528-.528.853-.182.354-.377.73-.51 1.011a3.5 3.5 0 0 0-.281.897c-.06.372-.289 1.035-.413 1.424-.087.273-.088.562-.097 1.807-.004.483.131.794.21 1.094.077.288.167.666.255 1.002.074.28.141.562.264.887.114.302.246.572.37.853.122.282.228.562.412.8.167.273.325.466.413.58.036.062.053.132.124.204"/><path stroke="#121212" stroke-linecap="round" d="M34.776 52.783c.07.07.105.35.193.684.09.342.07.668.123.95.056.298.088.65.193 1.045.094.353.124.712.22 1.012.093.29.097.615.167.94.075.346.159.834.211 1.17.047.3.088.614.158.948.075.355.194.703.264 1.003.071.303.228.615.325.896s.167.563.316.836c.144.262.344.465.475.747.143.305.36.562.528.843.044.071.096.14.14.211s.08.14.22.265M41.105 39.544c0 .123.07.403.158.685.087.277.14.562.21.844.071.282.176.562.265.844.07.281.175.562.228.844.018.07.053.14.141.37"/><path stroke="#121212" stroke-linecap="round" d="M40.789 39.254c.14.175.28.49.386.8.115.335.21.605.308.94.1.345.237.615.316.94.074.304.185.571.308.897.114.302.229.501.246.572.017.069-.052-.21-.079-.837-.067-1.601.009-2.748.035-2.889.052-.278.062-.77.106-1.23.062-.649.061-.967.158-1.292.091-.31.271-.59.439-.844.165-.252.43-.553.685-.853.255-.298.588-.527.88-.782.328-.289.869-.59 1.125-.792.25-.198.587-.412.887-.633.14-.079.3-.202.466-.351.08-.062.15-.097.326-.186"/><path stroke="#121212" stroke-linecap="round" d="M45.746 32.609c.018.122.123.403.167.772.037.304.097.615.15.976.029.202.07.396.096 1.233.024.749.01 2.16 0 2.92-.01.974-.096 1.253-.149 1.543-.058.32-.246.554-.369.931-.133.412-.421.853-.667 1.345-.163.325-.422.737-.65 1.126a9 9 0 0 1-.66.984c-.313.395-.85.807-1.248 1.231-.33.352-.764.685-1.046.906-.282.167-.51.325-.668.43-.071.054-.123.106-.283.212"/><path stroke="#121212" stroke-linecap="round" d="M40.05 47.482c.105-.052.28-.297.527-.474.25-.18.597-.194.905-.255.32-.065.606-.097.888-.167.302-.076.615-.228.897-.37.281-.14.562-.246.975-.456.309-.158.589-.3.827-.475.24-.178.553-.334.843-.51.35-.212.572-.456.87-.755l.177-.176c.053-.053.105-.106.317-.265M45.747 44.95c0 .384-.035 1.195-.114 1.52-.115.29-.185.502-.255.642l-.106.212"/><path stroke="#121212" stroke-linecap="round" d="M44.903 47.904c.104-.157.386-.508.58-.746.226-.278.386-.606.614-.888.21-.258.352-.562.58-.887.204-.29.422-.729.651-1.064.188-.274.351-.632.536-.967.224-.402.431-.755.572-1.037.148-.296.316-.72.475-1.064.146-.316.228-.606.325-.888.101-.294.307-.701.466-1.072.156-.364.246-.65.317-.932.071-.286.158-.562.29-.931.1-.285.149-.615.237-.959.075-.29.175-.606.299-.993.091-.287.07-.58.158-1.01.035-.397.088-.608.114-.783.01-.105.01-.245.01-.388"/><path stroke="#121212" stroke-linecap="round" d="M51.02 30.869c.036.122.141.403.22.693.09.333.15.676.202.993.05.3.123.65.203 1.028.096.458.096.748.123 1.388.019.452.079.836.088 2.606.003.589-.079.867-.184 1.202-.118.372-.193.877-.282 1.222-.083.322-.14.606-.22.888-.086.308-.184.65-.255.993-.068.335-.28.85-.377 1.23-.091.356-.272.66-.37.941-.103.301-.324.562-.474.879a.5.5 0 0 1-.167.167c-.07.045-.157.08-.3.115"/><path stroke="#121212" stroke-linecap="round" d="M51.126 30.869c.035.122.14.403.263.684.126.289.246.562.378.835.153.319.378.677.519.959a17 17 0 0 1 .905 2.109c.141.398.238.668.343.993.108.333.176.869.273 1.24.12.462.096.967.106 2.089.004.515-.114.829-.167 1.12-.062.336-.176.605-.238.887-.065.298-.202.615-.29.906-.111.368-.316.658-.5.896-.215.277-.343.66-.528.94-.079.141-.202.3-.36.458l-.282.282"/><path stroke="#121212" stroke-linecap="round" d="M51.39 45.267c.122-.035.403-.175.702-.369.357-.23.65-.421.975-.589.307-.157.572-.325.897-.466q.224-.105.422-.263c.062-.053.114-.105.22-.212"/><path stroke="#121212" stroke-linecap="round" d="M54.554 43.263c0 .192-.104.718-.22 1.053-.1.295-.306.597-.465.897-.144.272-.334.51-.518.835a3.7 3.7 0 0 1-.536.756c-.28.292-.615.624-.844.88-.237.263-.562.57-.844.834-.264.177-.51.352-.79.537-.072.044-.141.079-.266.167"/><path stroke="#121212" stroke-linecap="round" d="M49.966 49.223c.314 0 1.018.034 2.079.044.526.004.872-.167 1.277-.343.327-.142.756-.333 1.152-.597.441-.294.694-.527.915-.791.15-.282.272-.475.36-.59.036-.061.053-.13.124-.36M56.137 44.634c-.018.21-.053.91-.097 1.719.008 2.06.061 2.341.088 2.578.009.132.009.289.009.45M56.137 49.381c.017-.122.053-.403.105-.737.062-.396.28-.982.71-2.15.38-1.032.502-1.645.652-2.114.094-.291.307-.919.484-1.397.156-.424.175-.896.228-1.257.06-.405.176-.782.238-1.257.026-.458.079-.721.105-1.105.01-.298.01-.802.01-1.322"/><path stroke="#121212" stroke-linecap="round" d="M57.297 35.773c.175.07.42.385.623.685.175.26.308.51.396.8.112.369.351.728.431 1.055.104.423.395 1.026.51 1.468.111.427.272.948.325 1.31.08.544.194.957.246 1.318.044.3.194.571.229 1.028.03.396.123.809.184 1.604.01 1.68-.025 2.88-.087 3.02-.027.07-.044.14-.115.37M60.04 48.537c.052-.14.193-.456.28-.746.13-.43.317-.87.431-1.195.185-.526.308-.87.413-1.205.151-.477.264-.825.483-1.615.098-.425.15-.636.177-.776.009-.07.009-.14.009-.212"/><path stroke="#121212" stroke-linecap="round" d="M61.094 41.839c.123.017.368.157.57.42.195.254.36.598.581 1.037.182.363.343.721.492 1.065.134.307.308.606.431.905.153.37.439.913.607 1.31.169.398.342.94.448 1.283.121.392.298.66.448 1.08.296.832.414 1.249.52 1.636.098.363.245.93.342 1.336.081.34.167.615.255.906.131.43.088 1.01.114 1.362.044.352.062.599.088.991.01.323.01.898.01 1.49"/><path stroke="#121212" stroke-linecap="round" d="M65.63 57.503c.105-.175.175-.525.255-.843.068-.274.131-.632.21-1.019.09-.433.29-1.522.388-2.25.056-.42.148-1.193.22-1.688.087-.563.105-.827.131-1.168.009-.253.009-.671.009-1.101"/><path stroke="#121212" stroke-linecap="round" d="M66.474 48.695c.123.105.333.35.51.965.178.623.281 1.336.378 1.715.077.305.096.624.202 1.08.072.312.07.669.123.986.06.367.088.826.114 1.151.026.15.044.5.062.957a.8.8 0 0 0 .088.32M67.95 56.132c0-.123.035-.403.15-.694.163-.414.324-1.027.44-1.362.026-.07.06-.14.078-.211s.018-.14.071-.318M69.005 52.967c.105.157.246.544.317.852.077.338.087.659.114 1.08.064 1.013.01 2.638-.122 2.972a1.5 1.5 0 0 1-.158.255c-.062.08-.132.15-.256.38"/><path stroke="#121212" stroke-linecap="round" d="M69.744 56.923c.07.122.106 1.447-.026 2.547-.053.445-.22.861-.439 1.398-.204.5-.518.87-.957 1.31-.411.411-.827.51-1.073.695-.07.044-.158.08-.229.123a1 1 0 0 0-.177.15"/><path stroke="#9f9d9d" stroke-linecap="round" d="M68.53 60.562c.036.122.141.438.212.746.08.355.122.781.202 1.151.119.551.096.949.106 2.36.003.51-.132.787-.307 1.148-.14.285-.422.343-.554.422-.071.044-.183.027-.272-.007a1.06 1.06 0 0 1-.326-.598c-.01-.07-.01-.14-.062-.264M67.497 64.269c-.014-.028-.021-.29-.018-.68.004-.141.011-.17.018-.198a1 1 0 0 0 .022-.108"/><path stroke="#121212" stroke-linecap="round" d="M34.793 52.918c0 .37-.04 1.239-.08 1.654-.037.391-.157.885-.216 1.301-.06.413-.098.926-.177 1.242l-.06.238M34.26 58.003c-.079-.078-.235-.51-.374-1.004a9 9 0 0 0-.601-1.508c-.181-.37-.384-.818-.464-1.163a6 6 0 0 1-.157-.582c-.02-.099-.04-.196-.12-.415M32.427 53.804c.02.137.059.686.108 1.328.03 1.352.089 1.589.128 1.746.02.08.04.157.06.415M32.663 57.294c-.039-.04-.137-.099-.363-.158a1.7 1.7 0 0 0-.502.01c-.14.029-.198.087-.377.207M30.239 56.939c.177.117.334.431.462.767.117.307.207.63.355.946.137.292.325.61.542.946.214.332.473.63.72.937.237.294.56.444.876.64.286.18.709.316 1.065.396.157.058.335.118.522.157.09.02.167.04.366.119"/><path stroke="#9f9d9d" stroke-linecap="round" d="M33.35 59.565c0 .03-.038.221-.095.51-.032.156-.073.532-.161 1.405-.056.543-.05 1.298-.036 1.82.023.79.154 1.145.234 1.288.097.17.212.304.396.473.143.131.559.154.796.089a1.7 1.7 0 0 0 .311-.257c.024-.031.039-.062.078-.116M34.435 62.01c.023.076.068.29.1.475.038.261.046.485.057.592.004.069.004.168.004.27"/><path stroke="#121212" stroke-linecap="round" d="M41.695 71.793c.135.057.368.328.572.688.242.427.534.981.768 1.34.242.374.427.807.573 1.118.148.315.224.68.311 1 .107.393.263.73.34 1.04.083.33.194.719.253 1.195.02.108.058.185.078.263s.02.155.078.234M44.785 79.254c-.155-.135-.349-.445-.534-.757-.199-.334-.398-.756-.68-1.252-.2-.351-.553-.709-.893-1.08-.184-.154-.399-.35-.622-.553-.107-.088-.204-.146-.42-.322M42.22 76.748c.193.327.505 1.183.63 1.524.138.37.186.728.283 1.04.116.374.213.854.417 1.504.202.642.32 1.31.409 1.817.113.653.106 1.166.136 2.146.01.207.029.284.038.381.01.097.01.213.01.332M43.968 85.783c-.116-.077-.31-.387-.466-.853-.132-.398-.272-.7-.562-1.301a3 3 0 0 1-.302-.575c-.03-.088-.049-.165-.185-.419M38.14 90.563c.173-.193.523-.62.746-.892.329-.4.805-1.26 1.34-2.33.256-.51.283-.973.458-1.42.212-.544.717-1.821.952-2.72.138-.525.176-.953.272-1.264.02-.155.059-.33.127-.515.03-.088.048-.165.068-.302M36.507 82.286c.097.135.29.599.533 1.153.379.864.457 1.524.564 2.282.219 1.542.282 1.887.312 2.47.01.137.028.233.038.629s.01 1.088.01 1.802M36.74 80.711c-.02.136-.059.446-.261 1.23-.227.876-.785 1.601-1.137 2.102-.273.387-.758.728-1.291 1.214-.477.31-1.175.738-1.546.904a.6.6 0 0 0-.137.205"/><path stroke="#121212" stroke-linecap="round" d="M34 79.021c0 .385-.038 1.242-.068 1.776-.023.42-.087.806-.116 1.234a4 4 0 0 1-.214 1.07c-.114.317-.145.795-.387 1.445-.342.79-.458 1.1-.604 1.41-.029.079-.048.156-.068.41"/><path stroke="#121212" stroke-linecap="round" d="M35.108 77.505c-.02.136-.174.484-.485.883-.351.45-.66.69-1.03 1-.299.253-1.103.486-2.054.72-1.219.298-2.531.312-2.872.36-.491.07-2 .069-3.147-.038a3.7 3.7 0 0 1-.942-.339c-.138-.078-.195-.136-.372-.196M24.557 79.546c.328 0 1.335-.077 2.038-.214.596-.115 1.224-.233 1.613-.368.586-.205 1.165-.486 2.126-1 .498-.341.809-.574 1.149-.865.088-.078.165-.155.36-.41M32.31 75.873c-.116.058-.58.29-1.135.456-.36.108-.902.262-1.4.37-.514.11-.902.145-1.447.175-.39.048-.7.068-.952.097-.174.01-.443.01-.72.01"/><path stroke="#121212" stroke-linecap="round" d="M26.422 77.04c.154 0 .504-.04 1.115-.078.434-.028.806-.233 1.476-.591 1.305-.698 1.818-1.7 2.198-2.457.295-.59.34-1.185.409-1.75.055-.45.107-1.837.01-2.953a7 7 0 0 0-.388-1.787c-.317-.9-.602-1.362-.72-1.693-.139-.391-.677-.91-1.058-1.35-.302-.349-.688-.844-.914-1.224-.24-.406-.707-.998-1-1.593-.163-.33-.33-.69-.593-1.311-.174-.415-.379-.893-.476-1.4a6 6 0 0 1-.069-.632 2 2 0 0 0-.048-.244"/><path stroke="#121212" stroke-linecap="round" d="M26.189 58.502c0 .154.038.503.155 1.008.146.63.272 1.338.466 1.943.068.211.463 1.217 1.056 2.626.333.79.595 1.222.81 1.582.058.165.136.302.242.437.05.078.088.174.186.448M26.422 57.86c-.02 0-.039 0-.077.03-.04.028-.097.086-.215.262M24.44 54.304c0 .366-.039 1.184-.116 1.573-.074.367-.136.987-.234 1.66-.032.225-.058 1.15-.03 2.529.026 1.21.36 1.62.602 2.26.138.366.36.681.593.964.243.294.466.573.71.807.068.058.145.116.213.184.069.068.126.145.302.341M26.83 64.972a2.8 2.8 0 0 1-.398-.824c-.12-.422-.107-.825-.136-1.408-.049-.448-.068-.779-.107-.972a3 3 0 0 1-.059-.468"/><path stroke="#121212" stroke-linecap="round" d="M26.13 62.29c0-.289.039-.794.107-1.154.01-.165.03-.34.068-.544q.03-.162.058-.341M25.839 51.36c0 .348-.115 1.124-.358 1.534-.246.414-.67.699-1.04 1.001-.26.213-.66.32-1.194.535-.382.153-.787.136-1.205.185-.145.017-.357.01-.533-.058-.489-.436-.605-.709-.663-.902-.02-.117-.02-.27-.02-.43"/><path stroke="#121212" stroke-linecap="round" d="M31.727 25.974c-.038 0-.135 0-.28.038-.394.104-.689.968-1.03 1.418-.198.26-.34.64-.593 1.02-.45.676-.776 1.231-1.127 1.932-.308.615-.525 1.167-.69 1.497-.226.449-.321 1.106-.554 1.766-.515 1.464-.68 1.925-.807 2.344-.104.342-.223.96-.427 1.506-.152.405-.262 1.163-.34 1.729-.074.53-.137.836-.166 1.166-.048.544-.087 1.127-.117 2.503-.024 1.126-.087 2.685-.165 3.084-.084.433-.097.864-.126 1.36-.035.58-.165 1-.214 1.39-.055.444-.106.835-.155 1.31-.074.726-.281 1.137-.37 1.488-.11.438-.223.873-.407 1.36-.156.412-.359.757-.544 1.107a4 4 0 0 0-.291.418c-.05.069-.107.127-.166.186M32.135 25.157c-.232.136-.62.369-.99.63-.36.257-.68.515-1 .788-.478.405-.982.796-1.283 1.097l-1.205 1.205c-.408.408-.67.806-.981 1.166-.273.34-.583.766-.827 1.117a4 4 0 0 0-.185.351"/><path stroke="#121212" stroke-linecap="round" d="M25.664 31.511c.058-.116.252-.387.369-.698.129-.344.388-.775.612-1.176.244-.436.592-.903.874-1.417.225-.41.476-.787.7-1.09.2-.27.532-.745.95-1.358.414-.605.594-.885.818-1.167.362-.459.997-1.212 1.302-1.681.282-.435.495-.874.728-1.157.28-.338.602-.863.875-1.301.244-.393.64-.787 1.512-1.717.788-.84 1.246-1.032 1.876-1.595.61-.545 1.6-1.222 2.475-1.892.537-.412.84-.655 1.209-.917.748-.533 1.302-.769 2.03-1.117.535-.257 1-.408 1.661-.603.54-.16 1.088-.253 1.652-.35.483-.084.797-.098 3.324-.088 1.174.004 1.845.61 2.302.883.323.193.631.466 1.03.796.457.409.749.623.904.778l.487.487M52.013 11.385c.271.194.582.504.815.864.29.445.775 1.77.992 2.506l.058.243q.03.116.059.235M52.771 16.121c.174 0 .562-.076 1.086-.251a12 12 0 0 0 1.71-.72 10 10 0 0 1 1.633-.602c.564-.149 1.476.057 1.846.193q.787.291 1.399.583c.55.261.932.428 1.302.622.569.298 1.263.66 1.545.874.368.279.67.466 1.126.71.484.257.768.572 1.012.796.26.24.611.379.893.602.371.294.728.592 1.127.855.296.195.611.495.933.826.303.312.67.603.952.807.274.197.477.494.68.777.207.286.38.611.584.932.207.327.417.65.699 1.03.284.383.534.903.758 1.34.185.363.378.921.65 1.564.225.53.428 1.03.536 1.371.118.378.359.709.524 1.069.313.682.65 1.543.797 1.894.166.4.34.952.582 1.902.254.995.458 1.653.574 2.014.112.347.175.747.291 1.107.119.365.175.729.302 1.06.149.39.203.756.31 1.087.106.328.34.737.467 1.185.139.489.262.875.389 1.36.1.387.165.739.252 1.08.101.393.224.728.301 1.078.12.54.291.95.438 1.553.098.407.165.72.291 1.08.109.31.145.631.301.942l.437.875c.243.311.34.544.39.7.028.077.067.154.106.408M79.994 49.276c.039.077.097.29.155 1.322.049.857.02 2.398.03 3.238.012 1.116.107 1.5.155 2.112.11 1.387-.125 1.702-.281 2.023-.171.353-.35.708-.68 1.097-.324.383-.756.912-1.465 1.641-.427.438-.691.827-.944 1.158-.244.318-.525.698-.777 1.03-.331.433-.505.757-.778 1.223-.272.465-.544 1.26-.748 2.068-.233.917-.088 1.755.018 2.373.057.328.204.67.379 1.03.26.535.718.845 1.048 1.001.098.02.213.02.302-.009.088-.029.146-.086.205-.204"/><path stroke="#121212" stroke-linecap="round" d="M75.098 65.394c-.213.251-.756.873-1.117 1.281-.35.398-.708.854-1.03 1.273-.258.337-.417.94-.7 1.718-.284.785-.475 1.61-.583 2.294-.103.654-.068 2.358 0 3.44.036.582.3.951.446 1.302.176.423.514 1.087.767 1.506.2.33.447.632.7.894.254.264.504.554.767.797q.218.132.408.292c.069.049.146.087.4.243M69.502 79.327c.31.135.85.523 1.58.922.618.338 1.04.38 1.488.438.175.058.908.097 1.947.088.385-.01.482-.029.756-.165M71.775 80.784c.174.31.368.737.543 1.048.196.348.505.563.816.865.341.331.757.438 1.117.642.457.146.806.224 2.443.224.346-.02.423-.058.56-.156"/><path stroke="#121212" stroke-linecap="round" d="M77.604 83.029c0 .077 0 .154-.038.222-.303.538-1.436.749-1.99.943a7 7 0 0 1-1.27.33c-2.18.04-2.608-.057-2.773-.086-.088-.01-.184-.01-.4-.068M69.174 85.917c.223.108 1.05.232 2.04.138.37-.035.758-.144 1.08-.25.33-.136.596-.19.867-.303q.11-.06.221-.122M66.761 86.06a7.5 7.5 0 0 1-.252 1.485c-.145.519-.233.864-.33 1.399-.02.127-.04.223-.05.436-.009.213-.009.54.108.994M63.089 79.998c.077.561.117 1.143.175 1.562.079.574.116.962.223 1.457.097.453.107.884.514 2.638.137.591.368 1.409.66 2.046.277.6.525 1.388.652 1.797.118.38.301.68.505.943.05.068.088.145.127.223s.077.155.234.351M60.757 72.419c0 .271-.038.697-.155 1.329-.118.641-.116 1.157-.194 1.661-.171 1.11-.02 2.993.048 3.45.08.532.223 1.35.359 1.826.11.388.483 1.114.825 1.623.316.47.67.855.923 1.186.234.292.447.505.622.68.078.078.136.136.37.312M40.194 45.608c.048-.024.226-.083.588-.173.346-.086.828-.155 1.055-.188.114-.017.192-.033.299-.042.226-.019.626-.045 1.035-.042.155 0 .202.009.369.015s.45.012.806.047.777.1 1.2.2c.424.098.838.228 1.066.298.362.111.575.214.796.321.219.107.543.293.819.463.054.033.09.051.117.07.027.017.045.035.099.053M39.572 50.114c.076-.025.246-.093.48-.17.251-.082.48-.085.638-.106.157-.021.36-.072.72-.102.888-.073 1.077.055 1.23.094.209.052.468.097.672.174.142.052.28.076.446.136.197.07.42.11.646.195.155.059.31.102.46.145.209.06.352.136.476.216.135.089.293.166.43.26.144.099.27.212.424.348l.162.162c.025.025.05.05.153.128"/><path stroke="#121212" stroke-linecap="round" d="M44.826 51.058c0 .127-.017.433-.068.59-.049.152-.076.31-.165.531-.117.291-.293.587-.425.8-.11.177-.403.466-.616.697-.193.208-.476.332-.71.434-.216.094-.614.085-1.138-.055-.279-.074-.464-.276-.698-.471-.428-.357-.506-.553-.744-.884-.148-.206-.239-.383-.332-.549-.105-.186-.195-.462-.276-.659a.5.5 0 0 1-.026-.102q-.006-.051-.005-.102"/><path stroke="#121212" stroke-linecap="round" d="M39.522 50.395c.101.068.22.288.343.471.206.305.336.556.485.816.164.286.344.454.493.663.095.133.208.243.34.396.155.18.335.306.472.412.208.163.433.234.573.277.151.046.277-.076.404-.178.137-.11.306-.28.46-.446.155-.168.178-.353.314-.688.089-.219.12-.464.187-.664.027-.08.06-.149.11-.213a.26.26 0 0 1 .175-.102c.159-.011.107.553.026 1.099-.054.367-.225.52-.357.651-.236.237-.538.285-.82.332-.335.057-.73-.156-.952-.27-.277-.145-.383-.311-.663-.684-.392-.522-.417-.85-.434-1.25-.006-.122.067-.188.13-.239.08-.064.2-.094.454-.12.52-.052.97.026 1.153.09.191.066.319.267.443.517.108.22.106.76-.228 1.385-.06.114-.116.108-.175.108-.302 0-.687-.304-1.066-.725-.229-.253-.21-.575-.189-.715.029-.191.604-.158.969-.103.213.032.285.174.323.238.047.077.005.174-.025.246-.037.09-.14.166-.237.234-.079.055-.166.043-.234.035-.144-.018-.247-.153-.324-.327a.17.17 0 0 1 .013-.149c.04-.065.174-.034.297 0 .1.027.191.093.28.182.083.082.107.2.12.297.006.047-.03.09-.08.115-.342.174-.858.026-1.206-.21-.478-.325-.452-.58-.55-.779-.118-.24-.08-.395-.098-.48-.014-.07-.119-.077-.098-.09.343-.213.641.055 1.45.089.34.014.728-.05 1.057-.093.35-.046.812.008.953.063.157.098.36.2.531.315q.05.03.103.055M55.821 51.882c.032-.032.096-.137.307-.368.106-.116.34-.273.532-.415.095-.07.212-.125.324-.199.126-.084.45-.265.7-.385.134-.064.303-.13.457-.188.066-.026.201-.059.463-.14.377-.119.647-.153.797-.166.304-.026.577-.066.72-.069.112-.002.276-.013.511-.005.404.013.604.06.827.116.286.072.505.11.56.128.06.02.23.066.495.164.4.148.495.226.65.313.148.085.254.136.403.231.097.063.18.128.279.197.116.082.263.212.34.273.087.056.183.14.265.197.019.013.035.029.067.045"/><path stroke="#121212" stroke-linecap="round" d="M57.16 51.34c0 .08.01.26.018.406.007.132.045.279.06.377.02.116.06.252.091.348.027.081.063.254.12.385.046.108.108.21.145.3.043.102.16.227.247.345.058.077.114.149.178.228.067.083.127.17.204.266.075.092.189.17.29.255.091.076.185.116.286.167.108.054.213.109.303.14.089.032.196.059.318.07.183.016.623.042.908.026.103-.005.197-.053.298-.098.085-.038.17-.108.302-.204.113-.081.175-.16.247-.228a2.4 2.4 0 0 0 .234-.263c.066-.084.104-.172.204-.316.09-.127.144-.26.173-.364.044-.153.093-.32.172-.657.073-.307.123-.651.141-.758.024-.134.05-.28.077-.419.018-.091.043-.175.032-.26a1.2 1.2 0 0 0-.095-.35.2.2 0 0 0-.1-.094c-.267-.103-.733-.008-.832.056-.076.05-.114.122-.172.217-.125.204-.302.44-.47.673-.175.245-.268.447-.324.559-.053.105-.162.36-.27.723a1.3 1.3 0 0 0-.054.495c.006.08.066.13.116.168.093.068.31.006.56-.1.125-.053.328-.16.575-.329.198-.136.38-.387.563-.676.116-.182.158-.328.195-.458.09-.315.027-.72-.02-.834a.9.9 0 0 0-.202-.29c-.081-.07-.149.138-.273.37-.107.2-.266.59-.429.902-.163.314-.315.545-.42.722a2.2 2.2 0 0 0-.256.581c-.004.015.081-.378.161-.917.03-.202.027-.26.035-.227.008.034.024.16.032.388.02.553.029.9.066.931.045.039.037.133.03.215-.006.06-.056.093-.093.123-.082.064-.18.05-.398.08-.123.016-.397-.045-.603-.13-.153-.064-.336-.254-.462-.361a6 6 0 0 1-.578-.642c-.098-.12-.257-.423-.372-.696-.047-.111-.077-.228-.136-.416-.1-.323-.127-.454-.154-.556-.005-.021-.01-.042.003-.048.242-.103.485.578.589.727.16.23.321.43.414.536.25.287.395.388.53.46.065.034.157.108.253.164.097.057-.216-.272-.547-.727-.163-.223-.346-.621-.46-.84-.185-.358-.261-.532-.251-.844.002-.059.063-.044.098-.03.119.045.22.118.472.264.123.071.22.141.387.247.315.2.524.367.614.438.307.244.43.284.502.348.095.084-.22.138-.445.175-.066.011-.11.011-.154.02-.253.044-.539-.555-.59-.67-.061-.137-.072-.347-.072-.445 0-.167.408-.263.779-.324.36-.06.617-.014.676-.03.028-.007.047-.026.04-.034-.092-.1-.441.182-.623.32-.096.075-.144.139-.176.178a.2.2 0 0 1-.064.051"/><path stroke="#121212" stroke-linecap="round" stroke-width="5" d="M42.938 24.17c-.524.524-1.987 2.191-3.854 4.352-.758.879-1.288 1.436-1.977 2.39-1.015 1.403-1.983 2.98-2.504 3.96-.334.627-.69 1.173-.912 1.764-.224.598-.28 1.087-.44 1.953a5.5 5.5 0 0 0-.104.885c0 .1.087-.83.525-2.761.302-1.331.962-3.328 1.379-4.566.561-1.668.947-2.416 1.21-3.105.263-.686.764-1.689 1.423-3.184.36-.815.921-1.67 1.555-2.556 2.08-2.911 2.786-3.304 3.096-3.543.754-.579-1.097 2.14-1.819 3.245-1.308 2-1.898 2.398-2.896 3.661-.509.645-1.031 1.295-1.472 1.84-.453.56-.94 1.131-1.968 2.394-.456.56-1.174 1.643-1.782 2.766-.383.708-.486 1.47-.706 2.19-.177.582-.191 1.25-.411 1.81-.431 1.093-1.218 3.257-1.574 4.438-.201.671-.558 1.469-.691 2.178-.115.608-.103 1.263-.293 1.984-.15.568-.456.985-.692 1.47a9.3 9.3 0 0 0-.617 1.736 14 14 0 0 1-.5 1.543c-.237.61-.207 1.118-.221 1.324-.03.414-.016-1.055.102-1.526.127-.505.265-1.145.426-1.69.169-.572.28-1.219.368-1.838.112-.79.147-1.734.206-2.572.046-.648.205-1.338.323-1.854.155-.678.147-1.454.25-1.999.091-.48.162-.955.294-1.573.118-.55.367-1.175.647-1.75.306-.629.28-1.219.47-1.72.178-.465.339-.94.559-1.485.216-.534.602-1.013.94-1.66.267-.509.574-1.03.941-1.75.25-.49.427-1.101.662-1.72.24-.629.675-1.322 1.058-2 .157-.276.354-.5.486-.575.55-.31-.218 1.45-.425 2.07-.22.662-.675 1.03-1.014 1.398-.428.464-.954 1.102-1.513 1.485-.282.193-.56.353-.75.427-.071.028-.104-.13-.105-.248-.002-.485.41-.882.676-1.41.284-.567.644-1.467.984-2.206.295-.64.749-1.322 1.015-1.853.28-.56.704-.998 1.453-1.792.167-.176.252-.295.238-.355-.013-.06-.13-.06-.233-.016-.448.188-.867.572-1.338.764-.481.197-.882.514-1.294.808-.205.147-.207.47-.163.633.118.44.66-.864 1.028-1.482.415-.697.69-1.118 1.03-1.705.311-.542.805-1.264 1.82-2.278.455-.455 1.48-1.247 2.904-2.231 1.416-.979 1.992-1.255 2.523-1.462.517-.202 1.231-.645 2.072-.955.588-.217 1.131-.486 1.706-.677.505-.168 1.043-.25 1.69-.295.853-.058 1.793.043 2.309.19.57.164 1.277.44 1.795.502.43.05-.894-.529-1.365-.603-.533-.085-1.932-.162-3.143-.236-2.088-.126-2.561.162-3.12.352-.619.21-1.145.69-1.457 1.073-.344.421 1.653-.32 2.57-.572.508-.14 1.145-.278 1.78-.426.514-.12 1.101-.235 1.749-.353a14.5 14.5 0 0 1 2.453-.221c.594-.01.84.748 1.281 1.19.442.441.852.793 1.309 1.234.414.4.72.794 1.088 1.22.485.398.868.722 1.059.912l.428.428"/><path stroke="#121212" stroke-linecap="round" stroke-width="5" d="M55.023 19.76c-.204-.118-.674-.293-1.335-.426-.388-.078-1.566-.044-3.342-.06-1.457-.012-2.26.162-2.743.308-.88.266-1.896.85-2.718 1.409-1.26.854-2.502 2.119-2.945 2.575-.123.127-.263.278-.338.295s-.075-.1.027-.262c.762-1.21 2.394-1.927 3.539-2.66 1.628-1.043 3.354-1.267 3.958-1.34.774-.095 3.115-.104 4.923.072a4.9 4.9 0 0 1 1.472.411c.346.157-1.517.556-3.065 1.248-1.691.756-2.339 1.22-3.235 1.822-2.147 1.442-2.779 1.985-3.443 2.443-.551.38-1.044.779-1.515 1.25-.4.4-1.028.792-1.485 1.352-.362.444-1.216 1.23-1.852 1.94-.37.412-.72.882-1.293 1.514-.47.518-.692 1.044-1.162 1.735-.195.287-.354.516-.384.649-.156.687 1.467-.983 2.612-1.497.762-.342 1.502-.545 1.988-.707.568-.19 1.13-.602 1.661-.794.55-.2 1.291-.602 1.852-.882.52-.259.999-.632 1.427-.94.434-.314.809-.545.956-.605.474-.191-.615.998-.983 1.41-.45.505-1.013.648-2.143.707-.623.033-1.134.322-1.635.602-.492.275-.882.602-1.207.868-.045.037.115.117.233.118.487.004.852-.498 1.28-.822.442-.335-1.158.91-1.541 1.233-.382.322-.705.705-1.044 1.073-.346.375-.574.837-.882 1.235-.328.422-.574.925-.795 1.396-.208.443-.191 1.057-.001 1.588.165.46-.249.94-.498 1.411-.226.426-.28.94-.485 1.412-.211.482-.413.94-.603 1.411-.184.454-.192.94-.353 1.411-.156.457-.22.94-.295 1.558-.065.543-.308 1.175-.426 1.72-.119.552-.265 1.306-.411 2-.174.823-.235 1.308-.31 1.81-.07.467-.015-1.407.03-2.993.012-.446.073-1.729.088-3.551.01-1.275.19-2.74.396-3.846.128-.684.118-1.28.206-2.044.072-.626.177-1.09.148-1.252-.114-.635-.47 1.188-1.188 3.196a78 78 0 0 1-1.296 3.342c-.22.532-.63 1.35-.868 2.03-.306.881-.677 1.852-.823 2.426-.03.453-.06.839-.103 1.277-.015.322-.015.846-.015 1.386M34.558 37.226c-.264.41-.732 1.232-1.218 2.128-.763 1.407-1.192 2.22-1.383 2.766-.286.813-.661 1.659-.941 2.293-.332.753-.632 1.338-.809 1.838-.22.624-.352 1.088-.427 2.071-.074.984-.015 2.28.088 2.824.156.825-.248 1.25-.484 1.808-.414.977.058 1.646.277 2.104.05.102.045.22.06.207.045-.425-.015-1.185.073-1.806.03-.118.059-.235.177-.531M26.62 51.78c-.03.205-.089 1.315.057 2.145.108.612.235 1.088.368 1.559.13.459.425.94.735 1.397.283.416.543.866.677 1.352.145.53.308 1.014.543 1.485.265.442.558.852.867 1.25.074.103.133.22.369.516"/><path stroke="#121212" stroke-linecap="round" stroke-width="5" d="M45.408 27.435c1.225 0 3.585.116 4.07.264.54.164 1.015.265 1.793.572.78.308 1.72.78 2.397 1.074.547.237 1.38.616 1.971.853.665.266 1.7 1.406 2.455 2.116.636.599.985 1.352 1.705 2.116.452.48.78.912 1.221 1.383.456.487.852.97 1.235 1.397.495.55 1.058 1.396 1.646 2.174.487.645.912 1.22 1.485 2a38 38 0 0 0 1.015 1.31c.358.446.617.94.941 1.47.507.828.911 1.322 1.192 1.896.309.633.601 1.102.852 1.573.235.44.397.94.56 1.412.165.48.308.94.44 1.484.034.137.103.25.075.252-.614.038-.294-1.322-.397-1.469-.045-.065-.19.027-.278.116-.208.47-.237.882-.28 1.16-.016.162-.016.366-.016.311"/><path stroke="#121212" stroke-linecap="round" stroke-width="5" d="M46.643 23.289c.263.175.967.527 1.79.822 1.127.403 2.03.912 2.662 1.132.829.288 1.688.748 2.529 1.19.738.388 1.31.647 1.75.986.214.164 1.14.803 2.928 2.253 2.249 1.824 3.63 3.083 3.981 3.333.755.533 1.53 1.367 2.059 2.028.657.821 1.554 1.687 3.319 3.817.77.93 1.474 1.815 1.87 2.416 1.014 1.535 1.575 2.573 1.825 3.133.34.762.867 1.557 1.118 2.088.162.47.309.853.382 1.131.044.134.103.25.25.546"/><path stroke="#121212" stroke-linecap="round" stroke-width="5" d="M48.055 21.789c1.025.116 2.202.41 3.23.704.51.145 1.263.382 2.13.559 1.645.335 3.928 1.293 4.897 1.763 1.033.501 1.913 1.059 3.038 2.037.875.76 2.318 2.113 3.403 3.196 2.655 2.65 2.795 3.265 3.265 3.955.32.47.705 1.393 1.191 2.264.395.708.604 1.25.926 1.838.545.993.998 2.318 1.222 3.118.171.608.425 1.378.617 2.073.147.53.367 1.218.574 1.793.059.545.176 1.014.235 1.573.03.148.088.294.236.708"/><path stroke="#121212" stroke-linecap="round" stroke-width="5" d="M53.524 20.818c.263-.205 1.898-.264 3.303-.016 2.808.497 4.544 1.69 5.075 2.03.496.315 1.087.719 1.69 1.16.605.442 1.015.794 1.632 1.425 1.27 1.3 2.881 2.691 3.675 3.47.546.534.912 1.043 1.544 1.675 1.036 1.037 1.28 1.662 1.604 2.09.352.465.617 1.072 1.015 1.792.258.469.514.956.677 1.457.196.607.718 2.05 1.102 3.057.193.508.177 1.059.353 1.822.2.864.235 1.412.31 2.147.063.624.161 1.497.337 2.411.177.766.206 1.178.28 1.413.044.118.102.234.162.354"/><path stroke="#121212" stroke-linecap="round" stroke-width="5" d="M52.73 18.26c.116-.117.586-.234 1.057-.352.47-.118.94-.294 1.411-.441.463-.146 2.629-.177 3.999-.06.67.057 1.204.499 1.735.69.489.178.999.514 1.646.78.512.21.97.47 1.456.793.54.36 1.014.705 1.47.986.427.261.779.748 1.235 1.16.475.429.809.911 1.309 1.441.386.41.735.998 1.059 1.456.29.408.442.925.574 1.396.137.49.367.94.675 1.5.303.547.574 1.028.883 1.5.25.47.456.823.632 1.043.088.104.176.191.354.37M74.871 46.047c.087.322.44.909.793 1.483.302.492.588.867.94 1.207.065.062.148-.158.236-.233a.24.24 0 0 1 .294-.017c.397.26.412.88.545 1.497.142.656.044 1.207.088 2.14.19 4.003-.308 4.477-.601 4.948-.302.485-.617.882-.97 1.396-.331.482-.56.955-.868 1.646-.24.536-.632.985-.985 1.515-.291.437-.617.824-.897 1.265a7 7 0 0 0-.588 1.058c-.045.118-.074.235-.104.62"/><path stroke="#121212" stroke-linecap="round" stroke-width="5" d="M71.872 63.954c0-.933-.058-2.703-.161-4.163-.078-1.106-.015-3.204 0-4.342.027-2.162.16-3.844.394-4.02.314-.235.677-.295.912-.31.245-.015.442.278.604.571.312.567.25 1.38.353 2.16.195 1.473-.161 2.777-.161 3.164 0-.138 0-.953-.102-1.562s-.306-.988-.516-1.378M68.873 70.548c0 .205-.117.674-.206 1.145-.091.485-.205.999-.206 2.759 0 .89.528 1.445.69 1.713.83 1.362-.074-2.997-.014-3.382.109-.697-.146 1.174-.205 2.67-.028.692-.587 1.12-.999 1.62-.333.406-.793.707-1.352.958-.531.238-1.029.396-1.485.646-.439.24-.662.749-.912 1.205-.12.22-.338.398-.442.632-.048.11.043.235.014.251s-.144-.07-.219-.174c-.294-.408-.192-1.014-.236-1.997-.028-.61-.132-1.134-.148-2.483-.007-.66.22-1.12.353-1.606.164-.603.046-1.19-.117-1.662-.04-.119-.102-.234-.074-.324.139-.437.763-.588 1.248-.911.534-.356.926-.794 1.397-1.132.113-.082.235-.133.353-.06.61.37.443 3.166.355 4.717-.03.118-.059.235-.074.382s-.015.322-.015.502M37.028 71.078c.292.203.88.792 1.175 1.19.137.183.441.19.647.22.092.014.147-.144.162-.276.081-.698-.424-1.456-.689-1.927-.306-.545-.706-.94-1-1.411-.266-.427-.324-.824-.31-.971.043-.444.749.673.911 1.158.187.558.514 1.13.72 1.735.18.524.5.897.706 1.324.209.43.383.867.574 1.337.179.443-.043.94-.088 1.632-.034.525-.22.985-.396 1.485-.218.616-.265 1.234-.47 1.735-.1.243-.178.5-.12.75.114.485.852.399 1.175.34.226-.04.179-.556.193-.895.003-.059.074.364.001.745-.15.787-1.277.738-1.732.796-.174.022-.194.175-.15.25.095.164.657.133 1.172.075.148-.017.02-.175-.098-.235-.433-.22-.94-.294-1.484-.412-.505-.11-.897-.586-1.163-1.057-.265-.472-.324-1.087-.368-2.13-.032-.759-.191-1.164-.308-1.268-.443-.393-.53.894-.618 1.805-.015.16-.175.121-.278.063-.444-.251-.662-.822-.97-1.235-.345-.46-.369-.853-.501-1.044-.045-.22.13-.514.366-1.712.03-.875.03-2.505-.058-4.273"/><path stroke="#121212" stroke-linecap="round" stroke-width="3" d="M25.56 56.523c0 .058-.028.204-.072 1.094-.015.773-.015 2.2.014 2.992.029.793.087.91.235 1.118M46.643 29.265c.03.38.088.85.176 1.336.1.548.177 1.712.25 2.645.078.985.104 2.97.03 4.279-.042.766-.161 1.235-.206 1.852-.036.505-.19.97-.279 1.442-.093.494-.352.998-.66 1.426-.305.422-.544.867-.81 1.308-.058.119-.117.235-.161.353-.045.118-.074.235-.28.62M46.731 43.555c0-.205.117-.674.28-1.145.174-.506.308-1.029.352-2.085.026-.6.162-1.526.236-2.413.097-1.174.191-2.174.264-2.852.044-1.09.103-1.618.177-2.279.015-.192.015-.395.103-.694M48.496 29.353c.44.176.792.527 1.057.969.266.44.266 1.93.12 2.91-.071.475-.207 1-.368 1.5-.15.466-.25.999-.441 1.5-.172.45-.162.94-.265 1.426-.015.133-.015.278-.03.411s-.043.25-.25.634M51.142 29.706c.087.176.44.702.72 1.306.235.51.455.956.75 1.427.278.446.587.94.823 1.411.235.471.47.999.676 1.5.183.443.265.998.383 1.573.106.517.235 1.043.338 1.572.147.753.103 1.236.176 1.867-.043 1.28-.19 1.634-.249 1.868-.03.119-.058.235-.088.532M55.464 31.47c.117.555.411 1.673.602 2.204.164.454.22 1.29.295 2.248.044.338.074 1.973.06 4.28-.015.823-.044.94-.075 1.148M56.611 35.88c.059 0 .147.117.25.352.044.118.073.235.088.833.015.599.015 1.676.015 2.52"/><path stroke="#121212" stroke-linecap="round" stroke-width="3" d="M56.876 37.821c.088.994.03 2.643-.044 3.526-.25.472-.367.941-.544 1.412-.03.119-.03.235-.206.62"/><path stroke="#121212" stroke-linecap="round" stroke-width="3" d="M56.523 40.997c.058 0 .175.087.308.35.37.737-.248 1.294-.41 1.78-.183.547-.31 1.014-.573 1.412-.27.407-.412.925-.662 1.396-.264.498-.66.824-1.044 1.147-.353.354-.647.59-.867.721-.103.074-.19.161-.369.251M57.405 33.852l.088.264M56.611 34.116c.323.293.616.762.97 1.263.41.581.646 1.087 1.028 1.632.327.465.647.955.986 1.353.346.407.69.925.926 1.396.25.496.47.94.574 1.644-.014 1.65-.044 2.003-.014 2.106 0-.012-.03-.158-.06-.484M60.493 35.616c.38.41.792.88 1.145 1.453.358.581.94 1.483 1.397 2.41.366.745.455 1.31.589 1.81.175.656.514 1.088.589 1.457.087.428-.718-.776-1.072-1.13-.164-.164.35.673.688 1.29.27.491.543.97.75 1.47.272.658.47 1.176.735 1.735.247.524.207 1.03.368 1.5.165.484.162 1.029.28 1.5.146.471.38.94.543 1.411.044.119.103.235.25.531M67.99 48.142c.324.175.616.82.809 1.424.162.75.191 1.339.235 1.763.015.307.015.802.015 1.224M67.99 76.194c.294.527.705 1.173 1.073 1.85.359.66.778 1.03 1.103 1.31.046.04.088-.13.089-.247.002-.55-.324-1.117-.339-1.515-.015-.409.808.453 1.175.806.456.382.78.706.97.853.104.06.22.088.605.207"/><path stroke="#121212" stroke-linecap="round" stroke-width="3" d="M67.461 73.018c.03.734.089 1.261.25 1.777.165.53.22 1.13.353 1.676.145.594.396 1.423.558 2.088.124.507.367 1.013.53 1.529.176.56.513 1.014.866 1.485.343.457.617.882 1.044 1.162.406.267.867.456 1.264.75.104.06.22.088.338.133.118.044.235.102.531.162M64.778 78.148c.246.066.68.416 1.022.79.327.36.65.703.868 1.066.273.453.713.911.93 1.308.208.377.527.703.807 1.055.136.17.218.352.249.527.067.381-.371.77-.419 1.504-.028.437.232.695.325.75.001-.449-.061-.996-.015-1.458.046-.135.138-.07.233.063"/><path stroke="#121212" stroke-linecap="round" d="M60.757 71.96c0 .466-.058 1.467-.235 1.968-.206.585-.176 1.087-.22 2.656-.02.7-.133 1.166-.148 2.955-.007.773.132 1.298.264 1.77.138.489.367 1.114.53 1.69.159.565.396 1.014.587 1.485.184.453.367.882.56 1.323.207.477.454.94.705 1.295.282.4.485-.909.705-1.482.161-.337.28-.633.339-.868.03-.118.059-.235.089-.443"/><path stroke="#121212" stroke-linecap="round" d="M63.845 84.221c-.147.117-.382.586-.603 1.13-.052.13-.073.25-.146.266-.647.144-.868-1.48-.957-2.012-.029-.118-.087-.234-.132-.353-.044-.118-.073-.234-.103-.619M63.669 81.222c.497.554 1.028 1.732 1.292 2.291.275.581.412 1.205.574 1.691.183.548.309 1.014.34 1.369.068.804-1.146-1.817-1.456-2.834-.203-.667-.133-1.162-.163-1.473-.063-.666.82 1.886 1.088 2.835.155.55.177 1.32.265 1.94.072.51.177 1 .162 1.193-.049.641-.308-1.159-.426-1.717-.124-.588-.235-1.234-.353-1.634-.13-.44 0 1.099.073 1.805.103.997.132 1.354.089 1.37-1.221.462-.838-2.539-.824-4.433.005-.677.308-1.05.498-1.27.084-.096.22-.075.338-.031.557.205.852 1.507 1.046 2.364.051.23.015.584-.014.706-.1.417-.324-1.956-.266-3.559.02-.557.175-.583.307-.41.748.983.517 2.376.488 3.524-.009.333-.088.157-.118-.078-.03-.527.058-.972.22-1.25.073-.134.132-.25.28-.635M70.083 63.602c0 .184-.015.43-.027.687-.014.319-.034.781-.046 1.176-.006.2-.08.32-.092.443s-.134.223-.223.327c-.093.11-.158.242-.2.361-.05.144-.219.212-.334.281-.118.071-.246.154-.37.23a1 1 0 0 1-.387.12c-.128.018-.25.035-.718.039-.197.001-.301-.111-.413-.184a1.2 1.2 0 0 1-.277-.277c-.083-.108-.111-.242-.161-.365-.05-.121-.104-.246-.146-.37a.7.7 0 0 1-.05-.184c-.008-.03-.023-.061-.039-.139M66.577 65.655c0-.068-.015-.222-.065-.345-.049-.119-.05-.55-.028-.85.016-.065.031-.127.043-.257.004-.1.004-.267.027-.485M72.159 65.702c.046.406-.015.774-.157 1.155-.034.09-.066.18-.21.54-.146.359-.405.983-.564 1.403-.233.612-.284.952-.307 1.171-.01.09-.008.135.22-.42.229-.555.686-1.712.932-2.327.247-.615.27-.653.297-.638.089.048.089.252.04.6-.037.251-.15.645-.356 1.21-.207.566-.52 1.289-.65 1.57s-.07.099.118-.296.5-.996.699-1.363.275-.481.405-.73c.327-.623.51-1.052.51-1.034 0 .05-.031.178-.085.363-.053.185-.137.42-.431 1.056-.295.635-.797 1.663-1.071 2.234-.407.85-.42 1.164-.447 1.225-.014.03-.02.062-.058-.193a19 19 0 0 1-.142-1.305 8 8 0 0 1 .06-1.71c.095-.733.286-1.723.388-2.251.101-.53.109-.567.113-.549.004.019.004.095-.057.355s-.183.701-.367 1.195a15 15 0 0 1-.603 1.377c-.256.513-.392.69-.426.748-.017.028-.042.05-.054-.075-.012-.126-.012-.4.118-1.001.13-.602.388-1.523.457-1.762.066-.231-.278.888-.436 1.225-.256.55-.297.717-.327.725-.1-.383-.07-.675-.028-.841a.7.7 0 0 1 .066-.158"/><path stroke="#121212" stroke-linecap="round" d="M68.837 68.492c.085-.238.253-.605.385-.948.063-.166.084-.343.127-.5.039-.146.11-.342.157-.512.048-.174.085-.361.115-.488.041-.167.093-.334.131-.461.042-.138.062-.28.081-.47a3.5 3.5 0 0 1 .08-.457c.04-.157.032-.33.055-.488a1 1 0 0 0 .019-.184c.004-.088.004-.21.004-.336"/><path stroke="#121212" stroke-linecap="round" d="M70.037 63.879c0 .307.015.568.02.986.001.206-.035.359-.085.513-.049.15-.096.322-.162.461-.055.118-.119.276-.23.457-.1.161-.212.296-.304.435-.082.123-.184.238-.288.361a1.5 1.5 0 0 1-.396.343.85.85 0 0 1-.354.115c-.133.013-.482.043-.878.05-.122.003-.084.023-.05.035.128.042.448.149.77.192.142.02.265.035.391.058q.1.009.205.007"/><path stroke="#121212" stroke-linecap="round" d="M68.93 67.847c-.03.076-.336.23-.668.28-.274.042-.753-.011-1.058-.11-.203-.068-.38-.163-.366-.151.336.255.53.327.565.315.184-.06-.287-.457-.453-.695-.14-.202-.22-.323-.323-.465-.11-.153-.211-.388-.3-.52-.093-.138-.142-.292-.192-.43-.055-.15-.088-.368-.116-.516-.023-.129-.004.315.012.469.034.343.184.891.227 1.084.042.194.08.361.13.492.043.162.089.262.12.334.015.035.03.066.092.166M66.6 68.17c-.138-.123-.23-.261-.353-.438-.275-.395-.493-.861-.52-1.065-.022-.17-.011-.304-.026-.316-.3-.232.007 1.04.026 1.245.014.144.043.31.035.431-.016.253-.33-.608-.45-.926-.019-.046-.034-.077-.042-.119s-.008-.096-.008-.15M65.216 66.716a5 5 0 0 1-.261 1.13c-.055.141-.169.3-.284.423-.111.118-.208.276-.312.396-.186.214-.411.465-.542.607-.106.116-.169.25-.242.373-.075.125-.196.193-.323.285q-.111.102-.18.188c-.024.035-.047.08-.116.15M61.047 40.52c0 .04 0 .142-.01.306-.01.083-.03.164-.041.806-.01.642-.01 1.842-.072 3.14M36.52 50.502c-.02.184-.102.676-.184 1.057-.042.194-.062 1.743-.092 3.85-.01.663-.092.5-.123.314-.114-.672-.093-1.862-.206-2.631-.013-.087-.051-.164-.052-.135-.006.64.35 1.487.41 1.868.016.094.042.195.093.186.418-.07.543-1.032.78-1.55.052-.082.113-.163.154-.246a1 1 0 0 0 .083-.31M34.056 50.873c-.082.142-.164.634-.195 1.854-.01.343-.052 1.097-.082 2.042-.01.276-.092.133-.154.019-.207-.38-.41-.791-.627-1.346-.149-.382-.216-.638-.206-.73.583.805 1.16 2.164 1.263 2.535.02.082.041.164.062.31M32.01 56.578q.01-.013.049-.04c.014-.01.034-.006.051.005a.14.14 0 0 1 .043.055c.01.021.013.04.017.071M36.027 55.774c.053.06.184.29.237.46a1 1 0 0 1 .014.085c.002.029.002.063.013.132M32.514 57.071c.03.038.061.1.092.16.038.077.084.17.107.23.027.072.092.123.13.175s.065.12.096.181c.03.062.069.115.103.172.035.06.069.115.086.158.02.047-.074-.096-.16-.184a1 1 0 0 0-.178-.145c-.063-.038-.142-.088-.266-.157l-.268-.15c-.082-.045-.19-.114-.275-.164-.065-.038-.121-.092-.205-.157-.058-.05-.126-.103-.188-.164-.011-.016-.019-.03-.038-.047M32.158 62.088c0 .03-.008.107-.013.23-.005.096-.018.21-.023.352-.004.092-.017.183-.023.397-.003.108-.017.2-.02.375 0 .09.025.158.035.22.029.187.032.504.056.573.02.06.03.122.045.184l.046.183q.023.095.06.2c.031.087.07.152.1.214.027.058.043.122.072.183.03.067.078.115.113.172.034.058.072.111.126.17.05.056.092.106.14.15.048.045.101.09.16.144.07.063.125.1.182.132s.122.036.203.057q.05.014.096.035c.015.005.03.01.057.013"/><path stroke="#121212" stroke-linecap="round" d="M30.677 63.11c.046.121.152.392.28.715.052.13.076.199.112.289.015.036.018.055.164.482.145.426.433 1.26.586 1.697s.16.452.156.454-.02-.01-.135-.475c-.116-.466-.332-1.387-.45-1.918-.12-.531-.134-.645-.142-.732a.5.5 0 0 1 0-.16c.007-.016.022.01.077.273.056.261.15.758.218 1.37.068.611.106 1.324-.047 1.32s-.498-.748-.73-1.28a16 16 0 0 1-.401-.993c-.059-.162-.063-.177-.002.031.06.208.186.64.25.874s.064.257.038.236c-.027-.02-.08-.085-.247-.368a55 55 0 0 1-.596-1.05c-.158-.285-.168-.325-.175-.361-.007-.033.094.156.304.544.1.185.203.338.268.449.101.168.158.309.216.443.025.058.05.096.203.43s.438.962.6 1.31c.161.35.191.399.23.473.15.292.23.43.348.602.03.044.061.093.084.052.023-.04.038-.173.046-.477.008-.303.008-.773.01-1.024.002-.305.017-.366.072-.494q.018-.046.031-.043c.01.002.021.02.088.186.066.165.187.476.261.654.117.284.189.352.227.39.035.035-.056-.285-.139-.634-.035-.152-.033-.255.022-.25.44.05.477.402.557.44.071.034.46.061.695.08.021.002.044.008.04-.003a1.4 1.4 0 0 0-.232-.168c-.092-.064-.236-.174-.384-.287"/><path stroke="#121212" stroke-linecap="round" d="M32.813 65.946c.041.003.133.019.206.032.076.014.19.025.275.036.077.01.169.02.232.035.088.021.19.019.317.025.09.004.182.017.253.032.089.02.205.02.613.018.154-.001.212-.056.34-.117.172-.082.228-.13.298-.167.07-.035.151-.078.213-.124.073-.046.134-.092.193-.128a.5.5 0 0 0 .079-.056M36.394 64.373c.016.099.023.312.02.572-.003.202-.027.338-.04.42-.003.033-.003.082-.023.12-.021.036-.063.059-.106.082"/><path stroke="#121212" stroke-linecap="round" d="M35.361 65.762c.023-.023.077-.069.128-.114q.081-.07.167-.161a.5.5 0 0 0 .098-.184c.022-.068.028-.145.044-.212.02-.09.03-.151.045-.213.016-.062.042-.13.056-.221.016-.11-.01-.196-.032-.226-.046-.061-.111-.111-.157-.172-.05-.066-.03-.188-.044-.257-.018-.088-.079-.141-.115-.225-.072-.166.017-.257.038-.322a1 1 0 0 0 .038-.292 3 3 0 0 0-.013-.466c-.015-.076-.023-.168-.034-.25a.1.1 0 0 0-.023-.049M28.434 63.003c.002-.004.034.007.088.038.095.055.088.18.114.279.045.17.043.37.052.523.007.126.032.274.05.393.015.108.028.2.051.307.037.167.046.413.067.537.04.249.031.344.04.538.015.142.026.292.035.442.003.035.008.058.014.099M41.76 74.075c.197.09.572.385.694.502.113.108.184.432.25.61.053.144.229.519.371.828.052.11.08.215.109.261.006.01-.034-.05-.217-.447-.183-.396-.52-1.149-.704-1.573-.216-.494-.253-.617-.273-.68-.006-.016.03-.006.059.011.059.035.26.287.57.718.146.2.234.385.31.553.078.169.134.32.191.508s.114.407.145.53l.043.17M41.25 77.156c.079.26.124.42.178.566.065.178.116.273.187.415.058.116.094.238.275.611.076.157.204.391.31.64.115.27.206.4.402.792.205.415.202.571.278.79.058.164.156.315.196.445.023.076.062.17.105.292.05.142.15.41.246.734.078.261.125.381.157.503.034.134.06.27.107.417.011.034.01.063-.002.057-.126-.058-.159-.237-.235-.37-.067-.117-.145-.31-.224-.483-.085-.184-.182-.28-.258-.357-.203-.204-.53-.559-.562-.69a.8.8 0 0 0-.034-.224c-.009-.025-.014-.048-.037-.088M41.163 80.533c0 .195-.043.807-.11 1.219-.03.196-.239.854-.48 1.735-.138.508-.241.744-.356 1.142-.192.667-.345.871-.41 1.08-.097.304-.252.578-.433 1.005-.133.316-.224.743-.323 1.008-.096.256-.327.699-.421.98a3 3 0 0 1-.186.338c-.038.072-.07.148-.17.324"/><path stroke="#121212" stroke-linecap="round" d="M38.274 89.43c.12-.076.316-.316.508-.693.341-.671.443-.881.602-1.15.301-.716.465-1.253.52-1.39a.8.8 0 0 0 .044-.181M38.438 88.773c.044-.207.109-.448.246-1.195.048-.265.038-.582.136-1.313.098-.73.282-1.868.388-2.492.145-.861.27-1.095.34-1.281.09-.232.105-.438.165-.842.016-.1.027-.164.033-.22.005-.055.005-.098.038-.241"/><path stroke="#121212" stroke-linecap="round" d="M40.146 80.795c.032.336.01 1.147-.011 1.454-.022.3-.077.493-.099.712-.052.52-.415 1.334-.525 1.8-.101.43-.197.64-.284 1.001-.066.27-.154.482-.328.87-.037.082-.034.126-.05.165-.033.08-.201-.318-.43-1.272-.128-.529-.208-1.16-.275-1.533-.122-.685-.241-1.007-.307-1.259a4 4 0 0 1-.11-.585c-.021-.126-.065-.31-.11-.565"/><path stroke="#121212" stroke-linecap="round" d="M37.486 81.583c-.01.51-.01 1.564.06 1.745.079.2.202.356.34.47.031.028.08.017.114-.004.184-.12.23-.546.405-1.06.073-.214.143-.34.186-.352.186.566.317 1.355.324 1.853-.017.052-.05-.035-.083-.124M36.337 78.628c0 .458-.13 1.265-.257 1.674-.07.227-.148.449-.24.727-.11.33-.269.586-.405.847-.54 1.036-.794 1.534-.963 1.747-.175.221-.258.378-.449.613-.16.198-.214.345-.209.368.01.042.146-.108.419-.424.272-.315.705-.857.956-1.184.429-.562.556-.777.677-1.007.048-.092.066-.197.099-.312.017-.059.01-.125-.06-.05-.246.262-.627.818-1.075 1.31-.388.426-.583.66-.676.698-.078.032.08-.732.364-1.77.257-.939.385-1.384.44-1.725l.033-.186c.02-.1.141.387.273 1.094.12.65-.415-1.554-.475-1.686-.017 0-.038.043-.05.108-.01.066-.01.153-.01.242M25.765 79.871c.05.014.162.023.259.03.17.013.413.016.638.023.207.007.602.003.821 0 .308-.003.396-.016.537-.037.1-.014.255-.043.74-.136a58 58 0 0 0 1.892-.386c.6-.137.967-.252 1.195-.318s.306-.08.436-.12c.312-.094.544-.192.653-.236.202-.082.276-.09.36-.114.051-.014.119-.05-.31.027-.427.078-1.355.266-1.865.372-.575.12-.668.148-.735.162-.247.051-.58.107-.772.144-.16.031-.33.046-.38.051-.044.004.215-.05.71-.196.385-.113.583-.24.673-.29.184-.104.332-.182.585-.315.231-.122.666-.363.909-.504.352-.205.4-.304.503-.401.141-.135-.352.305-.495.38-.123.063-.219.134-.267.16-.02.01-.035-.016-.04-.044-.028-.161.207-.568.31-.77l.014-.028c-.022.046-.129.166-.32.328-.393.247-.578.34-.68.41a1 1 0 0 0-.085.069M32.109 74.316c0 .046-.019.194-.06.327-.046.143-.107.202-.2.32-.078.1-.185.178-.523.403-.123.082-.2.114-.27.16-.104.07-.195.093-.271.124q-.033.009-.065.018c-.021.007-.04.016-.086.04"/></svg>