<svg width="22" height="22" viewBox="0 0 22 22" fill="none" xmlns="http://www.w3.org/2000/svg">
    <path
        d="M1.85132 4.77289C2.36958 4.03124 4.0003 2.40052 5.42105 1.46117C6.43992 0.78753 8.24467 1.05125 10.7399 1.04902C12.9873 1.047 14.7229 2.08777 16.4776 3.16785C17.7829 3.97127 18.8243 5.21519 19.8306 6.92522C21.0489 8.99528 19.8742 13.0248 18.9818 15.2263C18.3842 16.7005 17.714 17.8746 17.1578 18.5436C15.6452 20.363 11.4034 20.6334 9.08124 20.8188C6.70166 21.0088 4.76429 19.9677 3.45636 19.073C2.38798 18.3422 1.85579 16.7688 1.51736 15.3156C0.966032 12.9484 0.734387 8.82513 1.43805 6.22937C1.69941 5.96577 1.99428 5.81834 2.21991 5.59495C2.44553 5.37157 2.59297 5.07669 2.74488 4.77289"
        stroke="black" stroke-width="2" stroke-linecap="round" />
    <path
        d="M7.90473 6.36133C7.17063 6.83476 6.32803 7.65664 6.06024 8.03042C5.98175 8.18354 6.36727 8.33215 6.25069 8.44474C6.13411 8.55733 5.98175 8.63163 5.8467 8.76448C5.48312 10.0727 5.60281 12.1508 5.88768 13.3439C6.06255 14.0763 6.33753 14.8693 6.88957 15.2376C7.56538 15.6885 8.56643 16.2132 9.79597 16.1175C10.9958 16.024 13.1876 15.8878 13.9692 14.9708C14.2566 14.6336 14.6028 14.0419 14.9116 13.2989C15.3727 12.1894 15.9797 10.1585 15.3502 9.11519C14.8302 8.25334 14.2921 7.62641 13.6177 7.22149C12.711 6.67714 11.8143 6.1526 10.653 6.15361C9.36371 6.15474 8.43119 6.02182 7.90473 6.36133Z"
        fill="#121212" stroke="black" stroke-width="2" stroke-linecap="round" />
</svg>