<svg width="19" height="10" viewBox="0 0 19 10" fill="none" xmlns="http://www.w3.org/2000/svg">
    <path
        d="M15.6111 0.75C15.3128 0.861553 14.6384 1.31115 13.7012 1.78103C12.4637 2.40144 11.1866 2.92699 10.4537 3.09714C9.84261 3.23901 7.1539 3.34165 5.46235 3.22954C4.64957 3.17567 3.68184 2.96756 2.53687 2.40472C2.14171 2.25316 1.80283 2.06611 1.44707 1.80356C1.27707 1.68976 1.12846 1.61539 0.750183 1.42609"
        stroke="#121212" stroke-width="1.5" stroke-linecap="round" />
    <path
        d="M16.2866 1.42578C16.2495 1.42578 16.2123 1.42578 16.1932 1.50015C16.4341 2.43427 17.0736 3.78982 17.2796 4.25801C17.3742 4.50309 17.4485 4.76338 17.7502 5.3696"
        stroke="#121212" stroke-width="1.5" stroke-linecap="round" />
    <path
        d="M12.121 3.34131C12.121 4.12557 12.2696 5.5521 12.4582 6.38087C12.4959 6.56961 12.5331 6.75553 12.5708 6.92568C12.6085 7.09583 12.6457 7.24457 12.6839 7.51049"
        stroke="#121212" stroke-width="1.5" stroke-linecap="round" />
    <path
        d="M7.61774 4.24268C7.65489 4.46578 7.69205 4.68889 7.71119 5.43596C7.73033 6.18303 7.73033 7.44731 7.73033 8.7499"
        stroke="#121212" stroke-width="1.5" stroke-linecap="round" />
    <path
        d="M4.01503 4.24268C3.56921 5.06074 3.26523 5.6309 3.11549 5.93063C2.96576 6.23036 2.8892 6.53234 2.85205 6.83207C2.8149 6.98307 2.7406 7.1318 2.55145 7.62309"
        stroke="#121212" stroke-width="1.5" stroke-linecap="round" />
</svg>