<svg width="19" height="13" viewBox="0 0 19 13" fill="none" xmlns="http://www.w3.org/2000/svg">
    <path
        d="M1 8.13913C1.13807 7.9655 0.763558 8.31851 2.10344 7.53456C3.6473 6.63127 4.80727 6.36464 5.62731 6.03307C6.71736 5.59233 8.73593 5.77053 10.0214 5.89186C10.7025 5.95615 11.3634 6.32699 12.026 6.53671C12.8437 6.7955 13.5599 7.33739 14.1357 7.70401C14.2932 7.82586 14.4657 7.99845 14.6064 8.13913C14.7471 8.27981 14.8507 8.38336 15.1665 8.49005"
        stroke="#121212" stroke-width="1.5" stroke-linecap="round" />
    <path
        d="M17.9906 5.35205C17.7835 5.55915 17.5733 5.7694 17.2611 6.08162C16.7418 6.60094 16.3181 7.09359 16.1267 7.42411C16.0389 7.58206 15.9698 7.72012 15.6895 7.96697"
        stroke="#121212" stroke-width="1.5" stroke-linecap="round" />
    <path
        d="M16.0033 2.63232C15.3077 3.1187 14.7502 3.8833 14.2445 4.59979C14.0181 4.8958 13.7733 5.31419 13.5296 5.80161C13.424 6.01289 13.3549 6.15096 13.1792 6.39781"
        stroke="#121212" stroke-width="1.5" stroke-linecap="round" />
    <path
        d="M12.2378 1.27295C11.7546 2.17039 11.5056 2.77078 11.4193 3.18707C11.1605 3.8795 10.9136 4.47884 10.7745 4.80937C10.7044 4.96731 10.6354 5.10538 10.5643 5.24763"
        stroke="#121212" stroke-width="1.5" stroke-linecap="round" />
    <path
        d="M7.32173 0.75C7.28722 2.31686 7.21714 3.01348 7.02625 3.60654C6.93891 3.98832 6.86883 4.33976 6.79927 4.61799C6.76423 4.75815 6.72972 4.89622 6.69415 5.03847"
        stroke="#121212" stroke-width="1.5" stroke-linecap="round" />
    <path
        d="M6.38223 6.51684C5.99941 7.4216 5.85925 8.66944 6.17147 9.7562C6.4049 10.5687 7.07676 10.9768 7.63531 11.3968C8.10319 11.7486 9.23354 11.6421 10.041 11.5208C10.6965 11.4223 11.2606 10.8074 11.7151 10.354C12.2364 9.83386 12.2397 9.16941 12.3265 8.43828C12.4204 7.64766 12.2407 7.04087 11.9975 6.81494C11.3866 6.24738 10.7084 6.09845 9.76908 5.838C8.86652 5.58774 8.12691 5.92273 7.86594 6.20096C7.62052 6.46261 7.46376 6.79402 7.35917 7.31439C7.18846 8.16367 7.42716 8.92048 7.65309 9.32056C7.8738 9.7114 8.22837 10.0365 8.57615 10.3153C8.86889 10.5499 9.27433 10.4915 9.62212 10.457C9.98322 10.4212 10.2858 10.1788 10.5813 9.93559C11.2424 9.39145 11.1937 8.54288 11.1247 7.89856C11.0764 7.44831 10.6027 7.28458 10.2722 7.16273C9.98262 7.05597 9.45425 7.03982 8.82719 7.0916C8.57531 7.11239 8.47626 7.24692 8.40566 7.40382C8.06465 8.16162 8.40305 8.98951 8.71684 9.54806C8.8025 9.70053 8.9595 9.82628 9.09966 9.88015C9.23982 9.93402 9.37789 9.8995 9.50079 9.82994C10.3809 9.33185 10.5316 7.73853 10.393 7.51208C10.235 7.25387 9.80046 7.35361 9.52223 7.40539C9.37533 7.43272 9.244 7.56072 9.22465 7.70035C9.2053 7.83999 9.30885 8.01258 9.43123 8.11874C9.55361 8.22491 9.69168 8.25942 10.0431 8.08579"
        stroke="#121212" stroke-width="1.5" stroke-linecap="round" />
</svg>