<svg xmlns="http://www.w3.org/2000/svg" width="818" height="645" fill="none" viewBox="0 0 818 645"><path fill="#f8f8f6" d="M0 0h818v645H0z"/><path fill="#121212" d="M82.104 549.198c6.211-.31 18.283-.193 24.924-.132l.375.003c1.6.015 2.993.017 4.743.02 4.202.005 9.864.013 21.477.19a6042 6042 0 0 1 14.509-.037c35.27-.053 70.819.101 106.15.298l1.428-.009c9.171-.058 20.667-.131 27.848-.039 9.195.117 15.322.232 20.478.332 29.192.161 58.467.293 87.688.293 9.158.001 18.335-.012 27.484-.041 8.458-.027 16.848-.063 25.322-.108 4.923-.083 9.548-.177 13.913-.265 6.117-.124 11.453-.233 15.982-.278 10.788-.107 23.016-.03 32.106.027l4.194.025c7.153-.064 14.484-.133 21.62-.201q.716.036 1.446.076c6.259.323 13.721.296 25.683.253 5.058-.018 11.307-.041 18.243-.037 4.639.002 6.966.132 8.872.237.559.031 1.083.06 1.612.083 1.798.079 3.734-.018 6.054-.133 3.012-.149 6.477-.327 11.182-.189 11.647.342 18.306.209 22.845.01 1.388-.057 2.601-.12 3.724-.178 1.477-.077 2.799-.147 4.139-.187 4.229-.13 10.709-.03 15.373.119 3.815.118 11.363-.028 16.936-.202 2.182-.066 5.189-.075 8.502-.084 3.694-.01 7.564-.02 12.113-.097 11.11-.196 16.989-.288 21.715-.362 1.3-.021 2.676-.041 3.903-.06 3.944-.063 8.899-.115 13.904-.165 5.927-.059 12.02-.115 16.668-.178 2.837.04 5.611.024 8.721.167 6.759.495 13.195 1.12 19.785 1.321l.146.008c2.305.185 4.795.258 7.231.323 5.354.131 10.546.324 14.676.65l-.055.001c.558.031 1.091.06 1.59.085 3.942.313 6.217-.643 6.55.053.265.451-1.57 2.744-6.302 3.502a39 39 0 0 1-1.682.257l-.043.001c-4.145.448-9.375.724-14.82.684-2.499-.025-4.959-.05-7.56-.213l.123.006c-6.69-.091-13.458-.631-19.971-1.009-3.006-.086-6.382-.033-9.68-.029-15.041.073-30.11.173-45.244.198-10.508.019-21.07.027-31.648.024l-3.232-.002c-8.939.185-17.617.355-24.025.425-4.721.053-8.341-.01-11.523-.072l-.592-.012c-2.158-.045-4.1-.085-6.088-.072-1.068.007-2.535.021-4.329.038-7.036.069-19.284.188-30.361.063-4.88-.055-10.701-.176-16.088-.292-7.895-.165-15.038-.319-18.773-.254-6.492.115-13.834.058-20.397.007-6.17-.049-11.727-.091-14.795.028-3.677.143-6.829.1-11.557.035-3.316-.044-7.22-.099-12.682-.109-6.326-.011-10.703-.089-14.489-.156-5.326-.093-9.323-.163-15.265.008-6.632.19-13.53.319-18.979.283a708 708 0 0 0-8.279.014c-3.898.02-8.009.042-11.77-.007-3.105-.041-5.648-.16-7.911-.266q-1.056-.051-2.038-.093l-7.393.031-1.257.071c-2.198.125-4.894.278-8.237.361-5.29.13-9.935.073-14.834.013-3.815-.047-7.779-.097-12.327-.061-3.106.025-6.64.088-10.138.151-5.185.093-10.339.184-13.905.147-1.336-.014-2.485-.091-3.62-.167l-.015-.002-.232-.015c-8.683.088-17.355.181-26.069.279l-2.271.067c-3.689.109-7.244.215-9.575.357-2.546.154-8.936.258-15.585.368-4.423.071-8.967.145-12.65.237-2.149.054-4.199-.023-6.334-.102-1.984-.074-4.015-.15-6.224-.123-1.106.013-2.299.051-3.568.091-1.123.035-2.277.073-3.543.097-1.169.023-3.771-.015-7.074-.063-2.042-.029-4.351-.063-6.759-.089-6.531.07-12.816.136-19.342.2-1.353.076-2.52.173-3.442.297-.661.088-1.223.193-1.799.301-.784.146-1.594.297-2.706.419-.869.095-1.89.135-2.574.098a10 10 0 0 1-.81-.08 5.5 5.5 0 0 0-.782-.064c-.206.002-.42.027-.683.058-.42.049-.966.112-1.794.117-3.081.016-6.544.005-9.888-.006-3.858-.012-7.565-.024-10.48.002-3.174.028-8.102-.052-12.729-.133a936 936 0 0 0-9.431-.133c-2.799-.019-5.498.038-8.418.094-3.409.067-6.601.131-9.262.055h-.006c-.57-.016-1.275-.114-2.151-.237-.623-.087-1.337-.188-2.145-.279-3.527.006-6.849.008-10.456.007l-.379.042-.006.001c-2.879.324-6.727.766-12.285.514a29 29 0 0 1-3.019-.293 19 19 0 0 0-2.529-.221c-1.181-.022-2.56.047-4.036.12-2.041.104-4.402.22-6.781.117l-.513-.022c-1.728-.073-4.09-.181-6.711-.402-7.275-.053-14.932-.119-22.305-.196a6369 6369 0 0 1-37.16-.484c-6.037-.104-11.764-.436-16.076-1.039a33 33 0 0 1-2.086-.361c-2.912-.618-4.498-1.118-4.509-1.651-.018-.533 1.682-1.067 4.68-1.321.625-.056 1.28-.116 2.021-.18 4.234-.37 9.974-.644 15.995-.682 9.77-.067 19.755-.17 29.465-.269l1.54-.038c3.91-.088 7.459-.27 10.945-.453q1.209-.063 2.458-.125"/><path fill="#121212" stroke="#121212" stroke-linejoin="round" stroke-width="8" d="M78 386.5v-15h418v15zM78 414v-15h418v15zM78 442v-15h418v15z"/><path fill="#121212" stroke="#121212" stroke-linejoin="round" stroke-width="8" d="M112.75 460.5v-102h16v102zM440 461V359h16v102z"/><path fill="#121212" d="M56.662 467.196c-8.939 9.203-.127 14.946 11.423 16.469 0 0 417.979.754 418.972 0 .993-.753-2.483-5.544 3.725-13.671s3.725-13.67 3.725-13.67-410.033-1.722-415.993-1.238-12.912 2.906-21.852 12.11"/><path fill="#121212" stroke="#121212" d="M65.763 508.99c.116-15.558.237-27.49.237-27.49h14v19.312c7.331-3.869 14.872-7.568 18-9.087V478.5l12 1V557s-4 2.5-6.5 2.5S98 557 98 557v-47.618a2914 2914 0 0 1-18 10.492V577.5c0 2-.5 2-1.5 2.5s-11.5.5-12.5 0c-.517-.259-.499-26.62-.361-52.002-1.88 1.012-3.052 1.589-3.139 1.502-.5-.5-.5-14 0-17.5.089-.621 1.312-1.683 3.263-3.01Z"/><path fill="#121212" stroke="#121212" d="m100.34 530.082-27.603 16.859 6.486 11.207 23.418-15.585zM450.5 576.5c-1-1.5-1.5-94.5-1.5-94.5h16s.238 5.534.576 13.924l8.392-8.392c.018-3.46.032-5.532.032-5.532h9s2 73.5 1 74.5-3 2-5 2.5-3.5-.5-4.5-1c-.611-.306-.662-28.62-.609-50.597l-7.492 9.772c.982 26.507 1.975 58.451 1.101 59.325-1.5 1.5-5.5 3-7.5 3s-8.5-1.5-9.5-3Z"/><path fill="#121212" stroke="#121212" d="m474.5 523-8.5 10 1.5 19.5 7-7z"/><path fill="#121212" stroke="#121212" stroke-linejoin="round" stroke-width="8" d="M595 78v469h196V78z"/><path fill="#f8f8f6" stroke="#121212" stroke-width="5" d="M607 97v188h172V97z"/><path fill="#121212" d="M769.25 237.344a.995.995 0 0 1 1.406-.094c.415.363.457.99.094 1.406l-.062.078-.219.282-.008.015c-.27.344-.795.87-1.508 1.539a9.3 9.3 0 0 0-1.664 2.118 7.3 7.3 0 0 1-2.375 2.492 10.1 10.1 0 0 0-2.07 1.765 32 32 0 0 1-2.149 2.188 71 71 0 0 1-2.265 2 14.2 14.2 0 0 1-2.657 1.789q-1.232.64-2.265 1.547a21 21 0 0 1-2.508 1.883 9.3 9.3 0 0 0-2.039 1.765 9.4 9.4 0 0 1-2.594 2.102c-.841.461-1.644.98-2.406 1.547a17 17 0 0 0-2.117 1.859 41 41 0 0 1-2.211 2.117 25 25 0 0 1-2.438 1.914 31 31 0 0 0-2.289 1.742 46 46 0 0 0-2.187 1.954 12.2 12.2 0 0 1-2.625 1.906c-.792.427-1.912 1.232-3.375 2.453l-.047.031-.078.063a1 1 0 0 1-1.399-.211 1 1 0 0 1 .211-1.399l.078-.062c1.47-1.225 2.701-2.114 3.664-2.633a10.1 10.1 0 0 0 2.196-1.594 49 49 0 0 1 2.273-2.039 33 33 0 0 1 2.445-1.859 23 23 0 0 0 2.243-1.758 38 38 0 0 0 2.101-2.016 19.3 19.3 0 0 1 2.36-2.078 23 23 0 0 1 2.64-1.687 7.4 7.4 0 0 0 2.047-1.657 11.4 11.4 0 0 1 2.469-2.148 19 19 0 0 0 2.266-1.695q1.216-1.069 2.664-1.821a12.3 12.3 0 0 0 2.289-1.539 68 68 0 0 0 2.195-1.945 31 31 0 0 0 2.016-2.055 12.1 12.1 0 0 1 2.476-2.109 5.3 5.3 0 0 0 1.727-1.82 11.2 11.2 0 0 1 2.031-2.571c.728-.684 1.144-1.107 1.305-1.312l.25-.328.015-.024.024-.031zM765.023 254.93l.274.093.258.133.031.063c.051.039.112.067.156.117a.993.993 0 0 1-.078 1.406l-.07.07-.867.774a8.5 8.5 0 0 1-1.375 1.187 9.3 9.3 0 0 0-1.946 1.868 9.3 9.3 0 0 1-2.5 2.218 27 27 0 0 0-2.375 1.625 56 56 0 0 0-2.273 1.844 27 27 0 0 1-2.469 1.867 30 30 0 0 1-2.641 1.594q-1.246.667-2.359 1.531a35 35 0 0 0-2.219 1.875 13.2 13.2 0 0 1-2.625 1.883c-.756.413-1.803 1.25-3.164 2.578l-.047.039-.117.094a1.004 1.004 0 0 1-1.406-.172 1.004 1.004 0 0 1 .172-1.406l.078-.063h.008c1.36-1.32 2.533-2.291 3.515-2.828a11.2 11.2 0 0 0 2.227-1.593 37 37 0 0 1 2.351-1.993 19 19 0 0 1 2.641-1.711q1.28-.682 2.477-1.484a25 25 0 0 0 2.281-1.734 58 58 0 0 1 2.351-1.907 29 29 0 0 1 2.555-1.75 7.2 7.2 0 0 0 1.961-1.742 11.3 11.3 0 0 1 2.367-2.265c.792-.563 1.148-.952 1.258-1.157.124-.228.267-.471.438-.656.082-.089.229-.225.437-.32.18-.082.43-.135.695-.078M653.477 144.273a5.1 5.1 0 0 1 3.32 1.063c.739.559 1.92 1.291 3.578 2.195l.078.031a1.003 1.003 0 0 1-.875 1.805l-.109-.055-.024-.015c-1.694-.924-2.988-1.714-3.851-2.367-.625-.473-1.298-.689-2.047-.664a3.8 3.8 0 0 0-2.109.687q-1.076.752-1.977 1.766a6.8 6.8 0 0 0-1.297 2.172 5.9 5.9 0 0 0-.367 2.445q.087 1.355.437 2.68.365 1.382.852 2.781c.251.724.683 1.239 1.328 1.586q1.217.653 2.516 1.023c.832.238 1.69.348 2.578.321a16 16 0 0 1 3.172.211c.156.026.3.041.429.062l.868.062.101.008a1 1 0 0 1 .703.36l.321.218-.11.641a.973.973 0 0 1-.664.781c-.122.043-.23.052-.266.055-.087.007-.167.002-.21 0a5 5 0 0 1-.352-.031 37 37 0 0 1-1.156-.18 14 14 0 0 0-2.774-.195 10.4 10.4 0 0 1-3.195-.391 14.6 14.6 0 0 1-2.906-1.187c-1.097-.591-1.862-1.502-2.274-2.688a40 40 0 0 1-.898-2.922 16 16 0 0 1-.492-3.07 7.9 7.9 0 0 1 .484-3.258 8.8 8.8 0 0 1 1.68-2.812q1.05-1.183 2.32-2.071a5.83 5.83 0 0 1 3.188-1.047M703.748 146.938c.202.018.62.134.828.585l.195.43-.101.203a1 1 0 0 1-.422.68l-.086.055-3.078 2.031.109-.234c-.171.094-.338.204-.516.296-.82.425-1.974 1.165-3.476 2.25l-.024.016-.031.016-.078.054a1.004 1.004 0 0 1-1.383-.304 1.004 1.004 0 0 1 .305-1.383l.086-.055h.008c1.502-1.083 2.729-1.887 3.672-2.375q1.274-.658 2.25-1.367c.35-.255.627-.455.828-.586.095-.062.203-.123.297-.172.037-.019.127-.069.242-.101a1 1 0 0 1 .375-.039M677.5 144.312c1.151.073 2.589.563 4.266 1.36.455.09.808.471.812.953a1 1 0 0 1-.992 1.008h-.102l-.234.008-.211-.102c-1.678-.808-2.879-1.184-3.664-1.234-.68-.043-1.23.175-1.719.695a6 6 0 0 0-1.304 2.102 8.8 8.8 0 0 0-.508 2.507 2.67 2.67 0 0 0 .594 1.883c.201.255.381.368.523.414.139.045.333.055.617-.031a4 4 0 0 0 1.836-1.18 20 20 0 0 0 1.609-2.039c.352-.513.837-.913 1.461-1.078.609-.16 1.23-.064 1.813.156a7.36 7.36 0 0 1 2.758 1.836l1.226 1.274.055.054.039.063.039.055c.346.285.483.764.281 1.187a1.003 1.003 0 0 1-1.336.469l-.086-.039-.226-.11-.149-.203-.093-.117c-.194-.196-.596-.618-1.196-1.25a5.4 5.4 0 0 0-2.015-1.351c-.327-.124-.513-.11-.602-.086-.074.019-.184.075-.32.273a22 22 0 0 1-1.774 2.242 6 6 0 0 1-2.734 1.758c-.598.183-1.215.208-1.812.016-.597-.193-1.086-.578-1.477-1.071a4.66 4.66 0 0 1-1.023-3.234c.058-1.056.261-2.087.617-3.078a8 8 0 0 1 1.726-2.789c.888-.945 2.017-1.401 3.305-1.321M723.688 149.516c1.03-.28 2.111-.295 3.226-.078.584.113 1.289.375 1.641 1.046.362.695.142 1.419-.133 1.946-.526 1.006-1.586 2.08-3.031 3.226a.98.98 0 0 1-1.11.399 1 1 0 0 1-.656-1.25l.031-.102.094-.297.242-.187c1.488-1.161 2.319-2.065 2.656-2.711q.018-.038.032-.07c-.042-.012-.092-.029-.149-.04-.849-.164-1.618-.143-2.32.047-.561.153-.958.49-1.227 1.094a4.3 4.3 0 0 0-.336 2.258 8 8 0 0 0 .704 2.515q.6 1.3 1.312 2.461c.391.637.954 1.146 1.711 1.524.31.154.518.165.656.141s.33-.108.563-.36c.36-.388.693-.716 1-.969.277-.229.595-.448.929-.57l.438-.172.125-.047.141-.015.101-.008a1 1 0 0 1 1.086.898c.048.51-.3.95-.789 1.055l-.375.148-.023.016-.024.008c-.008.003-.034.012-.078.039-.063.039-.152.1-.258.187a9 9 0 0 0-.812.79c-.455.489-1.011.85-1.672.968-.66.118-1.309-.021-1.906-.32-1.065-.532-1.915-1.288-2.516-2.266a26 26 0 0 1-1.422-2.664 10 10 0 0 1-.875-3.14c-.126-1.153.033-2.256.492-3.289.499-1.122 1.357-1.892 2.532-2.211"/><path fill="#121212" d="M702.513 135.734a7.35 7.35 0 0 1 3.227-.148c.488.085.899.174 1.195.266.138.042.318.108.477.203.078.046.21.138.328.289.132.168.283.471.211.851l-.031.188-.016.015a.99.99 0 0 1-.727.758l-.101.024-2.43.601.774-1.219h-.024a5.34 5.34 0 0 0-2.359.102c-.634.174-1.129.553-1.508 1.211a6.2 6.2 0 0 0-.797 2.414q-.166 1.442-.164 2.875a35 35 0 0 1-.125 3.07q-.121 1.413-.016 2.821a35 35 0 0 0 .344 2.89q.258 1.606.11 3.227a12 12 0 0 0-.008 1.695l.234 2.445.008.04v.039l.008.101a1.002 1.002 0 0 1-2 .102v-.102l.008-.008c-.245-1.886-.343-3.397-.243-4.492a11 11 0 0 0-.093-2.734 37 37 0 0 1-.36-3.055 19.5 19.5 0 0 1 .016-3.141q.121-1.447.117-2.89a27 27 0 0 1 .172-3.11 8.2 8.2 0 0 1 1.055-3.187c.623-1.081 1.539-1.818 2.718-2.141"/><path fill="#121212" stroke="#121212" stroke-width="8" d="M607 286V97l-11-3 2.5 451.5H789V97h-11v189z"/><path fill="#121212" stroke="#121212" stroke-width="8" d="M598.5 93V82.5H787V99H613z"/><path fill="#f8f8f6" d="m744.969 316.817-.02.019c4.884-.115 8.727.02 11.426.488 2.248.392 4.51.471 6.777.254a36.5 36.5 0 0 1 8.184.157c1.678.218 3.266.841 4.453 2.089 1.191 1.255 1.722 2.867 1.816 4.551.086 1.533-.149 3.236-1.23 4.551-1.166 1.411-2.844 1.823-4.395 1.758-1.548-.066-3.011-.564-4.199-1.621-1.162-1.036-1.858-2.435-2.246-3.946a23 23 0 0 1-.527-2.617c-.458.023-.915.016-1.368.059-2.712.26-5.418.154-8.105-.313-2.22-.386-5.721-.548-10.586-.429h-.234a2.505 2.505 0 0 1-2.422-2.578 2.49 2.49 0 0 1 2.539-2.403v-.019l.019.019.02-.019zm25.41 7.05c.22.856.506 1.272.722 1.465.189.169.498.327 1.094.352.155.006.26-.03.332-.039l.02-.039c.041-.181.084-.492.058-.957-.048-.839-.281-1.21-.449-1.387-.178-.185-.568-.45-1.465-.566-.188-.025-.378-.038-.566-.059.071.336.13.749.254 1.23m-2.129-.546c.394-.107.779-.265 1.074-.567.04-.041.043-.115.078-.156-.32-.029-.638-.059-.957-.078z"/><path stroke="#121212" stroke-linecap="round" stroke-width="2" d="M660 219.872c2.28-2.441 4.457-4.709 6.182-6.387.703-.685 1.132-.963 2.597-2.567S673.52 207.412 677 204s7.089-8.245 9.458-10.365c3.117-2.791 1.849-2.08 2.542-2.635.754-.603 1.762-2.465 2.5-2.934.324-.205 2.669-.084 3.06 0 1.005.217 1.267 1.273 3.516 4.813.973 1.531 2.805 4.351 4.059 6.133 1.358 1.929 2.742 3.134 3.365 3.986.649.887 2.783 3.414 2.783 3.414s2.048 1.763 3.291 2.614c1.023.701 1.614 1.7 2.626 2.742.731.753 1.657 1.678 2.557 2.616.789.824 2.455 2.162 3.592 3.253 1.175 1.043 1.728 1.596 2.073 1.851.162.128.299.254.578.512"/><path fill="#f8f8f6" stroke="#121212" stroke-linecap="round" stroke-width="2" d="M664.204 221.637c-6.755.194-7.107.194-7.282.194-.309.57-1.148 1.396-1.282 1.838a43 43 0 0 0-1.103 4.41c-.353 2.219-.667 5.121-.482 7.997.132 2.062.332 3.233.463 3.955.289 1.594.601 2.886.794 4.052.199 1.197.134 2.197.752 2.524.286.152 1.238.469 3.263.853 1.167.221 3.221.566 11.428.538 8.206-.027 22.144-.415 29.945-.654 7.802-.238 9.42-.305 10.857-.435 2.661-.239 4.285-.505 6.523-.72 1.839-.176 5.029-.435 6.691-.631 1.662-.197 1.826-.316 1.859-.48.066-.326.06-.949.22-1.787.155-.808.337-2.364.464-3.552.089-.828.349-1.596.397-3.08.089-2.761.314-3.714.287-5.343-.069-4.002-.138-5.236-.376-6.198-.222-.895-.43-2.107-1.261-2.614-.463-.282-1.074-.575-1.722-.63-.505-.043-1.396-.19-6.704-.417a499 499 0 0 0-23.781-.452c-10.744.049-23.458.445-29.95.632Z"/><path stroke="#121212" stroke-linecap="round" stroke-width="2" d="M656.402 226h4.052M655 230.207h10.752M659 223.312c0 .102.206.31.672.543.243.122.568.08.753-.049a.46.46 0 0 0 .16-.543c-.077-.159-.282-.21-.65-.263M723.444 223c-.206.36-.412.72-.441 1.008a.61.61 0 0 0 .308.6c.183.106.388.106.597.029s.415-.231.546-.414.183-.388.107-.571-.282-.337-.806-.496M715.027 243.735c.823-.103 1.646-.206 3.484-.362s4.666-.361 7.58-.573M721.571 239.528c.566-.103 1.132-.206 1.706-.259s1.14-.053 2.034-.209"/><path fill="#121212" d="M673.366 240.132q-.748-.308-1.1-.638-.33-.352-.264-.616a.6.6 0 0 1 .154-.242q.11-.11.484-.088.396 0 1.21.198.242 0 .484-.022.242-.023.44-.066a1.4 1.4 0 0 0 .352-.11q.11-.044.066-.11a.55.55 0 0 0-.154-.176.35.35 0 0 0-.198-.132.5.5 0 0 0-.198-.044.53.53 0 0 0-.198-.22 4 4 0 0 0-.33-.242 46 46 0 0 0-.88-.704q-.396-.307-.308-.462v-.11q-.154 0-.286-.418a2.8 2.8 0 0 1-.132-.792q0-.44.176-.88.198-.44.484-.836.308-.396.616-.704.418-.396.88-.77a7 7 0 0 1 1.034-.704 5.6 5.6 0 0 1 1.254-.484q.308-.066.704-.066t.572.11q.176-.11.44.066.264.154.528.44t.396.572q0 .264-.022.66 0 .374-.044.66-.043.286-.198.286l-.066.022q-.044 0-.044.11 0 .22-.33.506a6 6 0 0 1-.792.462q-.374.176-.572.022a3 3 0 0 1-.242-.176 1 1 0 0 1-.198-.22l-.066-.088a.5.5 0 0 1-.044-.198.2.2 0 0 1 .066-.154l.066-.088q.308-.286.462-.528.176-.242.242-.418.066-.198.066-.308 0-.132-.066-.154-.044-.044-.22-.044-.11 0-.484.176a7 7 0 0 0-.748.44 4.3 4.3 0 0 0-.616.44 1 1 0 0 1-.132.198q-.022.044-.11.044 0-.088-.11.022a4 4 0 0 0-.264.308q-.154.198-.308.418t-.242.352a1.1 1.1 0 0 1-.11.374q-.066.154-.044.33a.7.7 0 0 0 .22.418q.198.198.572.506.77.572 1.144.902.396.33.55.528a1 1 0 0 1 .198.396q.374.683.088 1.188-.286.484-.88.748-.22.11-.77.198a5 5 0 0 1-1.166.088q-.594 0-1.012-.176m9.385 0a2 2 0 0 1-.616-.308 9 9 0 0 1-.638-.506 2.8 2.8 0 0 1-.374-.638 2.5 2.5 0 0 1-.132-.704v-1.056q0-.264.088-.748.11-.484.22-1.012.132-.528.242-.924.111-.418.132-.55.066-.286-.22-.33a3 3 0 0 0-.638-.022q-.33 0-.44-.066-.087-.022-.088-.22v-.22q0-.088-.088-.11a.4.4 0 0 1-.154-.154q-.043-.088.11-.33a.6.6 0 0 1 .396-.286q.198-.043.594-.066.396-.044.792-.154.419-.132.638-.396.198-.484.44-1.034.243-.572.462-.99.22-.44.308-.55a1.3 1.3 0 0 1 .77-.154q.397.022.616.374.11.154.176.22.089.066.066.198 0 .132-.176.484-.153.33-.528 1.034l-.198.396-.088.154q.089.022.264.022.177 0 .44-.022.243-.043.528-.066.287-.044.506 0 .507 0 .748.286.243.287.264.726.045.242-.176.418t-.814.176q-.197 0-.572.022l-.77.044a7 7 0 0 0-.682.066q-.264.023-.264.066-.066.044-.22.352a10 10 0 0 0-.286.704q-.131.418-.242.792-.154.749-.22 1.452-.066.704-.022 1.232.066.505.264.726.198.198.594 0 .419-.22.77-.506.396-.33.682-.198.286.11.352.484.088.352-.198.77a2.16 2.16 0 0 1-.748.704 3.3 3.3 0 0 1-.99.396q-.505.132-.88.022m4.952-.594q-.089-.176-.396-.352-.286-.175-.286-.264t-.11-.264a1 1 0 0 0-.176-.286q-.111-.132.066-.638.175-.528.528-1.276.351-.749.77-1.518.175-.175.352-.462.175-.286.264-.374a.2.2 0 0 1 .066-.154q.066-.088.154-.088l.176-.352q.043-.088.264-.352.242-.264.572-.572.33-.33.66-.616.351-.286.572-.418.462-.308.946-.286.505.022.858.308.066.066.286.264.242.198.528.44.308.242.528.44l.814.726-.374 1.1q-.286.88-.154 1.54t.418 1.144a.94.94 0 0 0 .286.374q.197.132.506.176a.7.7 0 0 1 .33.132q.154.11.154.352 0 .528-.198.77a.68.68 0 0 1-.396.264 2.94 2.94 0 0 1-1.386-.154q-.66-.242-1.188-1.254a3.4 3.4 0 0 1-.242-.484 5 5 0 0 1-.154-.484q-.089.11-.242.286a5 5 0 0 1-.264.286q-1.563 1.584-2.684 2.068-1.101.462-1.848-.022m1.21-1.826q.154.022.484-.154.33-.198.88-.638.747-.638 1.232-1.056.484-.418.946-1.078l.484-.792q-.22-.506-.396-.66a.54.54 0 0 0-.352-.154q-.286 0-.682.374-.396.353-.902 1.056a26 26 0 0 0-1.1 1.716 5 5 0 0 0-.44.946zm8.74 1.958q-.154 0-.418-.22-.242-.22-.286-.396-.066-.176 0-.506.088-.352.242-.814.176-.726.242-1.056t.132-.572.176-.704q.132-.286.198-.55l.176-.572a9 9 0 0 1 .242-.572q.154-.572.374-1.078.241-.528.462-.88.043-.066.198-.242.154-.176.242-.176.176-.176.484-.11.307.044.528.22.264.286.286.682.044.373-.308 1.056a7 7 0 0 1-.506 1.078 8 8 0 0 0-.44.88q.241-.353.594-.726.352-.374.55-.594.286-.308.528-.484.264-.198.704-.484.374-.264.748-.484.396-.22.946-.132.22-.022.462.22.264.242.396.638.154.374 0 .814-.506-.11-.902.044a2.7 2.7 0 0 0-.682.33 21 21 0 0 1-.418.308 5 5 0 0 0-.506.352 11 11 0 0 0-.616.462q-.33.242-.704.55-.528.44-.792.77t-.418.704a36 36 0 0 1-.704 1.628q-.176.352-.286.44-.11.22-.462.242-.33.022-.462-.066m8.83.352q-.243-.044-.528-.286a5 5 0 0 1-.528-.572 2.2 2.2 0 0 1-.286-.55q0-.044-.066-.11l-.044-.066q-.089-.066-.11-.572 0-.528.066-1.166a8 8 0 0 1 .154-1.012q.11-.352.33-.946.22-.616.374-1.1l.594-1.276-.88-.242a.52.52 0 0 1-.264-.176.42.42 0 0 1-.088-.22q0-.176.198-.506t.286-.33q.11.022.396.022.308 0 .594-.022t.352-.044q.087-.044.176-.11a.56.56 0 0 0 .132-.242q.11-.242.198-.374.087-.132.242-.396.153-.286.242-.484.11-.198.33-.55.11-.154.242-.374t.33-.374q.197-.176.638-.242.462-.089.792.198a.84.84 0 0 1 .198.418q.022.198-.176.506a3.6 3.6 0 0 1-.418.682 4.7 4.7 0 0 0-.418.66q-.353.484-.132.55t1.232-.088q.637-.11.924.132.285.242.33.616.066.528-.11.638-.177.11-1.012.11a9 9 0 0 1-.902.11h-.55a6 6 0 0 1-.374.022q-.089 0-.264.044a.47.47 0 0 0-.264.154 2 2 0 0 0-.154.264q-.088.088-.264.462a10 10 0 0 1-.44.814q-.309.924-.528 1.782-.198.836-.352 1.672-.066.418.022.616.11.176.572.22.242.022.704 0a4.3 4.3 0 0 0 .77-.132q.242-.11.506-.22a7 7 0 0 0 .484-.264l.396-.22.198-.132q.11-.176.308.066.22.22.308.484 0 .264-.11.638-.11.352-.814.748-.99.616-1.98.748t-1.562.022"/><path stroke="#121212" stroke-linecap="round" stroke-width="2" d="M692.579 190c-.102 0-.205 0-.31.103-.264.261-.313.932-.236 1.632.033.297.232.443.414.574s.388.234.622.236c.235.001.492-.102.702-.309.449-.444.522-1.245.42-1.791-.103-.135-.309.019-.441.227-.131.208-.183.466-.236.886"/><path fill="#121212" d="M312 358.5s-5.768 16.612 0 24c3.123 4 10.32-18.806 15.5-31.5 5.202-12.749 10-25.5 12-31.5.679-2.038 3.063-.722 4.5-2 4.5-4 8-9.5 16.5-13 1.805-.743 1.381-3.619 0-5s-3.052-.134-5 0c-8.827.607-13.923 1.068-21 8.5-6.352 6.67-12 23-12 23z"/><path fill="#f8f8f6" d="m358 305.5-3.5-5.5 4.5-2 3 6z"/><path fill="#121212" d="M297 466c16.288-38.5 16.5-12.5 31-51.5 12.594-33.873 30-76.5 30-76.5s-.419-6.759 2-8.5c4.508-3.244 7.64 3.058 14 2.5 5.309-.466 12.5-4.5 12.5-4.5s3-2.5 3-18c0-8.065 9.455-12.259 18-6.5 6.5 4.381 16.855 26.559 19 40.5 3 19.5 8.5 36 3 47.5-2.01 4.202-9.065 1.029-11.5 5-2.96 4.828 1.291 8.841 1.5 14.5.603 16.364 9.632 25.471 6 41.5-2.842 12.543-10.862 16.18-15.5 28.5-7.502 19.926 2.5 45.5-1.5 54.5-2.459 5.531-11.406-1.002-15.5 2-7.5 5.5-11.333 6.116-20.5 8-11.299 2.323-19 3.5-31 0-11.904-3.472-22 3.5-31 3.5-5.632 0-7.176-5.093-12-8-5.313-3.201-14-7.5-14-7.5s-11-6.5-7.5-18c3.885-12.763 3.712-10.5 20-49"/><path fill="#121212" d="M337 325.5c.061-2 3.5-10 5-8.5 1 1 4.15 6.449 7.5 10 2.848 3.02 7.973 5 8 7s-1 6-1 6-6.846-1.57-10.5-4c-4.497-2.99-9.077-8-9-10.5"/><path fill="#121212" d="M345.5 337.5c-5-4.5-9-9.5-9-9.5s-10.196 27.037-18.5 43.5c-2.478 4.913-6.5 9.5-6.5 12.5s10 15.5 12 15 9 1.5 22-24.5c5.992-11.985 14.5-29 10.5-33.5-2.872-3.231-7.54-.836-10.5-3.5"/><path stroke="#121212" stroke-linecap="round" d="M385.083 299.214v3.378c0 3.311 0 9.898.017 13.359.016 3.46.05 3.595.067 4.588.018 2.842-.016 4.881-.084 5.152a5 5 0 0 0-.102.511M384.981 326.202c-.034.236-.304.98-.711 1.526-.345.462-.815.814-1.307 1.222-.44.365-1.135.678-2.17 1.137-1.054.468-1.682.628-2.226.782-.626.177-1.391.288-5.739.306-1.328.006-2.066-.187-2.747-.288a9.2 9.2 0 0 1-1.986-.509 6.6 6.6 0 0 1-1.647-.916c-.544-.408-1.018-.814-1.409-1.239a3.6 3.6 0 0 1-.34-.797c-.051-.136-.119-.271-.188-.511M364.104 298.604c-.067 0-.102.403-.085 1.115.05.51.118.852.169 1.425.018.439.018 1.179.018 1.94"/><path stroke="#121212" stroke-linecap="round" d="M364.206 299.214c.067-.338.405-.879.914-1.305.461-.386 1.153-.391 2.019-.443.222-.013.423-.05 1.972-.067s4.44-.018 5.996-.034c2.099-.023 2.979-.153 3.659-.221 1.161-.117 1.901-.237 2.462-.289.637-.058 1.708-.187 2.546.067.561.594.899 1.203 1.172 1.781.035.137.035.271.137.715M345.467 316.323c.101-.269.44-.879.915-1.576.4-.586.916-1.035 1.577-1.561.978-.779 1.578-1.409 2.241-1.935 1.148-.912 2.017-1.24 3.122-1.884.609-.355 1.138-.714 1.75-1.087.677-.413 1.288-.882 1.985-1.341 1.071-.706 2.02-1.138 2.834-1.579.645-.349 1.559-.542 2.614-.917.6-.212 1.155-.306 2.22-.425 2.788-.312 3.483.152 4.061.203.628.056 1.491.356 3.001.746.909.234 1.717.527 2.464.764.638.203 1.222.476 1.783.713.644.273 1.17.645 1.714.933.568.302.984.797 1.494 1.222.533.443.95 1.17 1.24 1.714.271.507.323 1.119.273 1.628-.034.34-.389.512-.66.681-.615.385-1.595.003-2.173-.202a15.5 15.5 0 0 1-2.019-.865c-.7-.358-1.542-.694-2.41-1.019-.676-.252-1.307-.39-2.172-.594a61 61 0 0 1-1.543-.119 13.5 13.5 0 0 0-2.008.085"/><path stroke="#121212" stroke-linecap="round" d="M376.325 311.741c.44.169.981.574 1.508 1.017.488.409.934.916 1.358 1.425.487.583.9 1.187 1.173 1.748.277.569.136 1.137.069 1.544-.102.618-1.016.545-2.202.546-1.098.001-2.542-1.115-3.601-1.662-.678-.351-1.595-.612-2.173-.832-.528-.202-1.153-.356-1.934-.527-.849-.136-1.529-.238-2.153-.289a12 12 0 0 0-1.924.085"/><path stroke="#121212" stroke-linecap="round" d="M375.001 316.833c.304.101.711.507 1.237 1.083.706.774.899 1.359 1.189 1.868.14.247.12.544.052.798-.154.583-1.118.392-2.557.376-1.024-.011-2.052-.795-2.873-1.272-.554-.323-1.085-.544-1.73-.799-.646-.153-1.054-.255-1.526-.306-.338-.017-.876-.017-1.43-.017"/><path stroke="#121212" stroke-linecap="round" d="M370.52 319.379c.27.236.88.711 1.306 1.135.43.43.831.967 1.137 1.51.149.264.238.544.256.815.008.137-.084.271-.186.374-.406.41-1.051.408-2.44.426-.733.01-1.258-.423-1.802-.61-.639-.221-1.357-.561-2.02-.781-.552-.184-1.103-.222-1.747-.306-.569-.075-1.054-.051-2.283-.102-3.142-.13-5.425.016-5.763.084-.642.128-1.188.237-1.766.391-.726.193-1.357.355-1.918.593-.763.324-1.001 1.051-1.443 1.493-.136.136-.304.304-.458.441-.153.137-.288.238-.426.443"/><path stroke="#121212" stroke-linecap="round" d="M342.208 316.349c.88.439 1.897 1.656 2.308 2.576.571 1.28.949 2.037 1.459 3.156.404.889.747 1.529 1.205 2.175.369.521.831 1.018 1.425 1.799.431.566 1.001.816 1.477 1.172.578.433 1.323.595 2.746.579.469-.005.684-.356.87-.576.256-.56.357-1.069.408-1.576.018-.338.018-.842.018-1.362"/><path stroke="#121212" stroke-linecap="round" d="M342.514 315.942c-.61.304-1.352 1.315-1.9 2.407-.366.73-.577 1.528-.865 2.156-.329.714-.966 1.543-1.409 2.308-.344.595-.983 1.07-1.477 1.579-.422.436-.256 1.793-.019 2.631a8 8 0 0 1 .712.747c.136.153.304.321.579.596"/><path fill="#f8f8f6" stroke="#121212" stroke-linecap="round" d="M345.716 336.126c-1.371-1.27-8.075-8.79-8.716-9.126 0 0 .451-3.97 1.5-6 1.094-2.117 4-4.5 4-4.5l5.578 9.5s3.367 3.237 5.123 2c1.192-.84.362-2.383 1.299-3.5 1.336-1.593 2.781 8.932 2.781 8.932v.001c.104.103.204.204.307.324.102.12.203.254.253.685.016 1.98-.047 2.644-.459 3.508-.342.715-.84 1.745-1.546 1.967-.322.101-1.343.343-2.635.1-1.083-.203-1.726-.333-2.358-.663-1.135-.593-1.799-.848-2.765-1.528-.747-.526-1.543-.942-2.362-1.7Z"/><path stroke="#121212" stroke-linecap="round" d="M389.462 305.809c.134-.203.743-.408 1.981-.864 1.24-.458 3.066-1.271 4.448-1.834.826-.336 2.254-.865 3.04-1.155.56-.206 1.255-.355 1.918-.509.751-.175 1.781-.323 2.747-.408.957-.083 1.684.084 1.938.287.479.383.933.814 1.324 1.239.399.433.662 1.034 1.018 1.612.332.538.526 1.255.833 1.867.361.722.339 1.459.425 2.138.112.884.321 2.099.576 3.106.174.686.187 1.374.323 2.139.131.738.373 1.543.492 2.241.095.555.254 1.17.34 1.833.017.153.05.288.101.424.051.137.118.271.29.512M362.496 293.229c-.635 1.338-1.81 2.831-2.51 3.714-.53.668-1.056.966-1.466 1.228-.622.398-1.227.807-1.897 1.148-.428.218-1.033.454-1.863.727-.634.209-1.081.364-1.547.433-.126.019-.261.068-1.32.316s-3.04.698-4.116.952c-1.579.373-2.663.662-3.394.834-.138.033-.25.079-1.095.339-.846.259-2.421.732-3.311 1.009-1.053.328-1.547.639-2.239 1.07-1.229.766-1.9 1.116-2.288 1.468-.477.433-1.336.917-1.92 1.375-.574.45-1.101.952-1.636 1.476-.96.942-1.148 1.432-1.377 1.865-.271.515-.476 1.18-1.089 2.168-.425.685-.638 1.127-.899 1.638-.336.657-.67 1.374-.887 1.921-.057.137-.124.294-.181.42-.058.127-.103.217-.081.378"/><path stroke="#121212" stroke-linecap="round" d="M327.789 317.23c-.499.817-1.356 2.936-1.783 4.158-.137.391-.374 1.11-.58 1.84-.18.638-.249 1.25-.432 1.954-.157.611-.362 1.654-.67 2.682-.251.838-.466 1.479-.625 2.013-.143.479-.453 1.191-.648 1.795-.267.83-.602 1.443-.886 2.045-.388.825-.737 1.532-.944 2.126-.157.452-.385.886-.556 1.364-.307.728-.467 1.046-.523 1.228-.034.091-.079.181-.262.478"/><path stroke="#121212" stroke-linecap="round" d="M320.499 337.486c0 .284-.057.914-.328 1.443-.243.474-.529.987-.759 1.56-.368.916-.715 1.459-1.045 2.061-.317.579-.671 1.514-.959 2.147-.228.502-.6 1.172-.873 1.718-.256.512-.643 1.171-1.002 1.788-.293.505-.585 1.329-.972 2.118-.422.858-.616 1.389-.831 1.861-.292.642-.558 1.473-1.085 2.998-.689 1.992-1.42 3.314-1.563 3.6-.475.949-.172 2.604-.272 3.588-.27 2.64-.187 3.79-.343 4.798-.107.686-.215 1.431-.344 2.033-.015.37-.072.688-.157.916-.03.115-.03.229-.201.603M310.108 371.405c-.086-.255.084-1.113.328-1.729.363-.915.902-2.132 1.5-3.217 1.205-2.185 2.148-2.664 2.707-3.21.444-.434 1.1-.914 1.774-1.502 1.132-.989 1.703-1.388 3.26-2.232 1.046-.473 2.222-1.076 2.622-1.233.201-.072.399-.128.861-.273"/><path stroke="#121212" stroke-linecap="round" d="M336.814 326.924c-.257.627-.599 1.655-.844 2.231-.214.504-.528 1.2-.9 1.931-.478.936-.83 1.674-1.317 2.675-.389.801-.6 1.516-.916 2.405-.288.809-.772 1.801-1.117 2.833-.313.936-.716 1.69-1.144 2.647-.66 1.478-.944 2.048-1.132 2.593-.298.866-1.126 2.394-1.702 3.692-.335.754-.686 1.63-1.045 2.446-.529 1.204-.73 1.762-1.087 2.334-.676 1.081-.902 1.776-1.161 2.348-.263.583-.572 1.202-.915 1.974-.401.903-.774 1.89-1.073 2.561-.51 1.143-.616 1.817-.845 2.463-.241.679-.601 1.302-.873 2.046-.29.79-.559 1.346-.958 2.374-.527 1.356-.83 2.034-1.018 2.522a8.4 8.4 0 0 1-.743 1.474c-.072.129-.129.271-.187.401-.057.129-.114.243-.172.274M356.943 334.782c0 .3-.06.78-.106 5.172-.011 1.084-.075 2.368-.09 4.187-.01 1.294-.285 1.95-.376 2.628-.102.759-.331 1.519-.735 3.065-.252.961-.528 1.913-.679 2.576-.172.755-.48 1.472-.646 2.286-.139.677-.793 2.515-1.234 3.716-.203.554-.555 1.337-.812 2.001-.218.564-.436 1.053-.737 1.774-.269.648-.541 1.234-.812 1.926-.341.868-.752 1.954-1.083 2.543-.544.967-.812 1.879-1.143 2.661-.458 1.081-.933 1.805-1.279 2.468-.327.627-.737 1.413-1.098 2.122-.504.988-1.534 2.361-1.91 2.888-.49.685-.707 1.278-.919 1.76-.225.513-.75.872-1.128 1.504-.301.504-.586.993-.827 1.475s-.541.902-.827 1.369c-.336.546-.557 1.037-.813 1.519-.27.509-.556.962-.902 1.459a42 42 0 0 0-1.069 1.61c-.293.468-.63.962-1.217 1.744-.407.543-.767 1.083-1.129 1.52-.376.456-.721.888-1.038 1.339-.41.585-.947.962-1.338 1.354-.561.562-1.293 1.083-2 1.594-.533.386-1.187.872-1.926 1.384a96 96 0 0 1-2.286 1.535 65 65 0 0 0-2.318 1.279c-.106.076-.195.165-.377.257M310.099 370.885c.029.179.059.358.075 1.954.015 1.596.015 4.604.03 6.229.019 2.076.194 2.794.465 3.982.264 1.158.542 1.793.797 2.409.345.83.707 1.369 1.218 2.151a32 32 0 0 0 1.565 2.182c.565.708.962 1.369 1.369 1.926.415.568 1.245 1.544 2.014 2.406.753.842 1.339 1.338 1.762 1.761.377.377.721.812 1.173 1.264.512.511 1.171 1.052 1.64 1.504.437.302.856.602 1.338.993.121.091.24.151.544.122"/><path stroke="#72757a" stroke-linecap="round" d="M412.749 323.545c.29.582.757 1.745 1.05 2.8.259.93.467 1.868.556 3.269.075 1.187.552 2.451.758 3.681.325 1.939 1.428 4.546 2.015 6.396.451 1.422.759 2.598 1.169 3.653.431 1.109.701 2.569 1.109 3.795.421 1.267 1.109 2.745 1.461 4.089.346 1.326.815 2.22 1.197 3.533.517 1.776 1.195 4.228 1.694 5.901a53 53 0 0 0 1.051 3.214c.387 1.044.613 2.014.79 3.299.199 1.448.643 2.802.817 3.886.185 1.149.467 2.189.672 3.27.03.379.03.899.059 1.283s.087.615.322 1.379M394.348 312.329c-.29.933-.641 1.981-.933 2.976-.31 1.059-1.05 1.984-1.693 2.949-.899 1.353-1.225 2.308-1.462 3.184-.26.965-.583 1.868-.788 3.412-.436 3.279-.206 4.471-.351 6.624-.438 6.482.436 7.429.525 8.51.08.984.437 1.898.671 3.008.269 1.279.467 2.686 1.108 5.95.399 2.027.47 3.454 1.052 6.601.366 1.979.645 3.863.848 5.002.234 1.312.789 2.306 1.371 3.679.615 1.448.995 2.483 1.665 3.972.804 1.788 1.314 4.35 1.696 5.638.406 1.373 1.195 2.977 1.751 4.206.513 1.133 1.021 1.929 1.838 3.298 1.319 2.209 2.278 3.362 2.894 4.238.963 1.371 2.713 2.804 3.823 3.826a35 35 0 0 0 3.271 2.658c1.248.908 2.744 1.753 3.885 2.222.908.374 4.79.411 7.36.236.992-.067 1.898-.698 2.98-1.283 1.113-.603 2.476-2.212 3.535-3.417.35-.379.586-.789.761-1.226.116-.206.29-.38.644-.734"/><path stroke="#121212" stroke-linecap="round" d="M410.47 307.948c.347.172 1.63 1.455 2.597 2.596.783.924 1.546 2.013 2.191 3.038a103 103 0 0 1 2.102 3.503c.867 1.499 1.343 2.657 1.783 3.768.669 1.689 1.141 2.804 2.043 6.823.383 1.708.616 2.64 1.053 3.634.553 1.257 1.08 2.276 1.548 3.358.576 1.333.703 2.539 1.023 3.623.327 1.111.437 2.421.701 3.591.363 1.603.381 2.804.672 4.001.38 1.567.466 2.658.643 3.885.2 1.389.643 2.979.963 4.38a71 71 0 0 1 .701 3.564c.193 1.099.321 2.16.526 3.591.245 1.712.321 2.891.409 4.237.075 1.127.322 3.087.467 4.701.14 1.547.205 2.483.351 3.419.144.929.205 2.678.379 4.031.176 1.109.292 2.394.294 9.147-.058 1.427-.174 1.658-.293 1.896M392.946 397.014c-.057-.115-.115-.231-.029-.348.085-.118.317-.233.581-.38.263-.146.552-.319.85-.673M387.164 399.643c.115-.116.29-.406.552-.844.147-.206.32-.379.496-.555.177-.176.35-.35.704-.879M383.133 402.272c-1.455 1.163-3.207 2.45-4.057 3.123-1.122.888-3.061 1.955-5.369 3.181-1.464.778-3.069 1.172-5.809 2.307-2.334.967-4.732 1.609-6.46 2.077-1.439.389-2.832.758-4.236 1.023-1.345.146-2.858.38-4.119.526-.321.03-.726.03-1.143.205M418.853 394.73c0 4.884.249 11.195.754 13.525.452 2.093 1.006 4.589 1.762 7.176.587 2.013.755 4.091 1.259 6.797.46 2.469 1.007 4.719 1.26 7.303.331 3.377.88 6.858 1.322 9.379.436 2.491.442 6.28.755 9.628.477 5.091-1.817 7.62-3.329 9.761-1.895 2.683-3.775 5.035-5.601 7.992-1.518 2.458-3.711 5.095-5.603 8.685-1.297 2.459-1.764 4.598-2.459 6.989-.251.864-.438 2.127-.567 9.811s-.128 21.768-.253 29.273c-.631 9.638-.88 12.414-1.257 13.419-.129.506-.129 1.004-.507 1.518"/><path stroke="#121212" stroke-linecap="round" d="M407.145 535.986c-5.397-.253-9.933.499-12.517 1.569-3.045 1.263-5.726 2.956-8.623 4.406-2.728 1.366-5.412 1.949-7.995 2.772-2.783.887-5.099.945-7.429 1.7-2.246.728-9.333.884-15.04.257-3.787-.416-8.305-1.511-14.532-2.329-4.211-.553-8.76-.194-11.532.686-2.322.737-4.782 1.635-7.428 2.392-3.411.977-6.418 1.26-10.758 1.202-3.019-.041-5.73-2.827-7.941-4.654-1.925-1.589-4.338-3.96-6.67-5.791-2.688-2.111-5.222-2.958-8.179-4.344-4.648-2.178-6.613-3.025-8.254-4.343-1.814-1.457-1.766-3.962-2.208-6.852-.991-6.481.563-9.317 1.129-11.967.539-2.519 1.7-4.405 2.58-6.798.915-2.488 2.889-5.403 3.841-7.933.438-1.005.82-2.017 1.133-3.022.189-.506.438-1.005 1.451-1.896"/><path stroke="#121212" stroke-linecap="round" d="M335.384 395.486c-.503 2.387-1.005 4.396-1.258 6.413-.263 2.097-1.129 4.026-1.824 6.043-.709 2.058-1.821 4.525-2.957 7.174-1.026 2.389-2.014 4.655-3.649 7.176-1.534 2.365-2.519 4.784-4.217 8.054-1.322 2.548-3.084 4.661-4.91 6.616-1.593 1.704-3.205 4.088-5.287 6.105-1.84 1.781-3.084 4.026-4.973 6.795-2.167 3.177-3.777 6.545-5.227 9.004a108 108 0 0 0-3.526 6.485c-1.096 2.196-1.95 4.403-3.021 6.858-1.252 2.87-2.079 5.349-2.646 7.556-.673 2.624-1.571 5.346-2.58 7.492a15 15 0 0 0-1.135 3.021c-.126.506-.251 1.005-1.134 2.652M321.898 445.36c-.692.254-2.387 1.212-3.049 2.2-1.867 2.791-2.427 4.229-2.924 5.078-.888 1.515-2.812 3.272-3.292 3.843q-.33.36-.771.663c-.148.092-.294.165-.554.351M313.079 459.055c1.733-.87 5.767-1.061 8.398-.823 1.829.165 4.718 2.741 7.098 4.968 2.276 2.129 3.815 3.285 5.651 4.208 1.71.86 7.779.92 11.689.68 2.032-.126 3.955-.531 6.421-.918 1.742-.273 4.194-1.444 6.763-2.221 2.009-.607 4.009-.678 6.278-.919 1.787-.189 9.073-.339 13.526-.098 1.983.107 4.675.53 9.263.677 2.292.073 3.828.337 4.599.339.859.001 1.451-1.251 1.982-2.455.434-1.3.631-3.041.488-4.778-.143-.686-.43-.973-.726-1.558"/><path stroke="#121212" stroke-linecap="round" d="M395.089 457.606c1.338.191 2.793.481 4.096.58.949.071 1.311-1.348 1.649-2.359.358-1.075.34-3.898.149-7.326-.13-2.331-3.083-2.869-4.777-3.402a27 27 0 0 0-6.229-1.161c-1.677-.115-3.379-.723-5.506-.869-.487-.048-.87-.144-2.31-.193s-3.926-.049-6.488-.049M371.036 447.174c.67.286 1.339.573 1.732.96.707.697.587 2.219.443 3.666-.196 1.976-2.841 3.383-4.678 4.066-2.843 1.056-5.506.871-11.218 1.111-3.976.167-11.247.049-15.182.002-4.32-.053-5.094-.434-5.865-.819-.771-.386-1.357-.965-1.79-1.784-.494-.933-.824-2.459-.633-4.148.206-1.818 3.947-1.698 12.526-1.943 1.862-.048 2.531-.144 6.175-.193 3.645-.049 10.243-.049 17.041-.049"/><path stroke="#121212" stroke-linecap="round" d="M376.252 442.827c-.191 0-.382 0-.768.096-.385.095-.959.286-2.13.773M329.017 442.247c2.295.192 4.243.577 5.593 1.107.968.435 1.744.823 2.515 1.209l1.165.582M338.58 447.753c2.295-4.016 3.86-6.372 4.631-6.95s3.651-1.352 9.427-2.077c11.829-1.484 13.849.525 16.023 1.393.979.39 1.888.581 2.659 1.014 1.261 1.207 1.551 2.366 1.696 3.567.049.819.049 2.062-.241 3.343M377.411 540.413c0 .768-.382 2.695-.82 4.532-.583 2.451-.53 4.057-.724 5.845-.2 1.841-.675 3.718-1.303 5.554-.611 1.788-.63 3.571-.871 5.217-.226 1.55-.82 3.089-.966 4.637-.149 1.577-.532 3.472-1.061 5.457-.468 1.758-.531 3.718-.678 6.515-.142 2.713-.433 5.606-.772 7.442-.049.964-.145 1.935-.29 3.233-.049.82-.049 1.967-.049 3.15M356.837 546.788c0 1.924-.383 5.008-.628 7.959-.174 2.102-.723 4.009-1.062 5.751-.427 2.194-.82 4.344-1.254 6.23-.406 1.76-1.015 3.62-1.642 5.506-.531 1.597-.92 3.139-1.401 4.734-.099.436-.099.914-.147 1.352-.047.437-.143.82-.242 1.504"/><path fill="#f8f8f6" d="M350.5 579.5c5-10.5 7.5-32 7.5-32s4.515-.757 8-1.5c4.355-.929 10-1.5 10-1.5l-4 21.5-3.5 25-9-9s-10.568.793-9-2.5M301.159 581c5-10.5 7.5-32 7.5-32s4.515-.757 8-1.5c4.355-.929 11.841-3.5 11.841-3.5l-5.841 23.5-8.659 21-3.841-5s-10.569.793-9-2.5"/><path stroke="#121212" stroke-linecap="round" d="M353.069 573.159c1.542-.481 4.614-.87 7.43.043 1.989.645 2.898 2.75 4.398 3.769 1.414.96 2.557 2.748 3.576 4.296.242.388.529.771.772 1.159.244.388.435.771.632 1.165"/><path fill="#121212" d="M368.322 593.819c.044-.411.049-.946.026-1.543-.714-.975-.836-1.287-.96-1.604-.7-1.427-1.764-2.969-2.823-4.021-.998-1.305-2.61-2.41-4.176-3.703-1.335-1.102-3.213-1.891-4.888-2.455-1.682-.566-5.941-1.02-8.609-.041-1.637.6-3.135 1.135-4.651 2.895-.593.688-.762 3.597-.047 7.602.356 1.989.638 6.116 1.55 11.541.396 2.355.515 3.185.707 3.947.399 1.587.503 3.435 1.125 5.293.47 1.407 1.195 2.804 1.499 4.63.408 2.453.568 4.022 1.249 5.19.777 1.334.997 3.213 2.323 3.95 1.435.799 3.073 2.197 9.675.672 2.438-.563 4.817-.57 5.892-2.116.501-.721.952-1.409 1.151-2.128.382-1.378.451-2.902.616-4.528.151-1.478-.032-2.993.189-5.565.137-1.598.312-3.106.136-5.236-.399-4.818-.486-6.338-.301-8.371.141-1.559.174-3.08.317-4.409"/><path stroke="#121212" stroke-linecap="round" d="M367.858 587.625c.287 1.791.619 4.757.464 6.194-.143 1.329-.176 2.85-.317 4.409-.185 2.033-.098 3.553.301 8.371.176 2.13.001 3.638-.136 5.236-.221 2.572-.038 4.087-.189 5.565-.165 1.626-.234 3.15-.616 4.528-.199.719-.65 1.407-1.151 2.128-1.075 1.546-3.454 1.553-5.892 2.116-6.602 1.525-8.24.127-9.675-.672-1.326-.737-1.546-2.616-2.323-3.95-.681-1.168-.841-2.737-1.249-5.19-.304-1.826-1.029-3.223-1.499-4.63-.622-1.858-.726-3.706-1.125-5.293-.192-.762-.311-1.592-.707-3.947-.912-5.425-1.194-9.552-1.55-11.541-.715-4.005-.546-6.914.047-7.602 1.516-1.76 3.014-2.295 4.651-2.895 2.668-.979 6.927-.525 8.609.041 1.675.564 3.553 1.353 4.888 2.455 1.566 1.293 3.178 2.398 4.176 3.703 1.059 1.052 2.123 2.594 2.823 4.021.126.321.25.638.99 1.646M328.259 545.955c-.217.543-.326 1.736-.625 2.912-.23.905-.463 1.878-.817 2.833a26 26 0 0 0-.845 2.752c-.222.887-.599 1.851-1.089 3.24-.457 1.299-.547 2.534-.763 3.625-.233 1.174-.925 2.286-1.254 3.27-.442 1.321-1.145 3.158-1.552 4.087-.406.926-.898 2.285-1.389 3.62-.999 2.715-1.578 4.112-1.99 5.343-.454 1.355-1.171 3.186-1.444 4.114-.297 1.005-.273 2.233-.382 4.137-.099 1.711-.381 3-.626 4.306-.382 2.034-1.115 3.758-1.498 4.934-.491.9-.655 1.554-.872 1.746-.162-.023-2.835 6.904-3.113 6.626M308.153 549.225c0 1.294 0 2.662-.324 5.748-.251 2.393-.971 6.43-1.385 8.892-.543 3.223-1.229 5.883-2.018 8.932a22.6 22.6 0 0 1-1.938 5.031c-.465.888-.818 1.906-1.253 2.887-.709 1.419-1.036 2.288-1.526 3.136-.11-.022-.164-.4-.22-.789"/><path stroke="#121212" stroke-linecap="round" d="M305 574c.87.054 1.847.271 2.938.679 1.2.449 2.234 1.008 3.107 1.471.949.504 1.743 1.28 2.723 2.259 1.539 1.536 2.018 2.453 2.483 3.406.082.247.136.463.245.682s.27.435.437.657M300 586c.87.054 1.847.271 2.938.679 1.2.449 2.234 1.008 3.107 1.471.949.504 1.743 1.28 2.723 2.259 1.539 1.536 2.018 2.453 2.483 3.406.082.247.136.463.245.682s.27.435.437.657"/><path stroke="#95979b" stroke-linecap="round" d="M372.941 294.171c.165-.953-.425-2.472-1.187-3.498-.768-1.033-.762-2.081-.746-2.891.049-.183.147-.314.246-.43.1-.117.198-.215.497-.613M374.724 289.414c0-1.217.458-2.735 1.039-3.384.117-.246.183-.545.233-.94.017-.231.017-.525.017-.829"/><path stroke="#121212" stroke-linecap="round" d="M287.711 573.694c1.704.474 4.201 1.946 6.373 3.882 1.323 1.179 2.11 2.777 3.016 4.442 1.019 1.876 1.607 2.832 2.086 3.786.874 1.742 2.083 3.756 2.686 4.813.519.909 1.901 2.53 3.214 4.39.609.863 1.056 1.641 2.084 3.437.624 1.09.879 1.908 1.483 3.202.459.984 1.153 2.404 1.683 3.599.405.914.778 1.718 1.031 3.093.187 1.022.452 2.272.577 3.727.211 2.455-.224 3.309-.55 4.183-.396 1.059-.729 2.141-1.205 2.989-.498.887-1.079 1.85-1.832 2.672-.689.751-1.606 1.137-3.461 2.167-1.309.727-2.464.823-3.745.903-1.632.102-3.839-.181-5.074-.685-.84-.343-1.432-1.188-2.16-1.746-.719-.55-1.231-1.505-1.709-2.484a16.3 16.3 0 0 1-1.031-2.725c-.248-.887-.302-1.955-.427-2.935-.178-1.396-.426-2.775-.752-3.862-.269-.896-1.027-2.033-1.707-3.016-.567-.82-1.529-1.505-2.635-2.223-.973-.631-2.456-1.822-3.667-2.723-.995-.741-1.957-1.742-2.739-2.54-.68-.693-1.43-1.373-2.509-2.826-.961-1.293-1.482-2.407-2.087-3.494-.439-.789-.751-2.033-1.205-3.463-.623-1.958-1.056-3.385-1.257-4.577-.478-2.831.047-6.692.374-7.75.437-1.412 1.43-2.011 2.434-3.042.819-.842 2.058-1.086 3.66-1.458 4.472-1.036 5.48.105 6.361.263.475.106 1.328.16 2.331.186.407.026.606.078.962.291"/><path stroke="#515356" stroke-linecap="round" d="M335.898 336.445c-.084 2.22-.511 5.294-1.999 10.959-1.056 4.02-3.439 10.16-4.702 13.604-1.949 4.985-2.548 6.358-3.272 7.677-.471.981-1.149 2.592-2.105 4.509M349.519 356.747a70 70 0 0 1-1.239 6.11 155 155 0 0 1-4.27 14.359c-2.089 5.967-3.311 7.533-5.106 11a14.6 14.6 0 0 1-1.717 2.236c-.258.3-.512.639-1.031 1.246"/><path fill="#f8f8f6" stroke="#121212" stroke-linecap="round" d="M399.768 311.429c.423.254 9.03-3.681 9.232-3.479 0 0-.627-2.55-1.5-3.95-1.022-1.641-1.686-3.21-3.5-4.5-3.5-2.489-15.557 6.82-15.608 7.076-.05.559.054 1.035.222 1.374.239.645.522 1.23.951 1.713.408.459.886 1.062 1.563 1.324.748.288 1.903.431 2.75.338.782-.086 4.001-1.032 5.89.104Z"/><path stroke="#121212" stroke-linecap="round" d="M377.343 289.845c.067-.236.473-.711 1-1.118.468-.363 1-.713 1.713-1.104.594-.325 1.289-.56 1.868-.731.569-.167 1.187-.338 3.016-.424.895-.042 2.438-.187 3.501-.069.584.065 1.355.558 2.037.984.512.319 1.051.662 1.714 1.204.55.45 1.001.951 1.511 1.426.774.721 1.154 1.221 1.647 1.883.515.693.933 1.273 1.578 2.155.431.591.679 1.324 1.002 1.936.422.799.663 1.561.866 2.122.035.153.035.321.069.475.033.154.101.288.17.427"/><path fill="#f8f8f6" stroke="#121212" d="M281 430c6.898-10.901 1.5-33 1.5-33s9.343 3.315 15.5 3c6.108-.313 8.953-5.415 15-4.5 4.838.733 6.107 6.079 11 6 4.105-.066 9.5-4.5 9.5-4.5s-7.317 22.976-15.5 36c-5.746 9.146-16 22-16 22s-6.564 8.04-12.5 11c-9.739 4.856-18 0-26.5-3-3.646-1.287-6.796-3.53-8.5-7-2.323-4.733-1.5-10.5-1.5-10.5s21.317-4.939 28-15.5Z"/><path stroke="#121212" stroke-linecap="round" stroke-width="5" d="M264.059 449.398c.377.053 1.454.483 2.646.972 1.268.52 2.271.865 3.219 1.028 1.088.188 2.242.541 3.353.757 1.308.255 3.055.271 3.949.352.244.027.512.081 1.319.108.807.028 2.146.028 3.525.028M288.236 453.292h1.784M295.862 450.858c.053 0 .107 0 .241-.027.135-.026.349-.08.732-.297"/><path fill="#f8f8f6" d="M341.5 427.5c-5.605-.957-16-5-16-5L320 433s13.513 4.852 21.5 8c6.826 2.691 18.5 1 18.5 1l4-14.5s-13.839 1.479-22.5 0M379 441c2-2 2-13.5 2-13.5s11.794-1.64 19-4c7.556-2.474 18.5-8.5 18.5-8.5l2.5 12.5s-10.217 4.646-17 7c-9.53 3.307-27 8.5-25 6.5"/><path stroke="#121212" d="M341.5 427.5c-5.605-.957-16-5-16-5L320 433s13.513 4.852 21.5 8c6.826 2.691 18.5 1 18.5 1l4-14.5s-13.839 1.479-22.5 0ZM379 441c2-2 2-13.5 2-13.5s11.794-1.64 19-4c7.556-2.474 18.5-8.5 18.5-8.5l2.5 12.5s-10.217 4.646-17 7c-9.53 3.307-27 8.5-25 6.5Z"/><path fill="#f8f8f6" stroke="#121212" d="M290.039 416.176c-.768-6.621 4.673-16.427 4.673-16.427h3.635s-6.176 9.931-4.673 16.427c.647 2.798.391 5.681 3.115 6.673 2.725.993 4.48-1.291 6.751-3.08 3.483-2.742 4.418-5.542 5.712-9.753 1.651-5.371 0-14.374 0-14.374h5.712s-.621 9.815-2.077 15.914c-1.075 4.504-.541 7.82-3.635 11.293-3.941 4.426-9.405 7.62-14.54 4.621-4.15-2.424-4.124-6.56-4.673-11.294Z"/><path stroke="#121212" stroke-linecap="round" stroke-width="2" d="M294.184 594.342c.59 4.944.888 8.056 1.072 9.536.064.515.038 1.25-.255.748-.293-.501-.879-2.259-1.511-5.252-1.503-7.126-1.969-11.835-1.713-11.987 1.099-.652 1.517 2.875 2.07 6.37.999 6.319 1.225 11.229 1.115 12.671-.044.571-.33.782-1.102.419-2.236-1.05-5.134-4.566-7.832-8.336-1.308-2.159-1.756-3.204-1.978-4.162a5.9 5.9 0 0 1 .146-2.227M280.277 575.181h.146"/><path stroke="#121212" stroke-linecap="round" stroke-width="4" d="M281.153 578.029c.12 1.928.241 3.856.303 4.921s.062 1.21.074 1.333.036.219.061.391"/><path stroke="#121212" stroke-linecap="round" stroke-width="5" d="M281.08 581.388c-.506 2.627-1.012 5.254-1.237 6.8-.352 2.424.093 2.79.527 3.538.386.667 1.205 1.857 2.024 2.984.82 1.127 1.639 2.139 2.29 3.058 1.18 1.666 1.725 2.919 1.98 3.564.292.736.67 1.449 1.363 2.592.163.269.256.439.245.49-.081.392-.836-.774-1.239-1.275-.4-.498-.863-.67-1.278-.938-.438-.282-.852-.657-1.435-1.216-.77-.736-1.68-1.631-1.937-1.984-.254-.35-.571-.718-.912-1.108-.312-.356-.609-.778-1.18-1.374-.156-.163-.304-.304-.33-.354-.136-.261.437.653.644 1.225.112.31.061.598.037.732-.086.488-1.96-1.631-2.774-2.541-.521-.582-1.095-1.751-1.375-2.652-.169-.542-.281-.974-.451-1.461-.271-.776-.316-1.291-.463-1.741-.246-.759-.364-1.302-1.02-3.692-.248-.903-.27-2.517-.392-4.105-.187-2.457.266-2.949.559-3.4.501-.775 1.701-1.739 2.214-2.07.523-.337.852-.547 1.278-.767.544-.281 1.302-.414 1.982-.536 1.101-.196 1.875-.364 3.939-.402.837-.015 1.223.157 2.364.752a54 54 0 0 1 3.009 1.681c.229.139.475.28.779.511.355.269 1.465 1.368 2.95 2.767.756.712.982 1.067 1.298 1.444.505.601 1.047 1.278 1.376 1.789.287.445.523.803.694 1.265.324.879.729 1.581.913 2.118.231.675.621 1.485.779 1.96.175.525.474 1.301 1.081 2.795.282.693.61 1.426.781 1.891.155.42.365.827.62 1.241.263.426.669.852.962 1.242.365.486.899 1.215 1.289 1.655.504.568.803.901 1.121 1.278.175.208.316.451.45.549.24.175-.254-.776-.497-1.349-.264-.619-.535-1.375-.694-1.765-.167-.409-.498-.827-.766-1.375-.463-.768-.706-1.084-.889-1.315a4 4 0 0 1-.305-.452"/><path stroke="#121212" stroke-linecap="round" stroke-width="5" d="M302.622 597.6c0 .024 0 .048-.602.711-.603.663-1.808 1.964-2.525 2.707-.882.914-1.205 1.06-1.857 1.314-2.869 1.115-3.63 1.304-4.105 1.365-.815.104-1.593 1.274-2.094 2.151-.473.829-.574 1.486-.526 1.863.019.143.145.16.243.113.231-.113.534-.438 1.333-.837 1.389-.695 2.609-1.182 3.336-1.727.45-.338 1.017-.859 1.881-1.421 1.938-1.26 3.284-1.857 3.515-2.003.421-.265.935-.728 1.436-1.289.171-.192.208-.415.233-.621a.48.48 0 0 0-.097-.329c-.153-.207-.943-.413-2.495-.693-.917-.165-2.13-.159-2.98-.16-1.308-.001-2.068.169-3.133.375-.773.15-2.029.327-3.108.438-1.941.2-2.985.112-3.457-.31-1.769-1.583-1.646-2.399-1.817-3.972-.049-1.111-.121-3.159-.194-4.347s-.146-1.453-.294-1.799"/><path stroke="#121212" stroke-linecap="round" stroke-width="5" d="M289.478 597.381c-1.687-2.386-3.374-4.772-4.737-6.784s-2.351-3.579-2.98-4.518c-.828-1.235-1.481-2.032-2.064-2.944-.551-.86-1.411-2.128-1.987-2.792-.079-.092-.23-.05-.34.022-.475.312-.379 1.14-.283 1.788.066.439.8 1.321 2.071 3.477.835 1.417 2.259 3.362 3.425 4.874a37 37 0 0 0 2.649 3.093 47 47 0 0 0 3.027 2.893c.939.813 2.508 1.037 2.775.952.954-.301.781-2.342.588-4.052-.11-.976-.579-2.12-.898-2.945-.856-2.213-1.756-2.994-2.399-3.77-.801-.968-1.475-1.634-1.669-1.95-.244-.396-.802-1.14-1.506-2.257-1.135-1.803-1.659-2.247-2.327-3.8-.236-.547-.428-.784-.441-.894-.03-.253 1.246.18 2.945.581 1.868.441 3.006.598 3.646 1.347.54.631 1.532 1.761 3.294 4.308 1.762 2.548 4.268 6.476 5.583 8.559 1.535 2.433 1.85 3.079 1.949 3.557.018.087-.096.158-.206.207a.9.9 0 0 1-.425.062c-.368-.025-1.309-.688-2.537-1.673-.717-.574-1.427-1.859-2.364-3.657-.986-1.896-1.039-2.614-1.344-3.479a4 4 0 0 1-.22-.816c-.02-.146-.012-.315.096-.306.718.666 1.349 1.542 1.777 2.139.086.135.158.256.306.526M290.646 606.746c.486 2.14.681 2.822.815 3.418.124.551.568 2.287 1.07 3.687.412 1.147 1.106 2.409 1.776 3.637.464.852 1.254 1.742 1.729 2.23.583.6 2.437 1.748 3.371 2.228a4.95 4.95 0 0 0 1.871.561c2.205.235 3.289-.376 3.861-.571.455-.155.816-.462 1.387-.948 1-.849 1.231-1.923 1.378-2.41.147-.491.364-.948.523-1.75.185-.937.256-1.731.268-2.083.01-.282.061-1.609.049-3.543-.008-1.34-.109-1.874-.158-2.882-.044-.906-.413-1.618-.705-2.543-.469-1.487-.971-2.479-1.266-3.204-.268-.523-.487-.986-.621-1.229a2 2 0 0 1-.159-.44"/><path stroke="#121212" stroke-linecap="round" stroke-width="5" d="M303.206 600.685c.463 3.26.511 3.868.548 5.305.03 1.221.108 3.437.097 4.929-.023 3.113-.401 3.88-.51 4.381-.154.706-.354 1.57-.426 1.972-.074.523-.194 1.155-.377 1.641-.062.197-.062.294-.062.393"/><path stroke="#121212" stroke-linecap="round" stroke-width="5" d="M306.93 612.15c-.289 2.072-.534 3.381-.945 3.951-.657.91-1.56 1.257-2.117 1.463a5.36 5.36 0 0 1-2.568.258c-1.232-.191-2.42-1.481-3.397-2.528-.441-.473-.707-1.048-1.047-1.63-.945-1.618-1.462-3.165-1.754-4.006-.074-.16-.146-.257-.207-.355a1.3 1.3 0 0 1-.16-.366"/><path stroke="#121212" stroke-linecap="round" stroke-width="5" d="M293.859 607.914c1.556 2.164 2.334 2.895 3.792 3.758 1.045.619 3.086.503 4.092.261.648-.156.95-1.432 1.291-2.49.172-1.594.1-3.279-.046-3.68a5 5 0 0 0-.22-.477"/><path stroke="#121212" stroke-linecap="round" stroke-width="5" d="M302.695 602.73c-1.094 2.043-1.484 2.529-3.048 4.495-.439.551-.724.641-.954.689-.208.044-.523.073-.659-.059.467-.398 1.611-1.056 2.851-1.713.493-.271.71-.415 1.007-.71M302 584c1.375 0 2.451.237 4.036.955 1.958.887 2.728 1.618 3.687 2.545.791.764 1.499 1.467 2.307 2.456.211.27.389.567.569.838.181.271.359.509.542.933M314.016 582.11c-2.088-2.327-4.604-4.608-5.925-5.061-1.259-.449-2.278-.749-2.846-.868-.271-.061-.508-.12-1.112-.181"/><path stroke="#121212" stroke-linecap="round" stroke-width="5" d="M304.875 577c-.298 1.315-.776 2.864-1.405 4.457-.27.628-.57 1.112-.899 1.5-.151.21-.269.447-.571 1.231"/><path stroke="#121212" stroke-linecap="round" stroke-width="5" d="M303.468 578.379c1.186.474 2.568 1.134 3.884 1.792.546.244.842.303 1.618.689.775.387 2.02 1.098 3.483 1.831M309.578 579.457c-.237-.119-.893-1.129-1.583-2.566-.222-.463.081-.489.618-.311 2.46 1.019 3.179 1.438 3.657 1.766.241.151.478.27.902.572"/><path stroke="#121212" stroke-linecap="round" stroke-width="3" d="M351.402 576.862c.616-.271 1.938-.583 2.849-.698.686-.088 1.3-.194 4.048-.215 1.116-.008 2.1.754 4.714 3.152 2.931 2.688 4.024 4.468 4.569 5.112.467.602.854 1.375 1.262 2.076.098.156.174.31.37.817"/><path stroke="#121212" stroke-linecap="round" stroke-width="3" d="M368.865 590.017c-.193-.503-.426-1.123-.91-2.324-.316-.785-.794-1.667-1.474-2.852-.956-1.667-1.223-2.426-1.689-3.088-.569-.807-1.897-1.667-2.792-2.347-1.334-1.014-2.793-1.571-3.494-1.961-.623-.347-1.471-.737-2.617-1.125-.986-.334-2.5.15-3.803.637-.256.096-.409.175-.507.137-.533-.201-.1-1.238.113-1.879.288-.866 1.182-1.108 1.861-1.36.978-.363 1.882-.33 2.735-.35.957-.023 1.785.6 2.485 1.027.786.479 1.435.66 2.192 1.241.834.639 1.648 1.126 2.232 1.553.774.565 1.591 1.047 2.25 1.532.609.448 1.01.989 1.591 1.552.819.794 1.242 1.455 1.593 2.037l.233.466.234.468M309.052 582.935c.764.981 1.272 1.709 2.2 3.399.487.886.967 1.441 1.223 2.098.159.408.401.73.655.822 1.017.367.839-2.707.93-3.512.094-.835.2-1.566.328-2.24.044-.233.019-.561.091-.746s.216-.221.362-.24c.147-.019.291-.019.383.072.647.631.094 2.056-.07 2.748-.166.702-.345 1.275-.51 1.967-.162.676-.2 1.419-.255 3.092-.033.991-.236 1.861-.346 2.572-.101.646-.437 1.039-.582 1.258-.073.11-.289.074-.418.002-.648-.362-.348-1.853-.403-6.321-.024-1.945-.163-3.328.052-5.274.092-.831 1.458-.281 1.749-.316 1.309-.157.112-2.911-.034-3.623-.034-.165-.073-.309-.019-.329.533-.201 1.035 1.286 1.619 1.982.483.575.585 1.743.458 2.586-.054.147-.126.291-.182.437a4 4 0 0 0-.128.44"/><path stroke="#121212" stroke-linecap="round" stroke-width="3" d="M352.677 577.149c1.284 0 3.08.111 4.036.336.916.215 3.016 1.283 4.739 2.186 1.25.655 2.104 1.514 3.03 2.215 1.039.871 1.713 1.488 2.16 1.852.226.197.448.419 1.013.816"/><path stroke="#121212" stroke-linecap="round" d="M389.906 301.577c.035.189.278.377.588.411.258.027.567-.006 1.289-.108.539-.076.893-.176 1.384-.278.395-.081 1.124-.339 1.668-.54.17-.071.321-.136.566-.258.17-.09.435-.237.707-.388"/><path stroke="#121212" stroke-linecap="round" stroke-width="3" d="M391.004 302.013c.205-.031.696-.183 1.291-.378a24 24 0 0 1 1.237-.504l.464-.144"/><path stroke="#121212" stroke-linecap="round" d="M357.787 273.963c.018.14.122.491.22.843.104.378.237.79.386 1.152.114.274.167.64.281 1.019.118.39.238.712.422 1.134.169.386.413.808.642 1.126.214.296.526.823.791 1.204.217.312.527.641.782 1.001.284.401.642.783.862 1.117.223.34.5.597.738.906.259.336.553.641.826.94.232.254.431.51.642.783.337.436.949.958 1.16 1.178.332.345.773.817 1.23 1.265.282.276.511.466.731.677.309.298.711.633.993.853.29.227.562.413.844.58.289.173.666.36 1.045.519.292.122.572.228.853.317.277.087.562.14.853.219.36.099.712.132.993.203.345.086.773.088 1.055.158s.562.14.853.255c.166.044.325.079.5.105.106.009.245.009.389.009"/><path stroke="#121212" stroke-linecap="round" d="M374.665 291.157c.487 0 1.51-.069 1.792-.166.309-.107.562-.378.844-.571.281-.194.562-.3.843-.414.276-.112.563-.167.853-.272.37-.134.747-.369 1.037-.536.271-.156.519-.448.8-.633.278-.183.545-.448.8-.668.232-.199.501-.378.774-.633.228-.213.518-.378.756-.58.232-.198.5-.343.913-.703.276-.24.572-.536.871-.818a6.6 6.6 0 0 0 .695-.756c.226-.289.465-.509.747-.843.409-.486.597-.808.783-1.099.161-.254.394-.519.623-.888.209-.336.387-.685.537-.976.171-.333.325-.606.466-.888.141-.281.281-.562.457-.8.17-.23.193-.553.281-.835.112-.355.299-.773.37-1.054.075-.303.158-.65.246-.95.079-.272.105-.562.167-.852.044-.326.114-.676.202-1.081.018-.158.018-.401.071-.652M373.821 272.592c0 .123.069.403.201.685.127.269.203.562.264.905.105.581.132.94.22 1.257.078.28.106.528.027.686-.042.085-.235.054-.35.019a.46.46 0 0 1-.239-.175c-.053-.071-.088-.141-.106-.646-.017-.506-.017-1.446-.017-2.414M372.449 282.666c.123 0 .403-.035.685-.158.311-.136.807-.263 1.3-.378.37-.114 1.139-.15 2.07-.132.34.017.409.052.639.14M364.907 255.029c-.07.07-.175.385-.298.685a3 3 0 0 0-.185.844 4.5 4.5 0 0 1-.193.905c-.105.336-.15.659-.308 1.046s-.176.755-.307 1.204c-.113.383-.15.712-.194 1.143a5 5 0 0 1-.237.993c-.118.353-.106.651-.132.941-.031.33-.132.606-.159 1.019-.02.314-.131.589-.245 1.002-.09.324-.15.642-.317 1.055-.125.311-.272.694-.474.994-.209.31-.378.615-.545.914-.151.269-.36.527-.528.853-.182.353-.378.729-.51 1.011a3.6 3.6 0 0 0-.282.896c-.058.373-.288 1.035-.412 1.424-.088.273-.088.562-.098 1.807-.003.483.132.794.211 1.094.076.288.167.667.255 1.002.074.281.141.562.264.888.114.302.246.571.369.853.123.281.228.562.413.8.167.272.325.466.413.58.036.062.053.131.124.203"/><path stroke="#121212" stroke-linecap="round" d="M357.998 267.635c.07.069.106.35.193.684.09.342.071.668.123.949.056.299.088.65.194 1.046.093.353.123.712.219 1.011.094.291.097.615.167.941.075.346.159.834.211 1.169.047.3.088.615.159.949.074.355.193.703.263 1.003.072.303.228.614.325.896s.167.562.317.835c.143.263.343.466.474.747.143.306.36.563.528.844.044.071.096.141.14.211s.079.141.221.265M364.327 254.396c0 .123.07.403.158.685.087.277.141.562.211.844s.175.562.264.844c.07.281.175.562.228.843.018.071.053.141.141.371"/><path stroke="#121212" stroke-linecap="round" d="M364.011 254.106c.14.175.28.491.386.799.115.336.211.606.308.94.1.346.237.616.316.941.074.303.185.571.308.897.114.302.229.501.246.572.017.068-.052-.21-.079-.838-.067-1.601.009-2.748.035-2.888.052-.278.062-.771.106-1.23.062-.649.061-.967.158-1.293.091-.309.271-.589.439-.844.165-.251.43-.553.685-.852s.588-.528.879-.783c.329-.288.87-.588 1.126-.791.25-.199.588-.412.887-.633.14-.079.299-.202.466-.351a2 2 0 0 1 .326-.186"/><path stroke="#121212" stroke-linecap="round" d="M368.968 247.461c.018.122.123.403.167.772.037.303.097.615.149.976.03.202.071.396.097 1.232.024.75.009 2.16.001 2.921-.012.974-.097 1.253-.15 1.543-.058.32-.246.553-.369.931-.134.412-.421.852-.667 1.345-.163.325-.422.737-.651 1.126a9 9 0 0 1-.659.984c-.313.395-.85.807-1.248 1.231-.33.351-.765.685-1.046.906-.282.167-.51.325-.668.43-.071.053-.123.106-.283.212"/><path stroke="#121212" stroke-linecap="round" d="M363.272 262.334c.105-.052.281-.298.527-.474.249-.18.597-.194.905-.255.32-.065.606-.097.888-.167.302-.076.615-.229.896-.369.282-.141.563-.247.976-.457.309-.158.589-.299.827-.475.24-.178.553-.334.843-.51.349-.212.572-.457.87-.755l.177-.176c.053-.053.105-.106.317-.265M368.968 259.802c0 .384-.034 1.194-.114 1.52-.114.29-.184.501-.254.642l-.106.212"/><path stroke="#121212" stroke-linecap="round" d="M368.125 262.756c.104-.157.386-.509.579-.746.226-.279.387-.606.615-.888.209-.258.352-.562.58-.888.204-.29.422-.728.651-1.064.187-.274.351-.631.536-.966.223-.403.431-.756.572-1.038.148-.295.316-.719.474-1.063.146-.317.229-.607.326-.888.101-.294.307-.702.465-1.072.156-.364.247-.651.317-.932.072-.287.159-.563.29-.932.102-.285.149-.615.238-.958.074-.29.175-.606.298-.993.092-.288.071-.58.159-1.011.035-.396.088-.607.114-.782.009-.106.009-.245.009-.389"/><path stroke="#121212" stroke-linecap="round" d="M374.243 245.72c.034.123.14.403.219.694.091.333.15.675.202.993.05.3.123.65.202 1.028.097.457.097.747.124 1.388.018.451.078.836.088 2.606a3.3 3.3 0 0 1-.185 1.201c-.117.372-.193.878-.281 1.222-.083.323-.141.606-.22.888-.086.308-.184.65-.255.993-.068.335-.281.851-.378 1.231-.09.356-.272.659-.369.941-.104.301-.325.562-.474.879a.5.5 0 0 1-.167.167c-.07.044-.157.079-.3.115"/><path stroke="#121212" stroke-linecap="round" d="M374.348 245.72c.035.123.14.403.263.685.126.288.247.562.378.835.154.318.378.676.519.958a17 17 0 0 1 .905 2.109c.141.398.238.668.343.994.108.333.176.868.273 1.239.12.463.096.967.106 2.089.004.515-.114.829-.167 1.12-.062.337-.176.606-.238.888-.065.298-.202.615-.289.905-.112.369-.317.659-.501.897-.215.276-.343.659-.528.94a2.2 2.2 0 0 1-.36.457l-.282.283"/><path stroke="#121212" stroke-linecap="round" d="M374.612 260.119c.122-.035.403-.175.702-.369.357-.231.65-.421.976-.589.306-.157.571-.325.896-.466q.225-.105.422-.263a4 4 0 0 0 .221-.212"/><path stroke="#121212" stroke-linecap="round" d="M377.776 258.115c0 .191-.104.718-.219 1.053-.101.294-.307.597-.466.897-.144.272-.334.509-.518.835a3.7 3.7 0 0 1-.536.756c-.281.292-.615.624-.844.879-.237.264-.562.571-.844.835-.264.176-.509.352-.791.537-.071.044-.14.079-.265.167"/><path stroke="#121212" stroke-linecap="round" d="M373.188 264.074c.314 0 1.018.035 2.079.044.526.005.872-.166 1.277-.342a7.4 7.4 0 0 0 1.152-.597c.441-.294.694-.528.915-.791.149-.282.272-.476.36-.589.036-.062.053-.132.124-.362M379.358 259.486c-.017.21-.052.909-.096 1.718.008 2.061.061 2.342.088 2.578.008.133.008.289.008.451M379.359 264.233c.017-.123.052-.403.105-.738.062-.396.281-.982.71-2.15.38-1.032.502-1.644.652-2.113.093-.292.307-.919.483-1.398.157-.424.176-.896.229-1.256.06-.406.176-.782.238-1.257.026-.458.079-.722.105-1.106.009-.297.009-.802.009-1.322"/><path stroke="#121212" stroke-linecap="round" d="M380.519 250.625c.175.07.421.385.623.685.175.259.308.509.396.8.112.369.351.728.431 1.054.104.424.395 1.027.51 1.468.111.428.272.949.325 1.31.08.545.194.957.246 1.319.044.3.193.571.229 1.028.03.395.123.809.184 1.604.009 1.68-.025 2.88-.087 3.02-.027.071-.044.14-.115.37M383.261 263.389c.053-.14.194-.456.281-.746.13-.43.317-.87.431-1.195.185-.526.307-.87.413-1.205.151-.477.264-.826.483-1.616.098-.424.15-.635.177-.775.009-.071.009-.14.009-.212"/><path stroke="#121212" stroke-linecap="round" d="M384.316 256.69c.123.018.368.158.571.421.194.253.36.597.58 1.037.182.363.343.721.492 1.064.134.308.308.606.431.906.153.37.439.912.607 1.309.168.399.342.941.448 1.283.121.393.298.66.448 1.081.296.831.414 1.248.519 1.636.099.362.246.93.343 1.336.081.339.167.615.255.905.131.431.088 1.011.114 1.363.044.352.062.598.088.991.009.323.009.897.009 1.489"/><path stroke="#121212" stroke-linecap="round" d="M388.852 272.355c.106-.175.175-.525.255-.843.069-.274.131-.632.211-1.019.089-.433.288-1.522.387-2.251.056-.42.148-1.192.219-1.687.088-.563.106-.827.132-1.168.009-.254.009-.671.009-1.102"/><path stroke="#121212" stroke-linecap="round" d="M389.696 263.547c.122.105.333.35.509.964.179.624.282 1.336.378 1.716.077.304.097.624.202 1.08.072.312.071.668.124.986.06.367.087.826.114 1.151.026.149.044.499.061.956a.8.8 0 0 0 .089.32M391.173 270.984c0-.123.034-.403.149-.694.162-.414.324-1.027.439-1.362.027-.071.061-.141.079-.211s.018-.141.071-.318M392.228 267.819c.105.157.245.543.316.852.077.338.088.659.114 1.08.064 1.013.009 2.638-.122 2.972a1.5 1.5 0 0 1-.158.255c-.062.079-.131.149-.256.379"/><path stroke="#121212" stroke-linecap="round" d="M392.966 271.775c.07.122.105 1.447-.026 2.547-.053.444-.22.861-.439 1.397-.204.5-.518.871-.957 1.311-.411.411-.827.51-1.074.695-.07.044-.157.079-.228.123s-.123.096-.177.15"/><path stroke="#9f9d9d" stroke-linecap="round" d="M391.753 275.414c.035.122.14.438.211.746.081.355.122.781.202 1.151.119.551.096.949.106 2.361.003.509-.132.786-.307 1.147-.139.285-.423.343-.554.422-.072.043-.183.027-.272-.008a1.06 1.06 0 0 1-.327-.597c-.009-.07-.009-.14-.061-.264M390.719 279.12c-.014-.028-.021-.29-.017-.679.003-.142.01-.17.017-.199a1 1 0 0 0 .022-.107"/><path stroke="#121212" stroke-linecap="round" d="M358.014 267.769c0 .371-.039 1.24-.078 1.654-.038.392-.158.885-.217 1.302-.06.413-.099.926-.178 1.242l-.059.237M357.482 272.855c-.079-.078-.235-.51-.374-1.004a9 9 0 0 0-.601-1.508c-.181-.37-.384-.818-.464-1.163a6 6 0 0 1-.157-.582 2.5 2.5 0 0 0-.119-.415M355.649 268.656c.019.137.059.686.108 1.327.029 1.353.089 1.59.128 1.747.02.079.039.157.059.415M355.885 272.145c-.039-.039-.137-.098-.363-.157a1.7 1.7 0 0 0-.502.009c-.139.029-.198.088-.377.207M353.461 271.79c.177.118.334.432.462.768.117.306.207.63.355.946.137.292.325.61.542.946.214.332.473.631.719.937.237.294.562.443.877.641.286.178.709.315 1.065.394.157.059.335.119.522.158.089.02.167.039.366.119"/><path stroke="#9f9d9d" stroke-linecap="round" d="M356.572 274.417c0 .03-.038.221-.095.509-.032.157-.073.533-.162 1.405-.055.544-.05 1.299-.035 1.82.023.79.154 1.146.234 1.288.097.171.212.304.396.473.143.132.559.155.796.09.134-.089.257-.196.311-.258.023-.031.039-.061.077-.115M357.656 276.861c.023.077.069.291.1.476.039.261.046.485.058.592.004.069.004.168.004.27"/><path stroke="#121212" stroke-linecap="round" d="M364.917 286.644c.135.058.368.329.572.689.242.426.534.981.768 1.341.242.373.427.806.573 1.117.148.315.224.68.311 1.001.107.392.263.728.341 1.039.082.33.193.718.252 1.195.02.108.058.185.078.263s.02.155.078.234M368.007 294.106c-.156-.135-.349-.446-.534-.757-.199-.334-.398-.756-.68-1.253-.199-.35-.553-.708-.894-1.079a23 23 0 0 1-.621-.553c-.107-.088-.204-.146-.419-.322M365.442 291.599c.193.327.504 1.184.631 1.524.137.37.185.729.282 1.04.116.375.213.855.417 1.504.202.643.321 1.31.409 1.818.113.652.106 1.166.136 2.145.009.207.029.284.038.382.01.097.01.212.01.331M367.19 300.635c-.116-.077-.31-.387-.465-.853-.133-.398-.273-.7-.563-1.302a3 3 0 0 1-.302-.574c-.03-.088-.049-.165-.185-.419M361.361 305.415c.174-.193.523-.62.747-.893.329-.4.805-1.259 1.34-2.329.256-.511.283-.973.458-1.421.212-.543.717-1.821.952-2.719.137-.526.175-.953.272-1.264.02-.155.059-.331.126-.515.03-.088.049-.165.069-.303M359.729 297.137c.097.135.29.599.533 1.154.379.863.457 1.523.564 2.282.219 1.542.282 1.886.311 2.469.01.137.029.234.039.629.01.396.01 1.089.01 1.802M359.962 295.563c-.019.135-.058.446-.261 1.231-.226.874-.785 1.6-1.137 2.101-.273.387-.758.728-1.291 1.213-.476.312-1.175.739-1.546.905a.6.6 0 0 0-.137.205"/><path stroke="#121212" stroke-linecap="round" d="M357.222 293.873c0 .385-.038 1.241-.068 1.776-.023.421-.087.806-.116 1.234a4 4 0 0 1-.214 1.069c-.114.318-.145.795-.388 1.446-.341.789-.457 1.099-.603 1.411-.029.078-.048.155-.068.409"/><path stroke="#121212" stroke-linecap="round" d="M358.33 292.357c-.02.135-.174.484-.485.883-.351.451-.66.69-1.029 1.001-.299.251-1.104.485-2.055.718-1.218.299-2.531.313-2.871.361-.492.07-2 .068-3.147-.038a3.8 3.8 0 0 1-.943-.339c-.138-.079-.195-.136-.371-.196M347.778 294.397c.329 0 1.335-.077 2.039-.213.596-.116 1.224-.233 1.613-.369.586-.204 1.165-.486 2.126-.999.498-.342.809-.574 1.148-.866.088-.078.165-.155.361-.409M355.531 290.725c-.116.058-.579.29-1.135.456-.36.108-.901.262-1.399.369a8.4 8.4 0 0 1-1.447.175c-.389.049-.701.068-.952.098-.174.009-.444.009-.721.009"/><path stroke="#121212" stroke-linecap="round" d="M349.644 291.891c.154 0 .504-.039 1.115-.078.434-.027.806-.232 1.476-.591 1.304-.698 1.818-1.699 2.197-2.457.296-.59.341-1.184.41-1.75.055-.449.107-1.836.01-2.953a7 7 0 0 0-.388-1.787c-.318-.9-.602-1.361-.72-1.692-.139-.392-.677-.911-1.058-1.35-.302-.349-.688-.844-.914-1.225-.241-.406-.707-.997-1-1.593a22 22 0 0 1-.593-1.311c-.174-.414-.379-.893-.477-1.399a6 6 0 0 1-.068-.632c-.009-.088-.029-.165-.048-.244"/><path stroke="#121212" stroke-linecap="round" d="M349.411 273.353c0 .155.038.504.155 1.008.145.631.271 1.339.466 1.944.068.211.463 1.217 1.055 2.625.333.792.596 1.223.81 1.582.059.165.136.302.243.438.049.078.087.174.185.448M349.644 272.712c-.019 0-.039 0-.077.029-.039.029-.097.086-.215.262M347.662 269.156c0 .366-.039 1.183-.116 1.572-.074.368-.136.988-.234 1.661-.032.225-.058 1.15-.029 2.529.025 1.21.359 1.62.601 2.261.138.365.36.68.593.963.243.294.466.573.709.807.069.058.145.116.214.184.068.068.126.145.302.341M350.052 279.824a2.8 2.8 0 0 1-.398-.824c-.12-.422-.107-.826-.136-1.408-.049-.448-.068-.779-.107-.973a3 3 0 0 1-.059-.468"/><path stroke="#121212" stroke-linecap="round" d="M349.352 277.142c0-.289.039-.795.107-1.154.01-.165.029-.341.068-.544q.03-.163.059-.342M349.061 266.212c0 .348-.116 1.124-.359 1.534-.245.413-.668.699-1.039 1.001-.261.212-.66.32-1.194.535-.382.153-.787.136-1.205.185-.145.016-.357.01-.533-.058-.489-.437-.605-.709-.664-.902-.019-.117-.019-.271-.019-.429"/><path stroke="#121212" stroke-linecap="round" d="M354.949 240.825c-.039 0-.136 0-.281.039-.393.103-.688.967-1.03 1.417-.198.26-.34.64-.592 1.02-.45.677-.777 1.232-1.127 1.933-.308.614-.525 1.166-.691 1.497-.225.448-.32 1.106-.553 1.766-.516 1.463-.68 1.924-.807 2.344-.104.341-.223.959-.428 1.505-.151.406-.261 1.164-.34 1.729-.074.53-.136.836-.165 1.167-.049.543-.087 1.127-.117 2.502-.024 1.127-.087 2.685-.165 3.084-.084.434-.097.864-.126 1.36-.035.58-.166 1-.214 1.39-.055.445-.107.835-.155 1.311-.075.725-.282 1.137-.37 1.487-.11.439-.223.874-.407 1.36-.157.412-.359.758-.544 1.108a4 4 0 0 0-.292.418 1.4 1.4 0 0 1-.166.185M355.357 240.009c-.232.135-.621.368-.99.63-.361.257-.68.515-1.001.787-.477.406-.981.797-1.282 1.098l-1.205 1.204c-.408.409-.671.807-.981 1.167-.273.34-.583.766-.827 1.117-.049.078-.087.155-.185.351"/><path stroke="#121212" stroke-linecap="round" d="M348.886 246.363c.058-.116.252-.387.369-.698.129-.344.388-.776.611-1.176.244-.436.593-.903.875-1.418.224-.41.476-.786.699-1.089.201-.271.533-.745.952-1.359.413-.604.593-.885.816-1.167.363-.458.998-1.211 1.303-1.68.282-.435.495-.874.728-1.157.28-.338.601-.863.875-1.301.244-.393.641-.788 1.512-1.717.788-.841 1.246-1.033 1.876-1.595.611-.545 1.601-1.223 2.475-1.893.537-.412.84-.654 1.209-.916.748-.533 1.302-.769 2.029-1.117.535-.257 1.001-.408 1.662-.604.539-.159 1.087-.252 1.652-.35.483-.083.797-.097 3.324-.088 1.174.004 1.845.611 2.302.884.323.192.631.465 1.03.796.457.409.749.623.904.777l.487.487M375.235 226.237c.271.193.582.504.815.863.289.446.775 1.771.992 2.507.019.088.039.165.058.243l.059.234M375.993 230.973c.174 0 .562-.077 1.086-.252a12 12 0 0 0 1.71-.718 9.7 9.7 0 0 1 1.633-.603c.564-.149 1.476.056 1.846.193q.786.29 1.399.583c.549.261.932.428 1.302.621.568.299 1.263.661 1.545.875.368.279.67.466 1.126.709.483.258.768.573 1.011.797.26.239.612.379.894.602.371.294.728.592 1.127.855.295.195.611.495.933.826.302.311.669.602.952.807.274.197.476.494.68.777.207.286.379.611.583.932.208.327.418.65.7 1.03.284.383.534.903.758 1.34.185.363.377.921.651 1.564.224.529.427 1.03.534 1.371.119.377.359.708.525 1.068.313.683.651 1.544.797 1.895.166.4.34.952.582 1.901.254.996.457 1.654.574 2.014.112.347.175.748.291 1.108.118.365.175.728.301 1.059.15.39.204.757.311 1.088.106.327.34.737.467 1.185.138.489.262.874.388 1.36.101.387.166.738.253 1.079.101.394.224.729.301 1.078.12.541.291.952.437 1.554.099.407.166.72.292 1.079.109.31.145.632.301.943l.437.875c.243.311.341.544.389.699.029.078.068.155.107.409M403.216 264.128c.039.077.097.29.155 1.322.049.857.02 2.397.03 3.238.013 1.115.107 1.5.155 2.111.11 1.388-.125 1.703-.281 2.023-.171.353-.349.709-.679 1.098-.325.383-.757.912-1.466 1.641-.426.438-.691.826-.944 1.158-.244.318-.525.698-.777 1.029-.331.434-.505.758-.778 1.224-.271.465-.543 1.261-.748 2.068-.233.917-.088 1.755.018 2.372.057.329.204.67.379 1.03.26.536.718.846 1.049 1.002.097.02.212.02.301-.009.088-.029.146-.087.205-.204"/><path stroke="#121212" stroke-linecap="round" d="M398.319 280.246c-.212.251-.755.873-1.116 1.281-.35.398-.708.854-1.03 1.273-.258.337-.417.941-.699 1.718-.285.785-.476 1.61-.584 2.294-.103.654-.068 2.358-.001 3.44.037.582.301.951.447 1.302.176.423.514 1.087.767 1.506.2.331.447.631.7.894.254.264.505.554.767.797q.22.132.408.292c.069.049.146.087.4.243M392.723 294.179c.31.135.851.522 1.581.921.618.338 1.04.38 1.488.439.175.057.908.097 1.947.087.385-.009.481-.028.755-.165M394.997 295.636c.174.31.368.737.543 1.048.196.348.505.563.816.865.341.331.757.438 1.117.642.457.146.806.223 2.443.224.346-.019.423-.058.56-.156"/><path stroke="#121212" stroke-linecap="round" d="M400.826 297.88c0 .077 0 .154-.038.223-.303.538-1.436.749-1.99.942-.373.13-.711.234-1.27.331-2.18.04-2.608-.058-2.773-.087-.088-.01-.184-.01-.4-.068M392.396 300.768c.223.109 1.05.233 2.04.139a5 5 0 0 0 1.081-.251c.329-.135.595-.189.866-.302l.221-.122M389.983 300.912a7.5 7.5 0 0 1-.252 1.484c-.145.52-.233.865-.33 1.399-.02.128-.039.224-.049.437s-.01.54.107.994M386.311 294.849c.077.562.116 1.144.174 1.563.08.573.117.961.224 1.457.097.452.107.883.514 2.638.137.591.368 1.409.661 2.045.276.601.524 1.389.651 1.798.118.379.301.68.505.943.049.068.088.145.127.223s.077.155.233.351M383.979 287.271c0 .271-.038.697-.155 1.328-.118.642-.116 1.158-.194 1.662-.171 1.109-.02 2.993.048 3.45.079.531.223 1.349.359 1.826.11.388.483 1.113.825 1.623.316.47.67.854.923 1.186.234.292.447.505.622.68.078.078.136.136.37.312M363.416 260.46c.048-.024.226-.083.588-.173.345-.086.828-.156 1.055-.189.114-.016.192-.033.299-.042.226-.018.626-.044 1.035-.041.155.001.202.008.369.014s.45.012.806.048.777.101 1.201.199c.423.099.837.229 1.065.299.362.111.575.213.796.321.219.106.543.292.819.463.054.033.09.051.117.069s.045.036.099.054M362.794 264.966c.076-.025.246-.093.48-.17.251-.082.48-.085.637-.106s.361-.072.721-.102c.887-.074 1.077.055 1.23.093.209.052.467.098.672.174.141.053.281.077.446.136.197.071.421.111.646.196.155.058.311.102.459.144.21.06.353.136.477.217.135.088.293.166.429.259.145.1.272.213.425.349l.162.161c.025.026.051.051.153.128"/><path stroke="#121212" stroke-linecap="round" d="M368.048 265.91c0 .126-.017.432-.068.59-.049.152-.076.31-.165.531a5.7 5.7 0 0 1-.425.799c-.11.177-.403.467-.617.697-.193.209-.476.332-.709.434-.216.094-.614.086-1.139-.054-.278-.074-.463-.276-.697-.471-.428-.358-.506-.553-.744-.884-.148-.206-.239-.383-.332-.549-.105-.186-.196-.462-.277-.659a.4.4 0 0 1-.025-.102q-.006-.05-.005-.103"/><path stroke="#121212" stroke-linecap="round" d="M362.743 265.247c.102.067.221.287.344.471.205.305.336.556.484.815.164.287.344.455.494.664.094.133.208.242.34.395.155.18.335.306.471.413.209.163.434.234.574.276.151.046.277-.076.404-.178.137-.109.306-.28.459-.446.155-.168.179-.352.315-.688.088-.218.119-.464.187-.663a.7.7 0 0 1 .11-.213.26.26 0 0 1 .175-.103c.158-.011.106.554.026 1.1-.054.367-.225.519-.357.651-.236.237-.539.285-.82.332-.336.056-.73-.156-.952-.271-.278-.144-.383-.311-.663-.683-.392-.523-.417-.85-.435-1.251-.005-.122.068-.188.132-.238.079-.064.199-.094.453-.12.52-.052.97.025 1.153.089.191.067.319.267.443.518.108.219.106.759-.228 1.385-.061.113-.116.108-.175.108-.302 0-.687-.304-1.067-.725-.228-.254-.209-.575-.188-.715.029-.191.604-.158.968-.103.213.032.286.174.324.237.046.077.005.175-.025.247-.037.09-.14.166-.238.234-.078.054-.166.043-.234.034-.143-.017-.246-.152-.323-.326a.17.17 0 0 1 .012-.149c.04-.065.174-.035.297-.001.1.027.192.093.281.182.083.083.107.2.12.298.006.047-.029.089-.08.115-.342.174-.858.026-1.207-.211-.478-.325-.451-.579-.549-.778-.118-.24-.081-.396-.098-.481-.014-.07-.119-.077-.098-.09.342-.213.641.055 1.451.09.338.014.726-.051 1.056-.094.35-.045.812.008.952.064.158.098.361.199.532.314q.051.03.102.056M379.043 266.733c.032-.031.095-.137.307-.368.106-.115.339-.273.531-.414.095-.07.213-.125.324-.199.127-.085.45-.265.701-.385a6 6 0 0 1 .457-.189c.066-.025.201-.058.463-.14.376-.118.647-.152.797-.165.304-.027.576-.067.72-.069.111-.002.276-.014.511-.006.404.014.603.061.826.117.287.071.506.109.561.127.059.02.23.066.495.164.4.148.495.227.649.314.148.084.255.135.404.231.097.062.18.127.279.196.116.082.262.213.34.274.087.056.183.14.265.196.019.014.035.029.067.046"/><path stroke="#121212" stroke-linecap="round" d="M380.381 266.192c0 .079.011.26.019.405.007.133.045.279.061.378.018.115.058.252.09.347.027.082.063.254.119.385.047.109.109.21.146.3.042.102.159.228.247.345.058.078.114.149.178.229.066.083.127.17.204.265.074.092.189.17.29.255.091.077.185.117.286.167.108.054.213.109.303.141.089.032.196.059.318.069.183.016.623.043.908.027.103-.006.197-.053.298-.098.085-.038.169-.109.302-.204.113-.082.175-.16.247-.229a2.4 2.4 0 0 0 .234-.262c.066-.085.103-.173.204-.316a1.2 1.2 0 0 0 .173-.364c.044-.153.093-.321.172-.657.073-.308.123-.652.141-.758l.077-.419c.018-.092.043-.176.032-.261a1.1 1.1 0 0 0-.095-.35.19.19 0 0 0-.101-.093c-.266-.104-.732-.008-.831.055-.077.05-.114.122-.172.217-.125.205-.302.441-.469.674-.176.244-.269.447-.325.558-.053.105-.162.36-.27.723a1.25 1.25 0 0 0-.054.496c.006.08.066.13.116.167.093.069.31.006.56-.1.125-.053.328-.159.575-.328.198-.136.38-.387.563-.676a1.58 1.58 0 0 0 .174-1.292.9.9 0 0 0-.201-.29c-.081-.07-.149.138-.273.37-.107.2-.266.589-.429.902s-.315.545-.42.721a2.2 2.2 0 0 0-.256.582c-.004.015.081-.379.161-.917.03-.202.027-.26.035-.227s.024.159.032.387c.019.554.029.9.066.932.045.038.037.133.029.215-.005.06-.055.093-.092.122-.082.064-.181.051-.398.08-.123.016-.397-.044-.603-.13-.153-.063-.336-.254-.462-.361-.11-.093-.341-.349-.578-.641-.098-.121-.257-.424-.372-.696-.047-.111-.077-.229-.136-.417-.1-.323-.127-.454-.154-.555-.005-.021-.01-.043.003-.048.242-.103.485.578.589.726.159.23.321.431.414.537.25.287.395.387.531.459.064.034.156.109.252.165.097.057-.217-.273-.547-.727-.163-.223-.346-.622-.459-.84-.186-.358-.262-.532-.252-.845.002-.058.063-.044.098-.03.119.045.22.119.472.265.123.071.221.141.387.246.315.2.524.367.614.439.307.244.43.284.502.348.095.083-.219.138-.445.175-.066.011-.109.011-.154.019-.253.044-.539-.554-.59-.669-.061-.138-.072-.347-.072-.446 0-.167.408-.263.779-.324.359-.059.617-.013.676-.029.027-.008.047-.026.04-.035-.092-.099-.441.182-.624.321-.095.075-.143.138-.175.178a.2.2 0 0 1-.064.051"/><path stroke="#121212" stroke-linecap="round" stroke-width="5" d="M366.16 239.022c-.524.524-1.987 2.191-3.854 4.352-.758.878-1.288 1.436-1.977 2.389-1.015 1.403-1.983 2.98-2.504 3.96-.334.627-.691 1.174-.912 1.764-.224.599-.28 1.088-.441 1.954a5.6 5.6 0 0 0-.103.885c0 .1.087-.831.525-2.761.302-1.332.962-3.328 1.379-4.567.561-1.667.947-2.415 1.211-3.104.262-.686.763-1.689 1.422-3.184.359-.815.921-1.67 1.555-2.557 2.081-2.91 2.785-3.303 3.096-3.542.753-.579-1.097 2.141-1.819 3.245-1.308 2-1.898 2.398-2.896 3.661-.509.644-1.031 1.295-1.472 1.84-.453.56-.941 1.131-1.968 2.394-.456.561-1.174 1.642-1.782 2.765-.383.709-.486 1.471-.706 2.192-.177.581-.191 1.25-.411 1.808-.431 1.094-1.218 3.258-1.574 4.439-.202.671-.558 1.469-.691 2.177-.115.609-.103 1.264-.294 1.985-.149.567-.455.985-.691 1.471-.27.558-.47 1.16-.618 1.734a14 14 0 0 1-.499 1.544c-.237.609-.207 1.118-.221 1.324-.029.414-.016-1.055.102-1.526.126-.506.265-1.145.426-1.691.169-.571.28-1.218.368-1.837.112-.79.147-1.735.206-2.572.046-.649.205-1.338.323-1.854.155-.678.147-1.455.25-1.999.091-.479.162-.955.294-1.573.118-.551.367-1.175.647-1.749.306-.63.279-1.22.47-1.721.178-.465.339-.94.559-1.485.216-.534.602-1.013.94-1.661.266-.508.574-1.028.941-1.749.25-.49.427-1.102.662-1.721.239-.628.675-1.321 1.058-1.999.157-.276.354-.501.486-.575.549-.31-.218 1.45-.425 2.07-.221.662-.675 1.03-1.014 1.398-.428.464-.954 1.101-1.513 1.485-.282.193-.56.353-.751.427-.07.027-.103-.13-.104-.248-.002-.485.41-.882.675-1.411.285-.567.645-1.466.985-2.205.295-.64.749-1.322 1.015-1.853.28-.56.704-.999 1.453-1.792.167-.176.251-.295.238-.355s-.129-.06-.233-.016c-.448.188-.867.572-1.338.764-.481.197-.882.513-1.294.808-.205.147-.207.47-.164.632.119.441.661-.863 1.029-1.481.415-.697.69-1.118 1.029-1.706.312-.541.806-1.263 1.82-2.277.456-.455 1.481-1.248 2.905-2.232 1.416-.978 1.991-1.254 2.522-1.461.518-.202 1.232-.646 2.073-.956.588-.216 1.131-.485 1.706-.676.504-.168 1.043-.25 1.69-.295.853-.059 1.793.043 2.309.191.569.163 1.277.439 1.794.5.432.051-.893-.528-1.364-.603-.533-.084-1.932-.161-3.143-.235-2.088-.126-2.561.162-3.12.352-.619.21-1.145.69-1.458 1.073-.343.421 1.654-.319 2.571-.572.508-.139 1.145-.278 1.779-.426.515-.12 1.102-.235 1.749-.353a14.5 14.5 0 0 1 2.454-.221c.593-.009.84.748 1.281 1.189.442.442.852.794 1.309 1.235.414.4.72.794 1.088 1.22.485.398.868.722 1.059.912l.427.428"/><path stroke="#121212" stroke-linecap="round" stroke-width="5" d="M378.245 234.612c-.204-.118-.674-.293-1.335-.427-.388-.078-1.566-.044-3.342-.059-1.457-.012-2.261.162-2.743.308-.879.266-1.896.851-2.718 1.409-1.259.853-2.502 2.119-2.945 2.574-.123.128-.263.279-.338.296s-.075-.1.027-.262c.762-1.211 2.394-1.927 3.539-2.66 1.628-1.043 3.354-1.268 3.957-1.341.775-.094 3.116-.103 4.924.072a4.9 4.9 0 0 1 1.472.412c.346.157-1.517.556-3.065 1.248-1.691.756-2.339 1.221-3.235 1.822-2.147 1.442-2.779 1.985-3.443 2.443-.551.379-1.044.779-1.515 1.249-.4.4-1.028.793-1.485 1.353-.362.443-1.216 1.231-1.852 1.94-.369.412-.721.882-1.293 1.514-.47.518-.692 1.044-1.162 1.735-.196.287-.354.516-.384.648-.156.688 1.467-.983 2.612-1.497.762-.341 1.502-.544 1.987-.707.569-.189 1.131-.601 1.662-.793.55-.2 1.291-.602 1.852-.882.519-.259.999-.632 1.427-.941.434-.313.809-.544.956-.604.474-.191-.615.998-.983 1.41-.45.505-1.013.648-2.143.707-.623.033-1.134.322-1.635.602-.492.275-.882.602-1.207.868-.045.037.115.117.233.118.487.003.852-.499 1.28-.822.442-.335-1.158.909-1.541 1.232-.382.323-.705.706-1.044 1.073-.346.376-.574.838-.882 1.235-.328.423-.574.926-.795 1.397-.208.443-.192 1.057-.001 1.588.165.46-.249.94-.498 1.411-.226.426-.28.94-.486 1.411-.21.483-.412.941-.603 1.412-.183.453-.191.94-.352 1.411-.156.457-.22.941-.295 1.558-.065.542-.308 1.175-.426 1.721-.119.551-.265 1.305-.412 1.999-.173.823-.234 1.308-.309 1.809-.069.467-.015-1.406.029-2.992.013-.446.074-1.729.089-3.551.01-1.275.19-2.74.396-3.846.128-.684.118-1.279.206-2.045.072-.626.177-1.089.148-1.251-.114-.635-.47 1.187-1.188 3.196a77 77 0 0 1-1.296 3.342c-.221.531-.631 1.35-.868 2.03-.307.881-.677 1.852-.823 2.425-.03.453-.059.84-.103 1.278-.015.322-.015.846-.015 1.386M357.78 252.078c-.264.409-.732 1.231-1.218 2.127-.763 1.408-1.192 2.221-1.383 2.766-.286.813-.661 1.659-.941 2.294-.332.753-.632 1.337-.809 1.838-.221.624-.352 1.087-.427 2.071-.074.983-.015 2.28.088 2.824.156.825-.248 1.25-.484 1.808-.414.976.058 1.646.277 2.104.049.101.045.219.06.207.044-.425-.015-1.186.073-1.807.03-.118.059-.234.177-.531M349.841 266.633c-.029.204-.088 1.314.058 2.144.108.612.235 1.088.368 1.559.13.458.424.94.734 1.397.283.416.544.866.678 1.352a8 8 0 0 0 .543 1.485c.265.442.558.852.867 1.25.074.103.132.22.369.516"/><path stroke="#121212" stroke-linecap="round" stroke-width="5" d="M368.63 242.286c1.225 0 3.585.117 4.071.264.539.165 1.014.265 1.792.573.78.308 1.72.779 2.397 1.073.547.238 1.38.617 1.971.853.665.267 1.701 1.406 2.455 2.116.636.599.985 1.352 1.705 2.116.452.481.78.912 1.221 1.384.456.487.852.97 1.235 1.396.495.551 1.058 1.396 1.646 2.175.487.645.912 1.22 1.485 2 .348.473.662.868 1.015 1.309.358.446.617.94.941 1.47.507.829.911 1.323 1.191 1.896.31.634.602 1.103.853 1.574.235.44.397.94.559 1.411.166.481.309.941.441 1.485.033.136.103.25.074.251-.613.039-.293-1.321-.396-1.468-.045-.066-.189.027-.278.115-.208.47-.237.882-.281 1.161-.015.161-.015.365-.015.311"/><path stroke="#121212" stroke-linecap="round" stroke-width="5" d="M369.865 238.14c.263.176.967.528 1.791.822 1.127.404 2.029.912 2.661 1.132.829.289 1.688.749 2.529 1.191.738.388 1.309.646 1.75.985.214.164 1.141.804 2.929 2.254 2.248 1.824 3.628 3.083 3.981 3.332.755.534 1.529 1.367 2.058 2.028.658.822 1.554 1.687 3.319 3.818.769.929 1.475 1.814 1.871 2.415 1.013 1.536 1.574 2.573 1.824 3.133.341.763.867 1.557 1.118 2.088.162.471.309.853.382 1.132.044.133.103.25.251.546"/><path stroke="#121212" stroke-linecap="round" stroke-width="5" d="M371.277 236.64c1.025.117 2.201.411 3.23.705.509.145 1.263.382 2.13.559 1.645.334 3.928 1.293 4.896 1.762 1.034.502 1.914 1.059 3.039 2.038a80 80 0 0 1 3.403 3.196c2.655 2.651 2.795 3.264 3.265 3.955.32.469.705 1.393 1.191 2.264.395.708.604 1.25.926 1.838.545.993.998 2.317 1.222 3.117.171.609.425 1.379.617 2.073.147.53.367 1.219.574 1.794.059.545.176 1.014.235 1.573.029.148.087.293.236.708"/><path stroke="#121212" stroke-linecap="round" stroke-width="5" d="M376.746 235.67c.263-.205 1.898-.265 3.302-.016 2.809.496 4.545 1.69 5.076 2.029.496.316 1.087.72 1.69 1.161.605.442 1.015.794 1.632 1.425 1.27 1.299 2.881 2.691 3.675 3.469.545.535.912 1.044 1.544 1.676 1.036 1.037 1.281 1.662 1.604 2.09.352.465.617 1.072 1.014 1.792.259.469.515.956.677 1.457.197.607.718 2.05 1.103 3.057.193.508.177 1.059.353 1.822.199.864.235 1.412.309 2.147.063.624.162 1.497.338 2.411.177.766.206 1.178.279 1.413.044.118.102.234.162.354"/><path stroke="#121212" stroke-linecap="round" stroke-width="5" d="M375.952 233.112c.116-.117.586-.235 1.057-.352.471-.118.94-.294 1.411-.441.463-.146 2.629-.177 3.999-.06.67.057 1.204.498 1.735.691.489.177.998.513 1.646.779.512.21.97.47 1.456.793.54.36 1.014.705 1.47.985.427.262.779.749 1.235 1.161.475.429.809.911 1.309 1.441.386.409.735.998 1.059 1.456.289.408.441.925.574 1.396.137.49.367.94.675 1.499.303.548.574 1.029.883 1.5.25.471.456.824.632 1.044.088.104.176.191.354.37M398.093 260.899c.088.322.439.908.793 1.483.302.492.589.867.941 1.207.064.062.147-.159.235-.233a.24.24 0 0 1 .294-.017c.397.259.412.88.545 1.497.142.656.044 1.207.088 2.141.189 4.002-.308 4.476-.601 4.947-.302.485-.617.882-.97 1.396-.331.482-.559.955-.868 1.646-.239.536-.631.985-.985 1.515-.291.436-.617.824-.897 1.265a7 7 0 0 0-.588 1.058c-.045.118-.074.235-.104.619"/><path stroke="#121212" stroke-linecap="round" stroke-width="5" d="M395.094 278.806c0-.933-.058-2.703-.162-4.164-.078-1.105-.015-3.204 0-4.341.028-2.162.161-3.844.395-4.02.314-.236.677-.295.912-.31.245-.016.442.278.603.571.312.567.251 1.38.354 2.16.195 1.473-.162 2.777-.162 3.163 0-.137 0-.952-.101-1.561-.102-.61-.306-.988-.516-1.378M392.095 285.4c0 .204-.117.674-.206 1.145-.092.485-.205.998-.206 2.759-.001.889.528 1.445.691 1.713.828 1.362-.075-2.997-.015-3.382.109-.697-.146 1.173-.205 2.669-.028.693-.587 1.121-.999 1.622-.333.405-.793.705-1.352.956-.531.239-1.029.397-1.485.647-.439.24-.662.748-.912 1.205-.12.219-.339.397-.442.632-.048.109.043.235.014.251s-.144-.071-.219-.174c-.294-.408-.192-1.014-.236-1.997-.028-.609-.132-1.134-.148-2.484-.007-.659.221-1.12.353-1.605.164-.603.046-1.191-.117-1.662-.041-.119-.102-.235-.074-.324.139-.437.762-.588 1.248-.911.534-.356.926-.794 1.397-1.133.113-.081.235-.132.353-.06.61.371.443 3.167.355 4.718-.03.118-.059.235-.074.382s-.015.322-.015.502M360.25 285.929c.292.204.88.792 1.175 1.19.137.184.441.192.647.221.092.014.147-.144.162-.277.082-.698-.424-1.455-.689-1.926-.306-.546-.706-.94-1-1.411-.266-.427-.324-.824-.31-.972.043-.443.749.673.911 1.159.187.557.514 1.13.721 1.735.179.524.498.897.705 1.323.209.43.383.867.574 1.338.179.442-.043.94-.088 1.631-.034.525-.22.985-.396 1.486-.218.616-.265 1.234-.47 1.735-.1.242-.178.5-.119.75.113.484.851.398 1.174.34.226-.041.179-.557.193-.895.003-.059.074.363.001.745-.15.786-1.277.738-1.732.796-.173.022-.194.174-.151.249.096.165.658.134 1.173.075.148-.016.021-.174-.097-.234-.434-.22-.941-.295-1.485-.413-.505-.109-.897-.586-1.163-1.057-.265-.471-.323-1.087-.368-2.129-.032-.759-.191-1.165-.308-1.268-.443-.393-.53.894-.618 1.804-.015.161-.174.122-.278.063-.444-.251-.662-.822-.971-1.234-.344-.46-.368-.853-.5-1.044-.045-.22.13-.514.366-1.712.03-.875.03-2.505-.058-4.273"/><path stroke="#121212" stroke-linecap="round" stroke-width="3" d="M348.782 271.374c0 .058-.029.205-.073 1.094-.015.773-.015 2.2.014 2.993s.088.909.236 1.118M369.865 244.116c.029.382.088.851.176 1.336.099.549.177 1.713.25 2.646.078.985.103 2.97.03 4.279-.043.765-.161 1.235-.206 1.852-.036.505-.19.97-.279 1.441-.093.495-.352.999-.661 1.427-.304.422-.543.867-.808 1.308a4 4 0 0 0-.162.353c-.045.118-.074.235-.28.619M369.953 258.407c0-.205.117-.674.279-1.145.175-.507.309-1.029.353-2.086.026-.599.162-1.526.235-2.412.098-1.174.192-2.175.265-2.852a27 27 0 0 1 .177-2.279c.015-.192.015-.396.103-.694M371.718 244.205c.44.175.792.527 1.057.968.266.441.266 1.93.119 2.911-.07.474-.206.999-.367 1.5-.15.466-.25.998-.441 1.499-.172.451-.162.941-.265 1.426-.015.133-.015.279-.03.412s-.043.249-.25.634M374.364 244.557c.087.176.439.703.719 1.307.236.509.456.955.75 1.426.279.447.588.941.824 1.412.235.471.47.998.676 1.499.183.443.265.999.383 1.573.106.518.235 1.044.338 1.573.147.753.103 1.235.176 1.866-.043 1.281-.19 1.634-.249 1.869-.029.118-.059.235-.088.531M378.686 246.322c.117.555.411 1.672.602 2.203.164.454.221 1.29.295 2.248.044.339.074 1.973.059 4.281-.014.823-.043.939-.073 1.148M379.833 250.732c.058 0 .147.117.249.352.045.118.074.234.089.833.015.598.015 1.675.015 2.52"/><path stroke="#121212" stroke-linecap="round" stroke-width="3" d="M380.098 252.673c.088.993.03 2.643-.044 3.525-.25.473-.367.942-.544 1.413-.03.118-.03.235-.206.619"/><path stroke="#121212" stroke-linecap="round" stroke-width="3" d="M379.745 255.849c.058 0 .175.087.308.35.37.737-.248 1.294-.41 1.78-.183.547-.309 1.014-.573 1.411-.271.408-.412.926-.662 1.397-.264.497-.66.824-1.044 1.147-.353.353-.647.589-.867.721-.103.073-.191.161-.369.251M380.627 248.703l.088.265M379.833 248.968c.323.293.616.762.969 1.262.411.582.647 1.088 1.029 1.632.327.466.647.956.986 1.354.346.407.689.925.926 1.396.25.496.471.94.574 1.644-.014 1.65-.044 2.003-.014 2.106 0-.012-.029-.158-.059-.484M383.714 250.468c.382.41.793.88 1.146 1.453.358.581.94 1.482 1.396 2.41.367.745.456 1.31.59 1.81.175.655.513 1.087.588 1.457.087.428-.718-.776-1.071-1.13-.165-.164.349.672.688 1.29.269.491.543.97.75 1.47.272.657.471 1.176.735 1.735.247.523.207 1.029.368 1.5.165.483.161 1.028.279 1.499.147.472.382.941.544 1.412.044.118.102.235.251.531M391.213 262.994c.322.175.615.82.808 1.424.162.749.191 1.339.235 1.763.015.307.015.802.015 1.224M391.213 291.045c.292.528.703 1.174 1.071 1.85.36.661.779 1.03 1.103 1.311.046.04.089-.13.089-.248.003-.549-.323-1.117-.338-1.515-.015-.408.807.453 1.175.806.456.383.78.707.971.853.103.06.219.089.604.207"/><path stroke="#121212" stroke-linecap="round" stroke-width="3" d="M390.683 287.87c.029.734.088 1.261.249 1.777.166.529.221 1.13.354 1.676.145.594.396 1.423.558 2.087.124.508.367 1.014.529 1.529.177.561.514 1.014.867 1.485.343.458.617.883 1.044 1.163.406.267.866.455 1.264.749.103.06.22.089.338.133s.235.103.531.163M388 293c.247.065.681.415 1.022.79.327.359.651.703.869 1.066.272.453.712.911.93 1.308.207.376.526.702.806 1.055.136.17.218.352.249.527.067.381-.371.769-.419 1.504-.028.437.232.694.325.75.001-.449-.061-.997-.015-1.458.046-.136.138-.071.233.062"/><path stroke="#121212" stroke-linecap="round" d="M383.979 286.811c0 .467-.058 1.468-.235 1.968-.206.586-.176 1.088-.22 2.657-.02.7-.132 1.165-.148 2.954-.006.774.132 1.299.264 1.77.138.489.367 1.115.53 1.69.159.566.397 1.014.588 1.486.183.453.366.882.558 1.323.208.476.456.94.706 1.295.282.4.485-.909.705-1.482.161-.337.28-.634.339-.868.03-.119.059-.235.089-.443"/><path stroke="#121212" stroke-linecap="round" d="M387.067 299.073c-.147.116-.381.585-.602 1.13-.053.13-.074.249-.147.266-.647.144-.867-1.481-.957-2.012-.029-.118-.087-.235-.131-.353s-.074-.235-.104-.619M386.89 296.073c.498.554 1.029 1.733 1.293 2.292.275.581.411 1.205.574 1.691.183.547.308 1.014.339 1.368.069.805-1.146-1.817-1.455-2.833-.203-.667-.133-1.163-.163-1.474-.063-.665.82 1.887 1.088 2.836.155.55.177 1.32.264 1.941.072.509.177.999.163 1.191-.049.642-.309-1.158-.426-1.717-.124-.587-.235-1.233-.353-1.633-.13-.439-.001 1.098.073 1.805.103.997.132 1.354.089 1.37-1.222.461-.838-2.539-.825-4.433.005-.677.309-1.049.499-1.27.084-.097.22-.075.338-.031.556.205.852 1.507 1.045 2.364.052.23.015.584-.014.706-.1.417-.324-1.957-.265-3.559.02-.557.174-.584.307-.409.748.981.517 2.375.487 3.522-.008.334-.087.158-.117-.077-.03-.527.057-.972.219-1.251.074-.133.132-.25.28-.634M393.305 278.454c0 .183-.015.43-.027.687a92 92 0 0 0-.046 1.176c-.006.2-.081.32-.092.443-.012.122-.135.223-.223.327-.093.11-.158.242-.2.361-.051.144-.219.212-.334.281-.118.071-.246.153-.369.231a1 1 0 0 1-.389.119c-.127.017-.249.035-.717.039-.197.001-.301-.111-.413-.185a1.2 1.2 0 0 1-.277-.276c-.083-.108-.111-.242-.161-.366-.049-.12-.104-.245-.147-.369a.7.7 0 0 1-.05-.184c-.007-.031-.022-.061-.038-.139M389.799 280.507c0-.069-.015-.222-.065-.346-.048-.118-.051-.55-.028-.849.016-.065.031-.127.043-.257.004-.1.004-.267.027-.486M395.381 280.553c.046.407-.015.774-.157 1.156-.033.089-.065.18-.21.539-.146.359-.404.983-.564 1.404-.233.611-.284.952-.307 1.171-.009.089-.008.135.221-.42.228-.555.685-1.712.931-2.327.247-.615.27-.653.297-.639.089.048.089.253.039.601-.035.251-.148.644-.355 1.21a25 25 0 0 1-.65 1.57c-.13.281-.069.098.118-.297.188-.394.5-.996.699-1.363.199-.366.275-.481.405-.73.327-.623.509-1.052.509-1.033.001.049-.03.178-.084.363-.053.184-.137.42-.431 1.056-.295.635-.797 1.663-1.071 2.234-.407.849-.42 1.164-.447 1.225-.013.03-.019.061-.057-.193a18 18 0 0 1-.142-1.306 8 8 0 0 1 .059-1.709 43 43 0 0 1 .388-2.252c.102-.529.109-.567.113-.548s.004.094-.057.354-.183.702-.367 1.196a16 16 0 0 1-.603 1.377c-.256.512-.391.69-.426.747-.017.029-.042.05-.054-.075s-.011-.399.118-1.001.388-1.522.457-1.761c.067-.232-.278.887-.435 1.225-.257.55-.297.717-.328.725-.1-.384-.07-.676-.027-.841a.6.6 0 0 1 .065-.159"/><path stroke="#121212" stroke-linecap="round" d="M392.059 283.344c.085-.238.253-.605.384-.949.064-.166.085-.342.127-.5.04-.146.112-.342.158-.511.048-.175.085-.361.115-.488.041-.167.093-.335.131-.462.041-.137.061-.28.081-.469.014-.136.042-.303.081-.457.039-.158.031-.33.053-.488.008-.043.016-.096.02-.184.004-.089.004-.211.004-.336"/><path stroke="#121212" stroke-linecap="round" d="M393.259 278.731c0 .306.015.568.019.986.002.206-.034.358-.084.512-.049.151-.096.323-.162.462-.056.118-.119.276-.23.457-.099.161-.212.296-.304.435-.082.123-.185.238-.288.361a1.5 1.5 0 0 1-.396.342.9.9 0 0 1-.354.116c-.133.013-.482.042-.878.05-.123.002-.084.023-.049.034.127.043.447.15.768.193.143.019.266.034.392.057q.099.01.205.008"/><path stroke="#121212" stroke-linecap="round" d="M392.152 282.698c-.031.077-.336.23-.668.281-.274.042-.753-.011-1.057-.111-.204-.067-.382-.162-.367-.151.336.255.531.327.565.316.184-.061-.287-.457-.453-.695-.14-.202-.219-.324-.323-.466-.111-.152-.211-.388-.3-.519-.093-.139-.142-.292-.192-.43-.055-.15-.088-.369-.116-.516-.023-.129-.004.314.012.468.034.344.184.892.227 1.084.042.194.08.362.13.493.043.161.089.261.119.334.016.035.031.065.093.166M389.822 283.021c-.138-.123-.23-.261-.353-.437-.275-.396-.493-.862-.52-1.065-.022-.171-.011-.304-.026-.316-.3-.233.007 1.039.026 1.245.014.144.043.311.035.431-.016.253-.33-.609-.45-.926-.019-.047-.034-.077-.042-.119-.008-.043-.008-.096-.008-.151M388.438 281.568a5 5 0 0 1-.261 1.13 1.5 1.5 0 0 1-.285.423c-.11.118-.207.276-.311.396-.186.213-.411.465-.542.607-.106.116-.169.25-.242.373-.075.125-.196.192-.323.284a2 2 0 0 0-.181.189c-.023.034-.046.08-.116.15M384.269 255.371c0 .041 0 .143-.01.307-.01.083-.03.164-.041.806-.01.642-.01 1.841-.072 3.139M359.743 265.354c-.021.184-.103.676-.185 1.057-.042.194-.062 1.743-.092 3.849-.01.663-.092.5-.123.314-.114-.672-.093-1.861-.206-2.63-.013-.088-.051-.164-.052-.135-.006.639.349 1.487.411 1.868.015.094.041.194.092.186.418-.071.543-1.032.78-1.55.052-.082.113-.163.154-.246a1 1 0 0 0 .083-.309M357.277 265.724c-.082.142-.163.635-.195 1.854-.008.344-.051 1.097-.082 2.043-.008.276-.091.132-.153.018-.207-.38-.41-.79-.627-1.345-.149-.382-.216-.638-.206-.731.583.805 1.16 2.164 1.263 2.535.021.083.041.164.062.31M355.231 271.429q.011-.012.049-.04c.014-.009.035-.006.052.006a.13.13 0 0 1 .042.055c.01.021.014.04.018.071M359.249 270.626c.053.06.183.289.237.46a.5.5 0 0 1 .014.085c.002.028.002.063.013.132M355.736 271.923c.031.038.061.099.092.161.038.076.084.168.107.229.027.072.092.123.13.174.039.053.065.121.096.182.03.061.069.115.103.172.035.059.069.115.086.157.02.047-.074-.095-.16-.183a1 1 0 0 0-.178-.146c-.063-.038-.142-.087-.266-.156l-.268-.15c-.083-.045-.189-.114-.275-.164-.066-.038-.121-.092-.205-.157-.058-.05-.126-.103-.188-.165-.011-.015-.019-.03-.038-.046M355.38 276.94q-.002.046-.013.229c-.005.096-.017.211-.023.352-.004.093-.017.184-.023.398-.003.108-.017.199-.019.375-.001.089.025.157.034.22.029.187.033.503.056.573.02.059.03.122.046.183l.046.184q.022.094.059.199c.031.088.071.153.099.214.028.059.044.123.073.184.031.066.078.115.113.172.034.058.073.111.126.17.05.056.092.106.14.15l.16.143c.07.063.125.1.182.132s.123.037.203.058a1 1 0 0 1 .096.034c.015.006.03.01.057.014"/><path stroke="#121212" stroke-linecap="round" d="M353.899 277.962c.046.121.152.392.281.715.051.129.075.199.111.289.015.036.018.055.164.482.145.426.433 1.26.585 1.697.153.437.16.452.157.454s-.019-.009-.135-.475c-.116-.467-.332-1.387-.451-1.918-.118-.531-.134-.645-.141-.732a.5.5 0 0 1-.001-.16c.008-.016.023.011.078.272.055.262.15.759.218 1.37s.105 1.324-.047 1.32c-.153-.004-.498-.747-.731-1.279a15 15 0 0 1-.4-.993c-.059-.162-.063-.177-.002.031.06.208.185.64.25.874.064.234.064.256.038.236s-.08-.085-.247-.368a49 49 0 0 1-.596-1.051c-.158-.284-.168-.324-.175-.36-.007-.033.094.156.304.544.1.185.202.338.268.448.101.169.158.31.215.443.026.059.05.096.204.43s.438.963.599 1.312c.162.348.192.398.231.472a4.5 4.5 0 0 0 .348.601c.031.045.061.094.084.053s.038-.174.046-.477.008-.773.01-1.024c.002-.306.017-.367.072-.495q.018-.044.031-.042c.01.002.021.021.088.186s.187.475.261.654c.117.283.189.352.227.39.035.035-.057-.285-.139-.634-.035-.152-.033-.255.022-.249.441.048.477.401.557.439.071.034.46.061.695.081.021.001.043.007.04-.004a1.4 1.4 0 0 0-.232-.168 14 14 0 0 1-.384-.288"/><path stroke="#121212" stroke-linecap="round" d="M356.035 280.797c.041.004.133.019.206.033.076.014.191.025.275.036.077.01.169.019.232.035.088.021.189.019.317.025.091.004.182.017.253.032.089.019.205.019.613.017.154 0 .212-.055.34-.116.172-.082.228-.13.299-.167.069-.036.15-.078.212-.124.073-.046.134-.092.193-.128.017-.01.036-.021.079-.056M359.617 279.225c.015.098.022.312.019.572-.003.201-.027.338-.04.42-.002.033-.002.082-.023.119s-.063.059-.106.083"/><path stroke="#121212" stroke-linecap="round" d="M358.583 280.614c.023-.023.076-.069.128-.115.054-.048.109-.099.167-.161a.5.5 0 0 0 .097-.183c.023-.069.029-.146.044-.213.021-.089.031-.151.046-.212.016-.062.042-.13.056-.222a.35.35 0 0 0-.032-.226c-.046-.061-.111-.111-.157-.172-.049-.065-.031-.187-.044-.256-.018-.089-.079-.142-.115-.226-.072-.165.017-.256.038-.322.02-.064.032-.141.038-.292a3 3 0 0 0-.013-.465c-.015-.077-.023-.168-.035-.251a.1.1 0 0 0-.023-.048M351.656 277.855q.005-.007.088.038c.095.055.088.18.114.279.045.17.043.37.052.523.007.126.032.274.049.393.016.107.029.199.052.306.037.168.046.414.067.538.04.249.032.344.04.538.015.141.026.292.035.442.003.035.009.058.014.099M364.982 288.927c.197.09.572.385.695.502.112.107.183.432.249.609.054.144.229.52.372.828.051.112.079.216.108.262.006.01-.034-.05-.217-.447a94 94 0 0 1-.704-1.573c-.216-.494-.253-.617-.273-.68-.006-.017.03-.006.059.011.059.035.259.287.571.717a3 3 0 0 1 .31.554c.077.168.134.32.191.508.057.187.113.406.144.53l.044.17M364.471 292.007c.08.261.125.42.179.567.065.178.116.272.187.414.058.117.094.238.275.612.076.156.204.391.309.639.116.27.207.4.403.793.205.414.202.571.278.789.058.165.156.315.196.446.023.075.062.17.105.292.049.142.15.41.246.733.078.262.125.382.157.504.034.134.059.269.107.417.011.033.009.062-.002.057-.126-.058-.159-.238-.235-.371-.068-.117-.145-.309-.225-.482-.084-.184-.181-.281-.258-.358-.202-.203-.53-.558-.561-.689a.8.8 0 0 0-.034-.224c-.009-.026-.015-.048-.037-.088M364.385 295.384c0 .196-.043.807-.109 1.219-.031.196-.239.855-.48 1.736-.139.507-.242.743-.357 1.142-.192.666-.345.871-.411 1.079-.096.304-.251.579-.431 1.006-.134.315-.224.743-.324 1.008-.096.256-.327.698-.421.979a3 3 0 0 1-.186.339c-.038.071-.071.147-.17.324M361.496 304.282c.12-.076.317-.317.508-.693.341-.672.444-.882.602-1.15.301-.716.466-1.254.52-1.39a.8.8 0 0 0 .044-.182M361.66 303.625c.044-.207.109-.448.246-1.195.049-.265.038-.583.136-1.313.098-.731.282-1.869.388-2.493.146-.86.27-1.094.341-1.28.088-.232.104-.438.164-.842.016-.099.027-.164.033-.22.005-.055.005-.098.038-.241"/><path stroke="#121212" stroke-linecap="round" d="M363.367 295.647c.033.336.012 1.147-.01 1.454-.022.301-.077.493-.099.712-.052.521-.415 1.334-.525 1.799-.102.431-.197.641-.285 1.002-.065.27-.153.482-.328.87-.036.082-.033.126-.049.165-.034.079-.202-.318-.431-1.272-.127-.529-.208-1.161-.274-1.533-.123-.685-.242-1.007-.307-1.259a4 4 0 0 1-.11-.585c-.022-.126-.065-.31-.11-.565"/><path stroke="#121212" stroke-linecap="round" d="M360.708 296.435c-.011.509-.011 1.564.06 1.745.079.2.202.355.339.471.032.027.082.016.115-.005.184-.121.229-.546.405-1.06.073-.214.142-.341.186-.352.186.566.317 1.355.323 1.853-.016.052-.048-.035-.082-.124M359.559 293.48c0 .458-.13 1.265-.257 1.674-.07.227-.148.448-.24.727-.111.33-.269.586-.405.847-.54 1.035-.794 1.534-.963 1.747-.175.221-.258.377-.449.613-.16.197-.214.345-.209.367.009.042.146-.107.418-.423.273-.315.706-.857.957-1.185.429-.562.556-.777.677-1.006.048-.092.066-.198.099-.312.017-.059.011-.126-.06-.051-.246.262-.627.818-1.075 1.31-.388.426-.583.66-.676.699-.078.032.08-.733.364-1.771.257-.938.385-1.384.44-1.725l.033-.186c.019-.099.141.388.273 1.095.121.65-.415-1.555-.475-1.687-.017 0-.038.043-.05.109-.011.065-.011.152-.011.241M348.986 294.723c.051.013.162.023.26.03.171.012.413.016.638.023.207.006.602.002.821 0a3 3 0 0 0 .536-.037c.1-.015.256-.044.74-.136a56 56 0 0 0 1.893-.386c.599-.138.967-.253 1.195-.319s.306-.079.436-.119c.312-.094.544-.192.652-.236.202-.082.277-.091.36-.114.052-.015.12-.051-.308.027a96 96 0 0 0-1.866.372c-.575.12-.668.148-.735.162-.247.051-.581.106-.772.144-.16.031-.329.046-.38.051-.044.004.214-.051.71-.196.385-.114.583-.24.673-.291.184-.104.332-.181.585-.314.231-.122.666-.363.909-.505.352-.204.401-.303.503-.401.141-.135-.352.306-.496.38-.122.063-.218.135-.267.16-.018.01-.034-.016-.039-.043-.028-.162.207-.568.31-.77l.014-.028c-.023.045-.129.166-.321.328-.392.246-.577.339-.68.409a1 1 0 0 0-.084.07M355.33 289.168c0 .046-.018.194-.06.327-.045.143-.106.202-.199.32-.078.099-.185.178-.523.403-.123.082-.2.114-.27.16-.104.069-.195.093-.271.123l-.065.019a1 1 0 0 0-.086.039"/><path fill="#f8f8f6" d="M380.102 292.5c-1.261.662-2.571 1.003-3.102 0-.548-1.035 0-3 0-3s2.638-1.518 4.5-2c2.836-.733 4.739-.977 7.5 0 2.875 1.017 4.086 2.125 6 4.5 2.302 2.856 4 7.5 4 7.5s-2.633 1.592-4.5 2.5c-1.791.871-4.5 2.5-4.5 2.5s-1.5-2-3-4.5c-.603-1.005-.5-3.5-.5-3.5s-3.634 3.203-5 1.5c-.567-.707-.197-1.599.479-2.433-1.484 1.042-3.047 1.729-3.479.433-.5-1.5 1.602-3.5 1.602-3.5"/><path stroke="#121212" stroke-linecap="round" d="M385.842 297.563c0 .302.185 1.096.583 1.74.396.642 1.121 1.157 1.463 1.627.351.482.713 1.099.924 1.508.282.55.467 1.017.678 1.451.188.479.328.854.41 1.041.035.094.058.186.082.282M377.492 289.914c-.093 0-.233.047-.385.163-.304.233-.247.91-.375 1.508-.053.246-.082.55-.036.853.032.214.327.259.571.33.643.184 1.041-.21 1.404-.467.333-.235.69-.444 1.065-.573.42-.145.864-.433 1.624-.736.5-.201.878-.282 1.276-.364.117-.012.256-.012.374-.023.118-.012.21-.035.516-.059"/><path stroke="#121212" stroke-linecap="round" d="M380.299 291.458c-.351.303-.723.723-1.064 1.11-.446.507-.549 1.109-.679 1.775-.162.831.081 1.442.279 1.524.471.194 1.064-.01 1.474-.198.448-.205.876-.42 1.263-.771.426-.387.83-.632 1.541-1.04.778-.361 1.348-.598 1.535-.645.094-.024.186-.047.422-.141"/><path stroke="#121212" stroke-linecap="round" d="M381.562 294.967c-.281 1.329-.188 2.36.08 2.665.328.372.877.469 1.53.551 1.511.19 2.128-.221 2.831-.467.423-.222.68-.456.832-.631.082-.083.175-.152.41-.364"/></svg>