<svg width="71" height="67" viewBox="0 0 71 67" fill="none" xmlns="http://www.w3.org/2000/svg">
    <path
        d="M1.00024 62.5966C1.4107 62.6822 5.27117 62.856 7.95333 62.7483C10.0786 62.6631 11.4883 62.5966 13.0248 62.489C15.0266 62.3487 20.4122 62.3372 23.8764 62.1868C26.2547 62.0835 27.8855 61.8626 29.3026 61.7971C30.6088 61.7367 31.8946 61.6032 38.9485 61.4515C44.7615 61.3264 55.9738 61.4294 61.8945 61.4508C68.1072 61.515 68.6415 61.6019 69.1413 61.6667C69.4076 61.6888 69.6995 61.6888 70.0002 61.6888"
        stroke="#121212" stroke-width="2" stroke-linecap="round" />
    <path
        d="M17.4541 62.3373C17.4541 62.1661 17.4541 58.9965 17.4833 54.1993C17.5029 50.9761 17.7478 48.637 17.8664 47.3421C17.9751 46.1544 18.2202 45.5232 18.3087 43.6369C18.3871 41.9654 18.3388 38.8404 18.3096 37.1454C18.2655 34.5871 18.0451 32.8618 17.9557 31.692C17.8075 29.7519 17.6912 27.4123 17.6019 25.9442C17.4541 24.2583 17.3958 22.6566 17.3073 19.1842C17.2772 16.097 17.2772 10.3194 17.2772 4.3667"
        stroke="#121212" stroke-width="2" stroke-linecap="round" />
    <path
        d="M17.2772 4.36646C19.2057 4.36646 23.2289 4.19527 24.5841 3.97804C26.3483 3.69527 27.652 3.37305 28.6843 3.24336C30.3755 3.0309 31.6611 2.37964 32.8128 2.16241C33.8393 1.96882 35.1394 1.7312 36.6733 1.60021C38.8802 1.41176 40.7408 1.12426 43.1814 1.01662C44.5004 0.99457 46.7774 0.99457 48.0671 1.01597C49.3569 1.03737 49.5904 1.08016 50.3618 1.25394"
        stroke="#121212" stroke-width="2" stroke-linecap="round" />
    <path d="M51.7772 3.84766H58.3234" stroke="#121212" stroke-width="2" stroke-linecap="round" />
    <path
        d="M25.2282 60.3623C25.5983 60.3623 26.2056 60.4113 26.747 60.5105C27.2885 60.6097 27.8279 60.6595 28.4534 60.7952C29.0181 60.9176 29.5515 61.0312 30.0929 61.1668C30.6347 61.3025 31.1737 61.4028 31.7152 61.489C32.2863 61.5799 32.796 61.7491 33.3374 61.8483C33.8788 61.9475 35.5558 61.9973 36.8344 61.874C37.7265 61.7879 38.271 61.7253 39.8223 61.6878C40.6082 61.6688 41.2114 61.5767 42.864 61.6127C43.1852 61.6197 43.1743 61.7967 43.1743 61.6268C43.1743 61.457 43.1743 60.991 43.1074 60.751C43.0404 60.5109 42.9066 60.5109 42.7707 60.5354C41.9999 60.6746 41.114 60.6841 39.3052 60.7212C37.6308 60.7556 34.4182 60.7339 32.6966 60.7584C30.975 60.7829 30.8412 60.832 30.7555 60.9063C30.6698 60.9806 30.6364 61.0787 30.6359 61.1783C30.6354 61.2779 30.6688 61.376 30.753 61.4388C31.1293 61.7197 31.7821 61.7491 32.576 61.7866C33.2069 61.8165 33.676 61.8732 33.6279 61.9104C32.7085 62.6198 31.7537 61.7996 31.2123 61.7004C30.5818 61.5849 29.8273 61.5276 29.185 61.4526C28.5189 61.3747 28.0023 61.2051 27.4608 61.1058C26.9194 61.0066 26.38 60.9078 25.8386 60.7591C25.3227 60.6175 24.557 60.5852 23.9122 60.499C23.7763 60.4619 23.6425 60.4128 23.5066 60.3875C23.3707 60.3623 23.2369 60.3623 22.8962 60.2136"
        stroke="#F8F8F6" stroke-width="2" stroke-linecap="round" />
    <path
        d="M43.1743 58.1322C43.1743 58.3782 43.2412 58.923 43.3092 59.5666C43.4785 60.1612 43.445 60.7572 43.3943 61.0898C43.3771 61.3243 43.3771 61.6922 43.3771 62.0712"
        stroke="#F8F8F6" stroke-width="2" stroke-linecap="round" />
    <path
        d="M48.8521 58.8013C48.8521 58.9982 48.9859 59.4434 49.0381 60.8273C49.061 61.4323 48.8521 61.8707 48.8521 62.0829C48.8521 62.8618 48.6838 60.909 48.6493 59.6723C48.6828 60.0387 48.7507 60.4839 48.8348 60.9789C48.8521 61.1766 48.8521 61.4709 48.8521 61.7741"
        stroke="#F8F8F6" stroke-width="2" stroke-linecap="round" />
    <path d="M19.157 60.968V5.528L45.157 2V65L19.157 60.968Z" fill="#F8F8F6" stroke="#F8F8F6" />
    <path d="M46.8567 65V2H50.8567V63.992L46.8567 65Z" fill="#F8F8F6" stroke="#F8F8F6" />
    <path d="M58.1309 61H51.5854V5H58.1309C58.1309 5 61.4036 28.5 58.1309 33C54.8582 37.5 58.1309 61 58.1309 61Z"
        fill="#777777" />
    <path
        d="M39.2157 34.0653C39.2157 33.9797 39.4492 33.8929 39.8907 33.8922C40.1064 33.8919 40.2737 34.0628 40.2764 34.1931C40.279 34.3234 40.1039 34.4518 39.926 34.4538C39.7482 34.4557 39.5731 34.3273 39.4537 34.3468C39.3342 34.3662 39.2759 34.5374 39.3926 34.8435"
        stroke="#121212" stroke-linecap="round" />
    <path
        d="M39.5296 34.676C39.272 34.9551 39.1603 35.07 39.02 35.1933C38.824 35.3656 38.6 35.6038 38.4599 35.7556C38.4042 35.816 38.3975 35.8506 38.6137 35.8673C39.7694 35.9569 40.0213 35.8594 40.2568 35.8228C40.3491 35.8085 40.3368 35.713 40.3202 35.6549C40.2618 35.4512 40.1128 35.3013 40.0121 35.1246C39.9446 34.964 39.8885 34.8654 39.8606 34.7998C39.8437 34.7668 39.8215 34.7342 39.7987 34.7007"
        stroke="#121212" stroke-linecap="round" />
    <path
        d="M22.1965 18.6734C21.9214 18.8106 21.5392 19.4794 21.4718 20.1307C21.4381 20.4561 21.8815 20.7307 22.2783 20.9442C22.986 21.3251 23.8156 21.2981 24.3461 21.2318C25.3157 21.1106 25.045 20.0608 25.0138 19.5984C24.4698 19.0287 23.8195 18.7235 23.329 18.6582C23.0928 18.6448 22.8825 18.6715 22.4977 18.8051"
        stroke="#121212" stroke-linecap="round" />
    <path
        d="M29.0683 19.1621C28.7933 19.2994 28.5028 20.0873 28.523 20.914C28.5313 21.2526 28.7842 21.4113 29.0596 21.5427C29.647 21.8231 30.5178 21.8929 31.3069 21.8597C31.6404 21.8457 31.8015 21.6583 31.9226 21.5103C32.0438 21.3624 32.1107 21.2138 32.1682 20.9102C32.2256 20.6066 32.2715 20.1525 32.0175 19.553"
        stroke="#121212" stroke-linecap="round" />
    <path
        d="M35.6393 19.519C35.6316 19.5947 35.5818 20.0878 35.6078 20.8572C35.6252 21.3724 36.2113 21.6245 36.53 21.8338C36.7052 21.9212 36.9078 21.9702 37.0954 21.9429C37.283 21.9157 37.4494 21.8106 37.6324 21.5876"
        stroke="#121212" stroke-linecap="round" />
    <path d="M34.7758 20.2792L37.4353 20.4237" stroke="#121212" stroke-linecap="round" />
    <path
        d="M57.9695 3.71814C57.9695 5.47412 58.0863 9.11835 58.1756 10.3491C58.2374 11.2004 58.4401 12.0571 58.5295 14.9465C58.5485 15.5615 58.617 15.7324 58.6471 17.9177C58.6772 20.1029 58.6772 24.297 58.648 26.5432C58.612 29.3102 58.3835 30.0837 58.2942 30.8845C58.1704 31.9941 57.9695 32.8513 57.8227 33.951C57.6544 35.2109 57.7342 36.2245 57.6457 38.2606C57.5666 40.0819 57.6157 43.5064 57.5865 45.3772C57.5391 48.4117 57.322 50.3151 57.2326 52.1495C57.0953 54.9686 57.2017 59.3076 57.4378 60.1292C57.4971 60.3464 57.5555 60.5604 57.6148 60.7776C57.674 60.9949 57.7324 61.2089 57.7926 61.6887"
        stroke="#121212" stroke-width="2" stroke-linecap="round" />
    <path
        d="M50.8926 1.38379C51.1261 2.7533 51.3048 3.62999 51.3933 5.70824C51.4744 7.6145 51.4233 11.2531 51.4525 13.2126C51.4817 15.1722 51.5401 15.3434 51.5702 17.8924C51.6002 20.4415 51.6002 25.3631 51.5711 27.9841C51.54 30.7769 51.4233 32.579 51.3941 35.1286C51.3816 36.225 51.2464 38.7962 51.2756 42.5559C51.2862 43.919 51.3632 44.1757 51.3933 46.405C51.4233 48.6343 51.4233 52.8285 51.4525 55.0961C51.4817 57.3636 51.5401 57.5776 51.5702 58.822C51.6551 62.3341 51.3083 64.8 50.7493 65.0587C49.7849 65.505 48.8332 65.7506 47.83 65.9464C46.6313 66.1804 45.2983 65.582 44.1146 65.4069C42.5851 65.1807 41.0486 65.0191 39.7809 64.8019C38.4764 64.5784 37.0395 64.5004 35.418 64.3694C34.1622 64.268 32.5633 64.0231 30.8764 63.765C29.4167 63.5417 28.2535 63.3332 26.7187 63.2022C25.4368 63.0928 24.4178 62.8559 23.4438 62.6193C22.3882 62.3627 21.2933 62.3813 20.2884 62.2295C19.3436 62.1647 18.6359 62.035 18.1653 61.9488C17.9283 61.9053 17.6947 61.8625 17.4541 61.8184"
        stroke="#121212" stroke-width="2" stroke-linecap="round" />
    <path
        d="M45.5848 2.16174C45.5848 2.7609 45.6432 3.24075 45.7317 8.2506C45.8171 13.0889 45.7618 22.5902 45.791 27.613C45.8201 32.6358 45.8785 32.8926 45.9086 37.3902C45.9387 41.8878 45.9387 50.6184 45.9679 55.2016C45.9982 59.9563 46.1156 61.2878 46.0864 63.1242C45.9988 63.9763 45.8803 64.3238 45.7918 64.7116C45.7618 64.9282 45.7618 65.185 45.7618 65.4495"
        stroke="#121212" stroke-width="2" stroke-linecap="round" />
</svg>
