<svg xmlns="http://www.w3.org/2000/svg" width="317" height="181" fill="none" viewBox="0 0 317 181"><path fill="#121212" d="m168.794 50.648-.603 8.456-1.207-13.891s3.324-4.197 3.017-7.248c-.275-2.737-3.62-6.04-3.62-6.04L164.57 12.6l-9.052-5.436-13.879 1.812s3.328-3.254 6.035-4.228c2.67-.96 4.417-.884 7.241-.604 4.007.398 6.415 1.23 9.655 3.624 3.527 2.605 4.494 5.232 6.638 9.06 2.119 3.782 4.224 10.267 4.224 10.267V43.4l-1.81-3.624-2.414 18.119z"/><path fill="#bbb" d="m186.294 106.213-3.62 25.366 44.655-.604s-10.678-10.236-18.707-15.099c-8.127-4.923-22.328-9.663-22.328-9.663"/><path fill="#121212" d="m228.536 81.45-15.69 4.228s-.148 4.37-1.207 7.248c-.929 2.523-3.017 6.04-3.017 6.04l-7.241-13.288s-3.175-9.77-7.845-13.891c-5.424-4.784-17.5-6.04-17.5-6.04l-4.828 6.04v3.624l1.81 6.04h-20.517l-34.396 1.811-13.88-3.624v9.06l3.018 22.346 18.706 21.139h26.552l29.569-2.416 4.224-25.97 3.018 8.455 9.051 13.287s5.072 8.628 10.259 8.456c2.234-.074 5.431-1.812 5.431-1.812s7.062-8.597 9.655-15.099c3.435-8.613 1.709-14.373 3.017-23.555.673-4.722 1.811-12.079 1.811-12.079"/><path fill="#f8f8f6" d="m117.501 83.866 10.862-11.475h2.414l2.414 2.617 2.414-3.221 1.81 1.208 1.207 1.208-7.845 12.683 2.414-3.02h3.017l-4.828 7.852 4.828-.604 7.845-1.812 1.207 2.416-7.242 4.227-8.448 2.416-2.414 6.644-5.431-.604-7.241-3.624V93.53z"/><path fill="#121212" d="M106.639 124.332c-.321-5.312 3.017-13.288 3.017-13.288s5.795 1.963 9.655 2.416c3.511.412 9.052 0 9.052 0s-.475 5.932-1.207 9.664c-.704 3.593-2.413 9.059-2.413 9.059h-16.294s-1.62-4.71-1.81-7.851"/><path stroke="#f8f8f6" stroke-linecap="round" d="M153.242 134.729c-.075-.304-.153-.992.038-1.586.194-.606.917-.708 1.127-.956.095-.112.021-.286-.131-.364-.749-.385-1.451.493-2.121.972-.155.111-.211.286-.307.307-.095.021-.209-.092-.192-.246.088-.78.82-.958.993-1.016.561-.188-.934.899-1.107.957-.565.19 1.391-.745 2.042-1.013.606-.25 1.337-.154 3.181-.249 3.726-.193 6.075-.02 5.353.113-2.754.506-3.632.746-4.646.881-.397.052-1.043.019-1.28.019-.301 0 4.466-.342 7.139-.554 1.829-.146 4.578-.249 6.134-.345 1.494-.091 2.813-.057 3.65-.114 1.138-.078 2.031-.058 3.624-.115 3.861-.139 6.589.018 6.894.113.646.202 1.223.668 1.835 1.014.15.084.305.153.307.211.056 1.409-4.009.059-5.041.001-.809-.046-1.645-.172-2.943-.325-.309-.037-.498-.076-3.037-.096a883 883 0 0 0-10.031 0c-2.609.018-2.799.056-3.047.076s-.552.019 2.32 0 8.927-.056 12.122-.095c3.348-.04 4.639-.115 6.454-.096 1.26.013 1.939.286 2.609.42.924.186 1.624.325 2.143.479 1.367.404-3.875-.076-5.042-.134-.288-.014-.553-.056-4.342-.095-3.788-.038-11.093-.076-14.932-.077-3.838 0-3.99.037-4.73.057s-2.065.02-3.43.02M154.963 132.318h3.67M147.623 133.811c.075 0 .228-.152.438-.457.096-.154.172-.305.249-.459l.345-.691"/><path stroke="#f8f8f6" stroke-linecap="round" d="M148.655 132.204c-.152.19-.762.496-1.374.707-.154.057-.305.133-.497.172-.191.039-.418.039-.882.269M48.723 131.837c-.045 0-.113.089-.18.27-.129.34.202.724.439 1.03.245.317.35.601.509.703.081.052.202.034.294-.011.186-.091.227-.451.227-.745 0-.019.09.178.326.325.33.204.69.261.917.205.104-.025.136-.168.148-.293s-.01-.259-.078-.34c-.068-.08-.18-.103-.282-.002-.27.264-.374.6-.554.635-.09.017-.181-.078-.25-.158-.068-.079-.113-.169-.091-.248.191-.704 1.607-.217 1.426-.228-.392-.024-1.037-.125-1.592-.136-1.066-.021 2.924.351 3.343.419.103.016.191.045 2.018.056s5.387.012 7.3.001c2.07-.012 2.343-.057 2.557-.068 1.18-.062 3.089-.102 3.18-.181.228-.199-.7-.102-3.434-.136-2.556-.032-7.483-.012-9.45-.012h-.303c.52 0 .387 0 .172.045-1.325.277-2.546.476-2.897.589-.176.056-.306.204-.442.193-.056-.005-.046-.123.01-.203.308-.439 1.744-.667 3.895-.737 1.479-.048 2.29.158 3.442.192.252.008.364.034 2.314.046s5.734.011 7.729 0c1.994-.011 2.084-.034 2.343-.045.259-.012.684-.012 1.19-.216"/><path stroke="#f8f8f6" stroke-linecap="round" d="M73.289 132.176c.203.067.429.383.576.757.183.466.531.713.825 1.019.073.076.113.169.092.171-.382.024-.497-.632-.735-1.107-.057-.115-.101-.204-.08-.239s.112-.013.18.044c.299.245.34.689.409 1.007.086.398-.768-.156-1.367-.361-.26-.09-.487-.159-1.374-.193-.774-.011-2.207-.011-3.684-.011M238.381 128.825c0 .527.161 1.673.489 2.328.163.326.286.655.267.86-.007.073-.222-.038-.326-.161-.205-.244-.185-.735-.104-1.144.05-.252.652.2 1.264.345.323.076 2.879.102 6.596.082 1.908-.01 2.716-.225 3.92-.327 2.509-.212 4.868-.143 6.418.101.831.131 1.409.695 2.063 1.083.167.099.326.184.248.226-.793.421-1.63-.204-2.449-.306-.857-.107-3.292-.266-5.367-.368a171 171 0 0 1-4.813-.122c-1.359-.021-3.826-.021-6.368-.021M257.622 130.91c.244.121.814.53 1.469.939.326.123.654.246 1 .45.185.122.387.284.595.451"/><path stroke="#121212" stroke-linecap="round" d="M90.38 8.057c-1.01.561-2.136 1.126-3.038 1.66-.444.263-.791.592-.988 1.042-.591 1.351-.087 3.606.11 4.734.313 1.781.198 2.931.367 3.92.186 1.097.392 2.113.675 3.157.266.977.45 2.224.676 3.55.216 1.271.45 2.621.592 3.694.213 1.621.535 3.04.873 4.425.276 1.13.226 3.733.366 5.581.122 1.607.198 4.742.338 7.299.115 2.089.198 3.883.338 8.737.098 3.382.03 9.746.001 13.135-.037 4.514-.252 6.319-.618 7.222-.091.224-.141.45-.059.593.438.755 1.827.648 3.037.96 1.864.479 3.238.591 4.48.677 1.58.109 2.928.253 3.999.338 1.207.096 3.09.48 4.395.648 1.019.131 2.25.393 3.378.676 1.313.33 2.648.959 3.69 1.184.478.113.931.226 1.381.339.226.056.449.112 1.017.17"/><path stroke="#121212" stroke-linecap="round" d="M87 13.638c.392.056 1.85.392 3.655.788 1.937.425 2.875.507 3.917.62 1.677.183 3.233.506 8.631 2.166 2.059.633 3.9 1.047 4.973 1.217 1.444.23 2.76.844 3.971 1.408a42 42 0 0 0 4.169 1.636c.7.28 1.325.564 1.775.789l.679.34"/><path stroke="#121212" stroke-linecap="round" d="M118.432 21.249c.225 2.023.45 3.829.647 5.012.383 2.29.705 5.014.873 6.456.163 1.4.508 3.628.957 6.253.264 1.55.338 3.017.536 4.205.242 1.45.198 2.48.338 3.44.139.953.198 2.865.478 5.435.188 1.718.338 3.187.424 4.205.108 1.297.252 2.987.618 4.788.297 1.462.368 3.378.536 4.684.126.977.45 1.972.535 3.043a73 73 0 0 0 .479 2.51c.056.255.112.478.338.708M121.305 24.124c-.056-.112-.112-.223-.141-.141-.325.928.364 2.444.534 4.024.227 2.097.617 4.888.818 7.077.126 1.383.364 3.518.534 5.186.206 2.011.84 6.26 1.155 8.627.191 1.433.365 3.235.507 5.128.11 1.452.31 2.789.731 4.792.252 1.199.367 2.228.452 3.217.124 1.436.253 3.24.338 4.2.141 1.182.253 2.649.338 3.692.028.256.084.479.31 1.216M121.812 24.293c0-.112-.056-.392-.224-.87-.113-.255-.28-.534-.394-.79-.114-.255-.17-.478-.396-1.215M119.277 21.418c.392-.112 1.402-.45 2.362-.816.941-.36 2.082-.76 3.042-1.184.873-.385 1.913-.872 3.321-1.381 2.407-.87 6.085-1.355 8.866-2.084 1.977-.519 4.144-.735 5.415-.99 1.334-.265 2.45-.422 3.744-.676a34 34 0 0 1 3.831-.536c2.647-.242 5.572-.505 6.958-.676 1.398-.173 2.73-.394 4.139-.48.619-.084 1.13-.197 1.746-.281.394-.03.952-.03 1.526-.03M90.718 8.395c.504 0 4.864.67 9.115 1.576 1.86.397 4.228.96 5.807 1.41 1.15.327 2.254.846 3.156 1.212.951.386 2.528 1.153 3.746 1.607 1.092.408 1.773 1.183 2.676 1.635.846.507 2.301 1.405 3.408 2.17.198.142.421.254.989.369"/><path stroke="#121212" stroke-linecap="round" d="M119.277 18.543c.392-.224 1.514-1.012 2.531-1.633.991-.606 2.42-1.128 7.053-3.29 2.092-.977 3.255-1.672 4.822-2.26 5.757-2.163 7.106-2.174 8.822-2.344 2.125-.212 3.353-.506 5.015-.79 1.044-.178 2.168-.281 3.52-.479 1.919-.085 2.595-.254 3.073-.338.254-.029.533-.029.82-.029M119.615 19.388c.782-.167 3.031-.73 4.95-1.266 1.665-.465 3.719-1.044 5.38-1.69 1.082-.422 2.337-.707 4.111-1.354 2.49-.908 6.169-1.72 8.027-2.087.626-.123 4.086-.701 9.182-1.49 3.212-.4 4.623-.456 5.157-.568.255-.057.478-.113 1.215-.17M114.883 18.374c-1.852-.898-4.326-2.027-5.881-2.648-1.07-.428-2-.678-3.545-1.155-3.447-1.067-4.762-.876-6.284-1.13a44 44 0 0 0-4.844-.508 91 91 0 0 0-4.621-.816l-.68-.17M154.088 6.196c.561.112 1.46.673 2.699 1.21 1.377.597 3.148 1.547 4.395 2.311 1.014.537 2.14 1.323 3.042 2.03.227.142.45.254.679.369M165.072 12.623c.112.504.338 1.63.479 5.102.108 2.681.028 7.762.056 10.49.035 3.41.31 5.31.451 7.122.174 2.253.197 4.722.338 6.653.118 1.636.197 3.99.338 5.724.107 1.325.197 5.017.337 7.947.056 1.161.198 2.17.507 3.945.306 1.764.31 3.354.535 4.878.228 1.542.789 3.55.958 5.157.247 2.358.956 3.412 1.407 4.822.409 1.278 1.07 2.369 1.521 3.413.396.931.62 1.608.817 2.058.086.226.141.45.368.68M172.339 80.106c-.894 0-2.924.112-7.671.197-1.906.035-3.253.253-4.716.48-1.192.183-5.769.338-8.591.479-1.493.074-3.292.197-5.039.506-1.679.297-2.819.31-3.89.396-1.086.087-1.971.422-3.154.507-1.078.078-2.197.253-4.502.366-.513.056-.736.168-.991.225-.254.058-.533.058-.82.058M130.599 87.04c.112 0 .392-.223.786-.673.282-.45.509-.903.761-1.353.141-.226.309-.45.819-1.018"/><path stroke="#121212" stroke-linecap="round" d="M131.665 85.074q.12-.238.292-.439c.122-.14.698-.808 1.516-1.84.685-.864.795-1.131.946-1.391.154-.268.395-.5.735-.959.423-.572.6-.846.893-1.286.096-.144.36-.558.769-1.177.518-.785.861-1.448 1.255-2.107.26-.434.56-.888 1.097-1.752.327-.525.391-.748.513-1.068.168-.44.15-.746.144-1.352-.004-.369-.306-.527-.592-.734-.273-.197-.599-.26-1.178-.354-.346-.056-.864-.053-1.242.053-.294.082-.579.385-.812.6-.184.17-.422.412-.654.592-.32.25-.6.725-.818.953-.226.236-.368.466-.776.965-.247.301-.491.646-.791 1.053a52 52 0 0 0-1.451 2.05c-.472.695-.798 1.074-1.269 1.7-.314.419-.634.92-.86 1.268-.153.236-.374.48-.735.945-.351.453-.647.826-.867 1.094-.179.22-.286.427-.449.627-.171.208-.327.4-.457.593-.075.086-.157.18-.232.286q-.049.08-.089.16M131.38 69.74c.11-.126.581-.283.905-.339.504-.087 1.205.023 1.41.228.285.283.3.614.387.882.102.332.165.584.173 1.11-.008.12-.023.183-.039.247"/><path stroke="#121212" stroke-linecap="round" d="M136.208 71.787c.109.283.393.598.574.811.217.255.417.465.63.654.274.245.543.331.78.466.252.087.472.15.645.158.08.007.142.023.348.087M130.174 71.787c.203.47.613 1.07.888 1.347.216.216.465.37.757.497.26.11.449.158.575.19.063.015.125.03.237.047M104.852 80.202c0 .547-.181 1.916-.503 3.362-.324 1.46-.184 2.586-.298 4.255-.308 4.51.114 5.343.251 6.146.16.944.275 1.855.412 2.954.115.93.275 1.83.412 2.68.152.946.366 2.037.526 3.16.16 1.116.252 1.947.321 2.728.078.881.433 1.968.572 2.999.275.896.412 1.445.503 1.811.046.184.092.365.138.965M128.607 114.148c0 .909-.09 2.833-.251 3.844-.144.909-.342 1.741-.617 2.816-.362 1.414-.596 2.314-.779 3.094s-.366 1.694-.64 2.474c-.276.783-.366 1.831-.596 2.748-.183.872-.32 1.422-.434 1.81-.069.207-.16.434-.39 1.08M185.629 103.874c-.338 2.851-1.016 7.123-1.189 8.663-.144 1.287-.794 5.526-1.382 8.376-.344 1.67-.291 2.863-.461 4.176-.073 1.605-.171 2.574-.412 3.425-.05.219-.05.46-.195.416M186.065 103.728c.339.678.629 1.55 1.162 3.463.707 2.535 1.118 3.623 1.722 4.715.628 1.133 1.285 2.206 2.4 3.569.729.889 1.359 1.699 2.233 2.719 1.473 1.72 1.991 2.817 2.959 4.175.967 1.356 1.89 2.377 2.501 3.329.558.871 1.43 1.773 1.892 2.477.75.8 1.817 1.868 2.571 2.404.171.146.315.338.754.828M228.712 81.731c0 1.64-.096 4.268-.17 5.338-.057.842-.267 1.602-.508 2.5-.239.889-.679 1.87-.946 2.648a6 6 0 0 1-.267.582c-.097.196-.193.388-.438 1.023M226.674 93.24c0 3.283-.096 7.665-.169 9.752a75 75 0 0 1-.461 5.685c-.204 1.627-.534 2.67-.969 4.368-.516 2.017-2.037 4.324-2.499 5.223-.453.883-.993 1.628-1.335 2.356-.49 1.047-1.405 2.328-1.988 3.568-.463.985-.922 2.11-1.479 3.059-.66 1.123-1.286 1.869-1.772 2.72-.337.46-.679.9-.946 1.287-.122.195-.218.388-.463.877M212.556 85.082c-.048.578-.146 2.995-.267 4.874-.12 1.582-.412 2.357-.751 3.135-.097.195-.193.388-.292.877M210.955 94.696a4.02 4.02 0 0 1-.848 2.207c-.122.17-.218.363-.339.534s-.266.315-.414.464M175.731 65.27c.434 0 1.403.192 2.325.557.993.393 2.085.704 2.96.947 1.112.308 1.94.728 2.838 1.093.783.318 1.577.558 2.595.995.793.339 1.601.533 2.524.922.923.39 1.697.68 2.716 1.165.89.423 2.274 1.788 3.421 3.056 1.682 1.86 1.869 2.963 2.452 3.814.651.952.971 1.966 1.406 2.888a60 60 0 0 0 1.772 3.497c.486.888.896 1.892 1.334 2.793.448.92.872 1.724 1.455 2.79.453.83.922 1.748 1.456 2.697.558.991 1.213 2.014 1.698 2.792a8.8 8.8 0 0 0 1.237 2.283c.17.147.362.243.56.488M167.009 32.698c.487.49 1.467 1.048 2.24 2.1.697.95.493 3.633.249 5.472a34 34 0 0 1-1.681 3.718c-.176.283-.384.491-.808 1.127M169.111 51.639v6.734M169.111 51.428c.694.417 1.19.91 1.401 1.469.071.56.21 1.124.42 1.961.072.56.072 1.394.282 2.884M171.424 58.373c.21-.905.349-3.01 1.014-5.81.578-2.44.597-3.585.703-6.874.176-2.113.314-3.655.421-4.954.034-.318.104-.595.175-1.513"/><path stroke="#121212" stroke-linecap="round" d="M173.737 39.222c.208.209.417.417.663.906s.523 1.253.701 1.786c.177.532.247.81.318 1.517"/><path stroke="#121212" stroke-linecap="round" d="M175.209 43.22c0-3.406.139-10.164.245-11.569.035-.352.104-.7.14-1.677s.036-2.575.036-4.22"/><path stroke="#121212" stroke-linecap="round" d="M171.424 16.494c1.396 2.584 2.662 5.535 3.99 8.93.565 2.08 1.401 3.2 2.35 4.08.246.177.523.316.809.459"/><path stroke="#121212" stroke-linecap="round" d="M172.686 18.178c-.208-.558-1.047-2.097-1.924-3.538-.88-1.447-2.206-2.7-3.817-4.487-.492-.528-1.047-1.084-1.471-1.44s-.703-.494-1.409-.637M165.116 8.287c-1.329-.56-2.864-1.537-4.201-2.313-1.192-.632-2.452-1.263-3.432-1.613a6 6 0 0 0-1.198-.283M154.603 4.288c-.629-.208-1.745-1.187-3.603-2.276-.39-.247-.598-.455-.879-.632s-.628-.316-1.616-.88M154.813 3.867c.835-.139 2.797-.699 4.165-.946.318-.104.595-.312.877-.454s.56-.212 1.056-.704"/><path stroke="#121212" stroke-linecap="round" d="M155.864 4.078c-3.416-.07-7.494-.072-8.965.593-1.303.588-2.662 1.646-3.857 2.35-.282.142-.559.28-.841.491s-.559.488-1.476 1.196M225.383 73.884c.156-.067.425-.424.604-.806.188-.4.447-1.25.728-2.05.378-1.076.638-1.492.762-1.918a36 36 0 0 1 .582-1.872c.145-.402.28-1.352.471-1.962.124-.397.19-.896.325-1.49.206-.91.09-2.534.023-3.544-.027-.402-.135-.795-.202-1.21a7 7 0 0 0-.145-.55.6.6 0 0 0-.191-.27M228.004 58.346c0-.358.133-1.07.224-1.68.066-.442.179-1.05.056-1.547a5 5 0 0 0-.425-1.087c-.215-.419-.526-.662-1.029-1.177-.168-.18-.368-.401-.537-.582s-.303-.314-.507-.519M225.786 51.687a18 18 0 0 0-1.085-2.117c-.243-.393-.927-.617-1.667-.808-.808-.21-1.547-.28-2.204-.348-1.977-.202-2.345.089-2.883.257-.494.154-.962.391-1.646.772-.433.242-.729.494-1.165.797-.596.413-.953.683-1.323.975-.388.307-.728.538-.997.807-.27.27-.47.605-.739.964-.338.45-.537.985-.729 1.39-.034.09-.056.18-.089.27a1.4 1.4 0 0 1-.191.337M211 55.117c.156.023.514.2 1.921.225 1.103.02 1.572-.358 2.188-.571.644-.224 1.042-.37 1.457-.516.547-.192 1.265-.46 1.803-.672.493-.17 1.03-.303 1.49-.427.102-.034.19-.078.349-.191M223.031 60.23c-.246.066-.826.379-1.62.648-1.061.36-1.874.652-2.475.819-2.267.629-2.736.797-3.407 1.02-.843.281-1.3.382-1.827.539-.941.28-2.868.738-4.009.908-1.002.15-1.578.257-2.498.259-.301 0-.428-.336-.54-.56-.226-.452-.157-1.252.054-1.704.24-.51.773-.785 1.253-1.009 1.056-.492 1.469-.74 2.039-1.098.564-.354 1.596-.737 2.32-1.167.577-.343 2.205-1.093 3.281-1.681.6-.328 1.041-.605 1.446-.83.43-.239.716-.694 1.064-.93.281-.28.549-.639.807-1.165.056-.125.101-.214.146-.372M212.815 63.862c.155.2.648.604 1.051.884.582.405 1.32.371 2.853.383.712.005 1.157-.145 1.894-.313.934-.212 1.639-.415 1.851-.527.101-.046.19-.068.282-.09M215.033 65.409c0 .044 0 .334.033.793.043.597.682.843 1.108 1.067.405.213.851.135 2.023.102 1.854-.051 2.323-.436 2.704-.571.245-.112.471-.18.672-.213.112-.034.245-.1.584-.169M215.974 67.898c-.179.178-.313.625-.47 1.119-.125.394-.291.74-.403 1.155-.1.368-.18.728-.169 1.467.033.16.1.226.145.305s.068.167.158.393M214.831 72.135c0 .267.045.895.09 1.456q.1.368.201.617c.045.079.111.146.18.281M209.872 51.367c-.479 1.437-.914 2.745-1.438 4.012-.481 1.008-.916 1.618-1.201 2.273-.065.176-.152.349-.241.527M209.741 50.843c.738-.608 1.872-1.57 2.702-1.986a2.65 2.65 0 0 1 1.634-.265c.33.108.546.325.701.523.154.197.241.37.33.941M218.773 48.091c-.087-.304-.521-1.087-1.067-1.831-.282-.385-.634-.657-.916-.875-.564-.434-2.928-.307-4.537-.046a3.6 3.6 0 0 0-.568.305c-.197.131-.413.304-1.028.744M210.395 46.52c.087 0 .174-.174.262-.544.043-.197.087-.413.109-.957a17 17 0 0 0-.109-2.561M177.017 43.768c.564-.13 1.524-.652 3.718-1.285 4.501-1.298 5.871-1.377 7.163-1.53 1.198-.144 2.897-.329 4.445-.372.823-.023 2.677-.219 5.294-.24 1.236-.01 3.92-.11 7.672-.088 1.859.01 2.639.195 3.512.458.831.13 1.354.35 1.703.48.175.087.348.216.788.481M176.755 44.554c0 .39.087 1.35.174 2.137.106.949.436 1.615 1.046 2.967.381.847.741 2.18 1.222 3.386.331.83.524 1.637.96 2.816.332.902.915 1.876 1.179 2.71.218.687.349 1.482.611 2.291.044.543.087 1.028.174 1.376.044.176.087.349.132.79M182.253 64.205c.347.174 1.304.522 2.764.873.826.198 1.466.087 2.808.153 3.325.162 5.727-.02 6.464-.086 2.742-.244 4.488-.154 5.913-.262 2.158-.165 2.947-.24 3.689-.393.469-.097.918-.066 1.266-.218.348-.282.613-.633.743-1.176.045-.37.045-.932-.217-1.773"/><path stroke="#121212" stroke-linecap="round" d="M214.715 45.21c-.391-.348-.914-1.133-1.46-1.832-.633-.743-1.328-1.614-2.072-2.185-.175-.088-.348-.131-.526-.176M135.722 85.168c.067 0 .236-.135.474-.407a1 1 0 0 0 .205-.492c.035-.221.035-.525.035-.837M142.519 90.808c.203.61.342 1.095.427 1.42.051.155.119.29.222.429.103.137.238.273.481.413M227.368 130.748c-.47-.657-1.222-2.163-2.493-3.675-.613-.753-1.181-1.512-1.792-2.218-.331-.332-.704-.613-1.089-.901M211.391 84.936c.386 0 1.738-.192 2.884-.316.861-.092 2.106-.46 3.226-.68 1.448-.284 3.587-.848 4.754-.994 1.57-.196 2.475-.775 3.614-1.02 1.434-.582 2.112-.778 2.645-.826.245-.048.437-.144 1.071-.389"/><path fill="#f8f8f6" d="m211.639 84.47-.603-10.871s6.5 2.976 10.258 2.416c3.551-.53 8.449-3.624 8.449-3.624l.603 7.851z"/><path stroke="#121212" stroke-linecap="round" d="M228.857 71.68c-.289.823-.966 1.599-1.791 2.182-1.064.752-2.424.973-3.71 1.312-1.665.44-5.718.584-8.491.15-1.192-.536-1.726-.875-2.04-1.166-.17-.146-.363-.29-.56-.439M228.712 70.077c.338.529.92 2.18 1.043 3.346.124 1.173.363 2.137.389 5.092-.024.64-.073.833-.097 1.028s-.025.388-.171.586"/><path stroke="#121212" stroke-linecap="round" d="M212.701 71.97c-.677 1.55-1.26 3.005-1.262 5.02.144.61.339 1.048.509 1.509.074.22.122.412.317.756M212.265 79.255c-.048.386-.146 1.355-.291 2.545-.049.27-.097.462-.121.657-.025.195-.025.387.12 1.022M197.18 54.7c-.437.383-1.534 1.043-2.962 1.292-1.13.198-2.037-.08-2.449-.355-.859-.571-1.402-1.373-2.116-2.117-.342-.357-.388-1.398-.306-2.662.049-.758.576-1.107.96-1.409.22-.139.492-.247 1.367-.303.874-.057 2.343-.057 3.857-.057"/><path stroke="#121212" stroke-linecap="round" d="M193.387 52.885c0 1.312.109 3.515.22 5.437.054.553.163 1.098.219 1.732.056.635.056 1.343.056 2.072"/><path fill="#121212" d="M187.737 22.105c-.08.068-.201.14-.299.196-.03.018-.034-.014-.056-.003-.044.023-.067.06-.111.083-.015.008-.028-.037-.043-.028-.079.045-.135.113-.208.172-.358.29-.666.642-.955 1.022-.095.125-.234.265-.307.413-.008.018.029.027.03.032.009.073-.044.017-.072.044a1.2 1.2 0 0 0-.255.379c-.024.056.069.038.004.072-.005.002-.032-.03-.043-.017-.027.028-.055.094-.072.119-.032.047-.036.056-.061.102-.035.064-.093.134-.12.208-.005.016.04.014.034.04a.3.3 0 0 1-.059.107c-.019.017-.043-.006-.051-.005-.07.005-.029.115-.032.126-.05.189-.161.318-.232.486-.054.126-.095.268-.145.389l-.012.028c-.053.123-.106.23-.134.362-.004.015.046.009.043.026-.04.19-.07.38-.112.576-.005.02-.045-.008-.051.012-.042.12-.122.324.062.391-.005.084-.006.186-.037.264-.019.05-.068.007-.044.066.006.013.044-.008.049.012.021.084.018.178.048.26.007.017.041.009.048.013.056.035-.02.113-.024.129-.031.119-.001.2.013.306.004.025.046-.011.051.012l.013.066q.028.148.034.295c.001.026-.043.012-.045.025-.006.059.071.051.068.107 0 .012-.035.014-.039.017-.049.047.04.052.044.059.052.09-.012.182.032.273.006.01.038-.03.051.002.086.207.172.425.251.637.012.033-.029.028-.031.032-.038.063.048.04.056.049.065.064.051.175.169.169.181.336.472.58.684.909.003.004-.032.028-.027.036.07.098.098.035.209.029.027-.002.007.109.006.117-.003.033-.059.066-.058.074.014.065.145-.095.198-.048.001.002-.031.024-.029.031.007.021.03.022.036.044.012.05-.041.136.045.133.011 0 .077-.098.123-.052.018.018.106.09.126.115s-.021.042-.02.044c.034.093-.004.089-.017.173s.088-.059.114-.063.05.069.052.09c.003.02-.027.026-.022.041.037.099.087-.041.128-.043.097-.005.057.13.098.182.011.014.02-.017.033-.01.056.034.056.088.135.11.013.002.108-.016.098.053-.002.01-.035.023-.021.046a.4.4 0 0 0 .105.116c.028.019.042-.045.058-.003.007.018-.039.014-.025.047q.008.017.025.04c.023.03.052.065.066.08.021.025.041-.014.045-.014.022.003.076.04.08.044.176.22.257.474.403.7.011.018.042-.014.044-.012.05.057-.077.059-.088.12.074-.046.074-.012.105.03.015.02.039-.007.043-.007.062.011.014.063.004.075-.034.042.03.041.006.07-.023.029-.082.015-.062.059.034 0 .093-.067.12-.039.105.109.141.38.169.488.03.108.046.141.055.207.015.118.06.06.106.123.047.064-.105.069-.133.087-.028.019.007.02-.007.038-.014.016-.042-.004-.04.026.001.03.076.094.111.097.074.004.137-.05.131.034-.001.005-.042 0-.042.018.004.122.026.242.033.363l.002.062c0 .02-.046.01-.047.022-.007.117.057.065.147.117-.109.001-.168.045-.159.13.005.05.051.037.087.068.011.01-.018.05.004.054.074.017.153-.025.127.07-.002.005-.042-.006-.044.008-.011.09.066.098.077.197.008.077-.04.214-.051.3-.121-.007-.097.074-.016.113-.007.056-.007.117-.023.17-.006.018-.04.002-.044.004-.062.03.016.062.018.075.017.134-.058.23-.018.363.001.005.083.026.017.05-.004 0-.035-.047-.048.01-.013.059-.077.158-.056.246.005.021.062.084.001.112-.009.004-.031-.007-.046-.002-.047.014.033.047-.044.058s-.144.056-.116.146c.001.003.061.04.053.064-.012.04-.042.09-.054.132-.005.02.039.019.038.022-.017.14-.084.222-.151.354-.013.023.012.118-.051.149-.068.033-.233-.101-.24.032l.001.008-.005.013c.017.062.21.206.057.244-.036.185-.164.317-.192.506-.001.008.056.06.047.079-.013.026-.05.027-.061.046-.043.075-.049.16-.087.235-.015.028-.043.004-.06.038-.018.033.014.075-.028.113-.032.028-.134.023-.166.064.083.042.067.074.061.141-.001.013.034.016.035.023.005.028-.029.036-.023.063.002.007.03.022.033.028.025.055-.067.078-.083.082-.061.014-.033.05-.064.07-.031.018-.03-.034-.057-.007-.052.052-.091.13-.128.194l-.007.012c-.017.025.03.03.029.034-.025.06-.098.087-.048.164-.206-.089-.004.044-.093.093-.007.003-.096-.05-.093-.08.003-.031.053-.046.055-.09.001-.01-.052-.107-.053-.115-.01-.069.124.01.133.011.052.013.059-.015.054-.046-.006-.02-.018-.046-.017-.054.007-.08.056-.126.064-.192.005-.043-.083-.094-.066-.12.057-.088.201-.06.134-.203-.014-.03-.123-.06-.012-.09.008-.002.104-.02.072-.071-.004-.007-.033-.02-.033-.026-.001-.04.033-.051.038-.093.005-.041.008-.092.036-.129.017-.022.087-.03.106-.036.053-.017.005-.082.062-.082.056-.001.11.072.166.029l-.23-.11c.054-.121.13-.233.176-.358.006-.016-.042-.017-.037-.034.021-.073.075-.121.091-.2.013-.059-.008-.138.003-.201h.007l.011-.026c.095.005.102-.086.133-.14.011-.02.035-.01.049-.021.051-.046-.039-.05-.046-.07-.028-.086.154-.025.179-.108.001-.005-.078-.09-.082-.1-.025-.058.036.004.053-.022.03-.049.064-.079.054-.15-.003-.02-.053-.082.005-.104.007-.003.039.008.042.005.051-.06-.052-.09-.078-.137-.025-.047.061-.09.084-.098.061-.02.017.03.022.033.058.036.058-.011.071-.045.103.018.107-.032.013-.034-.011 0-.007.028-.013.034-.094-.053-.095-.106.01-.146.05-.018.096.018.094-.07-.002-.04-.075-.038-.089-.075-.03-.084.052-.172.052-.253 0-.03-.043-.007-.044-.027-.004-.053.031-.095.022-.149-.001-.005-.043.002-.042-.014.008-.122.043-.226.049-.354.003-.061-.018-.171-.014-.234.008-.11.061-.247.038-.34-.015-.06-.055-.042-.085-.064-.059-.042.025-.14.038-.154.001-.001.018.049.035.019.041-.023-.035-.019-.035-.02a.3.3 0 0 0-.012-.13c-.006-.01-.043.004-.046-.001l-.005-.01a1.4 1.4 0 0 1-.118-.409c0-.003.044-.01.043-.016-.002-.087-.068-.126-.117-.183-.05-.058-.055-.112.004-.173-.024-.047-.016-.128-.011-.176s-.078-.025-.081-.028c-.089-.091-.068-.17-.107-.285a1 1 0 0 0-.112-.205c-.028-.04-.023-.076-.054-.11-.005-.005-.036.018-.038.017-.063-.023.03-.045.04-.061.036-.062.053-.098-.003-.142-.013-.01-.15.019-.17 0-.026-.025.022-.038-.007-.063-.002-.002-.027.014-.038-.006-.048-.09-.096-.194-.161-.28-.009-.01-.036.032-.049.016a1.5 1.5 0 0 1-.173-.248v-.001c-.008-.018.024-.03.029-.04.026-.06-.067-.034-.072-.037-.14-.087-.194-.236-.364-.332-.01-.005-.129.015-.108-.07.001-.005.025-.09-.035-.068-.004.002-.012.048-.04.02-.029-.03-.095-.048-.109-.119-.005-.022.015-.11-.066-.094-.006.002-.161.06-.119-.035.007-.015.078-.093-.005-.092-.016 0-.015.032-.048.022-.052-.013-.084-.078-.16-.082-.013 0-.095.023-.087-.042.002-.01.033-.03.021-.045-.055-.075-.142-.123-.193-.205-.019-.03.033-.059.019-.094-.014-.034-.053-.093-.097-.1s-.081.085-.124.05c-.191-.149-.311-.366-.452-.563-.02-.03-.028.014-.061-.029-.121-.154-.332-.432-.35-.617-.015-.148.102-.015.074-.117-.013-.049-.131-.05-.14-.06-.082-.094-.072-.187-.126-.282-.011-.02-.043.017-.052 0-.03-.057-.036-.128-.06-.186-.011-.025-.04-.01-.046-.035a.4.4 0 0 1-.005-.182c.001-.006.05.017.039-.026-.018-.069-.012-.165-.061-.236-.015-.022-.088-.006-.05-.07.008-.012.099-.017.01-.062-.015-.007-.137-.089-.08-.152.015-.016.082-.062.066-.09-.003-.003-.04.02-.047-.005l-.005-.013c-.022-.075-.031-.155-.053-.232-.007-.022-.043.017-.052-.016a1.2 1.2 0 0 1-.025-.298c.001-.034.038-.015.041-.018.056-.046-.028-.06-.034-.072-.037-.078-.005-.144-.021-.219-.005-.02-.042-.002-.046-.006-.038-.041.035-.014.041-.042.016-.078.007-.164-.001-.242-.003-.029-.047.005-.05-.02a1.7 1.7 0 0 1 .023-.472c.006-.03.04-.01.049-.015.058-.038-.014-.103-.02-.118-.028-.067.005-.09.006-.147 0-.282.103-.629.213-.875l.016-.037c.125-.273.246-.48.358-.747.008-.017-.042-.02-.036-.035.078-.198.187-.381.274-.578.007-.016-.044-.014-.034-.04a.6.6 0 0 1 .098-.165c.02-.022.035.03.054.007a.7.7 0 0 0 .109-.177c.012-.028-.049-.01-.031-.045.124-.23.251-.454.445-.644.013-.013.099.024.105-.017q-.032-.025-.067-.05c.199-.325.452-.612.706-.9.01-.013-.045-.023-.024-.047.12-.138.232-.28.4-.38.017-.01.07.056.1.009.005-.008.057-.075.059-.102.001-.005-.038-.023-.019-.042.11-.113.241-.215.38-.294.023-.013.028.037.044.028.113-.06.21-.17.336-.205.084-.023.096.056.171.095.01.005.054-.019.077.016.058.089.098.2.163.292.014.02.049-.03.05.037 0 .004-.025.042-.024.064.001.015.034.045.031.068-.003.022-.035 0-.043.03s.027.064-.009.095m.114 11.825c.024-.052-.118-.003-.069.024a.4.4 0 0 0 .069-.024m-.288 4.78c.082-.025.006-.096-.055-.08-.062.016.031.088.055.08m-.177.537c.073-.037-.117-.132-.105-.053.001.004.1.055.105.053m-.046-17.621a.1.1 0 0 0 .031-.019c-.011-.05-.072-.013-.031.019m-.148 18.148c.034-.004.03-.07-.013-.065-.034.005-.03.07.013.065m-.405-7.675c.001-.002-.016-.02-.024-.01-.025.033.008.046.024.01m-.102 8.474c.091-.108.283-.074.175.04-.019.02-.009-.082-.043-.063-.061.035.001.135-.086.153-.016.003-.051-.124-.046-.13m1.325-6.73a.1.1 0 0 0-.011-.033c-.05 0-.029.065.011.034m-2.231-2.737a.3.3 0 0 0-.055-.06c-.084.026.023.143.055.06m2.751 4.951c.046.04.049.085-.013.112q.007-.056.013-.112M194.367 31.449c.034-.013.161-.025.257-.035.03-.003.024.026.045.025a.2.2 0 0 0 .059-.014q.006-.005.017-.001c.006.002.019.042.025.043.036.002.062-.03.103-.066a.7.7 0 0 0 .109-.124c.162-.221.232-.57.258-.92.011-.14.046-.314.02-.464-.003-.017-.04-.005-.043-.008-.05-.048.026-.036.033-.07a1 1 0 0 0-.014-.418c-.013-.055-.078.01-.045-.051.002-.004.043.005.045-.011.005-.036-.012-.1-.013-.127-.001-.053-.003-.062-.011-.11-.009-.067-.004-.15-.026-.22-.004-.014-.04.013-.051-.01a.25.25 0 0 1-.015-.111c.005-.024.037-.02.044-.026.053-.043-.045-.1-.049-.11-.071-.166-.058-.325-.098-.488-.031-.123-.081-.25-.111-.367-.036-.14-.05-.263-.094-.396-.005-.014-.045.016-.051 0a4 4 0 0 1-.149-.554c-.003-.019.044-.01.043-.03-.006-.12.005-.325-.189-.326-.021-.076-.05-.169-.043-.247.004-.05.063-.027.024-.072-.009-.01-.039.02-.05.004-.044-.069-.066-.153-.117-.217-.01-.013-.041.005-.049.004-.061-.013-.01-.106-.011-.121a.3.3 0 0 0-.014-.097c-.02-.061-.051-.108-.08-.17-.01-.02-.041.025-.052.006a1.5 1.5 0 0 1-.138-.317c-.007-.025.039-.023.038-.035-.008-.056-.081-.031-.09-.083-.002-.011.032-.022.034-.025.039-.055-.048-.04-.054-.046-.068-.075-.02-.172-.077-.251-.007-.01-.033.034-.05.007a3.3 3.3 0 0 1-.289-.59c-.012-.032.029-.027.031-.031.039-.061-.046-.038-.054-.046-.063-.063-.04-.168-.157-.168-.148-.333-.376-.625-.46-.99-.001-.005.04-.016.038-.025-.029-.11-.077-.061-.182-.092-.026-.008.036-.1.04-.108.015-.027.08-.038.082-.046.013-.061-.169.035-.198-.026-.001-.002.037-.01.038-.017.003-.02-.018-.03-.013-.051.01-.05.095-.104.017-.134-.01-.004-.112.056-.132-.001-.008-.024-.054-.12-.059-.15s.037-.027.038-.03c.013-.093.044-.074.096-.14.022-.029.006-.03-.022-.023-.037.01-.094.034-.108.03-.024-.008-.01-.079-.002-.098s.037-.011.039-.026c.016-.098-.094-.001-.131-.017-.087-.037.015-.133.005-.194-.003-.017-.026.006-.034-.006-.03-.051-.004-.097-.062-.147-.01-.008-.102-.032-.059-.083.006-.008.041-.005.04-.031a.3.3 0 0 0-.039-.137c-.017-.026-.057.023-.053-.018.002-.018.041.002.042-.031a.6.6 0 0 0-.033-.135c-.01-.028-.044 0-.047-.002a.2.2 0 0 1-.056-.063c-.077-.245-.067-.49-.138-.728-.005-.019-.045.002-.046 0-.03-.063.091-.033.12-.085-.084.023-.074-.007-.092-.052-.008-.02-.039-.003-.043-.004-.056-.024.005-.06.017-.067.045-.03-.017-.044.013-.065.03-.02.084.006.076-.038-.032-.007-.107.039-.125.007-.071-.12-.04-.369-.044-.472s-.013-.136-.007-.197c.01-.11-.046-.065-.079-.13-.033-.066.118-.044.149-.056s-.003-.02.014-.033c.016-.013.04.01.044-.017.005-.028-.056-.1-.09-.107-.072-.016-.144.022-.122-.053.001-.004.041.007.044-.01.023-.13.019-.262.041-.391.004-.018.047-.004.05-.014.024-.107-.048-.067-.13-.124.108.01.173-.023.172-.103 0-.049-.047-.04-.081-.07-.01-.01.022-.045 0-.05-.073-.02-.154.013-.123-.07.002-.004.042.007.044-.006.015-.082-.061-.091-.071-.18-.007-.07.038-.193.046-.271.085 0 .096-.035.067-.068l.003-.016a.14.14 0 0 0-.04-.055c.023-.047.04-.1.07-.142.01-.014.038.01.042.01.068-.007.002-.06.003-.071.02-.124.117-.187.112-.317-.001-.004-.074-.047-.005-.048.005 0 .023.05.049.003s.111-.119.11-.203c0-.02-.04-.093.025-.101.009-.001.028.015.043.015.048 0-.021-.051.055-.041.077.01.15-.014.142-.103 0-.003-.051-.05-.039-.071.02-.032.058-.072.077-.107.009-.016-.033-.026-.032-.03.042-.122.12-.182.204-.29.015-.02.004-.111.067-.129.07-.019.217.135.239.007.009-.051-.179-.244-.017-.245.065-.162.21-.255.268-.422.003-.008-.043-.07-.032-.084.017-.021.053-.013.066-.028.055-.06.074-.137.124-.197.018-.023.041.006.063-.021s-.001-.074.045-.099c.036-.02.132.01.17-.022-.073-.058-.052-.083-.037-.144.003-.012-.03-.022-.03-.029 0-.027.034-.027.032-.054-.001-.006-.026-.026-.028-.033-.016-.056.076-.058.092-.057.061-.001.039-.04.071-.052.033-.01.025.037.054.018a.4.4 0 0 0 .076-.067q.043-.06.075-.111c.016-.024-.03-.03-.029-.034.023-.056.092-.08.041-.154.203.092.001-.042.089-.085.007-.003.093.055.091.083s-.05.038-.05.08c0 .01.056.101.057.11.013.065-.122-.013-.13-.015-.094-.024-.037.081-.039.098a.2.2 0 0 1-.027.076l-.006.009c-.022.032-.047.06-.057.097-.012.039.066.104.045.126-.068.07-.202.012-.16.16.009.032.109.083-.003.087-.008 0-.103-.005-.081.05.003.007.029.026.028.032-.006.037-.04.04-.052.077s-.023.083-.056.111c-.02.017-.088.008-.107.01-.055.003-.019.074-.074.06-.054-.011-.094-.091-.154-.064l.203.155c-.073.099-.164.184-.229.288-.008.013.038.025.03.04-.032.061-.092.094-.12.161-.021.052-.013.129-.034.184-.1-.021-.118.07-.157.118-.014.017-.036.002-.051.011-.057.034.03.055.034.075.014.088-.155-.005-.192.068-.002.004.06.101.062.11.013.061-.035-.01-.056.01-.038.04-.078.06-.081.128-.001.02.034.089-.026.095-.008.001-.037-.017-.04-.015-.061.043.031.096.045.146s-.078.068-.102.069c-.063.002-.01-.032-.014-.036-.047-.048-.058-.004-.078.022-.094-.043-.11.001-.02.029.01.003.013-.025.02-.029.078.073.067.123-.044.13-.051.004-.087-.042-.106.039-.008.036.063.055.066.092.009.085-.092.141-.113.214-.008.026.039.018.035.037-.011.049-.055.076-.061.128-.001.004.041.01.036.025-.034.087-.081.158-.122.241l.022-.113-.003.07c0 .06.023.167.019.229-.007.107-.066.24-.05.331.01.06.051.046.08.07.055.049-.04.138-.055.15 0 0-.011-.05-.032-.023-.044.017.032.022.032.023a.3.3 0 0 0-.007.13c.004.011.043.004.045.01q.059.2.046.406c-.001.003-.045.002-.046.008-.014.08.043.127.079.19.037.062.031.113-.04.159.014.048-.012.121-.027.164-.016.043.07.038.072.042.066.103.026.172.035.287.004.054.034.16.053.215.016.045.001.076.022.115.002.006.039-.007.04-.006.054.038-.041.034-.056.047-.052.046-.079.075-.038.13.009.012.148.024.161.047.017.03-.033.029-.013.06.001.003.03-.005.033.017.017.097.027.207.058.306.004.013.044-.017.051.003.031.09.059.19.066.285.002.024-.034.02-.041.028-.047.047.048.063.052.068.093.149.065.298.164.448.006.008.118.04.058.1-.004.005-.066.066-.004.07.004.001.034-.034.044 0 .005.019.022.04.032.064a.1.1 0 0 1 .004.075c-.007.02-.066.086.012.103.006.001.166.007.086.07-.013.011-.111.052-.038.08.014.005.027-.022.052-.003.038.028.037.092.102.12.012.004.093.008.058.06-.006.007-.042.015-.038.031.017.079.075.142.089.224.005.03-.052.042-.052.075 0 .034.014.094.052.11.037.015.102-.057.13-.02.121.164.17.365.263.546.014.027.03-.01.052.028.083.142.251.376.263.537.009.128-.1.021-.075.11.011.043.126.031.134.039.079.072.073.156.13.23.012.015.04-.022.05-.009.032.044.044.105.072.15.013.02.039 0 .048.02.02.05.029.096.026.156 0 .006-.051-.003-.034.032.027.056.037.14.098.188.018.015.084-.018.06.046-.005.014-.091.044.002.056.016.002.15.036.11.105-.011.019-.063.078-.042.096.004.003.033-.028.046-.01.045.06.076.134.121.198.012.017.036-.029.053-.002l.018.032c.038.068.068.158.087.227.008.03-.032.025-.035.028-.041.058.043.045.052.055.057.058.043.124.079.185.01.017.041-.01.046-.009.046.024-.03.023-.028.05a.6.6 0 0 0 .068.206c.011.023.043-.02.052 0 .057.127.102.262.123.396.004.025-.034.022-.04.03-.041.052.048.076.059.086.049.041.027.071.048.116.103.216.17.504.219.724.063.287.086.514.156.785.004.017.046-.01.05.005.054.191.074.387.121.582.004.016.043-.015.051.011a.5.5 0 0 1 .018.178c-.002.027-.045-.003-.047.025a.6.6 0 0 0 .017.194c.006.027.046-.02.051.016.035.242.064.485.013.74-.004.018-.095.035-.077.071q.04.003.083.003c.018.366-.033.737-.159 1.13-.005.017.05.003.04.035-.04.123-.088.252-.166.37a1 1 0 0 1-.149.17c-.018.015-.077-.047-.108.012-.005.01-.066.093-.076.126-.001.005.041.02.015.045a.9.9 0 0 1-.358.204 2 2 0 0 1-.188.034c-.025.002-.01-.045-.028-.044-.127.01-.252.075-.421.038-.12-.03-.074-.102-.121-.187-.001-.004-.106-.067-.074-.11.089-.059.164-.146.251-.22.048-.032.072.253.106.082a.3.3 0 0 0-.051-.129c-.038-.05-.064-.068-.069-.082-.009-.018.034-.048.009-.076-.024-.027-.046.007-.048-.014 0-.02-.004-.069.005-.075m-2.284-11.619c-.036.043.113.029.072-.007a.4.4 0 0 0-.072.007m1.065-4.257c-.083.005-.021.087.041.086.062 0-.015-.088-.041-.086m.26-.454c-.076.017.09.149.092.073a1 1 0 0 0-.092-.073m1.059 16.942a.1.1 0 0 0-.037.002c-.016.05.059.046.037-.002m-.789-17.388c-.034-.003-.04.06.002.063.034.003.04-.059-.002-.063m-1.257 7.126c-.002.001.005.023.016.018.037-.016.016-.041-.016-.018m1.788-7.82c-.095.076-.284.027-.162-.071.021-.017-.002.08.033.067.063-.022.021-.132.109-.128.014.002.024.129.02.133m-2.302 5.897a.1.1 0 0 0 .003.032c.049.01.045-.052-.003-.033m.976 3.155a.3.3 0 0 0 .031.07c.086-.003.027-.136-.031-.07m-1.188-5.244q-.046-.033-.035-.067a.3.3 0 0 1 .01-.053q.015-.016.052-.018-.009.016-.016.033c-.002.008-.008.03-.007.038zM201.84 38.006a.9.9 0 0 1-.202-.308c-.012-.03.019-.03.012-.052-.014-.042-.045-.068-.055-.11-.003-.014.041-.02.037-.035-.022-.075-.067-.134-.094-.205-.135-.355-.258-.69-.363-1.046-.035-.117-.045-.269-.097-.384-.006-.014-.039.005-.043.004-.057-.03.019-.036.02-.067a.9.9 0 0 0-.064-.343c-.017-.044-.077.018-.048-.037.002-.004.042-.001.043-.015.003-.03-.016-.082-.018-.104-.004-.044-.006-.05-.014-.09-.01-.055-.004-.124-.024-.181-.004-.013-.04.011-.051-.008a.2.2 0 0 1-.01-.094c.006-.021.039-.018.046-.022.055-.037-.036-.093-.039-.102-.049-.158.003-.297.019-.44.011-.108.017-.227.042-.327.031-.12.08-.212.113-.324.004-.012-.045-.013-.041-.028.046-.155.111-.302.203-.433.01-.013.039.022.051.01.07-.074.208-.172.072-.303a.46.46 0 0 1 .137-.155c.038-.022.061.03.065-.018.001-.011-.04-.018-.036-.033.018-.064.064-.12.078-.186.002-.014-.03-.028-.034-.034-.03-.053.07-.056.081-.062.083-.052.099-.114.141-.182.009-.016-.043-.021-.035-.038a.9.9 0 0 1 .161-.227c.014-.014.039.023.048.017.038-.026-.022-.074.014-.1.007-.005.034.017.038.018.063.011.003-.052.005-.058.02-.08.122-.076.153-.146.003-.009-.045-.015-.032-.038a1.8 1.8 0 0 1 .313-.415c.019-.019.036.015.04.016.068.012.007-.049.009-.058.017-.069.112-.082.052-.176l.028-.033c.144-.179.172-.447.313-.68.002-.004.042.012.045.005.041-.078-.026-.075-.093-.146-.017-.017.086-.041.093-.043.028-.01.087.016.093.013.046-.031-.158-.062-.149-.113 0-.001.036.012.041.009.014-.012.001-.028.017-.039.034-.024.135-.019.085-.074-.007-.007-.124-.016-.111-.061.005-.02.015-.098.025-.12s.046-.001.048-.003c.058-.055.075-.029.152-.05s-.098-.035-.116-.05c-.017-.015.029-.055.044-.065.016-.01.038.008.047-.001.061-.06-.083-.04-.108-.065-.06-.057.074-.082.091-.128.005-.013-.025-.005-.027-.017-.006-.046.037-.068.005-.122-.005-.01-.08-.057-.02-.08.008-.002.04.011.049-.007a.2.2 0 0 0 .016-.11c-.006-.023-.062-.001-.043-.028.008-.012.038.014.051-.01a.3.3 0 0 0 .017-.106c0-.023-.041-.013-.044-.015a.2.2 0 0 1-.031-.062c.008-.195.085-.374.069-.567-.001-.015-.044-.006-.045-.009-.016-.052.096-.007.135-.042-.086.002-.07-.019-.078-.055-.005-.018-.038-.01-.042-.011-.05-.027.016-.044.03-.048.05-.016-.008-.036.025-.047.034-.01.082.018.082-.017-.031-.011-.113.013-.125-.014-.047-.1.019-.285.027-.366.007-.08.001-.106.013-.152.02-.084-.04-.054-.068-.106-.027-.052.121-.027.152-.035.032-.007-.001-.015.017-.025.017-.009.039.011.046-.01.006-.023-.051-.081-.084-.089-.071-.016-.145.012-.119-.046.002-.003.04.007.044-.006.029-.1.03-.204.054-.304.003-.014.047-.003.049-.01.026-.085-.046-.054-.128-.098.108.008.173-.019.172-.082 0-.038-.047-.03-.081-.054-.01-.008.021-.036-.001-.04-.073-.013-.153.014-.123-.052.001-.002.041.005.043-.005.014-.063-.062-.07-.074-.137-.009-.053.033-.152.037-.214.121-.004.091-.06.006-.08.001-.04-.006-.084.004-.122.003-.014.038-.007.042-.009.058-.03-.024-.042-.028-.05-.016-.04-.014-.078-.013-.114 0-.043-.002-.09-.043-.134-.002-.003-.086.005-.029-.027.004-.003.046.02.043-.021-.003-.042.029-.127-.02-.178-.011-.012-.085-.035-.037-.072.006-.005.031-.005.043-.013.039-.026-.047-.02.021-.053.067-.034.112-.088.051-.137-.001-.001-.07-.002-.073-.02-.004-.03.001-.073-.006-.103-.003-.015-.042.003-.043 0-.044-.091-.023-.168-.032-.275-.001-.02-.07-.061-.035-.109.038-.052.248-.06.177-.142-.029-.033-.293-.015-.18-.116-.067-.121-.033-.26-.115-.377-.004-.005-.079-.004-.082-.018-.004-.02.025-.04.024-.056-.008-.063-.052-.111-.064-.171-.005-.023.031-.025.026-.052s-.055-.032-.044-.074c.009-.032.092-.085.093-.123-.058.015-.081.01-.099-.005q-.012-.012-.028-.035c-.006-.008-.036.006-.041.002-.019-.014.005-.034-.015-.048-.005-.003-.036 0-.042-.002-.05-.022.016-.076.028-.085.044-.034.002-.044.018-.069.017-.024.043.008.052-.019.02-.056.011-.125.01-.18 0-.022-.042-.005-.043-.009-.013-.045.031-.092-.054-.116.219-.036-.022-.027.021-.094.004-.005.108-.012.123.007.015.02-.017.05.008.076.005.007.103.041.109.046.047.037-.107.047-.116.05-.091.027.016.068.023.079.036.052.017.098.044.14.018.028.119.022.118.044-.003.07-.14.117-.009.165.017.006.062-.003.079.002l-.007-.03c.012.002.013.013-.016.045-.004.005-.07.066-.015.076.007 0 .039-.008.042-.005.024.02.004.045.024.07s.047.054.046.09c-.001.02-.052.062-.063.075-.034.038.042.048-.003.078s-.13.02-.15.072l.247-.061c.024.096.024.197.054.292.004.012.044-.012.049 0 .022.053.003.108.03.162.022.04.08.077.104.12-.087.052-.038.112-.035.163.002.018-.024.023-.029.038-.019.054.059.012.075.022.068.042-.118.09-.098.154 0 .003.11.022.117.027.049.028-.033.014-.035.039-.005.045-.022.08.018.122.011.013.081.035.038.073-.005.005-.039.01-.04.013-.022.06.083.041.124.066.042.024-.021.086-.04.1-.05.035-.027-.016-.033-.016-.066-.005-.048.028-.049.056-.102.022-.089.058 0 .028.01-.003-.004-.022 0-.028.105.005.126.044.039.106-.041.029-.096.017-.066.078.013.028.082.005.106.028.053.053-.002.14.017.2.006.022.043-.005.049.01l.004.017.002.018c.003.032-.015.064 0 .098.002.004.042-.008.043.005.011.096-.011.179-.007.278.002.047.029.134.026.182-.004.087-.06.194-.043.267.01.048.051.036.08.056.055.038-.04.11-.055.12-.001 0-.011-.04-.032-.018-.044.014.032.018.032.018-.01.007-.017.09-.009.106.004.008.043.003.045.007q.056.165.031.332c-.001.002-.045 0-.046.004-.019.065.035.106.066.16.032.053.021.096-.054.127.009.04-.024.098-.044.13-.021.034.064.04.066.042.052.092.003.144-.007.239a1 1 0 0 0 .014.184c.006.039-.014.061-.003.097.002.005.04.002.041.003.044.041-.048.02-.065.027-.061.027-.093.045-.067.096.006.012.138.052.145.073.008.029-.039.016-.029.046.001.002.031.003.029.021-.01.084-.032.174-.034.261 0 .012.047 0 .047.017a.7.7 0 0 1-.034.247c-.007.019-.039.004-.049.008-.06.021.022.064.023.07.029.148-.058.251-.037.403.002.009.086.08.004.1-.005 0-.088.019-.036.05.003.001.046-.01.038.019-.008.03.014.08-.037.115-.016.012-.099.032-.042.079.005.003.139.083.037.09-.017.002-.12-.018-.074.037.009.01.034-.002.045.023.017.04-.019.081.02.135.007.01.071.055.013.072-.009.003-.043-.012-.049.002-.031.06-.022.138-.061.199-.013.023-.066-.002-.087.02s-.046.067-.027.099c.018.032.114.025.11.068-.015.182-.12.343-.214.525-.014.027.026.018.006.06s-.05.102-.085.16c-.061.102-.136.218-.222.259-.096.045-.068-.074-.125-.028-.027.022.041.11.04.118-.015.084-.084.104-.11.17-.006.015.038.026.033.038-.017.039-.057.066-.076.101-.008.016.021.031.01.044a.22.22 0 0 1-.103.068c-.004.002-.026-.04-.043-.016-.027.038-.084.072-.086.135-.001.019.062.059 0 .06-.013.001-.084-.054-.04.021.008.013.061.125-.013.118-.02-.002-.094-.02-.094.002 0 .003.039.015.035.03-.018.055-.052.104-.07.16-.005.014.042.016.034.037a.6.6 0 0 1-.112.169c-.015.017-.038-.014-.042-.014-.066-.007-.001.047-.001.057-.002.061-.055.079-.07.127-.004.014.035.023.037.028.017.04-.035-.011-.05.001a.3.3 0 0 0-.084.132c-.007.018.043.02.036.035a1 1 0 0 1-.144.254c-.012.014-.039-.01-.048-.01-.062.001-.007.066-.004.077.016.048-.018.05-.026.084-.037.164-.119.345-.166.485-.061.182-.114.324-.105.494.001.01.047-.001.049.008.007.063.01.124.018.183q.012.091.038.182c.003.011.043-.014.05.003a.26.26 0 0 1 .016.124c-.002.02-.044.003-.046.023a.3.3 0 0 0 .021.136c.008.018.045-.021.051.003.046.165.1.323.098.507 0 .013-.084.051-.059.07l.079-.023c.093.234.152.48.249.712.004.01.041-.027.049-.008.048.108.108.204.119.332.001.013-.077.047-.05.072.005.005.04.046.063.049.003 0 .034-.027.043-.013.051.082.094.172.124.261.004.015-.04.025-.036.036.023.076.096.119.105.186.007.045-.055.086-.089.154-.005.01.014.029-.011.062-.063.085-.152.162-.218.253-.015.02.056.042-.012.063-.005.002-.059-.017-.081-.01-.015.004-.032.046-.058.047-.025 0-.015-.04-.049-.045-.034-.006-.061.037-.104-.002m1.557-10.14c-.042.03.108.038.073.004a1 1 0 0 0-.073-.003m-.427-3.681c-.053.055.048.056.09.016.041-.041-.074-.034-.09-.016m-.158-.385c-.037.059.169.008.114-.028a1 1 0 0 0-.114.028m-.534 13.765c-.001.002.012.02.014.02.043-.023.019-.058-.014-.02m.398-14.14c-.027.018.011.055.044.033.027-.017-.01-.054-.044-.032m.475 6.024c-.002 0-.006.018.007.019.04.003.031-.023-.007-.019m-.501-6.712c-.008.102-.182.166-.163.053.003-.02.056.044.072.018.028-.047-.082-.078-.023-.127.011-.008.115.05.114.056m.567 5.145c-.002 0-.004.024-.002.025.047.014.051-.035.002-.026m-.317 2.564c-.005 0-.021.052-.018.055.068.047.103-.06.018-.055m.181-4.202c-.049-.024-.056-.055.003-.08q-.002.04-.003.08"/><path fill="#bbb" d="m77.07 132.787-2.414-3.624s8.853-6.595 14.483-9.663c6.808-3.71 18.707-6.644 18.707-6.644s-1.236 6.23-1.207 10.268c.028 3.803 1.81 9.663 1.81 9.663z"/><path stroke="#121212" stroke-linecap="round" d="M74.914 129.206c.072-.217 1.084-1.196 2.778-2.654 1.098-.946 2.79-1.829 5.443-3.23 1.453-.767 3.158-1.581 4.213-2.136 1.442-.758 2.329-1.357 3.258-1.831.584-.298 2.09-.982 4.13-2.004.771-.385 1.03-.443 2.479-1.076 1.448-.634 4.083-1.826 5.603-2.477 2.534-1.084 3.816-1.416 4.874-1.78a25 25 0 0 1 2.007-.786c.147-.055.291-.127.44-.201M106.5 127.891c.456.73.914 1.828 1.212 2.608.069.184.114.366.183.55s.159.366.527.965"/><path fill="#f8f8f6" d="M118.708 113.46c3.492.552 9.052 0 9.052 0l.603-8.455s-5.33-.031-8.448-1.208c-3.487-1.316-7.845-5.436-7.845-5.436l-2.414 12.08s5.372 2.438 9.052 3.019"/><path stroke="#121212" stroke-linecap="round" d="M127.234 105.352c.319-.045.868-.183 1.188-.161.139.067.229.249.276 1.635s.047 3.971-.228 7.047M112.267 97.106c-.183.546-.365 2.01-.503 3.452-.194 2.04-.73 3.728-.984 5.316-.326 2.046-1.166 3.505-1.464 4.421-.482 1.484-.801 2.291-1.031 3.185-.25.972-.456 1.899-.663 2.749a19 19 0 0 0-.458 2.611c-.16.94-.298 1.719-.366 3.196a89 89 0 0 0 .114 6.13M111.718 110.849c.73.228 3.998 1.41 6.129 2.061 1.192.183 2.013.366 3.905.527 1.114.023 3.063.023 5.07.023"/><path stroke="#121212" stroke-linecap="round" d="M131.824 68.218c-.162.345 1.102-.803-.722.954-.962.927-1.831 1.591-2.649 2.344-.358.33-1 2.356-2.471 3.51-1.378 1.082-1.95 2.271-3.505 3.713-1.097 1.017-2.455 2.025-3.382 3.095-.748.863-1.667 1.67-2.46 2.683-.82 1.047-.783 2.345-1.168 3.506-.668 2.013-1.848 4.519-2.012 5.475-.17.99-.764 1.474-.765 1.935-.002 1.06.817 1.847 1.09 2.945.304 1.228 1.36 2.022 2.342 3.062.85.901 2.126 1.618 2.973 2.025.875.42 1.771.924 2.644 1.3.842.361 1.744.491 2.618.722.435.116 1.251.174 2.232.06 1.153-.134 1.259-1.903 1.506-2.857.27-1.041.463-1.992.844-2.918.391-.948 1.088-1.733 2.124-2.283 1.125-.597 2.884-.895 4.389-1.07 1.732-.202 2.591-.404 3.628-.635 1.028-.23 2.016-.518 3.081-1.155.896-.536 1.827-1.096 2.7-2.106.648-.75.385-1.706.222-2.225-.077-.247-.27-.405-.489-.522-.889-.476-2.176.284-3.407.518-1.187.225-2.152.518-3.271.78-1.15.269-2.045.317-3.326.433-1.008.091-2.044.463-3.028.607-.219.031-.436.029-.439-.057-.033-.877 1.194-1.7 1.742-2.683.486-.872 1.144-1.675 1.799-2.6.326-.461.601-.926.846-1.358.137-.204.298-.375.793-.899M169.151 61.337c.167.223.39.483.614.736.056.065.112.14.177.205.066.066.139.121.271.234M172.115 58.426c-.558-.056-1.043.018-1.323.242-.446.356-.856.764-1.146 1.184-.066.121-.14.27-.196.382-.057.113-.093.187-.187.32"/><path fill="#f8f8f6" d="m170.001 72.995-1.81-7.852 2.414-2.415s-1.006-.572-1.207-1.208c-.356-1.125.756-1.889 1.81-2.416 1.054-.528 1.927-.447 3.017 0 1.397.573 2.068 1.55 2.414 3.02.393 1.671-1.207 4.227-1.207 4.227z"/><path stroke="#121212" stroke-linecap="round" d="M170.157 72.98c.056-.112.279-.372.689-.801.283-.297.578-.635.923-.943.325-.29.716-.642 1.285-1.22.498-.507.682-.842.905-1.196.427-.674.653-1.044.896-1.38.269-.374.466-.877.717-1.223a9 9 0 0 0 .569-.905c.164-.291.261-.634.336-1.026.167-.878.019-2.126-.138-2.657-.304-1.024-.755-1.26-1.109-1.634-.376-.397-.69-.486-1.453-.989-.412-.225-.71-.356-.915-.467a3 3 0 0 1-.244-.169M168.536 64.807c.204-.186.538-.594.838-.895.243-.243.596-.447.894-.709.292-.255.8-.707 1.258-1.175.14-.167.271-.317.402-.466.056-.075.093-.15.187-.281"/><path fill="#303133" d="M316.036 179.292H2.243l37.413-45.297 233.495-3.02z"/><path stroke="#121212" d="m1.036 180.5 37.413-47.109 234.138-2.416 42.845 49.525H1.036Z"/><path fill="#121212" d="M129.595 32.334q-.055.014-.132-.026a2 2 0 0 0-.13-.082.7.7 0 0 1-.129-.155.4.4 0 0 1-.049-.155q-.01-.088-.007-.209a9 9 0 0 0 .058-.352 8 8 0 0 1 .084-.476q.006-.097.032-.23.033-.14.067-.264l.051-.199q.034-.205.069-.394.043-.189.105-.438.062-.248.149-.628l.184-.744q.06-.248.089-.356a2 2 0 0 0 .038-.173q-.007-.064.074-.13a.3.3 0 0 1 .16-.081q.112-.005.23.111a.7.7 0 0 1 .175.279.42.42 0 0 1-.02.332q-.096.3-.184.672l-.162.726q-.081.363-.168.67a.7.7 0 0 1-.04.142 3 3 0 0 1-.105.293l-.018.058a1.66 1.66 0 0 1-.048.295q-.004.041-.013.106a1 1 0 0 0-.009.13q.035-.052.099-.123.064-.08.163-.195.115-.126.202-.216a2 2 0 0 1 .175-.164q.081-.073.146-.137l.074-.064a1 1 0 0 0 .025-.06q.02-.033.044-.044a.3.3 0 0 1 .051-.046l.073-.072a.8.8 0 0 1 .304-.162 1 1 0 0 1 .165-.035.33.33 0 0 1 .208.058q.111.06.213.186a.5.5 0 0 1 .123.236 1.7 1.7 0 0 1 .034.608l-.019.267-.042.279.064-.007a.26.26 0 0 1 .166-.027l.09.015a.4.4 0 0 1 .078.047.4.4 0 0 0 .076.04q.055.059.005.185a.4.4 0 0 1-.125.183 1 1 0 0 1-.325.196.43.43 0 0 1-.308-.022.54.54 0 0 1-.234-.224 1.2 1.2 0 0 1-.082-.385q-.007-.354-.016-.506-.009-.16-.096-.15a.6.6 0 0 0-.252.124q-.15.105-.331.286a4.4 4.4 0 0 0-.661.797 4 4 0 0 1-.181.261.4.4 0 0 1-.257.15m4.016-.191a.3.3 0 0 1-.171-.022 3 3 0 0 1-.156-.095 1.5 1.5 0 0 1-.284-.315.54.54 0 0 1-.098-.311.25.25 0 0 0 .003-.121l-.007-.064q-.044-.036-.029-.045a.2.2 0 0 0 .026-.051q.048-.006.022-.091-.023-.062.018-.276.049-.222.147-.426.039-.085.12-.223.08-.145.178-.285.105-.148.192-.238.18-.19.336-.31.163-.124.334-.183.17-.059.353-.078a.4.4 0 0 1 .324.093q.192.06.278.186a.9.9 0 0 1 .142.339q.05.236.017.594-.035.35-.302.838a2.3 2.3 0 0 1-.341.488q-.174.18-.39.34a.8.8 0 0 1-.343.175q-.187.045-.369.08m.705-1.06a.9.9 0 0 0 .21-.36q.058-.192.12-.448a.35.35 0 0 0 .022-.164 1 1 0 0 0-.016-.216q-.02-.11-.069-.12-.078-.048-.146-.009a.8.8 0 0 0-.172.124 3 3 0 0 0-.394.51 1.5 1.5 0 0 0-.21.659q-.002.201.073.297.082.089.229.032.153-.066.353-.305m3.574.719-.203-.09a.34.34 0 0 1-.14-.17 2 2 0 0 1-.075-.395 3 3 0 0 0-.033-.23l-.018-.086-.063.08a1.5 1.5 0 0 0-.156.266q-.14.345-.271.464a1 1 0 0 1-.208.16q-.038.02-.152.009a2.211 2.211 0 0 1-.491-.147q-.102-.045-.123-.092a.6.6 0 0 1-.035-.173q-.015-.144-.026-.311-.003-.176.005-.323a.8.8 0 0 1 .032-.22.1.1 0 0 1 .003-.049q.012-.033-.015-.063l.028-.18q.037-.18.082-.427.053-.248.095-.461.048-.223.072-.298a.6.6 0 0 1 .001-.137.4.4 0 0 0 .012-.106q-.007-.072.063-.16.097-.147.218-.145a.36.36 0 0 1 .214.05 1 1 0 0 1 .145.144.34.34 0 0 1 .077.193.9.9 0 0 1-.045.32 9 9 0 0 0-.118.39q-.059.2-.104.374-.038.165-.053.255a.3.3 0 0 1-.011.114q-.011.05-.007.081a.1.1 0 0 0-.026.06l.007.063a.5.5 0 0 1-.012.114.5.5 0 0 0-.006.162q-.015.154.027.174.049.01.11-.028.02-.034.059-.12.039-.084.085-.178a.34.34 0 0 1 .05-.134 1 1 0 0 0 .057-.063q.021-.026.014-.09-.003-.032.058-.135.069-.113.142-.249.136-.304.166-.388.052-.119.107-.205a1 1 0 0 0 .103-.229q.026-.067.071-.16.047-.094.134-.104t.113.004q.033.012.067.097a.6.6 0 0 1 .146.161q.085.111.091.167a.14.14 0 0 0-.031.084l.004.04a1 1 0 0 1-.016.146 1 1 0 0 1-.054.24q-.034.278-.053.545a5 5 0 0 0 0 .442q.02.176.063.203.05.027.088-.074a4 4 0 0 1 .312-.606q.096-.155.131-.272a.3.3 0 0 1 .034-.132q.037-.1.074-.21a.5.5 0 0 0 .027-.188q-.01-.015.064-.152.074-.136.131-.344.063-.233.215-.321.15-.09.284-.048.141.034.132.171-.01.275-.114.648-.097.366-.241.743a7 7 0 0 1-.282.659.6.6 0 0 0-.096.147q-.04.077-.037.109a.4.4 0 0 1-.06.111 4 4 0 0 1-.137.216 1 1 0 0 1-.181.19.45.45 0 0 1-.245.115.6.6 0 0 1-.275-.018m4.893-.127q-.39.035-.525-.168-.126-.195-.113-.519.031-.156.026-.276.002-.13.054-.167l.005-.025q.014-.025-.013-.047a.9.9 0 0 1 .04-.294q.011-.05.028-.115l.024-.076q-.047-.06-.011-.103a1 1 0 0 1 .071-.08q.044-.045-.001-.089-.02-.03.024-.147.042-.125.1-.26t.073-.21a.6.6 0 0 1 .028-.116l.071-.233.078-.242q.045-.109.057-.143.075-.048-.07-.048-.144 0-.303.025-.247.02-.4.02a.6.6 0 0 1-.247-.046q-.107-.1-.052-.26.054-.166.212-.192.103-.02.158-.025.064-.007.159-.026.101-.027.313-.075l.402-.076.009-.138q.052-.11.073-.144a.2.2 0 0 0 .025-.067l.009-.138.058-.135a.8.8 0 0 0 .056-.288q.079-.17.136-.305l.069-.177q.113-.213.239-.243a.37.37 0 0 1 .262.036.6.6 0 0 1 .146.088q.07.048.096.143.026.085-.046.238-.012.033-.035.125a2 2 0 0 0-.033.14q-.04.06-.099.196a.8.8 0 0 0-.06.256l-.062.176q-.012.033-.044.037.025.078.104.069.08-.017.261-.045.15-.032.203-.054.061-.03.145 0 .046.051.058.162a.6.6 0 0 1-.001.21q-.021.099-.074.129a.6.6 0 0 0-.162.066 1.2 1.2 0 0 1-.297.08l-.417.087-.106.285a4 4 0 0 0-.074.201.5.5 0 0 1-.045.102.34.34 0 0 1-.04.149l-.081.218q-.033.14-.084.259l-.044.117q-.032.004-.026.052.05.09-.009.145a.2.2 0 0 0-.063.08l-.02.042q.036.028.017.079a.5.5 0 0 1-.037.108.6.6 0 0 1-.019.188 2 2 0 0 1-.047.23q.022.142.036.181.012.039.043.028a.4.4 0 0 0 .111-.012 1 1 0 0 1 .103-.02q.112-.069-.051.57-.105.212-.218.353-.112.149-.153.154m2.59-.832q-.164.051-.257.012a2 2 0 0 1-.181-.117.8.8 0 0 1-.25-.15 1 1 0 0 1-.186-.228.4.4 0 0 1-.07-.194 3 3 0 0 1 .061-.618q.076-.339.209-.667.141-.33.329-.592.196-.27.438-.41a.74.74 0 0 1 .337-.085q.185-.005.263.124.144.217-.023.3-.024.003-.053.03-.03.02-.027.051a.5.5 0 0 0 .176-.01q.141-.032.281-.08a.6.6 0 0 0 .19-.101q.045-.03.069-.032t.121.003q.14.024.146.08a.4.4 0 0 0 .035.101q.03.06.062.058.057 0 .036.108-.012.107-.159.235a3 3 0 0 0-.177.148q-.029.028.004.113.081.144.033.366a1.7 1.7 0 0 1-.19.472 2.921 2.921 0 0 1-.781.875q-.225.161-.436.208m-.05-.67a.4.4 0 0 0 .108-.045l.12-.077q.029-.036.072-.08a.3.3 0 0 1 .081-.066q.032-.003.038-.028a.7.7 0 0 1 .042-.125q.037-.1.161-.3.14-.192.176-.3a.35.35 0 0 0-.018-.24q-.012-.03-.052-.035a.4.4 0 0 1-.092-.03q-.08.009-.107.052-.02.034-.116-.027l-.145-.145-.12.15a1.4 1.4 0 0 0-.196.343q-.074.202-.108.406a2 2 0 0 0-.033.358q.004.12.057.155a.23.23 0 0 0 .132.034m-14.113 10.29a.56.56 0 0 1-.263-.052.5.5 0 0 1-.154-.16.4.4 0 0 1-.092-.103q-.012-.039-.008-.072l.072-.007q.03-.012.036-.037-.003-.023.02-.034a.13.13 0 0 1 .064-.007.75.75 0 0 0 .354-.144q.211-.135.451-.363.24-.236.476-.503.177-.293.243-.429.073-.137.067-.2a.24.24 0 0 0-.048-.14q-.038-.06-.158-.047t-.348.2q-.32.251-.505.457a3 3 0 0 0-.337.456l-.124.19-.11.165-.041.07q.003.03-.087.09a.33.33 0 0 1-.146.063 1 1 0 0 1-.093-.046.24.24 0 0 1-.077-.112l-.13-.082q-.053-.043-.064-.146a1 1 0 0 1-.002-.161l.037-.253q.025-.213.056-.441.031-.237.061-.401.038-.174.059-.192l.024-.075a.4.4 0 0 0 .014-.17.7.7 0 0 1 .029-.173.3.3 0 0 0 .029-.107q.029-.028.074-.202t.111-.455a1 1 0 0 1 .039-.157q.041-.14.102-.325.059-.192.118-.391.065-.208.105-.366.08-.145.129-.288.055-.15.109-.18.039-.013.139.017.107.027.218.08a.44.44 0 0 1 .157.112q.027.037.032.077.012.039-.017.138l-.103.31-.208.594q-.17.501-.263.833-.084.331-.139.57-.046.24-.103.455l-.02.18.181-.254q.071-.088.151-.17.08-.08.175-.164a1 1 0 0 1 .156-.114 3 3 0 0 1 .205-.118 1 1 0 0 1 .145-.065q.024-.01.156-.049a1.3 1.3 0 0 1 .275-.062.42.42 0 0 1 .316.094q.148.105.271.268.105.157.111.422.003.257-.088.452a.5.5 0 0 0-.07.097q-.034.051-.031.083-.001.057-.118.247a8 8 0 0 1-.235.348 2.6 2.6 0 0 1-.317.34q-.19.165-.385.308a2 2 0 0 1-.324.197q-.063.015-.18.051-.117.03-.179.052m3.038-.358a.76.76 0 0 1-.475-.367q-.15-.273-.147-.756-.012-.249-.052-.324a.4.4 0 0 0-.137-.154 1 1 0 0 0-.123-.091q-.096-.07-.093-.111a.3.3 0 0 1 .009-.138q.022-.09.046-.101.053-.03.105-.068.06-.039.093-.027.033-.003.1.03.076.03.08.063.038.053.09-.058.06-.111.122-.279.066-.135.173-.26.106-.124.217-.225a2 2 0 0 1 .199-.167 1.9 1.9 0 0 1 .576-.176.6.6 0 0 1 .315.086q.171.095.269.18.111.06.16.208a1 1 0 0 1 .065.298.7.7 0 0 1-.034.278q-.015.082-.143.24-.128.16-.287.314a1.3 1.3 0 0 1-.267.206 2 2 0 0 1-.243.067 2 2 0 0 1-.27.03.6.6 0 0 1-.171-.021q-.06-.026-.093.034-.026.051-.026.276.001.09.016.151.024.063.043.092a.6.6 0 0 0 .127.131q.06.034.209.001.15-.032.282-.216.14-.192.256-.31.026-.059.127-.086a.6.6 0 0 1 .265-.013q.093.046.098.166.013.12-.089.364a.6.6 0 0 1-.117.182q-.092.115-.207.24a1.5 1.5 0 0 1-.182.173.93.93 0 0 1-.456.17 1.3 1.3 0 0 1-.43-.032m.392-1.854q.115-.045.192-.086a.5.5 0 0 0 .156-.121q.071-.08.159-.235.022-.09.015-.155.001-.064-.016-.078-.071-.057-.148-.025a.5.5 0 0 0-.15.097 1 1 0 0 0-.148.121 1.8 1.8 0 0 0-.297.371q-.04.077-.007.09-.012.033.092.03.113-.004.152-.01m2.432 1.552a1.6 1.6 0 0 1-.265.013.3.3 0 0 1-.124-.035l-.113-.076a1 1 0 0 0-.129-.147 2 2 0 0 0-.126-.123 1.2 1.2 0 0 1-.06-.323 3.2 3.2 0 0 1 .111-.898q.025-.067.042-.133l.017-.066q-.004-.04.074-.202.087-.162.188-.342a2 2 0 0 1 .181-.262.8.8 0 0 1 .152-.153 1.2 1.2 0 0 1 .195-.126q.084-.042.23-.106a.8.8 0 0 1 .265-.085.7.7 0 0 1 .243.021q.133.034.233.144.16.128.221.321.061.195.045.342a.5.5 0 0 1-.13.28.45.45 0 0 1-.243.13.32.32 0 0 1-.251-.084.25.25 0 0 1-.043-.1.4.4 0 0 1 .017-.139.8.8 0 0 0 .01-.202q-.01-.087-.081-.08a.23.23 0 0 0-.16.082 3 3 0 0 0-.17.212 3.682 3.682 0 0 0-.27.48q-.064.144-.112.294-.059.273-.074.355l-.008.073a.3.3 0 0 1-.001.064.2.2 0 0 0-.002.057q.01.095.128.139a.3.3 0 0 0 .149.04 1.05 1.05 0 0 0 .45-.307 2 2 0 0 1 .226-.21q.081-.065.125-.11.051-.047.054-.014.004.03.028.029.024-.003.052-.038.04-.069.114-.061.072 0 .132.026.067.025.069.048a.12.12 0 0 0 .045.116.2.2 0 0 1-.014.09.2.2 0 0 1-.039.085q-.033.06-.102.172a3 3 0 0 1-.115.198l-.055.086q-.032-.004-.062.023l-.049.062a1 1 0 0 1-.11.1.2.2 0 0 1-.085.034.4.4 0 0 1-.083.05q-.023.01-.019.042-.072.088-.275.143a4 4 0 0 1-.426.07m2.345-.362a.35.35 0 0 0-.157-.112q-.111-.053-.114-.084t-.05-.091a.4.4 0 0 0-.075-.097q-.045-.042-.002-.233.043-.197.141-.482t.218-.58a1 1 0 0 0 .109-.18 1 1 0 0 1 .08-.146.08.08 0 0 1 .018-.058q.02-.035.052-.038l.05-.134a1 1 0 0 1 .082-.138q.076-.105.184-.23.105-.131.214-.248.115-.119.19-.174a.56.56 0 0 1 .331-.141.5.5 0 0 1 .322.077l.114.084.208.138q.121.075.208.139l.323.23-.091.412q-.069.33.005.563t.197.397a.33.33 0 0 0 .118.124.44.44 0 0 0 .19.043q.064 0 .124.035.06.034.07.12.02.192-.041.287a.25.25 0 0 1-.133.111q-.26.06-.507 0-.249-.062-.479-.407a1.3 1.3 0 0 1-.182-.334 2 2 0 0 1-.16.227q-.502.635-.888.854-.38.21-.669.066m.365-.709q.057.003.169-.074.111-.085.293-.266l.403-.43a2 2 0 0 0 .299-.428l.144-.305a.7.7 0 0 0-.169-.223.2.2 0 0 0-.134-.042q-.103.012-.231.162a2.4 2.4 0 0 0-.285.418 10 10 0 0 0-.329.664 2 2 0 0 0-.122.36zm3.396.199a.6.6 0 0 1-.267-.164.6.6 0 0 1-.124-.316 2 2 0 0 1 .003-.274q.01-.195.04-.44.03-.243.063-.457a1 1 0 0 0 .072-.297 1 1 0 0 0 .012-.179q.006-.097.028-.26.022-.165.048-.295a.7.7 0 0 1 .047-.159q.036-.044.13-.062a.5.5 0 0 1 .194.003q.097.014.138.09.098.084.127.275.037.189-.023.453-.054.167-.102.39-.048.222-.084.411a2 2 0 0 0-.029.245l-.287.023q.121-.141.225-.29.104-.156.151-.242.116-.197.197-.327.09-.14.23-.331a.9.9 0 0 1 .314-.292.8.8 0 0 1 .261-.11.55.55 0 0 1 .331.15q.159.126.222.41.012.11.005.265v.152l.11-.173q.118-.174.319-.397a.6.6 0 0 1 .28-.16q.14-.039.265.068.219.09.345.357t.132.62q-.001.21.037.335.045.115.087.208.118.131.06.25-.06.112-.116.118a1.4 1.4 0 0 1-.242-.006 1 1 0 0 1-.307-.079q-.136-.065-.15-.2l-.054-.493a1.5 1.5 0 0 0-.044-.253q-.018-.087-.052-.107-.093-.039-.207.095a2 2 0 0 0-.241.373q-.12.23-.257.519-.125.263-.213.329a.18.18 0 0 1-.184.012q-.182-.036-.239-.127a.4.4 0 0 1-.034-.23q.025-.138.058-.36.04-.222.073-.426.033-.214.039-.31-.038-.06-.116-.028a.4.4 0 0 0-.143.088q-.088.074-.192.158-.096.082-.213.33l-.178.357q-.1.188-.188.343a1 1 0 0 1-.137.216.5.5 0 0 1-.084.194q-.044.037-.136.007m4.962-.134q-.437.048-.704-.18-.258-.23-.316-.755-.032-.286.034-.64.075-.353.213-.699.148-.345.336-.608.188-.27.392-.39a.6.6 0 0 1 .161-.073.8.8 0 0 1 .18-.044q.095-.011.209-.007a.8.8 0 0 1 .228.023q.19.036.341.18.16.144.194.446.009.08.003.177a.7.7 0 0 1-.036.18q-.075.275-.263.537a1.2 1.2 0 0 1-.523.443.908.908 0 0 1-.426.007 1 1 0 0 1-.253-.101l-.069-.049-.031.084a2 2 0 0 0-.052.263q-.005.105.001.153.01.095.029.198a.35.35 0 0 0 .066.154.24.24 0 0 0 .086.055.34.34 0 0 0 .138.008q.048-.004.087-.01l.078-.024a.55.55 0 0 0 .219-.128q.088-.09.184-.157l.031-.02-.011-.023a2 2 0 0 1 .173-.107 1 1 0 0 0 .067-.048.1.1 0 0 1 .069-.04.28.28 0 0 1 .221.04q.12.06.132.171.005.048-.055.159a1.1 1.1 0 0 1-.327.398.2.2 0 0 0-.045.03.2.2 0 0 0-.045.028h.008q-.061.102-.133.11l-.063.008q-.026.058-.194.142a.9.9 0 0 1-.334.109m.203-1.962a.3.3 0 0 0 .125-.038 1 1 0 0 0 .113-.069.6.6 0 0 0 .208-.377q.032-.22-.075-.322a.1.1 0 0 0-.044-.027.1.1 0 0 0-.057-.01.46.46 0 0 0-.193.078.9.9 0 0 0-.189.181 1.4 1.4 0 0 0-.164.268l-.085.178a.1.1 0 0 1 .023-.01.1.1 0 0 1 .023-.01q.071-.009.101.036.028.045.066.09.045.044.148.032m-17.154 11.509a2 2 0 0 1-.175-.126q-.089-.079-.083-.24 0-.226.021-.397.02-.18.052-.408.006-.097.044-.335.046-.238.112-.52.066-.28.143-.53.076-.257.143-.386.078-.09.245-.107.175-.019.246.037.095.062.084.248-.013.179-.163.574-.029.1-.081.218a1 1 0 0 0-.06.184q-.017.066.022.053a.8.8 0 0 1 .153-.218q.114-.132.245-.26.131-.127.249-.228t.163-.131a.6.6 0 0 1 .136-.08q.084-.04.114-.06a.7.7 0 0 1 .39-.107q.225-.008.286.105.015.063.058.09l.051.027q.032-.004.034.02l.011.023q.006.055-.094.172a.35.35 0 0 1-.218.136.6.6 0 0 0-.179.06l-.182.1q-.283.21-.515.37a2.1 2.1 0 0 0-.447.468q-.049.07-.107.133a.7.7 0 0 0-.109.173.45.45 0 0 0-.061.184 8 8 0 0 0-.043.27q-.01.122-.008.146l-.015.082a.5.5 0 0 1-.064.152.43.43 0 0 1-.173.18q-.084.04-.225-.072m2.956-.373a.5.5 0 0 1-.141-.033l-.109-.036a.2.2 0 0 0-.032-.077.3.3 0 0 1-.025-.078.4.4 0 0 1-.122-.091.16.16 0 0 1-.042-.157q.039-.092.099-.276.067-.192.138-.426.079-.24.142-.466l.111-.382q.047-.166.051-.199a1 1 0 0 1-.004-.112q.006-.081.088-.147a.19.19 0 0 1 .214-.031.5.5 0 0 1 .215.201.76.76 0 0 1 .119.35q.006.055-.048.295-.056.232-.156.556a10 10 0 0 1-.218.66 4 4 0 0 1-.147.346q-.046.094-.133.103m.747-3.164a.45.45 0 0 1-.24-.063 1 1 0 0 1-.255-.197.47.47 0 0 1-.135-.275q-.004-.04.056-.151l.112-.23a.5.5 0 0 0 .058-.127.6.6 0 0 1 .154.008q.09.014.149.04.11.189.268.316.159.12.177.295.02.174-.058.272-.08.088-.286.111m1.289 3.142a1.6 1.6 0 0 1-.265.013.3.3 0 0 1-.124-.035l-.113-.076a1 1 0 0 0-.129-.147 2 2 0 0 0-.126-.123 1.2 1.2 0 0 1-.06-.323q-.006-.209.023-.454.03-.244.088-.444a1 1 0 0 0 .042-.133l.017-.066q-.004-.04.074-.202.087-.162.188-.342.11-.181.181-.262a.8.8 0 0 1 .152-.153q.111-.086.195-.126.084-.042.23-.106a.8.8 0 0 1 .264-.085.7.7 0 0 1 .244.021q.133.034.233.144.16.127.221.322t.045.34a.5.5 0 0 1-.13.28.45.45 0 0 1-.243.132.32.32 0 0 1-.251-.085.25.25 0 0 1-.043-.1.4.4 0 0 1 .017-.139.8.8 0 0 0 .01-.202q-.01-.088-.081-.08a.23.23 0 0 0-.16.082 3 3 0 0 0-.17.212 3.685 3.685 0 0 0-.27.48q-.064.144-.112.294-.059.273-.074.354l-.008.074a.3.3 0 0 1-.001.064.2.2 0 0 0-.002.057q.01.095.128.139.093.045.149.04a1.06 1.06 0 0 0 .449-.307q.108-.117.227-.21.081-.066.125-.11.051-.047.054-.015t.028.03.052-.038q.04-.07.114-.061.072 0 .132.026.067.024.069.048a.12.12 0 0 0 .045.116.3.3 0 0 1-.014.09.2.2 0 0 1-.039.085l-.102.172a4 4 0 0 1-.115.198l-.055.086q-.032-.004-.062.023l-.049.062a1 1 0 0 1-.11.1.3.3 0 0 1-.085.034.4.4 0 0 1-.083.05q-.023.01-.02.042-.07.088-.274.143a4 4 0 0 1-.426.07m5.029-.545a2 2 0 0 1-.312.091.31.31 0 0 1-.289-.065l-.149-.185q-.065-.081-.105-.302-.025-.15-.02-.328a1 1 0 0 0-.005-.265q.031-.3-.015-.425-.038-.124-.077-.12-.09-.007-.264.158a4.5 4.5 0 0 0-.393.453q-.22.282-.47.64-.128.223-.188.334-.054.102-.085.106a.7.7 0 0 1-.268-.019.5.5 0 0 1-.206-.114.4.4 0 0 1-.107-.174 1 1 0 0 1 .021-.17 13 13 0 0 1 .06-.337l.066-.354q.038-.165.055-.231.05-.214.112-.52l.125-.552a3 3 0 0 1 .079-.307l.115-.415q.058-.207.079-.306l.063-.233q.046-.173.095-.38.058-.208.103-.382.053-.183.068-.265a.3.3 0 0 1-.006-.128.4.4 0 0 1 .037-.1l.072-.008.039-.013q-.002-.015.107.02.116.036.227.096.118.052.124.1a.5.5 0 0 1 .038.269 3 3 0 0 1-.114.504 1.6 1.6 0 0 0-.133.4 4 4 0 0 1-.112.447q-.026.06-.074.21l-.099.34q-.052.192-.101.406-.048.215-.083.42-.059.199-.027.26.03.06.175-.164.196-.263.366-.475.179-.213.333-.342.161-.14.299-.138a.5.5 0 0 1 .194.084q.127.067.243.166.123.09.165.183.045.108.064.21.027.102.04.294.012.184.02.553-.018.276-.021.396-.004.114.026.159.036.044.107.093.129.081.12.22a.27.27 0 0 1-.114.205m-8.747 8.824q-.119.013-.257-.149a1.6 1.6 0 0 1-.24-.424 1.7 1.7 0 0 1-.104-.512 3 3 0 0 1-.021-.408q.014-.163.03-.317a.2.2 0 0 0 .015-.082 1 1 0 0 0 .004-.106l.03-.244q.017-.14.039-.23a.7.7 0 0 1 .051-.126.36.36 0 0 1 .198-.175.27.27 0 0 1 .217 0q.11.045.138.154.051.034.067.178.024.134.016.288a.5.5 0 0 1-.049.215 1.3 1.3 0 0 0-.017.21q.002.17-.002.355.005.185-.007.299-.007.145.036.18.05.027.151-.088.108-.124.268-.424.132-.255.189-.4.065-.142.092-.259a5 5 0 0 0 .124-.488.5.5 0 0 1 .059-.12q.073-.135.22-.128.153 0 .255.053.105.084.14.25a.6.6 0 0 1-.033.357q-.05.135-.094.317-.038.18-.057.36-.013.178.001.306.018.159.061.186a.25.25 0 0 0 .114.012.3.3 0 0 0 .175-.084q.08-.08.228-.274a2 2 0 0 0 .151-.234q.088-.154.166-.324.086-.171.136-.297a.5.5 0 0 0 .055-.167q-.006-.048.056-.143l.061-.103a.4.4 0 0 1 .103-.092.2.2 0 0 1 .142-.024.24.24 0 0 1 .144.065q.043.028.073.153.038.117.048.212l-.045.254a5 5 0 0 1-.071.306.7.7 0 0 1-.067.193l-.099.131a1.2 1.2 0 0 0-.124.19 3 3 0 0 1-.252.342 2 2 0 0 0-.136.152 1.4 1.4 0 0 1-.352.312q-.204.12-.394.156a.48.48 0 0 1-.31-.038q-.26-.1-.293-.403a.3.3 0 0 0-.036-.108l-.022-.054a.4.4 0 0 0-.086.025q-.046.021-.091.123a1 1 0 0 1-.216.306 2.3 2.3 0 0 1-.317.268.7.7 0 0 1-.261.117m3.665-.298a.4.4 0 0 1-.117-.18 1 1 0 0 1-.043-.245.5.5 0 0 1 .019-.195.2.2 0 0 1 .006-.098q.019-.042.008-.073-.012-.03.003-.113l.032-.156q.041-.135.091-.34l.098-.43q.048-.222.079-.378l.035-.197q-.01-.096.116-.118.092-.042.239.055a1 1 0 0 1 .241.214q.07.057.066.162t-.071.306q-.025.067-.056.223-.024.148-.03.245a3 3 0 0 0-.059.192 4 4 0 0 0-.048.222.7.7 0 0 0-.015.155 4 4 0 0 1-.017.219.5.5 0 0 1-.044.182q-.036.333-.213.41-.168.075-.32-.062m.509-3.283a.5.5 0 0 1-.152-.136.7.7 0 0 1-.066-.162q-.008-.072.007-.09a.7.7 0 0 0 .109-.245 2.4 2.4 0 0 1 .14-.345q.026-.051.057-.063.089-.074.263-.02a.53.53 0 0 1 .277.17.5.5 0 0 1 .073.306.7.7 0 0 1-.13.352.55.55 0 0 1-.279.24q-.179.06-.299-.007m2.082 3.184a.7.7 0 0 1-.235-.087 3 3 0 0 1-.251-.158 1 1 0 0 1-.16-.216 1 1 0 0 1-.076-.249l-.042-.382a2 2 0 0 1 .002-.273q.02-.18.04-.375.027-.195.051-.343a3 3 0 0 0 .026-.205q.012-.105-.093-.11a1 1 0 0 0-.232.017.35.35 0 0 1-.161-.006q-.032-.005-.041-.076l-.008-.08q-.004-.03-.037-.036a.14.14 0 0 1-.061-.05q-.02-.03.026-.123a.22.22 0 0 1 .132-.12q.07-.023.212-.047a2 2 0 0 0 .28-.087.5.5 0 0 0 .215-.168q.053-.184.118-.391.066-.217.128-.377.062-.168.09-.21a.47.47 0 0 1 .272-.087.27.27 0 0 1 .237.11 1 1 0 0 0 .073.073q.034.02.031.07a.5.5 0 0 1-.044.181 8 8 0 0 1-.15.395l-.056.15-.025.06a.4.4 0 0 0 .096-.002 2 2 0 0 0 .158-.026q.086-.025.188-.045a.5.5 0 0 1 .183-.02q.183-.02.282.074a.43.43 0 0 1 .124.252q.025.086-.047.158t-.287.096a4 4 0 0 0-.206.03l-.277.047a3 3 0 0 0-.244.05q-.095.02-.092.035a.4.4 0 0 0-.066.136 4 4 0 0 0-.076.266l-.056.296a5 5 0 0 0-.022.533q.005.257.041.447a.5.5 0 0 0 .124.252q.08.063.215-.024.143-.096.258-.213.13-.135.239-.099.108.029.147.161.045.124-.042.286a.8.8 0 0 1-.242.284 1.2 1.2 0 0 1-.342.183.6.6 0 0 1-.317.043m4.45-.594a2 2 0 0 1-.312.091.31.31 0 0 1-.289-.065l-.149-.185q-.065-.081-.105-.302-.025-.15-.02-.328a1 1 0 0 0-.005-.265q.031-.3-.015-.425-.038-.124-.077-.12-.09-.007-.265.158-.167.163-.392.453-.22.282-.47.64-.128.222-.188.334-.054.102-.085.106a.7.7 0 0 1-.268-.02.5.5 0 0 1-.206-.113.4.4 0 0 1-.107-.174 1 1 0 0 1 .021-.171q.024-.147.06-.337l.066-.353q.038-.165.055-.231.05-.214.112-.52l.125-.552q.02-.108.079-.307l.115-.415q.058-.207.079-.306.017-.067.063-.233.046-.174.095-.38.058-.208.103-.382.053-.183.068-.265a.3.3 0 0 1-.006-.128.4.4 0 0 1 .037-.1l.072-.008.039-.013q-.002-.015.107.02.116.036.227.096.118.052.124.1a.5.5 0 0 1 .037.269 3 3 0 0 1-.113.503 1.6 1.6 0 0 0-.133.401 4 4 0 0 1-.112.447 2 2 0 0 0-.074.21l-.1.34q-.05.192-.1.406-.049.215-.083.42-.058.199-.028.26.031.06.176-.164.196-.263.366-.475.179-.213.333-.342.161-.14.299-.138a.5.5 0 0 1 .194.084q.127.066.243.166.123.09.165.183.045.108.064.21.027.102.04.294.012.184.02.553-.018.276-.021.396-.004.114.026.159.036.044.106.093.13.082.121.22a.27.27 0 0 1-.114.205m1.573-.18q-.164.05-.257.012a2 2 0 0 1-.181-.117.8.8 0 0 1-.25-.15 1 1 0 0 1-.186-.229.4.4 0 0 1-.07-.193 3 3 0 0 1 .061-.619q.076-.338.209-.667.141-.33.329-.591.196-.27.438-.41a.75.75 0 0 1 .337-.086q.185-.004.263.125.144.218-.023.3a.1.1 0 0 0-.053.03q-.03.02-.027.051a.5.5 0 0 0 .176-.011 3 3 0 0 0 .281-.08.6.6 0 0 0 .19-.1q.045-.03.069-.033.024-.002.121.003.14.026.146.08a.4.4 0 0 0 .035.102q.03.06.062.057.057.002.037.109-.013.105-.16.235a3 3 0 0 0-.177.148q-.029.027.005.112a.52.52 0 0 1 .032.367 1.7 1.7 0 0 1-.19.471 2.921 2.921 0 0 1-.781.874q-.225.162-.436.21m-.05-.671a.4.4 0 0 0 .108-.044l.12-.078a1 1 0 0 1 .072-.08.3.3 0 0 1 .081-.065q.032-.004.038-.028a.7.7 0 0 1 .042-.126q.038-.1.161-.3.14-.191.176-.3a.35.35 0 0 0-.018-.24q-.012-.03-.052-.034a.4.4 0 0 1-.092-.03q-.08.009-.107.052-.02.035-.116-.028l-.145-.145-.12.15a1.4 1.4 0 0 0-.196.344 2.2 2.2 0 0 0-.108.406 2 2 0 0 0-.033.358q.005.12.057.154a.23.23 0 0 0 .132.034m2.708.161a2 2 0 0 1-.292-.25q-.129-.138-.202-.444a1.5 1.5 0 0 1-.012-.4 4 4 0 0 1 .085-.55q.064-.296.149-.547a1.3 1.3 0 0 1 .184-.374.7.7 0 0 1 .218-.217.36.36 0 0 1 .31-.034.43.43 0 0 1 .119.276.55.55 0 0 1-.052.336 2.2 2.2 0 0 0-.219.571q-.076.33-.088.59a.8.8 0 0 0-.016.29q.018.096.124.108.156.023.301-.122.153-.145.277-.408a3 3 0 0 0 .216-.595q.036-.117.043-.27.015-.155.039-.23a.5.5 0 0 1 .108-.262.46.46 0 0 1 .202-.143q.108-.036.17.006.075.024.162.087t.091.247a.94.94 0 0 1-.072.515q-.104.22-.167.461a2 2 0 0 1-.188.415q-.133.24-.297.443a1 1 0 0 1-.299.283 1.1 1.1 0 0 1-.434.224q-.228.05-.46-.006m2.983-.037a.43.43 0 0 1-.202-.083 2 2 0 0 1-.214-.186.8.8 0 0 1-.125-.187q-.001-.016-.028-.037l-.019-.022q-.034-.02-.062-.203a4 4 0 0 1-.022-.424 3 3 0 0 1 .015-.372 8 8 0 0 1 .082-.355q.055-.23.092-.412l.164-.485-.328-.053a.2.2 0 0 1-.102-.053.16.16 0 0 1-.041-.076.4.4 0 0 1 .052-.19q.059-.128.09-.131.04.004.144-.008.112-.013.214-.031a1 1 0 0 0 .125-.03 1 1 0 0 0 .06-.047.2.2 0 0 0 .038-.093 1 1 0 0 1 .056-.143q.027-.051.072-.153.045-.11.069-.184a4 4 0 0 1 .17-.357.45.45 0 0 1 .325-.261.32.32 0 0 1 .294.04.3.3 0 0 1 .088.143q.016.071-.043.19a1.3 1.3 0 0 1-.124.263q-.068.112-.125.256-.108.189-.026.204t.442-.081q.227-.065.339.011.112.075.144.21.045.188-.015.234-.059.047-.361.08a3 3 0 0 1-.322.076l-.199.022q-.102.019-.134.023a.5.5 0 0 0-.094.026.17.17 0 0 0-.089.066.6.6 0 0 0-.045.102.7.7 0 0 0-.077.177 4 4 0 0 1-.127.312q-.075.345-.12.665-.039.31-.061.618a.43.43 0 0 0 .032.222q.047.06.215.057.088-.001.255-.028.165-.035.273-.078.083-.05.174-.1.09-.059.165-.114l.134-.096.066-.055q.033-.069.114.011a.45.45 0 0 1 .131.163.8.8 0 0 1-.015.235q-.025.132-.264.303a1.8 1.8 0 0 1-.686.349 1.9 1.9 0 0 1-.564.07m-15.045 9.66a.43.43 0 0 1-.239-.047.6.6 0 0 1-.206-.194.75.75 0 0 1-.108-.327 2 2 0 0 1 .003-.338q.023-.228.074-.571.004-.114.008-.146a.13.13 0 0 0 .009-.066q-.001-.015-.01-.023-.002-.015-.018-.014-.064.007-.165.107-.095.09-.218.217a1 1 0 0 0-.102.1 1 1 0 0 1-.05.054 3 3 0 0 0-.227.21q-.144.152-.302.323a7 7 0 0 1-.267.286l-.102.092q-.036.036-.052.038a1 1 0 0 1-.132-.026 1 1 0 0 1-.221-.104.27.27 0 0 1-.117-.189 1.5 1.5 0 0 1 .024-.292q.04-.222.12-.528.078-.307.189-.625a.7.7 0 0 0 .026-.196l.007-.234a.34.34 0 0 1 .06-.184.14.14 0 0 1 .05-.061.15.15 0 0 1 .077-.033.3.3 0 0 1 .155.023.4.4 0 0 1 .148.097.47.47 0 0 1 .16.288q.035.165.012.329t-.059.272q-.038.1-.039.084a.4.4 0 0 0 .079-.089q.057-.07.198-.174.189-.181.294-.258.104-.083.155-.122a.6.6 0 0 0 .104-.083.4.4 0 0 1 .051-.046l.023-.01a.2.2 0 0 0 .076-.041.3.3 0 0 1 .116-.045.4.4 0 0 1 .171.021.4.4 0 0 1 .162.079q.07.048.077.112a.05.05 0 0 0 .02.038q.018.015.036.036.045.044.102.126.064.073.085.256.013.128-.015.38-.029.254-.066.498a1.7 1.7 0 0 0-.02.405q.023.142.056.22a.4.4 0 0 1 .037.116q.007.063-.047.158-.055.087-.182.1m1.651-.206a.3.3 0 0 1-.171-.021 3 3 0 0 1-.156-.096 1.5 1.5 0 0 1-.284-.315.54.54 0 0 1-.098-.311.25.25 0 0 0 .003-.121l-.007-.064q-.044-.034-.029-.045a.2.2 0 0 0 .026-.051q.048-.005.023-.09-.024-.063.018-.277.048-.222.146-.426.039-.085.121-.223.08-.145.178-.285.104-.148.191-.238.18-.19.336-.31.163-.123.334-.182.171-.06.354-.08a.4.4 0 0 1 .324.094q.19.06.278.187.094.126.141.338.05.237.017.594-.034.35-.302.838a2.3 2.3 0 0 1-.341.488q-.174.18-.389.34a.8.8 0 0 1-.343.175q-.189.045-.37.081m.705-1.06a.85.85 0 0 0 .21-.36q.06-.192.12-.448a.34.34 0 0 0 .022-.163 1 1 0 0 0-.015-.216q-.02-.11-.07-.121-.077-.048-.146-.008a.8.8 0 0 0-.171.123q-.218.225-.395.51a1.5 1.5 0 0 0-.21.66q-.002.2.073.297.082.087.229.031.154-.065.353-.304m2.434 1.255q-.391.034-.526-.168-.126-.195-.113-.519.031-.156.026-.276.002-.13.054-.167l.005-.025q.014-.026-.013-.047a.9.9 0 0 1 .04-.294l.028-.116.024-.075q-.047-.06-.011-.103a1 1 0 0 1 .071-.08q.044-.045-.001-.089-.02-.03.024-.147.042-.126.1-.26.057-.135.074-.21a.5.5 0 0 1 .027-.116l.071-.233.078-.242q.045-.109.057-.143.075-.048-.07-.048-.144 0-.303.025-.247.02-.4.02a.6.6 0 0 1-.246-.046q-.108-.1-.053-.26.054-.166.212-.192.103-.02.158-.025.064-.008.159-.026.101-.027.313-.075l.402-.076.009-.138a3 3 0 0 1 .073-.144.2.2 0 0 0 .025-.068l.009-.137.058-.136a.8.8 0 0 0 .057-.287q.078-.17.135-.305l.069-.177q.114-.213.239-.243a.37.37 0 0 1 .262.035q.075.032.146.09.07.047.096.141.026.087-.046.239-.012.033-.035.124a2 2 0 0 0-.033.14q-.04.062-.099.197a.9.9 0 0 0-.06.256l-.061.176q-.013.033-.045.037.025.078.104.069.08-.017.261-.045.15-.033.203-.054.061-.03.145 0 .046.051.058.162a.6.6 0 0 1-.001.21q-.021.099-.074.129a.6.6 0 0 0-.162.066 1.1 1.1 0 0 1-.297.08l-.417.087-.106.285q-.044.11-.074.201a.5.5 0 0 1-.045.102.34.34 0 0 1-.04.149l-.081.218q-.033.14-.084.259l-.044.117q-.032.005-.026.051.05.092-.008.146a.2.2 0 0 0-.064.08l-.02.042q.036.028.017.079a.6.6 0 0 1-.036.108.7.7 0 0 1-.02.188 2 2 0 0 1-.047.23q.022.142.036.181.012.039.043.028a.4.4 0 0 0 .111-.012q.071-.016.103-.02.112-.069-.051.57-.105.212-.218.353-.113.149-.152.154m2.117-1.022q-.054.014-.131-.025a2 2 0 0 0-.13-.083.8.8 0 0 1-.13-.155.4.4 0 0 1-.049-.155 2 2 0 0 1-.007-.209q.027-.131.058-.352.033-.22.085-.476.006-.097.031-.229.033-.14.068-.265l.05-.199q.034-.204.07-.393.044-.19.105-.438t.148-.629l.184-.744.09-.356q.028-.108.037-.173-.007-.063.075-.129a.3.3 0 0 1 .16-.082q.112-.004.229.112a.7.7 0 0 1 .176.278.43.43 0 0 1-.02.332q-.096.3-.184.672l-.162.727q-.081.363-.168.67a.6.6 0 0 1-.041.141 2 2 0 0 1-.105.293l-.017.059a2 2 0 0 1-.048.295l-.013.106a1 1 0 0 0-.01.13q.034-.052.099-.124.064-.08.164-.195.115-.125.202-.215a2 2 0 0 1 .175-.165l.146-.136.073-.065a1 1 0 0 0 .026-.059.1.1 0 0 1 .043-.045.3.3 0 0 1 .052-.046l.072-.072a.8.8 0 0 1 .304-.162 1 1 0 0 1 .166-.035.33.33 0 0 1 .207.058q.11.06.214.186a.5.5 0 0 1 .122.236q.039.132.048.365.007.063-.013.243l-.019.268-.042.278.063-.007a.26.26 0 0 1 .166-.026l.09.014a.4.4 0 0 1 .078.048.4.4 0 0 0 .077.04q.054.057.004.184a.4.4 0 0 1-.125.183 1 1 0 0 1-.324.196.43.43 0 0 1-.309-.022.54.54 0 0 1-.233-.224 1.2 1.2 0 0 1-.083-.385 14 14 0 0 0-.015-.506q-.01-.159-.097-.15a.6.6 0 0 0-.252.124q-.15.105-.331.286a5 5 0 0 0-.36.386 4 4 0 0 0-.301.411 4 4 0 0 1-.18.261.4.4 0 0 1-.258.15m4.046-.146q-.191.021-.356-.162a1.1 1.1 0 0 1-.221-.475q0-.064-.004-.184l.004-.25.045-.4a17 17 0 0 1 .067-.49q.037-.255.065-.434.029-.188.032-.22.036-.117.209-.08t.313.207q.054.06.072.145a.7.7 0 0 1 .004.257 6 6 0 0 1-.073.507q-.053.328-.079.532-.018.195.013.41.007.368-.009.507-.018.13-.082.13m.37-3.38a.1.1 0 0 1-.061.03.5.5 0 0 1-.093-.038.36.36 0 0 1-.151-.056 2 2 0 0 1-.159-.127q-.063-.065-.065-.081a1.26 1.26 0 0 1 .032-.591q.054-.168.172-.188a.6.6 0 0 1 .139.017q.114.019.239.054.077.113.153.297a.7.7 0 0 1 .049.373q-.02.179-.255.31m3.16 2.968a.42.42 0 0 1-.238-.046.6.6 0 0 1-.207-.195.75.75 0 0 1-.108-.326 2 2 0 0 1 .003-.338q.023-.228.074-.572.004-.113.009-.145.012-.035.008-.066-.001-.015-.01-.023-.001-.015-.018-.014-.063.007-.165.107a10 10 0 0 0-.218.217q-.022.018-.051.046a1 1 0 0 1-.05.053 1 1 0 0 1-.051.054 3 3 0 0 0-.226.21l-.303.323a8 8 0 0 1-.266.287 2 2 0 0 1-.103.092q-.037.035-.052.038a1 1 0 0 1-.132-.026 1 1 0 0 1-.22-.105.27.27 0 0 1-.118-.188 1.5 1.5 0 0 1 .025-.292q.04-.222.119-.529.08-.306.189-.624a.7.7 0 0 0 .027-.196l.006-.234a.33.33 0 0 1 .061-.184.14.14 0 0 1 .049-.062.16.16 0 0 1 .077-.032.3.3 0 0 1 .155.023q.075.024.148.096a.46.46 0 0 1 .16.289q.034.165.012.328-.022.165-.059.272-.036.102-.039.085a.4.4 0 0 0 .079-.089q.057-.07.198-.175a3 3 0 0 1 .294-.257q.103-.084.156-.122a.6.6 0 0 0 .103-.084.4.4 0 0 1 .051-.046l.023-.01a.2.2 0 0 0 .076-.04.3.3 0 0 1 .116-.046.4.4 0 0 1 .172.022q.09.022.161.079.07.049.077.112a.05.05 0 0 0 .02.038q.018.015.036.036.045.044.103.126.064.073.084.256.013.128-.015.38-.029.252-.066.498a1.7 1.7 0 0 0-.02.405q.024.142.056.219a.4.4 0 0 1 .037.117q.007.063-.047.158-.054.085-.182.1m2.33 1.362q-.135.087-.37.073a1.5 1.5 0 0 1-.463-.11 1.2 1.2 0 0 1-.378-.224.9.9 0 0 1-.244-.384q-.026-.093.026-.132a.3.3 0 0 1 .162-.066.6.6 0 0 1 .177.005q.083.015.086.047.096.07.182.117a.8.8 0 0 0 .177.077.27.27 0 0 0 .201-.006.4.4 0 0 0 .164-.123.9.9 0 0 0 .086-.235q.042-.133.056-.303l.012-.106q.044-.408.085-.766.048-.368.087-.533a.19.19 0 0 0-.084.041l-.09.059-.091.058a2 2 0 0 1-.173.107q-.077.032-.139.056a.4.4 0 0 1-.148.04 1 1 0 0 0-.081.001.6.6 0 0 1-.212-.025.8.8 0 0 1-.229-.111.5.5 0 0 1-.119-.132.6.6 0 0 1-.058-.163 2 2 0 0 1-.027-.174q-.013-.12.081-.435.093-.325.307-.646a2.2 2.2 0 0 1 .365-.346q.23-.178.473-.31.25-.139.417-.158a.4.4 0 0 1 .072 0 .2.2 0 0 1 .092.03.64.64 0 0 1 .287.122 1.04 1.04 0 0 1 .404.527 1 1 0 0 1 .081.297.5.5 0 0 1-.023.228q-.03.092-.069.112a.1.1 0 0 1-.037.028.3.3 0 0 0-.055.014.3.3 0 0 0-.061.023.3.3 0 0 0-.086.098.7.7 0 0 0-.058.208l-.007.081a1 1 0 0 1-.015.082q0 .008-.02.042a.2.2 0 0 0-.017.067.3.3 0 0 1-.021.099l-.024.075a.2.2 0 0 0-.002.056l.004.032-.023.091a2 2 0 0 1-.032.148 1 1 0 0 0-.007.082l-.014.162q-.006.09-.021.18l-.013.17a2 2 0 0 1-.023.163q-.098.72-.242 1.097-.135.378-.308.493m-.807-3.034q.035.173.311.119.274-.063.583-.402.123-.127.211-.281a.8.8 0 0 0 .119-.31q.025-.133-.003-.178-.023-.053-.143-.048a.8.8 0 0 0-.318.107 2 2 0 0 0-.322.22.6.6 0 0 1-.155.203.3.3 0 0 1-.091.05l.017.006a.976.976 0 0 1-.133.256.7.7 0 0 0-.067.12.3.3 0 0 0-.009.138"/><path fill="#bbb" d="M45.69 159.361H19.14L3.45 178.688h28.362z"/><path fill="#b4b49e" d="M45.69 159.361H19.14L3.45 178.688h28.362zM87.932 133.391H61.38l-15.69 25.366h28.363zM250.863 133.391h-26.552l-15.689 26.574h28.362zM289.484 150.302l-13.276-14.495-13.276 24.158h28.362zM100.001 159.965H73.449l-15.69 19.327h28.363zM154.311 160.569H127.76l-15.69 18.119h28.362zM208.622 161.173H182.07l-15.69 18.119h28.363zM262.932 161.777H236.38l-15.689 16.911h28.362zM297.329 159.965H285.26l-10.259 19.327h28.362v-11.475z"/><path fill="#f8f8f6" d="M247.243 180.481v-26.574s8.595 4.451 14.482 4.228c5.213-.199 12.673-4.228 12.673-4.228l-1.207 26.574z"/><path fill="#f8f8f6" d="m251.467 155.115-16.897-35.03 6.035-3.02 39.827 18.119-9.051 18.119s-5.418 1.997-9.052 2.416c-4.221.485-10.862-.604-10.862-.604"/><path stroke="#121212" stroke-linecap="round" d="M273.854 152.766c0 .744.029 1.271.072 2.403.038.989.015 2.822.029 3.88.017 1.288.072 2.525.087 4.128.006.775.072 2.239.058 4.276-.01 1.358-.13 2.222-.174 2.873-.057.855-.186 2.005-.26 3.813-.044 1.087-.129 2.36-.173 3.471-.014.249-.043.364-.058.594-.014.231-.014.574-.014.928M246.47 153.547v4.259c0 3.058 0 8.553-.014 11.441-.015 3.003-.072 3.578-.087 4.33a41 41 0 0 0-.144 2.122c-.015.703-.015 1.963-.015 3.26M246.73 152.853c.461.23 1.208.747 2.063 1.299a31 31 0 0 0 2.788 1.576c.726.353 2.045.766 2.916 1.041 1.316.416 2.74.361 3.583.435 1.632.141 4.304.015 5.283-.072 1.854-.164 2.574-.664 3.64-.967 1.495-.426 2.024-.738 2.588-.898.494-.139.939-.36 1.602-.649.631-.287 1.186-.636 1.503-.939.146-.132.26-.217.465-.393M270.648 162.567c.028.086.057.172.072 1.633a402 402 0 0 1 0 5.811c-.014 1.517-.043 1.631.014 1.749"/><path stroke="#121212" stroke-linecap="round" d="M280.786 134.986c-.028.172-.057.344-.815 1.863a328 328 0 0 1-3.083 5.957c-.952 1.79-1.385 2.468-2.104 3.906-1.165 2.332-1.854 3.971-1.969 4.288-.19.524-.606 1.069-.953 1.562a8 8 0 0 1-.506.896 1.6 1.6 0 0 0-.189.436M237.718 116.881c.686.458 1.373.916 2.813 1.91 1.44.995 3.614 2.512 4.876 3.365 1.526 1.03 2.415 1.515 3.725 2.308 1.58.956 2.709 1.465 3.756 1.996 2.405 1.221 4.354 1.955 4.873 2.128.851.284 2.334.836 4.761 1.503.935.257 1.91.376 2.833.608.574.143 2.102.403 4.181.822.935.219 1.455.335 2.046.436.249.044.392.072.539.189M239.451 116.621c.801.401 2.643 1.237 4.881 2.234.811.361.951.453 2.026.898s3.076 1.246 4.179 1.702c1.255.519 1.679.716 2.884 1.161 2.49.919 4.226 1.752 4.672 1.982.609.316 2.23.864 4.193 1.731 1.071.473 2.429 1.129 4.204 1.851.965.392 1.554.698 3.047 1.286 1.156.456 3.093 1.304 4.238 1.775 1.42.583 2.383.988 3.537 1.566 1.302.651 1.97.985 2.519 1.246.145.058.288.115.419.173.131.059.245.116.363.175M235.032 119.136c.171.115.832.575 2.041 1.382 1.29.861 2.918 1.678 4.333 2.429 1.027.546 1.967 1.187 2.981 1.724 1.011.536 2.023.941 2.816 1.416.92.551 1.806.941 2.883 1.372 2.12.847 3.547 1.651 3.878 1.824a21.5 21.5 0 0 0 3.061 1.272c1.16.364 2.323.838 3.494 1.228.436.145 1.426.505 3.068.981 2.569.744 3.187.971 4.255 1.203.723.231 1.446.347 1.835.362.189.014.361.043.624.159M233.558 120.264c.458.572 1.523 2.212 2.88 4.494.816 1.373 1.419 2.754 2.199 4.111.301.524.379.729.967 1.733.587 1.005 1.674 2.808 2.291 3.866.758 1.3 1.221 2.296 1.813 3.466.496.982.854 1.868 1.344 2.793 1.165 2.197 1.33 2.836 1.576 3.471.649 1.675 1.227 3.349 1.502 4.135.313.893.592 1.877.852 2.544.227.581.462 1.099.694 1.562.226.453.548.838.794 1.301.072.116.158.231.231.347s.13.231.275.522"/><path stroke="#515356" stroke-linecap="round" d="M268.617 159.788c0 .21-.629 3.516-1.581 8.492-.428 2.678-.746 4.052-.932 5.456-.027.347-.027.661-.027.985M253.379 124.839a173 173 0 0 0 9.091 4.285c1.277.427 2.331.849 3.419 1.247.239.08.449.133.823.346"/><path fill="#f8f8f6" d="M46.294 131.56c0-4.537 6.033-3.794 10.259-5.436 4.53-1.759 12.069-3.019 12.069-3.019l15.086 24.762-25.948 1.208s-11.466-13.891-11.466-17.515"/><path stroke="#121212" stroke-linecap="round" d="M59.054 147.838c1.455-.686 3.896-1.5 6.788-2.401 3.3-1.029 5.37-1.211 5.734-1.232.406-.064 1.859-.108 3.856-.087.763.022 1.018.064 1.41.108M68.335 147.451c2.094-.17 4.849-.516 6.03-.623 2.08-.188 2.946.107 3.74.364 1.233.398 2.042.43 2.73.753q.516.162 1.031.387c.173.065.343.108.776.151"/><path stroke="#121212" stroke-linecap="round" d="M57.765 148.225c-.3-.127-1.58-1.323-2.362-2.319-.564-.72-1.116-1.29-1.76-2.278-.603-.924-1.29-1.549-1.891-2.238-.511-.584-1.03-1.331-1.59-2.149-.43-.629-1.2-1.501-1.912-2.473-.623-.851-1.096-1.913-1.398-2.602-.298-.68-.386-1.504-.366-3.092.015-1.21 1.56-2.236 2.532-2.972.597-.453 2.205-.772 4.773-1.587 5.59-1.773 6.634-1.596 7.43-1.876.764-.268 1.994-.407 3.242-.709 1.19-.289 2.02-.559 2.9-.71.612-.105 1.142.063 1.463.298.74.542 1.267 1.481 1.827 2.471.662 1.173 1.886 3.391 2.385 4.473.44.956.965 1.591 1.653 2.536 1.054 1.451 1.589 2.579 2.342 3.57.499.657.966 1.375 1.483 2.151.577.866 1.03 1.505 1.546 2.235.878 1.245 1.632 1.892 2.234 2.539a5.24 5.24 0 0 1 1.248 2.171c.172.796.258 1.653.216 2.512-.043.349-.128.519-.344.952M83.673 149.257c-.597.043-1.972.214-3.56.28-1.377.056-3.436.193-7.466.258-1.654.026-3.354.236-5.207.343-2.923.169-4.89.151-6.256.023-1.057-.099-1.911-.215-2.643-.408a2.2 2.2 0 0 1-.495-.258c-.151-.107-.279-.235-.539-.496"/><path fill="#f8f8f6" d="M40.172 167.14c-3.37-2.08-5.783-3.569-4.136-7.194 3.017-6.644 8.283-8.036 15.086-9.664 4.813-1.151 12.672 0 12.672 0s8.726.318 11.466 4.228c1.805 2.576 1.842 4.96.603 7.852-1.81 4.228-16.896 6.039-16.896 6.039s-13.288 2.137-18.707-1.207z"/><path stroke="#121212" stroke-linecap="round" d="M41.91 167.963c-.683.087-1.887-.085-2.789-.386-.786-.261-1.503-1.072-2.32-1.933-.733-.771-.905-1.933-1.056-3.328-.172-1.591.148-2.865.428-3.337.701-1.187 3.232-3.39 5.13-4.923 1.028-.829 2.363-1.313 3.524-2.001 1.003-.594 3.17-1.074 5.531-1.612 2.165-.492 3.624-.325 5.69-.39 1.853-.058 5.341-.022 7.415.021 3.463.071 4.48.473 5.277.623.83.155 1.907.707 3.67 1.696.89.498 1.42 1.034 2.216 1.87.722.759 1.223 1.782 1.699 2.924.343.824.473 1.869.453 3.759-.013 1.211-1.135 1.896-1.91 2.435-.97.677-1.803 1.14-3.027 1.827-1.195.671-3.066 1.117-4.405 1.486-.981.27-1.847.407-2.921.602-1.188.216-2.75.28-5.13.494-1.656.149-2.69.173-3.806.28-1.189.114-2.194.065-3.389.129-4.392.065-5.758.151-7.543.258-.664.022-1.685.022-2.737.022"/><path stroke="#515356" stroke-linecap="round" d="M38.34 161.242c.755.377 3.503 2.045 5.415 2.94 1.156.542 4.016 1.425 6.15 1.934.484.043.864.084 1.573.148.502.021 1.292.021 2.106.021"/><path fill="#b4b49e" d="M142.243 133.391h-26.552l-15.69 26.574h28.362zM196.553 133.391h-26.552l-15.689 26.574h28.362z"/><path fill="#f8f8f6" d="M157.329 144.847c-4.224-.604-8.621-3.789-8.448-8.456.097-2.635.959-4.392 3.017-6.039 3.017-2.416 9.861-2.424 16.293-2.416 4.502.005 11.465 1.208 11.465 1.208s6.918 1.017 7.845 4.831c.569 2.338 1.096 4.943-.603 6.644-2.414 2.416-15.086 3.624-15.086 3.624s-10.259 1.208-14.483.604"/><path stroke="#121212" stroke-linecap="round" d="M157.548 128.424c-.638.087-2.037.552-2.801.949-.578.3-1.197.452-2.158.992-1.656.93-2.423 1.708-3.2 2.557-.456.498-.686 1.285-.805 1.9-.238 1.24-.03 2.715.276 3.405.232.52.54.979.891 1.49.325.473.7.804 1.051 1.17.409.426.904.862 1.401 1.285.726.619 1.955 1.242 2.554 1.433.629.22 1.095.395 1.563.585.118.044.233.073.352.19"/><path stroke="#121212" stroke-linecap="round" d="M156.403 144.475c.492.087 1.517.263 3.517.292 1.797.026 5.182.087 7.91.03a71 71 0 0 0 6.099-.378c2.189-.23 3.367-.441 4.023-.558 1.367-.242 3.115-.643 4.049-.921.691-.206 1.637-.628 2.398-.878.901-.296 1.374-.832 1.958-1.402.469-.458.849-.892 1.185-1.317.516-.653.774-1.882.936-2.923.196-1.259-.739-2.73-1.342-3.512-.585-.758-1.413-1.445-2.177-1.932-.652-.415-1.314-.54-2.161-.819a27 27 0 0 0-2.291-.614c-.481-.107-1.185-.19-4.203-.423-2.435-.189-6.721-.234-9.26-.265-2.539-.03-3.204.028-4.69.26-1.486.233-3.772.638-5.137.905-1.75.342-2.477.589-3.292.836-1.047.392-1.991.834-2.618 1.213-.28.177-.483.322-.867.647"/><path stroke="#121212" stroke-linecap="round" d="M153.246 143.246c.554.379 1.368 1.078 2.015 1.666.491.446 1.08.848 1.578 1.229.452.345 1.051.556 1.767.79.77.252 1.649.468 2.645.542.618.046 1.14.131 4.695.146 1.154.005 1.793-.131 2.437-.175.76-.052 1.812-.131 2.31-.176.7-.062 2.214-.189 3.257-.394.821-.162 1.418-.175 1.945-.293.606-.134 1.254-.262 1.87-.453.783-.243 1.431-.511 1.959-.804.439-.41.702-.673.848-.862.059-.103.088-.219.118-.338"/><path stroke="#515356" stroke-linecap="round" d="M172.242 133.254c-1.247 0-3.196.138-4.729.278-1.252.115-2.297.972-2.928 2.052-.163.278-.071.659.067.975.137.316.413.592.693.768 1.264.798 3.409.179 4.976-.516 1.57-.696 3.166-1.671 4.56-2.612 2.495-1.684 3.969-1.71 5.085-2.128.28-.071.555-.071.835-.106.28-.034.556-.103.84-.174"/><path fill="#f8f8f6" d="m150.087 150.283-24.741-8.456 21.724-8.455 4.828 9.059z"/><path stroke="#121212" stroke-linecap="round" d="M152.38 143.153c-.058.696-.407 2.332-.845 3.634a75 75 0 0 1-.716 2.033c-.045.148-.074.264-.117.381s-.102.233-.162.528M125.225 142.364c.289.058.578.116 1.666.377s2.968.724 4.123 1.035c1.544.415 2.093.634 2.977.865.715.188 1.954.58 2.768.846s1.16.41 2.51.962 3.691 1.507 4.998 2.057c2.088.877 3.059 1.281 4.981 2.081.444.193.646.28.866.382.22.103.451.218.864.338M126.714 142.364c1.387.058 3.432.29 5.533.597 2.043.298 4.216.543 5.293.79 2.704.62 3.419.658 4.136.732.96.099 2.291.482 3.298.54.817.048 1.504.262 2.264.395.78.136 1.256.16 2.087.205.543.073.922.102 1.199.145.132.015.248.015.454.103M125.312 140.962c.493 0 1.603-.058 3.23-.276 1.079-.145 3.009-.564 4.542-.946 2.629-.655 4.022-1.377 4.735-1.858 1.399-.944 1.973-1.157 2.95-1.798 1.138-.747 1.914-.967 2.44-1.244.587-.308 1.196-.482 1.883-.76.306-.045.658-.16 1.022-.336.162-.059.278-.059.66-.235"/></svg>