<svg width="71" height="64" viewBox="0 0 71 64" fill="none" xmlns="http://www.w3.org/2000/svg">
    <path
        d="M22.6293 1.92727C23.9508 1.92727 26.7241 1.8396 28.8679 1.86019C30.0548 1.87159 30.7242 2.8545 31.2449 3.5187C31.8131 4.22807 32.3064 4.93478 32.8494 5.53389C32.9983 5.68932 33.145 5.86467 33.5924 6.44386"
        stroke="#121212" stroke-width="2" stroke-linecap="round" />
    <path
        d="M47.8148 3.91968C48.2074 3.96352 48.9971 4.31555 49.7378 4.73731C50.56 5.20548 51.2193 5.77679 51.9356 6.30882C52.2715 6.5583 52.5541 6.84085 52.7764 7.21546C53.3713 8.21837 53.0001 9.49102 52.7297 10.6686C52.4578 11.5341 52.2593 12.0655 52.2104 12.4188C52.1615 12.5968 52.0638 12.7722 51.963 12.9528"
        stroke="#121212" stroke-width="2" stroke-linecap="round" />
    <path
        d="M62.6298 14.6796C63.2698 14.7672 64.0579 15.2083 64.7505 15.7184C65.511 16.2785 66.4283 16.3613 67.2195 16.5606C67.6334 16.6648 68.0106 16.9804 68.3313 17.3337C68.9184 17.9805 68.8017 19.1032 68.975 19.9015C69.1926 20.9038 69.2462 21.8928 69.4195 22.6474C69.581 23.3505 69.8388 24.1511 69.9876 24.9056C70.1347 25.6509 68.8076 26.2341 67.8187 26.6339C66.8634 27.0202 65.9424 27.2091 65.1513 27.4535C64.7448 27.5791 64.3602 27.7856 64.0639 28.1377C63.166 29.2044 63.815 31.4016 63.6676 32.7432C63.569 33.0966 63.4698 33.4526 63.3957 33.8279C63.3705 34.0278 63.3705 34.247 63.3705 34.4728"
        stroke="#121212" stroke-width="2" stroke-linecap="round" />
    <path
        d="M65.4446 36.5984C65.7883 36.8189 66.381 37.3476 67.3913 38.3878C68.0462 39.0619 68.5528 39.7387 69.0232 40.4481C69.6412 41.3801 69.1514 43.0571 68.5825 44.1225C68.0533 45.1134 67.2254 46.2479 66.6321 46.9354C66.1049 47.5462 65.5958 48.3282 65.0269 48.9944C64.726 49.3468 64.5083 49.7921 64.1387 50.1236C63.1912 50.9731 60.9053 50.3713 59.9668 50.1488C59.0467 49.9307 58.2386 49.84 57.2505 49.8373C56.3397 49.8349 55.966 51.0754 55.323 51.6512C54.6925 52.2159 55.4682 53.1557 55.666 53.865C55.8753 54.6157 56.0608 55.4139 56.0623 56.8951C56.0632 57.8318 54.9793 58.2939 54.0652 58.8911C53.2374 59.4318 52.4608 59.888 51.6696 60.353C50.9002 60.8052 50.0904 61.3041 49.2503 61.7259C48.1989 62.2538 47.2755 62.4572 45.8696 62.4585C44.8263 62.4595 43.7229 61.4874 42.1414 60.3589C41.548 59.981 41.0517 59.6702 40.5836 59.3606C40.3598 59.2265 40.1643 59.1388 39.6665 58.7828"
        stroke="#121212" stroke-width="2" stroke-linecap="round" />
    <path
        d="M43.2221 61.0412C42.8784 60.6002 42.0902 60.0688 41.4465 59.582C40.8051 59.0968 40.1643 58.6076 39.3732 58.2748C38.629 57.9618 37.305 57.9859 36.2376 58.2502C35.2768 58.4882 34.5346 58.8706 33.719 59.0918C32.6297 59.3872 32.3597 60.7277 31.9153 61.4371C31.4183 62.2302 30.3864 62.4121 29.3493 62.8552C28.4393 63.2439 26.9819 62.7708 26.0396 62.371C25.1806 62.0064 24.3122 61.5301 23.5211 60.9549C22.8282 60.4511 21.9922 60.0688 21.1507 59.56C20.2082 58.9902 19.4233 58.2542 18.6321 57.7222C18.238 57.4572 17.8899 57.1902 17.5699 56.9471C17.3966 56.8355 17.201 56.7478 16.9995 56.6575"
        stroke="#121212" stroke-width="2" stroke-linecap="round" />
    <path
        d="M14.9254 49.4839C13.4468 49.7935 12.4602 50.0578 11.669 50.3022C10.8617 50.5517 10.0897 50.6795 9.29863 50.9219C8.52085 51.1603 7.32822 51.2109 6.33562 50.8143C5.342 50.4174 4.70596 49.3989 4.13707 48.6895C3.57521 47.9889 3.17409 47.053 2.77853 46.2984C2.67927 46.1204 2.58149 45.9451 2.48223 45.7671C2.38297 45.5891 2.28519 45.4137 2.18445 45.233"
        stroke="#121212" stroke-width="2" stroke-linecap="round" />
    <path
        d="M2.11548 44.0534V39.0472L8.25696 36.0434L7.14033 26.5316L2.11548 23.0273L4.90706 17.0198L11.6069 18.0211L17.7483 12.0136L16.0734 4.50433L22.2149 2.00122L30.0313 8.50929L37.8477 7.00743L40.6393 2.00122L47.8974 4.0037V12.0136L54.5972 17.0198L60.7387 15.0174L62.972 21.5254L57.3888 25.0298V31.5379L64.6469 37.5453L60.7387 44.0534L53.4806 43.0521L46.7808 48.559L47.8974 55.5677L42.3143 57.0695L38.406 53.0646L29.473 54.5664L24.4481 59.072L16.6317 54.5664L20.5399 50.0608L14.3984 45.0546L4.90706 46.5565L2.11548 44.0534Z"
        fill="#F8F8F6" />
    <path
        d="M54.0371 35.8015C53.0593 37.9057 52.2134 39.4719 51.4015 40.4875C50.9319 41.0208 50.3452 41.5907 49.9452 41.95C49.5452 42.3094 49.3496 42.4409 49 42.8421"
        stroke="#121212" stroke-width="2" stroke-linecap="round" />
    <path
        d="M13.1476 35.6686C13.0009 35.2728 12.5076 34.388 12.2839 33.4582C12.0739 32.5853 11.9624 30.1079 12.3801 27.7274C12.6539 26.1679 13.0972 25.4 13.5898 24.5797C14.2292 23.515 14.7743 22.435 15.4906 21.2594C16.0011 20.4215 16.798 19.7756 17.8106 18.8238C18.6353 18.0486 20.0514 16.8584 21.1203 16.1205C21.2944 16.0095 21.441 15.878 21.6144 15.7445C21.7877 15.611 21.9832 15.4795 22.1847 15.344"
        stroke="#121212" stroke-width="2" stroke-linecap="round" />
    <path
        d="M43.5184 20.1261C42.3881 19.9933 40.9051 19.9056 36.7206 19.9043C34.7097 19.9037 32.5701 20.6097 31.0775 21.0328C30.0418 21.3264 29.1508 21.8504 28.1641 22.4927C27.2868 23.0638 26.4841 23.665 24.8826 25.2119C23.7966 26.2609 23.5211 27.5572 22.9278 29.154C22.5636 30.134 21.9418 31.9357 21.7159 34.0678C21.5473 35.6586 21.69 37.4353 21.9863 38.3213C22.1344 39.7401 22.333 40.3604 22.3574 40.7138C22.3818 40.8918 22.4307 41.0671 22.4811 41.2478"
        stroke="#121212" stroke-width="2" stroke-linecap="round" />
    <path
        d="M16.6421 30.5819C16.8221 34.609 21.1086 40.0936 21.1086 40.0936C21.1086 40.0936 19.5658 31.0359 22.7836 26.5769C24.2912 24.4877 25.5295 23.4913 27.8084 22.0713C32.586 19.0943 42.3246 19.0676 42.3246 19.0676C42.3246 19.0676 36.5266 14.5178 32.2749 15.0626C28.3667 15.5634 24.3837 16.1472 21.1086 20.0689C18.5047 23.187 16.4681 26.6896 16.6421 30.5819Z"
        fill="#F8F8F6" />
    <path
        d="M19.0736 30.0894C19.3181 30.2647 19.5625 30.4401 19.7862 30.6181C20.0099 30.7961 20.2055 30.9714 20.5551 31.1521"
        stroke="#121212" stroke-width="2" stroke-linecap="round" />
    <path
        d="M21.4441 24.51C21.493 24.4661 21.5419 24.4223 21.7382 24.5532C21.9345 24.684 22.2767 24.9909 22.7774 25.307"
        stroke="#121212" stroke-width="2" stroke-linecap="round" />
    <path
        d="M25.8885 18.1335C26.0352 18.3089 26.1819 18.4842 26.2819 18.6622C26.3819 18.8403 26.4308 19.0156 26.5049 19.1936C26.5789 19.3716 26.6767 19.547 26.7774 19.7276"
        stroke="#121212" stroke-width="2" stroke-linecap="round" />
    <path
        d="M32.9998 18.2665C33.2442 18.4418 33.4887 18.6172 33.7124 18.7733C33.9361 18.9294 34.1316 19.0609 34.7776 19.462"
        stroke="#121212" stroke-width="2" stroke-linecap="round" />
    <path
        d="M6.58202 50.5615L4.34875 48.559C4.34875 48.559 7.18586 47.8445 8.81529 47.5577C10.313 47.2942 12.7235 47.0571 12.7235 47.0571L14.3984 48.559L6.58202 50.5615Z"
        fill="#F8F8F6" />
    <path
        d="M10.3328 48.0227C10.3817 48.0227 10.4305 48.0227 10.578 48.1323C10.7254 48.2419 10.9698 48.4611 11.1691 48.6617C11.3683 48.8623 11.515 49.0376 11.8143 49.3511"
        stroke="#121212" stroke-linecap="round" />
    <path
        d="M6.7771 47.7572C6.97266 47.9764 7.16822 48.1956 7.31785 48.4181C7.46748 48.6406 7.56526 48.8598 7.68896 49.0384C7.81267 49.2171 7.95934 49.3486 8.40675 49.7498"
        stroke="#121212" stroke-linecap="round" />
    <path
        d="M28.3565 62.129L24.4482 60.6271C24.4482 60.6271 26.7782 57.2612 28.9148 56.1215C31.5449 54.7186 36.7312 55.1203 36.7312 55.1203L38.4061 57.0695C38.4061 57.0695 32.8182 57.1315 31.7064 59.1253C30.5897 61.1276 28.3565 62.129 28.3565 62.129Z"
        fill="#F8F8F6" />
    <path d="M33.7405 55.993L35.222 57.5871" stroke="#121212" stroke-linecap="round" />
    <path
        d="M30.333 56.126C30.7241 56.4328 31.1152 56.7397 31.4634 57.0293C31.8116 57.3189 32.1049 57.5819 32.4071 57.8529"
        stroke="#121212" stroke-linecap="round" />
    <path
        d="M27.9626 59.0486C28.4515 59.75 28.899 60.3305 29.293 60.7503C29.4916 60.9509 29.6871 61.1262 29.8367 61.3042C29.9864 61.4822 30.0842 61.6576 30.4812 62.1039"
        stroke="#121212" stroke-linecap="round" />
    <path
        d="M46.2225 61.5752C44.3182 60.998 42.3143 58.5715 42.3143 58.5715C42.3143 58.5715 45.8622 58.7987 47.8975 58.0708C49.0784 57.6485 50.6891 57.709 50.6891 56.569C50.6891 53.5652 49.5724 49.5603 49.5724 49.5603L54.5973 45.0547L61.8554 45.5553L66.8802 39.0472L68.5552 42.051C68.5552 42.051 66.7819 48.693 62.972 49.5603C60.6093 50.0982 56.8306 48.559 56.8306 48.559C56.8306 48.559 54.039 50.4045 54.039 52.0634C54.039 54.0659 55.1556 56.569 55.1556 56.569C55.1556 56.569 50.0144 62.7244 46.2225 61.5752Z"
        fill="#F8F8F6" />
    <path
        d="M65.2965 41.2477C65.3943 41.5107 65.4921 41.7737 65.5913 42.0188C65.6906 42.2639 65.7884 42.4831 65.8632 42.7056C65.938 42.9281 65.9869 43.1473 66.1854 43.7717"
        stroke="#121212" stroke-linecap="round" />
    <path
        d="M62.6298 45.233C62.8742 45.7152 63.1187 46.1975 63.2935 46.5335C63.4683 46.8696 63.5661 47.045 63.6165 47.3107C63.6668 47.5763 63.6668 47.927 63.815 48.2884"
        stroke="#121212" stroke-linecap="round" />
    <path d="M58.6298 45.8975L59.0742 47.4916" stroke="#121212" stroke-linecap="round" />
    <path
        d="M54.7778 45.8975C55.0712 46.555 55.3645 47.2126 55.5889 47.639C55.8134 48.0654 55.9601 48.2408 56.1112 48.4214"
        stroke="#121212" stroke-linecap="round" />
    <path
        d="M51.5186 48.1556C51.8119 48.857 52.0608 49.4376 52.2578 49.8573C52.3571 50.0579 52.4549 50.2333 52.5297 50.4551C52.6045 50.677 52.6534 50.94 52.8519 51.211"
        stroke="#121212" stroke-linecap="round" />
    <path
        d="M51.2222 54.0009C52.1022 54.5269 52.8 55.0171 53.2681 55.393C53.4918 55.5498 53.6874 55.6375 53.8615 55.7484C54.0355 55.8593 54.1822 55.9908 54.6296 56.392"
        stroke="#121212" stroke-linecap="round" />
    <path d="M50.1852 57.0559L51.3704 58.7828" stroke="#121212" stroke-linecap="round" />
    <path
        d="M46.1851 58.2517C46.234 58.5147 46.2828 58.7778 46.3325 59.0009C46.3821 59.2241 46.431 59.3995 46.4806 59.5775C46.5303 59.7555 46.5791 59.9308 46.7777 60.1115"
        stroke="#121212" stroke-linecap="round" />
    <path
        d="M57.9471 31.0373C57.9471 31.0373 61.3303 33.9517 61.8554 32.5391C62.4137 31.0373 62.4137 27.5329 62.4137 27.5329C62.4137 27.5329 68.5552 26.0311 68.5552 25.0298C68.5552 23.528 66.8802 17.5205 66.8802 17.5205L64.0886 17.0199C64.0886 17.0199 65.2053 22.0261 64.6469 23.0273C63.5876 24.9271 58.5055 26.5317 58.5055 26.5317L57.9471 31.0373Z"
        fill="#F8F8F6" />
    <path
        d="M64.8521 19.5948C65.1943 19.8579 65.5365 20.1209 65.7862 20.366C66.0358 20.6111 66.1824 20.8303 66.3558 21.0309C66.5291 21.2314 66.7247 21.4068 67.0743 21.8531"
        stroke="#121212" stroke-linecap="round" />
    <path
        d="M64.7039 23.0488C64.9972 23.3995 65.2905 23.7502 65.515 24.0186C65.7394 24.2869 65.8861 24.4623 66.0105 24.6403C66.135 24.8183 66.2328 24.9936 66.4817 25.3071"
        stroke="#121212" stroke-linecap="round" />
    <path
        d="M63.2224 28.6281C62.9779 28.4966 62.7335 28.3651 62.5098 28.2096C62.2861 28.0542 62.0905 27.8789 61.9164 27.7228C61.7423 27.5667 61.5957 27.4352 61.4446 27.2997"
        stroke="#121212" stroke-linecap="round" />
    <path
        d="M60.8519 30.8862C61.0964 31.1493 61.3408 31.4123 61.5401 31.6355C61.7394 31.8586 61.886 32.034 62.0371 32.2146"
        stroke="#121212" stroke-linecap="round" />
    <path
        d="M15.3699 40.5837C15.3699 40.6276 15.3699 40.6714 15.4432 40.7598C15.5165 40.8481 15.6632 40.9796 16.1106 41.3808"
        stroke="#121212" stroke-linecap="round" />
    <path
        d="M49.5724 10.0112V6.00623C49.5724 6.00623 51.3264 6.33232 51.8057 7.50809C52.2609 8.62504 51.2473 11.5131 51.2473 11.5131L49.5724 10.0112Z"
        fill="#F8F8F6" />
    <path d="M49.2963 7.77209L50.9259 8.96766" stroke="#121212" stroke-linecap="round" />
    <path
        d="M28.3564 6.22861C28.3564 6.22861 25.5648 3.72551 25.5648 3.22489C25.5648 2.72426 29.473 3.22489 29.473 3.22489L32.2646 6.7293L28.3564 6.22861Z"
        fill="#F8F8F6" />
    <path
        d="M44.5554 13.4843C44.751 13.5268 45.9303 14.5842 46.9458 15.8468C49.0845 18.5058 50.2266 20.3787 51.1452 21.6719C52.3394 23.3533 52.5526 24.6376 52.9496 25.6578C53 26.0563 53.1466 26.4123 53.3689 26.8095C53.4444 27.0313 53.4444 27.2944 53.5926 27.9639"
        stroke="#121212" stroke-width="2" stroke-linecap="round" />
    <path
        d="M27.8145 4.5838C27.9611 4.5838 28.1078 4.5838 28.3056 4.56188C28.5033 4.53996 28.7478 4.49613 29.4441 4.31812"
        stroke="#121212" stroke-linecap="round" />
    <path
        d="M14.7772 4.45108C15.318 4.31956 16.3032 3.70185 17.2676 3.12466C18.107 2.62232 18.8721 2.15027 19.6632 1.79559C20.4358 1.44923 21.6336 1.39574 22.6018 1.68201C23.6619 1.99546 24.5996 3.4282 25.3181 4.11631C26.1395 4.90295 26.6263 5.59882 27.2441 6.28627C27.843 6.95272 28.7982 7.15039 30.3723 7.35098C34.4873 7.87538 35.3168 7.15305 36.1568 6.86612C37.6107 6.36946 38.0813 4.15085 38.6027 2.88355C38.941 2.06158 39.7124 1.48607 40.3287 1.19847C41.2918 0.749051 42.5761 1.17256 43.3673 1.39507C44.2026 1.63002 45.1925 1.96961 46.0584 2.32429C46.9437 2.68692 47.6132 3.34052 47.9621 4.04989C48.9145 5.98633 48.2088 9.71688 48.8733 10.6687C49.5422 11.6269 50.5762 11.9752 51.4659 12.6626C52.1452 13.1875 53.1422 13.8774 53.8622 14.5669C54.0081 14.7066 54.0844 14.8977 54.257 14.988C55.0981 15.4282 56.7926 15.2112 58.2052 14.8366C59.4961 14.4942 60.3542 13.9731 61.1453 13.8163C61.9357 13.6597 62.2327 14.8977 62.6283 15.607C63.0727 16.4041 63.6638 17.4641 63.9868 18.3741C64.2997 19.2557 64.5557 21.0004 64.212 22.2265C63.9601 23.125 62.7335 23.4446 61.6705 23.9767C60.8838 24.3704 60.1645 24.9059 59.2749 25.4379C58.5466 25.8734 58.1882 26.7205 57.9882 27.6942C57.7513 28.8477 57.643 29.9087 57.6415 31.0591C57.6404 31.9166 58.5764 32.4778 59.3675 32.8557C60.1467 33.228 61.1927 33.4529 62.0831 33.8952C63.3064 34.503 63.6638 35.4003 64.2572 35.9542C64.9081 36.562 65.1957 37.3477 65.4194 38.255C65.7247 39.4931 64.7068 40.5784 64.1135 41.6206C63.6171 42.4924 62.7335 43.3229 62.0394 44.0356C61.5058 44.5835 60.5112 44.6566 58.3171 44.658C57.1614 44.6587 56.2148 44.2156 55.1274 44.1485C54.8779 44.1331 54.683 44.0828 54.4844 44.1259C53.5916 44.3201 52.9555 45.4059 52.0155 46.1604C51.2591 46.7675 50.437 47.4436 49.7185 48.0208C49.5483 48.1575 49.3496 48.2858 49.2244 48.4632C48.0885 50.0723 49.0977 53.2886 49.3199 53.998C49.5509 54.7352 49.7407 55.4579 49.6673 56.1214C49.5757 56.9502 47.9688 57.0985 46.8081 57.2991C44.6938 57.6644 43.868 57.5422 43.1013 57.6531C42.3228 57.7657 41.6458 58.3817 40.8791 58.5617C40.1188 58.7402 39.8176 57.4572 39.2487 56.771C39.0265 56.3519 38.779 55.9507 38.5079 55.5974C38.3835 55.4194 38.2857 55.244 38.0368 54.9305"
        stroke="#121212" stroke-width="2" stroke-linecap="round" />
    <path
        d="M38.6295 55.7274C38.6295 55.3767 38.5806 54.9768 38.4087 54.6009C37.9305 53.5547 35.3257 54.3538 34.4842 54.5311C33.6904 54.6985 32.8072 54.8852 31.6479 55.0406C30.315 55.2193 29.2975 55.1947 29.0264 55.5035C28.4307 56.1821 28.0634 56.8751 27.3493 57.6057C25.8524 59.1373 24.7567 59.7551 23.9167 59.9557C22.8164 60.2184 21.6959 59.5372 20.8544 59.0723C20.0711 58.6395 19.3729 58.0335 18.6566 57.4563C18.016 56.9401 17.201 56.6148 16.5077 55.7546C15.2468 54.1904 16.8484 52.8554 17.1714 52.0105C17.3108 51.6458 17.5418 51.3011 17.6899 50.9258C17.9969 50.1483 17.0025 49.4865 16.3847 48.8223C15.7008 48.0871 15.0765 47.4939 13.8439 46.4325C13.0763 45.7715 11.038 45.8972 9.4972 46.2499C8.60161 46.4549 7.52384 46.7367 6.63197 46.9592C5.83361 47.1584 4.66158 47.3584 3.69341 47.1824C2.75151 47.0112 2.18747 45.8121 1.76598 44.9925C1.35621 44.1957 1.39635 43.1553 1.24671 42.446C1.08972 41.7017 0.85115 40.5915 1.12153 39.6563C1.32961 38.9366 2.27932 38.5484 3.46378 37.841C4.42531 37.2668 5.24232 36.9543 6.03345 36.4894C6.41183 36.267 6.72679 36.0244 6.89938 35.6711C7.59295 34.2511 6.97568 31.6434 6.80308 29.0364C6.72389 27.8402 5.25122 27.5226 3.7949 26.8153C2.54313 26.2072 1.69265 24.9562 1.32153 24.203C0.778725 23.1013 1.44079 21.5926 1.9845 20.3971C2.76998 18.6699 3.26897 17.9156 3.56601 17.2062C3.72915 16.8166 4.15786 16.5845 4.57639 16.4079C5.74518 15.9145 7.60977 16.4039 8.552 16.7818C9.31561 17.0881 10.8157 17.2036 12.0824 16.9173C13.0747 16.6931 13.6869 15.6573 14.478 14.926C15.2721 14.192 15.8114 13.5319 16.4291 12.8444C16.7359 12.5031 17.0484 12.246 17.098 11.8926C17.2192 11.0303 16.3595 9.81498 16.0869 8.92627C15.7862 7.94591 15.4706 7.15551 15.2225 6.44614C15.1239 6.09278 15.0247 5.73677 14.9262 5.38341C14.8765 5.20541 14.8276 5.03006 14.7773 4.71655"
        stroke="#121212" stroke-width="2" stroke-linecap="round" />
    <path
        d="M32.1108 15.0783C31.2249 15.3439 30.1404 15.5193 29.053 15.6315C28.152 15.7246 26.6885 16.226 25.3004 16.9135C24.129 17.4936 22.8337 18.1735 21.7685 18.9061C20.8772 19.519 20.1136 20.2564 19.5944 20.9864C18.8456 22.0389 18.3358 22.8229 17.7669 23.6651C17.0099 24.7858 16.804 26.3166 16.3343 28.1531C15.3335 32.0667 16.5047 33.0516 16.9973 34.5334C17.4294 35.8332 18.0336 37.0342 18.4551 37.9242C18.7711 38.5915 19.2692 39.2074 19.8122 40.0271C20.3426 40.8278 21.1448 41.6411 22.2789 42.7935C23.183 43.7122 24.1552 44.1677 25.1441 44.5456C26.0876 44.9062 27.0204 44.9674 27.9589 45.2099C29.0165 45.483 30.2293 45.4536 31.9027 45.609C36.2831 46.0159 37.0946 45.4111 38.0087 45.1235C38.8645 44.8543 39.8591 44.6141 40.725 44.3045C41.6698 43.9668 42.3303 43.2883 43.2925 42.7111C44.0632 42.2488 44.6503 41.4285 45.3925 40.7192C46.031 40.109 46.4785 39.3908 47.0962 38.6608C47.8923 37.7202 47.9126 36.912 48.2577 36.1588C48.7151 35.1609 48.9496 34.2551 49.1718 33.5239C49.4849 32.4936 49.5422 31.245 49.5681 27.8223C49.5789 26.4023 49.1481 25.6205 48.8289 24.8892C48.4539 24.0303 48.0637 23.3622 47.6437 22.6528C47.0765 21.695 45.8918 20.8382 45.274 20.261C44.6075 19.6383 43.8681 19.0661 43.1999 18.5341C42.4754 17.9573 41.6458 17.5597 40.8547 17.1831C40.0188 16.7852 39.1776 16.2765 38.1887 15.8547C37.1801 15.4245 36.3124 15.1234 35.5213 14.8358C34.7301 14.6359 34.1375 14.5031 33.5724 14.4366C33.2027 14.4141 32.6649 14.4141 32.1108 14.4141"
        stroke="#121212" stroke-width="2" stroke-linecap="round" />
</svg>