<svg width="64" height="64" viewBox="0 0 64 64" fill="none" xmlns="http://www.w3.org/2000/svg">
    <path
        d="M20.3702 1.92608C21.5537 1.92608 24.0374 1.83852 25.9572 1.85909C27.0202 1.87047 27.6196 2.85216 28.086 3.51554C28.5948 4.22403 29.0366 4.92987 29.5229 5.52823C29.6562 5.68346 29.7876 5.8586 30.1882 6.43707"
        stroke="#121212" stroke-width="2" stroke-linecap="round" />
    <path
        d="M42.925 3.91602C43.2766 3.9598 43.9838 4.31139 44.6472 4.73264C45.3835 5.20022 45.9739 5.77082 46.6154 6.30219C46.9162 6.55136 47.1694 6.83356 47.3684 7.20771C47.9012 8.20937 47.5687 9.48044 47.3266 10.6566C47.0831 11.521 46.9053 12.0517 46.8615 12.4046C46.8178 12.5824 46.7302 12.7575 46.64 12.938"
        stroke="#121212" stroke-width="2" stroke-linecap="round" />
    <path
        d="M56.1926 14.6626C56.7658 14.7502 57.4716 15.1906 58.0919 15.7001C58.7729 16.2595 59.5944 16.3423 60.3029 16.5413C60.6736 16.6454 61.0114 16.9605 61.2987 17.3135C61.8244 17.9594 61.7199 19.0807 61.8751 19.8781C62.07 20.8791 62.1179 21.8669 62.2732 22.6205C62.4178 23.3228 62.6486 24.1224 62.782 24.876C62.9137 25.6203 61.7252 26.2028 60.8396 26.6021C59.9841 26.9879 59.1593 27.1766 58.4508 27.4207C58.0868 27.5461 57.7423 27.7524 57.4769 28.104C56.6728 29.1694 57.254 31.3638 57.122 32.7039C57.0338 33.0568 56.9449 33.4124 56.8786 33.7872C56.856 33.9868 56.856 34.2058 56.856 34.4313"
        stroke="#121212" stroke-width="2" stroke-linecap="round" />
    <path
        d="M58.7135 36.5542C59.0213 36.7744 59.552 37.3025 60.4569 38.3413C61.0434 39.0147 61.4971 39.6907 61.9183 40.3991C62.4717 41.3299 62.0331 43.0049 61.5236 44.069C61.0497 45.0586 60.3083 46.1918 59.7769 46.8784C59.3049 47.4884 58.8489 48.2695 58.3394 48.9349C58.0699 49.2868 57.875 49.7316 57.544 50.0626C56.6955 50.9111 54.6484 50.31 53.8079 50.0878C52.9838 49.8699 52.2602 49.7793 51.3752 49.7767C50.5596 49.7742 50.2249 51.0132 49.6491 51.5884C49.0845 52.1524 49.7791 53.0909 49.9563 53.7994C50.1437 54.5492 50.3098 55.3464 50.3112 56.8258C50.312 57.7612 49.3413 58.2228 48.5227 58.8192C47.7814 59.3593 47.0858 59.8149 46.3773 60.2793C45.6882 60.731 44.963 61.2293 44.2107 61.6505C43.2691 62.1778 42.4422 62.3809 41.1831 62.3822C40.2488 62.3832 39.2606 61.4124 37.8443 60.2853C37.3129 59.9078 36.8684 59.5974 36.4492 59.2882C36.2489 59.1542 36.0737 59.0667 35.6279 58.7111"
        stroke="#121212" stroke-width="2" stroke-linecap="round" />
    <path
        d="M38.8121 60.9667C38.5043 60.5262 37.7985 59.9955 37.222 59.5092C36.6476 59.0247 36.0737 58.5361 35.3652 58.2037C34.6988 57.8911 33.5131 57.9151 32.5571 58.1792C31.6968 58.4168 31.032 58.7988 30.3016 59.0197C29.3261 59.3147 29.0843 60.6536 28.6863 61.3621C28.2413 62.1542 27.3171 62.3359 26.3884 62.7784C25.5734 63.1667 24.2682 62.6941 23.4244 62.2948C22.6551 61.9307 21.8774 61.4549 21.1689 60.8804C20.5484 60.3773 19.7997 59.9955 19.0461 59.4873C18.202 58.9182 17.4991 58.1831 16.7906 57.6518C16.4377 57.3871 16.1259 57.1204 15.8393 56.8776C15.6841 56.7662 15.5089 56.6786 15.3285 56.5884"
        stroke="#121212" stroke-width="2" stroke-linecap="round" />
    <path
        d="M13.471 49.4239C12.1469 49.733 11.2633 49.997 10.5548 50.2411C9.83179 50.4903 9.1405 50.6179 8.43201 50.8601C7.73548 51.0981 6.66742 51.1486 5.77849 50.7526C4.88866 50.3562 4.31906 49.3389 3.80958 48.6305C3.30641 47.9307 2.94719 46.9959 2.59294 46.2423C2.50405 46.0645 2.41648 45.8894 2.32759 45.7116C2.2387 45.5338 2.15113 45.3587 2.06091 45.1782"
        stroke="#121212" stroke-width="2" stroke-linecap="round" />
    <path
        d="M1.99915 44V39L7.49915 36L6.49915 26.5L1.99915 23L4.49915 17L10.4991 18L15.9991 12L14.4991 4.5L19.9991 2L26.9991 8.5L33.9991 7L36.4991 2L42.9991 4V12L48.9991 17L54.4991 15L56.4991 21.5L51.4991 25V31.5L57.9991 37.5L54.4991 44L47.9991 43L41.9991 48.5L42.9991 55.5L37.9991 57L34.4991 53L26.4991 54.5L21.9991 59L14.9991 54.5L18.4991 50L12.9991 45L4.49915 46.5L1.99915 44Z"
        fill="#F8F8F6" />
    <path
        d="M48.4974 35.7583C47.6218 37.8599 46.8642 39.4241 46.1371 40.4384C45.7165 40.9711 45.1911 41.5403 44.8329 41.8992C44.4747 42.2581 44.2996 42.3894 43.9865 42.7901"
        stroke="#121212" stroke-width="2" stroke-linecap="round" />
    <path
        d="M11.8789 35.6256C11.7475 35.2302 11.3057 34.3466 11.1054 33.4179C10.9173 32.5461 10.8174 30.0718 11.1916 27.6942C11.4367 26.1366 11.8337 25.3697 12.2749 24.5505C12.8475 23.487 13.3356 22.4084 13.9771 21.2342C14.4343 20.3974 15.148 19.7522 16.0548 18.8016C16.7934 18.0274 18.0616 16.8387 19.0188 16.1017C19.1747 15.9909 19.3061 15.8595 19.4613 15.7262C19.6165 15.5929 19.7916 15.4615 19.9721 15.3262"
        stroke="#121212" stroke-width="2" stroke-linecap="round" />
    <path
        d="M39.0775 20.1024C38.0652 19.9698 36.7371 19.8822 32.9897 19.8809C31.1888 19.8802 29.2728 20.5854 27.9361 21.0079C27.0085 21.3012 26.2106 21.8246 25.327 22.466C24.5413 23.0364 23.8224 23.6369 22.3882 25.1819C21.4157 26.2296 21.1689 27.5243 20.6376 29.1191C20.3114 30.0979 19.7546 31.8973 19.5523 34.0268C19.4013 35.6156 19.529 37.3901 19.7944 38.275C19.9271 39.692 20.1049 40.3116 20.1267 40.6645C20.1486 40.8423 20.1924 41.0175 20.2375 41.1979"
        stroke="#121212" stroke-width="2" stroke-linecap="round" />
    <path
        d="M15.0084 30.5452C15.1697 34.5674 19.0084 40.0452 19.0084 40.0452C19.0084 40.0452 17.6267 30.9987 20.5084 26.5452C21.8586 24.4586 22.9676 23.4635 25.0084 22.0452C29.287 19.0719 38.0084 19.0452 38.0084 19.0452C38.0084 19.0452 32.816 14.5011 29.0084 15.0452C25.5085 15.5454 21.9414 16.1284 19.0084 20.0453C16.6765 23.1595 14.8526 26.6578 15.0084 30.5452Z"
        fill="#F8F8F6" />
    <path
        d="M17.1859 30.0532C17.4048 30.2284 17.6237 30.4035 17.8241 30.5813C18.0244 30.7591 18.1996 30.9342 18.5127 31.1146"
        stroke="#121212" stroke-width="2" stroke-linecap="round" />
    <path
        d="M19.3087 24.4809C19.3525 24.4371 19.3963 24.3933 19.5721 24.524C19.7479 24.6547 20.0544 24.9612 20.5028 25.2769"
        stroke="#121212" stroke-width="2" stroke-linecap="round" />
    <path
        d="M23.2891 18.1123C23.4204 18.2874 23.5518 18.4626 23.6413 18.6404C23.7309 18.8181 23.7747 18.9933 23.841 19.1711C23.9073 19.3488 23.9949 19.524 24.0851 19.7044"
        stroke="#121212" stroke-width="2" stroke-linecap="round" />
    <path
        d="M29.6575 18.2451C29.8764 18.4203 30.0953 18.5954 30.2956 18.7513C30.496 18.9072 30.6711 19.0385 31.2496 19.4392"
        stroke="#121212" stroke-width="2" stroke-linecap="round" />
    <path
        d="M5.99915 50.5L3.99915 48.5C3.99915 48.5 6.53991 47.7864 7.99915 47.5C9.34039 47.2368 11.4991 47 11.4991 47L12.9991 48.5L5.99915 50.5Z"
        fill="#F8F8F6" />
    <path
        d="M9.35803 47.9644C9.40181 47.9644 9.4456 47.9644 9.57761 48.0738C9.70962 48.1833 9.92854 48.4022 10.107 48.6025C10.2854 48.8029 10.4168 48.978 10.6848 49.2911"
        stroke="#121212" stroke-linecap="round" />
    <path
        d="M6.17383 47.6992C6.34896 47.9181 6.52409 48.137 6.6581 48.3593C6.7921 48.5815 6.87966 48.8004 6.99045 48.9789C7.10123 49.1573 7.23258 49.2887 7.63326 49.6894"
        stroke="#121212" stroke-linecap="round" />
    <path
        d="M25.4991 62.0532L21.9991 60.5532C21.9991 60.5532 24.0858 57.1914 25.9991 56.0532C28.3545 54.652 32.9991 55.0532 32.9991 55.0532L34.4991 57C34.4991 57 29.4948 57.0619 28.4991 59.0532C27.4991 61.0531 25.4991 62.0532 25.4991 62.0532Z"
        fill="#F8F8F6" />
    <path d="M30.3209 55.9248L31.6477 57.5169" stroke="#121212" stroke-linecap="round" />
    <path
        d="M27.2693 56.0576C27.6196 56.3641 27.9698 56.6706 28.2816 56.9598C28.5934 57.2491 28.8561 57.5117 29.1268 57.7824"
        stroke="#121212" stroke-linecap="round" />
    <path
        d="M25.1465 58.9766C25.5843 59.6771 25.985 60.2569 26.3379 60.6761C26.5157 60.8765 26.6908 61.0516 26.8248 61.2294C26.9588 61.4072 27.0464 61.5823 27.402 62.0281"
        stroke="#121212" stroke-linecap="round" />
    <path
        d="M41.4991 61.5C39.7937 60.9236 37.9991 58.5 37.9991 58.5C37.9991 58.5 41.1764 58.7269 42.9991 58C44.0567 57.5782 45.4991 57.6386 45.4991 56.5C45.4991 53.5 44.4991 49.5 44.4991 49.5L48.9991 45L55.4991 45.5L59.9991 39L61.4991 42C61.4991 42 59.911 48.6338 56.4991 49.5C54.3832 50.0372 50.9991 48.5 50.9991 48.5C50.9991 48.5 48.4991 50.3431 48.4991 52C48.4991 54 49.4991 56.5 49.4991 56.5C49.4991 56.5 44.895 62.6478 41.4991 61.5Z"
        fill="#F8F8F6" />
    <path
        d="M58.5808 41.1978C58.6684 41.4605 58.7559 41.7232 58.8448 41.9679C58.9337 42.2127 59.0213 42.4316 59.0883 42.6539C59.1553 42.8761 59.1991 43.095 59.3769 43.7186"
        stroke="#121212" stroke-linecap="round" />
    <path
        d="M56.1926 45.1782C56.4115 45.6598 56.6305 46.1415 56.787 46.4771C56.9436 46.8128 57.0311 46.9879 57.0763 47.2533C57.1214 47.5186 57.1214 47.8689 57.254 48.2298"
        stroke="#121212" stroke-linecap="round" />
    <path d="M52.6105 45.8418L53.0085 47.4339" stroke="#121212" stroke-linecap="round" />
    <path
        d="M49.1609 45.8418C49.4236 46.4985 49.6863 47.1553 49.8873 47.5812C50.0883 48.0071 50.2196 48.1822 50.355 48.3627"
        stroke="#121212" stroke-linecap="round" />
    <path
        d="M46.2419 48.0972C46.5046 48.7977 46.7275 49.3775 46.904 49.7967C46.9929 49.9971 47.0805 50.1722 47.1475 50.3938C47.2145 50.6154 47.2582 50.8781 47.436 51.1487"
        stroke="#121212" stroke-linecap="round" />
    <path
        d="M45.9767 53.9351C46.7648 54.4605 47.3897 54.95 47.8089 55.3255C48.0093 55.4821 48.1844 55.5696 48.3403 55.6804C48.4962 55.7912 48.6276 55.9225 49.0282 56.3232"
        stroke="#121212" stroke-linecap="round" />
    <path d="M45.048 56.9863L46.1094 58.7111" stroke="#121212" stroke-linecap="round" />
    <path
        d="M41.4657 58.1807C41.5095 58.4434 41.5533 58.7061 41.5977 58.929C41.6422 59.1519 41.6859 59.327 41.7304 59.5048C41.7748 59.6826 41.8186 59.8577 41.9964 60.0381"
        stroke="#121212" stroke-linecap="round" />
    <path
        d="M51.9991 31C51.9991 31 55.0289 33.9108 55.4991 32.5C55.9991 31 55.9991 27.5 55.9991 27.5C55.9991 27.5 61.4991 26 61.4991 25C61.4991 23.5 59.9991 17.5 59.9991 17.5L57.4991 17C57.4991 17 58.4991 22 57.9991 23C57.0505 24.8974 52.4991 26.5 52.4991 26.5L51.9991 31Z"
        fill="#F8F8F6" />
    <path
        d="M58.1827 19.5718C58.4892 19.8345 58.7957 20.0972 59.0193 20.342C59.2428 20.5868 59.3742 20.8057 59.5294 21.006C59.6846 21.2063 59.8598 21.3815 60.1729 21.8273"
        stroke="#121212" stroke-linecap="round" />
    <path
        d="M58.0502 23.0215C58.3129 23.3717 58.5756 23.722 58.7766 23.99C58.9776 24.258 59.1089 24.4332 59.2204 24.6109C59.3318 24.7887 59.4194 24.9639 59.6423 25.277"
        stroke="#121212" stroke-linecap="round" />
    <path
        d="M56.7233 28.5938C56.5044 28.4625 56.2855 28.3312 56.0852 28.1759C55.8848 28.0207 55.7097 27.8456 55.5538 27.6897C55.3979 27.5338 55.2665 27.4024 55.1312 27.2671"
        stroke="#121212" stroke-linecap="round" />
    <path
        d="M54.6006 30.8491C54.8195 31.1118 55.0384 31.3745 55.2169 31.5974C55.3953 31.8203 55.5267 31.9954 55.662 32.1759"
        stroke="#121212" stroke-linecap="round" />
    <path
        d="M13.869 40.5347C13.869 40.5785 13.869 40.6222 13.9347 40.7105C14.0004 40.7987 14.1317 40.93 14.5324 41.3307"
        stroke="#121212" stroke-linecap="round" />
    <path d="M44.4991 10V6C44.4991 6 46.07 6.32569 46.4991 7.5C46.9069 8.61556 45.9991 11.5 45.9991 11.5L44.4991 10Z"
        fill="#F8F8F6" />
    <path d="M44.2518 7.76367L45.7113 8.95775" stroke="#121212" stroke-linecap="round" />
    <path
        d="M25.4991 6.22217C25.4991 6.22217 22.9991 3.72217 22.9991 3.22217C22.9991 2.72217 26.4991 3.22217 26.4991 3.22217L28.9991 6.72224L25.4991 6.22217Z"
        fill="#F8F8F6" />
    <path
        d="M40.0062 13.4688C40.1814 13.5112 41.2375 14.5673 42.147 15.8284C44.0622 18.4841 45.0851 20.3546 45.9077 21.6462C46.9772 23.3256 47.1681 24.6082 47.5236 25.6272C47.5687 26.0252 47.7001 26.3808 47.8991 26.7775C47.9668 26.999 47.9668 27.2617 48.0995 27.9304"
        stroke="#121212" stroke-width="2" stroke-linecap="round" />
    <path
        d="M25.0138 4.57932C25.1451 4.57932 25.2765 4.57932 25.4536 4.55743C25.6307 4.53554 25.8496 4.49175 26.4732 4.31396"
        stroke="#121212" stroke-linecap="round" />
    <path
        d="M13.3384 4.4468C13.8226 4.31545 14.7049 3.6985 15.5687 3.12203C16.3204 2.62031 17.0055 2.14884 17.714 1.7946C18.4059 1.44868 19.4786 1.39525 20.3457 1.68116C21.295 1.99422 22.1348 3.42519 22.7783 4.11245C23.5139 4.89811 23.9498 5.59311 24.5031 6.27971C25.0394 6.94534 25.8948 7.14277 27.3045 7.34311C30.9898 7.86685 31.7326 7.14542 32.4848 6.85884C33.7869 6.3628 34.2083 4.14694 34.6753 2.88121C34.9782 2.06026 35.6691 1.48546 36.221 1.19822C37.0835 0.749362 38.2337 1.17235 38.9422 1.39458C39.6903 1.62924 40.5767 1.96841 41.3522 2.32265C42.1451 2.68483 42.7447 3.33762 43.0571 4.04611C43.91 5.98014 43.278 9.70606 43.8731 10.6567C44.4721 11.6137 45.3982 11.9616 46.1949 12.6482C46.8033 13.1724 47.6961 13.8615 48.3409 14.5501C48.4716 14.6895 48.54 14.8804 48.6945 14.9706C49.4477 15.4103 50.9653 15.1935 52.2303 14.8194C53.3863 14.4775 54.1548 13.957 54.8633 13.8004C55.5711 13.644 55.8371 14.8804 56.1914 15.5889C56.5894 16.385 57.1188 17.4437 57.408 18.3526C57.6882 19.233 57.9175 20.9756 57.6097 22.2002C57.3841 23.0976 56.2856 23.4168 55.3336 23.9482C54.6291 24.3414 53.985 24.8762 53.1883 25.4076C52.5361 25.8426 52.2151 26.6886 52.036 27.6611C51.8238 28.8132 51.7268 29.8728 51.7255 31.0218C51.7245 31.8782 52.5627 32.4388 53.2712 32.8162C53.969 33.188 54.9058 33.4126 55.7031 33.8544C56.7986 34.4614 57.1188 35.3576 57.6501 35.9109C58.2331 36.5179 58.4906 37.3027 58.691 38.2088C58.9644 39.4454 58.0528 40.5293 57.5214 41.5702C57.0769 42.4409 56.2856 43.2704 55.664 43.9822C55.1861 44.5294 54.2954 44.6025 52.3305 44.6038C51.2955 44.6045 50.4478 44.162 49.474 44.095C49.2506 44.0796 49.076 44.0293 48.8982 44.0724C48.0986 44.2664 47.529 45.3508 46.6871 46.1044C46.0097 46.7108 45.2735 47.386 44.63 47.9625C44.4776 48.0991 44.2996 48.2272 44.1875 48.4043C43.1703 50.0114 44.0741 53.2238 44.2731 53.9323C44.4799 54.6685 44.6499 55.3904 44.5842 56.0531C44.5022 56.8808 43.0631 57.0289 42.0236 57.2293C40.1302 57.5942 39.3906 57.472 38.704 57.5828C38.0068 57.6953 37.4005 58.3106 36.7139 58.4903C36.033 58.6686 35.7633 57.3871 35.2538 56.7019C35.0548 56.2833 34.8332 55.8826 34.5904 55.5297C34.479 55.3519 34.3914 55.1768 34.1685 54.8636"
        stroke="#121212" stroke-width="2" stroke-linecap="round" />
    <path
        d="M34.6992 55.6595C34.6992 55.3092 34.6554 54.9098 34.5015 54.5344C34.0732 53.4895 31.7405 54.2876 30.9869 54.4647C30.276 54.6318 29.485 54.8183 28.4468 54.9735C27.2532 55.152 26.3419 55.1274 26.0991 55.4359C25.5657 56.1136 25.2367 56.8058 24.5972 57.5355C23.2567 59.0652 22.2754 59.6822 21.5231 59.8825C20.5378 60.145 19.5343 59.4646 18.7807 59.0002C18.0793 58.568 17.454 57.9627 16.8125 57.3862C16.2388 56.8707 15.5089 56.5457 14.888 55.6867C13.7588 54.1244 15.1932 52.791 15.4824 51.9472C15.6072 51.583 15.8141 51.2387 15.9468 50.8639C16.2217 50.0873 15.3312 49.4264 14.7779 48.763C14.1655 48.0286 13.6064 47.4362 12.5025 46.3761C11.815 45.7159 9.98963 45.8414 8.6098 46.1937C7.80775 46.3985 6.84255 46.68 6.04384 46.9022C5.32887 47.1011 4.27925 47.3009 3.41222 47.1251C2.56869 46.9541 2.06357 45.7565 1.6861 44.9379C1.31913 44.1421 1.35508 43.103 1.22107 42.3945C1.08047 41.6512 0.866827 40.5424 1.10896 39.6083C1.29531 38.8895 2.14582 38.5018 3.20657 37.7953C4.06767 37.2218 4.79934 36.9097 5.50783 36.4453C5.84669 36.2232 6.12875 35.981 6.28332 35.6281C6.90444 34.2099 6.35165 31.6053 6.19708 29.0016C6.12616 27.8069 4.80731 27.4897 3.5031 26.7832C2.38208 26.176 1.62043 24.9264 1.28808 24.1741C0.801967 23.0738 1.39488 21.5671 1.8818 20.373C2.58523 18.648 3.0321 17.8946 3.29812 17.1861C3.44422 16.797 3.82815 16.5652 4.20296 16.3887C5.24968 15.8959 6.9195 16.3847 7.76333 16.7622C8.44717 17.0681 9.79061 17.1834 10.925 16.8975C11.8136 16.6736 12.3619 15.6391 13.0704 14.9087C13.7815 14.1756 14.2644 13.5163 14.8177 12.8297C15.0924 12.4888 15.3723 12.232 15.4167 11.8791C15.5252 11.0178 14.7553 9.80402 14.5112 8.91641C14.2419 7.93726 13.9593 7.14784 13.7371 6.43936C13.6488 6.08644 13.5599 5.73086 13.4717 5.37795C13.4273 5.20016 13.3835 5.02503 13.3384 4.71191"
        stroke="#121212" stroke-width="2" stroke-linecap="round" />
    <path
        d="M28.8614 15.0608C28.068 15.3262 27.0969 15.5013 26.123 15.6134C25.3161 15.7063 24.0055 16.2072 22.7623 16.8938C21.7133 17.4731 20.5533 18.1522 19.5993 18.8839C18.8012 19.4961 18.1174 20.2325 17.6523 20.9616C16.9818 22.0129 16.5252 22.7958 16.0158 23.637C15.3378 24.7563 15.1534 26.2852 14.7328 28.1195C13.8365 32.0282 14.8854 33.0119 15.3265 34.4919C15.7134 35.79 16.2546 36.9895 16.632 37.8784C16.9151 38.545 17.3611 39.1601 17.8474 39.9787C18.3224 40.7784 19.0408 41.5907 20.0564 42.7417C20.8661 43.6593 21.7368 44.1142 22.6224 44.4917C23.4673 44.8518 24.3027 44.9129 25.1432 45.1551C26.0903 45.4279 27.1765 45.3985 28.675 45.5537C32.5979 45.9601 33.3247 45.3561 34.1433 45.0688C34.9096 44.7999 35.8004 44.56 36.5759 44.2509C37.422 43.9136 38.0134 43.2359 38.8752 42.6594C39.5654 42.1977 40.0911 41.3784 40.7558 40.6699C41.3276 40.0605 41.7284 39.3432 42.2816 38.6141C42.9946 37.6747 43.0127 36.8675 43.3218 36.1152C43.7314 35.1185 43.9414 34.2139 44.1404 33.4836C44.4208 32.4546 44.4721 31.2075 44.4953 27.7891C44.505 26.3708 44.1192 25.59 43.8333 24.8596C43.4975 24.0018 43.148 23.3345 42.7719 22.626C42.264 21.6694 41.203 20.8137 40.6497 20.2372C40.0528 19.6152 39.3906 19.0438 38.7922 18.5124C38.1435 17.9363 37.4005 17.5392 36.692 17.1631C35.9435 16.7657 35.1901 16.2576 34.3045 15.8363C33.4012 15.4067 32.6241 15.1059 31.9156 14.8187C31.2072 14.619 30.6765 14.4864 30.1703 14.42C29.8393 14.3975 29.3577 14.3975 28.8614 14.3975"
        stroke="#121212" stroke-width="2" stroke-linecap="round" />
</svg>