<svg width="454" height="564" viewBox="0 0 454 564" fill="none" xmlns="http://www.w3.org/2000/svg">
    <path
        d="M128.303 93.2247C128.303 116.883 128.303 140.642 128.174 159.075C128.06 175.517 127.008 190.599 126.096 199.669C124.038 220.126 125.183 225.415 124.407 229.962C122.336 242.097 124.138 259.951 124.532 273.047C124.701 278.648 125.183 292.851 125.312 311.288C125.384 321.567 126.743 328.26 127.391 335.156C127.622 337.619 127.781 339.715 128.171 349.888C129.181 376.242 128.046 395.041 127.656 397.757C126.489 405.885 125.963 415.254 125.187 421.399C124.481 426.992 123.889 432.694 122.976 436.855C121.971 441.438 121.549 446.72 120.636 451.139C120.504 453.983 120.761 456.601 121.28 458.802C121.541 459.975 121.799 461.261 122.064 464.144"
        stroke="#121212" stroke-width="6" stroke-linecap="round" />
    <path
        d="M100.226 470.378C104.087 470.635 107.947 470.892 115.727 471.025C123.507 471.157 135.089 471.157 147.022 471.157"
        stroke="#121212" stroke-width="6" stroke-linecap="round" />
    <path
        d="M125.963 76.8607C125.448 79.1829 122.859 85.4012 122.578 94.4911C122.519 96.4035 124.123 97.1054 125.168 97.6314C126.213 98.1574 127.242 98.4146 128.416 98.2899C129.59 98.1652 130.877 97.6509 131.926 96.6145C134.172 94.3951 134.542 89.3598 134.156 84.2986C134.003 82.2917 132.998 81.5518 132.086 80.8972C131.173 80.2426 130.144 79.7283 128.97 79.4634C127.796 79.1984 126.509 79.1984 125.183 79.1984"
        stroke="#121212" stroke-width="6" stroke-linecap="round" />
    <path
        d="M76.0478 101.017C79.924 101.017 88.2303 99.4742 94.4853 96.3534C99.5247 93.8391 104.359 90.6376 108.789 89.2038C113.711 87.6107 119.178 83.8894 123.608 82.1906C128.341 80.3757 133.482 77.6555 141.655 74.406C152.055 70.2717 159.999 68.0396 169.858 65.7019C179 63.534 187.016 59.9978 197.674 55.7081C209.075 51.1191 217.184 47.5144 228.996 43.2441C240.872 38.9506 250.721 33.5036 256.063 31.5399C260.398 29.9466 265.025 27.7839 270.102 26.2138C274.142 24.6592 277.769 22.5786 283.747 19.3408C285.061 18.4252 285.833 17.6538 286.629 16.0797"
        stroke="#121212" stroke-width="6" stroke-linecap="round" />
    <path
        d="M293.36 4.58972C292.927 9.13278 292.704 13.9069 292.622 18.0001C292.547 21.7907 291.231 23.0504 290.466 24.223C289.548 25.6311 287.089 28.0097 284.33 30.5763C282.067 32.6814 280.296 33.7033 279.366 34.3875C277.856 35.4984 276.743 37.0336 275.811 37.9382C274.433 39.2766 273.187 41.1866 272.285 42.2535C271.525 43.1519 270.618 44.5168 269.905 45.8583C269.342 46.9184 269.03 47.9061 268.647 49.0263C267.988 50.9537 267.445 52.1115 266.979 53.0981C266.896 53.3178 266.842 53.5341 266.787 53.7537C266.732 53.9733 266.678 54.1897 266.622 54.5764"
        stroke="#121212" stroke-width="6" stroke-linecap="round" />
    <path
        d="M266.458 56.0515C266.458 55.9433 267.919 55.0223 270.594 53.63C274.631 51.5288 278.587 51.5183 280.394 51.1634C280.833 51.0773 281.267 51.0266 284.576 50.9717C287.884 50.9168 294.055 50.8627 298.344 50.9701C302.633 51.0774 304.852 51.3478 306.212 51.4871C309.423 51.8161 311.945 52.1181 314.099 52.4713C316.289 52.8305 318.016 52.9376 319.943 53.1809C327.312 54.4667 328.188 54.6306 328.624 54.7395C328.844 54.7944 329.06 54.8485 329.283 55.0681"
        stroke="#121212" stroke-width="6" stroke-linecap="round" />
    <path
        d="M293.032 4.09811C296.929 3.34093 301.264 2.95087 304.9 3.00496C306.208 3.02442 306.423 3.16721 306.589 3.3311C307.285 4.01902 307.139 5.61902 306.866 9.20823C306.694 11.4805 306.811 15.5967 306.892 17.9846C307.022 21.8211 307.791 23.9682 308.231 25.4277C308.514 26.3684 309.32 27.2559 310.524 28.0508C311.517 28.706 312.437 29.334 313.233 29.9363C313.935 30.4682 315.006 30.9729 316.81 32.1464C317.832 32.8111 319.267 33.6476 320.449 34.4155C321.94 35.3842 323.755 36.873 324.714 37.5835C325.819 38.4023 326.492 39.2756 327.774 40.531C329.15 41.8778 329.772 42.9894 330.402 43.9474C331.027 44.8981 331.36 45.9394 332.151 49.1009C332.344 49.8204 332.453 50.1449 332.508 51.0422C332.564 51.9395 332.564 53.3998 332.564 54.9043"
        stroke="#121212" stroke-width="6" stroke-linecap="round" />
    <path
        d="M266.622 57.0349C271.264 60.6929 273.338 61.3485 275.139 61.7844C275.97 61.9857 276.615 62.2204 284.122 62.6023C291.629 62.9841 305.974 63.525 313.878 63.6684C321.782 63.8118 322.811 63.5413 323.909 63.1316C327.668 61.7291 328.404 60.7519 329.144 60.1513C330.155 59.2786 331.249 58.0772 331.742 57.2021C331.852 56.9824 331.961 56.7661 332.072 56.5432"
        stroke="#121212" stroke-width="3" stroke-linecap="round" />
    <path
        d="M285.684 70.0349C281.535 75.081 277.387 80.127 274.348 83.7177C271.308 87.3084 269.505 89.2908 266.553 92.9715"
        stroke="#121212" stroke-width="3" stroke-linecap="round" />
    <path
        d="M296.069 74.4036C296.61 83.2342 297.152 92.0648 297.52 97.1545C297.889 102.244 298.07 103.326 298.163 104.874C298.256 106.422 298.256 108.404 298.802 109.901"
        stroke="#121212" stroke-width="3" stroke-linecap="round" />
    <path d="M315.746 76.042L336.517 97.3403" stroke="#121212" stroke-width="3" stroke-linecap="round" />
    <path
        d="M156.184 560.712H148.399C152.063 509.166 159.481 402.686 159.847 389.144C160.213 375.601 154.505 368.556 151.605 366.726L148.399 355.745L135.577 352.085V342.935C136.799 340.037 141.714 337.902 151.605 337.902C161.496 337.902 163.968 349.797 163.968 355.745L181.827 398.294C181.827 385.941 189.154 236.333 201.976 236.333C267.55 236.333 331.567 237.706 358.584 241.366L370.948 261.039L380.107 309.994L386.517 389.144L393.844 393.261L419.03 342.935L413.993 334.242L416.282 328.752L429.562 326.464L447.421 337.902L452 349.34H439.178L429.562 374.961L435.515 551.105L430.936 563L418.114 557.967L413.993 472.412H163.968V549.275C161.831 553.087 157.283 560.712 156.184 560.712Z"
        fill="#644006" />
    <path
        d="M380.615 384.111V327.837L276.668 301.758L191.952 268.359L187.373 327.837C186.152 338.512 192.777 358.49 194.242 384.111C195.707 409.732 314.675 395.549 380.615 384.111Z"
        fill="#F8F8F6" />
    <path d="M165.342 499.405V473.327H412.619L410.787 496.66L165.342 499.405Z" fill="#644006" />
    <path
        d="M147.706 560.518C149.97 561.083 153.499 561.368 157.187 561.087C159.053 559.106 160.185 556.844 161.745 554.22C162.173 553.578 162.594 553.016 163.879 551.162"
        stroke="#121212" stroke-width="3" stroke-linecap="round" />
    <path
        d="M166.433 499.708C166.995 499.708 167.556 499.708 186.596 499.849C205.636 499.989 243.137 500.27 271.936 499.993C300.736 499.717 319.697 498.875 330.167 498.301C342.054 497.649 346.017 497.157 350.339 497.087C357.087 496.977 364.19 496.591 373.196 496.379C381.077 496.193 395.686 496.306 403.562 496.377C411.438 496.447 412.14 496.587 413.134 496.659C414.128 496.732 415.392 496.732 416.694 496.732"
        stroke="#121212" stroke-width="3" stroke-linecap="round" />
    <path
        d="M414.908 467.837C414.908 477.068 414.908 485.121 415.12 491.545C415.451 501.604 416.473 504.903 416.689 510.167C416.801 512.915 417.327 515.334 417.543 517.838C417.816 521.004 418.182 524.772 418.398 533.687C418.494 537.659 419.037 541.863 419.253 545.918C419.417 549.002 420.037 552.514 420.817 557.406C421.033 558.415 421.174 559.074 421.247 559.799C421.319 560.523 421.319 561.292 421.319 562.085"
        stroke="#121212" stroke-width="3" stroke-linecap="round" />
    <path
        d="M421.319 561.736C424.461 561.406 426.575 561.236 427.409 560.988C429.306 560.424 429.166 557.076 429.917 555.401C430.91 553.189 431.671 550.403 432.589 548.311C433.631 545.937 434.011 544.556 434.469 543.095C435.008 542.058 435.431 541.132 435.639 540.466C435.764 540.13 435.93 539.8 436.351 539.209"
        stroke="#121212" stroke-width="3" stroke-linecap="round" />
    <path
        d="M436.92 542.869C436.668 534.609 436.502 529.326 436.207 527.966C436.142 527.667 436.164 527.365 435.914 525.311C435.665 523.257 435.165 519.455 434.742 509.111C434.318 498.767 433.986 481.996 433.773 473.17C433.56 464.344 433.476 463.971 433.434 462.028C433.313 456.582 433.307 452.449 433.181 450.951C432.808 446.513 432.886 444.695 432.677 442.256C432.444 439.535 432.468 436.72 432.174 433.535C431.71 428.5 431.795 424.893 431.669 420.375C431.557 416.381 431.626 408.926 431.584 404.937C431.54 400.648 431.374 398.181 431.332 394.719C431.294 391.527 430.618 388.529 430.408 387.134C430.133 385.301 429.781 383.339 429.568 381.788C429.355 380.244 429.191 378.442 428.854 376.67C428.381 374.18 428.767 370.536 429.481 368.014C429.929 366.428 430.86 363.846 431.75 361.649C432.654 359.417 434.142 357.137 436.198 353.3C437.302 351.239 438.009 350.054 439.434 349.26C441.731 347.979 443.55 348.319 444.982 348.128C445.653 348.016 447.244 347.94 449.301 347.977C450.11 348.014 450.443 348.089 451.542 348.165"
        stroke="#121212" stroke-width="3" stroke-linecap="round" />
    <path
        d="M419.193 341.714C418.605 343.872 416.494 349.419 415.431 351.08C414.6 352.379 412.147 355.806 410.445 358.7C409.507 360.294 408.894 361.638 407.411 363.941C405.303 367.214 404.931 368.566 403.447 371.858C402.513 373.927 401.828 375.361 400.474 377.439C398.984 379.725 396.946 384.321 395.881 386.746C395.371 387.907 395.024 389.155 394.427 390.245C394.295 390.543 394.164 390.869 393.998 391.266C393.833 391.663 393.637 392.121 392.84 392.79"
        stroke="#121212" stroke-width="3" stroke-linecap="round" />
    <path
        d="M449.473 337.52C450.03 339.048 450.586 340.576 450.942 341.711C451.298 342.846 451.437 343.54 451.509 344.662C451.58 345.784 451.58 347.313 451.58 348.045"
        stroke="#121212" stroke-width="3" stroke-linecap="round" />
    <path
        d="M447.788 335.836C442.462 333.314 439.09 331.634 436.84 329.948C434.59 328.401 433.043 327.281 432.133 326.3C431.64 325.874 431.084 325.597 430.511 325.31"
        stroke="#121212" stroke-width="3" stroke-linecap="round" />
    <path
        d="M431.478 324.491C429.106 325.018 426.08 325.675 422.507 325.91C420.648 326.032 418.935 326.206 417.81 326.47C417.281 326.594 416.686 326.799 416.191 327.128C415.073 327.87 414.243 329.765 413.417 330.593C413.01 331 412.458 331.22 412.096 331.68C411.686 332.2 411.598 332.869 411.532 333.396C411.348 334.856 413.772 336.037 414.829 337.189C416.746 338.676 417.933 339.731 418.991 340.721C419.256 340.986 419.518 341.247 419.787 341.516"
        stroke="#121212" stroke-width="3" stroke-linecap="round" />
    <path
        d="M392.84 393.582C388.352 389.426 387.362 388.898 386.703 388.275C385.707 384.556 385.773 380.983 385.872 379.146C385.905 377.831 385.905 375.741 385.905 373.587"
        stroke="#121212" stroke-width="3" stroke-linecap="round" />
    <path
        d="M134.086 348.217C134.086 346.384 134.929 342.986 136.633 340.288C137.976 338.163 141.024 337.169 143.794 336.312C148.735 334.784 156.916 336.446 158.906 338.285C162.229 341.357 163.3 347.757 164.443 351.678C165.479 355.232 166.85 359.953 167.424 363.092C168.436 368.619 171.676 376.98 172.672 379.604C173.576 381.985 174.375 384.915 175.013 387.33C175.507 388.461 175.937 389.741 176.29 391.085C176.503 391.727 176.784 392.289 177.073 394.143"
        stroke="#121212" stroke-width="3" stroke-linecap="round" />
    <path
        d="M145.578 350.875C148.553 359.511 150.251 362.909 151.885 365.464C153.619 368.175 153.945 370.708 154.867 372.978C155.741 375.133 155.929 378.353 156.995 381.128C157.964 383.651 157.921 398.085 157.567 406.713C157.416 410.398 157.069 414.643 156.716 418.753C156.29 423.713 156.218 429.637 155.865 434.068C155.571 437.754 155.367 440.022 155.014 444.193C154.444 450.921 154.516 453.485 154.092 456.111C153.468 459.981 153.384 464.252 153.169 467.309C152.885 471.342 152.251 478.702 151.892 482.546C151.574 485.947 151.256 490.761 151.041 494.52C150.833 498.151 150.404 501.818 150.189 505.154C150.093 506.651 149.834 513.397 149.764 522.82C149.709 530.164 148.847 537.257 148.487 542.849C148.417 544.069 148.276 544.631 148.204 547.446C148.131 550.261 148.131 555.313 148.131 560.518"
        stroke="#121212" stroke-width="3" stroke-linecap="round" />
    <path d="M133.66 350.768H151.536" stroke="#121212" stroke-width="3" stroke-linecap="round" />
    <path
        d="M164.783 471.922C172.259 472.227 179.736 472.532 210.517 473.298C241.298 474.065 295.158 475.285 323.285 475.837C351.412 476.389 352.175 476.236 354.018 476.082C363.12 475.317 370.485 474.694 378.957 474.234C391.922 473.531 401.652 473.617 405.177 473.386C411.449 473.308 416.142 473.155 417.679 472.924C418.454 472.846 419.217 472.846 420.465 472.384"
        stroke="#121212" stroke-width="3" stroke-linecap="round" />
    <path
        d="M164.305 473.344C164.305 483.447 164.305 492.441 164.235 498.603C164.198 501.824 163.739 503.667 163.526 512.242C163.338 519.833 163.454 534.008 163.383 541.59C163.313 549.172 163.173 549.734 163.1 550.374C163.028 551.013 163.028 551.715 163.028 552.438"
        stroke="#121212" stroke-width="3" stroke-linecap="round" />
    <path
        d="M170.379 460.516C160.122 460.15 158.473 455.179 158.931 452.739C159.847 439.166 161.679 411.379 161.679 408.817C161.679 405.614 174.043 395.549 177.706 397.837C181.369 400.124 229.909 403.784 242.731 406.529C255.552 409.275 298.139 403.784 324.698 403.784C345.946 403.784 370.185 394.939 379.649 390.516C385.144 392.956 397.141 397.837 401.171 397.837C405.201 397.837 417.809 408.817 423.609 414.307C424.219 424.373 425.715 447.157 426.814 457.771C427.913 468.386 419.946 467.684 415.824 466.007C338.283 464.329 180.637 460.882 170.379 460.516Z"
        fill="#AF700A" />
    <path
        d="M162.009 409.097C161.704 415.089 160.474 423.362 159.392 429.099C158.59 433.355 158.773 436.491 158.005 442.715C157.277 448.618 158.31 451.43 159.996 455.276C162.055 459.975 166.004 460.216 169.467 461.369C175.523 463.384 180.022 462.988 183.34 463.297C186.196 463.564 191.105 464.069 196.418 464.145C199.45 464.189 207.098 464.683 217.804 464.99C221.798 465.105 222.864 465.298 248.513 465.452C274.162 465.607 324.36 465.76 350.601 465.914C376.842 466.069 377.605 466.221 382.27 466.3C395.478 466.522 405.046 466.531 408.49 466.762C415.733 467.248 421.686 466.383 423.84 465.538C425.416 464.92 426.471 463.769 427.241 462.156C428.027 460.509 427.863 449.541 427.787 434.07C427.742 424.948 425.56 419.131 424.092 415.728C423.023 413.25 420.632 411.416 416.935 407.956C414.01 405.218 411.079 403.258 408.301 401.251C405.168 398.988 401.832 397.558 398.746 396.243C395.628 394.915 392.123 394.01 389.037 393.01C386.103 392.162 383.643 390.933 381.174 390.083C380.555 389.852 379.944 389.548 378.853 388.771"
        stroke="#121212" stroke-width="3" stroke-linecap="round" />
    <path
        d="M378.713 389.707C375.807 391.271 371.738 393.082 366.444 394.94C357.509 398.077 352.321 398.833 348.965 399.691C345.736 400.517 343.939 400.986 341.063 401.553C337.881 402.18 336.032 402.005 331.102 402.286C326.847 402.528 319.018 402.679 314.706 402.849C308.247 403.106 303.751 403.694 300.575 403.98C297.295 404.275 292.585 404.709 283.431 404.996C280.703 405.081 276.319 405.278 270.677 405.334C267.713 405.363 262.215 405.617 254.709 405.561C248.85 405.517 242.775 404.831 239.253 404.489C235.61 404.136 232.93 403.701 229.826 403.474C225.672 403.17 220.753 402.462 215.488 402.12C210.107 401.771 203.36 400.884 200.402 400.483C197.797 400.13 194.652 399.639 191.258 398.681C188.728 397.967 185.722 397.831 181.499 397.269C175.717 396.5 173.864 397.94 172.111 398.955C170.275 400.018 169.344 401.886 167.876 403.523C165.618 405.048 163.92 406.29 163.189 407.021C162.792 407.417 162.345 407.864 161.207 409.34"
        stroke="#121212" stroke-width="3" stroke-linecap="round" />
    <path
        d="M183.391 392.297C183.391 391.671 183.313 387.28 183.155 380.802C183.096 378.392 182.997 377.766 182.996 374.509C182.995 371.252 183.073 365.383 183.231 361.499C183.389 357.615 183.624 355.894 183.901 354.498C184.179 353.103 184.492 352.085 185.985 341.936C187.478 331.787 190.141 312.537 191.552 301.486C192.963 290.435 193.041 288.165 193.512 282.731C193.983 277.298 194.845 268.768 195.798 261.518C196.751 254.268 197.769 248.555 198.372 245.378C198.974 242.2 199.131 241.731 199.368 240.706C199.606 239.682 199.919 238.117 200.242 236.267"
        stroke="black" stroke-width="2" stroke-linecap="round" />
    <path
        d="M199.31 238.353C200.951 238.353 202.593 238.353 217.628 238.353C232.662 238.353 261.04 238.353 276.362 238.47C291.684 238.587 293.092 238.822 299.328 238.942C329.58 239.528 336.671 238.353 343.543 237.764C351.736 237.061 357.785 238.58 359.203 240.469C362.049 244.261 364.885 247.57 367.497 252.299C369.672 256.237 371.281 265.037 372.948 273.941C374.03 279.725 375.552 285.899 377.322 293.791C382.349 316.212 381.714 324.483 382.073 329.812C382.386 334.465 383.135 338.216 383.967 346.119C384.088 355.399 384.322 362.365 384.678 365.429C384.798 367.321 384.798 369.899 386.22 373.264"
        stroke="black" stroke-width="2" stroke-linecap="round" />
    <path
        d="M49.0307 471.039C42.0704 477.993 29.9508 483.697 24.761 485.68V483.392L13.3128 478.817C14.6866 476.224 16.6098 471.405 13.3128 472.869C9.19155 474.699 4.61253 478.817 2.32293 476.072C0.0333271 473.327 1.86501 466.922 6.90212 466.922C11.9392 466.922 20.6397 458.229 24.761 455.484C28.8823 452.739 40.7882 438.098 43.5357 435.353C45.7337 433.157 55.7469 426.813 60.4787 423.915C62.1578 426.203 67.0728 431.144 73.3005 432.608C79.5282 434.072 92.991 435.048 98.944 435.353C98.7914 439.776 97.845 449.627 95.2806 453.654C92.0752 458.686 76.9639 458.229 69.1792 458.229C61.3946 458.229 57.7312 462.346 49.0307 471.039Z"
        fill="#F8F8F6" />
    <path
        d="M98.8008 435.353C99.1607 441.807 98.6856 446.845 97.964 449.07C97.1982 451.43 95.2088 452.844 93.1104 454.406C90.613 456.266 86.3404 457.403 83.7526 457.707C80.9413 458.037 77.3352 458.245 72.0678 458.426C68.791 458.539 65.9402 459.324 63.1796 460.519C60.3194 461.758 58.2595 463.394 56.0406 465.072C52.6652 467.624 51.0611 469.148 49.4379 470.588C47.6222 472.199 43.9995 475.484 40.5047 478.257C37.5649 480.589 35.2247 481.856 33.004 483.233C30.5259 484.77 26.8386 486.646 23.7667 486.898C23.1739 486.946 22.8651 486.186 22.8003 485.645C22.7356 485.103 22.9731 484.51 23.2736 483.908C23.5742 483.305 23.9305 482.712 25.0174 481.022"
        stroke="black" stroke-width="2" stroke-linecap="round" />
    <path
        d="M23.2178 483.539C22.1453 483.539 20.2233 483.302 19.4441 482.705C19.0701 482.418 19.0212 481.871 19.0194 481.389C19.0176 480.907 19.1363 480.432 19.4351 480.01C19.7338 479.587 20.2089 479.231 21.4182 477.786"
        stroke="black" stroke-width="2" stroke-linecap="round" />
    <path
        d="M18.994 481.799C17.8092 481.883 16.7333 481.927 15.9646 481.863C15.4957 481.825 15.2766 481.331 15.0631 480.884C14.845 480.427 14.8907 479.668 14.9541 478.879C15.0302 477.933 15.9986 477.276 16.6622 476.548C16.9398 476.208 17.2399 475.907 17.5809 475.672C17.7528 475.565 17.922 475.48 18.3529 475.137"
        stroke="black" stroke-width="2" stroke-linecap="round" />
    <path
        d="M14.7625 478.852C13.311 478.81 12.5442 478.555 11.9434 478.001C11.5244 477.614 11.5568 476.595 11.6203 475.613C11.6853 474.608 12.6647 474.03 13.3494 473.452C14.0342 472.832 14.5894 472.363 14.9735 471.958C15.146 471.765 15.2729 471.596 15.4037 471.421"
        stroke="black" stroke-width="2" stroke-linecap="round" />
    <path
        d="M12.454 473.855C9.76374 475.135 8.90973 475.562 8.22498 476.01C7.55997 476.446 6.56055 476.587 4.32037 476.59C3.40603 476.591 2.79699 476.035 2.26356 475.758C1.80481 475.52 1.51341 474.969 1.25695 473.886C0.394039 470.244 1.93657 468.949 2.47129 468.327C3.06591 467.636 4.11392 467.324 5.24747 466.917C6.26939 466.551 7.19144 466.256 8.04802 465.978C9.33233 465.561 10.2279 465.018 11.0403 464.59C12.0266 464.07 12.8361 463.481 14.0094 462.755C14.8139 462.257 15.4007 461.815 16.1272 461.089C16.7931 460.424 17.8782 459.809 18.5424 459.252C19.4378 458.502 20.571 457.802 21.4051 457.182C22.7411 456.187 23.646 455.284 24.9308 454.108C25.7703 453.34 27.0646 452.083 27.9673 451.309C28.5913 450.773 29.206 450.2 29.8908 449.622C30.5968 449.026 31.1731 448.491 32.0271 447.425C32.6725 446.619 33.394 445.972 34.2076 445.182C34.9575 444.453 35.8304 443.2 36.6229 442.235C37.1543 441.588 37.6692 440.763 38.2264 440.056C38.7246 439.424 39.2516 438.669 39.8927 437.964C40.5564 437.234 41.1314 436.619 41.7097 436.063C42.5152 435.288 43.7396 434.654 44.3596 434.141C45.0255 433.59 45.876 432.904 46.5607 432.347C47.291 431.754 48.2251 430.982 49.0182 430.404C49.8311 429.812 50.4922 429.273 51.3899 428.781C52.1538 428.363 53.1825 427.864 54.2109 427.266C54.9913 426.812 55.8343 426.198 56.5415 425.664C57.0769 425.044 57.4616 424.617 57.7174 424.256C57.8462 424.063 57.9732 423.851 58.2322 423.505"
        stroke="black" stroke-width="2" stroke-linecap="round" />
    <path
        d="M58.324 423.192C65.6951 429.044 67.2736 430.096 69.3461 431.051C71.2128 431.91 72.5407 432.271 74.9085 432.861C78.0986 433.654 79.8505 433.586 81.6948 433.85C83.8058 434.113 87.8598 434.245 91.9582 434.409C93.4646 434.443 96.0073 434.443 98.627 434.443"
        stroke="black" stroke-width="2" stroke-linecap="round" />
    <path
        d="M177.706 256.464C171.478 251.706 161.374 252.346 157.1 253.261C157.863 249.449 162.137 240.542 173.127 235.418C186.864 229.013 185.491 234.961 189.612 235.418C192.909 235.784 212.661 265.462 222.124 280.255L194.649 268.359C191.596 266.377 183.934 261.222 177.706 256.464Z"
        fill="#121212" />
    <path
        d="M193.672 256.675C193.968 257.857 194.263 259.039 194.416 261.125C194.568 263.212 194.568 266.167 194.568 269.212"
        stroke="#303133" stroke-width="2" stroke-linecap="round" />
    <path
        d="M221.456 279.062C218.772 276.38 216.984 274.002 214.967 271.09C211.958 266.744 210.558 264 207.726 259.677C205.606 256.442 201.918 250.308 199.056 246.162C197.04 243.24 195.769 240.422 192.789 237.581C190.021 234.942 187.111 234.44 184.272 233.471C180.707 232.254 176.356 233.536 173.665 234.805C171.189 235.973 168.442 238.452 166.343 240.697C164.077 243.121 161.72 246.95 159.621 249.95C159.17 250.55 158.727 251.141 158.35 251.741C157.974 252.341 157.678 252.932 157.373 253.541"
        stroke="black" stroke-width="2" stroke-linecap="round" />
    <path
        d="M419.946 323.719L398.423 297.641L331.109 339.732L277.533 310.909L257.384 284.373L296.765 256.007C314.166 256.007 316.914 268.36 324.24 264.242C343.955 253.162 336.146 246.856 343.015 250.516C348.51 253.444 376.443 251.736 389.723 250.516L401.171 264.242L411.703 272.477C417.503 274.612 428.554 279.157 426.356 280.255C423.609 281.627 434.141 297.641 437.804 299.928C441.468 302.216 441.01 319.144 441.01 323.719C441.01 327.379 436.431 327.684 434.141 327.379L432.309 322.346L419.946 323.719Z"
        fill="#B8BABD" />
    <path
        d="M390.062 296.947C389.357 290.612 389.512 288.421 390.294 286.269C390.53 285.602 390.763 284.827 390.999 284.234C391.235 283.641 391.468 283.253 391.943 282.149"
        stroke="#303133" stroke-width="2" stroke-linecap="round" />
    <path d="M381.834 300.47L378.072 293.424" stroke="#303133" stroke-width="2" stroke-linecap="round" />
    <path
        d="M378.091 275.795C375.944 278.025 373.797 280.256 372.648 281.577C371.499 282.898 371.413 283.241 371.24 283.632C371.067 284.023 370.81 284.452 370.284 285.414"
        stroke="#303133" stroke-width="2" stroke-linecap="round" />
    <path
        d="M348.166 272.935C348.08 272.935 347.994 272.935 342.54 275.251C337.086 277.568 326.266 282.201 318.245 285.488C310.224 288.776 305.329 290.577 301.648 291.677C295.736 293.444 291.629 293.474 288.942 293.517C286.414 293.734 284.507 294.077 282.901 294.771C282.508 294.945 282.165 295.117 281.55 295.554"
        stroke="#303133" stroke-width="2" stroke-linecap="round" />
    <path
        d="M274.785 288.534C281.311 284.416 285.875 282.037 289.801 280.918C292.524 280.056 296.732 278.597 299.114 277.846C301.496 277.094 301.925 277.094 303.148 276.574"
        stroke="#303133" stroke-width="2" stroke-linecap="round" />
    <path
        d="M256.656 284.304C256.914 283.787 257.952 282.75 259.123 281.708C260.983 280.055 265.561 277.305 268.618 275.469C271.014 274.029 273.992 272.35 275.732 271.136C277.483 269.915 279.201 269.142 280.675 267.975C283.608 265.652 285.358 264.291 286.836 263.034C288.179 261.891 289.61 261.082 291.215 259.655C292.691 258.343 294.465 257.531 295.986 257.007C298.411 256.172 302.355 257.089 305.392 257.352C307.77 257.557 310.333 258.3 312.509 259.04C314.057 259.566 315.803 260.38 317.842 261.465C319.988 262.606 321.356 263.157 323.781 263.16C326.645 263.163 328.642 261.602 330.635 260.607C333.018 259.416 335.912 256.595 338.27 254.455C339.477 253.293 340.443 252.157 341.091 251.25C341.481 250.771 341.996 250.257 342.527 249.206"
        stroke="black" stroke-width="2" stroke-linecap="round" />
    <path
        d="M408.082 266.385C407.461 267.005 407.064 267.634 407.102 268.337C407.26 271.284 412.464 272.177 413.524 272.958C414.915 273.982 416.696 274.991 418.029 275.817C419.567 276.769 421.548 277.34 423.123 277.932C424.421 278.419 425.474 279.299 426.845 280.707C428.23 282.13 428.846 283.992 429.083 285.835C429.31 287.592 430.256 289.084 430.728 290.3C431.26 291.674 432.762 292.843 434.094 294.097C435.316 295.248 436.054 296.681 437.152 298.245C438.478 300.135 439.66 303.253 440.327 305.017C441.133 307.152 441.386 308.89 441.505 310.772C441.619 312.583 441.856 314.138 441.975 317.422C442.054 319.625 441.706 322.279 441.154 323.771C440.497 325.548 439.119 326.822 438.139 327.806C436.924 328.081 435.906 328.396 435.163 328.318C434.808 328.241 434.497 328.086 433.472 327.456"
        stroke="black" stroke-width="2" stroke-linecap="round" />
    <path
        d="M254.636 294.896L245.478 297.183L261.505 310.909L272.495 318.686C272.495 318.686 274.558 308.845 272.495 303.131C271.6 300.649 271.131 299.074 269.29 297.183C267.449 295.292 254.636 294.896 254.636 294.896Z"
        fill="#F8F8F6" />
    <path
        d="M267.065 306.663C267.236 307.521 267.408 308.379 267.54 309.035C267.671 309.692 267.757 310.121 267.801 311.114C267.845 312.107 267.845 313.652 267.845 315.243"
        stroke="black" stroke-width="2" stroke-linecap="round" />
    <path d="M267.065 307.703L266.024 312.123" stroke="black" stroke-width="2" stroke-linecap="round" />
    <path
        d="M267.325 307.183C265.092 305.982 263.513 305.192 262.69 304.889C261.954 304.672 260.827 304.583 259.527 304.712C259 304.841 258.743 305.098 258.477 305.623"
        stroke="black" stroke-width="2" stroke-linecap="round" />
    <path
        d="M272.79 318.103C272.961 316.808 273.31 313.36 273.526 309.585C273.98 301.652 272.878 300.257 271.754 298.264C271.272 297.41 270.45 297.046 269.845 296.613C267.925 295.24 264.213 296.092 262.475 295.659C259.457 294.908 256.318 294.792 252.508 294.832C249.646 294.863 248.163 295.655 246.557 296.261C246.164 296.435 245.821 296.607 245.601 296.867C245.381 297.127 245.295 297.47 245.207 298.084"
        stroke="black" stroke-width="2" stroke-linecap="round" />
    <path
        d="M232.656 289.405H230.367L231.283 281.17C235.404 281.322 244.654 281.719 248.684 282.085C252.713 282.451 263.184 290.473 267.916 294.438H262.421C257.079 291.693 245.112 285.837 239.983 284.373C234.854 282.908 232.962 287.118 232.656 289.405Z"
        fill="#515356" />
    <path
        d="M245.936 297.641L232.656 290.778C233.725 288.795 236.961 284.739 241.357 284.373C246.852 283.915 262.879 295.811 257.384 294.895C252.988 294.163 247.92 296.421 245.936 297.641Z"
        fill="#303133" />
    <path
        d="M268.626 294.964C262.04 289.595 259.617 287.866 256.929 285.83C252.397 282.398 246.466 281.195 243.087 280.622C238.873 279.907 232.287 280.748 231.508 281.439C230.549 282.828 230.288 283.953 230.158 285.204C230.114 286.025 230.114 287.227 230.114 288.464"
        stroke="black" stroke-width="2" stroke-linecap="round" />
    <path
        d="M262.121 293.924C253.018 288.433 247.728 285.519 246.216 285.217C244.073 284.789 241.491 284.304 239.237 284.39C237.231 285.168 235.672 286.722 234.326 288.199C234.02 288.547 233.762 288.891 232.977 290.024"
        stroke="black" stroke-width="2" stroke-linecap="round" />
    <path
        d="M363.163 250.974L343.015 248.229C343.015 248.229 341.224 243.227 341.641 239.993C342.268 235.127 348.51 229.471 348.51 229.471L363.163 250.974Z"
        fill="#F8F8F6" />
    <path
        d="M343.308 248.426C340.706 244.531 341.736 239.883 342.741 236.69C343.042 236.212 343.558 235.697 343.909 235.26C344.26 234.824 344.432 234.48 344.609 233.867"
        stroke="black" stroke-width="2" stroke-linecap="round" />
    <path
        d="M392.012 196.529L430.936 236.791L392.012 271.105L353.089 224.895L347.594 223.065L341.641 229.471L311.876 245.484L331.567 229.471L386.06 196.529H392.012Z"
        fill="#929272" />
    <path
        d="M315.54 249.144L312.334 246.399C312.334 242.739 329.735 234.808 338.436 231.301L348.052 222.608L389.723 271.562L371.864 257.837C362.339 250.516 352.021 234.656 348.052 227.641L315.54 249.144Z"
        fill="#F8F8F6" />
    <path
        d="M348.772 228.667C351.458 234.293 352.67 236.373 353.712 237.934C355.114 240.034 357.354 242.701 358.698 244.476C360.072 246.29 361.601 247.896 364.418 250.54C366.482 252.478 368.627 254.312 370.969 256.132C372.623 257.418 374.263 259.075 375.915 260.51C377.886 262.222 379.556 263.5 380.861 264.8C382.256 266.19 383.547 267.14 385.585 268.613C387.107 269.828 388.148 270.697 388.883 271.085C389.275 271.302 389.704 271.56 389.366 271.305"
        stroke="black" stroke-width="2" stroke-linecap="round" />
    <path
        d="M353.977 228.407C358.744 235.076 360.471 237.32 362.081 239.19C363.853 241.25 365.332 243.044 366.679 244.694C368.057 246.382 370.188 248.593 371.666 249.938C373.059 251.206 374.528 252.664 376.045 254.184C377.612 255.753 378.863 257.261 380.253 258.733C381.852 260.429 384.411 262.715 386.021 264.28C387.89 266.098 389.881 268.092 390.88 269.48C391.099 269.828 391.271 270.171 391.402 270.52C391.533 270.868 391.619 271.211 391.708 271.825"
        stroke="black" stroke-width="2" stroke-linecap="round" />
    <path
        d="M353.977 228.927C353.024 227.024 352.16 225.813 351.075 224.513C350.468 223.785 349.73 223.296 348.823 223.036C346.348 222.326 344.702 224.502 343.572 225.802C342.432 227.112 341.148 228.745 338.59 230.352C336.439 231.703 333.513 232.822 331.218 233.949C328.219 235.422 326.659 236.462 325.358 237.287C322.924 238.832 319.03 240.793 317.379 241.923C316.057 242.827 314.778 244.001 313.345 245.042C312.524 245.561 311.738 245.998 311.089 246.387C310.783 246.604 310.526 246.861 310 247.386"
        stroke="black" stroke-width="2" stroke-linecap="round" />
    <path
        d="M312.342 247.126C314.072 248.684 315.288 249.463 315.98 249.853C316.305 250.037 316.672 249.986 317.107 249.729C319.116 248.538 319.883 246.788 321.184 245.57C322.415 244.418 324.302 243.752 325.997 242.883C328.244 241.732 330.115 240.46 332.111 239.33C334.106 238.201 336.1 237.512 337.621 236.902C339.921 235.98 342.605 234.049 344.299 232.831C345.035 232.312 345.905 231.532 346.857 230.581C347.294 230.144 347.638 229.801 347.992 229.187"
        stroke="black" stroke-width="2" stroke-linecap="round" />
    <path
        d="M390.927 272.085C391.617 271.656 393.175 270.27 394.349 269.186C395.708 267.931 397.167 267.15 399.158 265.937C402.141 264.12 404.271 261.873 406.014 260.389C407.39 259.219 408.877 258.311 410.394 257.011C411.956 255.673 413.212 254.323 414.559 252.938C415.778 251.684 417.719 250.34 419.069 249.21C420.416 248.084 421.799 246.871 424.096 244.708C425.735 243.164 427.003 242.363 428.177 241.453C429.436 240.629 430.475 239.592 431.56 238.55C431.864 238.289 432.208 238.032 432.562 237.767"
        stroke="black" stroke-width="2" stroke-linecap="round" />
    <path
        d="M394.57 196.949C397.422 200.838 400.545 203.958 404.487 207.897C406.321 209.729 407.576 210.895 408.963 212.153C411.928 214.843 414.95 218.434 416.422 219.951C418.203 221.787 419.286 223.285 420.457 224.632C422.506 226.989 424.75 229.094 426.051 230.482C427.311 231.827 428.393 232.993 430.083 234.813C430.478 235.25 430.735 235.593 430.997 235.899C431.258 236.204 431.516 236.462 432.041 236.727"
        stroke="black" stroke-width="2" stroke-linecap="round" />
    <path
        d="M394.05 196.949C392.676 196.091 391.453 195.391 390.501 194.959C390.063 194.783 389.72 194.697 389.2 194.653C388.679 194.609 387.992 194.609 387.284 194.609"
        stroke="black" stroke-width="2" stroke-linecap="round" />
    <path
        d="M354.237 223.987C362.366 218.98 368.278 214.118 369.973 212.942C372.162 211.423 377.953 207.551 381.77 205.272C383.233 204.399 384.5 203.194 385.762 202.195C386.066 201.977 386.41 201.805 386.716 201.588C387.021 201.371 387.279 201.114 387.805 200.849"
        stroke="black" stroke-width="2" stroke-linecap="round" />
    <path
        d="M385.983 194.869C381.221 198.675 377.417 201.441 373.419 204.478C371.602 205.857 369.86 207.255 364.493 210.326C361.832 211.849 360.404 212.631 356.032 215.137C353.483 216.599 351.817 217.571 349.778 218.955C347.625 220.417 345.743 221.211 344.139 222.206C341.649 223.752 339.759 224.331 337.505 225.629C335.688 226.676 333.685 227.882 331.909 228.923C330.255 229.893 328.746 231.002 327.094 232.043C325.38 233.123 323.63 234.293 321.975 235.423C320.098 236.704 318.161 238.458 316.771 239.28C315.186 240.217 313.217 241.141 311.74 242.657C311.13 244.175 310.695 245.389 310.737 246.038C310.864 246.344 311.208 246.601 311.562 246.866"
        stroke="black" stroke-width="2" stroke-linecap="round" />
    <path
        d="M343.308 249.206C347.294 250.506 348.679 250.849 351.661 251.242C355.319 251.286 358.049 251.372 359.387 251.502C360.295 251.546 361.669 251.546 363.084 251.546"
        stroke="black" stroke-width="2" stroke-linecap="round" />
    <path
        d="M100.944 432.412C100 432.694 97.9089 433.643 95.9118 434.357C92.5098 435.573 86.7821 434.504 85.0703 434.313C82.362 434.011 80.1289 433.364 77.701 432.983C75.919 432.704 73.8523 432.035 69.8624 430.754C67.0749 429.859 65.4816 428.427 63.814 427.191C61.8358 425.725 60.4375 424.436 58.1108 422.111C57.5816 421.583 57.2991 421.3 57.1536 420.779C57.0081 420.257 57.0081 419.505 57.4789 418.647C59.4234 415.102 61.7555 414.556 62.9481 412.561C64.0928 410.645 65.2762 408.097 65.8981 406.337C66.71 404.039 67.5586 402.111 69.2219 400.302C70.7065 398.688 72.0321 397.168 72.7439 395.505C73.7416 393.174 74.3145 391.279 75.216 388.24C75.8301 386.171 76.5969 384.341 77.5455 382.441C78.7244 380.08 80.2031 376.85 81.9662 373.843C83.0562 371.984 85.7094 368.96 87.8149 366.478C89.2443 364.006 90.1002 362.483 90.6694 361.772C90.9561 361.437 91.2385 361.155 91.5295 360.864"
        stroke="black" stroke-width="2" stroke-linecap="round" />
    <path
        d="M91.2441 361.933C93.5208 357.002 95.2326 353.775 95.9972 351.442C96.6403 349.48 97.0414 346.558 97.3296 344.504C97.5991 342.583 98.4679 340.378 98.709 338.518C98.9799 336.428 99.8031 334.386 100.324 332.864C100.845 331.341 101.983 329.261 103.128 326.975C103.874 325.487 108.134 319.045 110.452 314.906C111.408 313.198 112.162 311.297 112.734 309.303C113.688 305.979 114.633 302.939 115.68 299.145C117.163 293.772 118.433 290.409 120.192 286.179C123.672 277.809 125.857 276.618 129.128 272.16C131.064 269.521 133.554 267.97 136.122 265.501C138.017 263.679 139.454 261.322 140.597 259.653C141.643 258.125 143.351 256.379 145.396 255.138C147.017 254.153 148.772 254.567 151.243 254.423C151.819 254.376 152.196 254.282 152.625 254.186C153.055 254.091 153.525 253.996 154.581 253.9"
        stroke="black" stroke-width="2" stroke-linecap="round" />
    <path
        d="M101.229 433.196C99.994 427.024 99.8029 424.188 99.9912 421.244C100.06 420.166 100.556 419.992 101.127 419.754C103.56 418.739 105.309 418.282 107.025 416.717C108.899 415.008 108.739 410.688 108.98 407.979C109.179 405.739 109.783 403.277 110.594 401.088C111.197 399.463 112.35 397.764 113.493 396.145C114.634 394.528 115.774 392.821 117.153 390.163C118.08 388.378 119.483 386.835 120.483 385.172C122.066 382.539 123.574 380.564 124.857 378.522C126.46 375.968 129.366 371.272 130.896 368.97C132.169 367.056 133.177 364.886 134.036 363.364C134.894 361.843 136.03 360.514 136.652 359.088C137.554 357.566 138.507 356.426 138.886 355.668C139.077 355.286 139.266 354.91 139.745 354.237"
        stroke="black" stroke-width="2" stroke-linecap="round" />
    <path
        d="M139.46 355.377C139.46 354.146 139.648 352.441 139.839 350.538C140.029 348.651 140.789 347.213 141.928 344.508C142.705 342.66 143.831 341.227 144.592 339.468C145.354 337.898 146.113 336.193 147.159 334.338C147.445 333.907 147.728 333.531 148.304 332.858"
        stroke="black" stroke-width="2" stroke-linecap="round" />
    <path
        d="M153.34 253.988C154.079 253.393 162.383 253.093 168.117 253.612C171.298 253.901 174.088 255.923 178.343 258.009C182.256 259.928 184.548 261.296 187.832 263.308C191.062 265.287 194.102 266.964 196.576 268.831C200.945 272.129 206.21 275.471 209.195 277.562C211.613 279.256 214.42 281.139 216.966 283.011C219.31 284.735 223.078 286.217 232.325 291.281C237.383 294.05 243.092 297.258 246.838 299.575C249.626 301.299 252.216 303.526 254.978 305.915C260.447 310.643 264.02 314.872 266.78 317.482C269.838 320.374 273.278 321.588 275.373 323.307C278.082 325.53 281.793 326.665 284.259 328.306C285.673 329.2 287.027 329.952 288.219 330.547C288.819 330.847 289.411 331.143 290.02 331.447"
        stroke="black" stroke-width="2" stroke-linecap="round" />
    <path
        d="M175.298 357.416C179.627 365.614 180.819 369.487 183.206 374.784C185.105 378.999 188.285 383.224 190.08 385.689C192.434 388.921 196.047 392.179 199.26 394.865C203.609 398.501 207.098 400.686 211.431 403.746C215.399 406.548 219.502 408.602 222.043 409.499C225.577 410.748 229.056 411.888 232.498 412.783C235.405 413.54 239.659 413.679 242.657 414.203C244.27 414.485 246.094 414.427 250.914 414.651C269.825 415.529 273.422 413.983 278.351 413.088C282.529 412.329 287.914 410.554 291.947 408.987C294.799 407.879 297.477 406.972 299.87 406.074C302.441 405.11 306.126 403.247 311.885 400.632C315.107 399.06 317.796 397.717 319.436 396.898C320.189 396.522 320.78 396.226 322.286 395.922"
        stroke="black" stroke-width="2" stroke-linecap="round" />
    <path
        d="M72.8424 432.15C80.5354 436.543 94.9751 433.98 101.233 432.15L98.0279 422.085L106.27 416.137L109.018 406.529L138.325 353.458L154.81 312.281C159.542 320.211 170.562 340.373 176.79 357.575C184.575 379.078 199.228 395.549 211.592 406.529C223.956 417.51 261.505 414.765 267.458 416.137C273.411 417.51 320.119 397.837 321.493 395.549C322.867 393.261 312.792 364.895 309.587 353.458C307.023 344.307 296.307 335.919 291.27 332.869C253.11 307.096 175.233 255.549 169.006 255.549C161.221 255.549 152.978 252.804 148.399 255.549C143.82 258.294 132.83 268.36 127.793 273.392C122.756 278.425 114.055 305.418 112.681 309.536C111.582 312.83 98.4859 345.68 92.075 361.693L56.3572 422.085C58.6468 423.61 65.1493 427.758 72.8424 432.15Z"
        fill="#121212" />
    <path
        d="M287.607 329.667C290.717 331.44 297.009 335.926 299.845 338.536C302.244 340.743 304.179 344.424 305.602 347.789C307.017 351.137 309.108 355.77 310.383 359.13C311.458 361.964 312.398 365.02 313.222 367.716C313.977 370.184 315.086 372.488 316.209 375.325C317.35 378.207 317.927 380.995 318.898 384.575C319.7 387.537 319.872 391.428 320.318 394.58C320.468 395.18 320.616 395.771 320.766 396.371C320.917 396.971 321.064 397.562 321.217 398.171"
        stroke="black" stroke-width="2" stroke-linecap="round" />
    <path
        d="M272.953 306.791V318.686C287.24 315.392 330.804 366.725 350.8 392.804L356.295 389.601C358.432 390.516 364.354 391.797 370.948 389.601C377.542 387.405 380.412 379.536 381.022 375.876C364.843 359.863 331.659 326.007 328.362 318.686C325.065 311.366 313.25 304.351 307.755 301.758L272.953 306.791Z"
        fill="#515356" />
    <path
        d="M274.091 318.882C277.296 320.18 278.852 321.217 280.546 322.517C282.091 323.702 283.453 324.769 284.754 325.898C286.315 326.939 288.048 327.805 289.438 328.715C289.787 328.934 290.13 329.105 290.744 329.542"
        stroke="black" stroke-width="2" stroke-linecap="round" />
    <path
        d="M310.26 303.023C318.582 307.352 320.487 309.252 322.44 311.292C324.097 313.023 325.519 314.369 326.952 316.232C328.935 318.811 331.333 321.477 332.504 323.294C333.952 325.543 335.496 326.848 336.495 328.021C336.886 328.668 337.406 329.365 338.055 330.014C338.361 330.319 338.619 330.577 338.884 330.842"
        stroke="black" stroke-width="2" stroke-linecap="round" />
    <path
        d="M381.989 375.525C381.243 378.507 378.264 384.659 375.191 387.048C373.207 388.59 370.506 388.866 367.821 389.656C365.505 390.337 362.891 390.448 359.705 390.645C354.286 390.979 348.057 390.212 343.71 390.486C340.913 390.663 339.025 391.472 336.589 391.711C333.501 392.014 330.533 391.95 328.342 391.359C325.795 390.672 323.659 389.742 321.658 389.029C319.306 388.191 316.171 385.569 310.194 381.001C306.979 378.545 301.892 374.113 299.031 371.74C295.095 368.477 293.55 367.082 291.614 365.857C288.829 364.095 287.801 362.581 286.738 361.277C285.491 359.746 283.311 357.929 281.432 356.382C278.825 354.237 276.318 351.77 274.435 350.222C273.058 349.09 271.191 347.738 266.141 344.427C263.821 342.905 261.949 341.892 259.946 340.787C256.946 339.132 255.45 337.865 252.827 336.523C250.744 335.457 248.704 334.548 246.765 333.6C246.325 333.362 245.954 333.127 245.515 332.928C245.077 332.729 244.582 332.573 243.697 332.412"
        stroke="black" stroke-width="2" stroke-linecap="round" />
    <path
        d="M274.611 305.623C283.448 304.932 287.773 304.24 290.476 303.589C292.607 303.076 295.584 302.769 298.196 302.288C300.339 301.893 306.227 301.037 310.769 300.641C312.326 300.505 316.73 300.423 323.31 300.724C328.589 300.965 331.505 302.758 332.932 303.753C336.272 305.961 339.394 308.733 341.695 310.212C342.262 310.474 342.777 310.646 343.828 311.083"
        stroke="black" stroke-width="2" stroke-linecap="round" />
    <path
        d="M370.49 381.824L334.772 334.242C341.641 334.242 362.248 316.399 367.743 315.484C372.139 314.752 391.249 303.893 400.255 298.556C409.261 306.181 425.624 321.98 419.03 324.176C412.436 326.373 405.903 340.647 403.46 347.51L370.49 381.824Z"
        fill="#515356" />
    <path
        d="M333.857 342.02C333.857 342.02 330.006 337.257 332.025 335.614C333.412 334.487 336.604 335.614 336.604 335.614L364.079 373.588L333.857 342.02Z"
        fill="#303133" />
    <path
        d="M333.766 342.127C332.142 340.024 331.659 338.824 331.448 337.5C331.297 336.553 331.596 335.751 331.957 335.271C332.317 334.791 332.74 334.367 333.28 334.096C334.466 333.502 335.688 334.722 337.223 335.895C338.175 336.622 338.94 337.43 339.905 338.453C340.727 339.324 341.531 340.196 342.344 341.28C343.612 342.972 346.095 346.138 347.553 348.168C349.276 350.567 350.142 351.748 350.777 352.894C351.641 354.452 353.394 356.622 354.179 357.797C354.843 358.792 355.443 359.752 356.166 360.986C356.788 362.046 357.849 363.539 358.876 365.167C359.662 366.413 360.559 367.691 362.215 370.127C363.501 372.018 364.896 374.005 366.072 375.817C367.001 377.248 367.909 378.406 368.753 379.459C369.449 380.327 370.077 381.233 370.681 382.137C370.861 382.32 371.1 382.439 371.342 382.5C371.584 382.562 371.822 382.562 372.068 382.562"
        stroke="black" stroke-width="2" stroke-linecap="round" />
    <path
        d="M350.749 361.983C353.878 364.328 354.84 365.287 356.074 366.282C357.07 367.085 357.972 368.236 359.385 369.859C360.605 371.26 361.524 372.146 363.659 374.37C365.006 375.773 366.283 377.262 367.277 378.076C367.49 378.287 367.609 378.525 367.82 378.797C368.03 379.069 368.328 379.367 368.816 379.854"
        stroke="black" stroke-width="2" stroke-linecap="round" />
    <path
        d="M371.877 381.95C380.174 375.148 383.618 371.399 385.155 369.233C386.444 367.418 387.544 366.297 388.604 365.082C389.661 363.87 390.68 362.694 392.636 359.96C393.901 358.191 395.302 357.057 397.143 355.141C398.376 353.858 399.534 352.674 400.594 351.419C401.687 350.126 402.825 349.071 403.847 347.545C404.635 346.367 405.726 345.082 407.448 342.265C408.477 340.582 409.328 338.51 410.507 336.078C411.731 333.552 412.699 331.383 413.837 329.616C415.303 327.338 416.461 326.441 418.223 325.152C420.416 323.547 423.274 322.918 425.198 322.368C426.02 322.288 426.807 322.211 429.102 322.094C431.008 322.054 434.422 322.054 437.939 322.054"
        stroke="black" stroke-width="2" stroke-linecap="round" />
    <path
        d="M333.321 334.033C335.748 333.096 337.619 332.314 340.752 330.908C345.156 328.931 346.948 328.32 349.845 326.68C352.32 325.279 354.24 323.937 355.845 322.802C357.505 321.627 359.252 320.414 364.334 317.173C366.522 315.777 368.031 315.322 374.789 312.357C377.479 311.177 379.541 309.849 382.367 307.928C385.358 305.896 386.994 304.911 388.641 303.659C391.134 301.764 394.122 300.059 396.398 298.882C397.907 298.101 399.219 296.535 400.398 295.242C401.654 293.559 402.435 291.682 403.257 290.392C403.613 289.876 403.846 289.644 404.085 289.404"
        stroke="black" stroke-width="2" stroke-linecap="round" />
    <path
        d="M321.035 393.261C320.302 392.529 322.256 386.551 323.324 383.654C323.63 379.993 324.973 370.02 327.904 359.405C330.834 348.791 336.452 341.562 338.894 339.275L352.173 354.373V359.405L346.22 369.928L347.594 382.281C347.442 383.654 346.953 386.49 346.22 386.856C345.488 387.222 344.694 385.484 344.389 384.569L342.557 371.758L341.183 377.248C341.641 382.891 342.557 394.451 342.557 395.549C342.557 396.922 340.268 396.922 338.436 396.922C336.604 396.922 336.604 391.889 336.146 393.261C335.688 394.634 332.483 395.549 331.567 395.549C330.834 395.549 329.43 392.194 328.82 390.516L323.324 395.549L321.035 393.261Z"
        fill="#F8F8F6" />
    <path
        d="M352.014 353.68C351.773 354.99 351.533 358.128 351.232 359.271C350.91 360.497 350.211 361.615 349.189 363.118C347.791 365.175 347.016 367.094 346.836 369.661C346.413 375.67 346.834 379.971 346.954 380.601C347.388 382.876 347.076 385.748 346.896 386.288C346.811 386.545 346.597 386.71 346.356 386.832C345.848 387.088 344.973 387.075 344.13 386.955C343.167 386.819 343.403 385.154 343.282 383.651C342.921 382.083 342.799 378.858 342.65 375.805C342.619 374.699 342.619 372.792 342.619 370.828"
        stroke="black" stroke-width="2" stroke-linecap="round" />
    <path
        d="M335.689 367.641C335.383 372.683 335.692 369.341 335.422 374.961C335.393 379.559 335.252 383.314 335.423 387.814C335.634 393.4 335.333 396.133 337.203 397.156C337.804 397.485 338.432 397.682 339.01 397.513C340.154 397.18 341.592 396.62 341.686 395.555C341.896 393.179 341.109 389.148 341.052 385.604C340.993 381.878 340.142 378.373 340.268 377.706C340.597 375.956 341.567 371.396 341.686 370.075"
        stroke="black" stroke-width="2" stroke-linecap="round" />
    <path
        d="M335.392 393.392C335.332 393.811 334.973 394.771 334.101 395.346C333.143 395.978 331.428 395.739 330.186 395.32C328.982 394.914 328.711 392.62 328.347 390.961C328.079 389.742 328.046 388.284 328.014 381.835C328.165 379.377 328.225 378.052 328.315 376.736C328.346 375.778 328.346 374.229 328.346 372.633"
        stroke="black" stroke-width="2" stroke-linecap="round" />
    <path
        d="M327.623 390.685C327.444 391.764 326.485 393.086 325.369 393.901C324.549 394.5 323.892 395.315 323.291 395.796C323.015 396.017 322.691 396.039 322.388 395.921C321.707 395.655 321.301 394.84 321.001 394.179C320.272 392.58 320.996 389.67 321.628 387.473C321.988 386.225 322.141 385.035 322.383 383.77C322.68 382.214 322.745 380.764 322.895 379.677C323.043 378.601 323.106 376.915 323.286 375.676C323.458 374.49 323.648 373.301 323.948 372.067C324.255 370.802 324.19 369.81 324.37 368.846C324.582 367.709 324.79 366.262 325.093 365.236C325.374 364.283 325.574 363.312 325.995 362.168C326.41 361.041 326.597 359.944 327.049 358.889C327.508 357.82 327.742 356.814 328.133 355.85C328.517 354.905 328.826 353.925 329.367 352.303C329.945 350.569 330.991 348.394 331.896 346.586C332.548 345.283 333.582 343.759 334.425 342.522C335.053 341.603 335.75 340.748 336.473 339.904C336.655 339.663 336.834 339.365 337.015 339.122C337.197 338.88 337.376 338.701 337.56 338.517"
        stroke="black" stroke-width="2" stroke-linecap="round" />
    <path
        d="M351.472 353.499C349.306 350.613 347.989 349.535 344.049 345.662C342.262 343.906 341.781 342.614 340.456 341.17C339.735 340.271 339.188 339.602 338.828 339.182C338.646 338.941 338.467 338.643 338.102 338.156"
        stroke="black" stroke-width="2" stroke-linecap="round" />
    <path
        d="M175.416 354.83C187.505 362.15 192.359 360.625 193.275 358.948C197.305 357.925 194.954 348.456 193.275 343.85C190.375 338.207 183.751 326.372 180.454 324.176C180.454 304.961 172.669 307.248 169.463 299.013C169.463 299.013 163.603 292.362 158.931 293.065C154.43 293.743 150.689 301.301 150.689 301.301L145.652 315.026C145.652 315.026 147.483 319.601 146.567 320.974C145.652 322.346 141.072 323.261 141.072 323.261C147.483 330.429 163.327 347.51 175.416 354.83Z"
        fill="#F8F8F6" />
    <path
        d="M153.873 300.629C153.279 298.559 153.573 296.779 154.069 295.886C154.65 294.839 155.601 293.957 156.418 293.659C157.389 293.303 158.618 293.361 159.903 293.238C162.767 292.964 163.766 293.756 164.682 294.372C165.566 294.967 166.439 295.681 167.232 296.326C168.127 297.054 168.865 298.105 169.336 298.871C169.923 299.825 170.498 300.724 171.068 301.393C171.625 302.047 172.131 302.801 172.947 303.543C174.305 304.78 175.1 305.967 175.695 306.708C176.357 307.535 177.03 308.438 177.575 309.426C178.528 311.153 178.616 311.998 179.06 312.863C179.626 313.965 179.605 315.258 179.853 316.202C180.073 317.037 180.249 318.127 180.792 320.128C181.064 321.13 181.386 322.23 181.561 323.198C181.844 324.772 183.803 327.611 184.874 329.376C185.947 331.145 186.63 331.972 187.546 333.627C188.337 335.055 189.154 336.028 189.577 336.82C190.139 337.872 190.935 339.092 191.704 340.28C192.272 341.157 193.014 342.403 193.93 344.183C194.716 345.711 195.193 346.806 195.663 347.967C196.41 349.813 196.776 351.398 196.952 352.666C197.105 353.774 196.978 355.359 196.435 356.202C195.578 357.534 194.457 358.328 193.689 358.799C193.33 359.019 192.873 359.417 192.231 359.738C191.72 359.994 188.74 359.963 184.51 359.914C182.004 359.885 180.947 358.928 180.007 358.383C178.484 357.501 177.829 356.851 177.012 356.331C175.525 355.385 173.526 353.985 172.558 353.266C171.487 352.471 170.456 351.315 169.712 350.448C168.901 349.504 168.375 348.743 167.313 347.557C166.412 346.55 165.506 345.776 164.344 344.639C163.549 343.862 162.686 343.255 161.77 342.487C161.013 341.853 160.212 341.178 159.369 340.533C158.55 339.908 157.638 339.348 156.673 338.606C155.642 337.814 154.817 337.173 153.876 336.504C152.911 335.817 152.047 335.096 151.278 334.304C150.333 333.331 149.324 332.673 148.065 331.317C145.583 328.646 143.937 327.341 142.396 326.023C141.626 325.365 141.699 324.416 141.6 323.477C141.548 322.984 141.895 322.535 142.314 322.19C143.101 321.541 144.706 321.545 146.315 321.422C146.858 321.381 146.797 321.055 146.747 320.807C146.537 319.759 146.105 318.682 145.61 317.076C145.422 316.467 145.41 315.666 145.557 314.777C145.806 313.273 148.427 314.226 148.699 314.276C149.762 314.473 147.59 311.562 147.365 310.448C147.164 309.45 147.192 308.447 147.413 307.629C147.652 306.745 149.165 306.859 150.056 306.737C151.021 306.605 149.716 303.317 149.912 301.672C149.978 301.124 150.554 300.779 151.024 300.532C151.248 300.432 151.444 300.383 151.814 300.358C152.185 300.333 152.724 300.333 153.279 300.333"
        stroke="black" stroke-width="2" stroke-linecap="round" />
    <path
        d="M170.946 305.525C169.182 306.895 168.077 307.699 167.609 307.945C166.994 308.29 166.248 308.589 165.41 308.738C164.963 308.788 164.473 308.788 163.968 308.936"
        stroke="#303133" stroke-width="2" stroke-linecap="round" />
    <path
        d="M180.002 328.516C180.198 332.041 180.299 334.493 180.275 335.628C180.25 336.127 180.201 336.47 180.176 336.867C180.151 337.264 180.151 337.704 180.151 338.158"
        stroke="#303133" stroke-width="2" stroke-linecap="round" />
    <path
        d="M186.534 344.091C186.534 344.14 186.534 344.189 186.73 345.365C186.926 346.54 187.318 348.841 187.569 350.124C187.82 351.407 187.918 351.603 188.316 352.101"
        stroke="#303133" stroke-width="2" stroke-linecap="round" />
    <path
        d="M148.829 327.472C149.546 326.76 150.982 324.365 151.586 322.324C152.368 319.687 156.265 317.892 156.805 315.972C157.223 315.016 157.586 314.052 157.766 313.036C157.827 312.495 157.827 311.901 158.187 311.29"
        stroke="#303133" stroke-width="2" stroke-linecap="round" />
    <path
        d="M361.609 178.666C357.64 176.683 352.314 173.694 350.484 171.541C349.658 170.571 350.299 169.06 351.127 167.889C356.603 164.058 361.599 161.736 362.931 159.584C363.275 158.418 362.946 157.103 360.612 152.758"
        stroke="black" stroke-width="2" stroke-linecap="round" />
    <path
        d="M379.497 132.787C384.715 131.875 389.932 130.962 392.75 131.014C395.568 131.065 395.829 132.108 395.833 132.905C395.848 135.945 393.339 139.484 391.756 141.469C391.061 142.34 390.303 143.18 390.104 144.166C390.165 144.63 390.556 145.021 391.932 145.222C393.307 145.423 395.655 145.423 398.074 145.423"
        stroke="black" stroke-width="2" stroke-linecap="round" />
    <path
        d="M379.498 118.966C376.213 116.735 373.316 114.63 371.99 112.72C370.144 110.062 379.877 109.228 382.063 108.57C380.687 106.992 379.502 105.543 378.713 104.755C378.316 104.359 377.925 103.968 377.126 103.17"
        stroke="black" stroke-width="2" stroke-linecap="round" />
</svg>