<svg width="69" height="70" viewBox="0 0 69 70" fill="none" xmlns="http://www.w3.org/2000/svg">
    <path
        d="M39.7345 27.486C39.681 27.7362 39.5725 28.3102 39.6794 28.7951C39.8322 29.4884 41.2957 29.5702 42.1872 29.7331C42.6807 29.8233 43.1872 29.6446 43.5913 29.4294C44.1606 28.9618 44.3225 28.5302 44.4035 28.2255C44.431 28.0631 44.431 27.8851 43.9452 27.486"
        stroke="#121212" stroke-width="2" stroke-linecap="round" />
    <path
        d="M36.3334 19.7896C36.0111 19.932 35.3649 20.4347 35.173 20.9741C34.9488 21.6041 35.9512 22.4111 37.0848 23.1673C37.8394 23.6707 38.8663 23.8156 39.8922 23.9785C40.9986 24.1542 43.9223 24.1048 45.9921 23.7827C46.5602 23.6943 46.8585 23.3151 47.1549 23.0281C48.0022 22.2077 47.401 20.6203 47.1314 19.918C46.8689 19.2343 45.6228 18.9287 44.5969 18.7113C43.5962 18.4993 40.8906 18.495 39.063 18.6202C38.5521 18.7453 38.063 18.8187 37.6322 18.8543C37.4152 18.8899 37.2014 18.9611 36.6573 19.2502"
        stroke="#121212" stroke-width="2" stroke-linecap="round" />
    <path
        d="M36.4955 19.5739C37.0332 19.7173 37.8947 19.932 39.0284 20.2918C40.0017 20.5081 40.9718 20.7238 42.452 20.8501C43.1776 20.8684 44.3533 20.8684 45.7266 20.7605"
        stroke="#121212" stroke-width="2" stroke-linecap="round" />
    <path
        d="M23.1633 4.31702C23.3237 4.6029 23.9699 5.3203 24.5917 6.02259C25.0899 6.5852 25.5343 7.40453 26.238 8.09065C26.94 8.73793 27.4809 9.3496 27.723 9.6727C27.8583 9.8178 28.0186 9.92461 28.3457 10.3583"
        stroke="#121212" stroke-width="2" stroke-linecap="round" />
    <path
        d="M39.3473 1.00012C39.4542 1.07132 39.5092 1.2504 39.536 1.57296C39.6161 1.96672 39.7246 2.5072 39.8056 3.98947C39.8331 5.15133 39.8331 7.14495 39.8331 9.19898"
        stroke="#121212" stroke-width="2" stroke-linecap="round" />
    <path
        d="M57.5152 2.65881C57.3015 2.80122 56.8172 3.44418 55.9565 4.64542C54.8819 5.95346 53.2608 7.57597 51.6688 9.04961C51.0923 9.59764 50.9854 9.74004 50.5514 10.2104"
        stroke="#121212" stroke-width="2" stroke-linecap="round" />
    <path
        d="M66.5535 10.9513C66.1243 11.0225 65.1543 11.4519 61.7897 12.7621C60.997 13.0711 60.6229 13.2491 60.35 13.3942C60.0771 13.5393 59.9168 13.6461 59.2657 13.9719"
        stroke="#121212" stroke-width="2" stroke-linecap="round" />
    <path
        d="M18.1672 56.6176C22.4373 61.7188 25.5735 64.8462 32.7736 65.7242C38.0544 66.3682 41.4373 65.9223 46.2815 63.9896C50.9401 62.131 53.6828 60.4469 56.2874 56.6176C59.0121 52.6118 59.3074 49.5376 58.7888 44.9091C58.1384 39.1043 56.4224 35.2318 51.2845 31.4661C47.1285 28.4201 43.6985 27.5429 38.2769 27.1296C31.8572 26.6402 27.6167 27.4835 22.2675 30.5988C17.1752 33.5644 16.5766 36.863 14.9914 42.0001C13.0805 48.1932 13.8238 51.4288 18.1672 56.6176Z"
        fill="#F8F8F6" />
    <path
        d="M36.6026 41.584C36.2748 41.6639 35.6874 42.2072 35.1022 42.7178C34.605 43.1515 34.5175 43.7796 34.1206 44.2906C33.7164 44.8107 33.5456 45.5381 33.25 46.1072C32.8219 46.9316 32.6451 48.2342 32.5049 48.8529C32.3482 49.5445 32.1396 50.1622 31.6704 55.0685C31.5717 56.1007 31.7147 56.2751 31.8621 56.4166C32.0095 56.5582 32.211 56.672 32.4484 56.721C32.6859 56.7701 32.9531 56.751 33.1514 56.6621C33.9322 56.3121 34.3361 55.7773 34.8406 55.2698C35.4303 54.6766 35.9098 53.8835 36.4247 53.2835C37.22 52.3567 38.0653 50.4093 38.5524 49.5264C38.9572 48.7928 39.2781 47.8117 39.479 47.13C39.6907 46.4116 40.0039 44.7195 39.9514 43.5909C39.9372 43.286 39.6884 42.9832 39.3647 42.7335C39.187 42.6229 38.9821 42.545 38.774 42.4659C38.566 42.3868 38.3611 42.3089 37.6868 42.0244"
        stroke="#121212" stroke-width="2" stroke-linecap="round" />
    <path
        d="M25.8067 25.2649C25.8067 25.2649 15.3372 29.021 12.3459 32.7772C9.3546 36.5334 8.7268 35.6263 7.85891 38.0001C6.87528 40.6905 6 46.5001 6 46.5001L8.32382 51.5001C8.32382 51.5001 7.05931 54.0704 15.3372 61.0001C23.615 67.9298 32.4915 67.0001 32.4915 67.0001C31.9929 66.5828 16.8952 58.2369 15.3372 55.5001C14.6215 54.243 13.4361 51.5001 13.4361 51.5001V48.6366V44.5001V40.5001L16.2247 36.0001L25.8067 27.769L34.7806 26.9343C34.7806 26.9343 42.7573 26.9343 45.2501 27.3516C47.7428 27.769 50.5672 29.979 53.2268 32.3599C55.9195 34.7703 56.0228 36.4714 57.5887 39.5001C59.3334 42.8747 58.935 44.9643 58.7109 48.6366C58.4434 53.0194 57.4164 55.0868 54.3354 58.5001C51.4698 61.6747 48.6079 62.4058 44.253 64.0001C40.5755 65.3464 32.4915 65.5001 32.4915 65.5001L35.7448 68.0001L44.253 67.0001C44.253 67.0001 53.0048 65.6391 56.6592 62.4092C59.2998 60.0754 60.9113 57.5281 62.2007 54.5001C64.0358 50.1905 64.3775 46.5324 63.6306 42.0001C63.0164 38.2726 61.8689 35.9476 59.4478 32.7772C56.6951 29.1727 53.3013 28.4461 48.7399 26.5169C44.4409 24.6987 41.5865 24.1915 36.7747 24.0128C32.4561 23.8525 25.8067 25.2649 25.8067 25.2649Z"
        fill="#F8F8F6" />
    <path
        d="M15.28 26.4781C15.0112 26.6562 14.7941 28.0144 15.0087 28.975C15.184 29.7598 16.5173 30.1439 17.3821 30.3257C17.5891 30.3692 17.8129 30.2906 17.9765 30.2011C18.7239 29.7919 18.6809 28.1438 18.3319 27.1454C18.0364 26.9118 17.6574 26.7306 17.2266 26.6049C17.0096 26.5504 16.7958 26.5148 16.2517 26.4781"
        stroke="#121212" stroke-width="2" stroke-linecap="round" />
    <path
        d="M8.42328 44.6044C8.51075 43.7684 8.69409 41.6181 8.90458 40.0068C9.02021 39.1216 8.91527 38.1934 9.16711 37.4991C9.38757 36.8913 9.82724 35.9517 10.0415 35.4779C10.3147 34.8738 10.6007 34.48 10.9941 33.8875C11.4086 33.2632 11.5768 32.6649 11.9467 32.2971C12.3452 31.9009 13.2806 31.1383 13.6768 30.7881C14.0721 30.4387 13.8842 30.625 14.4508 30.0975C14.6279 29.8609 14.7516 29.8128 14.9744 29.6563C15.0799 29.5768 15.2321 29.3527 15.407 29.2791"
        stroke="#121212" stroke-width="2" stroke-linecap="round" />
    <path
        d="M15.2057 39.1708C15.2825 38.929 15.746 38.0304 16.252 37.2965C16.6603 36.7044 17.1831 36.2541 17.6687 35.7329C18.2248 35.1361 18.7739 34.5174 19.4528 33.8232C20.8012 32.4444 21.6853 31.8426 22.6746 31.0774C23.3523 30.5533 24.0517 29.9308 25.5068 29.1318C26.3859 28.6491 27.5453 28.2275 28.3623 27.9309C29.3251 27.5814 30.6897 27.4269 31.4676 27.2705C32.011 27.1613 33.2086 27.0787 34.6631 27.0615C35.4664 27.052 37.8156 26.9745 41.1911 27.0089C43.3597 27.031 44.1217 27.2872 44.9182 27.4946C45.7627 27.7145 46.374 27.946 47.2858 28.4318C48.082 28.8559 48.7799 29.37 49.4414 29.8568C49.983 30.2554 50.5664 30.6209 51.1882 31.1249C52.0727 31.8417 53.168 32.8788 53.6344 33.5219C54.0543 34.101 54.449 34.6509 54.9154 35.3978C55.3988 36.1718 55.6928 36.9442 55.9641 37.5181C56.2638 38.152 56.4683 38.7163 56.7601 39.273C57.0345 39.7966 57.1671 40.3842 57.3429 40.9409C57.5142 41.4829 57.6725 42.1209 57.7313 42.713C57.7592 42.9939 57.867 43.304 57.9252 44.5622C58.1691 49.8324 57.7517 50.4603 57.5962 51.0524C57.441 51.6435 57.2859 52.2678 57.0145 52.8245C56.743 53.3815 56.4334 53.9357 56.0637 54.6133C55.5345 55.583 54.8799 56.5418 54.4531 57.2193C53.9828 57.9659 53.4452 58.5912 52.9007 59.2005C52.2912 59.8827 51.1976 60.6385 49.9724 61.4068C48.7023 62.2033 47.8553 62.4502 47.195 62.642C46.3361 62.8915 45.6426 63.1111 44.8472 63.2847C43.6831 63.5387 42.6171 63.8054 41.838 63.9107C40.9986 64.0241 40.3252 64.189 39.6638 64.3792C39.0133 64.5663 37.6141 64.8124 35.9401 64.9359C35.4325 64.9733 33.9679 65.0229 31.835 64.9885C28.8266 64.94 26.078 63.6344 25.321 63.4082C24.3722 63.1247 23.7489 62.6274 23.0502 62.124C21.9474 61.3294 21.4198 60.7511 20.8946 60.2127C20.2027 59.5034 19.5565 58.7017 18.9538 57.9027C18.5248 57.3338 18.1194 56.7899 17.5761 56.1305C16.8399 55.237 16.3726 54.8093 15.8677 54.1843C15.2699 53.4442 14.7422 52.7265 14.3917 51.9608C14.1923 51.5253 14.1191 50.9533 14.0609 49.6243C13.8544 44.9098 14.2344 44.0744 14.2932 43.2394C14.3905 41.9916 14.4674 40.3905 14.7195 39.5216C14.7783 39.3116 14.8167 39.1396 14.8563 38.7539"
        stroke="#121212" stroke-width="2" stroke-linecap="round" />
    <path
        d="M44.091 24.0004C44.3884 24.0368 45.1549 24.2566 45.9465 24.5515C46.9097 24.9103 47.634 25.0297 48.3397 25.3428C49.1681 25.7103 49.8978 26.207 50.6259 26.6311C51.2854 27.0152 51.9924 27.276 52.5705 27.625C53.1779 27.9917 53.8716 28.4158 54.7695 29.0227C55.8777 29.7716 56.3943 30.3662 56.9929 30.9559C57.5244 31.4795 58.1017 32.2061 58.5959 32.8152C59.1023 33.4393 59.7271 34.1587 60.1123 34.8931C61.0256 36.6344 61.4807 37.6553 61.9922 38.8132C62.366 39.6595 62.4626 40.4163 62.6773 41.2258C62.8999 42.0651 62.9766 42.6626 63.0407 44.306C63.0963 45.73 63.0625 48.3548 63.0202 49.7795C62.9624 51.7269 62.637 52.4543 62.4222 53.154C62.1863 53.9227 61.9524 54.736 61.5685 55.5467C61.2058 56.3126 60.7142 57.4949 60.0739 58.5098C59.6881 59.1214 59.2631 59.8163 58.8125 60.5353C58.4037 61.1877 57.7249 61.8042 57.1679 62.3399C56.5929 62.8928 55.7175 63.3151 54.7766 63.8491C53.9932 64.2936 52.9845 64.7508 52.1693 65.1749C51.0685 65.7475 49.3928 66.2616 48.3256 66.6106C47.1804 66.9852 45.0472 67.6201 43.1565 67.9552C41.5919 68.2326 40.2095 68.2871 38.6937 68.3788C35.3448 68.5813 32.9538 69.1219 31.5252 68.9391C28.2681 68.5224 28.0212 68.8712 25.8754 68.3788C23.7296 67.8864 23.4862 67.2923 22.5797 66.8337C19.7548 65.4046 18.8407 65.4341 17.8715 64.3947C16.4591 62.8799 15.7403 62.5944 15.0466 61.3652C14.5562 60.496 13.2495 59.3944 12.6926 58.5098C12.1452 57.6404 11.6679 56.4898 11.2801 55.5467C10.9225 54.6767 10.8498 54.08 10.4863 53.2887C10.1305 52.5138 9.67631 51.9314 9.39686 51.2666C9.11839 50.604 8.92696 49.5166 8.71225 48.8518C8.62701 48.558 8.58343 48.262 8.56228 47.95C8.54112 47.7838 8.32418 44.949 8.28059 44.4299"
        stroke="#121212" stroke-width="2" stroke-linecap="round" />
    <path
        d="M19 26.3444C19.4826 26.3444 20.5612 26.1308 21.426 25.8061C22.2901 25.4816 23.2593 25.1232 24.878 24.6739C26.0863 24.3385 27.308 24.0444 28.5235 23.7742C29.5632 23.543 30.4402 23.3604 31.7617 23.2882C33.2468 23.108 34.4905 23.0724 35.1359 23.0185C35.5141 23.0001 35.995 23.0001 36.4906 23.0001"
        stroke="#121212" stroke-width="2" stroke-linecap="round" />
    <path
        d="M39.9698 23.0514C37.9453 22.7026 36.8575 20.9782 36.8575 20.9782L37.48 20.5636C37.48 20.5636 40.0061 21.6257 41.8372 21.8075C43.7755 22 46.8168 21.3929 46.8168 21.3929C46.8168 21.3929 47.212 22.6087 46.1943 23.0514C44.5661 23.7597 41.3819 23.2947 39.9698 23.0514Z"
        fill="#F8F8F6" />
    <path d="M38.601 21.2999V22.4866" stroke="#121212" stroke-linecap="round" />
    <path
        d="M42.8113 21.5153C42.8113 21.5509 42.8113 21.5865 42.8113 21.7828C42.8113 21.9791 42.8113 22.3351 42.838 22.5897C42.8647 22.8443 42.9182 22.9867 42.9732 23.2413"
        stroke="#121212" stroke-linecap="round" />
    <path
        d="M10.7798 44.6844C11.2191 44.5779 12.1019 44.6734 12.9489 44.5632C13.4769 44.5278 14.0487 44.5447 14.5785 44.5864C14.833 44.6028 15.0582 44.6097 15.4795 44.5713"
        stroke="#121212" stroke-width="2" stroke-linecap="round" />
    <path
        d="M11.9446 48.5597C11.9947 48.5781 12.0449 48.5965 12.3272 48.6054C12.6094 48.6142 13.1223 48.6129 13.7678 48.5816C14.4134 48.5503 15.176 48.489 16.455 48.492"
        stroke="#121212" stroke-width="2" stroke-linecap="round" />
    <path
        d="M13.1368 50.9511C13.4378 51.0616 13.7388 51.1721 13.9942 51.2659C14.2496 51.3597 14.4503 51.4334 15.0355 51.4184"
        stroke="#121212" stroke-width="2" stroke-linecap="round" />
    <path d="M59.4707 48.4354L55.3995 48.0012" stroke="#121212" stroke-width="2" stroke-linecap="round" />
    <path
        d="M58.6374 52.5651C57.4418 52.1616 56.2463 51.7582 55.5348 51.518C54.8232 51.2779 54.632 51.2134 54.0001 51.0001"
        stroke="#121212" stroke-width="2" stroke-linecap="round" />
    <path
        d="M59.7092 44.6371C59.0021 44.6371 58.295 44.6371 57.4592 44.6371C56.6235 44.6371 55.6807 44.6371 54.7092 44.6371"
        stroke="#121212" stroke-width="2" stroke-linecap="round" />
</svg>