<svg xmlns="http://www.w3.org/2000/svg" width="156" height="151" fill="none" viewBox="0 0 156 151"><g clip-path="url(#a)"><g opacity=".8"><path fill="#121212" d="M74 100.415 96.403 82l14.729 17.919-22.403 18.415zm29.103 35.571 22.403-18.415 14.729 17.919-22.403 18.415zM30 90.415 52.403 72l15.225 18.522-22.403 18.415z"/><path fill="#121212" d="M60 126.415 82.403 108l15.225 18.522-22.403 18.415zm32.892 39.519 22.403-18.415 18.276 22.234-22.403 18.415zM-7 90.415 15.403 72l15.943 19.396L8.943 109.81z"/><path fill="#121212" d="M25 128.415 47.403 110l15.943 19.396-22.403 18.415zm32 38L79.403 148l15.943 19.396-22.403 18.415z"/><path fill="#b4b49e" d="m59.449 82.629 22.403-18.415L96.58 82.133l-22.403 18.414zM88.551 118.2l22.403-18.415 14.729 17.92-22.403 18.414zm29.103 35.571 22.403-18.415 14.729 17.919-22.403 18.415zM14.817 72.21 37.22 53.795l15.224 18.522-22.403 18.415z"/><path fill="#b4b49e" d="M45 108.415 67.403 90l15.225 18.522-22.403 18.415zm30 36L97.403 126l17.77 21.62-22.403 18.414zm-67-35L30.403 91l15.943 19.396-22.403 18.415z"/><path fill="#b4b49e" d="M40 147.415 62.403 129l15.943 19.396-22.403 18.415z"/></g><path fill="#f8f8f6" d="M20.5 119 19 101.5c1 .667 4.3 2.1 9.5 2.5s8.167-1.5 9-2.5c-.167 5.167-.4 15.9 0 17.5.5 2-5.5 3.5-9 5-2.8 1.2-6.5-2.833-8-5"/><path fill="#f8f8f6" d="M28 94.5c-4.8 0-7.333 3-8 4.5 1 1 4.3 2.9 9.5 2.5s8.167-1.833 9-2.5c-1.5-1.5-5.7-4.5-10.5-4.5M18.5 113c0 .667.1 2.1.5 2.5l-3.5-1.5c-.833-.667-2.4-2.8-2-6s2.833-4 4-4v2c-.5.167-1.6 1-2 3s1.833 3.5 3 4"/><path stroke="#000" stroke-linecap="round" stroke-width="2" d="M18.655 98.103c.573-1.004 1.437-2.157 2.657-3.044 1.08-.785 3.09-1.082 5.602-1.441 4.839-.694 5.943.355 6.832.644.982.32 1.752 1.102 2.448 1.56.795.52 1.559 1.604 2.137 2.302.097.169.145.359.24.552.096.192.239.383.53.722m-.288 1.44c-1.63.815-3.252 1.483-5.226 1.752-2.137.29-5.896-.07-7.464-.431-1.595-.367-3.336-.696-4.297-1.008a15 15 0 0 1-1.872-.552c-.193-.049-.383-.049-.579-.049m-1.584.576c.767 3.117.864 3.98.983 5.082.218 2.007.454 4.023.625 5.545.105.939.215 1.704.383 2.901.072 1.78.216 2.404.288 2.906.025.265.025.55.025.844m0 .864c1.582 2.206 2.157 2.972 3.258 4.003 1.327 1.243 2.593.987 6.397.965 1.776-.011 2.865-.839 3.852-1.104.944-.253 1.847-1.172 2.306-1.99a4.8 4.8 0 0 1 .503-1.151c.144-.193.334-.383.674-.867m1.872-17.566c0 4.358-.19 6.952-.312 8.753-.096 1.417-.215 3.336-.408 4.37-.144 1.081-.192 1.753-.264 2.326-.024.383-.024.954-.168 1.829m-9.503-11.087c0 2.471 0 4.361.024 5.416.023.437.07.675.095 1.486s.025 2.189.025 3.609"/><path stroke="#000" stroke-linecap="round" stroke-width="2" d="M32.19 110.917c-3.54-.72-6.333-.578-6.789-.267-.683.467-.555 1.606-.483 2.397.082.917 1.46 1.083 2.253 1.348.454.167.937.313 1.795.385.622.024 1.62.024 2.935-.264m-14.019-7.469c-.792.446-1.275 1.274-1.415 2.136.343 1.347 1 2.212 1.224 2.436.121.121.258.258.399.502"/><path stroke="#000" stroke-linecap="round" stroke-width="2" d="M17.054 102.905c-1.896.895-2.724 1.447-3.673 2.48-.854.93-.813 1.796-.987 2.556-.3 1.315.033 2.59.498 3.538a9.4 9.4 0 0 0 1.14 1.797c.397.511 1.05 1.223 1.69 1.64.585.381 1.191.415 1.761.518.156.035.327.069.483.121.157.052.293.12.538.191"/><path stroke="#000" stroke-linecap="round" stroke-opacity=".9" stroke-width="2" d="M28 88c-5.432-8.761-7.646-9.917-10.077-11.176-1.745-.903-2.362-3.377-2.463-4.672-.129-1.647 2.58-4.18 4.022-6.344.612-.918.986-1.776 1.183-2.706.258-1.226-.258-2.483-1.073-3.512-2.135-2.693-6.243-4.06-10.272-6.378-3.045-1.751-3.644-3.226-4.791-5.444-1.255-2.426-.106-4.993 1.657-8.116 2.629-4.657 5.438-6.357 6.358-7.803 1.582-2.488-.975-4.991-3.163-8.05-2.552-3.566-3.446-6.855-3.32-9.829.778-1.731 2.285-3.738 4.018-5.412.76-.653 1.278-.908 2.205-1.558"/><path fill="#f8f8f6" d="M67 129.5V125l20 9.5v4.5z"/><path fill="#f8f8f6" d="m87.5 135-19-10.5 24.5-20 18 10z"/><path stroke="#000" stroke-linecap="round" stroke-width="2" d="M66.49 124.025c6.9 3.905 9.758 5.723 13.018 7.486 3.655 1.763 5.48 2.545 6.52 3.065.524.261 1.04.519 1.963.785M66.49 124.025c3.511-2.342 6.63-4.417 9.244-6.249 2.796-1.959 6.253-5.338 10.027-7.621 2.746-1.372 4.568-2.932 6.198-4.433.457-.328.973-.586 1.896-1.243m1.187.467c2.734 1.656 5.044 2.596 6.382 3.012.842.261 1.732.883 2.923 1.658.674.439 1.264.706 1.931 1.084 1.006.569 1.678.884 2.382 1.263.633.307 1.281.595 1.859.884.145.073.288.144.652.218M88.33 134.823c2.811-1.946 3.75-2.813 4.454-3.659.865-1.041 1.857-1.931 2.49-2.509.69-.63 2.496-2.191 4.741-3.967 1.186-.938 2.528-2.13 3.628-2.816 1.349-.843 1.931-1.516 3.389-2.469 2.507-1.641 2.801-2.582 3.379-3.125.634-.595 1.154-1.154 1.534-1.678.092-.126.198-.234.253-.379a.56.56 0 0 0-.016-.45c-.072-.128-.215-.2-.578-.381m-.217 2.489c.036.75.072 1.501.108 1.994s.072.708.09 1.015.019.7.127 1.105m-44.382 5.845c0 1.286 0 2.091.018 2.415.018.181.053.395.072.595s.018.378.018.562m19.485 6.495c0 .643 0 1.286.018 1.689s.053.545.072.69.018.288.127.544"/><path stroke="#000" stroke-linecap="round" stroke-width="2" d="M67.33 129.518c1.261 1.551 2.052 2.055 2.722 2.291.7.247 1.781.593 3.064 1.135 1.364.576 1.752 1.156 2.888 1.75.832.436 1.711.956 2.581 1.246.721.241 1.263.541 2.002.668 1.048.18 1.785.668 2.904 1.099.755.292 1.3.722 2.004 1.101.578.311 1.172.487 2.29.49.813.001 1.407-.793 2.148-1.208.713-.4 2.069-1.278 3.264-2.02 1.549-.962 2.778-1.893 3.538-2.796.495-.588 1.296-1.441 1.93-2.147.651-.725 1.674-1.351 2.454-1.932.798-.594 2.178-1.655 2.977-2.309.784-.64 1.621-1.009 2.506-1.73 2.012-1.639 3.839-3.568 4.585-4.314l.397-.396.561-.562"/><path fill="#000" d="M92.03 129.003q.024.015.035.057l.012.076a.4.4 0 0 1-.015.1.2.2 0 0 1-.042.07 1 1 0 0 1-.076.072 3 3 0 0 0-.15.095q-.095.061-.207.126a1 1 0 0 1-.096.064l-.122.063-.09.047-.171.104q-.085.047-.199.106l-.284.153-.34.178-.163.084-.077.044q-.02.023-.073.015a.16.16 0 0 1-.084-.033q-.038-.04-.034-.123a.33.33 0 0 1 .046-.158.2.2 0 0 1 .131-.103q.144-.064.313-.154l.325-.18a6 6 0 0 1 .453-.226l.064-.023.028-.013.058-.039.069-.04.043-.031.052-.039-.079.004-.127.003-.148-.004a1 1 0 0 1-.12-.011l-.099-.009-.048-.007-.03.01a.05.05 0 0 1-.032-.001l-.034-.004-.051-.003a.4.4 0 0 1-.23-.111.16.16 0 0 1-.047-.097.4.4 0 0 1 0-.141.24.24 0 0 1 .047-.124.8.8 0 0 1 .216-.215l.106-.081.118-.077-.023-.021a.13.13 0 0 1-.065-.054l-.025-.038a.2.2 0 0 1-.008-.045.2.2 0 0 0-.01-.042q.003-.04.068-.063a.2.2 0 0 1 .11-.014q.114.017.18.057a.2.2 0 0 1 .094.122.27.27 0 0 1-.006.162.6.6 0 0 1-.117.159q-.13.12-.184.173-.057.057-.024.086a.3.3 0 0 0 .13.053q.089.021.217.029a2 2 0 0 0 .517-.016 2 2 0 0 1 .158-.019q.079-.004.14.047m-1.402-1.44a.16.16 0 0 1 .049.071q.007.033.015.09a.8.8 0 0 1-.023.21.26.26 0 0 1-.084.14.13.13 0 0 0-.046.039l-.022.024q.002.029-.007.026a.1.1 0 0 0-.028.007q-.018-.016-.042.022a.3.3 0 0 1-.109.084 1 1 0 0 1-.208.087q-.044.014-.123.029-.082.018-.166.028a1 1 0 0 1-.152.007 2 2 0 0 1-.228-.023.6.6 0 0 1-.179-.065.8.8 0 0 1-.147-.106.2.2 0 0 1-.072-.152.25.25 0 0 1-.022-.166.4.4 0 0 1 .08-.165 1 1 0 0 1 .216-.203q.142-.103.414-.165a1.1 1.1 0 0 1 .552-.001q.1.015.18.07.078.055.152.112m-.63.087a.43.43 0 0 0-.205.041 3 3 0 0 0-.207.104.2.2 0 0 0-.069.045.5.5 0 0 0-.075.078q-.034.043-.023.066.008.045.046.057.034.015.103.024.156.006.322-.022a.76.76 0 0 0 .316-.14q.076-.066.087-.126.005-.06-.064-.096a.5.5 0 0 0-.231-.031m-.916-1.576.033.106a.17.17 0 0 1-.017.108 1 1 0 0 1-.123.159 1 1 0 0 0-.075.089l-.026.035.05-.002a1 1 0 0 0 .152-.03.7.7 0 0 1 .264-.053.5.5 0 0 1 .128.025q.021.007.054.054a1.2 1.2 0 0 1 .108.233q.016.052.006.076a.3.3 0 0 1-.053.07 3 3 0 0 1-.108.113q-.065.06-.122.105a.4.4 0 0 1-.093.061l-.02.016q-.016.006-.018.026l-.077.049-.187.111-.204.118a2 2 0 0 1-.135.071.3.3 0 0 1-.052.045.2.2 0 0 0-.044.031q-.024.027-.08.029-.087.014-.126-.033a.2.2 0 0 1-.053-.097.4.4 0 0 1 .006-.102.17.17 0 0 1 .047-.093.5.5 0 0 1 .134-.089 9 9 0 0 0 .36-.17q.075-.04.113-.065a.1.1 0 0 1 .046-.033.2.2 0 0 0 .033-.025.1.1 0 0 0 .03-.01l.022-.023a.3.3 0 0 1 .047-.034.2.2 0 0 0 .062-.051q.063-.045.056-.068-.012-.022-.046-.032l-.065.018-.095.027a.2.2 0 0 1-.066.026l-.043-.001q-.017.001-.038.025-.011.011-.07.023-.065.011-.14.029a5 5 0 0 0-.2.067 1 1 0 0 1-.113.028.5.5 0 0 0-.12.037q-.033.013-.083.027t-.083-.016-.036-.044q-.007-.016.014-.057a.3.3 0 0 1 .012-.108.2.2 0 0 1 .032-.09.07.07 0 0 0 .042-.016l.013-.015.06-.042a.5.5 0 0 1 .108-.059q.115-.08.222-.161.103-.084.165-.147.06-.065.055-.09-.007-.029-.057-.009a2 2 0 0 1-.33.084.6.6 0 0 0-.145.041.2.2 0 0 1-.061.031l-.103.042a.3.3 0 0 0-.08.052q-.001.009-.077.027a1 1 0 0 0-.173.065q-.107.053-.191.026t-.112-.091q-.034-.063.02-.105.107-.088.28-.173a4 4 0 0 1 .698-.269.3.3 0 0 0 .088-.013q.042-.01.052-.022.005-.006.062-.014.053-.011.126-.021a.5.5 0 0 1 .13.005.23.23 0 0 1 .125.054q.056.045.085.109m-1.67-1.79q.142.135.112.252a.44.44 0 0 1-.157.215.6.6 0 0 0-.112.082q-.05.042-.08.035l-.012.006q-.013.003-.013.02a.4.4 0 0 1-.123.083l-.053.028-.036.016q-.006.037-.035.038h-.053q-.031-.001-.033.03-.004.018-.063.04a2 2 0 0 1-.13.049.5.5 0 0 0-.103.042.3.3 0 0 1-.053.028l-.11.05-.117.051-.073.027q-.043-.012.005.042a1 1 0 0 0 .11.105q.09.086.14.143a.3.3 0 0 1 .065.107q-.002.075-.08.106-.08.035-.142-.015l-.062-.051q-.024-.022-.062-.051a3 3 0 0 1-.132-.093l-.162-.125-.054.042-.079.021a.1.1 0 0 0-.033.013l-.055.042-.07.024a.4.4 0 0 0-.126.074l-.159.05-.089.033q-.117.028-.17-.009a.18.18 0 0 1-.074-.11.3.3 0 0 1-.015-.084.12.12 0 0 1 .021-.083q.024-.038.105-.062.016-.006.058-.028l.064-.034a1 1 0 0 0 .106-.028.4.4 0 0 0 .116-.062l.086-.036q.015-.006.028.004.02-.034-.008-.061l-.103-.083a1 1 0 0 0-.088-.058.1.1 0 0 1-.048-.054.14.14 0 0 1 .041-.076.3.3 0 0 1 .08-.069q.043-.025.072-.015.015.014.078.039a.6.6 0 0 1 .13.084l.17.128.141-.055.1-.039a.2.2 0 0 1 .053-.017.2.2 0 0 1 .07-.035l.108-.042a1 1 0 0 1 .125-.054l.058-.023q.012.011.028-.007.017-.048.057-.045a.1.1 0 0 0 .051-.002l.022-.007q0-.023.024-.032a.3.3 0 0 1 .053-.023.3.3 0 0 1 .077-.054 1 1 0 0 1 .102-.059 1 1 0 0 0 .055-.074q.01-.017-.004-.025a.2.2 0 0 0-.041-.038l-.041-.032q-.064-.02.23-.169a1 1 0 0 1 .204-.036q.093-.007.108.006m-1.17-.693q.075.044.09.092a1 1 0 0 1 .017.106.4.4 0 0 1 .026.143.5.5 0 0 1-.024.146.2.2 0 0 1-.049.09 1.4 1.4 0 0 1-.252.182 2 2 0 0 1-.318.143 1.5 1.5 0 0 1-.331.073.7.7 0 0 1-.299-.028.36.36 0 0 1-.143-.098q-.063-.067-.041-.139.033-.127.12-.091a.05.05 0 0 0 .029.01q.017.005.028-.007a.2.2 0 0 0-.062-.062 1 1 0 0 0-.123-.079.3.3 0 0 0-.101-.038.1.1 0 0 1-.035-.015l-.039-.046q-.037-.061-.018-.081a.2.2 0 0 0 .026-.047q.012-.031 0-.043-.017-.022.03-.049.044-.03.14-.018.09.015.114.017.02.002.04-.039.028-.078.127-.134a1 1 0 0 1 .24-.085 1.4 1.4 0 0 1 .296-.028q.15 0 .29.031a.6.6 0 0 1 .223.094m-.234.24a.2.2 0 0 0-.052-.025l-.07-.02h-.053q-.038 0-.051-.009-.012-.01-.023-.004a1 1 0 0 1-.226.065.7.7 0 0 0-.171.033.17.17 0 0 0-.084.087q-.008.014.004.031a.2.2 0 0 1 .02.044q.03.027.054.023.02-.004.028.052l-.006.102.096-.004a.7.7 0 0 0 .194-.041 1.1 1.1 0 0 0 .332-.2q.044-.042.04-.073a.12.12 0 0 0-.032-.061m9.873.391a.3.3 0 0 1 .068.115.24.24 0 0 1-.009.111.2.2 0 0 1-.008.068.1.1 0 0 1-.024.027l-.026-.024q-.015-.008-.026-.002-.008.01-.02.004a.37.37 0 0 0-.195-.106 1.6 1.6 0 0 0-.285-.049 5 5 0 0 0-.346-.011q-.17.03-.241.051-.076.018-.097.042a.12.12 0 0 0-.037.064q-.01.035.035.075t.19.064q.2.036.339.037.138.002.282-.025l.112-.017.099-.013.039-.008q.01-.011.062.003a.2.2 0 0 1 .073.033.3.3 0 0 1 .013.051.12.12 0 0 1-.016.066l.012.075q.001.034-.033.073l-.06.054-.107.07-.183.125a3 3 0 0 1-.17.11.3.3 0 0 1-.092.042l-.036.016a.2.2 0 0 0-.068.051.3.3 0 0 1-.075.046.1.1 0 0 0-.05.025.3.3 0 0 0-.1.039l-.206.109a.3.3 0 0 1-.072.038l-.156.07-.185.085q-.1.045-.172.082a1 1 0 0 0-.15.047q-.075.03-.104.019-.018-.01-.04-.057a.6.6 0 0 1-.042-.109.2.2 0 0 1-.01-.095.1.1 0 0 1 .018-.038q.01-.018.057-.04l.15-.064q.103-.04.292-.119.244-.102.399-.178a12 12 0 0 0 .463-.249l.074-.052-.155.017a1.4 1.4 0 0 1-.232-.012 1 1 0 0 1-.28-.091l-.07-.042a.7.7 0 0 1-.114-.082.2.2 0 0 1-.07-.15.6.6 0 0 1 .011-.19.4.4 0 0 1 .121-.181.5.5 0 0 1 .199-.118q.025.002.059-.005.03-.005.041-.016.022-.019.132-.038.106-.016.208-.027.105-.008.232.005.126.017.243.042.112.026.181.057.026.018.08.05.049.034.078.05m-1.14-1.019a.38.38 0 0 1 .02.299.8.8 0 0 1-.235.306.5.5 0 0 0-.104.127.2.2 0 0 0-.012.103.4.4 0 0 0 .007.076q.005.059-.011.071a.13.13 0 0 1-.055.042q-.04.022-.053.017l-.06-.017q-.035-.01-.04-.026-.013-.01-.023-.047-.014-.039-.002-.051.006-.032-.052-.015-.062.015-.145.047a.6.6 0 0 1-.155.022 1.3 1.3 0 0 1-.284-.026 1 1 0 0 1-.257-.157.3.3 0 0 1-.072-.147 1 1 0 0 1-.022-.16.17.17 0 0 1 .024-.129.5.5 0 0 1 .09-.123.3.3 0 0 1 .116-.079.3.3 0 0 1 .137-.027q.102-.005.213.004.105.009.166.031.046.027.105.069.055.046.1.091a.3.3 0 0 1 .05.072q.009.03.043.023a.4.4 0 0 0 .112-.082.4.4 0 0 0 .051-.056.3.3 0 0 0 .02-.047.3.3 0 0 0 .008-.091q-.007-.033-.07-.078-.06-.046-.174-.034-.119.011-.2.007-.032.01-.075-.019a.3.3 0 0 1-.093-.095q-.013-.05.03-.092a.4.4 0 0 1 .166-.087.3.3 0 0 1 .106-.017q.074-.003.159-.002a.46.46 0 0 1 .34.125.7.7 0 0 1 .13.172m-.825.468a1 1 0 0 0-.095-.044.3.3 0 0 0-.097-.018.7.7 0 0 0-.141.019.2.2 0 0 0-.063.045q-.024.021-.024.033.003.045.04.063.032.018.086.024.029.01.094.015a.8.8 0 0 0 .238-.012q.042-.01.035-.027.017-.006-.019-.044zm-.225-1.425q.066.06.093.095a.14.14 0 0 1 .028.058l.009.067a.5.5 0 0 0-.012.097l-.005.088a.6.6 0 0 1-.1.13 1.5 1.5 0 0 1-.437.284l-.03.016a.3.3 0 0 1-.1.039l-.191.043a1 1 0 0 1-.158.019.4.4 0 0 1-.108-.006.6.6 0 0 1-.112-.031l-.115-.051a.4.4 0 0 1-.12-.071.4.4 0 0 1-.073-.098.24.24 0 0 1-.023-.135.33.33 0 0 1 .047-.189.4.4 0 0 1 .113-.13.24.24 0 0 1 .148-.044.23.23 0 0 1 .13.047.16.16 0 0 1 .05.122.1.1 0 0 1-.022.05.2.2 0 0 1-.058.039.4.4 0 0 0-.079.063q-.03.033-.003.057a.11.11 0 0 0 .084.033q.042 0 .135-.007a2 2 0 0 0 .27-.058q.075-.024.147-.055l.157-.09.03-.021a.1.1 0 0 1 .024-.021l.022-.019q.033-.035.01-.093a.15.15 0 0 0-.035-.07.53.53 0 0 0-.264-.066 1 1 0 0 1-.153-.015l-.083-.01q-.034-.004-.023-.016.01-.012.002-.02-.01-.008-.032-.007-.039.008-.06-.023a.2.2 0 0 1-.034-.057q-.013-.034-.005-.043a.06.06 0 0 0 .028-.055.1.1 0 0 1 .039-.024.1.1 0 0 1 .044-.014l.099-.019q.06-.014.112-.022l.05-.008q.009.013.03.015l.039-.002a.4.4 0 0 1 .074.008q.03.01.04.021a.2.2 0 0 1 .046.014q.012.006.023-.006.056-.003.144.055.085.061.168.136m-.913-.758a.2.2 0 0 0 .01.096q.018.059.007.071t-.018.049a.2.2 0 0 0-.01.06q-.002.03-.088.077a2 2 0 0 1-.227.108 6 6 0 0 1-.289.11.5.5 0 0 0-.104.019.3.3 0 0 1-.08.018.04.04 0 0 1-.028.013.03.03 0 0 1-.032-.007l-.067.026-.078.015a2 2 0 0 1-.147.007 2 2 0 0 1-.164.003 1 1 0 0 1-.128-.014.28.28 0 0 1-.24-.223 2 2 0 0 0-.024-.194l-.018-.124-.02-.197.184-.103a.56.56 0 0 0 .293-.393.2.2 0 0 0 .007-.086.2.2 0 0 0-.047-.085.14.14 0 0 1-.028-.058q-.008-.034.022-.067.065-.071.12-.079a.12.12 0 0 1 .086.013.5.5 0 0 1 .168.19q.06.113.007.314a.6.6 0 0 1-.065.178l.067-.008.071-.007q.405-.022.614.05.205.072.246.228m-.386.098q-.018-.021-.084-.038a2 2 0 0 0-.196-.022l-.295-.008a1 1 0 0 0-.26.03l-.161.047a.4.4 0 0 0-.027.138.1.1 0 0 0 .028.063q.039.036.138.033.096.001.25-.032a5 5 0 0 0 .358-.097 1 1 0 0 0 .175-.073zm-1.051-1.337q.035.075.027.155a.3.3 0 0 1-.078.151 1 1 0 0 1-.103.09q-.076.06-.177.13-.102.07-.192.128a.5.5 0 0 0-.136.072 2 2 0 0 1-.304.21.3.3 0 0 1-.075.035q-.027.002-.066-.028a.2.2 0 0 1-.063-.073q-.028-.042-.013-.082 0-.064.062-.139a.6.6 0 0 1 .177-.141q.08-.036.18-.091.099-.056.181-.105.077-.05.102-.07l.104.099a2 2 0 0 0-.324.036l-.188.035q-.082.012-.2.024a.46.46 0 0 1-.214-.021.4.4 0 0 1-.127-.062.27.27 0 0 1-.054-.173.35.35 0 0 1 .08-.219 1 1 0 0 1 .097-.09l.057-.051-.1.017q-.105.013-.255.012a.3.3 0 0 1-.153-.052q-.06-.04-.062-.122a.33.33 0 0 1 .019-.247.74.74 0 0 1 .189-.255.6.6 0 0 0 .112-.125q.03-.056.05-.101.009-.088.073-.106.062-.014.083.005a.6.6 0 0 1 .15.233.12.12 0 0 1-.025.123l-.167.184a1 1 0 0 0-.08.1q-.026.035-.023.055.016.047.105.046a1 1 0 0 0 .219-.034q.126-.031.28-.076a.5.5 0 0 1 .193-.029q.052.015.066.065.045.08.031.131a.2.2 0 0 1-.074.089l-.154.098-.184.114q-.09.058-.13.088-.009.035.029.053a.2.2 0 0 0 .08.024l.123.02a.6.6 0 0 0 .194-.03l.193-.052q.103-.025.19-.043a.5.5 0 0 1 .127-.02.24.24 0 0 1 .1-.033q.03.004.048.048m-1.695-1.813a.45.45 0 0 1 .166.324q0 .173-.178.368a1.1 1.1 0 0 1-.25.199q-.157.09-.333.152-.178.06-.339.076a.7.7 0 0 1-.276-.017.3.3 0 0 1-.08-.036.4.4 0 0 1-.077-.053.8.8 0 0 1-.138-.169.34.34 0 0 1-.046-.187q0-.108.102-.221l.065-.059a.4.4 0 0 1 .08-.047.8.8 0 0 1 .288-.079.6.6 0 0 1 .34.049q.022.016.047.037a.5.5 0 0 1 .096.12q.03.06.046.128l.005.042.041-.016q.072-.038.116-.068a.5.5 0 0 0 .121-.128.2.2 0 0 0 .036-.075.1.1 0 0 0-.008-.051.2.2 0 0 0-.042-.054l-.033-.03-.035-.021a.3.3 0 0 0-.12-.039.6.6 0 0 1-.12-.017l-.018-.005-.005.012a1 1 0 0 1-.097-.029l-.04-.01a.05.05 0 0 1-.038-.012.14.14 0 0 1-.058-.096q-.018-.064.02-.106.016-.018.078-.032a.6.6 0 0 1 .257-.01l.026.007.026.008-.003-.003q.058-.011.085.013l.024.021q.03-.01.117.026a.5.5 0 0 1 .152.088m-.802.575a.2.2 0 0 0-.055-.034.4.4 0 0 0-.064-.02.3.3 0 0 0-.21.047q-.093.061-.095.135-.002.015.004.025.003.015.015.025.033.03.093.047a.5.5 0 0 0 .131.01.6.6 0 0 0 .154-.027l.095-.027-.011-.006-.012-.005q-.027-.023-.02-.05l.012-.054q.002-.031-.037-.066m-.783-1.769q.008.044.01.107 0 .06-.062.111a2 2 0 0 1-.155.123l-.17.116q-.038.03-.14.095-.105.061-.232.13a4 4 0 0 1-.246.122 1 1 0 0 1-.191.075q-.06 0-.122-.056-.065-.06-.067-.105-.009-.056.065-.113.071-.055.268-.13.047-.021.109-.042a1 1 0 0 0 .088-.038q.03-.015.013-.026a.4.4 0 0 1-.132.015 2.4 2.4 0 0 1-.45-.041.3.3 0 0 1-.074-.024l-.061-.023a.36.36 0 0 1-.17-.11q-.077-.082-.055-.142a.07.07 0 0 0 .015-.052l-.007-.028q-.013-.011-.004-.019l.005-.012q.019-.02.095-.022.074-.003.124.037a.3.3 0 0 0 .081.047l.098.035q.172.037.31.07.135.03.323.012l.085-.004a.4.4 0 0 0 .101-.016.2.2 0 0 0 .089-.039l.115-.073.057-.046.036-.021a.3.3 0 0 1 .078-.027.2.2 0 0 1 .125.006q.043.018.048.108m-1.12-.983q.012.01.035.063l.022.053a.1.1 0 0 0-.018.038.1.1 0 0 1-.02.035q.009.03.006.076a.08.08 0 0 1-.045.067q-.048.017-.136.055a8 8 0 0 0-.427.191l-.18.085a1 1 0 0 0-.091.047l-.04.039q-.033.024-.085.015a.09.09 0 0 1-.083-.069.26.26 0 0 1 .004-.148.4.4 0 0 1 .092-.16.6.6 0 0 1 .126-.08 5 5 0 0 1 .26-.126q.152-.072.32-.137.12-.046.178-.06.05-.014.082.016m-1.432.769a.23.23 0 0 1 .057.111.5.5 0 0 1 .01.161.23.23 0 0 1-.058.141q-.013.015-.075.029l-.123.035a.2.2 0 0 0-.067.02.33.33 0 0 1-.083-.129.6.6 0 0 0 .03-.205.2.2 0 0 1 .051-.164q.06-.066.122-.069.06 0 .136.07m.75-1.524q.064.06.091.095a.14.14 0 0 1 .029.058l.009.067a.5.5 0 0 0-.013.097l-.004.088a.6.6 0 0 1-.101.13 1.5 1.5 0 0 1-.436.284l-.03.016a.3.3 0 0 1-.1.039q-.09.022-.191.043a1 1 0 0 1-.158.019.4.4 0 0 1-.108-.006.6.6 0 0 1-.112-.031l-.116-.051a.4.4 0 0 1-.12-.071.4.4 0 0 1-.072-.098.24.24 0 0 1-.023-.135.33.33 0 0 1 .047-.189.4.4 0 0 1 .113-.13.25.25 0 0 1 .148-.044.23.23 0 0 1 .13.047.16.16 0 0 1 .05.122.1.1 0 0 1-.023.05.2.2 0 0 1-.057.039.4.4 0 0 0-.08.064q-.029.032-.002.056a.11.11 0 0 0 .084.033 1.4 1.4 0 0 0 .25-.026q.074-.015.154-.039.076-.024.148-.055l.157-.09.03-.021a.1.1 0 0 1 .024-.021l.022-.018q.033-.036.01-.094a.15.15 0 0 0-.035-.07.53.53 0 0 0-.264-.066 1 1 0 0 1-.153-.015l-.083-.01q-.034-.004-.023-.016.01-.012.002-.02-.01-.008-.032-.007-.039.008-.06-.022a.2.2 0 0 1-.035-.058q-.013-.034-.004-.043a.06.06 0 0 0 .028-.055.1.1 0 0 1 .039-.024.1.1 0 0 1 .044-.014l.098-.019a2 2 0 0 1 .163-.03q.009.013.03.015l.039-.002a.4.4 0 0 1 .074.008q.028.01.04.021a.2.2 0 0 1 .047.014q.011.006.022-.006.057-.003.144.055.085.061.168.136m-1.872-1.702a1 1 0 0 1 .138.087q.066.045.071.129l-.02.117a.4.4 0 0 1-.078.14 1 1 0 0 1-.116.116.5.5 0 0 0-.098.09.5.5 0 0 0-.154.146q-.034.056-.02.069.028.035.148.047.116.008.3-.004.178-.01.394-.036l.188-.04q.056-.014.068-.003a.3.3 0 0 1 .082.106.23.23 0 0 1 .025.115.2.2 0 0 1-.03.098 6 6 0 0 1-.217.138l-.153.092-.105.056q-.097.053-.232.13l-.248.137a2 2 0 0 1-.14.072l-.194.095a2 2 0 0 0-.141.072l-.108.053-.174.091a10 10 0 0 0-.299.15.2.2 0 0 1-.046.045.2.2 0 0 1-.05.019l-.026-.024-.018-.011q-.005.006-.028-.046a.6.6 0 0 1-.04-.117q-.02-.062-.003-.079a.25.25 0 0 1 .088-.104q.066-.048.226-.124a1 1 0 0 0 .195-.083 1.7 1.7 0 0 1 .307-.148l.16-.076a5 5 0 0 0 .37-.205q.094-.044.106-.076.013-.032-.12-.011a8 8 0 0 1-.298.02 1.3 1.3 0 0 1-.239-.011q-.105-.015-.15-.066a.3.3 0 0 1-.033-.101.6.6 0 0 1-.019-.146.25.25 0 0 1 .014-.122.9.9 0 0 1 .154-.206q.065-.065.2-.191.11-.084.156-.124.044-.035.05-.062a.3.3 0 0 0 0-.07q-.012-.076.042-.119a.14.14 0 0 1 .115-.025m15.635 6.205q.045.04.03.146a.8.8 0 0 1-.08.23 1 1 0 0 1-.156.209 1.4 1.4 0 0 1-.146.143l-.129.094a.4.4 0 0 0-.077.055l-.1.07a1 1 0 0 1-.1.061.3.3 0 0 1-.063.023.18.18 0 0 1-.131-.016.14.14 0 0 1-.072-.081.11.11 0 0 1 .011-.103q-.004-.032.045-.084a.7.7 0 0 1 .102-.102.24.24 0 0 1 .097-.052 1 1 0 0 0 .084-.064q.063-.057.133-.117.069-.063.115-.096.056-.045.056-.074-.007-.027-.084-.027a1.3 1.3 0 0 0-.247.041 2 2 0 0 0-.212.061 2 2 0 0 0-.352.167.2.2 0 0 1-.064.018q-.075.017-.12-.04a.3.3 0 0 1-.066-.113.2.2 0 0 1 .047-.135.3.3 0 0 1 .145-.106q.067-.027.15-.07.08-.047.154-.098a1 1 0 0 0 .114-.102q.053-.06.05-.084a.1.1 0 0 0-.034-.047.16.16 0 0 0-.09-.038 1.6 1.6 0 0 0-.316.027 2 2 0 0 0-.176.045 2 2 0 0 0-.156.047.3.3 0 0 0-.08.035q-.016.018-.073.027l-.059.011a.2.2 0 0 1-.068-.008.1.1 0 0 1-.056-.045.12.12 0 0 1-.024-.076q-.003-.025.033-.078a1 1 0 0 1 .064-.088l.11-.068q.069-.04.138-.074a.3.3 0 0 1 .094-.039 2 2 0 0 0 .195-.023q.154-.022.211-.019a1 1 0 0 0 .102 0 .7.7 0 0 1 .234.029.6.6 0 0 1 .188.095.24.24 0 0 1 .089.129q.048.13-.054.243a.1.1 0 0 0-.028.05l-.013.026q.011.01.038.024.022.01.076-.007a.5.5 0 0 1 .186-.02q.108.006.205.029a.4.4 0 0 1 .13.059m-1.326-1.273a.2.2 0 0 1-.029.103.5.5 0 0 1-.077.098.3.3 0 0 1-.08.057.1.1 0 0 1-.038.031q-.021.006-.03.021t-.043.036l-.069.04a2 2 0 0 0-.157.079l-.194.105-.168.096q-.071.043-.085.053-.032.035-.082-.005-.046-.02-.06-.107a.5.5 0 0 1 .001-.162q-.002-.045.039-.078a.6.6 0 0 1 .138-.075.8.8 0 0 0 .204-.123l.09-.041q.054-.029.1-.056l.063-.046q.04-.033.087-.066a.3.3 0 0 1 .083-.044q.137-.098.224-.056.084.038.083.14m-1.397.898a.2.2 0 0 1 0 .102.3.3 0 0 1-.04.078q-.024.027-.035.028a.4.4 0 0 0-.128.04 1 1 0 0 1-.14.052l-.036.01q-.028.008-.042-.001-.057-.008-.095-.091a.26.26 0 0 1-.028-.16.24.24 0 0 1 .09-.129.36.36 0 0 1 .175-.068.27.27 0 0 1 .183.025q.081.047.096.114m.501-1.835q.03.05.046.117.014.067.024.146a.5.5 0 0 1-.028.132.5.5 0 0 1-.068.111l-.129.142a1 1 0 0 1-.103.09l-.154.109q-.082.055-.145.095l-.085.058q-.045.03-.01.071.033.041.083.081.045.04.05.063.01.013-.014.04l-.027.03q-.01.012-.002.025a.1.1 0 0 1 .002.04q-.004.017-.055.031a.1.1 0 0 1-.088-.01 1 1 0 0 1-.088-.064 1 1 0 0 0-.126-.076.24.24 0 0 0-.134-.024 7 7 0 0 1-.369.162 1 1 0 0 1-.108.037.24.24 0 0 1-.123-.074.13.13 0 0 1-.037-.125l.003-.051q-.003-.02.015-.035a.2.2 0 0 1 .083-.044q.06-.025.198-.075l.075-.029.03-.01a.2.2 0 0 0-.032-.035l-.062-.051a1 1 0 0 1-.148-.117q-.067-.062-.066-.13a.2.2 0 0 1 .053-.13q.024-.038.075-.035.051.004.131.076l.08.067.11.088q.055.045.1.074.038.03.043.024a.2.2 0 0 0 .072-.021 2 2 0 0 0 .254-.137q.113-.082.207-.168.096-.087.154-.164a.24.24 0 0 0 .053-.13q-.003-.051-.08-.072a1 1 0 0 0-.166-.026q-.092-.004-.116-.057-.025-.05.012-.108.03-.058.12-.08a.4.4 0 0 1 .187-.003.6.6 0 0 1 .182.068.3.3 0 0 1 .121.104m-1.697-1.469a1 1 0 0 1 .137.087q.068.045.072.129l-.02.117a.4.4 0 0 1-.078.14 1 1 0 0 1-.116.116.5.5 0 0 0-.098.09.5.5 0 0 0-.154.146q-.035.056-.02.069.028.036.147.047.117.008.3-.004.178-.01.395-.036l.188-.04q.056-.014.068-.003a.3.3 0 0 1 .081.106.23.23 0 0 1 .026.115.2.2 0 0 1-.03.098 6 6 0 0 1-.217.138l-.154.092-.104.056q-.097.053-.232.13l-.248.137a2 2 0 0 1-.141.072l-.194.095a2 2 0 0 0-.14.072l-.108.053-.174.091a10 10 0 0 0-.299.15.2.2 0 0 1-.046.045.2.2 0 0 1-.05.019l-.027-.024-.017-.01q-.006.005-.028-.047a.6.6 0 0 1-.04-.117q-.02-.062-.003-.079a.26.26 0 0 1 .088-.104q.066-.048.226-.124a1 1 0 0 0 .194-.083 2 2 0 0 1 .307-.148l.161-.076a5 5 0 0 0 .37-.205q.093-.044.106-.076t-.12-.011a8 8 0 0 1-.299.02 1.3 1.3 0 0 1-.238-.011q-.105-.015-.15-.066a.3.3 0 0 1-.034-.101.6.6 0 0 1-.018-.146.25.25 0 0 1 .014-.122.9.9 0 0 1 .154-.206q.065-.066.2-.191.11-.085.156-.124.044-.035.05-.062a.3.3 0 0 0 0-.07q-.012-.076.042-.119a.14.14 0 0 1 .115-.025m-.589-.529q.073.044.09.092a1 1 0 0 1 .016.107.4.4 0 0 1 .027.143.5.5 0 0 1-.024.146.2.2 0 0 1-.05.09 1.4 1.4 0 0 1-.251.182 2 2 0 0 1-.319.143 1.5 1.5 0 0 1-.33.073.7.7 0 0 1-.3-.028.4.4 0 0 1-.143-.098q-.063-.068-.04-.14.033-.126.12-.09.008.007.028.009.018.006.028-.007a.3.3 0 0 0-.062-.062 2 2 0 0 0-.123-.079.3.3 0 0 0-.1-.037.1.1 0 0 1-.036-.015l-.039-.047q-.036-.06-.018-.081a.2.2 0 0 0 .026-.047q.013-.031.001-.042-.018-.022.029-.05.044-.03.14-.018.09.016.115.017.02.003.04-.038a.26.26 0 0 1 .127-.134.8.8 0 0 1 .24-.085q.14-.03.295-.029.15.001.29.031.135.03.223.094m-.235.241a.2.2 0 0 0-.052-.026l-.069-.019h-.053a.1.1 0 0 1-.052-.009q-.011-.01-.023-.005a.3.3 0 0 1-.06.026 1 1 0 0 1-.166.039.6.6 0 0 0-.171.034.17.17 0 0 0-.084.086q-.007.015.005.031a.2.2 0 0 1 .019.044q.03.027.055.023.02-.004.028.053l-.007.102.097-.005a.7.7 0 0 0 .193-.04 1.2 1.2 0 0 0 .333-.201q.044-.041.039-.072a.1.1 0 0 0-.032-.061m-.837-1.067q.011.1.004.192a.5.5 0 0 1-.1.223.7.7 0 0 1-.146.137 2 2 0 0 1-.233.15q-.132.075-.255.126a.6.6 0 0 1-.2.055.4.4 0 0 1-.154-.009.18.18 0 0 1-.116-.105.22.22 0 0 1 .064-.136.27.27 0 0 1 .143-.092q.131-.026.287-.108.148-.081.25-.162a.4.4 0 0 0 .114-.09q.03-.039-.001-.082-.043-.066-.145-.073a.7.7 0 0 0-.245.032 1.5 1.5 0 0 0-.295.116.6.6 0 0 0-.115.074.6.6 0 0 1-.1.061.25.25 0 0 1-.133.047.23.23 0 0 1-.12-.029q-.05-.028-.054-.065a.3.3 0 0 1-.022-.089q-.004-.054.063-.117a.47.47 0 0 1 .216-.143q.118-.034.228-.091.084-.038.218-.067.135-.029.264-.036a.5.5 0 0 1 .205.019.6.6 0 0 1 .228.088.5.5 0 0 1 .15.174m-1.003-1.104q.028.035.037.103a1 1 0 0 1 0 .141.4.4 0 0 1-.028.109q-.005.006-.004.023l-.003.014q.005.02-.055.091a2 2 0 0 1-.295.266 3 3 0 0 1-.16.087q-.105.057-.185.103l-.236.099.089.14q.015.025.014.056a.1.1 0 0 1-.015.041.2.2 0 0 1-.088.044q-.067.02-.08.009a1.3 1.3 0 0 0-.186-.158l-.037-.007a.1.1 0 0 0-.047.017l-.072.026-.081.024-.092.035a3 3 0 0 1-.19.055.22.22 0 0 1-.206-.035.16.16 0 0 1-.082-.124.15.15 0 0 1 .025-.08q.02-.03.085-.047a.7.7 0 0 1 .14-.041 1 1 0 0 0 .137-.037q.106-.023.085-.058a.8.8 0 0 0-.177-.139q-.1-.063-.108-.131a.17.17 0 0 1 .03-.123q.056-.08.093-.072.038.006.15.108.082.052.135.096l.074.067.053.043a.2.2 0 0 0 .04.026q.03.015.055.011a.3.3 0 0 0 .053-.016.4.4 0 0 0 .092-.03 2 2 0 0 1 .159-.056q.154-.087.289-.176.13-.088.251-.182a.2.2 0 0 0 .073-.085q.006-.037-.05-.1a.8.8 0 0 0-.215-.162l-.095-.032a1 1 0 0 0-.098-.024l-.08-.019-.043-.006q-.036.01-.033-.047a.2.2 0 0 1 .017-.102.4.4 0 0 1 .093-.073q.058-.034.201-.001a.9.9 0 0 1 .358.141q.15.103.213.188m9.947.948a.2.2 0 0 1 .061.104.3.3 0 0 1-.004.142.4.4 0 0 1-.086.149 1 1 0 0 1-.128.111 8 8 0 0 1-.238.161l-.058.046a.1.1 0 0 0-.027.018.02.02 0 0 0-.005.012q-.006.006 0 .011.024.021.095.026.066.006.153.01l.035.004q.016-.001.036.001.018-.001.037.001.046.009.154.015l.417.011a1 1 0 0 1 .1.015l.034.058a.6.6 0 0 1 .034.117.13.13 0 0 1-.032.106.7.7 0 0 1-.118.088 4 4 0 0 1-.533.267.4.4 0 0 0-.082.055l-.09.075a.17.17 0 0 1-.089.038.06.06 0 0 1-.039.002.1.1 0 0 1-.038-.018.16.16 0 0 1-.043-.066.2.2 0 0 1-.013-.087.23.23 0 0 1 .055-.155.5.5 0 0 1 .119-.114 1 1 0 0 1 .121-.068q.051-.02.045-.013a.14.14 0 0 0-.059 0 .6.6 0 0 1-.132-.017 2 2 0 0 1-.193-.024l-.097-.018a.3.3 0 0 0-.066-.011l-.034-.004-.012-.005a.1.1 0 0 0-.04-.015.13.13 0 0 1-.055-.029.2.2 0 0 1-.049-.071.2.2 0 0 1-.024-.086q-.005-.043.016-.066a.03.03 0 0 0 .008-.021l.001-.025a.4.4 0 0 1 .014-.08q.006-.048.068-.117a1 1 0 0 1 .147-.12q.103-.074.208-.141a1 1 0 0 0 .158-.126.5.5 0 0 0 .063-.094.2.2 0 0 1 .032-.052q.021-.024.075-.035.05-.009.098.035m-.625-.55a.16.16 0 0 1 .049.071q.007.033.016.09a.8.8 0 0 1-.024.21.26.26 0 0 1-.084.14.13.13 0 0 0-.046.04l-.021.023q0 .029-.008.026a.1.1 0 0 0-.028.007q-.018-.016-.041.022a.3.3 0 0 1-.109.085 1 1 0 0 1-.208.086q-.045.014-.124.029a2 2 0 0 1-.165.028q-.09.01-.153.007a2 2 0 0 1-.228-.023.6.6 0 0 1-.178-.065.8.8 0 0 1-.147-.106.2.2 0 0 1-.073-.152.25.25 0 0 1-.022-.166.4.4 0 0 1 .08-.165 1 1 0 0 1 .217-.203q.141-.103.413-.165a1.1 1.1 0 0 1 .553-.001q.1.015.179.07t.152.112m-.63.087a.44.44 0 0 0-.205.041 4 4 0 0 0-.207.104.2.2 0 0 0-.068.046.5.5 0 0 0-.076.077q-.034.043-.022.066.007.045.045.057a.4.4 0 0 0 .103.024q.156.006.322-.022a.76.76 0 0 0 .316-.14q.077-.066.087-.126.006-.06-.064-.096a.5.5 0 0 0-.231-.031m-.337-1.327q.142.135.111.253a.44.44 0 0 1-.156.214.6.6 0 0 0-.113.082q-.048.042-.08.035l-.011.006q-.014.003-.013.021a.4.4 0 0 1-.124.082l-.052.028-.036.016q-.006.037-.035.039l-.054-.001q-.031-.002-.032.03-.005.018-.063.04a2 2 0 0 1-.131.049.5.5 0 0 0-.103.042.3.3 0 0 1-.052.028l-.111.051-.117.051-.072.026q-.043-.012.005.042t.11.105q.089.087.14.143a.3.3 0 0 1 .065.108q-.002.073-.08.105-.08.036-.143-.015l-.061-.051-.062-.051a2 2 0 0 1-.132-.093l-.162-.125-.055.043-.078.02a.1.1 0 0 0-.033.013l-.055.043-.07.023a.4.4 0 0 0-.126.074l-.16.05-.088.033q-.118.029-.17-.009a.18.18 0 0 1-.074-.109.3.3 0 0 1-.015-.085.12.12 0 0 1 .021-.083q.023-.038.105-.062l.058-.028.063-.034a1 1 0 0 0 .106-.028.4.4 0 0 0 .116-.062l.086-.036q.017-.007.029.005.021-.035-.009-.062l-.103-.083a1 1 0 0 0-.088-.058q-.03-.013-.048-.054a.15.15 0 0 1 .042-.076.3.3 0 0 1 .079-.069q.044-.024.073-.015.015.013.078.039a.6.6 0 0 1 .129.084l.17.128.142-.055q.055-.02.1-.039a.3.3 0 0 1 .053-.017.2.2 0 0 1 .069-.034l.108-.042a1 1 0 0 1 .125-.055l.059-.022q.012.01.028-.007.016-.05.057-.046a.1.1 0 0 0 .051-.002l.022-.007q-.001-.023.024-.032a.3.3 0 0 1 .053-.023 1 1 0 0 1 .178-.113 1 1 0 0 0 .056-.074q.01-.017-.004-.025a.2.2 0 0 0-.041-.038l-.042-.031q-.063-.02.23-.17a1 1 0 0 1 .205-.036q.093-.008.108.006m-1.084-.454q.023.016.034.058l.012.076a.4.4 0 0 1-.015.1.2.2 0 0 1-.042.07 1 1 0 0 1-.076.071l-.151.095a5 5 0 0 1-.206.127 1 1 0 0 1-.218.126l-.09.047-.171.105-.2.106q-.113.059-.283.152a36 36 0 0 1-.503.263l-.077.043q-.021.024-.073.015-.057-.008-.084-.033-.039-.04-.034-.123a.34.34 0 0 1 .046-.158.2.2 0 0 1 .131-.102q.144-.064.312-.154l.326-.18a7 7 0 0 1 .373-.191 1 1 0 0 1 .144-.058l.028-.013a1 1 0 0 1 .126-.08l.044-.03.052-.039a4 4 0 0 1-.206.007l-.148-.004a1 1 0 0 1-.12-.012l-.099-.009-.048-.006q-.015.003-.031.01a.05.05 0 0 1-.031-.001l-.034-.004-.051-.003a.5.5 0 0 1-.162-.061.4.4 0 0 1-.068-.05.17.17 0 0 1-.047-.097.4.4 0 0 1-.001-.141.25.25 0 0 1 .048-.125.9.9 0 0 1 .216-.214l.106-.082.118-.076-.023-.022a.13.13 0 0 1-.065-.053l-.025-.039a.2.2 0 0 1-.008-.044.2.2 0 0 0-.01-.042q.004-.04.067-.063a.2.2 0 0 1 .11-.014q.115.017.181.056a.22.22 0 0 1 .094.123.27.27 0 0 1-.006.162.6.6 0 0 1-.117.158q-.13.12-.184.174-.057.056-.024.086a.3.3 0 0 0 .13.053q.09.021.216.029.126.011.264.007a2 2 0 0 0 .254-.024 2 2 0 0 1 .158-.019.2.2 0 0 1 .141.047m-1.396-1.466q.07.065.057.187a.56.56 0 0 1-.104.24l-.068.063-.095.081q-.063.046-.165.116a20 20 0 0 1-.39.257l-.092.061q-.055.026-.1-.052a.28.28 0 0 1-.025-.185.15.15 0 0 1 .03-.076.3.3 0 0 1 .095-.086q.069-.052.214-.141.14-.089.225-.147a.8.8 0 0 0 .149-.14q.135-.126.193-.165.055-.037.076-.013m-1.388.983a.05.05 0 0 1 .032.012q.007.011.016.048a.2.2 0 0 1 .03.075 1 1 0 0 1 .004.101q-.003.046-.008.052a.64.64 0 0 1-.232.184q-.08.034-.128-.002a1 1 0 0 1-.099-.166 1 1 0 0 1 .06-.155q.045-.09.124-.142.075-.052.201-.007m.063-2.168q.044.04.062.105a.3.3 0 0 1-.004.142.4.4 0 0 1-.087.148 1 1 0 0 1-.127.111 6 6 0 0 1-.239.162 1 1 0 0 1-.084.064q-.006.006-.005.011-.006.006 0 .012.024.021.095.026.066.006.153.01l.034.004.037.001.037.001q.045.009.154.015l.417.011a1 1 0 0 1 .1.015.3.3 0 0 1 .033.057.6.6 0 0 1 .035.118.13.13 0 0 1-.032.106.7.7 0 0 1-.118.088 4 4 0 0 1-.534.267.3.3 0 0 0-.081.055l-.09.075a.17.17 0 0 1-.089.038.1.1 0 0 1-.04.002.1.1 0 0 1-.037-.018.16.16 0 0 1-.043-.066.2.2 0 0 1-.013-.087.23.23 0 0 1 .055-.156.5.5 0 0 1 .119-.113 1 1 0 0 1 .121-.068q.051-.02.045-.014a.2.2 0 0 0-.06 0 .5.5 0 0 1-.13-.016 3 3 0 0 1-.357-.053l-.034-.004-.012-.006a.1.1 0 0 0-.04-.015.1.1 0 0 1-.056-.028.2.2 0 0 1-.048-.071.2.2 0 0 1-.024-.087q-.006-.042.016-.066a.03.03 0 0 0 .008-.02l.001-.026q.002-.03.013-.079.006-.05.068-.117a1 1 0 0 1 .147-.121q.105-.072.209-.14a.8.8 0 0 0 .158-.127.5.5 0 0 0 .063-.093.2.2 0 0 1 .032-.053q.021-.024.074-.035.051-.007.098.035m-.262-1.323a.3.3 0 0 1 .15.114.76.76 0 0 1 .154.426.4.4 0 0 1-.063.218q-.027.041-.058.034a.14.14 0 0 1-.079-.039.3.3 0 0 1-.057-.068q-.022-.035-.01-.047a1 1 0 0 0-.017-.107.4.4 0 0 0-.03-.092.13.13 0 0 0-.069-.073.2.2 0 0 0-.1-.021.5.5 0 0 0-.117.046.7.7 0 0 0-.132.08l-.043.03-.315.222a3 3 0 0 1-.228.144l.017.011.026.007.201.058.067.034a.2.2 0 0 1 .064.042l.027.03q.03.027.061.087a.4.4 0 0 1 .034.123.3.3 0 0 1-.01.089.3.3 0 0 1-.041.075l-.056.068a.7.7 0 0 1-.19.114 1.1 1.1 0 0 1-.343.099 1 1 0 0 1-.25-.022 2 2 0 0 1-.273-.074.6.6 0 0 1-.198-.104l-.024-.027a.1.1 0 0 1-.02-.044.3.3 0 0 1-.049-.148.5.5 0 0 1 .064-.326.5.5 0 0 1 .084-.129.24.24 0 0 1 .093-.066q.045-.02.064-.012.012 0 .023.004a.1.1 0 0 0 .024.016.1.1 0 0 0 .029.016.13.13 0 0 0 .065-.001.3.3 0 0 0 .097-.047l.033-.024.035-.022.023-.006a.1.1 0 0 0 .03-.016.1.1 0 0 1 .044-.025l.036-.016.022-.018.01-.012.042-.021q.036-.022.066-.038l.033-.024.066-.048a1 1 0 0 1 .074-.052l.068-.052.068-.045q.302-.202.491-.274.186-.074.287-.047m-.868 1.308q.053-.07-.059-.156-.114-.082-.344-.085a.7.7 0 0 0-.175.014.4.4 0 0 0-.155.059q-.058.033-.065.059-.014.027.028.07.06.054.146.083.08.03.19.048a.3.3 0 0 1 .126-.009.14.14 0 0 1 .05.017q.002.009-.004-.008l.03-.01.029-.007.081-.018a.3.3 0 0 0 .067-.015.2.2 0 0 0 .055-.042"/><path fill="#f8f8f6" d="M88.5 138v-2l22.5-18.5v3z"/><path stroke="#000" stroke-linecap="round" stroke-width="2" d="M93.287 80.466c.093.327.655.984 1.548 1.713 1.072.874 1.976 1.67 2.75 2.561 1.54 1.773 2.654 3.005 3.458 4.163.279.4.565.824 2.08 2.643 1.344 1.613 3.983 4.518 5.419 6.146 2.013 2.28 2.516 3.177 3.499 4.582 1.711 2.445 3.344 4.238 4.115 5.314 1.287 1.796 2.426 2.923 3.965 4.903 1.402 1.804 3.867 5.379 5.255 7.295 1.835 2.532 2.562 3.23 3.198 4.1.631.864 1.618 1.948 3.475 4.368.917 1.194 2.696 3.166 4.256 4.729 2.261 2.263 3.104 3.479 4.515 4.914.286.308.425.495.567.66s.282.306.708.732m-26.52-85.484c-1.443 2.467-2.886 4.934-4.258 7.392a203 203 0 0 0-3.323 6.195c-1.104 2.17-1.771 3.707-2.081 4.818-.557 2-1.338 4.91-1.786 6.954-.403 1.84-.776 2.755-1.316 4.727-.119.428-.166.615-.236.804-.071.189-.164.375-.26.849"/><path stroke="#000" stroke-linecap="round" stroke-width="2" d="M92.723 79.62c.14-.564.61-1.22.892-2.02.359-1.014.705-1.739 1.199-2.655.565-1.05 1.01-2.418 1.434-3.363.405-.902.8-1.927 1.035-2.68.257-.826.798-1.784 1.105-2.68.311-.909.728-2.207 1.385-3.946.608-1.607.988-2.448 1.459-3.81.483-1.398.94-2.305 2.464-5.635.893-1.95 1.579-3.348 2.027-4.102.232-.39.727-.892 1.314-1.433.399-.367 1.011-.403 1.715-.333 1.496.148 2.682 1.479 3.341 2.067.812.724 1.598 1.339 2.374 2.069.825.635 1.294 1.153 1.67 1.434.189.142.375.282.849.708"/><path stroke="#121212" stroke-linecap="round" stroke-width="2" d="M117.127 53.523c.42 0 1.918-.186 3.825-.306 1.763-.11 3.741-.024 4.588.234 1.28.39 2.254.915 3.525 1.527 1.557.749 2.492 1.13 3.481 1.552 1.219.523 2.208 1.08 3.805 1.996 1.829 1.048 2.635 2.092 3.695 3.01 1.229 1.066 2.61 2.891 3.175 3.669.636.876 1.458 1.95 2.278 3.194 1.685 2.553 2.331 4.35 2.754 5.386.321.787 1.31 3.507 1.905 5.267.28.828.635 1.831.963 3.406.216 1.032.377 1.952.893 3.62.292.943.471 2 .754 2.989.393 1.38.846 3.29.987 4.487.376 3.195.985 6.359 1.223 8.581.282 2.631.329 4.419.4 5.435.087 1.246.164 2.611.235 5.011.063 2.168.024 6.265-.023 8.585-.055 2.742-.235 3.775-.305 5.018-.073 1.304-.354 2.613-.563 4.438-.333 2.899-1.107 4.948-1.34 6.001-.65 2.932-1.224 3.602-1.646 4.705-.801 2.566-1.082 3.505-1.318 4.329-.047.212-.094.445-.283 1.108"/><path stroke="#000" stroke-linecap="round" stroke-width="2" d="M141.107 138.301c1.593 1.405 3.194 2.912 4.064 3.688 1.068.953 1.999 2.186 2.751 2.869.999.906 1.691 1.808 2.563 2.844.495.754 1.012 1.271 1.434 1.74.19.236.33.469.897.991M92.44 55.216c.47.046 1.313.14 2.861.258 2.874.07 3.58.211 4.049.282.236.024.469.024.708.165m-40.344 6.912a97 97 0 0 0 7.677-1.337c4.474-.973 5.343-1.436 6.753-2 1.098-.437 2.117-.847 3.34-1.433a19 19 0 0 0 1.693-.87c.237-.142.47-.282 1.132-.708"/><path fill="#121212" d="M139.5 134.5V99c0-5.833-.5-18.1-2.5-20.5-2.5-3-9.5-5.5-14.5-5.5s-11.5 7-13 12.5c-1.2 4.4-.5 9.167 0 11L102 88c1.5-4.167 4.5-13.4 4.5-17s6.333-12.833 9.5-17h3.5c3.167-.167 11.1.6 17.5 5 8 5.5 14.5 26.5 14.5 26.5s4 21 4 33.5-5.5 27-5.5 27z"/><path fill="#121212" d="m137.5 134.5-28-37.5s0-10.667 2-13.5 6.6-8.6 9-9c3-.5 6-1 13 3 5.6 3.2 5 14.333 4 19.5z"/><path stroke="#121212" stroke-linecap="round" stroke-width="2" d="M139.556 128.286c-.233-1.304-.466-2.607-.656-3.814-.189-1.207-.329-2.277-.401-7.042s-.072-13.19-.118-17.833c-.053-5.25-.236-6.57-.282-7.814-.035-.928-.376-2.605-.657-4.836-.353-2.794-1.035-4.924-1.411-6.405-.304-1.193-.8-2-1.41-2.87-.734-1.05-2.161-1.718-3.805-2.33-.989-.368-1.789-.47-2.566-.776-.834-.328-1.621-.4-2.492-.588-.861-.187-1.809-.235-3.686-.237-1.363 0-2.446.89-3.648 1.737a21.3 21.3 0 0 0-2.893 2.468c-1.081 1.106-2.021 2.139-2.727 3.197-1.026 1.537-1.599 2.748-2.235 4.348-.496 1.25-.447 2.26-.519 3.738a12.7 12.7 0 0 1-.493 2.941c-.048.47-.094.895-.165 1.643-.024.561-.024 1.492-.165 2.734"/><path fill="#f8f8f6" d="M56 82.5c-2.8-1.2-5.833-7.333-6.5-10l10 7.5L50 69.5l5.5 2 .5-4 5 3.5s1 0 1-2-3-6.7-1-5.5 10-2.833 14-4.5c2.5 3.167 8.1 10.8 8.5 12 .5 1.5.5 5.5.5 7.5s-2.5 5-5.5 6.5-8.5 2-10.5.5c-1.6-1.2-3.5-1.5-5-1L62 86c-.833-.667-3.2-2.3-6-3.5"/><path stroke="#000" stroke-linecap="round" stroke-width="2" d="M49.558 68.335c.327 1.83.984 3.052 1.83 3.946a80 80 0 0 0 2.492 2.515c.92.897 1.879 1.81 3.29 3.078 1.297 1.167 1.979 1.65 2.074 1.932.034.1-.277.096-.49.002-.906-.395-1.528-1.173-2.61-2.019-.95-.743-1.97-2.159-3.033-3.127-.96-.875-1.716-1.904-2.328-2.68-.732-.93-1.27-1.436-1.576-1.578-1.035-.483-.027 2.535.232 3.428.291 1 1.01 1.787 1.527 2.938.51 1.134 1.035 1.952 1.552 2.8.471.771 1.128 1.644 2.067 2.679.784.864 1.693 1.458 2.446 2.023.815.611 2.159 1.221 3.104 1.577.818.307 1.738.728 2.539.987.815.264 1.738.494 2.656.706.213.07.4.163.588.234.19.072.375.118.708.166M49.558 67.911c2.296.889 4.274 2.206 5.192 2.703.19.102.4-.068.495-.605.096-1.514.003-2.8-.208-3.363-.117-.284-.257-.563-.542-1.274m.423.423c3.149 2.256 3.9 2.819 4.746 3.641.372.36.613.73.871.85 1.614.74.215-4.956-.09-5.992-.072-.237-.118-.423-.212-.635s-.234-.445-.378-.826m16.223-3.95c.845.986 1.594 2.108 2.489 3.429a46 46 0 0 0 1.858 2.517c.531.67 1.01 1.48 1.716 2.256.754.83 1.27 1.715 1.74 2.516.54.92 1.27 1.645 1.88 2.609.837 1.321 1.317 1.905 1.882 2.61.693.866 1.41 1.834 1.951 2.446.119.188.212.42.4.68.187.26.466.54.895 1.25"/><path stroke="#000" stroke-linecap="round" stroke-width="2" d="M84.541 71.438c.282 1.642.376 2.863.4 5.795.012 1.401-.304 2.336-.587 3.135-.358 1.014-1.08 1.599-1.527 2.469-.416.808-1.197 1.387-2.137 2.023-1.127.763-2.115 1.06-3.057 1.482-.886.397-3.462.33-5.08.213-.851-.061-1.878-.399-2.703-.587a34 34 0 0 0-3.006-.541c-1.422-.024-2.52.022-2.895.116-.189.047-.375.094-.708.142m2.962-9.733v5.501m.706-18.903c.093.42.186.839.234 1.753s.048 2.31.048 3.75"/><path stroke="#000" stroke-linecap="round" stroke-width="2" d="M77.065 74.118c-.093.093-.234.327-.422.726a7.5 7.5 0 0 0-.517 1.806c-.049.563-.049 1.4.093 2.405m-9.592 8.464c1.173.046 2.11.14 2.982.445 1.083.377 2.045.918 3.173 1.082 2.5.366 6.769.259 7.666.61.89.35 1.41 1.339 2.256 2.069.84.725 1.973.965 3.522 1.13 2.817.3 4.141-1.053 4.966-1.432.884-.407 2.132-.987 3.385-1.223 1.012-.189 1.623-.33 2.395-.4.539-.024 1.377-.024 2.24-.024"/><path fill="#000" d="M87.5 93c2.4-2.4 9.333-3.833 12.5-4-5.167-6-14-17.183-14-14.5 0 3.5-3 9-5.5 11.5-2 2-14-.5-16 0 1 1.5 13.8 4 17 4 2 0 3 6 6 3"/><path fill="#121212" d="M46.5 90c4 1.6 14-.667 18.5-2-3-1.5-11-5-13.5-9.5-2.215-3.987-3.167-5.5-3-7.5l1.5-.5v-3l4.5 3V64c1.333 1.834 4.4 5.4 6 5 2-.5-2-7.375-1-7 3.2 1.2 12.5-1.5 16.5-3.5l1.5 1L92 79l4-7 2-8c-2.167-3.5-7.2-11.6-10-16-3.5-5.5-10.5-7-13-9.5s-9.5-2.5-18-3c-6.314-.371-13.5 3.5-17 5s-7.5 9-10 16 1.5 14 2.5 20.5 9 11 14 13"/><path stroke="#000" stroke-linecap="round" stroke-width="2" d="M66.344 88.083c-2.113.234-3.239.61-4.321.87-1.472.352-2.492.682-3.41.963-1.365.417-2.327.424-3.596.658-.84.155-4.951.19-8.017-.045-.882-.067-1.996-.702-3.338-1.502-1.58-.942-2.235-1.412-3.246-2.093a33 33 0 0 1-2.822-2.116c-.845-.707-1.386-1.573-1.975-2.514-.998-1.593-1.716-2.679-2.305-3.598-.7-1.095-1.245-2.136-1.576-3.127-.41-1.228-.704-2.068-1.292-3.97-.364-1.177-.448-2.047-.753-3.574-.222-1.107-.307-2.327-.424-4.342-.34-5.832.21-6.779.398-7.886.165-.97.562-2.09.847-3.01.266-.862.61-1.9 1.15-3.196.516-1.237 1.246-2.093 1.787-2.73.571-.67 1.524-2.038 2.819-3.453 1.026-1.122 3.862-2.859 5.41-3.976.661-.478 1.338-.824 2.326-1.363.768-.42 2.017-.916 3.056-1.107 1-.183 3.695-.887 5.711-1.293 1.14-.229 4.19-.4 7.833-.447 2.023-.026 3.145.28 4.253.422 1.415.183 2.515.611 3.574.823 1.036.207 2.603.68 4.113.987 1.237.252 2.163.494 3.011.729 1.096.304 2.067.939 2.892 1.387.741.401 1.9 1.428 3.547 2.7.882.682 2.114 1.783 4.488 4.25 1.803 1.874 2.38 3.133 3.016 4.098.586.889 1.572 1.902 2.326 2.938.944 1.296 1.693 2.256 2.188 3.08.817 1.359 1.716 3.174 2.257 4.255.682 1.365 1.059 2.118 1.223 2.493.072.19.118.376.448.99"/><path stroke="#000" stroke-linecap="round" d="M76.192 79.982c.321 1.762.162 2.671.014 3.14-.014.253.04.496.133.71.04.107.067.212.174.562"/></g><defs><clipPath id="a"><path fill="#fff" d="M0 0h155.646v150.433H0z"/></clipPath></defs></svg>