<svg width="37" height="42" viewBox="0 0 37 42" fill="none" xmlns="http://www.w3.org/2000/svg">
  <path d="M8.31428 28.786C8.28162 28.3053 8.26528 27.6567 8.26528 26.84C8.26528 26.0187 8.27695 25.4867 8.30028 25.244C8.32362 25.0947 8.42628 24.9967 8.60828 24.95C8.79028 24.8987 9.03062 24.873 9.32928 24.873C9.76795 24.873 10.1366 24.9687 10.4353 25.16C10.7386 25.3467 10.8903 25.6243 10.8903 25.993C10.8903 26.2963 10.8483 26.5507 10.7643 26.756C10.6803 26.9567 10.5753 27.106 10.4493 27.204C10.2439 27.3627 9.94062 27.442 9.53928 27.442C9.36662 27.442 9.14028 27.4187 8.86028 27.372C8.88362 28.3053 8.89295 28.8933 8.88828 29.136C8.88362 29.3787 8.80195 29.5 8.64328 29.5C8.54062 29.5 8.47528 29.4813 8.44728 29.444C8.41928 29.4067 8.40062 29.381 8.39128 29.367C8.38195 29.3483 8.37262 29.3227 8.36328 29.29C8.35395 29.2573 8.34695 29.2317 8.34228 29.213C8.33762 29.1897 8.33295 29.157 8.32828 29.115C8.32828 29.073 8.32595 29.0403 8.32128 29.017C8.31662 28.947 8.31428 28.87 8.31428 28.786ZM10.3093 26.014C10.3093 25.8227 10.2066 25.6733 10.0013 25.566C9.79595 25.454 9.57662 25.398 9.34328 25.398C9.10995 25.398 8.94662 25.419 8.85328 25.461C8.83462 25.7363 8.82528 25.9907 8.82528 26.224C8.82528 26.4527 8.83462 26.6603 8.85328 26.847C8.97928 26.861 9.06562 26.8727 9.11228 26.882C9.23362 26.896 9.33628 26.903 9.42028 26.903C9.50895 26.903 9.56728 26.903 9.59528 26.903C9.62795 26.8983 9.68628 26.8913 9.77028 26.882C9.85895 26.868 9.92195 26.847 9.95928 26.819C9.99662 26.791 10.0433 26.7537 10.0993 26.707C10.1553 26.6603 10.1949 26.6067 10.2183 26.546C10.2789 26.378 10.3093 26.2007 10.3093 26.014ZM13.4274 24.845C13.7541 24.845 14.0317 24.95 14.2604 25.16C14.7084 25.5613 14.9324 26.196 14.9324 27.064C14.9324 27.9273 14.6851 28.6063 14.1904 29.101C13.9337 29.3483 13.6374 29.4837 13.3014 29.507C12.8581 29.507 12.5127 29.3553 12.2654 29.052C12.0181 28.7487 11.8407 28.4103 11.7334 28.037C11.6307 27.659 11.5794 27.295 11.5794 26.945C11.5794 26.3477 11.7217 25.8553 12.0064 25.468C12.3051 25.0527 12.7787 24.845 13.4274 24.845ZM13.3784 25.426C12.7531 25.426 12.3634 25.7223 12.2094 26.315C12.1627 26.4737 12.1394 26.6767 12.1394 26.924C12.1394 27.1713 12.1861 27.4583 12.2794 27.785C12.4054 28.2237 12.5921 28.5317 12.8394 28.709C12.9841 28.821 13.1591 28.877 13.3644 28.877C13.5697 28.877 13.7541 28.786 13.9174 28.604C14.0807 28.4173 14.1927 28.1817 14.2534 27.897C14.3141 27.6123 14.3444 27.3253 14.3444 27.036C14.3444 26.5227 14.2697 26.126 14.1204 25.846C13.9757 25.566 13.7284 25.426 13.3784 25.426ZM18.766 24.838C18.878 24.838 18.9504 24.9197 18.983 25.083C19.0064 25.8437 19.018 26.6743 19.018 27.575C19.018 28.471 19.0134 28.989 19.004 29.129C18.9947 29.269 18.9644 29.367 18.913 29.423C18.8617 29.479 18.7684 29.507 18.633 29.507C18.5117 29.507 18.451 29.4323 18.451 29.283V27.701C18.451 27.4443 18.4464 27.1807 18.437 26.91C18.4277 26.6393 18.423 26.469 18.423 26.399C18.2644 26.6697 18.0544 26.8937 17.793 27.071C17.5317 27.2437 17.24 27.33 16.918 27.33C16.596 27.33 16.3254 27.197 16.106 26.931C16.0967 27.2157 16.092 27.554 16.092 27.946C16.092 28.3333 16.0944 28.7417 16.099 29.171C16.099 29.2877 16.0594 29.374 15.98 29.43C15.9054 29.4813 15.819 29.507 15.721 29.507C15.595 29.507 15.532 29.43 15.532 29.276C15.5367 28.856 15.539 28.191 15.539 27.281V25.293C15.539 25.2137 15.5647 25.1367 15.616 25.062C15.672 24.9873 15.735 24.95 15.805 24.95C15.8797 24.95 15.9474 24.971 16.008 25.013C16.0687 25.0503 16.1014 25.1087 16.106 25.188C16.1247 25.706 16.2087 26.091 16.358 26.343C16.5074 26.595 16.6847 26.721 16.89 26.721C17.0954 26.721 17.2704 26.6883 17.415 26.623C17.5644 26.553 17.6857 26.4737 17.779 26.385C17.877 26.2963 17.9704 26.1703 18.059 26.007C18.185 25.7737 18.3064 25.4867 18.423 25.146C18.493 24.9407 18.6074 24.838 18.766 24.838ZM21.4801 24.845C21.8068 24.845 22.0845 24.95 22.3131 25.16C22.7611 25.5613 22.9851 26.196 22.9851 27.064C22.9851 27.9273 22.7378 28.6063 22.2431 29.101C21.9865 29.3483 21.6901 29.4837 21.3541 29.507C20.9108 29.507 20.5655 29.3553 20.3181 29.052C20.0708 28.7487 19.8935 28.4103 19.7861 28.037C19.6835 27.659 19.6321 27.295 19.6321 26.945C19.6321 26.3477 19.7745 25.8553 20.0591 25.468C20.3578 25.0527 20.8315 24.845 21.4801 24.845ZM21.4311 25.426C20.8058 25.426 20.4161 25.7223 20.2621 26.315C20.2155 26.4737 20.1921 26.6767 20.1921 26.924C20.1921 27.1713 20.2388 27.4583 20.3321 27.785C20.4581 28.2237 20.6448 28.5317 20.8921 28.709C21.0368 28.821 21.2118 28.877 21.4171 28.877C21.6225 28.877 21.8068 28.786 21.9701 28.604C22.1335 28.4173 22.2455 28.1817 22.3061 27.897C22.3668 27.6123 22.3971 27.3253 22.3971 27.036C22.3971 26.5227 22.3225 26.126 22.1731 25.846C22.0285 25.566 21.7811 25.426 21.4311 25.426ZM10.7971 30.922C11.1097 30.922 11.4551 30.9827 11.8331 31.104C11.9171 31.1693 11.9591 31.2417 11.9591 31.321C11.9591 31.3957 11.9194 31.4633 11.8401 31.524C11.7654 31.58 11.6791 31.608 11.5811 31.608C11.3291 31.5427 11.0934 31.51 10.8741 31.51C10.3701 31.51 9.9874 31.6593 9.72607 31.958C9.46474 32.2567 9.33407 32.7 9.33407 33.288C9.33407 33.876 9.48807 34.3357 9.79607 34.667C9.95474 34.8397 10.1437 34.926 10.3631 34.926C10.5824 34.926 10.9324 34.8093 11.4131 34.576C11.5811 34.4967 11.6931 34.457 11.7491 34.457C11.8704 34.457 11.9311 34.52 11.9311 34.646C11.9311 34.772 11.8727 34.877 11.7561 34.961C11.3547 35.171 11.0421 35.3133 10.8181 35.388C10.5941 35.458 10.4004 35.493 10.2371 35.493C9.90107 35.493 9.61407 35.3693 9.37607 35.122C8.9514 34.6647 8.73907 34.0417 8.73907 33.253C8.73907 32.4597 8.93974 31.874 9.34107 31.496C9.74707 31.1133 10.2324 30.922 10.7971 30.922ZM13.204 32.819C13.568 32.8797 13.9017 32.91 14.205 32.91C14.5084 32.91 14.702 32.9077 14.786 32.903C14.7767 32.5483 14.772 32.2077 14.772 31.881C14.772 31.5543 14.772 31.3327 14.772 31.216C14.772 31.0993 14.7767 31.027 14.786 30.999C14.7954 30.9663 14.8257 30.936 14.877 30.908C14.9284 30.88 15.003 30.866 15.101 30.866C15.241 30.866 15.311 30.95 15.311 31.118V33.596C15.311 34.1093 15.2994 34.674 15.276 35.29C15.2714 35.4253 15.157 35.493 14.933 35.493C14.821 35.493 14.765 35.4253 14.765 35.29L14.793 33.435C14.6437 33.4443 14.4384 33.449 14.177 33.449C13.9204 33.449 13.596 33.421 13.204 33.365C13.204 33.981 13.232 34.625 13.288 35.297C13.2927 35.3717 13.26 35.43 13.19 35.472C13.12 35.5093 13.0314 35.528 12.924 35.528C12.8214 35.528 12.7654 35.4743 12.756 35.367C12.6954 34.7043 12.665 34.051 12.665 33.407L12.707 31.223C12.707 31.1297 12.742 31.062 12.812 31.02C12.882 30.9733 12.9567 30.95 13.036 30.95C13.1667 30.95 13.232 31.013 13.232 31.139L13.204 32.819ZM17.3674 30.887C17.4841 30.887 17.5821 30.9383 17.6614 31.041C17.7408 31.1437 17.8434 31.356 17.9694 31.678C18.2634 32.4387 18.5504 33.631 18.8304 35.255C18.8351 35.2737 18.8374 35.3017 18.8374 35.339C18.8374 35.3717 18.8141 35.409 18.7674 35.451C18.7254 35.4883 18.6624 35.507 18.5784 35.507C18.4991 35.507 18.4314 35.4883 18.3754 35.451C18.3194 35.409 18.2821 35.3437 18.2634 35.255C18.2448 35.1617 18.2098 34.982 18.1584 34.716C18.0464 34.1233 17.9718 33.8153 17.9344 33.792C17.8784 33.7593 17.6918 33.7243 17.3744 33.687C17.0618 33.6497 16.8541 33.631 16.7514 33.631C16.6488 33.631 16.5881 33.6403 16.5694 33.659C16.4854 33.7337 16.3711 34.3007 16.2264 35.36C16.2078 35.4487 16.1191 35.493 15.9604 35.493C15.8018 35.493 15.7224 35.4253 15.7224 35.29C15.7224 34.954 15.8461 34.3123 16.0934 33.365C16.3408 32.4177 16.5461 31.79 16.7094 31.482C16.9148 31.0853 17.1341 30.887 17.3674 30.887ZM17.3394 31.664C17.2694 31.664 17.1481 31.8717 16.9754 32.287C16.8028 32.6977 16.7164 32.952 16.7164 33.05C16.7164 33.0733 16.7211 33.0897 16.7304 33.099C16.7678 33.1363 16.9148 33.169 17.1714 33.197C17.4281 33.225 17.5984 33.239 17.6824 33.239C17.7664 33.239 17.8131 33.2343 17.8224 33.225C17.8318 33.211 17.8364 33.1737 17.8364 33.113C17.8364 33.0477 17.7734 32.791 17.6474 32.343C17.5214 31.8903 17.4188 31.664 17.3394 31.664ZM21.9334 30.908C21.9801 30.88 22.0407 30.866 22.1154 30.866C22.1901 30.866 22.2577 30.8987 22.3184 30.964C22.3791 31.0247 22.4094 31.097 22.4094 31.181C22.4094 33.0057 22.4164 34.1093 22.4304 34.492C22.4491 34.87 22.4584 35.0637 22.4584 35.073C22.4584 35.1757 22.4304 35.2737 22.3744 35.367C22.3184 35.4557 22.2554 35.5 22.1854 35.5C22.1201 35.5 22.0687 35.4977 22.0314 35.493C21.9987 35.4837 21.9684 35.4743 21.9404 35.465C21.9124 35.4557 21.8844 35.437 21.8564 35.409L21.7864 35.339C21.7677 35.3203 21.7421 35.2853 21.7094 35.234C21.6814 35.178 21.6581 35.1337 21.6394 35.101C21.6207 35.0683 21.5904 35.0123 21.5484 34.933C21.5111 34.849 21.4247 34.681 21.2894 34.429C21.1587 34.177 21.0397 33.9507 20.9324 33.75C20.5637 33.0733 20.2207 32.539 19.9034 32.147C19.9034 33.6637 19.8614 34.716 19.7774 35.304C19.7634 35.416 19.6771 35.472 19.5184 35.472C19.4437 35.472 19.3807 35.4533 19.3294 35.416C19.2827 35.3787 19.2594 35.318 19.2594 35.234C19.2594 35.15 19.2757 34.688 19.3084 33.848C19.3457 33.008 19.3644 32.4853 19.3644 32.28C19.3644 32.07 19.3644 31.937 19.3644 31.881C19.3644 31.545 19.3901 31.356 19.4414 31.314C19.4927 31.272 19.5464 31.251 19.6024 31.251C19.8591 31.251 20.2511 31.671 20.7784 32.511C20.8811 32.6743 21.0771 33.0173 21.3664 33.54C21.6557 34.058 21.8284 34.3777 21.8844 34.499L21.8004 31.594C21.8004 31.1927 21.8447 30.964 21.9334 30.908Z" fill="#121212"/>
  <path d="M1.57153 19.4492C1.57153 23.7094 1.57153 27.6582 1.67535 30.7233C1.81594 34.8737 5.40969 37.3518 6.98271 38.3352C9.18726 39.7134 10.8628 39.8882 12.4715 40.2679C14.1028 40.6529 18.04 40.5223 21.035 40.1445C22.8449 39.9162 24.5628 38.5668 26.6622 36.6076C28.8667 34.5503 28.833 32.5563 29.5691 28.8989C29.6069 21.9837 29.1895 20.8465 28.8382 19.8327C28.768 19.5783 28.6987 19.3277 28.6274 18.5" stroke="#121212" stroke-width="2" stroke-linecap="round"/>
  <path d="M1.43237 18.8804C3.44512 19.3841 5.01239 19.8136 7.07144 20.5C8.57144 21 10.2484 20.8919 12.5714 21C18.3841 21.2705 22.1397 20.6081 23.0714 20.5C24.7167 20.4632 26.435 19.6738 27.1539 19.53C27.516 19.4576 27.8727 19.3863 28.4565 19.3128" stroke="#121212" stroke-width="2" stroke-linecap="round"/>
  <path d="M1 17.7996C1.93396 17.7283 3.76411 16.8646 5.57147 16.6819C7.18073 16.5192 9.02159 16.1794 12.5715 16C19.3816 15.6558 23.9856 16.5738 24.5964 16.6819C26.074 16.9327 27.2285 17.4386 27.8036 17.5823C28.0933 17.6548 28.3787 17.7261 28.6727 17.7996" stroke="#121212" stroke-width="2" stroke-linecap="round"/>
  <path d="M10.1856 13.4715C7.90343 8.19469 7.83174 7.48426 7.95586 6.84018C8.07997 6.55558 8.25864 6.30415 8.48975 6.10835C8.61492 6.01848 8.75615 5.94787 9.00865 5.66113" stroke="#72757A" stroke-linecap="round"/>
  <path d="M14.5715 10.4502C14.6421 10.4502 14.9963 8.43769 15.4424 5.28251C15.6824 3.58533 15.3569 2.92871 15.1252 2.19688C15.0359 1.78818 15.0348 1.42869 15.1413 1.14409C15.2124 1.00072 15.3183 0.859492 15.7484 0.5" stroke="#72757A" stroke-linecap="round"/>
  <path d="M12.7483 10.4502C12.6777 10.4502 12.3235 8.43769 11.8774 5.28251C11.6374 3.58533 11.963 2.92871 12.1946 2.19688C12.2839 1.78818 12.285 1.42869 12.1786 1.14409C12.1074 1.00072 12.0015 0.859492 11.5714 0.5" stroke="#72757A" stroke-linecap="round"/>
  <path d="M21.9544 12.2947C21.5628 7.55282 21.4195 6.48933 21.8095 5.6992C21.9876 5.52106 22.2348 5.2739 22.4327 5.11128C22.6306 4.94865 22.7719 4.87804 23.0244 4.59131" stroke="#72757A" stroke-linecap="round"/>
  <path d="M18.6413 13.2034C19.0329 8.46151 19.1762 7.39802 18.7862 6.60789C18.6081 6.42975 18.3609 6.1826 18.163 6.01997C17.9651 5.85734 17.8239 5.78673 17.5714 5.5" stroke="#72757A" stroke-linecap="round"/>
  <path d="M30.3595 33.514C30.467 33.4303 30.7072 33.3098 31.2701 32.9214C31.5398 32.7352 31.891 32.3785 32.3251 31.8914C32.7592 31.4043 33.2472 30.7734 33.6355 30.2163C34.3315 29.2178 34.6272 28.5858 34.7113 28.3339C34.7859 28.11 34.8317 27.912 34.9156 27.6489C35.0572 27.2047 35.0965 26.4967 35.1086 25.8C35.121 25.084 34.8451 24.5825 34.6884 24.377C34.5061 24.1382 34.2204 23.9202 33.7585 23.6443C32.897 23.2944 32.5857 23.1988 31.9568 23.1321C31.5689 23.126 30.8666 23.126 30.1431 23.126" stroke="#121212" stroke-width="2" stroke-linecap="round"/>
</svg>
